%TF.GenerationSoftware,KiCad,Pcbnew,7.0.6*%
%TF.CreationDate,2024-01-21T15:46:54+00:00*%
%TF.ProjectId,MoonHub,4d6f6f6e-4875-4622-9e6b-696361645f70,rev?*%
%TF.SameCoordinates,Original*%
%TF.FileFunction,Paste,Top*%
%TF.FilePolarity,Positive*%
%FSLAX46Y46*%
G04 Gerber Fmt 4.6, Leading zero omitted, Abs format (unit mm)*
G04 Created by KiCad (PCBNEW 7.0.6) date 2024-01-21 15:46:54*
%MOMM*%
%LPD*%
G01*
G04 APERTURE LIST*
G04 Aperture macros list*
%AMRoundRect*
0 Rectangle with rounded corners*
0 $1 Rounding radius*
0 $2 $3 $4 $5 $6 $7 $8 $9 X,Y pos of 4 corners*
0 Add a 4 corners polygon primitive as box body*
4,1,4,$2,$3,$4,$5,$6,$7,$8,$9,$2,$3,0*
0 Add four circle primitives for the rounded corners*
1,1,$1+$1,$2,$3*
1,1,$1+$1,$4,$5*
1,1,$1+$1,$6,$7*
1,1,$1+$1,$8,$9*
0 Add four rect primitives between the rounded corners*
20,1,$1+$1,$2,$3,$4,$5,0*
20,1,$1+$1,$4,$5,$6,$7,0*
20,1,$1+$1,$6,$7,$8,$9,0*
20,1,$1+$1,$8,$9,$2,$3,0*%
G04 Aperture macros list end*
%ADD10RoundRect,0.250000X0.475000X-0.250000X0.475000X0.250000X-0.475000X0.250000X-0.475000X-0.250000X0*%
%ADD11R,0.675000X0.200000*%
%ADD12R,0.775000X0.400000*%
%ADD13RoundRect,0.140000X-0.170000X0.140000X-0.170000X-0.140000X0.170000X-0.140000X0.170000X0.140000X0*%
%ADD14RoundRect,0.250000X-0.650000X0.325000X-0.650000X-0.325000X0.650000X-0.325000X0.650000X0.325000X0*%
%ADD15O,1.300000X1.900000*%
%ADD16O,1.100000X2.200000*%
%ADD17RoundRect,0.060000X0.090000X0.665000X-0.090000X0.665000X-0.090000X-0.665000X0.090000X-0.665000X0*%
%ADD18RoundRect,0.060000X0.240000X0.665000X-0.240000X0.665000X-0.240000X-0.665000X0.240000X-0.665000X0*%
%ADD19RoundRect,0.140000X0.140000X0.170000X-0.140000X0.170000X-0.140000X-0.170000X0.140000X-0.170000X0*%
%ADD20RoundRect,0.250000X-0.247487X-1.166726X1.166726X0.247487X0.247487X1.166726X-1.166726X-0.247487X0*%
%ADD21RoundRect,0.140000X0.170000X-0.140000X0.170000X0.140000X-0.170000X0.140000X-0.170000X-0.140000X0*%
%ADD22RoundRect,0.135000X0.135000X0.185000X-0.135000X0.185000X-0.135000X-0.185000X0.135000X-0.185000X0*%
%ADD23RoundRect,0.135000X-0.135000X-0.185000X0.135000X-0.185000X0.135000X0.185000X-0.135000X0.185000X0*%
%ADD24R,1.200000X0.400000*%
%ADD25RoundRect,0.100000X-0.250000X-0.400000X0.250000X-0.400000X0.250000X0.400000X-0.250000X0.400000X0*%
%ADD26RoundRect,0.125000X-0.250000X-0.475000X0.250000X-0.475000X0.250000X0.475000X-0.250000X0.475000X0*%
%ADD27R,1.400000X1.200000*%
%ADD28R,1.400000X2.800000*%
%ADD29O,1.400000X2.500000*%
%ADD30RoundRect,0.150000X-0.512500X-0.150000X0.512500X-0.150000X0.512500X0.150000X-0.512500X0.150000X0*%
G04 APERTURE END LIST*
D10*
%TO.C,C1*%
X37000000Y-5250000D03*
X37000000Y-3350000D03*
%TD*%
D11*
%TO.C,U3*%
X45862500Y-10500000D03*
X45862500Y-11000000D03*
D12*
X45912500Y-11500000D03*
D11*
X45862500Y-12000000D03*
X45862500Y-12500000D03*
X46737500Y-12500000D03*
X46737500Y-12000000D03*
D12*
X46687500Y-11500000D03*
D11*
X46737500Y-11000000D03*
X46737500Y-10500000D03*
%TD*%
D13*
%TO.C,C9*%
X30350000Y-13020000D03*
X30350000Y-13980000D03*
%TD*%
D14*
%TO.C,C3*%
X43600000Y-3450000D03*
X43600000Y-6400000D03*
%TD*%
D15*
%TO.C,USB3*%
X46222000Y-2600000D03*
D16*
X46222000Y-6780000D03*
D15*
X54862000Y-2600000D03*
D16*
X54862000Y-6780000D03*
D17*
X52292000Y-7695000D03*
X51292000Y-7695000D03*
X49792000Y-7695000D03*
X48792000Y-7695000D03*
D18*
X48092000Y-7695000D03*
X47317000Y-7695000D03*
D17*
X49292000Y-7695000D03*
X50292000Y-7695000D03*
X50792000Y-7695000D03*
X51792000Y-7695000D03*
D18*
X52992000Y-7695000D03*
X53767000Y-7695000D03*
%TD*%
D19*
%TO.C,C2*%
X37580000Y-1900000D03*
X36620000Y-1900000D03*
%TD*%
D20*
%TO.C,D1*%
X16985786Y-6214214D03*
X19814214Y-3385786D03*
%TD*%
D13*
%TO.C,C4*%
X21200000Y-8170000D03*
X21200000Y-9130000D03*
%TD*%
D21*
%TO.C,C8*%
X30350000Y-11980000D03*
X30350000Y-11020000D03*
%TD*%
D22*
%TO.C,R3*%
X51972000Y-9375000D03*
X52992000Y-9375000D03*
%TD*%
D23*
%TO.C,R4*%
X49112000Y-9375000D03*
X48092000Y-9375000D03*
%TD*%
D24*
%TO.C,U4*%
X28900000Y-12427500D03*
X28900000Y-11792500D03*
X28900000Y-11157500D03*
X28900000Y-10522500D03*
X28900000Y-9887500D03*
X28900000Y-9252500D03*
X28900000Y-8617500D03*
X28900000Y-7982500D03*
X28900000Y-7347500D03*
X28900000Y-6712500D03*
X28900000Y-6077500D03*
X28900000Y-5442500D03*
X28900000Y-4807500D03*
X28900000Y-4172500D03*
X23700000Y-4172500D03*
X23700000Y-4807500D03*
X23700000Y-5442500D03*
X23700000Y-6077500D03*
X23700000Y-6712500D03*
X23700000Y-7347500D03*
X23700000Y-7982500D03*
X23700000Y-8617500D03*
X23700000Y-9252500D03*
X23700000Y-9887500D03*
X23700000Y-10522500D03*
X23700000Y-11157500D03*
X23700000Y-11792500D03*
X23700000Y-12427500D03*
%TD*%
D25*
%TO.C,J1*%
X11950000Y-15600000D03*
D26*
X10800000Y-11600000D03*
X9600000Y-11600000D03*
X8400000Y-11600000D03*
X7200000Y-11600000D03*
D25*
X6050000Y-15600000D03*
%TD*%
D11*
%TO.C,U2*%
X14762500Y-10700000D03*
X14762500Y-11200000D03*
D12*
X14812500Y-11700000D03*
D11*
X14762500Y-12200000D03*
X14762500Y-12700000D03*
X15637500Y-12700000D03*
X15637500Y-12200000D03*
D12*
X15587500Y-11700000D03*
D11*
X15637500Y-11200000D03*
X15637500Y-10700000D03*
%TD*%
D27*
%TO.C,Y1*%
X34200000Y-12177500D03*
X32000000Y-12177500D03*
X32000000Y-13877500D03*
X34200000Y-13877500D03*
%TD*%
D11*
%TO.C,U5*%
X85862500Y-13700000D03*
X85862500Y-14200000D03*
D12*
X85912500Y-14700000D03*
D11*
X85862500Y-15200000D03*
X85862500Y-15700000D03*
X86737500Y-15700000D03*
X86737500Y-15200000D03*
D12*
X86687500Y-14700000D03*
D11*
X86737500Y-14200000D03*
X86737500Y-13700000D03*
%TD*%
D13*
%TO.C,C5*%
X22250000Y-8170000D03*
X22250000Y-9130000D03*
%TD*%
D23*
%TO.C,R1*%
X12223000Y-9375000D03*
X11203000Y-9375000D03*
%TD*%
D21*
%TO.C,C7*%
X22250000Y-7180000D03*
X22250000Y-6220000D03*
%TD*%
D15*
%TO.C,USB2*%
X4678000Y-2600000D03*
D16*
X4678000Y-6780000D03*
D15*
X13318000Y-2600000D03*
D16*
X13318000Y-6780000D03*
D17*
X10748000Y-7695000D03*
X9748000Y-7695000D03*
X8248000Y-7695000D03*
X7248000Y-7695000D03*
D18*
X6548000Y-7695000D03*
X5773000Y-7695000D03*
D17*
X7748000Y-7695000D03*
X8748000Y-7695000D03*
X9248000Y-7695000D03*
X10248000Y-7695000D03*
D18*
X11448000Y-7695000D03*
X12223000Y-7695000D03*
%TD*%
D28*
%TO.C,USB4*%
X73062000Y-10550000D03*
X70562000Y-10550000D03*
X68562000Y-10550000D03*
X66062000Y-10550000D03*
D29*
X75962000Y-9200000D03*
X75962000Y-3200000D03*
X63162000Y-9200000D03*
X63162000Y-3200000D03*
%TD*%
D22*
%TO.C,R2*%
X5773000Y-9375000D03*
X6793000Y-9375000D03*
%TD*%
D30*
%TO.C,U1*%
X39112500Y-2800000D03*
X39112500Y-3750000D03*
X39112500Y-4700000D03*
X41387500Y-4700000D03*
X41387500Y-2800000D03*
%TD*%
D13*
%TO.C,C6*%
X30350000Y-4482500D03*
X30350000Y-5442500D03*
%TD*%
D28*
%TO.C,USB1*%
X94292000Y-10550000D03*
X91792000Y-10550000D03*
X89792000Y-10550000D03*
X87292000Y-10550000D03*
D29*
X97192000Y-9200000D03*
X97192000Y-3200000D03*
X84392000Y-9200000D03*
X84392000Y-3200000D03*
%TD*%
M02*
