%TF.GenerationSoftware,KiCad,Pcbnew,7.0.6*%
%TF.CreationDate,2023-09-06T01:08:14+01:00*%
%TF.ProjectId,MoonHub,4d6f6f6e-4875-4622-9e6b-696361645f70,rev?*%
%TF.SameCoordinates,Original*%
%TF.FileFunction,Paste,Top*%
%TF.FilePolarity,Positive*%
%FSLAX46Y46*%
G04 Gerber Fmt 4.6, Leading zero omitted, Abs format (unit mm)*
G04 Created by KiCad (PCBNEW 7.0.6) date 2023-09-06 01:08:14*
%MOMM*%
%LPD*%
G01*
G04 APERTURE LIST*
G04 Aperture macros list*
%AMRoundRect*
0 Rectangle with rounded corners*
0 $1 Rounding radius*
0 $2 $3 $4 $5 $6 $7 $8 $9 X,Y pos of 4 corners*
0 Add a 4 corners polygon primitive as box body*
4,1,4,$2,$3,$4,$5,$6,$7,$8,$9,$2,$3,0*
0 Add four circle primitives for the rounded corners*
1,1,$1+$1,$2,$3*
1,1,$1+$1,$4,$5*
1,1,$1+$1,$6,$7*
1,1,$1+$1,$8,$9*
0 Add four rect primitives between the rounded corners*
20,1,$1+$1,$2,$3,$4,$5,0*
20,1,$1+$1,$4,$5,$6,$7,0*
20,1,$1+$1,$6,$7,$8,$9,0*
20,1,$1+$1,$8,$9,$2,$3,0*%
G04 Aperture macros list end*
%ADD10RoundRect,0.100000X-0.400000X0.250000X-0.400000X-0.250000X0.400000X-0.250000X0.400000X0.250000X0*%
%ADD11RoundRect,0.125000X-0.475000X0.250000X-0.475000X-0.250000X0.475000X-0.250000X0.475000X0.250000X0*%
%ADD12RoundRect,0.140000X-0.170000X0.140000X-0.170000X-0.140000X0.170000X-0.140000X0.170000X0.140000X0*%
%ADD13RoundRect,0.218750X0.381250X-0.218750X0.381250X0.218750X-0.381250X0.218750X-0.381250X-0.218750X0*%
%ADD14RoundRect,0.140000X0.140000X0.170000X-0.140000X0.170000X-0.140000X-0.170000X0.140000X-0.170000X0*%
%ADD15RoundRect,0.060000X0.240000X0.665000X-0.240000X0.665000X-0.240000X-0.665000X0.240000X-0.665000X0*%
%ADD16RoundRect,0.060000X0.090000X0.665000X-0.090000X0.665000X-0.090000X-0.665000X0.090000X-0.665000X0*%
%ADD17O,1.100000X2.200000*%
%ADD18O,1.300000X1.700000*%
%ADD19RoundRect,0.140000X0.170000X-0.140000X0.170000X0.140000X-0.170000X0.140000X-0.170000X-0.140000X0*%
%ADD20R,1.400000X1.200000*%
%ADD21RoundRect,0.135000X0.135000X0.185000X-0.135000X0.185000X-0.135000X-0.185000X0.135000X-0.185000X0*%
%ADD22RoundRect,0.135000X-0.135000X-0.185000X0.135000X-0.185000X0.135000X0.185000X-0.135000X0.185000X0*%
%ADD23R,1.200000X0.400000*%
%ADD24RoundRect,0.200000X0.200000X0.275000X-0.200000X0.275000X-0.200000X-0.275000X0.200000X-0.275000X0*%
%ADD25RoundRect,0.250000X-0.325000X-0.650000X0.325000X-0.650000X0.325000X0.650000X-0.325000X0.650000X0*%
%ADD26RoundRect,0.150000X0.475000X0.150000X-0.475000X0.150000X-0.475000X-0.150000X0.475000X-0.150000X0*%
%ADD27RoundRect,0.150000X-0.512500X-0.150000X0.512500X-0.150000X0.512500X0.150000X-0.512500X0.150000X0*%
%ADD28R,1.400000X2.800000*%
%ADD29O,1.400000X2.500000*%
%ADD30RoundRect,0.150000X-0.475000X-0.150000X0.475000X-0.150000X0.475000X0.150000X-0.475000X0.150000X0*%
%ADD31RoundRect,0.150000X0.150000X-0.475000X0.150000X0.475000X-0.150000X0.475000X-0.150000X-0.475000X0*%
G04 APERTURE END LIST*
%TO.C,USB4*%
G36*
X34398000Y-11631000D02*
G01*
X32998000Y-11631000D01*
X32998000Y-8831000D01*
X34398000Y-8831000D01*
X34398000Y-11631000D01*
G37*
G36*
X31899000Y-11631000D02*
G01*
X30499000Y-11631000D01*
X30499000Y-8831000D01*
X31899000Y-8831000D01*
X31899000Y-11631000D01*
G37*
G36*
X29897000Y-11631000D02*
G01*
X28497000Y-11631000D01*
X28497000Y-8831000D01*
X29897000Y-8831000D01*
X29897000Y-11631000D01*
G37*
G36*
X27398000Y-11631000D02*
G01*
X25998000Y-11631000D01*
X25998000Y-8831000D01*
X27398000Y-8831000D01*
X27398000Y-11631000D01*
G37*
G36*
X36651000Y-7509000D02*
G01*
X36686000Y-7513000D01*
X36720000Y-7518000D01*
X36755000Y-7525000D01*
X36788000Y-7533000D01*
X36822000Y-7544000D01*
X36855000Y-7556000D01*
X36887000Y-7569000D01*
X36918000Y-7584000D01*
X36949000Y-7601000D01*
X36979000Y-7619000D01*
X37007000Y-7639000D01*
X37035000Y-7660000D01*
X37062000Y-7682000D01*
X37088000Y-7706000D01*
X37112000Y-7731000D01*
X37135000Y-7757000D01*
X37157000Y-7785000D01*
X37177000Y-7813000D01*
X37196000Y-7842000D01*
X37214000Y-7872000D01*
X37229000Y-7904000D01*
X37244000Y-7935000D01*
X37257000Y-7968000D01*
X37268000Y-8001000D01*
X37277000Y-8035000D01*
X37285000Y-8069000D01*
X37291000Y-8103000D01*
X37295000Y-8138000D01*
X37298000Y-8172000D01*
X37299000Y-8207000D01*
X37299000Y-9307000D01*
X37298000Y-9342000D01*
X37295000Y-9377000D01*
X37291000Y-9412000D01*
X37285000Y-9446000D01*
X37277000Y-9480000D01*
X37268000Y-9514000D01*
X37257000Y-9547000D01*
X37244000Y-9579000D01*
X37229000Y-9611000D01*
X37214000Y-9642000D01*
X37196000Y-9672000D01*
X37177000Y-9702000D01*
X37157000Y-9730000D01*
X37135000Y-9757000D01*
X37112000Y-9783000D01*
X37088000Y-9808000D01*
X37062000Y-9832000D01*
X37035000Y-9855000D01*
X37007000Y-9876000D01*
X36979000Y-9895000D01*
X36949000Y-9914000D01*
X36918000Y-9930000D01*
X36887000Y-9945000D01*
X36855000Y-9959000D01*
X36822000Y-9971000D01*
X36788000Y-9981000D01*
X36755000Y-9990000D01*
X36720000Y-9997000D01*
X36686000Y-10002000D01*
X36651000Y-10005000D01*
X36616000Y-10007000D01*
X36581000Y-10007000D01*
X36547000Y-10005000D01*
X36512000Y-10002000D01*
X36477000Y-9997000D01*
X36443000Y-9990000D01*
X36409000Y-9981000D01*
X36376000Y-9971000D01*
X36343000Y-9959000D01*
X36311000Y-9945000D01*
X36279000Y-9930000D01*
X36249000Y-9914000D01*
X36219000Y-9895000D01*
X36190000Y-9876000D01*
X36162000Y-9855000D01*
X36136000Y-9832000D01*
X36110000Y-9808000D01*
X36086000Y-9783000D01*
X36063000Y-9757000D01*
X36041000Y-9730000D01*
X36020000Y-9702000D01*
X36002000Y-9672000D01*
X35984000Y-9642000D01*
X35968000Y-9611000D01*
X35954000Y-9579000D01*
X35941000Y-9547000D01*
X35930000Y-9514000D01*
X35920000Y-9480000D01*
X35913000Y-9446000D01*
X35907000Y-9412000D01*
X35902000Y-9377000D01*
X35900000Y-9342000D01*
X35899000Y-9307000D01*
X35899000Y-8207000D01*
X35900000Y-8172000D01*
X35902000Y-8138000D01*
X35907000Y-8103000D01*
X35913000Y-8069000D01*
X35920000Y-8035000D01*
X35930000Y-8001000D01*
X35941000Y-7968000D01*
X35954000Y-7935000D01*
X35968000Y-7904000D01*
X35984000Y-7872000D01*
X36002000Y-7842000D01*
X36020000Y-7813000D01*
X36041000Y-7785000D01*
X36063000Y-7757000D01*
X36086000Y-7731000D01*
X36110000Y-7706000D01*
X36136000Y-7682000D01*
X36162000Y-7660000D01*
X36190000Y-7639000D01*
X36219000Y-7619000D01*
X36249000Y-7601000D01*
X36279000Y-7584000D01*
X36311000Y-7569000D01*
X36343000Y-7556000D01*
X36376000Y-7544000D01*
X36409000Y-7533000D01*
X36443000Y-7525000D01*
X36477000Y-7518000D01*
X36512000Y-7513000D01*
X36547000Y-7509000D01*
X36581000Y-7507000D01*
X36616000Y-7507000D01*
X36651000Y-7509000D01*
G37*
G36*
X36651000Y-1507000D02*
G01*
X36686000Y-1511000D01*
X36720000Y-1516000D01*
X36755000Y-1523000D01*
X36788000Y-1531000D01*
X36822000Y-1542000D01*
X36855000Y-1554000D01*
X36887000Y-1567000D01*
X36918000Y-1582000D01*
X36949000Y-1599000D01*
X36979000Y-1617000D01*
X37007000Y-1637000D01*
X37035000Y-1658000D01*
X37062000Y-1680000D01*
X37088000Y-1704000D01*
X37112000Y-1729000D01*
X37135000Y-1755000D01*
X37157000Y-1783000D01*
X37177000Y-1811000D01*
X37196000Y-1840000D01*
X37214000Y-1870000D01*
X37229000Y-1902000D01*
X37244000Y-1933000D01*
X37257000Y-1966000D01*
X37268000Y-1999000D01*
X37277000Y-2032000D01*
X37285000Y-2066000D01*
X37291000Y-2101000D01*
X37295000Y-2136000D01*
X37298000Y-2170000D01*
X37299000Y-2205000D01*
X37299000Y-3305000D01*
X37298000Y-3340000D01*
X37295000Y-3375000D01*
X37291000Y-3410000D01*
X37285000Y-3444000D01*
X37277000Y-3478000D01*
X37268000Y-3512000D01*
X37257000Y-3545000D01*
X37244000Y-3577000D01*
X37229000Y-3609000D01*
X37214000Y-3640000D01*
X37196000Y-3670000D01*
X37177000Y-3700000D01*
X37157000Y-3728000D01*
X37135000Y-3755000D01*
X37112000Y-3781000D01*
X37088000Y-3806000D01*
X37062000Y-3830000D01*
X37035000Y-3852000D01*
X37007000Y-3873000D01*
X36979000Y-3893000D01*
X36949000Y-3911000D01*
X36918000Y-3928000D01*
X36887000Y-3943000D01*
X36855000Y-3957000D01*
X36822000Y-3969000D01*
X36788000Y-3979000D01*
X36755000Y-3988000D01*
X36720000Y-3995000D01*
X36686000Y-4000000D01*
X36651000Y-4003000D01*
X36616000Y-4005000D01*
X36581000Y-4005000D01*
X36547000Y-4003000D01*
X36512000Y-4000000D01*
X36477000Y-3995000D01*
X36443000Y-3988000D01*
X36409000Y-3979000D01*
X36376000Y-3969000D01*
X36343000Y-3957000D01*
X36311000Y-3943000D01*
X36279000Y-3928000D01*
X36249000Y-3911000D01*
X36219000Y-3893000D01*
X36190000Y-3873000D01*
X36162000Y-3852000D01*
X36136000Y-3830000D01*
X36110000Y-3806000D01*
X36086000Y-3781000D01*
X36063000Y-3755000D01*
X36041000Y-3728000D01*
X36020000Y-3700000D01*
X36002000Y-3670000D01*
X35984000Y-3640000D01*
X35968000Y-3609000D01*
X35954000Y-3577000D01*
X35941000Y-3545000D01*
X35930000Y-3512000D01*
X35920000Y-3478000D01*
X35913000Y-3444000D01*
X35907000Y-3410000D01*
X35902000Y-3375000D01*
X35900000Y-3340000D01*
X35899000Y-3305000D01*
X35899000Y-2205000D01*
X35900000Y-2170000D01*
X35902000Y-2136000D01*
X35907000Y-2101000D01*
X35913000Y-2066000D01*
X35920000Y-2032000D01*
X35930000Y-1999000D01*
X35941000Y-1966000D01*
X35954000Y-1933000D01*
X35968000Y-1902000D01*
X35984000Y-1870000D01*
X36002000Y-1840000D01*
X36020000Y-1811000D01*
X36041000Y-1783000D01*
X36063000Y-1755000D01*
X36086000Y-1729000D01*
X36110000Y-1704000D01*
X36136000Y-1680000D01*
X36162000Y-1658000D01*
X36190000Y-1637000D01*
X36219000Y-1617000D01*
X36249000Y-1599000D01*
X36279000Y-1582000D01*
X36311000Y-1567000D01*
X36343000Y-1554000D01*
X36376000Y-1542000D01*
X36409000Y-1531000D01*
X36443000Y-1523000D01*
X36477000Y-1516000D01*
X36512000Y-1511000D01*
X36547000Y-1507000D01*
X36581000Y-1505000D01*
X36616000Y-1505000D01*
X36651000Y-1507000D01*
G37*
G36*
X23849000Y-7509000D02*
G01*
X23884000Y-7513000D01*
X23919000Y-7518000D01*
X23953000Y-7525000D01*
X23987000Y-7533000D01*
X24020000Y-7544000D01*
X24053000Y-7556000D01*
X24085000Y-7569000D01*
X24117000Y-7584000D01*
X24147000Y-7601000D01*
X24177000Y-7619000D01*
X24206000Y-7639000D01*
X24234000Y-7660000D01*
X24260000Y-7682000D01*
X24286000Y-7706000D01*
X24310000Y-7731000D01*
X24333000Y-7757000D01*
X24355000Y-7785000D01*
X24376000Y-7813000D01*
X24394000Y-7842000D01*
X24412000Y-7872000D01*
X24428000Y-7904000D01*
X24442000Y-7935000D01*
X24455000Y-7968000D01*
X24466000Y-8001000D01*
X24476000Y-8035000D01*
X24483000Y-8069000D01*
X24489000Y-8103000D01*
X24494000Y-8138000D01*
X24496000Y-8172000D01*
X24497000Y-8207000D01*
X24497000Y-9307000D01*
X24496000Y-9342000D01*
X24494000Y-9377000D01*
X24489000Y-9412000D01*
X24483000Y-9446000D01*
X24476000Y-9480000D01*
X24466000Y-9514000D01*
X24455000Y-9547000D01*
X24442000Y-9579000D01*
X24428000Y-9611000D01*
X24412000Y-9642000D01*
X24394000Y-9672000D01*
X24376000Y-9702000D01*
X24355000Y-9730000D01*
X24333000Y-9757000D01*
X24310000Y-9783000D01*
X24286000Y-9808000D01*
X24260000Y-9832000D01*
X24234000Y-9855000D01*
X24206000Y-9876000D01*
X24177000Y-9895000D01*
X24147000Y-9914000D01*
X24117000Y-9930000D01*
X24085000Y-9945000D01*
X24053000Y-9959000D01*
X24020000Y-9971000D01*
X23987000Y-9981000D01*
X23953000Y-9990000D01*
X23919000Y-9997000D01*
X23884000Y-10002000D01*
X23849000Y-10005000D01*
X23815000Y-10007000D01*
X23780000Y-10007000D01*
X23745000Y-10005000D01*
X23710000Y-10002000D01*
X23676000Y-9997000D01*
X23641000Y-9990000D01*
X23608000Y-9981000D01*
X23574000Y-9971000D01*
X23541000Y-9959000D01*
X23509000Y-9945000D01*
X23478000Y-9930000D01*
X23447000Y-9914000D01*
X23417000Y-9895000D01*
X23389000Y-9876000D01*
X23361000Y-9855000D01*
X23334000Y-9832000D01*
X23308000Y-9808000D01*
X23284000Y-9783000D01*
X23261000Y-9757000D01*
X23239000Y-9730000D01*
X23219000Y-9702000D01*
X23200000Y-9672000D01*
X23182000Y-9642000D01*
X23166000Y-9611000D01*
X23152000Y-9579000D01*
X23139000Y-9547000D01*
X23128000Y-9514000D01*
X23119000Y-9480000D01*
X23111000Y-9446000D01*
X23105000Y-9412000D01*
X23101000Y-9377000D01*
X23098000Y-9342000D01*
X23097000Y-9307000D01*
X23097000Y-8207000D01*
X23098000Y-8172000D01*
X23101000Y-8138000D01*
X23105000Y-8103000D01*
X23111000Y-8069000D01*
X23119000Y-8035000D01*
X23128000Y-8001000D01*
X23139000Y-7968000D01*
X23152000Y-7935000D01*
X23166000Y-7904000D01*
X23182000Y-7872000D01*
X23200000Y-7842000D01*
X23219000Y-7813000D01*
X23239000Y-7785000D01*
X23261000Y-7757000D01*
X23284000Y-7731000D01*
X23308000Y-7706000D01*
X23334000Y-7682000D01*
X23361000Y-7660000D01*
X23389000Y-7639000D01*
X23417000Y-7619000D01*
X23447000Y-7601000D01*
X23478000Y-7584000D01*
X23509000Y-7569000D01*
X23541000Y-7556000D01*
X23574000Y-7544000D01*
X23608000Y-7533000D01*
X23641000Y-7525000D01*
X23676000Y-7518000D01*
X23710000Y-7513000D01*
X23745000Y-7509000D01*
X23780000Y-7507000D01*
X23815000Y-7507000D01*
X23849000Y-7509000D01*
G37*
G36*
X23849000Y-1558000D02*
G01*
X23884000Y-1561000D01*
X23919000Y-1567000D01*
X23953000Y-1574000D01*
X23987000Y-1582000D01*
X24020000Y-1592000D01*
X24053000Y-1604000D01*
X24085000Y-1618000D01*
X24117000Y-1633000D01*
X24147000Y-1650000D01*
X24177000Y-1668000D01*
X24206000Y-1688000D01*
X24234000Y-1709000D01*
X24260000Y-1731000D01*
X24286000Y-1755000D01*
X24310000Y-1780000D01*
X24333000Y-1806000D01*
X24355000Y-1833000D01*
X24376000Y-1862000D01*
X24394000Y-1891000D01*
X24412000Y-1921000D01*
X24428000Y-1952000D01*
X24442000Y-1984000D01*
X24455000Y-2017000D01*
X24466000Y-2050000D01*
X24476000Y-2083000D01*
X24483000Y-2117000D01*
X24489000Y-2152000D01*
X24494000Y-2186000D01*
X24496000Y-2221000D01*
X24497000Y-2256000D01*
X24497000Y-3356000D01*
X24496000Y-3391000D01*
X24494000Y-3426000D01*
X24489000Y-3460000D01*
X24483000Y-3495000D01*
X24476000Y-3529000D01*
X24466000Y-3562000D01*
X24455000Y-3595000D01*
X24442000Y-3628000D01*
X24428000Y-3660000D01*
X24412000Y-3691000D01*
X24394000Y-3721000D01*
X24376000Y-3750000D01*
X24355000Y-3779000D01*
X24333000Y-3806000D01*
X24310000Y-3832000D01*
X24286000Y-3857000D01*
X24260000Y-3881000D01*
X24234000Y-3903000D01*
X24206000Y-3924000D01*
X24177000Y-3944000D01*
X24147000Y-3962000D01*
X24117000Y-3979000D01*
X24085000Y-3994000D01*
X24053000Y-4008000D01*
X24020000Y-4020000D01*
X23987000Y-4030000D01*
X23953000Y-4038000D01*
X23919000Y-4045000D01*
X23884000Y-4051000D01*
X23849000Y-4054000D01*
X23815000Y-4056000D01*
X23780000Y-4056000D01*
X23745000Y-4054000D01*
X23710000Y-4051000D01*
X23676000Y-4045000D01*
X23641000Y-4038000D01*
X23608000Y-4030000D01*
X23574000Y-4020000D01*
X23541000Y-4008000D01*
X23509000Y-3994000D01*
X23478000Y-3979000D01*
X23447000Y-3962000D01*
X23417000Y-3944000D01*
X23389000Y-3924000D01*
X23361000Y-3903000D01*
X23334000Y-3881000D01*
X23308000Y-3857000D01*
X23284000Y-3832000D01*
X23261000Y-3806000D01*
X23239000Y-3779000D01*
X23219000Y-3750000D01*
X23200000Y-3721000D01*
X23182000Y-3691000D01*
X23166000Y-3660000D01*
X23152000Y-3628000D01*
X23139000Y-3595000D01*
X23128000Y-3562000D01*
X23119000Y-3529000D01*
X23111000Y-3495000D01*
X23105000Y-3460000D01*
X23101000Y-3426000D01*
X23098000Y-3391000D01*
X23097000Y-3356000D01*
X23097000Y-2256000D01*
X23098000Y-2221000D01*
X23101000Y-2186000D01*
X23105000Y-2152000D01*
X23111000Y-2117000D01*
X23119000Y-2083000D01*
X23128000Y-2050000D01*
X23139000Y-2017000D01*
X23152000Y-1984000D01*
X23166000Y-1952000D01*
X23182000Y-1921000D01*
X23200000Y-1891000D01*
X23219000Y-1862000D01*
X23239000Y-1833000D01*
X23261000Y-1806000D01*
X23284000Y-1780000D01*
X23308000Y-1755000D01*
X23334000Y-1731000D01*
X23361000Y-1709000D01*
X23389000Y-1688000D01*
X23417000Y-1668000D01*
X23447000Y-1650000D01*
X23478000Y-1633000D01*
X23509000Y-1618000D01*
X23541000Y-1604000D01*
X23574000Y-1592000D01*
X23608000Y-1582000D01*
X23641000Y-1574000D01*
X23676000Y-1567000D01*
X23710000Y-1561000D01*
X23745000Y-1558000D01*
X23780000Y-1556000D01*
X23815000Y-1556000D01*
X23849000Y-1558000D01*
G37*
%TO.C,USB5*%
G36*
X16489000Y-11795500D02*
G01*
X15089000Y-11795500D01*
X15089000Y-8995500D01*
X16489000Y-8995500D01*
X16489000Y-11795500D01*
G37*
G36*
X13990000Y-11795500D02*
G01*
X12590000Y-11795500D01*
X12590000Y-8995500D01*
X13990000Y-8995500D01*
X13990000Y-11795500D01*
G37*
G36*
X11988000Y-11795500D02*
G01*
X10588000Y-11795500D01*
X10588000Y-8995500D01*
X11988000Y-8995500D01*
X11988000Y-11795500D01*
G37*
G36*
X9489000Y-11795500D02*
G01*
X8089000Y-11795500D01*
X8089000Y-8995500D01*
X9489000Y-8995500D01*
X9489000Y-11795500D01*
G37*
G36*
X18742000Y-7673500D02*
G01*
X18777000Y-7677500D01*
X18811000Y-7682500D01*
X18846000Y-7689500D01*
X18879000Y-7697500D01*
X18913000Y-7708500D01*
X18946000Y-7720500D01*
X18978000Y-7733500D01*
X19009000Y-7748500D01*
X19040000Y-7765500D01*
X19070000Y-7783500D01*
X19098000Y-7803500D01*
X19126000Y-7824500D01*
X19153000Y-7846500D01*
X19179000Y-7870500D01*
X19203000Y-7895500D01*
X19226000Y-7921500D01*
X19248000Y-7949500D01*
X19268000Y-7977500D01*
X19287000Y-8006500D01*
X19305000Y-8036500D01*
X19320000Y-8068500D01*
X19335000Y-8099500D01*
X19348000Y-8132500D01*
X19359000Y-8165500D01*
X19368000Y-8199500D01*
X19376000Y-8233500D01*
X19382000Y-8267500D01*
X19386000Y-8302500D01*
X19389000Y-8336500D01*
X19390000Y-8371500D01*
X19390000Y-9471500D01*
X19389000Y-9506500D01*
X19386000Y-9541500D01*
X19382000Y-9576500D01*
X19376000Y-9610500D01*
X19368000Y-9644500D01*
X19359000Y-9678500D01*
X19348000Y-9711500D01*
X19335000Y-9743500D01*
X19320000Y-9775500D01*
X19305000Y-9806500D01*
X19287000Y-9836500D01*
X19268000Y-9866500D01*
X19248000Y-9894500D01*
X19226000Y-9921500D01*
X19203000Y-9947500D01*
X19179000Y-9972500D01*
X19153000Y-9996500D01*
X19126000Y-10019500D01*
X19098000Y-10040500D01*
X19070000Y-10059500D01*
X19040000Y-10078500D01*
X19009000Y-10094500D01*
X18978000Y-10109500D01*
X18946000Y-10123500D01*
X18913000Y-10135500D01*
X18879000Y-10145500D01*
X18846000Y-10154500D01*
X18811000Y-10161500D01*
X18777000Y-10166500D01*
X18742000Y-10169500D01*
X18707000Y-10171500D01*
X18672000Y-10171500D01*
X18638000Y-10169500D01*
X18603000Y-10166500D01*
X18568000Y-10161500D01*
X18534000Y-10154500D01*
X18500000Y-10145500D01*
X18467000Y-10135500D01*
X18434000Y-10123500D01*
X18402000Y-10109500D01*
X18370000Y-10094500D01*
X18340000Y-10078500D01*
X18310000Y-10059500D01*
X18281000Y-10040500D01*
X18253000Y-10019500D01*
X18227000Y-9996500D01*
X18201000Y-9972500D01*
X18177000Y-9947500D01*
X18154000Y-9921500D01*
X18132000Y-9894500D01*
X18111000Y-9866500D01*
X18093000Y-9836500D01*
X18075000Y-9806500D01*
X18059000Y-9775500D01*
X18045000Y-9743500D01*
X18032000Y-9711500D01*
X18021000Y-9678500D01*
X18011000Y-9644500D01*
X18004000Y-9610500D01*
X17998000Y-9576500D01*
X17993000Y-9541500D01*
X17991000Y-9506500D01*
X17990000Y-9471500D01*
X17990000Y-8371500D01*
X17991000Y-8336500D01*
X17993000Y-8302500D01*
X17998000Y-8267500D01*
X18004000Y-8233500D01*
X18011000Y-8199500D01*
X18021000Y-8165500D01*
X18032000Y-8132500D01*
X18045000Y-8099500D01*
X18059000Y-8068500D01*
X18075000Y-8036500D01*
X18093000Y-8006500D01*
X18111000Y-7977500D01*
X18132000Y-7949500D01*
X18154000Y-7921500D01*
X18177000Y-7895500D01*
X18201000Y-7870500D01*
X18227000Y-7846500D01*
X18253000Y-7824500D01*
X18281000Y-7803500D01*
X18310000Y-7783500D01*
X18340000Y-7765500D01*
X18370000Y-7748500D01*
X18402000Y-7733500D01*
X18434000Y-7720500D01*
X18467000Y-7708500D01*
X18500000Y-7697500D01*
X18534000Y-7689500D01*
X18568000Y-7682500D01*
X18603000Y-7677500D01*
X18638000Y-7673500D01*
X18672000Y-7671500D01*
X18707000Y-7671500D01*
X18742000Y-7673500D01*
G37*
G36*
X18742000Y-1671500D02*
G01*
X18777000Y-1675500D01*
X18811000Y-1680500D01*
X18846000Y-1687500D01*
X18879000Y-1695500D01*
X18913000Y-1706500D01*
X18946000Y-1718500D01*
X18978000Y-1731500D01*
X19009000Y-1746500D01*
X19040000Y-1763500D01*
X19070000Y-1781500D01*
X19098000Y-1801500D01*
X19126000Y-1822500D01*
X19153000Y-1844500D01*
X19179000Y-1868500D01*
X19203000Y-1893500D01*
X19226000Y-1919500D01*
X19248000Y-1947500D01*
X19268000Y-1975500D01*
X19287000Y-2004500D01*
X19305000Y-2034500D01*
X19320000Y-2066500D01*
X19335000Y-2097500D01*
X19348000Y-2130500D01*
X19359000Y-2163500D01*
X19368000Y-2196500D01*
X19376000Y-2230500D01*
X19382000Y-2265500D01*
X19386000Y-2300500D01*
X19389000Y-2334500D01*
X19390000Y-2369500D01*
X19390000Y-3469500D01*
X19389000Y-3504500D01*
X19386000Y-3539500D01*
X19382000Y-3574500D01*
X19376000Y-3608500D01*
X19368000Y-3642500D01*
X19359000Y-3676500D01*
X19348000Y-3709500D01*
X19335000Y-3741500D01*
X19320000Y-3773500D01*
X19305000Y-3804500D01*
X19287000Y-3834500D01*
X19268000Y-3864500D01*
X19248000Y-3892500D01*
X19226000Y-3919500D01*
X19203000Y-3945500D01*
X19179000Y-3970500D01*
X19153000Y-3994500D01*
X19126000Y-4016500D01*
X19098000Y-4037500D01*
X19070000Y-4057500D01*
X19040000Y-4075500D01*
X19009000Y-4092500D01*
X18978000Y-4107500D01*
X18946000Y-4121500D01*
X18913000Y-4133500D01*
X18879000Y-4143500D01*
X18846000Y-4152500D01*
X18811000Y-4159500D01*
X18777000Y-4164500D01*
X18742000Y-4167500D01*
X18707000Y-4169500D01*
X18672000Y-4169500D01*
X18638000Y-4167500D01*
X18603000Y-4164500D01*
X18568000Y-4159500D01*
X18534000Y-4152500D01*
X18500000Y-4143500D01*
X18467000Y-4133500D01*
X18434000Y-4121500D01*
X18402000Y-4107500D01*
X18370000Y-4092500D01*
X18340000Y-4075500D01*
X18310000Y-4057500D01*
X18281000Y-4037500D01*
X18253000Y-4016500D01*
X18227000Y-3994500D01*
X18201000Y-3970500D01*
X18177000Y-3945500D01*
X18154000Y-3919500D01*
X18132000Y-3892500D01*
X18111000Y-3864500D01*
X18093000Y-3834500D01*
X18075000Y-3804500D01*
X18059000Y-3773500D01*
X18045000Y-3741500D01*
X18032000Y-3709500D01*
X18021000Y-3676500D01*
X18011000Y-3642500D01*
X18004000Y-3608500D01*
X17998000Y-3574500D01*
X17993000Y-3539500D01*
X17991000Y-3504500D01*
X17990000Y-3469500D01*
X17990000Y-2369500D01*
X17991000Y-2334500D01*
X17993000Y-2300500D01*
X17998000Y-2265500D01*
X18004000Y-2230500D01*
X18011000Y-2196500D01*
X18021000Y-2163500D01*
X18032000Y-2130500D01*
X18045000Y-2097500D01*
X18059000Y-2066500D01*
X18075000Y-2034500D01*
X18093000Y-2004500D01*
X18111000Y-1975500D01*
X18132000Y-1947500D01*
X18154000Y-1919500D01*
X18177000Y-1893500D01*
X18201000Y-1868500D01*
X18227000Y-1844500D01*
X18253000Y-1822500D01*
X18281000Y-1801500D01*
X18310000Y-1781500D01*
X18340000Y-1763500D01*
X18370000Y-1746500D01*
X18402000Y-1731500D01*
X18434000Y-1718500D01*
X18467000Y-1706500D01*
X18500000Y-1695500D01*
X18534000Y-1687500D01*
X18568000Y-1680500D01*
X18603000Y-1675500D01*
X18638000Y-1671500D01*
X18672000Y-1669500D01*
X18707000Y-1669500D01*
X18742000Y-1671500D01*
G37*
G36*
X5940000Y-7673500D02*
G01*
X5975000Y-7677500D01*
X6010000Y-7682500D01*
X6044000Y-7689500D01*
X6078000Y-7697500D01*
X6111000Y-7708500D01*
X6144000Y-7720500D01*
X6176000Y-7733500D01*
X6208000Y-7748500D01*
X6238000Y-7765500D01*
X6268000Y-7783500D01*
X6297000Y-7803500D01*
X6325000Y-7824500D01*
X6351000Y-7846500D01*
X6377000Y-7870500D01*
X6401000Y-7895500D01*
X6424000Y-7921500D01*
X6446000Y-7949500D01*
X6467000Y-7977500D01*
X6485000Y-8006500D01*
X6503000Y-8036500D01*
X6519000Y-8068500D01*
X6533000Y-8099500D01*
X6546000Y-8132500D01*
X6557000Y-8165500D01*
X6567000Y-8199500D01*
X6574000Y-8233500D01*
X6580000Y-8267500D01*
X6585000Y-8302500D01*
X6587000Y-8336500D01*
X6588000Y-8371500D01*
X6588000Y-9471500D01*
X6587000Y-9506500D01*
X6585000Y-9541500D01*
X6580000Y-9576500D01*
X6574000Y-9610500D01*
X6567000Y-9644500D01*
X6557000Y-9678500D01*
X6546000Y-9711500D01*
X6533000Y-9743500D01*
X6519000Y-9775500D01*
X6503000Y-9806500D01*
X6485000Y-9836500D01*
X6467000Y-9866500D01*
X6446000Y-9894500D01*
X6424000Y-9921500D01*
X6401000Y-9947500D01*
X6377000Y-9972500D01*
X6351000Y-9996500D01*
X6325000Y-10019500D01*
X6297000Y-10040500D01*
X6268000Y-10059500D01*
X6238000Y-10078500D01*
X6208000Y-10094500D01*
X6176000Y-10109500D01*
X6144000Y-10123500D01*
X6111000Y-10135500D01*
X6078000Y-10145500D01*
X6044000Y-10154500D01*
X6010000Y-10161500D01*
X5975000Y-10166500D01*
X5940000Y-10169500D01*
X5906000Y-10171500D01*
X5871000Y-10171500D01*
X5836000Y-10169500D01*
X5801000Y-10166500D01*
X5767000Y-10161500D01*
X5732000Y-10154500D01*
X5699000Y-10145500D01*
X5665000Y-10135500D01*
X5632000Y-10123500D01*
X5600000Y-10109500D01*
X5569000Y-10094500D01*
X5538000Y-10078500D01*
X5508000Y-10059500D01*
X5480000Y-10040500D01*
X5452000Y-10019500D01*
X5425000Y-9996500D01*
X5399000Y-9972500D01*
X5375000Y-9947500D01*
X5352000Y-9921500D01*
X5330000Y-9894500D01*
X5310000Y-9866500D01*
X5291000Y-9836500D01*
X5273000Y-9806500D01*
X5257000Y-9775500D01*
X5243000Y-9743500D01*
X5230000Y-9711500D01*
X5219000Y-9678500D01*
X5210000Y-9644500D01*
X5202000Y-9610500D01*
X5196000Y-9576500D01*
X5192000Y-9541500D01*
X5189000Y-9506500D01*
X5188000Y-9471500D01*
X5188000Y-8371500D01*
X5189000Y-8336500D01*
X5192000Y-8302500D01*
X5196000Y-8267500D01*
X5202000Y-8233500D01*
X5210000Y-8199500D01*
X5219000Y-8165500D01*
X5230000Y-8132500D01*
X5243000Y-8099500D01*
X5257000Y-8068500D01*
X5273000Y-8036500D01*
X5291000Y-8006500D01*
X5310000Y-7977500D01*
X5330000Y-7949500D01*
X5352000Y-7921500D01*
X5375000Y-7895500D01*
X5399000Y-7870500D01*
X5425000Y-7846500D01*
X5452000Y-7824500D01*
X5480000Y-7803500D01*
X5508000Y-7783500D01*
X5538000Y-7765500D01*
X5569000Y-7748500D01*
X5600000Y-7733500D01*
X5632000Y-7720500D01*
X5665000Y-7708500D01*
X5699000Y-7697500D01*
X5732000Y-7689500D01*
X5767000Y-7682500D01*
X5801000Y-7677500D01*
X5836000Y-7673500D01*
X5871000Y-7671500D01*
X5906000Y-7671500D01*
X5940000Y-7673500D01*
G37*
G36*
X5940000Y-1722500D02*
G01*
X5975000Y-1725500D01*
X6010000Y-1731500D01*
X6044000Y-1738500D01*
X6078000Y-1746500D01*
X6111000Y-1756500D01*
X6144000Y-1768500D01*
X6176000Y-1782500D01*
X6208000Y-1797500D01*
X6238000Y-1814500D01*
X6268000Y-1832500D01*
X6297000Y-1852500D01*
X6325000Y-1873500D01*
X6351000Y-1895500D01*
X6377000Y-1919500D01*
X6401000Y-1944500D01*
X6424000Y-1970500D01*
X6446000Y-1997500D01*
X6467000Y-2026500D01*
X6485000Y-2055500D01*
X6503000Y-2085500D01*
X6519000Y-2116500D01*
X6533000Y-2148500D01*
X6546000Y-2181500D01*
X6557000Y-2214500D01*
X6567000Y-2247500D01*
X6574000Y-2281500D01*
X6580000Y-2316500D01*
X6585000Y-2350500D01*
X6587000Y-2385500D01*
X6588000Y-2420500D01*
X6588000Y-3520500D01*
X6587000Y-3555500D01*
X6585000Y-3590500D01*
X6580000Y-3624500D01*
X6574000Y-3659500D01*
X6567000Y-3693500D01*
X6557000Y-3726500D01*
X6546000Y-3759500D01*
X6533000Y-3792500D01*
X6519000Y-3824500D01*
X6503000Y-3855500D01*
X6485000Y-3885500D01*
X6467000Y-3914500D01*
X6446000Y-3943500D01*
X6424000Y-3970500D01*
X6401000Y-3996500D01*
X6377000Y-4021500D01*
X6351000Y-4045500D01*
X6325000Y-4067500D01*
X6297000Y-4088500D01*
X6268000Y-4108500D01*
X6238000Y-4126500D01*
X6208000Y-4143500D01*
X6176000Y-4158500D01*
X6144000Y-4172500D01*
X6111000Y-4184500D01*
X6078000Y-4194500D01*
X6044000Y-4202500D01*
X6010000Y-4209500D01*
X5975000Y-4215500D01*
X5940000Y-4218500D01*
X5906000Y-4220500D01*
X5871000Y-4220500D01*
X5836000Y-4218500D01*
X5801000Y-4215500D01*
X5767000Y-4209500D01*
X5732000Y-4202500D01*
X5699000Y-4194500D01*
X5665000Y-4184500D01*
X5632000Y-4172500D01*
X5600000Y-4158500D01*
X5569000Y-4143500D01*
X5538000Y-4126500D01*
X5508000Y-4108500D01*
X5480000Y-4088500D01*
X5452000Y-4067500D01*
X5425000Y-4045500D01*
X5399000Y-4021500D01*
X5375000Y-3996500D01*
X5352000Y-3970500D01*
X5330000Y-3943500D01*
X5310000Y-3914500D01*
X5291000Y-3885500D01*
X5273000Y-3855500D01*
X5257000Y-3824500D01*
X5243000Y-3792500D01*
X5230000Y-3759500D01*
X5219000Y-3726500D01*
X5210000Y-3693500D01*
X5202000Y-3659500D01*
X5196000Y-3624500D01*
X5192000Y-3590500D01*
X5189000Y-3555500D01*
X5188000Y-3520500D01*
X5188000Y-2420500D01*
X5189000Y-2385500D01*
X5192000Y-2350500D01*
X5196000Y-2316500D01*
X5202000Y-2281500D01*
X5210000Y-2247500D01*
X5219000Y-2214500D01*
X5230000Y-2181500D01*
X5243000Y-2148500D01*
X5257000Y-2116500D01*
X5273000Y-2085500D01*
X5291000Y-2055500D01*
X5310000Y-2026500D01*
X5330000Y-1997500D01*
X5352000Y-1970500D01*
X5375000Y-1944500D01*
X5399000Y-1919500D01*
X5425000Y-1895500D01*
X5452000Y-1873500D01*
X5480000Y-1852500D01*
X5508000Y-1832500D01*
X5538000Y-1814500D01*
X5569000Y-1797500D01*
X5600000Y-1782500D01*
X5632000Y-1768500D01*
X5665000Y-1756500D01*
X5699000Y-1746500D01*
X5732000Y-1738500D01*
X5767000Y-1731500D01*
X5801000Y-1725500D01*
X5836000Y-1722500D01*
X5871000Y-1720500D01*
X5906000Y-1720500D01*
X5940000Y-1722500D01*
G37*
%TD*%
D10*
%TO.C,USB2*%
X56700000Y-2400000D03*
D11*
X60700000Y-3550000D03*
X60700000Y-4750000D03*
X60700000Y-5950000D03*
X60700000Y-7150000D03*
D10*
X56700000Y-8300000D03*
%TD*%
D12*
%TO.C,C7*%
X73600000Y-2795000D03*
X73600000Y-3755000D03*
%TD*%
D13*
%TO.C,FB4*%
X52599000Y-9299500D03*
X52599000Y-7174500D03*
%TD*%
D14*
%TO.C,C6*%
X71000000Y-7950000D03*
X70040000Y-7950000D03*
%TD*%
D15*
%TO.C,USB3*%
X49524000Y-8089500D03*
X48749000Y-8089500D03*
D16*
X47549000Y-8089500D03*
X46549000Y-8089500D03*
X46049000Y-8089500D03*
X45049000Y-8089500D03*
D15*
X43074000Y-8089500D03*
X43849000Y-8089500D03*
D16*
X44549000Y-8089500D03*
X45549000Y-8089500D03*
X47049000Y-8089500D03*
X48049000Y-8089500D03*
D17*
X50619000Y-7174500D03*
D18*
X50619000Y-2994500D03*
D17*
X41979000Y-7174500D03*
D18*
X41979000Y-2994500D03*
%TD*%
D13*
%TO.C,FB2*%
X20789000Y-11046500D03*
X20789000Y-8921500D03*
%TD*%
D19*
%TO.C,C1*%
X80300000Y-10930000D03*
X80300000Y-9970000D03*
%TD*%
D20*
%TO.C,D1*%
X83400000Y-5650000D03*
X83400000Y-9050000D03*
%TD*%
D21*
%TO.C,R3*%
X51209000Y-9895500D03*
X50189000Y-9895500D03*
%TD*%
D22*
%TO.C,R4*%
X43089000Y-9995500D03*
X44109000Y-9995500D03*
%TD*%
D23*
%TO.C,U3*%
X72500000Y-6680000D03*
X72500000Y-7315000D03*
X72500000Y-7950000D03*
X72500000Y-8585000D03*
X72500000Y-9220000D03*
X72500000Y-9855000D03*
X72500000Y-10490000D03*
X72500000Y-11125000D03*
X72500000Y-11760000D03*
X72500000Y-12395000D03*
X72500000Y-13030000D03*
X72500000Y-13665000D03*
X72500000Y-14300000D03*
X72500000Y-14935000D03*
X77700000Y-14935000D03*
X77700000Y-14300000D03*
X77700000Y-13665000D03*
X77700000Y-13030000D03*
X77700000Y-12395000D03*
X77700000Y-11760000D03*
X77700000Y-11125000D03*
X77700000Y-10490000D03*
X77700000Y-9855000D03*
X77700000Y-9220000D03*
X77700000Y-8585000D03*
X77700000Y-7950000D03*
X77700000Y-7315000D03*
X77700000Y-6680000D03*
%TD*%
D24*
%TO.C,R5*%
X81025000Y-7050000D03*
X79375000Y-7050000D03*
%TD*%
D20*
%TO.C,Y1*%
X67100000Y-6400000D03*
X69300000Y-6400000D03*
X69300000Y-4700000D03*
X67100000Y-4700000D03*
%TD*%
D25*
%TO.C,C8*%
X79425000Y-3250000D03*
X82375000Y-3250000D03*
%TD*%
D19*
%TO.C,C3*%
X79200000Y-10930000D03*
X79200000Y-9970000D03*
%TD*%
D26*
%TO.C,U6*%
X47974000Y-11945500D03*
X47974000Y-10995500D03*
X47974000Y-10045500D03*
X45624000Y-10045500D03*
X45624000Y-10995500D03*
X45624000Y-11945500D03*
%TD*%
D22*
%TO.C,R1*%
X92390000Y-10450000D03*
X93410000Y-10450000D03*
%TD*%
D12*
%TO.C,C4*%
X79200000Y-11970000D03*
X79200000Y-12930000D03*
%TD*%
D15*
%TO.C,USB1*%
X93362500Y-8244000D03*
X92587500Y-8244000D03*
D16*
X91387500Y-8244000D03*
X90387500Y-8244000D03*
X89887500Y-8244000D03*
X88887500Y-8244000D03*
D15*
X86912500Y-8244000D03*
X87687500Y-8244000D03*
D16*
X88387500Y-8244000D03*
X89387500Y-8244000D03*
X90887500Y-8244000D03*
X91887500Y-8244000D03*
D17*
X94457500Y-7329000D03*
D18*
X94457500Y-3149000D03*
D17*
X85817500Y-7329000D03*
D18*
X85817500Y-3149000D03*
%TD*%
D27*
%TO.C,U4*%
X75162500Y-2800000D03*
X75162500Y-3750000D03*
X75162500Y-4700000D03*
X77437500Y-4700000D03*
X77437500Y-3750000D03*
X77437500Y-2800000D03*
%TD*%
D13*
%TO.C,FB1*%
X96500000Y-9454000D03*
X96500000Y-7329000D03*
%TD*%
D24*
%TO.C,R6*%
X81025000Y-5350000D03*
X79375000Y-5350000D03*
%TD*%
D28*
%TO.C,USB4*%
X33698000Y-10231000D03*
X31199000Y-10231000D03*
X29197000Y-10231000D03*
X26698000Y-10231000D03*
D29*
X36599000Y-8757000D03*
X36599000Y-2755000D03*
X23797000Y-8757000D03*
X23797000Y-2806000D03*
%TD*%
D26*
%TO.C,U1*%
X13464000Y-15407000D03*
X13464000Y-14457000D03*
X13464000Y-13507000D03*
X11114000Y-13507000D03*
X11114000Y-14457000D03*
X11114000Y-15407000D03*
%TD*%
D13*
%TO.C,FB3*%
X38698000Y-10882000D03*
X38698000Y-8757000D03*
%TD*%
D30*
%TO.C,U2*%
X88462500Y-10200000D03*
X88462500Y-11150000D03*
X88462500Y-12100000D03*
X90812500Y-12100000D03*
X90812500Y-11150000D03*
X90812500Y-10200000D03*
%TD*%
D21*
%TO.C,R2*%
X86010000Y-10250000D03*
X84990000Y-10250000D03*
%TD*%
D31*
%TO.C,U7*%
X62850000Y-6525000D03*
X63800000Y-6525000D03*
X64750000Y-6525000D03*
X64750000Y-4175000D03*
X63800000Y-4175000D03*
X62850000Y-4175000D03*
%TD*%
D19*
%TO.C,C2*%
X71000000Y-14705000D03*
X71000000Y-13745000D03*
%TD*%
D26*
%TO.C,U5*%
X31373000Y-15142500D03*
X31373000Y-14192500D03*
X31373000Y-13242500D03*
X29023000Y-13242500D03*
X29023000Y-14192500D03*
X29023000Y-15142500D03*
%TD*%
D19*
%TO.C,C5*%
X71000000Y-6830000D03*
X71000000Y-5870000D03*
%TD*%
D28*
%TO.C,USB5*%
X15789000Y-10395500D03*
X13290000Y-10395500D03*
X11288000Y-10395500D03*
X8789000Y-10395500D03*
D29*
X18690000Y-8921500D03*
X18690000Y-2919500D03*
X5888000Y-8921500D03*
X5888000Y-2970500D03*
%TD*%
M02*
