%TF.GenerationSoftware,KiCad,Pcbnew,7.0.6*%
%TF.CreationDate,2024-01-21T15:46:54+00:00*%
%TF.ProjectId,MoonHub,4d6f6f6e-4875-4622-9e6b-696361645f70,rev?*%
%TF.SameCoordinates,Original*%
%TF.FileFunction,Copper,L4,Bot*%
%TF.FilePolarity,Positive*%
%FSLAX46Y46*%
G04 Gerber Fmt 4.6, Leading zero omitted, Abs format (unit mm)*
G04 Created by KiCad (PCBNEW 7.0.6) date 2024-01-21 15:46:54*
%MOMM*%
%LPD*%
G01*
G04 APERTURE LIST*
G04 Aperture macros list*
%AMRoundRect*
0 Rectangle with rounded corners*
0 $1 Rounding radius*
0 $2 $3 $4 $5 $6 $7 $8 $9 X,Y pos of 4 corners*
0 Add a 4 corners polygon primitive as box body*
4,1,4,$2,$3,$4,$5,$6,$7,$8,$9,$2,$3,0*
0 Add four circle primitives for the rounded corners*
1,1,$1+$1,$2,$3*
1,1,$1+$1,$4,$5*
1,1,$1+$1,$6,$7*
1,1,$1+$1,$8,$9*
0 Add four rect primitives between the rounded corners*
20,1,$1+$1,$2,$3,$4,$5,0*
20,1,$1+$1,$4,$5,$6,$7,0*
20,1,$1+$1,$6,$7,$8,$9,0*
20,1,$1+$1,$8,$9,$2,$3,0*%
G04 Aperture macros list end*
%TA.AperFunction,ComponentPad*%
%ADD10O,1.300000X1.900000*%
%TD*%
%TA.AperFunction,ComponentPad*%
%ADD11O,1.100000X2.200000*%
%TD*%
%TA.AperFunction,ComponentPad*%
%ADD12C,0.600000*%
%TD*%
%TA.AperFunction,SMDPad,CuDef*%
%ADD13RoundRect,0.100000X-0.625000X-0.900000X0.625000X-0.900000X0.625000X0.900000X-0.625000X0.900000X0*%
%TD*%
%TA.AperFunction,ComponentPad*%
%ADD14O,1.400000X2.500000*%
%TD*%
%TA.AperFunction,ComponentPad*%
%ADD15C,3.500001*%
%TD*%
%TA.AperFunction,ViaPad*%
%ADD16C,0.700000*%
%TD*%
%TA.AperFunction,Conductor*%
%ADD17C,0.500000*%
%TD*%
G04 APERTURE END LIST*
D10*
%TO.P,USB3,S1,SHIELD*%
%TO.N,GNDPWR*%
X46222000Y-2600000D03*
D11*
X46222000Y-6780000D03*
D10*
X54862000Y-2600000D03*
D11*
X54862000Y-6780000D03*
%TD*%
D12*
%TO.P,J1,MP,MountPin*%
%TO.N,GNDPWR*%
X11950000Y-14400000D03*
D13*
X11575000Y-15100000D03*
D12*
X11200000Y-15800000D03*
X11200000Y-15100000D03*
X11200000Y-14400000D03*
X6800000Y-15800000D03*
X6800000Y-15100000D03*
X6800000Y-14400000D03*
D13*
X6425000Y-15100000D03*
D12*
X6000000Y-14400000D03*
%TD*%
D10*
%TO.P,USB2,S1,SHIELD*%
%TO.N,GNDPWR*%
X4678000Y-2600000D03*
D11*
X4678000Y-6780000D03*
D10*
X13318000Y-2600000D03*
D11*
X13318000Y-6780000D03*
%TD*%
D14*
%TO.P,USB4,5,Shield*%
%TO.N,GNDPWR*%
X75962000Y-9200000D03*
X75962000Y-3200000D03*
X63162000Y-9200000D03*
X63162000Y-3200000D03*
%TD*%
D15*
%TO.P,H2,1,1*%
%TO.N,GNDPWR*%
X2000000Y-2000000D03*
%TD*%
D14*
%TO.P,USB1,5,Shield*%
%TO.N,GNDPWR*%
X97192000Y-9200000D03*
X97192000Y-3200000D03*
X84392000Y-9200000D03*
X84392000Y-3200000D03*
%TD*%
D16*
%TO.N,GND*%
X21430000Y-6220000D03*
X19700000Y-15450000D03*
X77944428Y-12425000D03*
X13000000Y-9375000D03*
X11800000Y-12100000D03*
X24772500Y-12427500D03*
X73944428Y-15001750D03*
X82944428Y-15001750D03*
X46500000Y-8500000D03*
X66062000Y-8600000D03*
X47700000Y-11500000D03*
X39850000Y-9200000D03*
X68944428Y-14001750D03*
X35750000Y-2100000D03*
X30350000Y-14750000D03*
X22944428Y-15001750D03*
X35944428Y-13001750D03*
X31142500Y-5442500D03*
X13800000Y-11700000D03*
X8944428Y-15001750D03*
X7944428Y-13001750D03*
X19944428Y-11001750D03*
X5000000Y-9375000D03*
X47944428Y-14001750D03*
X25944428Y-7001750D03*
X13944428Y-15001750D03*
X62944428Y-14001750D03*
X87700000Y-14700000D03*
X44100000Y-5300000D03*
X74944428Y-12425000D03*
X79944428Y-15001750D03*
X27827500Y-12427500D03*
X91944428Y-13001750D03*
X18900000Y-5000000D03*
X87300000Y-8600000D03*
X54572000Y-8500000D03*
X3944428Y-11001750D03*
X22250000Y-9900000D03*
X36944428Y-15001750D03*
X35944428Y-9001750D03*
X42800000Y-8550000D03*
X53725000Y-11225000D03*
X44900000Y-11500000D03*
X7944428Y-10001750D03*
X83944428Y-12450000D03*
X41944428Y-14001750D03*
X35750000Y-3100000D03*
X50944428Y-14001750D03*
X70944428Y-13001750D03*
X4944428Y-14001750D03*
X56944428Y-14001750D03*
X41000000Y-6700000D03*
X34200000Y-15000000D03*
X18192894Y-4292894D03*
X76944428Y-15001750D03*
X25944428Y-15001750D03*
X1944428Y-10001750D03*
X38250000Y-7600000D03*
X11800000Y-11200000D03*
X89400000Y-12750000D03*
X31200000Y-11100000D03*
X37944428Y-11001750D03*
X53944428Y-14001750D03*
X27944428Y-14001750D03*
X43100000Y-5300000D03*
X25944428Y-4001750D03*
X16600000Y-11700000D03*
X39944428Y-13001750D03*
X16944428Y-14800000D03*
X80944428Y-12425000D03*
X84900000Y-14700000D03*
X50944428Y-11001750D03*
X65944428Y-14001750D03*
X89944428Y-15001750D03*
X18350000Y-8400000D03*
X26944428Y-9001750D03*
X44944428Y-14001750D03*
X33400000Y-10400000D03*
%TO.N,+5V*%
X14800002Y-7700000D03*
X35750000Y-4350000D03*
X21430000Y-7180000D03*
X15800000Y-7700000D03*
X35750000Y-5350000D03*
%TO.N,VBUS*%
X43100000Y-2150000D03*
X73062000Y-8600000D03*
X44100000Y-2150000D03*
X52224911Y-6254900D03*
X6200000Y-12100000D03*
X48859089Y-6254900D03*
X94292000Y-8600000D03*
X6200000Y-11200000D03*
%TD*%
D17*
%TO.N,GNDPWR*%
X13318000Y-6780000D02*
X13318000Y-2600000D01*
%TD*%
%TA.AperFunction,Conductor*%
%TO.N,VBUS*%
G36*
X99520536Y-520185D02*
G01*
X99566291Y-572989D01*
X99576235Y-642147D01*
X99547210Y-705703D01*
X99504573Y-737492D01*
X99337034Y-813223D01*
X99337032Y-813224D01*
X99145999Y-942342D01*
X98979540Y-1101878D01*
X98842434Y-1287257D01*
X98738630Y-1493138D01*
X98671113Y-1713606D01*
X98641828Y-1942306D01*
X98651613Y-2172662D01*
X98651614Y-2172670D01*
X98700190Y-2398062D01*
X98700190Y-2398063D01*
X98786157Y-2612002D01*
X98786159Y-2612006D01*
X98848185Y-2712742D01*
X98907048Y-2808342D01*
X99059380Y-2981425D01*
X99059384Y-2981429D01*
X99238765Y-3126269D01*
X99238766Y-3126270D01*
X99238769Y-3126271D01*
X99238772Y-3126274D01*
X99440063Y-3238721D01*
X99657462Y-3315533D01*
X99784272Y-3337277D01*
X99884706Y-3354499D01*
X99884715Y-3354500D01*
X100057540Y-3354500D01*
X100229734Y-3339844D01*
X100229737Y-3339843D01*
X100229739Y-3339843D01*
X100452869Y-3281745D01*
X100581229Y-3223722D01*
X100662965Y-3186776D01*
X100662967Y-3186775D01*
X100662967Y-3186774D01*
X100662971Y-3186773D01*
X100854000Y-3057659D01*
X101020462Y-2898119D01*
X101157566Y-2712742D01*
X101261370Y-2506860D01*
X101261370Y-2506858D01*
X101263741Y-2502157D01*
X101265339Y-2502962D01*
X101303692Y-2454311D01*
X101369746Y-2431537D01*
X101437626Y-2448089D01*
X101485782Y-2498713D01*
X101499500Y-2555403D01*
X101499500Y-3838503D01*
X101479815Y-3905542D01*
X101427011Y-3951297D01*
X101357853Y-3961241D01*
X101300459Y-3937219D01*
X101230697Y-3884187D01*
X101230690Y-3884183D01*
X101066744Y-3808333D01*
X101066740Y-3808331D01*
X100890322Y-3769500D01*
X100754972Y-3769500D01*
X100754970Y-3769500D01*
X100620413Y-3784134D01*
X100449225Y-3841814D01*
X100294437Y-3934947D01*
X100294436Y-3934948D01*
X100163290Y-4059175D01*
X100061915Y-4208695D01*
X100061914Y-4208698D01*
X99995054Y-4376502D01*
X99995053Y-4376505D01*
X99995053Y-4376508D01*
X99967390Y-4545250D01*
X99965828Y-4554776D01*
X99975607Y-4735152D01*
X99975608Y-4735154D01*
X100023934Y-4909209D01*
X100023937Y-4909215D01*
X100066243Y-4989013D01*
X100108551Y-5068814D01*
X100108552Y-5068815D01*
X100225498Y-5206494D01*
X100359465Y-5308334D01*
X100369308Y-5315816D01*
X100533256Y-5391667D01*
X100533257Y-5391667D01*
X100533259Y-5391668D01*
X100586782Y-5403448D01*
X100709678Y-5430500D01*
X100709681Y-5430500D01*
X100845022Y-5430500D01*
X100845028Y-5430500D01*
X100979586Y-5415866D01*
X101150774Y-5358186D01*
X101305561Y-5265054D01*
X101305562Y-5265053D01*
X101311321Y-5261588D01*
X101312914Y-5264236D01*
X101365442Y-5244056D01*
X101433857Y-5258238D01*
X101483744Y-5307156D01*
X101499500Y-5367647D01*
X101499500Y-13957732D01*
X101479815Y-14024771D01*
X101427011Y-14070526D01*
X101357853Y-14080470D01*
X101294297Y-14051445D01*
X101260442Y-14003966D01*
X101213842Y-13887997D01*
X101213841Y-13887994D01*
X101092951Y-13691657D01*
X100940620Y-13518575D01*
X100940619Y-13518574D01*
X100940615Y-13518570D01*
X100761234Y-13373730D01*
X100761233Y-13373729D01*
X100559938Y-13261279D01*
X100342541Y-13184468D01*
X100342540Y-13184467D01*
X100342538Y-13184467D01*
X100342534Y-13184466D01*
X100342533Y-13184466D01*
X100115293Y-13145500D01*
X100115285Y-13145500D01*
X99942465Y-13145500D01*
X99942460Y-13145500D01*
X99770265Y-13160155D01*
X99547131Y-13218254D01*
X99337034Y-13313223D01*
X99337032Y-13313224D01*
X99224840Y-13389054D01*
X99154968Y-13436280D01*
X99145999Y-13442342D01*
X98979540Y-13601878D01*
X98842434Y-13787257D01*
X98738630Y-13993138D01*
X98671113Y-14213606D01*
X98641828Y-14442306D01*
X98651613Y-14672662D01*
X98651614Y-14672670D01*
X98700190Y-14898062D01*
X98700190Y-14898063D01*
X98786157Y-15112002D01*
X98786159Y-15112006D01*
X98830813Y-15184528D01*
X98907048Y-15308342D01*
X99059380Y-15481425D01*
X99059384Y-15481429D01*
X99238765Y-15626269D01*
X99238766Y-15626270D01*
X99238769Y-15626271D01*
X99238772Y-15626274D01*
X99440063Y-15738720D01*
X99440063Y-15738721D01*
X99496278Y-15758583D01*
X99552931Y-15799477D01*
X99578481Y-15864507D01*
X99564817Y-15933028D01*
X99516277Y-15983284D01*
X99454969Y-15999500D01*
X97974845Y-15999500D01*
X97907806Y-15979815D01*
X97862051Y-15927011D01*
X97852107Y-15857853D01*
X97881132Y-15794297D01*
X97889570Y-15785477D01*
X97936709Y-15740824D01*
X97973354Y-15686776D01*
X98038083Y-15591307D01*
X98104947Y-15423492D01*
X98134172Y-15245227D01*
X98124392Y-15064848D01*
X98106873Y-15001750D01*
X98076065Y-14890790D01*
X98076062Y-14890784D01*
X98050825Y-14843182D01*
X97991449Y-14731186D01*
X97874502Y-14593506D01*
X97874076Y-14593182D01*
X97730698Y-14484188D01*
X97730690Y-14484183D01*
X97566744Y-14408333D01*
X97566740Y-14408331D01*
X97390322Y-14369500D01*
X97254972Y-14369500D01*
X97254970Y-14369500D01*
X97120413Y-14384134D01*
X96949225Y-14441814D01*
X96794437Y-14534947D01*
X96794436Y-14534948D01*
X96663290Y-14659175D01*
X96561915Y-14808695D01*
X96561914Y-14808698D01*
X96495054Y-14976502D01*
X96495053Y-14976505D01*
X96488665Y-15015471D01*
X96467353Y-15145476D01*
X96465828Y-15154776D01*
X96475607Y-15335152D01*
X96475608Y-15335154D01*
X96523934Y-15509209D01*
X96523937Y-15509215D01*
X96549621Y-15557659D01*
X96608551Y-15668814D01*
X96608552Y-15668815D01*
X96715925Y-15795224D01*
X96744323Y-15859063D01*
X96733699Y-15928120D01*
X96687426Y-15980471D01*
X96621417Y-15999500D01*
X20347387Y-15999500D01*
X20280348Y-15979815D01*
X20234593Y-15927011D01*
X20224649Y-15857853D01*
X20245337Y-15805060D01*
X20258854Y-15785477D01*
X20280220Y-15754523D01*
X20336237Y-15606818D01*
X20355278Y-15450000D01*
X20344678Y-15362696D01*
X20336237Y-15293181D01*
X20305730Y-15212742D01*
X20280220Y-15145477D01*
X20190483Y-15015470D01*
X20174996Y-15001750D01*
X22289150Y-15001750D01*
X22308190Y-15158568D01*
X22357765Y-15289284D01*
X22364208Y-15306273D01*
X22453945Y-15436280D01*
X22572188Y-15541033D01*
X22572190Y-15541034D01*
X22712062Y-15614446D01*
X22865442Y-15652250D01*
X22865443Y-15652250D01*
X23023413Y-15652250D01*
X23176793Y-15614446D01*
X23220880Y-15591307D01*
X23316668Y-15541033D01*
X23434911Y-15436280D01*
X23524648Y-15306273D01*
X23580665Y-15158568D01*
X23599706Y-15001750D01*
X25289150Y-15001750D01*
X25308190Y-15158568D01*
X25357765Y-15289284D01*
X25364208Y-15306273D01*
X25453945Y-15436280D01*
X25572188Y-15541033D01*
X25572190Y-15541034D01*
X25712062Y-15614446D01*
X25865442Y-15652250D01*
X25865443Y-15652250D01*
X26023413Y-15652250D01*
X26176793Y-15614446D01*
X26220880Y-15591307D01*
X26316668Y-15541033D01*
X26434911Y-15436280D01*
X26524648Y-15306273D01*
X26580665Y-15158568D01*
X26599706Y-15001750D01*
X26599494Y-14999999D01*
X26580665Y-14844931D01*
X26544662Y-14750000D01*
X29694722Y-14750000D01*
X29713762Y-14906818D01*
X29769780Y-15054523D01*
X29859517Y-15184530D01*
X29977760Y-15289283D01*
X29977762Y-15289284D01*
X30117634Y-15362696D01*
X30271014Y-15400500D01*
X30271015Y-15400500D01*
X30428985Y-15400500D01*
X30582365Y-15362696D01*
X30634845Y-15335152D01*
X30722240Y-15289283D01*
X30840483Y-15184530D01*
X30930220Y-15054523D01*
X30950898Y-15000000D01*
X33544722Y-15000000D01*
X33563762Y-15156818D01*
X33615479Y-15293182D01*
X33619780Y-15304523D01*
X33709517Y-15434530D01*
X33827760Y-15539283D01*
X33827762Y-15539284D01*
X33967634Y-15612696D01*
X34121014Y-15650500D01*
X34121015Y-15650500D01*
X34278985Y-15650500D01*
X34432365Y-15612696D01*
X34443564Y-15606818D01*
X34572240Y-15539283D01*
X34690483Y-15434530D01*
X34780220Y-15304523D01*
X34836237Y-15156818D01*
X34855066Y-15001750D01*
X36289150Y-15001750D01*
X36308190Y-15158568D01*
X36357765Y-15289284D01*
X36364208Y-15306273D01*
X36453945Y-15436280D01*
X36572188Y-15541033D01*
X36572190Y-15541034D01*
X36712062Y-15614446D01*
X36865442Y-15652250D01*
X36865443Y-15652250D01*
X37023413Y-15652250D01*
X37176793Y-15614446D01*
X37220880Y-15591307D01*
X37316668Y-15541033D01*
X37434911Y-15436280D01*
X37524648Y-15306273D01*
X37580665Y-15158568D01*
X37599706Y-15001750D01*
X73289150Y-15001750D01*
X73308190Y-15158568D01*
X73357765Y-15289284D01*
X73364208Y-15306273D01*
X73453945Y-15436280D01*
X73572188Y-15541033D01*
X73572190Y-15541034D01*
X73712062Y-15614446D01*
X73865442Y-15652250D01*
X73865443Y-15652250D01*
X74023413Y-15652250D01*
X74176793Y-15614446D01*
X74220880Y-15591307D01*
X74316668Y-15541033D01*
X74434911Y-15436280D01*
X74524648Y-15306273D01*
X74580665Y-15158568D01*
X74599706Y-15001750D01*
X76289150Y-15001750D01*
X76308190Y-15158568D01*
X76357765Y-15289284D01*
X76364208Y-15306273D01*
X76453945Y-15436280D01*
X76572188Y-15541033D01*
X76572190Y-15541034D01*
X76712062Y-15614446D01*
X76865442Y-15652250D01*
X76865443Y-15652250D01*
X77023413Y-15652250D01*
X77176793Y-15614446D01*
X77220880Y-15591307D01*
X77316668Y-15541033D01*
X77434911Y-15436280D01*
X77524648Y-15306273D01*
X77580665Y-15158568D01*
X77599706Y-15001750D01*
X79289150Y-15001750D01*
X79308190Y-15158568D01*
X79357765Y-15289284D01*
X79364208Y-15306273D01*
X79453945Y-15436280D01*
X79572188Y-15541033D01*
X79572190Y-15541034D01*
X79712062Y-15614446D01*
X79865442Y-15652250D01*
X79865443Y-15652250D01*
X80023413Y-15652250D01*
X80176793Y-15614446D01*
X80220880Y-15591307D01*
X80316668Y-15541033D01*
X80434911Y-15436280D01*
X80524648Y-15306273D01*
X80580665Y-15158568D01*
X80599706Y-15001750D01*
X82289150Y-15001750D01*
X82308190Y-15158568D01*
X82357765Y-15289284D01*
X82364208Y-15306273D01*
X82453945Y-15436280D01*
X82572188Y-15541033D01*
X82572190Y-15541034D01*
X82712062Y-15614446D01*
X82865442Y-15652250D01*
X82865443Y-15652250D01*
X83023413Y-15652250D01*
X83176793Y-15614446D01*
X83220880Y-15591307D01*
X83316668Y-15541033D01*
X83434911Y-15436280D01*
X83524648Y-15306273D01*
X83580665Y-15158568D01*
X83599706Y-15001750D01*
X83599494Y-14999999D01*
X83580665Y-14844931D01*
X83544662Y-14750000D01*
X83525700Y-14700000D01*
X84244722Y-14700000D01*
X84263762Y-14856818D01*
X84299690Y-14951551D01*
X84319780Y-15004523D01*
X84409517Y-15134530D01*
X84527760Y-15239283D01*
X84527762Y-15239284D01*
X84667634Y-15312696D01*
X84821014Y-15350500D01*
X84821015Y-15350500D01*
X84978985Y-15350500D01*
X85132365Y-15312696D01*
X85176974Y-15289283D01*
X85272240Y-15239283D01*
X85390483Y-15134530D01*
X85480220Y-15004523D01*
X85536237Y-14856818D01*
X85555278Y-14700000D01*
X87044722Y-14700000D01*
X87063762Y-14856818D01*
X87099690Y-14951551D01*
X87119780Y-15004523D01*
X87209517Y-15134530D01*
X87327760Y-15239283D01*
X87327762Y-15239284D01*
X87467634Y-15312696D01*
X87621014Y-15350500D01*
X87621015Y-15350500D01*
X87778985Y-15350500D01*
X87932365Y-15312696D01*
X87976974Y-15289283D01*
X88072240Y-15239283D01*
X88190483Y-15134530D01*
X88280220Y-15004523D01*
X88281272Y-15001750D01*
X89289150Y-15001750D01*
X89308190Y-15158568D01*
X89357765Y-15289284D01*
X89364208Y-15306273D01*
X89453945Y-15436280D01*
X89572188Y-15541033D01*
X89572190Y-15541034D01*
X89712062Y-15614446D01*
X89865442Y-15652250D01*
X89865443Y-15652250D01*
X90023413Y-15652250D01*
X90176793Y-15614446D01*
X90220880Y-15591307D01*
X90316668Y-15541033D01*
X90434911Y-15436280D01*
X90524648Y-15306273D01*
X90580665Y-15158568D01*
X90599706Y-15001750D01*
X90599494Y-14999999D01*
X90580665Y-14844931D01*
X90544662Y-14750000D01*
X90524648Y-14697227D01*
X90434911Y-14567220D01*
X90316668Y-14462467D01*
X90316666Y-14462466D01*
X90316665Y-14462465D01*
X90176793Y-14389053D01*
X90023414Y-14351250D01*
X90023413Y-14351250D01*
X89865443Y-14351250D01*
X89865442Y-14351250D01*
X89712062Y-14389053D01*
X89572190Y-14462465D01*
X89453944Y-14567221D01*
X89364209Y-14697225D01*
X89364208Y-14697226D01*
X89308190Y-14844931D01*
X89289150Y-15001749D01*
X89289150Y-15001750D01*
X88281272Y-15001750D01*
X88336237Y-14856818D01*
X88355278Y-14700000D01*
X88342348Y-14593506D01*
X88336237Y-14543181D01*
X88313862Y-14484183D01*
X88280220Y-14395477D01*
X88190483Y-14265470D01*
X88072240Y-14160717D01*
X88072238Y-14160716D01*
X88072237Y-14160715D01*
X87932365Y-14087303D01*
X87778986Y-14049500D01*
X87778985Y-14049500D01*
X87621015Y-14049500D01*
X87621014Y-14049500D01*
X87467634Y-14087303D01*
X87327762Y-14160715D01*
X87209516Y-14265471D01*
X87119781Y-14395475D01*
X87119780Y-14395476D01*
X87063762Y-14543181D01*
X87044722Y-14699999D01*
X87044722Y-14700000D01*
X85555278Y-14700000D01*
X85542348Y-14593506D01*
X85536237Y-14543181D01*
X85513862Y-14484183D01*
X85480220Y-14395477D01*
X85390483Y-14265470D01*
X85272240Y-14160717D01*
X85272238Y-14160716D01*
X85272237Y-14160715D01*
X85132365Y-14087303D01*
X84978986Y-14049500D01*
X84978985Y-14049500D01*
X84821015Y-14049500D01*
X84821014Y-14049500D01*
X84667634Y-14087303D01*
X84527762Y-14160715D01*
X84409516Y-14265471D01*
X84319781Y-14395475D01*
X84319780Y-14395476D01*
X84263762Y-14543181D01*
X84244722Y-14699999D01*
X84244722Y-14700000D01*
X83525700Y-14700000D01*
X83524648Y-14697227D01*
X83434911Y-14567220D01*
X83316668Y-14462467D01*
X83316666Y-14462466D01*
X83316665Y-14462465D01*
X83176793Y-14389053D01*
X83023414Y-14351250D01*
X83023413Y-14351250D01*
X82865443Y-14351250D01*
X82865442Y-14351250D01*
X82712062Y-14389053D01*
X82572190Y-14462465D01*
X82453944Y-14567221D01*
X82364209Y-14697225D01*
X82364208Y-14697226D01*
X82308190Y-14844931D01*
X82289150Y-15001749D01*
X82289150Y-15001750D01*
X80599706Y-15001750D01*
X80599494Y-14999999D01*
X80580665Y-14844931D01*
X80544662Y-14750000D01*
X80524648Y-14697227D01*
X80434911Y-14567220D01*
X80316668Y-14462467D01*
X80316666Y-14462466D01*
X80316665Y-14462465D01*
X80176793Y-14389053D01*
X80023414Y-14351250D01*
X80023413Y-14351250D01*
X79865443Y-14351250D01*
X79865442Y-14351250D01*
X79712062Y-14389053D01*
X79572190Y-14462465D01*
X79453944Y-14567221D01*
X79364209Y-14697225D01*
X79364208Y-14697226D01*
X79308190Y-14844931D01*
X79289150Y-15001749D01*
X79289150Y-15001750D01*
X77599706Y-15001750D01*
X77599494Y-14999999D01*
X77580665Y-14844931D01*
X77544662Y-14750000D01*
X77524648Y-14697227D01*
X77434911Y-14567220D01*
X77316668Y-14462467D01*
X77316666Y-14462466D01*
X77316665Y-14462465D01*
X77176793Y-14389053D01*
X77023414Y-14351250D01*
X77023413Y-14351250D01*
X76865443Y-14351250D01*
X76865442Y-14351250D01*
X76712062Y-14389053D01*
X76572190Y-14462465D01*
X76453944Y-14567221D01*
X76364209Y-14697225D01*
X76364208Y-14697226D01*
X76308190Y-14844931D01*
X76289150Y-15001749D01*
X76289150Y-15001750D01*
X74599706Y-15001750D01*
X74599494Y-14999999D01*
X74580665Y-14844931D01*
X74544662Y-14750000D01*
X74524648Y-14697227D01*
X74434911Y-14567220D01*
X74316668Y-14462467D01*
X74316666Y-14462466D01*
X74316665Y-14462465D01*
X74176793Y-14389053D01*
X74023414Y-14351250D01*
X74023413Y-14351250D01*
X73865443Y-14351250D01*
X73865442Y-14351250D01*
X73712062Y-14389053D01*
X73572190Y-14462465D01*
X73453944Y-14567221D01*
X73364209Y-14697225D01*
X73364208Y-14697226D01*
X73308190Y-14844931D01*
X73289150Y-15001749D01*
X73289150Y-15001750D01*
X37599706Y-15001750D01*
X37599494Y-14999999D01*
X37580665Y-14844931D01*
X37544662Y-14750000D01*
X37524648Y-14697227D01*
X37434911Y-14567220D01*
X37316668Y-14462467D01*
X37316666Y-14462466D01*
X37316665Y-14462465D01*
X37176793Y-14389053D01*
X37023414Y-14351250D01*
X37023413Y-14351250D01*
X36865443Y-14351250D01*
X36865442Y-14351250D01*
X36712062Y-14389053D01*
X36572190Y-14462465D01*
X36453944Y-14567221D01*
X36364209Y-14697225D01*
X36364208Y-14697226D01*
X36308190Y-14844931D01*
X36289150Y-15001749D01*
X36289150Y-15001750D01*
X34855066Y-15001750D01*
X34855278Y-15000000D01*
X34836450Y-14844932D01*
X34836237Y-14843181D01*
X34793763Y-14731188D01*
X34780220Y-14695477D01*
X34690483Y-14565470D01*
X34572240Y-14460717D01*
X34572238Y-14460716D01*
X34572237Y-14460715D01*
X34432365Y-14387303D01*
X34278986Y-14349500D01*
X34278985Y-14349500D01*
X34121015Y-14349500D01*
X34121014Y-14349500D01*
X33967634Y-14387303D01*
X33827762Y-14460715D01*
X33709516Y-14565471D01*
X33619781Y-14695475D01*
X33619780Y-14695476D01*
X33563762Y-14843181D01*
X33544722Y-14999999D01*
X33544722Y-15000000D01*
X30950898Y-15000000D01*
X30986237Y-14906818D01*
X31005278Y-14750000D01*
X30999533Y-14702681D01*
X30986237Y-14593181D01*
X30949182Y-14495476D01*
X30930220Y-14445477D01*
X30840483Y-14315470D01*
X30722240Y-14210717D01*
X30722238Y-14210716D01*
X30722237Y-14210715D01*
X30582365Y-14137303D01*
X30428986Y-14099500D01*
X30428985Y-14099500D01*
X30271015Y-14099500D01*
X30271014Y-14099500D01*
X30117634Y-14137303D01*
X29977762Y-14210715D01*
X29859516Y-14315471D01*
X29769781Y-14445475D01*
X29769780Y-14445476D01*
X29713762Y-14593181D01*
X29694722Y-14749999D01*
X29694722Y-14750000D01*
X26544662Y-14750000D01*
X26524648Y-14697227D01*
X26434911Y-14567220D01*
X26316668Y-14462467D01*
X26316666Y-14462466D01*
X26316665Y-14462465D01*
X26176793Y-14389053D01*
X26023414Y-14351250D01*
X26023413Y-14351250D01*
X25865443Y-14351250D01*
X25865442Y-14351250D01*
X25712062Y-14389053D01*
X25572190Y-14462465D01*
X25453944Y-14567221D01*
X25364209Y-14697225D01*
X25364208Y-14697226D01*
X25308190Y-14844931D01*
X25289150Y-15001749D01*
X25289150Y-15001750D01*
X23599706Y-15001750D01*
X23599494Y-14999999D01*
X23580665Y-14844931D01*
X23544662Y-14750000D01*
X23524648Y-14697227D01*
X23434911Y-14567220D01*
X23316668Y-14462467D01*
X23316666Y-14462466D01*
X23316665Y-14462465D01*
X23176793Y-14389053D01*
X23023414Y-14351250D01*
X23023413Y-14351250D01*
X22865443Y-14351250D01*
X22865442Y-14351250D01*
X22712062Y-14389053D01*
X22572190Y-14462465D01*
X22453944Y-14567221D01*
X22364209Y-14697225D01*
X22364208Y-14697226D01*
X22308190Y-14844931D01*
X22289150Y-15001749D01*
X22289150Y-15001750D01*
X20174996Y-15001750D01*
X20072240Y-14910717D01*
X20072238Y-14910716D01*
X20072237Y-14910715D01*
X19932365Y-14837303D01*
X19778986Y-14799500D01*
X19778985Y-14799500D01*
X19621015Y-14799500D01*
X19621014Y-14799500D01*
X19467634Y-14837303D01*
X19327762Y-14910715D01*
X19209516Y-15015471D01*
X19119781Y-15145475D01*
X19119780Y-15145476D01*
X19063762Y-15293181D01*
X19044722Y-15449999D01*
X19044722Y-15450000D01*
X19063762Y-15606818D01*
X19094087Y-15686776D01*
X19119780Y-15754523D01*
X19125292Y-15762508D01*
X19154663Y-15805060D01*
X19176546Y-15871415D01*
X19159081Y-15939066D01*
X19107813Y-15986536D01*
X19052613Y-15999500D01*
X12724500Y-15999500D01*
X12657461Y-15979815D01*
X12611706Y-15927011D01*
X12600500Y-15875500D01*
X12600499Y-15001750D01*
X13289150Y-15001750D01*
X13308190Y-15158568D01*
X13357765Y-15289284D01*
X13364208Y-15306273D01*
X13453945Y-15436280D01*
X13572188Y-15541033D01*
X13572190Y-15541034D01*
X13712062Y-15614446D01*
X13865442Y-15652250D01*
X13865443Y-15652250D01*
X14023413Y-15652250D01*
X14176793Y-15614446D01*
X14220880Y-15591307D01*
X14316668Y-15541033D01*
X14434911Y-15436280D01*
X14524648Y-15306273D01*
X14580665Y-15158568D01*
X14599706Y-15001750D01*
X14599494Y-14999999D01*
X14580665Y-14844931D01*
X14563625Y-14800000D01*
X16289150Y-14800000D01*
X16308190Y-14956818D01*
X16345246Y-15054524D01*
X16364208Y-15104523D01*
X16453945Y-15234530D01*
X16572188Y-15339283D01*
X16572190Y-15339284D01*
X16712062Y-15412696D01*
X16865442Y-15450500D01*
X16865443Y-15450500D01*
X17023413Y-15450500D01*
X17176793Y-15412696D01*
X17204567Y-15398119D01*
X17316668Y-15339283D01*
X17434911Y-15234530D01*
X17524648Y-15104523D01*
X17580665Y-14956818D01*
X17599706Y-14800000D01*
X17587890Y-14702681D01*
X17580665Y-14643181D01*
X17548244Y-14557694D01*
X17524648Y-14495477D01*
X17434911Y-14365470D01*
X17316668Y-14260717D01*
X17316666Y-14260716D01*
X17316665Y-14260715D01*
X17176793Y-14187303D01*
X17023414Y-14149500D01*
X17023413Y-14149500D01*
X16865443Y-14149500D01*
X16865442Y-14149500D01*
X16712062Y-14187303D01*
X16572190Y-14260715D01*
X16453944Y-14365471D01*
X16364209Y-14495475D01*
X16364208Y-14495476D01*
X16308190Y-14643181D01*
X16289150Y-14799999D01*
X16289150Y-14800000D01*
X14563625Y-14800000D01*
X14544662Y-14750000D01*
X14524648Y-14697227D01*
X14434911Y-14567220D01*
X14316668Y-14462467D01*
X14316666Y-14462466D01*
X14316665Y-14462465D01*
X14176793Y-14389053D01*
X14023414Y-14351250D01*
X14023413Y-14351250D01*
X13865443Y-14351250D01*
X13865442Y-14351250D01*
X13712062Y-14389053D01*
X13572190Y-14462465D01*
X13453944Y-14567221D01*
X13364209Y-14697225D01*
X13364208Y-14697226D01*
X13308190Y-14844931D01*
X13289150Y-15001749D01*
X13289150Y-15001750D01*
X12600499Y-15001750D01*
X12600499Y-14168482D01*
X12589960Y-14101938D01*
X12585646Y-14074696D01*
X12548478Y-14001750D01*
X27289150Y-14001750D01*
X27308190Y-14158568D01*
X27346930Y-14260715D01*
X27364208Y-14306273D01*
X27453945Y-14436280D01*
X27572188Y-14541033D01*
X27572190Y-14541034D01*
X27712062Y-14614446D01*
X27865442Y-14652250D01*
X27865443Y-14652250D01*
X28023413Y-14652250D01*
X28176793Y-14614446D01*
X28176793Y-14614445D01*
X28316668Y-14541033D01*
X28434911Y-14436280D01*
X28524648Y-14306273D01*
X28580665Y-14158568D01*
X28599706Y-14001750D01*
X41289150Y-14001750D01*
X41308190Y-14158568D01*
X41346930Y-14260715D01*
X41364208Y-14306273D01*
X41453945Y-14436280D01*
X41572188Y-14541033D01*
X41572190Y-14541034D01*
X41712062Y-14614446D01*
X41865442Y-14652250D01*
X41865443Y-14652250D01*
X42023413Y-14652250D01*
X42176793Y-14614446D01*
X42176792Y-14614445D01*
X42316668Y-14541033D01*
X42434911Y-14436280D01*
X42524648Y-14306273D01*
X42580665Y-14158568D01*
X42599706Y-14001750D01*
X44289150Y-14001750D01*
X44308190Y-14158568D01*
X44346930Y-14260715D01*
X44364208Y-14306273D01*
X44453945Y-14436280D01*
X44572188Y-14541033D01*
X44572190Y-14541034D01*
X44712062Y-14614446D01*
X44865442Y-14652250D01*
X44865443Y-14652250D01*
X45023413Y-14652250D01*
X45176793Y-14614446D01*
X45176792Y-14614445D01*
X45316668Y-14541033D01*
X45434911Y-14436280D01*
X45524648Y-14306273D01*
X45580665Y-14158568D01*
X45599706Y-14001750D01*
X47289150Y-14001750D01*
X47308190Y-14158568D01*
X47346930Y-14260715D01*
X47364208Y-14306273D01*
X47453945Y-14436280D01*
X47572188Y-14541033D01*
X47572190Y-14541034D01*
X47712062Y-14614446D01*
X47865442Y-14652250D01*
X47865443Y-14652250D01*
X48023413Y-14652250D01*
X48176793Y-14614446D01*
X48176792Y-14614445D01*
X48316668Y-14541033D01*
X48434911Y-14436280D01*
X48524648Y-14306273D01*
X48580665Y-14158568D01*
X48599706Y-14001750D01*
X50289150Y-14001750D01*
X50308190Y-14158568D01*
X50346930Y-14260715D01*
X50364208Y-14306273D01*
X50453945Y-14436280D01*
X50572188Y-14541033D01*
X50572190Y-14541034D01*
X50712062Y-14614446D01*
X50865442Y-14652250D01*
X50865443Y-14652250D01*
X51023413Y-14652250D01*
X51176793Y-14614446D01*
X51176792Y-14614445D01*
X51316668Y-14541033D01*
X51434911Y-14436280D01*
X51524648Y-14306273D01*
X51580665Y-14158568D01*
X51599706Y-14001750D01*
X53289150Y-14001750D01*
X53308190Y-14158568D01*
X53346930Y-14260715D01*
X53364208Y-14306273D01*
X53453945Y-14436280D01*
X53572188Y-14541033D01*
X53572190Y-14541034D01*
X53712062Y-14614446D01*
X53865442Y-14652250D01*
X53865443Y-14652250D01*
X54023413Y-14652250D01*
X54176793Y-14614446D01*
X54176792Y-14614445D01*
X54316668Y-14541033D01*
X54434911Y-14436280D01*
X54524648Y-14306273D01*
X54580665Y-14158568D01*
X54599706Y-14001750D01*
X56289150Y-14001750D01*
X56308190Y-14158568D01*
X56346930Y-14260715D01*
X56364208Y-14306273D01*
X56453945Y-14436280D01*
X56572188Y-14541033D01*
X56572190Y-14541034D01*
X56712062Y-14614446D01*
X56865442Y-14652250D01*
X56865443Y-14652250D01*
X57023413Y-14652250D01*
X57176793Y-14614446D01*
X57176792Y-14614445D01*
X57316668Y-14541033D01*
X57434911Y-14436280D01*
X57524648Y-14306273D01*
X57580665Y-14158568D01*
X57599706Y-14001750D01*
X62289150Y-14001750D01*
X62308190Y-14158568D01*
X62346930Y-14260715D01*
X62364208Y-14306273D01*
X62453945Y-14436280D01*
X62572188Y-14541033D01*
X62572190Y-14541034D01*
X62712062Y-14614446D01*
X62865442Y-14652250D01*
X62865443Y-14652250D01*
X63023413Y-14652250D01*
X63176793Y-14614446D01*
X63176792Y-14614445D01*
X63316668Y-14541033D01*
X63434911Y-14436280D01*
X63524648Y-14306273D01*
X63580665Y-14158568D01*
X63599706Y-14001750D01*
X65289150Y-14001750D01*
X65308190Y-14158568D01*
X65346930Y-14260715D01*
X65364208Y-14306273D01*
X65453945Y-14436280D01*
X65572188Y-14541033D01*
X65572190Y-14541034D01*
X65712062Y-14614446D01*
X65865442Y-14652250D01*
X65865443Y-14652250D01*
X66023413Y-14652250D01*
X66176793Y-14614446D01*
X66176792Y-14614445D01*
X66316668Y-14541033D01*
X66434911Y-14436280D01*
X66524648Y-14306273D01*
X66580665Y-14158568D01*
X66599706Y-14001750D01*
X68289150Y-14001750D01*
X68308190Y-14158568D01*
X68346930Y-14260715D01*
X68364208Y-14306273D01*
X68453945Y-14436280D01*
X68572188Y-14541033D01*
X68572190Y-14541034D01*
X68712062Y-14614446D01*
X68865442Y-14652250D01*
X68865443Y-14652250D01*
X69023413Y-14652250D01*
X69176793Y-14614446D01*
X69176792Y-14614445D01*
X69316668Y-14541033D01*
X69434911Y-14436280D01*
X69524648Y-14306273D01*
X69580665Y-14158568D01*
X69599706Y-14001750D01*
X69580665Y-13844932D01*
X69524648Y-13697227D01*
X69434911Y-13567220D01*
X69316668Y-13462467D01*
X69316666Y-13462466D01*
X69316665Y-13462465D01*
X69176793Y-13389053D01*
X69023414Y-13351250D01*
X69023413Y-13351250D01*
X68865443Y-13351250D01*
X68865442Y-13351250D01*
X68712062Y-13389053D01*
X68572190Y-13462465D01*
X68453944Y-13567221D01*
X68364209Y-13697225D01*
X68364208Y-13697226D01*
X68308190Y-13844931D01*
X68289150Y-14001749D01*
X68289150Y-14001750D01*
X66599706Y-14001750D01*
X66580665Y-13844932D01*
X66524648Y-13697227D01*
X66434911Y-13567220D01*
X66316668Y-13462467D01*
X66316666Y-13462466D01*
X66316665Y-13462465D01*
X66176793Y-13389053D01*
X66023414Y-13351250D01*
X66023413Y-13351250D01*
X65865443Y-13351250D01*
X65865442Y-13351250D01*
X65712062Y-13389053D01*
X65572190Y-13462465D01*
X65453944Y-13567221D01*
X65364209Y-13697225D01*
X65364208Y-13697226D01*
X65308190Y-13844931D01*
X65289150Y-14001749D01*
X65289150Y-14001750D01*
X63599706Y-14001750D01*
X63580665Y-13844932D01*
X63524648Y-13697227D01*
X63434911Y-13567220D01*
X63316668Y-13462467D01*
X63316666Y-13462466D01*
X63316665Y-13462465D01*
X63176793Y-13389053D01*
X63023414Y-13351250D01*
X63023413Y-13351250D01*
X62865443Y-13351250D01*
X62865442Y-13351250D01*
X62712062Y-13389053D01*
X62572190Y-13462465D01*
X62453944Y-13567221D01*
X62364209Y-13697225D01*
X62364208Y-13697226D01*
X62308190Y-13844931D01*
X62289150Y-14001749D01*
X62289150Y-14001750D01*
X57599706Y-14001750D01*
X57580665Y-13844932D01*
X57524648Y-13697227D01*
X57434911Y-13567220D01*
X57316668Y-13462467D01*
X57316666Y-13462466D01*
X57316665Y-13462465D01*
X57176793Y-13389053D01*
X57023414Y-13351250D01*
X57023413Y-13351250D01*
X56865443Y-13351250D01*
X56865442Y-13351250D01*
X56712062Y-13389053D01*
X56572190Y-13462465D01*
X56453944Y-13567221D01*
X56364209Y-13697225D01*
X56364208Y-13697226D01*
X56308190Y-13844931D01*
X56289150Y-14001749D01*
X56289150Y-14001750D01*
X54599706Y-14001750D01*
X54580665Y-13844932D01*
X54524648Y-13697227D01*
X54434911Y-13567220D01*
X54316668Y-13462467D01*
X54316666Y-13462466D01*
X54316665Y-13462465D01*
X54176793Y-13389053D01*
X54023414Y-13351250D01*
X54023413Y-13351250D01*
X53865443Y-13351250D01*
X53865442Y-13351250D01*
X53712062Y-13389053D01*
X53572190Y-13462465D01*
X53453944Y-13567221D01*
X53364209Y-13697225D01*
X53364208Y-13697226D01*
X53308190Y-13844931D01*
X53289150Y-14001749D01*
X53289150Y-14001750D01*
X51599706Y-14001750D01*
X51580665Y-13844932D01*
X51524648Y-13697227D01*
X51434911Y-13567220D01*
X51316668Y-13462467D01*
X51316666Y-13462466D01*
X51316665Y-13462465D01*
X51176793Y-13389053D01*
X51023414Y-13351250D01*
X51023413Y-13351250D01*
X50865443Y-13351250D01*
X50865442Y-13351250D01*
X50712062Y-13389053D01*
X50572190Y-13462465D01*
X50453944Y-13567221D01*
X50364209Y-13697225D01*
X50364208Y-13697226D01*
X50308190Y-13844931D01*
X50289150Y-14001749D01*
X50289150Y-14001750D01*
X48599706Y-14001750D01*
X48580665Y-13844932D01*
X48524648Y-13697227D01*
X48434911Y-13567220D01*
X48316668Y-13462467D01*
X48316666Y-13462466D01*
X48316665Y-13462465D01*
X48176793Y-13389053D01*
X48023414Y-13351250D01*
X48023413Y-13351250D01*
X47865443Y-13351250D01*
X47865442Y-13351250D01*
X47712062Y-13389053D01*
X47572190Y-13462465D01*
X47453944Y-13567221D01*
X47364209Y-13697225D01*
X47364208Y-13697226D01*
X47308190Y-13844931D01*
X47289150Y-14001749D01*
X47289150Y-14001750D01*
X45599706Y-14001750D01*
X45580665Y-13844932D01*
X45524648Y-13697227D01*
X45434911Y-13567220D01*
X45316668Y-13462467D01*
X45316666Y-13462466D01*
X45316665Y-13462465D01*
X45176793Y-13389053D01*
X45023414Y-13351250D01*
X45023413Y-13351250D01*
X44865443Y-13351250D01*
X44865442Y-13351250D01*
X44712062Y-13389053D01*
X44572190Y-13462465D01*
X44453944Y-13567221D01*
X44364209Y-13697225D01*
X44364208Y-13697226D01*
X44308190Y-13844931D01*
X44289150Y-14001749D01*
X44289150Y-14001750D01*
X42599706Y-14001750D01*
X42580665Y-13844932D01*
X42524648Y-13697227D01*
X42434911Y-13567220D01*
X42316668Y-13462467D01*
X42316666Y-13462466D01*
X42316665Y-13462465D01*
X42176793Y-13389053D01*
X42023414Y-13351250D01*
X42023413Y-13351250D01*
X41865443Y-13351250D01*
X41865442Y-13351250D01*
X41712062Y-13389053D01*
X41572190Y-13462465D01*
X41453944Y-13567221D01*
X41364209Y-13697225D01*
X41364208Y-13697226D01*
X41308190Y-13844931D01*
X41289150Y-14001749D01*
X41289150Y-14001750D01*
X28599706Y-14001750D01*
X28580665Y-13844932D01*
X28524648Y-13697227D01*
X28434911Y-13567220D01*
X28316668Y-13462467D01*
X28316666Y-13462466D01*
X28316665Y-13462465D01*
X28176793Y-13389053D01*
X28023414Y-13351250D01*
X28023413Y-13351250D01*
X27865443Y-13351250D01*
X27865442Y-13351250D01*
X27712062Y-13389053D01*
X27572190Y-13462465D01*
X27453944Y-13567221D01*
X27364209Y-13697225D01*
X27364208Y-13697226D01*
X27308190Y-13844931D01*
X27289150Y-14001749D01*
X27289150Y-14001750D01*
X12548478Y-14001750D01*
X12528050Y-13961658D01*
X12528046Y-13961654D01*
X12528045Y-13961652D01*
X12438347Y-13871954D01*
X12438344Y-13871952D01*
X12438342Y-13871950D01*
X12361517Y-13832805D01*
X12325301Y-13814352D01*
X12231524Y-13799500D01*
X12231519Y-13799500D01*
X11993429Y-13799500D01*
X11985330Y-13798969D01*
X11963733Y-13796126D01*
X11950001Y-13794318D01*
X11949999Y-13794318D01*
X11935076Y-13796282D01*
X11914668Y-13798969D01*
X11906570Y-13799500D01*
X11243431Y-13799500D01*
X11235336Y-13798969D01*
X11208702Y-13795463D01*
X11200001Y-13794318D01*
X11200000Y-13794318D01*
X11194152Y-13795087D01*
X11164661Y-13798969D01*
X11156562Y-13799500D01*
X10918482Y-13799500D01*
X10837519Y-13812323D01*
X10824696Y-13814354D01*
X10711658Y-13871950D01*
X10711657Y-13871951D01*
X10711652Y-13871954D01*
X10621954Y-13961652D01*
X10621951Y-13961657D01*
X10564352Y-14074698D01*
X10549500Y-14168475D01*
X10549500Y-14168480D01*
X10549500Y-14168481D01*
X10549500Y-15064848D01*
X10549501Y-15875500D01*
X10529816Y-15942539D01*
X10477013Y-15988294D01*
X10425501Y-15999500D01*
X7574500Y-15999500D01*
X7507461Y-15979815D01*
X7461706Y-15927011D01*
X7450500Y-15875500D01*
X7450499Y-15001750D01*
X8289150Y-15001750D01*
X8308190Y-15158568D01*
X8357765Y-15289284D01*
X8364208Y-15306273D01*
X8453945Y-15436280D01*
X8572188Y-15541033D01*
X8572190Y-15541034D01*
X8712062Y-15614446D01*
X8865442Y-15652250D01*
X8865443Y-15652250D01*
X9023413Y-15652250D01*
X9176793Y-15614446D01*
X9220880Y-15591307D01*
X9316668Y-15541033D01*
X9434911Y-15436280D01*
X9524648Y-15306273D01*
X9580665Y-15158568D01*
X9599706Y-15001750D01*
X9599494Y-14999999D01*
X9580665Y-14844931D01*
X9544662Y-14750000D01*
X9524648Y-14697227D01*
X9434911Y-14567220D01*
X9316668Y-14462467D01*
X9316666Y-14462466D01*
X9316665Y-14462465D01*
X9176793Y-14389053D01*
X9023414Y-14351250D01*
X9023413Y-14351250D01*
X8865443Y-14351250D01*
X8865442Y-14351250D01*
X8712062Y-14389053D01*
X8572190Y-14462465D01*
X8453944Y-14567221D01*
X8364209Y-14697225D01*
X8364208Y-14697226D01*
X8308190Y-14844931D01*
X8289150Y-15001749D01*
X8289150Y-15001750D01*
X7450499Y-15001750D01*
X7450499Y-14168482D01*
X7439960Y-14101938D01*
X7435646Y-14074696D01*
X7378050Y-13961658D01*
X7378046Y-13961654D01*
X7378045Y-13961652D01*
X7288347Y-13871954D01*
X7288344Y-13871952D01*
X7288342Y-13871950D01*
X7211517Y-13832805D01*
X7175301Y-13814352D01*
X7081524Y-13799500D01*
X7081519Y-13799500D01*
X6843429Y-13799500D01*
X6835330Y-13798969D01*
X6813733Y-13796126D01*
X6800001Y-13794318D01*
X6799999Y-13794318D01*
X6785076Y-13796282D01*
X6764668Y-13798969D01*
X6756570Y-13799500D01*
X6043431Y-13799500D01*
X6035336Y-13798969D01*
X6008702Y-13795463D01*
X6000001Y-13794318D01*
X6000000Y-13794318D01*
X5994152Y-13795087D01*
X5964661Y-13798969D01*
X5956562Y-13799500D01*
X5768481Y-13799500D01*
X5674637Y-13814363D01*
X5605344Y-13805407D01*
X5551892Y-13760410D01*
X5539299Y-13735859D01*
X5524648Y-13697228D01*
X5524648Y-13697227D01*
X5434911Y-13567220D01*
X5316668Y-13462467D01*
X5316666Y-13462466D01*
X5316665Y-13462465D01*
X5176793Y-13389053D01*
X5023414Y-13351250D01*
X5023413Y-13351250D01*
X4865443Y-13351250D01*
X4865442Y-13351250D01*
X4712062Y-13389053D01*
X4572190Y-13462465D01*
X4453944Y-13567221D01*
X4364209Y-13697225D01*
X4364208Y-13697226D01*
X4308190Y-13844931D01*
X4289150Y-14001749D01*
X4289150Y-14001750D01*
X4308190Y-14158568D01*
X4346930Y-14260715D01*
X4364208Y-14306273D01*
X4453945Y-14436280D01*
X4572188Y-14541033D01*
X4572190Y-14541034D01*
X4712062Y-14614446D01*
X4865442Y-14652250D01*
X4865443Y-14652250D01*
X5023413Y-14652250D01*
X5176793Y-14614446D01*
X5217873Y-14592884D01*
X5286382Y-14579159D01*
X5351435Y-14604651D01*
X5392380Y-14661266D01*
X5399500Y-14702681D01*
X5399501Y-15875500D01*
X5379816Y-15942539D01*
X5327013Y-15988294D01*
X5275501Y-15999500D01*
X2546503Y-15999500D01*
X2479464Y-15979815D01*
X2433709Y-15927011D01*
X2423765Y-15857853D01*
X2452790Y-15794297D01*
X2495427Y-15762508D01*
X2662965Y-15686776D01*
X2662967Y-15686775D01*
X2662967Y-15686774D01*
X2662971Y-15686773D01*
X2854000Y-15557659D01*
X3020462Y-15398119D01*
X3157566Y-15212742D01*
X3261370Y-15006860D01*
X3328886Y-14786397D01*
X3358172Y-14557694D01*
X3357555Y-14543181D01*
X3348386Y-14327337D01*
X3348386Y-14327332D01*
X3299810Y-14101938D01*
X3213841Y-13887994D01*
X3092951Y-13691657D01*
X2940620Y-13518575D01*
X2940619Y-13518574D01*
X2940615Y-13518570D01*
X2761234Y-13373730D01*
X2761233Y-13373729D01*
X2559938Y-13261279D01*
X2342541Y-13184468D01*
X2342540Y-13184467D01*
X2342538Y-13184467D01*
X2342534Y-13184466D01*
X2342533Y-13184466D01*
X2115293Y-13145500D01*
X2115285Y-13145500D01*
X1942465Y-13145500D01*
X1942460Y-13145500D01*
X1770265Y-13160155D01*
X1547131Y-13218254D01*
X1337034Y-13313223D01*
X1337032Y-13313224D01*
X1224840Y-13389054D01*
X1154968Y-13436280D01*
X1145999Y-13442342D01*
X979540Y-13601878D01*
X842434Y-13787257D01*
X813355Y-13844932D01*
X754504Y-13961657D01*
X736259Y-13997843D01*
X734663Y-13997038D01*
X696295Y-14045698D01*
X630238Y-14068463D01*
X562359Y-14051902D01*
X514210Y-14001272D01*
X500500Y-13944596D01*
X500500Y-13001750D01*
X7289150Y-13001750D01*
X7308190Y-13158568D01*
X7357765Y-13289284D01*
X7364208Y-13306273D01*
X7453945Y-13436280D01*
X7572188Y-13541033D01*
X7572190Y-13541034D01*
X7712062Y-13614446D01*
X7865442Y-13652250D01*
X7865443Y-13652250D01*
X8023413Y-13652250D01*
X8176793Y-13614446D01*
X8200739Y-13601878D01*
X8316668Y-13541033D01*
X8434911Y-13436280D01*
X8524648Y-13306273D01*
X8580665Y-13158568D01*
X8599706Y-13001750D01*
X8595461Y-12966784D01*
X8580665Y-12844931D01*
X8546377Y-12754523D01*
X8524648Y-12697227D01*
X8434911Y-12567220D01*
X8316668Y-12462467D01*
X8316666Y-12462466D01*
X8316665Y-12462465D01*
X8176793Y-12389053D01*
X8023414Y-12351250D01*
X8023413Y-12351250D01*
X7865443Y-12351250D01*
X7865442Y-12351250D01*
X7712062Y-12389053D01*
X7572190Y-12462465D01*
X7453944Y-12567221D01*
X7364209Y-12697225D01*
X7364208Y-12697226D01*
X7308190Y-12844931D01*
X7289150Y-13001749D01*
X7289150Y-13001750D01*
X500500Y-13001750D01*
X500500Y-12100000D01*
X11144722Y-12100000D01*
X11163762Y-12256818D01*
X11199576Y-12351250D01*
X11219780Y-12404523D01*
X11309517Y-12534530D01*
X11427760Y-12639283D01*
X11427762Y-12639284D01*
X11567634Y-12712696D01*
X11721014Y-12750500D01*
X11721015Y-12750500D01*
X11878985Y-12750500D01*
X12032365Y-12712696D01*
X12061842Y-12697225D01*
X12172240Y-12639283D01*
X12290483Y-12534530D01*
X12364360Y-12427500D01*
X24117222Y-12427500D01*
X24136262Y-12584318D01*
X24184950Y-12712696D01*
X24192280Y-12732023D01*
X24282017Y-12862030D01*
X24400260Y-12966783D01*
X24400262Y-12966784D01*
X24540134Y-13040196D01*
X24693514Y-13078000D01*
X24693515Y-13078000D01*
X24851485Y-13078000D01*
X25004865Y-13040196D01*
X25009628Y-13037696D01*
X25144740Y-12966783D01*
X25262983Y-12862030D01*
X25352720Y-12732023D01*
X25408737Y-12584318D01*
X25427778Y-12427500D01*
X27172222Y-12427500D01*
X27191262Y-12584318D01*
X27239950Y-12712696D01*
X27247280Y-12732023D01*
X27337017Y-12862030D01*
X27455260Y-12966783D01*
X27455262Y-12966784D01*
X27595134Y-13040196D01*
X27748514Y-13078000D01*
X27748515Y-13078000D01*
X27906485Y-13078000D01*
X28059865Y-13040196D01*
X28064628Y-13037696D01*
X28133117Y-13001750D01*
X35289150Y-13001750D01*
X35308190Y-13158568D01*
X35357765Y-13289284D01*
X35364208Y-13306273D01*
X35453945Y-13436280D01*
X35572188Y-13541033D01*
X35572190Y-13541034D01*
X35712062Y-13614446D01*
X35865442Y-13652250D01*
X35865443Y-13652250D01*
X36023413Y-13652250D01*
X36176793Y-13614446D01*
X36200739Y-13601878D01*
X36316668Y-13541033D01*
X36434911Y-13436280D01*
X36524648Y-13306273D01*
X36580665Y-13158568D01*
X36599706Y-13001750D01*
X39289150Y-13001750D01*
X39308190Y-13158568D01*
X39357765Y-13289284D01*
X39364208Y-13306273D01*
X39453945Y-13436280D01*
X39572188Y-13541033D01*
X39572190Y-13541034D01*
X39712062Y-13614446D01*
X39865442Y-13652250D01*
X39865443Y-13652250D01*
X40023413Y-13652250D01*
X40176793Y-13614446D01*
X40200739Y-13601878D01*
X40316668Y-13541033D01*
X40434911Y-13436280D01*
X40524648Y-13306273D01*
X40580665Y-13158568D01*
X40599706Y-13001750D01*
X70289150Y-13001750D01*
X70308190Y-13158568D01*
X70357765Y-13289284D01*
X70364208Y-13306273D01*
X70453945Y-13436280D01*
X70572188Y-13541033D01*
X70572190Y-13541034D01*
X70712062Y-13614446D01*
X70865442Y-13652250D01*
X70865443Y-13652250D01*
X71023413Y-13652250D01*
X71176793Y-13614446D01*
X71200739Y-13601878D01*
X71316668Y-13541033D01*
X71434911Y-13436280D01*
X71524648Y-13306273D01*
X71580665Y-13158568D01*
X71599706Y-13001750D01*
X71595461Y-12966784D01*
X71580665Y-12844931D01*
X71546377Y-12754523D01*
X71524648Y-12697227D01*
X71434911Y-12567220D01*
X71316668Y-12462467D01*
X71316666Y-12462466D01*
X71316665Y-12462465D01*
X71245283Y-12425000D01*
X74289150Y-12425000D01*
X74308190Y-12581818D01*
X74351959Y-12697225D01*
X74364208Y-12729523D01*
X74453945Y-12859530D01*
X74572188Y-12964283D01*
X74572190Y-12964284D01*
X74712062Y-13037696D01*
X74865442Y-13075500D01*
X74865443Y-13075500D01*
X75023413Y-13075500D01*
X75176793Y-13037696D01*
X75176792Y-13037696D01*
X75316668Y-12964283D01*
X75434911Y-12859530D01*
X75524648Y-12729523D01*
X75580665Y-12581818D01*
X75599706Y-12425000D01*
X77289150Y-12425000D01*
X77308190Y-12581818D01*
X77351959Y-12697225D01*
X77364208Y-12729523D01*
X77453945Y-12859530D01*
X77572188Y-12964283D01*
X77572190Y-12964284D01*
X77712062Y-13037696D01*
X77865442Y-13075500D01*
X77865443Y-13075500D01*
X78023413Y-13075500D01*
X78176793Y-13037696D01*
X78176792Y-13037696D01*
X78316668Y-12964283D01*
X78434911Y-12859530D01*
X78524648Y-12729523D01*
X78580665Y-12581818D01*
X78599706Y-12425000D01*
X80289150Y-12425000D01*
X80308190Y-12581818D01*
X80351959Y-12697225D01*
X80364208Y-12729523D01*
X80453945Y-12859530D01*
X80572188Y-12964283D01*
X80572190Y-12964284D01*
X80712062Y-13037696D01*
X80865442Y-13075500D01*
X80865443Y-13075500D01*
X81023413Y-13075500D01*
X81176793Y-13037696D01*
X81176792Y-13037696D01*
X81316668Y-12964283D01*
X81434911Y-12859530D01*
X81524648Y-12729523D01*
X81580665Y-12581818D01*
X81596670Y-12450000D01*
X83289150Y-12450000D01*
X83308190Y-12606818D01*
X83348345Y-12712696D01*
X83364208Y-12754523D01*
X83453945Y-12884530D01*
X83572188Y-12989283D01*
X83572190Y-12989284D01*
X83712062Y-13062696D01*
X83865442Y-13100500D01*
X83865443Y-13100500D01*
X84023413Y-13100500D01*
X84176793Y-13062696D01*
X84192365Y-13054523D01*
X84316668Y-12989283D01*
X84434911Y-12884530D01*
X84524648Y-12754523D01*
X84526363Y-12750000D01*
X88744722Y-12750000D01*
X88763762Y-12906818D01*
X88799766Y-13001750D01*
X88819780Y-13054523D01*
X88909517Y-13184530D01*
X89027760Y-13289283D01*
X89027762Y-13289284D01*
X89167634Y-13362696D01*
X89321014Y-13400500D01*
X89321015Y-13400500D01*
X89478985Y-13400500D01*
X89632365Y-13362696D01*
X89654173Y-13351250D01*
X89772240Y-13289283D01*
X89890483Y-13184530D01*
X89980220Y-13054523D01*
X90000234Y-13001750D01*
X91289150Y-13001750D01*
X91308190Y-13158568D01*
X91357765Y-13289284D01*
X91364208Y-13306273D01*
X91453945Y-13436280D01*
X91572188Y-13541033D01*
X91572190Y-13541034D01*
X91712062Y-13614446D01*
X91865442Y-13652250D01*
X91865443Y-13652250D01*
X92023413Y-13652250D01*
X92176793Y-13614446D01*
X92200739Y-13601878D01*
X92316668Y-13541033D01*
X92434911Y-13436280D01*
X92524648Y-13306273D01*
X92580665Y-13158568D01*
X92599706Y-13001750D01*
X92595461Y-12966784D01*
X92580665Y-12844931D01*
X92546377Y-12754523D01*
X92524648Y-12697227D01*
X92434911Y-12567220D01*
X92316668Y-12462467D01*
X92316666Y-12462466D01*
X92316665Y-12462465D01*
X92176793Y-12389053D01*
X92023414Y-12351250D01*
X92023413Y-12351250D01*
X91865443Y-12351250D01*
X91865442Y-12351250D01*
X91712062Y-12389053D01*
X91572190Y-12462465D01*
X91453944Y-12567221D01*
X91364209Y-12697225D01*
X91364208Y-12697226D01*
X91308190Y-12844931D01*
X91289150Y-13001749D01*
X91289150Y-13001750D01*
X90000234Y-13001750D01*
X90036237Y-12906818D01*
X90055278Y-12750000D01*
X90036237Y-12593182D01*
X90032875Y-12584318D01*
X89986663Y-12462467D01*
X89980220Y-12445477D01*
X89890483Y-12315470D01*
X89772240Y-12210717D01*
X89772238Y-12210716D01*
X89772237Y-12210715D01*
X89632365Y-12137303D01*
X89478986Y-12099500D01*
X89478985Y-12099500D01*
X89321015Y-12099500D01*
X89321014Y-12099500D01*
X89167634Y-12137303D01*
X89027762Y-12210715D01*
X88909516Y-12315471D01*
X88819781Y-12445475D01*
X88819780Y-12445476D01*
X88763762Y-12593181D01*
X88744722Y-12749999D01*
X88744722Y-12750000D01*
X84526363Y-12750000D01*
X84580665Y-12606818D01*
X84599706Y-12450000D01*
X84596671Y-12425000D01*
X84580665Y-12293181D01*
X84549389Y-12210715D01*
X84524648Y-12145477D01*
X84434911Y-12015470D01*
X84316668Y-11910717D01*
X84316666Y-11910716D01*
X84316665Y-11910715D01*
X84176793Y-11837303D01*
X84023414Y-11799500D01*
X84023413Y-11799500D01*
X83865443Y-11799500D01*
X83865442Y-11799500D01*
X83712062Y-11837303D01*
X83572190Y-11910715D01*
X83545308Y-11934530D01*
X83482165Y-11990470D01*
X83453944Y-12015471D01*
X83364209Y-12145475D01*
X83364208Y-12145476D01*
X83308190Y-12293181D01*
X83289150Y-12449999D01*
X83289150Y-12450000D01*
X81596670Y-12450000D01*
X81599706Y-12425000D01*
X81595342Y-12389054D01*
X81580665Y-12268181D01*
X81534129Y-12145477D01*
X81524648Y-12120477D01*
X81434911Y-11990470D01*
X81316668Y-11885717D01*
X81316666Y-11885716D01*
X81316665Y-11885715D01*
X81176793Y-11812303D01*
X81023414Y-11774500D01*
X81023413Y-11774500D01*
X80865443Y-11774500D01*
X80865442Y-11774500D01*
X80712062Y-11812303D01*
X80572190Y-11885715D01*
X80453944Y-11990471D01*
X80364209Y-12120475D01*
X80364208Y-12120476D01*
X80308190Y-12268181D01*
X80289150Y-12424999D01*
X80289150Y-12425000D01*
X78599706Y-12425000D01*
X78595342Y-12389054D01*
X78580665Y-12268181D01*
X78534129Y-12145477D01*
X78524648Y-12120477D01*
X78434911Y-11990470D01*
X78316668Y-11885717D01*
X78316666Y-11885716D01*
X78316665Y-11885715D01*
X78176793Y-11812303D01*
X78023414Y-11774500D01*
X78023413Y-11774500D01*
X77865443Y-11774500D01*
X77865442Y-11774500D01*
X77712062Y-11812303D01*
X77572190Y-11885715D01*
X77453944Y-11990471D01*
X77364209Y-12120475D01*
X77364208Y-12120476D01*
X77308190Y-12268181D01*
X77289150Y-12424999D01*
X77289150Y-12425000D01*
X75599706Y-12425000D01*
X75595342Y-12389054D01*
X75580665Y-12268181D01*
X75534129Y-12145477D01*
X75524648Y-12120477D01*
X75434911Y-11990470D01*
X75316668Y-11885717D01*
X75316666Y-11885716D01*
X75316665Y-11885715D01*
X75176793Y-11812303D01*
X75023414Y-11774500D01*
X75023413Y-11774500D01*
X74865443Y-11774500D01*
X74865442Y-11774500D01*
X74712062Y-11812303D01*
X74572190Y-11885715D01*
X74453944Y-11990471D01*
X74364209Y-12120475D01*
X74364208Y-12120476D01*
X74308190Y-12268181D01*
X74289150Y-12424999D01*
X74289150Y-12425000D01*
X71245283Y-12425000D01*
X71176793Y-12389053D01*
X71023414Y-12351250D01*
X71023413Y-12351250D01*
X70865443Y-12351250D01*
X70865442Y-12351250D01*
X70712062Y-12389053D01*
X70572190Y-12462465D01*
X70453944Y-12567221D01*
X70364209Y-12697225D01*
X70364208Y-12697226D01*
X70308190Y-12844931D01*
X70289150Y-13001749D01*
X70289150Y-13001750D01*
X40599706Y-13001750D01*
X40595461Y-12966784D01*
X40580665Y-12844931D01*
X40546377Y-12754523D01*
X40524648Y-12697227D01*
X40434911Y-12567220D01*
X40316668Y-12462467D01*
X40316666Y-12462466D01*
X40316665Y-12462465D01*
X40176793Y-12389053D01*
X40023414Y-12351250D01*
X40023413Y-12351250D01*
X39865443Y-12351250D01*
X39865442Y-12351250D01*
X39712062Y-12389053D01*
X39572190Y-12462465D01*
X39453944Y-12567221D01*
X39364209Y-12697225D01*
X39364208Y-12697226D01*
X39308190Y-12844931D01*
X39289150Y-13001749D01*
X39289150Y-13001750D01*
X36599706Y-13001750D01*
X36595461Y-12966784D01*
X36580665Y-12844931D01*
X36546377Y-12754523D01*
X36524648Y-12697227D01*
X36434911Y-12567220D01*
X36316668Y-12462467D01*
X36316666Y-12462466D01*
X36316665Y-12462465D01*
X36176793Y-12389053D01*
X36023414Y-12351250D01*
X36023413Y-12351250D01*
X35865443Y-12351250D01*
X35865442Y-12351250D01*
X35712062Y-12389053D01*
X35572190Y-12462465D01*
X35453944Y-12567221D01*
X35364209Y-12697225D01*
X35364208Y-12697226D01*
X35308190Y-12844931D01*
X35289150Y-13001749D01*
X35289150Y-13001750D01*
X28133117Y-13001750D01*
X28199740Y-12966783D01*
X28317983Y-12862030D01*
X28407720Y-12732023D01*
X28463737Y-12584318D01*
X28482778Y-12427500D01*
X28482475Y-12425000D01*
X28463737Y-12270681D01*
X28416253Y-12145477D01*
X28407720Y-12122977D01*
X28317983Y-11992970D01*
X28199740Y-11888217D01*
X28199738Y-11888216D01*
X28199737Y-11888215D01*
X28059865Y-11814803D01*
X27906486Y-11777000D01*
X27906485Y-11777000D01*
X27748515Y-11777000D01*
X27748514Y-11777000D01*
X27595134Y-11814803D01*
X27455262Y-11888215D01*
X27337016Y-11992971D01*
X27247281Y-12122975D01*
X27247280Y-12122976D01*
X27191262Y-12270681D01*
X27172222Y-12427499D01*
X27172222Y-12427500D01*
X25427778Y-12427500D01*
X25427475Y-12425000D01*
X25408737Y-12270681D01*
X25361253Y-12145477D01*
X25352720Y-12122977D01*
X25262983Y-11992970D01*
X25144740Y-11888217D01*
X25144738Y-11888216D01*
X25144737Y-11888215D01*
X25004865Y-11814803D01*
X24851486Y-11777000D01*
X24851485Y-11777000D01*
X24693515Y-11777000D01*
X24693514Y-11777000D01*
X24540134Y-11814803D01*
X24400262Y-11888215D01*
X24282016Y-11992971D01*
X24192281Y-12122975D01*
X24192280Y-12122976D01*
X24136262Y-12270681D01*
X24117222Y-12427499D01*
X24117222Y-12427500D01*
X12364360Y-12427500D01*
X12380220Y-12404523D01*
X12436237Y-12256818D01*
X12455278Y-12100000D01*
X12445015Y-12015471D01*
X12436237Y-11943181D01*
X12408228Y-11869329D01*
X12380220Y-11795477D01*
X12328423Y-11720436D01*
X12321684Y-11700000D01*
X13144722Y-11700000D01*
X13163762Y-11856818D01*
X13215399Y-11992971D01*
X13219780Y-12004523D01*
X13309517Y-12134530D01*
X13427760Y-12239283D01*
X13427762Y-12239284D01*
X13567634Y-12312696D01*
X13721014Y-12350500D01*
X13721015Y-12350500D01*
X13878985Y-12350500D01*
X14032365Y-12312696D01*
X14069547Y-12293181D01*
X14172240Y-12239283D01*
X14290483Y-12134530D01*
X14380220Y-12004523D01*
X14436237Y-11856818D01*
X14455278Y-11700000D01*
X15944722Y-11700000D01*
X15963762Y-11856818D01*
X16015399Y-11992971D01*
X16019780Y-12004523D01*
X16109517Y-12134530D01*
X16227760Y-12239283D01*
X16227762Y-12239284D01*
X16367634Y-12312696D01*
X16521014Y-12350500D01*
X16521015Y-12350500D01*
X16678985Y-12350500D01*
X16832365Y-12312696D01*
X16869547Y-12293181D01*
X16972240Y-12239283D01*
X17090483Y-12134530D01*
X17180220Y-12004523D01*
X17236237Y-11856818D01*
X17255278Y-11700000D01*
X17236237Y-11543182D01*
X17235422Y-11541034D01*
X17214992Y-11487164D01*
X17180220Y-11395477D01*
X17090483Y-11265470D01*
X16972240Y-11160717D01*
X16972238Y-11160716D01*
X16972237Y-11160715D01*
X16832365Y-11087303D01*
X16678986Y-11049500D01*
X16678985Y-11049500D01*
X16521015Y-11049500D01*
X16521014Y-11049500D01*
X16367634Y-11087303D01*
X16227762Y-11160715D01*
X16109516Y-11265471D01*
X16019781Y-11395475D01*
X16019780Y-11395476D01*
X15963762Y-11543181D01*
X15944722Y-11699999D01*
X15944722Y-11700000D01*
X14455278Y-11700000D01*
X14436237Y-11543182D01*
X14435422Y-11541034D01*
X14414992Y-11487164D01*
X14380220Y-11395477D01*
X14290483Y-11265470D01*
X14172240Y-11160717D01*
X14172238Y-11160716D01*
X14172237Y-11160715D01*
X14032365Y-11087303D01*
X13878986Y-11049500D01*
X13878985Y-11049500D01*
X13721015Y-11049500D01*
X13721014Y-11049500D01*
X13567634Y-11087303D01*
X13427762Y-11160715D01*
X13309516Y-11265471D01*
X13219781Y-11395475D01*
X13219780Y-11395476D01*
X13163762Y-11543181D01*
X13144722Y-11699999D01*
X13144722Y-11700000D01*
X12321684Y-11700000D01*
X12306542Y-11654086D01*
X12324007Y-11586435D01*
X12328403Y-11579592D01*
X12380220Y-11504523D01*
X12436237Y-11356818D01*
X12455278Y-11200000D01*
X12439273Y-11068181D01*
X12436237Y-11043181D01*
X12420524Y-11001750D01*
X19289150Y-11001750D01*
X19308190Y-11158568D01*
X19333385Y-11225000D01*
X19364208Y-11306273D01*
X19453945Y-11436280D01*
X19572188Y-11541033D01*
X19572190Y-11541034D01*
X19712062Y-11614446D01*
X19865442Y-11652250D01*
X19865443Y-11652250D01*
X20023413Y-11652250D01*
X20176793Y-11614446D01*
X20176793Y-11614445D01*
X20316668Y-11541033D01*
X20434911Y-11436280D01*
X20524648Y-11306273D01*
X20580665Y-11158568D01*
X20587776Y-11100000D01*
X30544722Y-11100000D01*
X30563762Y-11256818D01*
X30616349Y-11395476D01*
X30619780Y-11404523D01*
X30709517Y-11534530D01*
X30827760Y-11639283D01*
X30827762Y-11639284D01*
X30967634Y-11712696D01*
X31121014Y-11750500D01*
X31121015Y-11750500D01*
X31278985Y-11750500D01*
X31432365Y-11712696D01*
X31522345Y-11665470D01*
X31572240Y-11639283D01*
X31690483Y-11534530D01*
X31780220Y-11404523D01*
X31836237Y-11256818D01*
X31855278Y-11100000D01*
X31853737Y-11087304D01*
X31836237Y-10943181D01*
X31800708Y-10849500D01*
X31780220Y-10795477D01*
X31690483Y-10665470D01*
X31572240Y-10560717D01*
X31572238Y-10560716D01*
X31572237Y-10560715D01*
X31432365Y-10487303D01*
X31278986Y-10449500D01*
X31278985Y-10449500D01*
X31121015Y-10449500D01*
X31121014Y-10449500D01*
X30967634Y-10487303D01*
X30827762Y-10560715D01*
X30779528Y-10603446D01*
X30724440Y-10652250D01*
X30709516Y-10665471D01*
X30619781Y-10795475D01*
X30619780Y-10795476D01*
X30563762Y-10943181D01*
X30544722Y-11099999D01*
X30544722Y-11100000D01*
X20587776Y-11100000D01*
X20599706Y-11001750D01*
X20594724Y-10960715D01*
X20580665Y-10844931D01*
X20546319Y-10754369D01*
X20524648Y-10697227D01*
X20434911Y-10567220D01*
X20316668Y-10462467D01*
X20316666Y-10462466D01*
X20316665Y-10462465D01*
X20176793Y-10389053D01*
X20023414Y-10351250D01*
X20023413Y-10351250D01*
X19865443Y-10351250D01*
X19865442Y-10351250D01*
X19712062Y-10389053D01*
X19572190Y-10462465D01*
X19493359Y-10532302D01*
X19461286Y-10560717D01*
X19453944Y-10567221D01*
X19364209Y-10697225D01*
X19364208Y-10697226D01*
X19308190Y-10844931D01*
X19289150Y-11001749D01*
X19289150Y-11001750D01*
X12420524Y-11001750D01*
X12398312Y-10943182D01*
X12380220Y-10895477D01*
X12290483Y-10765470D01*
X12172240Y-10660717D01*
X12172238Y-10660716D01*
X12172237Y-10660715D01*
X12032365Y-10587303D01*
X11878986Y-10549500D01*
X11878985Y-10549500D01*
X11721015Y-10549500D01*
X11721014Y-10549500D01*
X11567634Y-10587303D01*
X11427762Y-10660715D01*
X11309516Y-10765471D01*
X11219781Y-10895475D01*
X11219780Y-10895476D01*
X11163762Y-11043181D01*
X11144722Y-11199999D01*
X11144722Y-11200000D01*
X11163762Y-11356818D01*
X11219780Y-11504523D01*
X11271574Y-11579561D01*
X11293456Y-11645916D01*
X11275990Y-11713567D01*
X11271574Y-11720439D01*
X11219780Y-11795476D01*
X11163762Y-11943181D01*
X11144722Y-12099999D01*
X11144722Y-12100000D01*
X500500Y-12100000D01*
X500500Y-11001750D01*
X3289150Y-11001750D01*
X3308190Y-11158568D01*
X3333385Y-11225000D01*
X3364208Y-11306273D01*
X3453945Y-11436280D01*
X3572188Y-11541033D01*
X3572190Y-11541034D01*
X3712062Y-11614446D01*
X3865442Y-11652250D01*
X3865443Y-11652250D01*
X4023413Y-11652250D01*
X4176793Y-11614446D01*
X4176792Y-11614446D01*
X4316668Y-11541033D01*
X4434911Y-11436280D01*
X4524648Y-11306273D01*
X4580665Y-11158568D01*
X4599706Y-11001750D01*
X4594724Y-10960715D01*
X4580665Y-10844931D01*
X4546319Y-10754369D01*
X4524648Y-10697227D01*
X4434911Y-10567220D01*
X4316668Y-10462467D01*
X4316666Y-10462466D01*
X4316665Y-10462465D01*
X4176793Y-10389053D01*
X4023414Y-10351250D01*
X4023413Y-10351250D01*
X3865443Y-10351250D01*
X3865442Y-10351250D01*
X3712062Y-10389053D01*
X3572190Y-10462465D01*
X3493359Y-10532302D01*
X3461286Y-10560717D01*
X3453944Y-10567221D01*
X3364209Y-10697225D01*
X3364208Y-10697226D01*
X3308190Y-10844931D01*
X3289150Y-11001749D01*
X3289150Y-11001750D01*
X500500Y-11001750D01*
X500500Y-10001750D01*
X1289150Y-10001750D01*
X1308190Y-10158568D01*
X1364208Y-10306272D01*
X1364208Y-10306273D01*
X1453945Y-10436280D01*
X1572188Y-10541033D01*
X1572190Y-10541034D01*
X1712062Y-10614446D01*
X1865442Y-10652250D01*
X1865443Y-10652250D01*
X2023413Y-10652250D01*
X2176793Y-10614446D01*
X2228509Y-10587303D01*
X2316668Y-10541033D01*
X2434911Y-10436280D01*
X2524648Y-10306273D01*
X2580665Y-10158568D01*
X2599706Y-10001750D01*
X2593719Y-9952438D01*
X2580665Y-9844931D01*
X2540598Y-9739284D01*
X2524648Y-9697227D01*
X2434911Y-9567220D01*
X2316668Y-9462467D01*
X2316666Y-9462466D01*
X2316665Y-9462465D01*
X2176793Y-9389053D01*
X2119775Y-9375000D01*
X4344722Y-9375000D01*
X4363762Y-9531818D01*
X4402716Y-9634530D01*
X4419780Y-9679523D01*
X4509517Y-9809530D01*
X4627760Y-9914283D01*
X4627762Y-9914284D01*
X4767634Y-9987696D01*
X4921014Y-10025500D01*
X4921015Y-10025500D01*
X5078985Y-10025500D01*
X5175345Y-10001750D01*
X7289150Y-10001750D01*
X7308190Y-10158568D01*
X7364208Y-10306272D01*
X7364208Y-10306273D01*
X7453945Y-10436280D01*
X7572188Y-10541033D01*
X7572190Y-10541034D01*
X7712062Y-10614446D01*
X7865442Y-10652250D01*
X7865443Y-10652250D01*
X8023413Y-10652250D01*
X8176793Y-10614446D01*
X8228509Y-10587303D01*
X8316668Y-10541033D01*
X8434911Y-10436280D01*
X8524648Y-10306273D01*
X8580665Y-10158568D01*
X8599706Y-10001750D01*
X8593719Y-9952438D01*
X8580665Y-9844931D01*
X8540598Y-9739284D01*
X8524648Y-9697227D01*
X8434911Y-9567220D01*
X8316668Y-9462467D01*
X8316666Y-9462466D01*
X8316665Y-9462465D01*
X8176793Y-9389053D01*
X8119775Y-9375000D01*
X12344722Y-9375000D01*
X12363762Y-9531818D01*
X12402716Y-9634530D01*
X12419780Y-9679523D01*
X12509517Y-9809530D01*
X12627760Y-9914283D01*
X12627762Y-9914284D01*
X12767634Y-9987696D01*
X12921014Y-10025500D01*
X12921015Y-10025500D01*
X13078985Y-10025500D01*
X13232365Y-9987696D01*
X13232364Y-9987696D01*
X13372240Y-9914283D01*
X13388362Y-9900000D01*
X21594722Y-9900000D01*
X21613762Y-10056818D01*
X21669780Y-10204522D01*
X21669780Y-10204523D01*
X21759517Y-10334530D01*
X21877760Y-10439283D01*
X21877762Y-10439284D01*
X22017634Y-10512696D01*
X22171014Y-10550500D01*
X22171015Y-10550500D01*
X22328985Y-10550500D01*
X22482365Y-10512696D01*
X22482364Y-10512696D01*
X22622240Y-10439283D01*
X22666582Y-10400000D01*
X32744722Y-10400000D01*
X32763762Y-10556818D01*
X32812647Y-10685715D01*
X32819780Y-10704523D01*
X32909517Y-10834530D01*
X33027760Y-10939283D01*
X33027762Y-10939284D01*
X33167634Y-11012696D01*
X33321014Y-11050500D01*
X33321015Y-11050500D01*
X33478985Y-11050500D01*
X33632365Y-11012696D01*
X33632364Y-11012696D01*
X33653220Y-11001750D01*
X37289150Y-11001750D01*
X37308190Y-11158568D01*
X37333385Y-11225000D01*
X37364208Y-11306273D01*
X37453945Y-11436280D01*
X37572188Y-11541033D01*
X37572190Y-11541034D01*
X37712062Y-11614446D01*
X37865442Y-11652250D01*
X37865443Y-11652250D01*
X38023413Y-11652250D01*
X38176793Y-11614446D01*
X38176792Y-11614445D01*
X38316668Y-11541033D01*
X38362985Y-11500000D01*
X44244722Y-11500000D01*
X44263762Y-11656818D01*
X44304519Y-11764283D01*
X44319780Y-11804523D01*
X44409517Y-11934530D01*
X44527760Y-12039283D01*
X44527762Y-12039284D01*
X44667634Y-12112696D01*
X44821014Y-12150500D01*
X44821015Y-12150500D01*
X44978985Y-12150500D01*
X45132365Y-12112696D01*
X45156557Y-12099999D01*
X45272240Y-12039283D01*
X45390483Y-11934530D01*
X45480220Y-11804523D01*
X45536237Y-11656818D01*
X45555278Y-11500000D01*
X47044722Y-11500000D01*
X47063762Y-11656818D01*
X47104519Y-11764283D01*
X47119780Y-11804523D01*
X47209517Y-11934530D01*
X47327760Y-12039283D01*
X47327762Y-12039284D01*
X47467634Y-12112696D01*
X47621014Y-12150500D01*
X47621015Y-12150500D01*
X47778985Y-12150500D01*
X47932365Y-12112696D01*
X47956557Y-12099999D01*
X48072240Y-12039283D01*
X48190483Y-11934530D01*
X48280220Y-11804523D01*
X48336237Y-11656818D01*
X48355278Y-11500000D01*
X48342587Y-11395475D01*
X48336237Y-11343181D01*
X48306765Y-11265470D01*
X48280220Y-11195477D01*
X48190483Y-11065470D01*
X48118557Y-11001750D01*
X50289150Y-11001750D01*
X50308190Y-11158568D01*
X50333385Y-11225000D01*
X50364208Y-11306273D01*
X50453945Y-11436280D01*
X50572188Y-11541033D01*
X50572190Y-11541034D01*
X50712062Y-11614446D01*
X50865442Y-11652250D01*
X50865443Y-11652250D01*
X51023413Y-11652250D01*
X51176793Y-11614446D01*
X51176792Y-11614445D01*
X51316668Y-11541033D01*
X51434911Y-11436280D01*
X51524648Y-11306273D01*
X51555471Y-11225000D01*
X53069722Y-11225000D01*
X53088762Y-11381818D01*
X53133583Y-11499999D01*
X53144780Y-11529523D01*
X53234517Y-11659530D01*
X53352760Y-11764283D01*
X53352762Y-11764284D01*
X53492634Y-11837696D01*
X53646014Y-11875500D01*
X53646015Y-11875500D01*
X53803985Y-11875500D01*
X53957365Y-11837696D01*
X53958114Y-11837303D01*
X54097240Y-11764283D01*
X54215483Y-11659530D01*
X54305220Y-11529523D01*
X54361237Y-11381818D01*
X54380278Y-11225000D01*
X54377243Y-11200000D01*
X54361237Y-11068181D01*
X54320480Y-10960715D01*
X54305220Y-10920477D01*
X54215483Y-10790470D01*
X54097240Y-10685717D01*
X54097238Y-10685716D01*
X54097237Y-10685715D01*
X53957365Y-10612303D01*
X53803986Y-10574500D01*
X53803985Y-10574500D01*
X53646015Y-10574500D01*
X53646014Y-10574500D01*
X53492634Y-10612303D01*
X53352762Y-10685715D01*
X53344471Y-10693060D01*
X53262737Y-10765470D01*
X53234516Y-10790471D01*
X53144781Y-10920475D01*
X53144780Y-10920476D01*
X53088762Y-11068181D01*
X53069722Y-11224999D01*
X53069722Y-11225000D01*
X51555471Y-11225000D01*
X51580665Y-11158568D01*
X51599706Y-11001750D01*
X51594724Y-10960715D01*
X51580665Y-10844931D01*
X51546319Y-10754369D01*
X51524648Y-10697227D01*
X51434911Y-10567220D01*
X51316668Y-10462467D01*
X51316666Y-10462466D01*
X51316665Y-10462465D01*
X51176793Y-10389053D01*
X51023414Y-10351250D01*
X51023413Y-10351250D01*
X50865443Y-10351250D01*
X50865442Y-10351250D01*
X50712062Y-10389053D01*
X50572190Y-10462465D01*
X50493359Y-10532302D01*
X50461286Y-10560717D01*
X50453944Y-10567221D01*
X50364209Y-10697225D01*
X50364208Y-10697226D01*
X50308190Y-10844931D01*
X50289150Y-11001749D01*
X50289150Y-11001750D01*
X48118557Y-11001750D01*
X48072240Y-10960717D01*
X48072238Y-10960716D01*
X48072237Y-10960715D01*
X47932365Y-10887303D01*
X47778986Y-10849500D01*
X47778985Y-10849500D01*
X47621015Y-10849500D01*
X47621014Y-10849500D01*
X47467634Y-10887303D01*
X47327762Y-10960715D01*
X47209516Y-11065471D01*
X47119781Y-11195475D01*
X47119780Y-11195476D01*
X47063762Y-11343181D01*
X47044722Y-11499999D01*
X47044722Y-11500000D01*
X45555278Y-11500000D01*
X45542587Y-11395475D01*
X45536237Y-11343181D01*
X45506765Y-11265470D01*
X45480220Y-11195477D01*
X45390483Y-11065470D01*
X45272240Y-10960717D01*
X45272238Y-10960716D01*
X45272237Y-10960715D01*
X45132365Y-10887303D01*
X44978986Y-10849500D01*
X44978985Y-10849500D01*
X44821015Y-10849500D01*
X44821014Y-10849500D01*
X44667634Y-10887303D01*
X44527762Y-10960715D01*
X44409516Y-11065471D01*
X44319781Y-11195475D01*
X44319780Y-11195476D01*
X44263762Y-11343181D01*
X44244722Y-11499999D01*
X44244722Y-11500000D01*
X38362985Y-11500000D01*
X38434911Y-11436280D01*
X38524648Y-11306273D01*
X38580665Y-11158568D01*
X38599706Y-11001750D01*
X38594724Y-10960715D01*
X38580665Y-10844931D01*
X38546319Y-10754369D01*
X38524648Y-10697227D01*
X38434911Y-10567220D01*
X38316668Y-10462467D01*
X38316666Y-10462466D01*
X38316665Y-10462465D01*
X38176793Y-10389053D01*
X38023414Y-10351250D01*
X38023413Y-10351250D01*
X37865443Y-10351250D01*
X37865442Y-10351250D01*
X37712062Y-10389053D01*
X37572190Y-10462465D01*
X37493359Y-10532302D01*
X37461286Y-10560717D01*
X37453944Y-10567221D01*
X37364209Y-10697225D01*
X37364208Y-10697226D01*
X37308190Y-10844931D01*
X37289150Y-11001749D01*
X37289150Y-11001750D01*
X33653220Y-11001750D01*
X33772240Y-10939283D01*
X33890483Y-10834530D01*
X33980220Y-10704523D01*
X34036237Y-10556818D01*
X34055278Y-10400000D01*
X34036237Y-10243182D01*
X34034290Y-10238049D01*
X33999600Y-10146579D01*
X33980220Y-10095477D01*
X33890483Y-9965470D01*
X33772240Y-9860717D01*
X33772238Y-9860716D01*
X33772237Y-9860715D01*
X33632365Y-9787303D01*
X33478986Y-9749500D01*
X33478985Y-9749500D01*
X33321015Y-9749500D01*
X33321014Y-9749500D01*
X33167634Y-9787303D01*
X33027762Y-9860715D01*
X32909516Y-9965471D01*
X32819781Y-10095475D01*
X32819780Y-10095476D01*
X32763762Y-10243181D01*
X32744722Y-10399999D01*
X32744722Y-10400000D01*
X22666582Y-10400000D01*
X22740483Y-10334530D01*
X22830220Y-10204523D01*
X22886237Y-10056818D01*
X22905278Y-9900000D01*
X22898592Y-9844931D01*
X22886237Y-9743181D01*
X22851751Y-9652250D01*
X22830220Y-9595477D01*
X22740483Y-9465470D01*
X22622240Y-9360717D01*
X22622238Y-9360716D01*
X22622237Y-9360715D01*
X22482365Y-9287303D01*
X22328986Y-9249500D01*
X22328985Y-9249500D01*
X22171015Y-9249500D01*
X22171014Y-9249500D01*
X22017634Y-9287303D01*
X21877762Y-9360715D01*
X21759516Y-9465471D01*
X21669781Y-9595475D01*
X21669780Y-9595476D01*
X21613762Y-9743181D01*
X21594722Y-9899999D01*
X21594722Y-9900000D01*
X13388362Y-9900000D01*
X13490483Y-9809530D01*
X13580220Y-9679523D01*
X13636237Y-9531818D01*
X13655278Y-9375000D01*
X13636237Y-9218182D01*
X13634156Y-9212696D01*
X13606315Y-9139284D01*
X13580220Y-9070477D01*
X13490483Y-8940470D01*
X13372240Y-8835717D01*
X13372238Y-8835716D01*
X13372237Y-8835715D01*
X13232365Y-8762303D01*
X13078986Y-8724500D01*
X13078985Y-8724500D01*
X12921015Y-8724500D01*
X12921014Y-8724500D01*
X12767634Y-8762303D01*
X12627762Y-8835715D01*
X12509516Y-8940471D01*
X12419781Y-9070475D01*
X12419780Y-9070476D01*
X12363762Y-9218181D01*
X12344722Y-9374999D01*
X12344722Y-9375000D01*
X8119775Y-9375000D01*
X8023414Y-9351250D01*
X8023413Y-9351250D01*
X7865443Y-9351250D01*
X7865442Y-9351250D01*
X7712062Y-9389053D01*
X7572190Y-9462465D01*
X7453944Y-9567221D01*
X7364209Y-9697225D01*
X7364208Y-9697226D01*
X7308190Y-9844931D01*
X7289150Y-10001749D01*
X7289150Y-10001750D01*
X5175345Y-10001750D01*
X5232365Y-9987696D01*
X5372240Y-9914283D01*
X5490483Y-9809530D01*
X5580220Y-9679523D01*
X5636237Y-9531818D01*
X5655278Y-9375000D01*
X5636237Y-9218182D01*
X5634156Y-9212696D01*
X5606315Y-9139284D01*
X5580220Y-9070477D01*
X5490483Y-8940470D01*
X5372240Y-8835717D01*
X5372238Y-8835716D01*
X5372237Y-8835715D01*
X5232365Y-8762303D01*
X5078986Y-8724500D01*
X5078985Y-8724500D01*
X4921015Y-8724500D01*
X4921014Y-8724500D01*
X4767634Y-8762303D01*
X4627762Y-8835715D01*
X4509516Y-8940471D01*
X4419781Y-9070475D01*
X4419780Y-9070476D01*
X4363762Y-9218181D01*
X4344722Y-9374999D01*
X4344722Y-9375000D01*
X2119775Y-9375000D01*
X2023414Y-9351250D01*
X2023413Y-9351250D01*
X1865443Y-9351250D01*
X1865442Y-9351250D01*
X1712062Y-9389053D01*
X1572190Y-9462465D01*
X1453944Y-9567221D01*
X1364209Y-9697225D01*
X1364208Y-9697226D01*
X1308190Y-9844931D01*
X1289150Y-10001749D01*
X1289150Y-10001750D01*
X500500Y-10001750D01*
X500500Y-7376116D01*
X3827500Y-7376116D01*
X3842486Y-7513911D01*
X3901557Y-7689223D01*
X3901558Y-7689225D01*
X3936389Y-7747115D01*
X3994654Y-7843954D01*
X3996931Y-7847737D01*
X3996932Y-7847738D01*
X4124149Y-7982040D01*
X4157298Y-8004515D01*
X4277270Y-8085858D01*
X4277273Y-8085859D01*
X4277276Y-8085861D01*
X4418899Y-8142288D01*
X4449125Y-8154331D01*
X4631683Y-8184260D01*
X4816407Y-8174245D01*
X4816411Y-8174244D01*
X4994656Y-8124755D01*
X4994656Y-8124754D01*
X4994659Y-8124754D01*
X5158104Y-8038100D01*
X5299100Y-7918337D01*
X5411054Y-7771064D01*
X5488732Y-7603167D01*
X5528500Y-7422497D01*
X5528500Y-6787223D01*
X5548185Y-6720185D01*
X5600989Y-6674430D01*
X5670147Y-6664486D01*
X5727983Y-6688846D01*
X5815750Y-6756192D01*
X5956720Y-6814584D01*
X6013370Y-6822042D01*
X6070019Y-6829500D01*
X6070020Y-6829500D01*
X6145981Y-6829500D01*
X6183746Y-6824528D01*
X6259280Y-6814584D01*
X6400250Y-6756192D01*
X6521304Y-6663304D01*
X6614192Y-6542250D01*
X6672584Y-6401280D01*
X6692500Y-6250001D01*
X11303500Y-6250001D01*
X11323415Y-6401278D01*
X11323416Y-6401280D01*
X11381806Y-6542247D01*
X11381807Y-6542249D01*
X11381808Y-6542250D01*
X11474696Y-6663304D01*
X11595750Y-6756192D01*
X11736720Y-6814584D01*
X11793370Y-6822042D01*
X11850019Y-6829500D01*
X11850020Y-6829500D01*
X11925981Y-6829500D01*
X11963746Y-6824528D01*
X12039280Y-6814584D01*
X12180250Y-6756192D01*
X12268014Y-6688848D01*
X12333181Y-6663654D01*
X12401626Y-6677692D01*
X12451616Y-6726505D01*
X12467499Y-6787224D01*
X12467499Y-7376106D01*
X12467500Y-7376116D01*
X12482486Y-7513911D01*
X12541557Y-7689223D01*
X12541558Y-7689225D01*
X12576389Y-7747115D01*
X12634654Y-7843954D01*
X12636931Y-7847737D01*
X12636932Y-7847738D01*
X12764149Y-7982040D01*
X12797298Y-8004515D01*
X12917270Y-8085858D01*
X12917273Y-8085859D01*
X12917276Y-8085861D01*
X13058899Y-8142288D01*
X13089125Y-8154331D01*
X13271683Y-8184260D01*
X13456407Y-8174245D01*
X13502868Y-8161345D01*
X13572730Y-8162377D01*
X13630944Y-8201015D01*
X13648853Y-8230482D01*
X13649181Y-8230327D01*
X13650485Y-8233085D01*
X13678708Y-8285889D01*
X13678716Y-8285902D01*
X13705508Y-8325999D01*
X13738716Y-8366462D01*
X13743505Y-8372298D01*
X13777700Y-8406493D01*
X13822405Y-8443182D01*
X13824003Y-8444493D01*
X13824010Y-8444497D01*
X13824016Y-8444502D01*
X13864086Y-8471276D01*
X13864095Y-8471281D01*
X13864098Y-8471283D01*
X13916911Y-8499512D01*
X13916917Y-8499515D01*
X13936551Y-8507647D01*
X13961607Y-8518026D01*
X14018916Y-8535411D01*
X14085773Y-8548710D01*
X14085776Y-8548710D01*
X14085779Y-8548711D01*
X14085780Y-8548711D01*
X14100608Y-8550910D01*
X14100606Y-8550910D01*
X14139725Y-8554764D01*
X14139724Y-8554764D01*
X14145345Y-8555040D01*
X14154710Y-8555500D01*
X14154715Y-8555500D01*
X17627672Y-8555500D01*
X17694711Y-8575185D01*
X17740466Y-8627989D01*
X17743614Y-8635529D01*
X17769780Y-8704523D01*
X17859517Y-8834530D01*
X17977760Y-8939283D01*
X17977762Y-8939284D01*
X18117634Y-9012696D01*
X18271014Y-9050500D01*
X18271015Y-9050500D01*
X18428985Y-9050500D01*
X18582365Y-9012696D01*
X18582364Y-9012696D01*
X18603220Y-9001750D01*
X26289150Y-9001750D01*
X26308190Y-9158568D01*
X26342677Y-9249500D01*
X26364208Y-9306273D01*
X26453945Y-9436280D01*
X26572188Y-9541033D01*
X26572190Y-9541034D01*
X26712062Y-9614446D01*
X26865442Y-9652250D01*
X26865443Y-9652250D01*
X27023413Y-9652250D01*
X27176793Y-9614446D01*
X27212937Y-9595476D01*
X27316668Y-9541033D01*
X27434911Y-9436280D01*
X27524648Y-9306273D01*
X27580665Y-9158568D01*
X27599706Y-9001750D01*
X35289150Y-9001750D01*
X35308190Y-9158568D01*
X35342677Y-9249500D01*
X35364208Y-9306273D01*
X35453945Y-9436280D01*
X35572188Y-9541033D01*
X35572190Y-9541034D01*
X35712062Y-9614446D01*
X35865442Y-9652250D01*
X35865443Y-9652250D01*
X36023413Y-9652250D01*
X36176793Y-9614446D01*
X36212937Y-9595476D01*
X36316668Y-9541033D01*
X36434911Y-9436280D01*
X36524648Y-9306273D01*
X36564952Y-9200000D01*
X39194722Y-9200000D01*
X39213762Y-9356818D01*
X39269780Y-9504522D01*
X39269780Y-9504523D01*
X39359517Y-9634530D01*
X39477760Y-9739283D01*
X39477762Y-9739284D01*
X39617634Y-9812696D01*
X39771014Y-9850500D01*
X39771015Y-9850500D01*
X39928985Y-9850500D01*
X40082365Y-9812696D01*
X40105139Y-9800743D01*
X62161500Y-9800743D01*
X62176925Y-9952439D01*
X62237837Y-10146579D01*
X62237844Y-10146594D01*
X62336589Y-10324499D01*
X62336592Y-10324504D01*
X62469132Y-10478893D01*
X62469134Y-10478895D01*
X62630037Y-10603445D01*
X62630038Y-10603445D01*
X62630042Y-10603448D01*
X62812729Y-10693060D01*
X63009715Y-10744063D01*
X63212936Y-10754369D01*
X63414071Y-10723556D01*
X63604887Y-10652886D01*
X63777571Y-10545252D01*
X63925053Y-10405059D01*
X64041295Y-10238049D01*
X64121540Y-10051058D01*
X64162500Y-9851741D01*
X64162500Y-9800743D01*
X74961500Y-9800743D01*
X74976925Y-9952439D01*
X75037837Y-10146579D01*
X75037844Y-10146594D01*
X75136589Y-10324499D01*
X75136592Y-10324504D01*
X75269132Y-10478893D01*
X75269134Y-10478895D01*
X75430037Y-10603445D01*
X75430038Y-10603445D01*
X75430042Y-10603448D01*
X75612729Y-10693060D01*
X75809715Y-10744063D01*
X76012936Y-10754369D01*
X76214071Y-10723556D01*
X76404887Y-10652886D01*
X76577571Y-10545252D01*
X76725053Y-10405059D01*
X76841295Y-10238049D01*
X76921540Y-10051058D01*
X76962500Y-9851741D01*
X76962500Y-9800743D01*
X83391500Y-9800743D01*
X83406925Y-9952439D01*
X83467837Y-10146579D01*
X83467844Y-10146594D01*
X83566589Y-10324499D01*
X83566592Y-10324504D01*
X83699132Y-10478893D01*
X83699134Y-10478895D01*
X83860037Y-10603445D01*
X83860038Y-10603445D01*
X83860042Y-10603448D01*
X84042729Y-10693060D01*
X84239715Y-10744063D01*
X84442936Y-10754369D01*
X84644071Y-10723556D01*
X84834887Y-10652886D01*
X85007571Y-10545252D01*
X85155053Y-10405059D01*
X85271295Y-10238049D01*
X85351540Y-10051058D01*
X85392500Y-9851741D01*
X85392500Y-9800743D01*
X96191500Y-9800743D01*
X96206925Y-9952439D01*
X96267837Y-10146579D01*
X96267844Y-10146594D01*
X96366589Y-10324499D01*
X96366592Y-10324504D01*
X96499132Y-10478893D01*
X96499134Y-10478895D01*
X96660037Y-10603445D01*
X96660038Y-10603445D01*
X96660042Y-10603448D01*
X96842729Y-10693060D01*
X97039715Y-10744063D01*
X97242936Y-10754369D01*
X97444071Y-10723556D01*
X97634887Y-10652886D01*
X97807571Y-10545252D01*
X97955053Y-10405059D01*
X98071295Y-10238049D01*
X98151540Y-10051058D01*
X98192500Y-9851741D01*
X98192500Y-8599258D01*
X98191285Y-8587304D01*
X98177074Y-8447560D01*
X98116162Y-8253420D01*
X98116160Y-8253416D01*
X98116159Y-8253412D01*
X98017409Y-8075498D01*
X98017408Y-8075497D01*
X98017407Y-8075495D01*
X97884867Y-7921106D01*
X97884865Y-7921104D01*
X97723962Y-7796554D01*
X97723959Y-7796553D01*
X97723958Y-7796552D01*
X97541271Y-7706940D01*
X97344285Y-7655937D01*
X97344287Y-7655937D01*
X97208804Y-7649066D01*
X97141064Y-7645631D01*
X97141063Y-7645631D01*
X97141061Y-7645631D01*
X96939936Y-7676442D01*
X96939924Y-7676445D01*
X96749118Y-7747111D01*
X96749111Y-7747115D01*
X96576432Y-7854745D01*
X96576427Y-7854749D01*
X96428949Y-7994938D01*
X96428947Y-7994940D01*
X96428947Y-7994941D01*
X96417968Y-8010715D01*
X96312705Y-8161949D01*
X96232459Y-8348943D01*
X96191500Y-8548258D01*
X96191500Y-9800743D01*
X85392500Y-9800743D01*
X85392500Y-8600000D01*
X86644722Y-8600000D01*
X86663762Y-8756818D01*
X86716349Y-8895476D01*
X86719780Y-8904523D01*
X86809517Y-9034530D01*
X86927760Y-9139283D01*
X86927762Y-9139284D01*
X87067634Y-9212696D01*
X87221014Y-9250500D01*
X87221015Y-9250500D01*
X87378985Y-9250500D01*
X87532365Y-9212696D01*
X87556557Y-9199999D01*
X87672240Y-9139283D01*
X87790483Y-9034530D01*
X87880220Y-8904523D01*
X87936237Y-8756818D01*
X87955278Y-8600000D01*
X87953737Y-8587304D01*
X87936237Y-8443181D01*
X87900497Y-8348943D01*
X87880220Y-8295477D01*
X87790483Y-8165470D01*
X87672240Y-8060717D01*
X87672238Y-8060716D01*
X87672237Y-8060715D01*
X87532365Y-7987303D01*
X87378986Y-7949500D01*
X87378985Y-7949500D01*
X87221015Y-7949500D01*
X87221014Y-7949500D01*
X87067634Y-7987303D01*
X86927762Y-8060715D01*
X86865956Y-8115470D01*
X86813492Y-8161949D01*
X86809516Y-8165471D01*
X86719781Y-8295475D01*
X86719780Y-8295476D01*
X86663762Y-8443181D01*
X86644722Y-8599999D01*
X86644722Y-8600000D01*
X85392500Y-8600000D01*
X85392500Y-8599258D01*
X85391285Y-8587304D01*
X85377074Y-8447560D01*
X85316162Y-8253420D01*
X85316160Y-8253416D01*
X85316159Y-8253412D01*
X85217409Y-8075498D01*
X85217408Y-8075497D01*
X85217407Y-8075495D01*
X85084867Y-7921106D01*
X85084865Y-7921104D01*
X84923962Y-7796554D01*
X84923959Y-7796553D01*
X84923958Y-7796552D01*
X84741271Y-7706940D01*
X84544285Y-7655937D01*
X84544287Y-7655937D01*
X84408804Y-7649066D01*
X84341064Y-7645631D01*
X84341063Y-7645631D01*
X84341061Y-7645631D01*
X84139936Y-7676442D01*
X84139924Y-7676445D01*
X83949118Y-7747111D01*
X83949111Y-7747115D01*
X83776432Y-7854745D01*
X83776427Y-7854749D01*
X83628949Y-7994938D01*
X83628947Y-7994940D01*
X83628947Y-7994941D01*
X83617968Y-8010715D01*
X83512705Y-8161949D01*
X83432459Y-8348943D01*
X83391500Y-8548258D01*
X83391500Y-9800743D01*
X76962500Y-9800743D01*
X76962500Y-8599258D01*
X76961285Y-8587304D01*
X76947074Y-8447560D01*
X76886162Y-8253420D01*
X76886160Y-8253416D01*
X76886159Y-8253412D01*
X76787409Y-8075498D01*
X76787408Y-8075497D01*
X76787407Y-8075495D01*
X76654867Y-7921106D01*
X76654865Y-7921104D01*
X76493962Y-7796554D01*
X76493959Y-7796553D01*
X76493958Y-7796552D01*
X76311271Y-7706940D01*
X76114285Y-7655937D01*
X76114287Y-7655937D01*
X75978804Y-7649066D01*
X75911064Y-7645631D01*
X75911063Y-7645631D01*
X75911061Y-7645631D01*
X75709936Y-7676442D01*
X75709924Y-7676445D01*
X75519118Y-7747111D01*
X75519111Y-7747115D01*
X75346432Y-7854745D01*
X75346427Y-7854749D01*
X75198949Y-7994938D01*
X75198947Y-7994940D01*
X75198947Y-7994941D01*
X75187968Y-8010715D01*
X75082705Y-8161949D01*
X75002459Y-8348943D01*
X74961500Y-8548258D01*
X74961500Y-9800743D01*
X64162500Y-9800743D01*
X64162500Y-8600000D01*
X65406722Y-8600000D01*
X65425762Y-8756818D01*
X65478349Y-8895476D01*
X65481780Y-8904523D01*
X65571517Y-9034530D01*
X65689760Y-9139283D01*
X65689762Y-9139284D01*
X65829634Y-9212696D01*
X65983014Y-9250500D01*
X65983015Y-9250500D01*
X66140985Y-9250500D01*
X66294365Y-9212696D01*
X66318557Y-9199999D01*
X66434240Y-9139283D01*
X66552483Y-9034530D01*
X66642220Y-8904523D01*
X66698237Y-8756818D01*
X66717278Y-8600000D01*
X66715737Y-8587304D01*
X66698237Y-8443181D01*
X66662497Y-8348943D01*
X66642220Y-8295477D01*
X66552483Y-8165470D01*
X66434240Y-8060717D01*
X66434238Y-8060716D01*
X66434237Y-8060715D01*
X66294365Y-7987303D01*
X66140986Y-7949500D01*
X66140985Y-7949500D01*
X65983015Y-7949500D01*
X65983014Y-7949500D01*
X65829634Y-7987303D01*
X65689762Y-8060715D01*
X65627956Y-8115470D01*
X65575492Y-8161949D01*
X65571516Y-8165471D01*
X65481781Y-8295475D01*
X65481780Y-8295476D01*
X65425762Y-8443181D01*
X65406722Y-8599999D01*
X65406722Y-8600000D01*
X64162500Y-8600000D01*
X64162500Y-8599258D01*
X64149486Y-8471281D01*
X64147074Y-8447560D01*
X64086162Y-8253420D01*
X64086160Y-8253416D01*
X64086159Y-8253412D01*
X63987409Y-8075498D01*
X63987408Y-8075497D01*
X63987407Y-8075495D01*
X63854867Y-7921106D01*
X63854865Y-7921104D01*
X63693962Y-7796554D01*
X63693959Y-7796553D01*
X63693958Y-7796552D01*
X63511271Y-7706940D01*
X63314285Y-7655937D01*
X63314287Y-7655937D01*
X63178804Y-7649066D01*
X63111064Y-7645631D01*
X63111063Y-7645631D01*
X63111061Y-7645631D01*
X62909936Y-7676442D01*
X62909924Y-7676445D01*
X62719118Y-7747111D01*
X62719111Y-7747115D01*
X62546432Y-7854745D01*
X62546427Y-7854749D01*
X62398949Y-7994938D01*
X62398947Y-7994940D01*
X62398947Y-7994941D01*
X62387968Y-8010715D01*
X62282705Y-8161949D01*
X62202459Y-8348943D01*
X62161500Y-8548258D01*
X62161500Y-9800743D01*
X40105139Y-9800743D01*
X40105141Y-9800742D01*
X40222240Y-9739283D01*
X40340483Y-9634530D01*
X40430220Y-9504523D01*
X40486237Y-9356818D01*
X40505278Y-9200000D01*
X40494678Y-9112696D01*
X40486237Y-9043181D01*
X40447284Y-8940471D01*
X40430220Y-8895477D01*
X40340483Y-8765470D01*
X40222240Y-8660717D01*
X40222238Y-8660716D01*
X40222237Y-8660715D01*
X40082365Y-8587303D01*
X39931015Y-8550000D01*
X42144722Y-8550000D01*
X42163762Y-8706818D01*
X42200818Y-8804524D01*
X42219780Y-8854523D01*
X42309517Y-8984530D01*
X42427760Y-9089283D01*
X42427762Y-9089284D01*
X42567634Y-9162696D01*
X42721014Y-9200500D01*
X42721015Y-9200500D01*
X42878985Y-9200500D01*
X43032365Y-9162696D01*
X43076974Y-9139283D01*
X43172240Y-9089283D01*
X43290483Y-8984530D01*
X43380220Y-8854523D01*
X43436237Y-8706818D01*
X43455278Y-8550000D01*
X43455122Y-8548711D01*
X43436237Y-8393181D01*
X43399182Y-8295476D01*
X43380220Y-8245477D01*
X43290483Y-8115470D01*
X43172240Y-8010717D01*
X43172238Y-8010716D01*
X43172237Y-8010715D01*
X43032365Y-7937303D01*
X42878986Y-7899500D01*
X42878985Y-7899500D01*
X42721015Y-7899500D01*
X42721014Y-7899500D01*
X42567634Y-7937303D01*
X42427762Y-8010715D01*
X42309516Y-8115471D01*
X42219781Y-8245475D01*
X42219780Y-8245476D01*
X42163762Y-8393181D01*
X42144722Y-8549999D01*
X42144722Y-8550000D01*
X39931015Y-8550000D01*
X39928986Y-8549500D01*
X39928985Y-8549500D01*
X39771015Y-8549500D01*
X39771014Y-8549500D01*
X39617634Y-8587303D01*
X39477762Y-8660715D01*
X39359516Y-8765471D01*
X39269781Y-8895475D01*
X39269780Y-8895476D01*
X39213762Y-9043181D01*
X39194722Y-9199999D01*
X39194722Y-9200000D01*
X36564952Y-9200000D01*
X36580665Y-9158568D01*
X36599706Y-9001750D01*
X36592266Y-8940471D01*
X36580665Y-8844931D01*
X36527415Y-8704524D01*
X36524648Y-8697227D01*
X36434911Y-8567220D01*
X36316668Y-8462467D01*
X36316666Y-8462466D01*
X36316665Y-8462465D01*
X36176793Y-8389053D01*
X36023414Y-8351250D01*
X36023413Y-8351250D01*
X35865443Y-8351250D01*
X35865442Y-8351250D01*
X35712062Y-8389053D01*
X35572190Y-8462465D01*
X35509479Y-8518022D01*
X35474837Y-8548712D01*
X35453944Y-8567221D01*
X35364209Y-8697225D01*
X35364208Y-8697226D01*
X35308190Y-8844931D01*
X35289150Y-9001749D01*
X35289150Y-9001750D01*
X27599706Y-9001750D01*
X27592266Y-8940471D01*
X27580665Y-8844931D01*
X27527415Y-8704524D01*
X27524648Y-8697227D01*
X27434911Y-8567220D01*
X27316668Y-8462467D01*
X27316666Y-8462466D01*
X27316665Y-8462465D01*
X27176793Y-8389053D01*
X27023414Y-8351250D01*
X27023413Y-8351250D01*
X26865443Y-8351250D01*
X26865442Y-8351250D01*
X26712062Y-8389053D01*
X26572190Y-8462465D01*
X26509479Y-8518022D01*
X26474837Y-8548712D01*
X26453944Y-8567221D01*
X26364209Y-8697225D01*
X26364208Y-8697226D01*
X26308190Y-8844931D01*
X26289150Y-9001749D01*
X26289150Y-9001750D01*
X18603220Y-9001750D01*
X18722240Y-8939283D01*
X18840483Y-8834530D01*
X18930220Y-8704523D01*
X18956385Y-8635529D01*
X18998564Y-8579826D01*
X19064162Y-8555769D01*
X19072328Y-8555500D01*
X23941731Y-8555500D01*
X23941737Y-8555500D01*
X23950594Y-8555065D01*
X23956727Y-8554764D01*
X23956726Y-8554764D01*
X23969603Y-8553494D01*
X23995838Y-8550910D01*
X24010663Y-8548711D01*
X24010662Y-8548712D01*
X24012944Y-8548258D01*
X24077529Y-8535411D01*
X24134843Y-8518024D01*
X24179540Y-8499509D01*
X24232351Y-8471281D01*
X24289028Y-8433410D01*
X24301074Y-8424476D01*
X24331460Y-8399540D01*
X24331463Y-8399536D01*
X24331465Y-8399536D01*
X24334960Y-8396367D01*
X24342576Y-8389466D01*
X25287530Y-7444508D01*
X25348853Y-7411024D01*
X25418544Y-7416008D01*
X25457436Y-7439372D01*
X25572188Y-7541033D01*
X25572190Y-7541034D01*
X25712062Y-7614446D01*
X25865442Y-7652250D01*
X25865443Y-7652250D01*
X26023413Y-7652250D01*
X26176793Y-7614446D01*
X26204317Y-7600000D01*
X37594722Y-7600000D01*
X37613762Y-7756818D01*
X37650903Y-7854748D01*
X37669780Y-7904523D01*
X37759517Y-8034530D01*
X37877760Y-8139283D01*
X37889860Y-8145633D01*
X38017634Y-8212696D01*
X38171014Y-8250500D01*
X38171015Y-8250500D01*
X38328985Y-8250500D01*
X38482365Y-8212696D01*
X38504621Y-8201015D01*
X38622240Y-8139283D01*
X38740483Y-8034530D01*
X38830220Y-7904523D01*
X38886237Y-7756818D01*
X38905278Y-7600000D01*
X38886237Y-7443182D01*
X38883619Y-7436280D01*
X38860802Y-7376116D01*
X45371500Y-7376116D01*
X45386486Y-7513911D01*
X45445557Y-7689223D01*
X45445558Y-7689225D01*
X45480389Y-7747115D01*
X45538654Y-7843954D01*
X45540931Y-7847737D01*
X45540932Y-7847738D01*
X45668149Y-7982040D01*
X45701298Y-8004515D01*
X45821270Y-8085858D01*
X45821273Y-8085859D01*
X45821276Y-8085861D01*
X45829674Y-8089207D01*
X45884667Y-8132307D01*
X45907628Y-8198296D01*
X45899720Y-8248371D01*
X45863762Y-8343181D01*
X45844722Y-8499999D01*
X45844722Y-8500000D01*
X45863762Y-8656818D01*
X45919780Y-8804522D01*
X45919780Y-8804523D01*
X46009517Y-8934530D01*
X46127760Y-9039283D01*
X46127762Y-9039284D01*
X46267634Y-9112696D01*
X46421014Y-9150500D01*
X46421015Y-9150500D01*
X46578985Y-9150500D01*
X46732365Y-9112696D01*
X46776974Y-9089283D01*
X46872240Y-9039283D01*
X46990483Y-8934530D01*
X47080220Y-8804523D01*
X47136237Y-8656818D01*
X47155278Y-8500000D01*
X47155219Y-8499509D01*
X47136237Y-8343181D01*
X47114992Y-8287164D01*
X47080220Y-8195477D01*
X46990483Y-8065470D01*
X46921677Y-8004514D01*
X46884551Y-7945325D01*
X46885319Y-7875460D01*
X46905185Y-7836665D01*
X46955054Y-7771064D01*
X47032732Y-7603167D01*
X47072500Y-7422497D01*
X47072500Y-6787223D01*
X47092185Y-6720185D01*
X47144989Y-6674430D01*
X47214147Y-6664486D01*
X47271983Y-6688846D01*
X47359750Y-6756192D01*
X47500720Y-6814584D01*
X47557370Y-6822042D01*
X47614019Y-6829500D01*
X47614020Y-6829500D01*
X47689981Y-6829500D01*
X47727746Y-6824528D01*
X47803280Y-6814584D01*
X47944250Y-6756192D01*
X48065304Y-6663304D01*
X48158192Y-6542250D01*
X48216584Y-6401280D01*
X48236500Y-6250001D01*
X52847500Y-6250001D01*
X52867415Y-6401278D01*
X52867416Y-6401280D01*
X52925806Y-6542247D01*
X52925807Y-6542249D01*
X52925808Y-6542250D01*
X53018696Y-6663304D01*
X53139750Y-6756192D01*
X53280720Y-6814584D01*
X53337370Y-6822042D01*
X53394019Y-6829500D01*
X53394020Y-6829500D01*
X53469981Y-6829500D01*
X53507746Y-6824528D01*
X53583280Y-6814584D01*
X53724250Y-6756192D01*
X53812015Y-6688846D01*
X53877182Y-6663654D01*
X53945627Y-6677692D01*
X53995617Y-6726506D01*
X54011500Y-6787224D01*
X54011500Y-7376116D01*
X54026486Y-7513911D01*
X54085557Y-7689223D01*
X54178654Y-7843954D01*
X54196349Y-7911546D01*
X54174692Y-7977974D01*
X54154630Y-8000697D01*
X54081518Y-8065468D01*
X53991781Y-8195475D01*
X53991780Y-8195476D01*
X53935762Y-8343181D01*
X53916722Y-8499999D01*
X53916722Y-8500000D01*
X53935762Y-8656818D01*
X53991780Y-8804523D01*
X54081517Y-8934530D01*
X54199760Y-9039283D01*
X54199762Y-9039284D01*
X54339634Y-9112696D01*
X54493014Y-9150500D01*
X54493015Y-9150500D01*
X54650985Y-9150500D01*
X54804365Y-9112696D01*
X54848974Y-9089283D01*
X54944240Y-9039283D01*
X55062483Y-8934530D01*
X55152220Y-8804523D01*
X55208237Y-8656818D01*
X55227278Y-8500000D01*
X55227219Y-8499509D01*
X55208237Y-8343181D01*
X55173106Y-8250549D01*
X55167739Y-8180886D01*
X55200886Y-8119380D01*
X55230965Y-8097023D01*
X55342102Y-8038101D01*
X55342101Y-8038101D01*
X55342104Y-8038100D01*
X55483100Y-7918337D01*
X55595054Y-7771064D01*
X55672732Y-7603167D01*
X55712500Y-7422497D01*
X55712500Y-6183887D01*
X55697514Y-6046090D01*
X55638444Y-5870779D01*
X55543070Y-5712264D01*
X55497565Y-5664225D01*
X55415850Y-5577959D01*
X55342947Y-5528530D01*
X55262730Y-5474142D01*
X55262727Y-5474140D01*
X55262723Y-5474138D01*
X55090877Y-5405669D01*
X55005461Y-5391666D01*
X54908317Y-5375740D01*
X54908314Y-5375740D01*
X54723593Y-5385755D01*
X54723588Y-5385755D01*
X54545343Y-5435244D01*
X54545337Y-5435247D01*
X54381897Y-5521898D01*
X54240900Y-5641662D01*
X54128946Y-5788936D01*
X54094564Y-5863250D01*
X54048549Y-5915828D01*
X53981413Y-5935181D01*
X53914472Y-5915166D01*
X53883651Y-5886671D01*
X53845304Y-5836696D01*
X53724250Y-5743808D01*
X53724249Y-5743807D01*
X53724247Y-5743806D01*
X53583280Y-5685416D01*
X53583278Y-5685415D01*
X53469981Y-5670500D01*
X53469980Y-5670500D01*
X53394020Y-5670500D01*
X53394019Y-5670500D01*
X53280721Y-5685415D01*
X53280719Y-5685416D01*
X53139752Y-5743806D01*
X53018696Y-5836696D01*
X52925806Y-5957752D01*
X52867416Y-6098719D01*
X52867415Y-6098721D01*
X52847500Y-6249998D01*
X52847500Y-6250001D01*
X48236500Y-6250001D01*
X48236500Y-6250000D01*
X48216584Y-6098720D01*
X48158192Y-5957750D01*
X48065304Y-5836696D01*
X47944250Y-5743808D01*
X47944249Y-5743807D01*
X47944247Y-5743806D01*
X47803280Y-5685416D01*
X47803278Y-5685415D01*
X47689981Y-5670500D01*
X47689980Y-5670500D01*
X47614020Y-5670500D01*
X47614019Y-5670500D01*
X47500721Y-5685415D01*
X47500719Y-5685416D01*
X47359752Y-5743806D01*
X47301648Y-5788391D01*
X47243400Y-5833087D01*
X47238695Y-5836697D01*
X47203335Y-5882779D01*
X47146906Y-5923981D01*
X47077160Y-5928135D01*
X47016240Y-5893922D01*
X46998710Y-5871220D01*
X46942866Y-5778407D01*
X46903070Y-5712264D01*
X46857565Y-5664225D01*
X46775850Y-5577959D01*
X46702947Y-5528530D01*
X46622730Y-5474142D01*
X46622727Y-5474140D01*
X46622723Y-5474138D01*
X46450877Y-5405669D01*
X46365461Y-5391666D01*
X46268317Y-5375740D01*
X46268314Y-5375740D01*
X46083593Y-5385755D01*
X46083588Y-5385755D01*
X45905343Y-5435244D01*
X45905337Y-5435247D01*
X45741897Y-5521898D01*
X45600900Y-5641662D01*
X45488946Y-5788936D01*
X45411268Y-5956832D01*
X45411266Y-5956836D01*
X45371500Y-6137502D01*
X45371500Y-7376116D01*
X38860802Y-7376116D01*
X38851087Y-7350500D01*
X38830220Y-7295477D01*
X38740483Y-7165470D01*
X38622240Y-7060717D01*
X38622238Y-7060716D01*
X38622237Y-7060715D01*
X38482365Y-6987303D01*
X38328986Y-6949500D01*
X38328985Y-6949500D01*
X38171015Y-6949500D01*
X38171014Y-6949500D01*
X38017634Y-6987303D01*
X37877762Y-7060715D01*
X37759516Y-7165471D01*
X37669781Y-7295475D01*
X37669780Y-7295476D01*
X37613762Y-7443181D01*
X37594722Y-7599999D01*
X37594722Y-7600000D01*
X26204317Y-7600000D01*
X26204319Y-7599999D01*
X26316668Y-7541033D01*
X26434911Y-7436280D01*
X26524648Y-7306273D01*
X26580665Y-7158568D01*
X26599706Y-7001750D01*
X26580665Y-6844932D01*
X26574812Y-6829500D01*
X26535752Y-6726506D01*
X26525700Y-6700000D01*
X40344722Y-6700000D01*
X40363762Y-6856818D01*
X40413249Y-6987303D01*
X40419780Y-7004523D01*
X40509517Y-7134530D01*
X40627760Y-7239283D01*
X40627762Y-7239284D01*
X40767634Y-7312696D01*
X40921014Y-7350500D01*
X40921015Y-7350500D01*
X41078985Y-7350500D01*
X41232365Y-7312696D01*
X41244603Y-7306273D01*
X41372240Y-7239283D01*
X41490483Y-7134530D01*
X41580220Y-7004523D01*
X41636237Y-6856818D01*
X41655278Y-6700000D01*
X41639156Y-6567218D01*
X41636237Y-6543181D01*
X41599478Y-6446257D01*
X41580220Y-6395477D01*
X41490483Y-6265470D01*
X41372240Y-6160717D01*
X41372238Y-6160716D01*
X41372237Y-6160715D01*
X41232365Y-6087303D01*
X41078986Y-6049500D01*
X41078985Y-6049500D01*
X40921015Y-6049500D01*
X40921014Y-6049500D01*
X40767634Y-6087303D01*
X40627762Y-6160715D01*
X40627759Y-6160717D01*
X40627760Y-6160717D01*
X40526982Y-6249998D01*
X40509516Y-6265471D01*
X40419781Y-6395475D01*
X40419780Y-6395476D01*
X40363762Y-6543181D01*
X40344722Y-6699999D01*
X40344722Y-6700000D01*
X26525700Y-6700000D01*
X26524648Y-6697227D01*
X26434911Y-6567220D01*
X26434909Y-6567218D01*
X26390296Y-6527694D01*
X26353169Y-6468505D01*
X26353937Y-6398639D01*
X26384840Y-6347200D01*
X27390222Y-5341819D01*
X27451546Y-5308334D01*
X27477904Y-5305500D01*
X30363890Y-5305500D01*
X30430929Y-5325185D01*
X30476684Y-5377989D01*
X30485520Y-5434999D01*
X30487222Y-5434999D01*
X30487222Y-5442499D01*
X30487222Y-5442500D01*
X30506263Y-5599318D01*
X30562280Y-5747023D01*
X30652017Y-5877030D01*
X30770260Y-5981783D01*
X30770262Y-5981784D01*
X30910134Y-6055196D01*
X31063514Y-6093000D01*
X31063515Y-6093000D01*
X31221485Y-6093000D01*
X31374865Y-6055196D01*
X31392215Y-6046090D01*
X31514740Y-5981783D01*
X31632983Y-5877030D01*
X31722720Y-5747023D01*
X31722723Y-5747012D01*
X31726204Y-5740384D01*
X31728303Y-5741485D01*
X31763498Y-5695001D01*
X31829095Y-5670941D01*
X31897286Y-5686164D01*
X31924948Y-5706990D01*
X32207424Y-5989466D01*
X32207431Y-5989472D01*
X32207431Y-5989473D01*
X32216763Y-5997930D01*
X32218539Y-5999540D01*
X32248925Y-6024476D01*
X32260971Y-6033410D01*
X32317648Y-6071281D01*
X32370459Y-6099509D01*
X32415156Y-6118024D01*
X32472470Y-6135411D01*
X32539327Y-6148710D01*
X32539330Y-6148710D01*
X32539333Y-6148711D01*
X32539332Y-6148711D01*
X32542898Y-6149239D01*
X32554162Y-6150910D01*
X32554178Y-6150911D01*
X32554181Y-6150912D01*
X32554182Y-6150912D01*
X32593275Y-6154764D01*
X32599938Y-6155091D01*
X32608263Y-6155500D01*
X32608268Y-6155500D01*
X36795284Y-6155500D01*
X36795290Y-6155500D01*
X36803463Y-6155098D01*
X36810280Y-6154764D01*
X36810279Y-6154764D01*
X36825695Y-6153244D01*
X36849391Y-6150910D01*
X36864214Y-6148711D01*
X36864214Y-6148712D01*
X36864816Y-6148592D01*
X36931082Y-6135411D01*
X36988391Y-6118026D01*
X37033088Y-6099512D01*
X37085909Y-6071279D01*
X37125999Y-6044491D01*
X37172287Y-6006503D01*
X37206499Y-5972292D01*
X37244497Y-5925992D01*
X37271283Y-5885903D01*
X37299512Y-5833088D01*
X37318026Y-5788391D01*
X37335410Y-5731086D01*
X37348709Y-5664230D01*
X37348710Y-5664225D01*
X37348710Y-5664229D01*
X37350913Y-5649376D01*
X37350913Y-5649375D01*
X37354764Y-5610272D01*
X37355500Y-5595283D01*
X37355500Y-5300000D01*
X42444722Y-5300000D01*
X42463762Y-5456818D01*
X42511122Y-5581694D01*
X42519780Y-5604523D01*
X42609517Y-5734530D01*
X42727760Y-5839283D01*
X42727762Y-5839284D01*
X42867634Y-5912696D01*
X43021014Y-5950500D01*
X43021015Y-5950500D01*
X43178985Y-5950500D01*
X43332365Y-5912696D01*
X43472237Y-5839285D01*
X43472238Y-5839283D01*
X43472240Y-5839283D01*
X43517774Y-5798943D01*
X43581006Y-5769223D01*
X43650270Y-5778407D01*
X43682224Y-5798942D01*
X43716890Y-5829653D01*
X43727762Y-5839285D01*
X43867634Y-5912696D01*
X44021014Y-5950500D01*
X44021015Y-5950500D01*
X44178985Y-5950500D01*
X44332365Y-5912696D01*
X44368135Y-5893922D01*
X44472240Y-5839283D01*
X44590483Y-5734530D01*
X44680220Y-5604523D01*
X44736237Y-5456818D01*
X44755278Y-5300000D01*
X44751035Y-5265051D01*
X44736237Y-5143181D01*
X44708032Y-5068811D01*
X44680220Y-4995477D01*
X44590483Y-4865470D01*
X44472240Y-4760717D01*
X44472238Y-4760716D01*
X44472237Y-4760715D01*
X44332365Y-4687303D01*
X44178986Y-4649500D01*
X44178985Y-4649500D01*
X44021015Y-4649500D01*
X44021014Y-4649500D01*
X43867634Y-4687303D01*
X43727761Y-4760715D01*
X43727759Y-4760717D01*
X43682226Y-4801055D01*
X43618992Y-4830776D01*
X43549729Y-4821592D01*
X43517774Y-4801055D01*
X43472240Y-4760717D01*
X43472238Y-4760715D01*
X43332365Y-4687303D01*
X43178986Y-4649500D01*
X43178985Y-4649500D01*
X43021015Y-4649500D01*
X43021014Y-4649500D01*
X42867634Y-4687303D01*
X42727762Y-4760715D01*
X42609516Y-4865471D01*
X42519781Y-4995475D01*
X42519780Y-4995476D01*
X42463762Y-5143181D01*
X42444722Y-5299999D01*
X42444722Y-5300000D01*
X37355500Y-5300000D01*
X37355500Y-3958267D01*
X37354764Y-3943274D01*
X37351046Y-3905542D01*
X37350910Y-3904161D01*
X37348711Y-3889337D01*
X37348712Y-3889338D01*
X37346395Y-3877691D01*
X37335411Y-3822471D01*
X37318024Y-3765156D01*
X37299509Y-3720459D01*
X37271281Y-3667648D01*
X37233410Y-3610971D01*
X37224476Y-3598925D01*
X37199540Y-3568539D01*
X37193109Y-3561443D01*
X37189473Y-3557431D01*
X37189472Y-3557431D01*
X37189466Y-3557424D01*
X36749712Y-3117669D01*
X36749703Y-3117661D01*
X36733565Y-3103639D01*
X36733564Y-3103639D01*
X36733555Y-3103631D01*
X36697344Y-3076369D01*
X36683380Y-3066457D01*
X36580168Y-3022274D01*
X36580167Y-3022273D01*
X36580163Y-3022272D01*
X36580159Y-3022271D01*
X36511992Y-3007052D01*
X36511979Y-3007049D01*
X36480236Y-3003258D01*
X36416005Y-2975760D01*
X36396268Y-2948207D01*
X45271500Y-2948207D01*
X45286154Y-3092322D01*
X45344022Y-3276759D01*
X45344029Y-3276774D01*
X45437839Y-3445788D01*
X45437842Y-3445793D01*
X45563758Y-3592466D01*
X45563759Y-3592468D01*
X45696521Y-3695233D01*
X45716627Y-3710796D01*
X45890184Y-3795930D01*
X45890188Y-3795931D01*
X45890186Y-3795931D01*
X46077317Y-3844383D01*
X46077320Y-3844383D01*
X46077326Y-3844385D01*
X46270390Y-3854176D01*
X46461474Y-3824903D01*
X46642753Y-3757764D01*
X46806807Y-3655509D01*
X46946919Y-3522323D01*
X47057353Y-3363658D01*
X47133587Y-3186012D01*
X47172500Y-2996656D01*
X47172500Y-2948207D01*
X53911500Y-2948207D01*
X53926154Y-3092322D01*
X53984022Y-3276759D01*
X53984029Y-3276774D01*
X54077839Y-3445788D01*
X54077842Y-3445793D01*
X54203758Y-3592466D01*
X54203759Y-3592468D01*
X54336521Y-3695233D01*
X54356627Y-3710796D01*
X54530184Y-3795930D01*
X54530188Y-3795931D01*
X54530186Y-3795931D01*
X54717317Y-3844383D01*
X54717320Y-3844383D01*
X54717326Y-3844385D01*
X54910390Y-3854176D01*
X55101474Y-3824903D01*
X55166707Y-3800743D01*
X62161500Y-3800743D01*
X62176925Y-3952439D01*
X62237837Y-4146579D01*
X62237844Y-4146594D01*
X62336589Y-4324499D01*
X62336592Y-4324504D01*
X62469132Y-4478893D01*
X62469134Y-4478895D01*
X62630037Y-4603445D01*
X62630038Y-4603445D01*
X62630042Y-4603448D01*
X62812729Y-4693060D01*
X63009715Y-4744063D01*
X63212936Y-4754369D01*
X63414071Y-4723556D01*
X63604887Y-4652886D01*
X63777571Y-4545252D01*
X63925053Y-4405059D01*
X64041295Y-4238049D01*
X64121540Y-4051058D01*
X64162500Y-3851741D01*
X64162500Y-3800743D01*
X74961500Y-3800743D01*
X74976925Y-3952439D01*
X75037837Y-4146579D01*
X75037844Y-4146594D01*
X75136589Y-4324499D01*
X75136592Y-4324504D01*
X75269132Y-4478893D01*
X75269134Y-4478895D01*
X75430037Y-4603445D01*
X75430038Y-4603445D01*
X75430042Y-4603448D01*
X75612729Y-4693060D01*
X75809715Y-4744063D01*
X76012936Y-4754369D01*
X76214071Y-4723556D01*
X76404887Y-4652886D01*
X76577571Y-4545252D01*
X76725053Y-4405059D01*
X76841295Y-4238049D01*
X76921540Y-4051058D01*
X76962500Y-3851741D01*
X76962500Y-3800743D01*
X83391500Y-3800743D01*
X83406925Y-3952439D01*
X83467837Y-4146579D01*
X83467844Y-4146594D01*
X83566589Y-4324499D01*
X83566592Y-4324504D01*
X83699132Y-4478893D01*
X83699134Y-4478895D01*
X83860037Y-4603445D01*
X83860038Y-4603445D01*
X83860042Y-4603448D01*
X84042729Y-4693060D01*
X84239715Y-4744063D01*
X84442936Y-4754369D01*
X84644071Y-4723556D01*
X84834887Y-4652886D01*
X85007571Y-4545252D01*
X85155053Y-4405059D01*
X85271295Y-4238049D01*
X85351540Y-4051058D01*
X85392500Y-3851741D01*
X85392500Y-3800743D01*
X96191500Y-3800743D01*
X96206925Y-3952439D01*
X96267837Y-4146579D01*
X96267844Y-4146594D01*
X96366589Y-4324499D01*
X96366592Y-4324504D01*
X96499132Y-4478893D01*
X96499134Y-4478895D01*
X96660037Y-4603445D01*
X96660038Y-4603445D01*
X96660042Y-4603448D01*
X96842729Y-4693060D01*
X97039715Y-4744063D01*
X97242936Y-4754369D01*
X97444071Y-4723556D01*
X97634887Y-4652886D01*
X97807571Y-4545252D01*
X97955053Y-4405059D01*
X98071295Y-4238049D01*
X98151540Y-4051058D01*
X98192500Y-3851741D01*
X98192500Y-2599258D01*
X98190412Y-2578719D01*
X98177074Y-2447560D01*
X98116162Y-2253420D01*
X98116160Y-2253416D01*
X98116159Y-2253412D01*
X98017409Y-2075498D01*
X98017408Y-2075497D01*
X98017407Y-2075495D01*
X97884867Y-1921106D01*
X97884865Y-1921104D01*
X97723962Y-1796554D01*
X97723959Y-1796553D01*
X97723958Y-1796552D01*
X97541271Y-1706940D01*
X97344285Y-1655937D01*
X97344287Y-1655937D01*
X97208804Y-1649066D01*
X97141064Y-1645631D01*
X97141063Y-1645631D01*
X97141061Y-1645631D01*
X96939936Y-1676442D01*
X96939924Y-1676445D01*
X96749118Y-1747111D01*
X96749111Y-1747115D01*
X96576432Y-1854745D01*
X96576427Y-1854749D01*
X96428949Y-1994938D01*
X96428948Y-1994940D01*
X96312705Y-2161949D01*
X96232459Y-2348943D01*
X96191500Y-2548258D01*
X96191500Y-3800743D01*
X85392500Y-3800743D01*
X85392500Y-2599258D01*
X85390412Y-2578719D01*
X85377074Y-2447560D01*
X85316162Y-2253420D01*
X85316160Y-2253416D01*
X85316159Y-2253412D01*
X85217409Y-2075498D01*
X85217408Y-2075497D01*
X85217407Y-2075495D01*
X85084867Y-1921106D01*
X85084865Y-1921104D01*
X84923962Y-1796554D01*
X84923959Y-1796553D01*
X84923958Y-1796552D01*
X84741271Y-1706940D01*
X84544285Y-1655937D01*
X84544287Y-1655937D01*
X84408804Y-1649066D01*
X84341064Y-1645631D01*
X84341063Y-1645631D01*
X84341061Y-1645631D01*
X84139936Y-1676442D01*
X84139924Y-1676445D01*
X83949118Y-1747111D01*
X83949111Y-1747115D01*
X83776432Y-1854745D01*
X83776427Y-1854749D01*
X83628949Y-1994938D01*
X83628948Y-1994940D01*
X83512705Y-2161949D01*
X83432459Y-2348943D01*
X83391500Y-2548258D01*
X83391500Y-3800743D01*
X76962500Y-3800743D01*
X76962500Y-2599258D01*
X76960412Y-2578719D01*
X76947074Y-2447560D01*
X76886162Y-2253420D01*
X76886160Y-2253416D01*
X76886159Y-2253412D01*
X76787409Y-2075498D01*
X76787408Y-2075497D01*
X76787407Y-2075495D01*
X76654867Y-1921106D01*
X76654865Y-1921104D01*
X76493962Y-1796554D01*
X76493959Y-1796553D01*
X76493958Y-1796552D01*
X76311271Y-1706940D01*
X76114285Y-1655937D01*
X76114287Y-1655937D01*
X75978804Y-1649066D01*
X75911064Y-1645631D01*
X75911063Y-1645631D01*
X75911061Y-1645631D01*
X75709936Y-1676442D01*
X75709924Y-1676445D01*
X75519118Y-1747111D01*
X75519111Y-1747115D01*
X75346432Y-1854745D01*
X75346427Y-1854749D01*
X75198949Y-1994938D01*
X75198948Y-1994940D01*
X75082705Y-2161949D01*
X75002459Y-2348943D01*
X74961500Y-2548258D01*
X74961500Y-3800743D01*
X64162500Y-3800743D01*
X64162500Y-2599258D01*
X64147074Y-2447562D01*
X64147074Y-2447560D01*
X64086162Y-2253420D01*
X64086160Y-2253416D01*
X64086159Y-2253412D01*
X63987409Y-2075498D01*
X63987408Y-2075497D01*
X63987407Y-2075495D01*
X63854867Y-1921106D01*
X63854865Y-1921104D01*
X63693962Y-1796554D01*
X63693959Y-1796553D01*
X63693958Y-1796552D01*
X63511271Y-1706940D01*
X63314285Y-1655937D01*
X63314287Y-1655937D01*
X63178804Y-1649066D01*
X63111064Y-1645631D01*
X63111063Y-1645631D01*
X63111061Y-1645631D01*
X62909936Y-1676442D01*
X62909924Y-1676445D01*
X62719118Y-1747111D01*
X62719111Y-1747115D01*
X62546432Y-1854745D01*
X62546427Y-1854749D01*
X62398949Y-1994938D01*
X62398948Y-1994940D01*
X62282705Y-2161949D01*
X62202459Y-2348943D01*
X62161500Y-2548258D01*
X62161500Y-3800743D01*
X55166707Y-3800743D01*
X55282753Y-3757764D01*
X55446807Y-3655509D01*
X55586919Y-3522323D01*
X55697353Y-3363658D01*
X55773587Y-3186012D01*
X55812500Y-2996656D01*
X55812500Y-2251794D01*
X55797845Y-2107679D01*
X55797845Y-2107677D01*
X55739977Y-1923240D01*
X55739975Y-1923236D01*
X55739974Y-1923232D01*
X55646159Y-1754209D01*
X55646158Y-1754208D01*
X55646157Y-1754206D01*
X55520241Y-1607533D01*
X55520240Y-1607531D01*
X55367375Y-1489205D01*
X55367371Y-1489203D01*
X55278254Y-1445489D01*
X55193816Y-1404070D01*
X55193814Y-1404069D01*
X55193811Y-1404068D01*
X55193813Y-1404068D01*
X55006682Y-1355616D01*
X55006676Y-1355615D01*
X54877964Y-1349087D01*
X54813610Y-1345824D01*
X54813609Y-1345824D01*
X54813607Y-1345824D01*
X54622533Y-1375095D01*
X54622521Y-1375098D01*
X54441251Y-1442234D01*
X54441242Y-1442238D01*
X54277196Y-1544488D01*
X54137080Y-1677677D01*
X54026646Y-1836342D01*
X53950413Y-2013987D01*
X53911500Y-2203343D01*
X53911500Y-2948207D01*
X47172500Y-2948207D01*
X47172500Y-2251794D01*
X47157845Y-2107679D01*
X47157845Y-2107677D01*
X47099977Y-1923240D01*
X47099975Y-1923236D01*
X47099974Y-1923232D01*
X47006159Y-1754209D01*
X47006158Y-1754208D01*
X47006157Y-1754206D01*
X46880241Y-1607533D01*
X46880240Y-1607531D01*
X46727375Y-1489205D01*
X46727371Y-1489203D01*
X46638254Y-1445489D01*
X46553816Y-1404070D01*
X46553814Y-1404069D01*
X46553811Y-1404068D01*
X46553813Y-1404068D01*
X46366682Y-1355616D01*
X46366676Y-1355615D01*
X46237964Y-1349087D01*
X46173610Y-1345824D01*
X46173609Y-1345824D01*
X46173607Y-1345824D01*
X45982533Y-1375095D01*
X45982521Y-1375098D01*
X45801251Y-1442234D01*
X45801242Y-1442238D01*
X45637196Y-1544488D01*
X45497080Y-1677677D01*
X45386646Y-1836342D01*
X45310413Y-2013987D01*
X45271500Y-2203343D01*
X45271500Y-2948207D01*
X36396268Y-2948207D01*
X36379002Y-2924104D01*
X36335099Y-2808342D01*
X36330220Y-2795477D01*
X36243912Y-2670438D01*
X36222030Y-2604086D01*
X36239495Y-2536434D01*
X36243905Y-2529571D01*
X36330220Y-2404523D01*
X36386237Y-2256818D01*
X36405278Y-2100000D01*
X36386237Y-1943182D01*
X36378668Y-1923225D01*
X36330628Y-1796554D01*
X36330220Y-1795477D01*
X36240483Y-1665470D01*
X36122240Y-1560717D01*
X36122238Y-1560716D01*
X36122237Y-1560715D01*
X35982365Y-1487303D01*
X35828986Y-1449500D01*
X35828985Y-1449500D01*
X35671015Y-1449500D01*
X35671014Y-1449500D01*
X35517634Y-1487303D01*
X35377762Y-1560715D01*
X35259516Y-1665471D01*
X35169781Y-1795475D01*
X35169780Y-1795476D01*
X35113762Y-1943181D01*
X35094722Y-2099999D01*
X35094722Y-2100000D01*
X35113762Y-2256817D01*
X35124981Y-2286397D01*
X35141597Y-2330210D01*
X35146964Y-2399873D01*
X35113817Y-2461379D01*
X35052679Y-2495200D01*
X35008011Y-2496919D01*
X34991187Y-2494500D01*
X34991181Y-2494500D01*
X23958263Y-2494500D01*
X23944013Y-2495200D01*
X23943280Y-2495236D01*
X23904163Y-2499088D01*
X23904165Y-2499088D01*
X23895934Y-2500309D01*
X23889328Y-2501290D01*
X23861325Y-2506860D01*
X23822471Y-2514588D01*
X23765150Y-2531976D01*
X23720470Y-2550484D01*
X23720465Y-2550486D01*
X23720462Y-2550488D01*
X23694057Y-2564602D01*
X23667654Y-2578715D01*
X23667646Y-2578719D01*
X23635798Y-2600000D01*
X23610967Y-2616591D01*
X23598919Y-2625526D01*
X23568542Y-2650455D01*
X23557428Y-2660529D01*
X22981981Y-3235977D01*
X22459777Y-3758181D01*
X22398454Y-3791666D01*
X22372096Y-3794500D01*
X18964712Y-3794500D01*
X18881891Y-3805941D01*
X18817169Y-3824173D01*
X18817154Y-3824178D01*
X18767732Y-3843339D01*
X18698111Y-3849219D01*
X18640683Y-3820540D01*
X18565134Y-3753611D01*
X18565132Y-3753609D01*
X18425259Y-3680197D01*
X18271880Y-3642394D01*
X18271879Y-3642394D01*
X18113909Y-3642394D01*
X18113908Y-3642394D01*
X17960528Y-3680197D01*
X17820656Y-3753608D01*
X17741642Y-3823608D01*
X17678408Y-3853328D01*
X17609145Y-3844144D01*
X17603216Y-3841324D01*
X17574179Y-3826560D01*
X17574180Y-3826560D01*
X17507148Y-3806877D01*
X17507142Y-3806876D01*
X17421070Y-3794500D01*
X14154714Y-3794500D01*
X14139738Y-3795235D01*
X14100628Y-3799086D01*
X14100623Y-3799086D01*
X14100620Y-3799087D01*
X14100621Y-3799087D01*
X14096188Y-3799744D01*
X14085791Y-3801286D01*
X14085780Y-3801288D01*
X14080426Y-3802353D01*
X14010835Y-3796116D01*
X13955663Y-3753245D01*
X13932428Y-3687352D01*
X13948505Y-3619357D01*
X13970816Y-3590860D01*
X14042919Y-3522323D01*
X14153353Y-3363658D01*
X14229587Y-3186012D01*
X14268500Y-2996656D01*
X14268500Y-2251794D01*
X14253845Y-2107679D01*
X14253845Y-2107677D01*
X14195977Y-1923240D01*
X14195975Y-1923236D01*
X14195974Y-1923232D01*
X14102159Y-1754209D01*
X14102158Y-1754208D01*
X14102157Y-1754206D01*
X13976241Y-1607533D01*
X13976240Y-1607531D01*
X13823375Y-1489205D01*
X13823371Y-1489203D01*
X13734254Y-1445489D01*
X13649816Y-1404070D01*
X13649814Y-1404069D01*
X13649811Y-1404068D01*
X13649813Y-1404068D01*
X13462682Y-1355616D01*
X13462676Y-1355615D01*
X13333964Y-1349087D01*
X13269610Y-1345824D01*
X13269609Y-1345824D01*
X13269607Y-1345824D01*
X13078533Y-1375095D01*
X13078521Y-1375098D01*
X12897251Y-1442234D01*
X12897242Y-1442238D01*
X12733196Y-1544488D01*
X12593080Y-1677677D01*
X12482646Y-1836342D01*
X12406413Y-2013987D01*
X12367500Y-2203343D01*
X12367500Y-2948207D01*
X12382154Y-3092322D01*
X12440022Y-3276759D01*
X12440029Y-3276774D01*
X12533839Y-3445788D01*
X12533842Y-3445793D01*
X12639207Y-3568527D01*
X12659760Y-3592468D01*
X12719401Y-3638633D01*
X12760365Y-3695233D01*
X12767500Y-3736689D01*
X12767500Y-5524325D01*
X12747815Y-5591364D01*
X12723779Y-5618830D01*
X12696899Y-5641663D01*
X12584946Y-5788936D01*
X12550564Y-5863250D01*
X12504549Y-5915828D01*
X12437413Y-5935181D01*
X12370472Y-5915166D01*
X12339651Y-5886671D01*
X12301304Y-5836696D01*
X12180250Y-5743808D01*
X12180249Y-5743807D01*
X12180247Y-5743806D01*
X12039280Y-5685416D01*
X12039278Y-5685415D01*
X11925981Y-5670500D01*
X11925980Y-5670500D01*
X11850020Y-5670500D01*
X11850019Y-5670500D01*
X11736721Y-5685415D01*
X11736719Y-5685416D01*
X11595752Y-5743806D01*
X11474696Y-5836696D01*
X11381806Y-5957752D01*
X11323416Y-6098719D01*
X11323415Y-6098721D01*
X11303500Y-6249998D01*
X11303500Y-6250001D01*
X6692500Y-6250001D01*
X6692500Y-6250000D01*
X6672584Y-6098720D01*
X6614192Y-5957750D01*
X6521304Y-5836696D01*
X6400250Y-5743808D01*
X6400249Y-5743807D01*
X6400247Y-5743806D01*
X6259280Y-5685416D01*
X6259278Y-5685415D01*
X6145981Y-5670500D01*
X6145980Y-5670500D01*
X6070020Y-5670500D01*
X6070019Y-5670500D01*
X5956721Y-5685415D01*
X5956719Y-5685416D01*
X5815752Y-5743806D01*
X5757648Y-5788391D01*
X5699400Y-5833087D01*
X5694695Y-5836697D01*
X5659335Y-5882779D01*
X5602906Y-5923981D01*
X5533160Y-5928135D01*
X5472240Y-5893922D01*
X5454710Y-5871220D01*
X5398866Y-5778407D01*
X5359070Y-5712264D01*
X5313565Y-5664225D01*
X5231850Y-5577959D01*
X5158947Y-5528530D01*
X5078730Y-5474142D01*
X5078727Y-5474140D01*
X5078723Y-5474138D01*
X4906877Y-5405669D01*
X4821461Y-5391666D01*
X4724317Y-5375740D01*
X4724314Y-5375740D01*
X4539593Y-5385755D01*
X4539588Y-5385755D01*
X4361343Y-5435244D01*
X4361337Y-5435247D01*
X4197897Y-5521898D01*
X4056900Y-5641662D01*
X3944946Y-5788936D01*
X3867268Y-5956832D01*
X3867266Y-5956836D01*
X3827500Y-6137502D01*
X3827500Y-7376116D01*
X500500Y-7376116D01*
X500500Y-5361496D01*
X520185Y-5294457D01*
X572989Y-5248702D01*
X642147Y-5238758D01*
X699542Y-5262781D01*
X759465Y-5308334D01*
X769308Y-5315816D01*
X933256Y-5391667D01*
X933257Y-5391667D01*
X933259Y-5391668D01*
X986782Y-5403448D01*
X1109678Y-5430500D01*
X1109681Y-5430500D01*
X1245022Y-5430500D01*
X1245028Y-5430500D01*
X1379586Y-5415866D01*
X1550774Y-5358186D01*
X1705561Y-5265054D01*
X1836708Y-5140825D01*
X1938083Y-4991307D01*
X2004947Y-4823492D01*
X2034172Y-4645227D01*
X2024392Y-4464848D01*
X1999864Y-4376508D01*
X1976065Y-4290790D01*
X1976064Y-4290787D01*
X1945206Y-4232582D01*
X1931196Y-4164131D01*
X1956418Y-4098973D01*
X2012863Y-4057793D01*
X2054762Y-4050500D01*
X2140259Y-4050500D01*
X2181961Y-4044768D01*
X2418161Y-4012303D01*
X2688275Y-3936620D01*
X2898771Y-3845189D01*
X2945566Y-3824863D01*
X2945568Y-3824862D01*
X3185246Y-3679111D01*
X3402845Y-3502081D01*
X3594312Y-3297069D01*
X3601894Y-3286327D01*
X3656632Y-3242909D01*
X3726157Y-3235977D01*
X3788393Y-3267733D01*
X3811619Y-3297655D01*
X3893839Y-3445788D01*
X3893842Y-3445792D01*
X3893842Y-3445793D01*
X4019758Y-3592466D01*
X4019759Y-3592468D01*
X4152521Y-3695233D01*
X4172627Y-3710796D01*
X4346184Y-3795930D01*
X4346188Y-3795931D01*
X4346186Y-3795931D01*
X4533317Y-3844383D01*
X4533320Y-3844383D01*
X4533326Y-3844385D01*
X4726390Y-3854176D01*
X4917474Y-3824903D01*
X5098753Y-3757764D01*
X5262807Y-3655509D01*
X5402919Y-3522323D01*
X5513353Y-3363658D01*
X5589587Y-3186012D01*
X5628500Y-2996656D01*
X5628500Y-2251794D01*
X5613845Y-2107679D01*
X5613845Y-2107677D01*
X5555977Y-1923240D01*
X5555975Y-1923236D01*
X5555974Y-1923232D01*
X5462159Y-1754209D01*
X5462158Y-1754208D01*
X5462157Y-1754206D01*
X5336241Y-1607533D01*
X5336240Y-1607531D01*
X5183375Y-1489205D01*
X5183371Y-1489203D01*
X5094254Y-1445489D01*
X5009816Y-1404070D01*
X5009814Y-1404069D01*
X5009811Y-1404068D01*
X5009813Y-1404068D01*
X4822682Y-1355616D01*
X4822676Y-1355615D01*
X4693964Y-1349087D01*
X4629610Y-1345824D01*
X4629609Y-1345824D01*
X4629607Y-1345824D01*
X4438533Y-1375095D01*
X4438521Y-1375098D01*
X4257251Y-1442234D01*
X4257244Y-1442237D01*
X4159385Y-1503232D01*
X4092080Y-1521987D01*
X4025319Y-1501377D01*
X3980299Y-1447945D01*
X3976955Y-1439524D01*
X3943654Y-1345824D01*
X3885136Y-1181170D01*
X3756081Y-932104D01*
X3594312Y-702931D01*
X3594309Y-702927D01*
X3594161Y-702746D01*
X3594132Y-702676D01*
X3591869Y-699471D01*
X3592577Y-698971D01*
X3567129Y-638317D01*
X3579221Y-569502D01*
X3626598Y-518148D01*
X3690357Y-500500D01*
X99453497Y-500500D01*
X99520536Y-520185D01*
G37*
%TD.AperFunction*%
%TD*%
%TA.AperFunction,Conductor*%
%TO.N,+5V*%
G36*
X35058220Y-2819685D02*
G01*
X35103975Y-2872489D01*
X35114277Y-2938946D01*
X35094722Y-3099999D01*
X35094722Y-3100000D01*
X35113762Y-3256818D01*
X35149576Y-3351250D01*
X35169780Y-3404523D01*
X35259517Y-3534530D01*
X35377760Y-3639283D01*
X35377762Y-3639284D01*
X35517634Y-3712696D01*
X35671014Y-3750500D01*
X35671015Y-3750500D01*
X35828985Y-3750500D01*
X35982365Y-3712696D01*
X36011842Y-3697225D01*
X36122240Y-3639283D01*
X36240483Y-3534530D01*
X36330220Y-3404523D01*
X36337636Y-3384968D01*
X36379810Y-3329267D01*
X36445407Y-3305208D01*
X36513597Y-3320433D01*
X36541258Y-3341258D01*
X36968141Y-3768141D01*
X36983562Y-3786932D01*
X37017266Y-3837374D01*
X37035781Y-3882071D01*
X37047617Y-3941575D01*
X37050000Y-3965763D01*
X37050000Y-5587789D01*
X37047617Y-5611982D01*
X37035781Y-5671482D01*
X37017267Y-5716179D01*
X36990481Y-5756268D01*
X36956269Y-5790479D01*
X36921975Y-5813394D01*
X36916179Y-5817267D01*
X36871482Y-5835781D01*
X36837857Y-5842469D01*
X36811978Y-5847617D01*
X36787789Y-5850000D01*
X32615764Y-5850000D01*
X32591574Y-5847617D01*
X32558814Y-5841101D01*
X32532071Y-5835781D01*
X32487374Y-5817266D01*
X32436932Y-5783562D01*
X32418141Y-5768141D01*
X31723226Y-5073225D01*
X31723225Y-5073224D01*
X31723221Y-5073221D01*
X31650000Y-5000000D01*
X31623987Y-5000000D01*
X31514740Y-4903217D01*
X31514737Y-4903214D01*
X31374865Y-4829803D01*
X31221486Y-4792000D01*
X31221485Y-4792000D01*
X31063515Y-4792000D01*
X31063514Y-4792000D01*
X30910134Y-4829803D01*
X30770261Y-4903215D01*
X30770259Y-4903217D01*
X30696212Y-4968816D01*
X30632979Y-4998537D01*
X30613986Y-5000000D01*
X27403550Y-5000000D01*
X27300000Y-5000000D01*
X27226776Y-5073222D01*
X27226774Y-5073224D01*
X27226773Y-5073225D01*
X25985069Y-6314931D01*
X25923746Y-6348416D01*
X25897388Y-6351250D01*
X25865442Y-6351250D01*
X25712062Y-6389053D01*
X25572190Y-6462465D01*
X25453944Y-6567221D01*
X25364209Y-6697225D01*
X25364208Y-6697226D01*
X25308191Y-6844930D01*
X25293050Y-6969629D01*
X25265428Y-7033807D01*
X25257635Y-7042363D01*
X24131858Y-8168141D01*
X24113067Y-8183562D01*
X24062625Y-8217266D01*
X24017928Y-8235781D01*
X23983777Y-8242574D01*
X23958425Y-8247617D01*
X23934236Y-8250000D01*
X19074414Y-8250000D01*
X19007375Y-8230315D01*
X18961620Y-8177511D01*
X18958472Y-8169972D01*
X18941323Y-8124754D01*
X18930220Y-8095477D01*
X18840483Y-7965470D01*
X18722240Y-7860717D01*
X18722238Y-7860716D01*
X18722237Y-7860715D01*
X18582365Y-7787303D01*
X18428986Y-7749500D01*
X18428985Y-7749500D01*
X18271015Y-7749500D01*
X18271014Y-7749500D01*
X18117634Y-7787303D01*
X17977762Y-7860715D01*
X17859516Y-7965471D01*
X17769781Y-8095474D01*
X17741528Y-8169972D01*
X17699350Y-8225674D01*
X17633752Y-8249731D01*
X17625586Y-8250000D01*
X14162211Y-8250000D01*
X14138020Y-8247617D01*
X14123189Y-8244667D01*
X14078518Y-8235781D01*
X14033822Y-8217267D01*
X13993727Y-8190477D01*
X13959522Y-8156272D01*
X13932730Y-8116175D01*
X13914218Y-8071480D01*
X13905873Y-8029526D01*
X13912100Y-7959934D01*
X13935118Y-7923756D01*
X13935031Y-7923690D01*
X13935826Y-7922643D01*
X13937476Y-7920051D01*
X13939095Y-7918340D01*
X13939100Y-7918337D01*
X14051054Y-7771064D01*
X14128732Y-7603167D01*
X14168500Y-7422497D01*
X14168500Y-6220000D01*
X20774722Y-6220000D01*
X20793762Y-6376818D01*
X20826245Y-6462467D01*
X20849780Y-6524523D01*
X20939517Y-6654530D01*
X21057760Y-6759283D01*
X21057762Y-6759284D01*
X21197634Y-6832696D01*
X21351014Y-6870500D01*
X21351015Y-6870500D01*
X21508985Y-6870500D01*
X21662365Y-6832696D01*
X21662364Y-6832696D01*
X21802240Y-6759283D01*
X21920483Y-6654530D01*
X22010220Y-6524523D01*
X22066237Y-6376818D01*
X22085278Y-6220000D01*
X22066237Y-6063182D01*
X22063208Y-6055196D01*
X22025904Y-5956833D01*
X22010220Y-5915477D01*
X21920483Y-5785470D01*
X21802240Y-5680717D01*
X21802238Y-5680716D01*
X21802237Y-5680715D01*
X21662365Y-5607303D01*
X21508986Y-5569500D01*
X21508985Y-5569500D01*
X21351015Y-5569500D01*
X21351014Y-5569500D01*
X21197634Y-5607303D01*
X21057762Y-5680715D01*
X20939516Y-5785471D01*
X20849781Y-5915475D01*
X20849780Y-5915476D01*
X20793762Y-6063181D01*
X20774722Y-6219999D01*
X20774722Y-6220000D01*
X14168500Y-6220000D01*
X14168500Y-6183887D01*
X14153514Y-6046090D01*
X14094444Y-5870779D01*
X13999070Y-5712264D01*
X13996570Y-5709624D01*
X13933976Y-5643544D01*
X13902164Y-5581337D01*
X13900000Y-5558270D01*
X13900000Y-4362210D01*
X13902383Y-4338019D01*
X13904015Y-4329815D01*
X13914218Y-4278517D01*
X13932729Y-4233826D01*
X13959524Y-4193724D01*
X13993724Y-4159524D01*
X14033826Y-4132729D01*
X14078514Y-4114219D01*
X14138028Y-4102381D01*
X14162211Y-4100000D01*
X17421070Y-4100000D01*
X17488109Y-4119685D01*
X17533864Y-4172489D01*
X17544166Y-4238946D01*
X17537616Y-4292893D01*
X17537616Y-4292894D01*
X17556656Y-4449712D01*
X17612673Y-4597417D01*
X17612674Y-4597417D01*
X17702411Y-4727424D01*
X17820654Y-4832177D01*
X17820656Y-4832178D01*
X17960528Y-4905590D01*
X18113908Y-4943394D01*
X18113909Y-4943394D01*
X18127994Y-4943394D01*
X18195033Y-4963079D01*
X18240788Y-5015883D01*
X18251090Y-5052447D01*
X18253613Y-5073222D01*
X18263763Y-5156818D01*
X18319780Y-5304523D01*
X18409517Y-5434530D01*
X18527760Y-5539283D01*
X18527762Y-5539284D01*
X18667634Y-5612696D01*
X18821014Y-5650500D01*
X18821015Y-5650500D01*
X18978985Y-5650500D01*
X19132365Y-5612696D01*
X19157854Y-5599318D01*
X19272240Y-5539283D01*
X19390483Y-5434530D01*
X19480220Y-5304523D01*
X19536237Y-5156818D01*
X19555278Y-5000000D01*
X19536237Y-4843182D01*
X19532063Y-4832177D01*
X19514992Y-4787164D01*
X19480220Y-4695477D01*
X19390483Y-4565470D01*
X19272240Y-4460717D01*
X19272238Y-4460716D01*
X19272237Y-4460715D01*
X19132365Y-4387303D01*
X18978986Y-4349500D01*
X18978985Y-4349500D01*
X18964900Y-4349500D01*
X18897861Y-4329815D01*
X18852106Y-4277011D01*
X18841803Y-4240436D01*
X18841621Y-4238936D01*
X18853087Y-4170013D01*
X18899995Y-4118231D01*
X18964718Y-4100000D01*
X22446449Y-4100000D01*
X22550000Y-4100000D01*
X22648250Y-4001750D01*
X25289150Y-4001750D01*
X25308190Y-4158568D01*
X25359134Y-4292893D01*
X25364208Y-4306273D01*
X25453945Y-4436280D01*
X25572188Y-4541033D01*
X25572190Y-4541034D01*
X25712062Y-4614446D01*
X25865442Y-4652250D01*
X25865443Y-4652250D01*
X26023413Y-4652250D01*
X26176793Y-4614446D01*
X26176793Y-4614445D01*
X26316668Y-4541033D01*
X26434911Y-4436280D01*
X26524648Y-4306273D01*
X26580665Y-4158568D01*
X26599706Y-4001750D01*
X26595337Y-3965763D01*
X26580665Y-3844931D01*
X26551542Y-3768141D01*
X26524648Y-3697227D01*
X26434911Y-3567220D01*
X26316668Y-3462467D01*
X26316666Y-3462466D01*
X26316665Y-3462465D01*
X26176793Y-3389053D01*
X26023414Y-3351250D01*
X26023413Y-3351250D01*
X25865443Y-3351250D01*
X25865442Y-3351250D01*
X25712062Y-3389053D01*
X25572190Y-3462465D01*
X25453944Y-3567221D01*
X25364209Y-3697225D01*
X25364208Y-3697226D01*
X25308190Y-3844931D01*
X25289150Y-4001749D01*
X25289150Y-4001750D01*
X22648250Y-4001750D01*
X23768146Y-2881853D01*
X23786927Y-2866440D01*
X23837376Y-2832732D01*
X23882071Y-2814218D01*
X23941572Y-2802383D01*
X23965764Y-2800000D01*
X34991181Y-2800000D01*
X35058220Y-2819685D01*
G37*
%TD.AperFunction*%
%TD*%
M02*
