%TF.GenerationSoftware,KiCad,Pcbnew,7.0.6*%
%TF.CreationDate,2024-02-18T18:08:35+00:00*%
%TF.ProjectId,MoonHub,4d6f6f6e-4875-4622-9e6b-696361645f70,rev?*%
%TF.SameCoordinates,Original*%
%TF.FileFunction,Copper,L1,Top*%
%TF.FilePolarity,Positive*%
%FSLAX46Y46*%
G04 Gerber Fmt 4.6, Leading zero omitted, Abs format (unit mm)*
G04 Created by KiCad (PCBNEW 7.0.6) date 2024-02-18 18:08:35*
%MOMM*%
%LPD*%
G01*
G04 APERTURE LIST*
G04 Aperture macros list*
%AMRoundRect*
0 Rectangle with rounded corners*
0 $1 Rounding radius*
0 $2 $3 $4 $5 $6 $7 $8 $9 X,Y pos of 4 corners*
0 Add a 4 corners polygon primitive as box body*
4,1,4,$2,$3,$4,$5,$6,$7,$8,$9,$2,$3,0*
0 Add four circle primitives for the rounded corners*
1,1,$1+$1,$2,$3*
1,1,$1+$1,$4,$5*
1,1,$1+$1,$6,$7*
1,1,$1+$1,$8,$9*
0 Add four rect primitives between the rounded corners*
20,1,$1+$1,$2,$3,$4,$5,0*
20,1,$1+$1,$4,$5,$6,$7,0*
20,1,$1+$1,$6,$7,$8,$9,0*
20,1,$1+$1,$8,$9,$2,$3,0*%
G04 Aperture macros list end*
%TA.AperFunction,SMDPad,CuDef*%
%ADD10R,0.675000X0.200000*%
%TD*%
%TA.AperFunction,SMDPad,CuDef*%
%ADD11R,0.775000X0.400000*%
%TD*%
%TA.AperFunction,SMDPad,CuDef*%
%ADD12RoundRect,0.140000X-0.170000X0.140000X-0.170000X-0.140000X0.170000X-0.140000X0.170000X0.140000X0*%
%TD*%
%TA.AperFunction,SMDPad,CuDef*%
%ADD13RoundRect,0.250000X-0.650000X0.325000X-0.650000X-0.325000X0.650000X-0.325000X0.650000X0.325000X0*%
%TD*%
%TA.AperFunction,SMDPad,CuDef*%
%ADD14RoundRect,0.060000X0.240000X0.665000X-0.240000X0.665000X-0.240000X-0.665000X0.240000X-0.665000X0*%
%TD*%
%TA.AperFunction,SMDPad,CuDef*%
%ADD15RoundRect,0.060000X0.090000X0.665000X-0.090000X0.665000X-0.090000X-0.665000X0.090000X-0.665000X0*%
%TD*%
%TA.AperFunction,ComponentPad*%
%ADD16O,1.100000X2.200000*%
%TD*%
%TA.AperFunction,ComponentPad*%
%ADD17O,1.300000X1.900000*%
%TD*%
%TA.AperFunction,SMDPad,CuDef*%
%ADD18RoundRect,0.140000X0.140000X0.170000X-0.140000X0.170000X-0.140000X-0.170000X0.140000X-0.170000X0*%
%TD*%
%TA.AperFunction,SMDPad,CuDef*%
%ADD19RoundRect,0.250000X-0.247487X-1.166726X1.166726X0.247487X0.247487X1.166726X-1.166726X-0.247487X0*%
%TD*%
%TA.AperFunction,SMDPad,CuDef*%
%ADD20RoundRect,0.140000X0.170000X-0.140000X0.170000X0.140000X-0.170000X0.140000X-0.170000X-0.140000X0*%
%TD*%
%TA.AperFunction,SMDPad,CuDef*%
%ADD21RoundRect,0.135000X0.135000X0.185000X-0.135000X0.185000X-0.135000X-0.185000X0.135000X-0.185000X0*%
%TD*%
%TA.AperFunction,SMDPad,CuDef*%
%ADD22RoundRect,0.135000X-0.135000X-0.185000X0.135000X-0.185000X0.135000X0.185000X-0.135000X0.185000X0*%
%TD*%
%TA.AperFunction,SMDPad,CuDef*%
%ADD23R,1.200000X0.400000*%
%TD*%
%TA.AperFunction,SMDPad,CuDef*%
%ADD24RoundRect,0.166667X-0.333333X-0.483333X0.333333X-0.483333X0.333333X0.483333X-0.333333X0.483333X0*%
%TD*%
%TA.AperFunction,ComponentPad*%
%ADD25C,0.600000*%
%TD*%
%TA.AperFunction,SMDPad,CuDef*%
%ADD26RoundRect,0.100000X-0.625000X-0.900000X0.625000X-0.900000X0.625000X0.900000X-0.625000X0.900000X0*%
%TD*%
%TA.AperFunction,SMDPad,CuDef*%
%ADD27R,1.400000X1.200000*%
%TD*%
%TA.AperFunction,SMDPad,CuDef*%
%ADD28RoundRect,0.250000X0.475000X-0.250000X0.475000X0.250000X-0.475000X0.250000X-0.475000X-0.250000X0*%
%TD*%
%TA.AperFunction,SMDPad,CuDef*%
%ADD29R,1.400000X2.800000*%
%TD*%
%TA.AperFunction,ComponentPad*%
%ADD30O,1.400000X2.500000*%
%TD*%
%TA.AperFunction,ComponentPad*%
%ADD31C,3.500001*%
%TD*%
%TA.AperFunction,SMDPad,CuDef*%
%ADD32RoundRect,0.150000X-0.512500X-0.150000X0.512500X-0.150000X0.512500X0.150000X-0.512500X0.150000X0*%
%TD*%
%TA.AperFunction,ViaPad*%
%ADD33C,0.700000*%
%TD*%
%TA.AperFunction,Conductor*%
%ADD34C,0.500000*%
%TD*%
%TA.AperFunction,Conductor*%
%ADD35C,0.400000*%
%TD*%
%TA.AperFunction,Conductor*%
%ADD36C,0.600000*%
%TD*%
%TA.AperFunction,Conductor*%
%ADD37C,1.400000*%
%TD*%
%TA.AperFunction,Conductor*%
%ADD38C,0.200000*%
%TD*%
%TA.AperFunction,Conductor*%
%ADD39C,0.211100*%
%TD*%
G04 APERTURE END LIST*
D10*
%TO.P,U3,1,IO1*%
%TO.N,/USB1_D+*%
X45862500Y-10500000D03*
%TO.P,U3,2,IO2*%
%TO.N,/USB1_D-*%
X45862500Y-11000000D03*
D11*
%TO.P,U3,3,GND*%
%TO.N,GND*%
X45912500Y-11500000D03*
D10*
%TO.P,U3,4,D2+*%
%TO.N,/USB2_D+*%
X45862500Y-12000000D03*
%TO.P,U3,5,D2-*%
%TO.N,/USB2_D-*%
X45862500Y-12500000D03*
%TO.P,U3,6,NC*%
X46737500Y-12500000D03*
%TO.P,U3,7,NC*%
%TO.N,/USB2_D+*%
X46737500Y-12000000D03*
D11*
%TO.P,U3,8,GND*%
%TO.N,GND*%
X46687500Y-11500000D03*
D10*
%TO.P,U3,9,NC*%
%TO.N,/USB1_D-*%
X46737500Y-11000000D03*
%TO.P,U3,10,NC*%
%TO.N,/USB1_D+*%
X46737500Y-10500000D03*
%TD*%
D12*
%TO.P,C9,1*%
%TO.N,Net-(U4-XO)*%
X30350000Y-13020000D03*
%TO.P,C9,2*%
%TO.N,GND*%
X30350000Y-13980000D03*
%TD*%
D13*
%TO.P,C3,1*%
%TO.N,VBUS*%
X43600000Y-3450000D03*
%TO.P,C3,2*%
%TO.N,GND*%
X43600000Y-6400000D03*
%TD*%
D14*
%TO.P,USB3,A1,GND*%
%TO.N,GND*%
X53767000Y-7695000D03*
%TO.P,USB3,A4,VBUS*%
%TO.N,VBUS*%
X52992000Y-7695000D03*
D15*
%TO.P,USB3,A5,CC1*%
%TO.N,Net-(USB3-CC1)*%
X51792000Y-7695000D03*
%TO.P,USB3,A6,D+*%
%TO.N,/USB1_D+*%
X50792000Y-7695000D03*
%TO.P,USB3,A7,D-*%
%TO.N,/USB1_D-*%
X50292000Y-7695000D03*
%TO.P,USB3,A8,SBU1*%
%TO.N,unconnected-(USB3-SBU1-PadA8)*%
X49292000Y-7695000D03*
D14*
%TO.P,USB3,B1,GND*%
%TO.N,GND*%
X47317000Y-7695000D03*
%TO.P,USB3,B4,VBUS*%
%TO.N,VBUS*%
X48092000Y-7695000D03*
D15*
%TO.P,USB3,B5,CC2*%
%TO.N,Net-(USB3-CC2)*%
X48792000Y-7695000D03*
%TO.P,USB3,B6,D+*%
%TO.N,/USB1_D+*%
X49792000Y-7695000D03*
%TO.P,USB3,B7,D-*%
%TO.N,/USB1_D-*%
X51292000Y-7695000D03*
%TO.P,USB3,B8,SBU2*%
%TO.N,unconnected-(USB3-SBU2-PadB8)*%
X52292000Y-7695000D03*
D16*
%TO.P,USB3,S1,SHIELD*%
%TO.N,GNDPWR*%
X54862000Y-6780000D03*
D17*
X54862000Y-2600000D03*
D16*
X46222000Y-6780000D03*
D17*
X46222000Y-2600000D03*
%TD*%
D18*
%TO.P,C2,1*%
%TO.N,VBUS*%
X37580000Y-1900000D03*
%TO.P,C2,2*%
%TO.N,GND*%
X36620000Y-1900000D03*
%TD*%
D19*
%TO.P,D1,1,A1*%
%TO.N,+5V*%
X16985786Y-6214214D03*
%TO.P,D1,2,A2*%
%TO.N,GND*%
X19814214Y-3385786D03*
%TD*%
D12*
%TO.P,C4,1*%
%TO.N,Net-(C4-Pad1)*%
X21200000Y-8170000D03*
%TO.P,C4,2*%
%TO.N,GND*%
X21200000Y-9130000D03*
%TD*%
D20*
%TO.P,C8,1*%
%TO.N,Net-(U4-XI)*%
X30350000Y-11980000D03*
%TO.P,C8,2*%
%TO.N,GND*%
X30350000Y-11020000D03*
%TD*%
D21*
%TO.P,R3,1*%
%TO.N,VBUS*%
X52992000Y-9375000D03*
%TO.P,R3,2*%
%TO.N,Net-(USB3-CC1)*%
X51972000Y-9375000D03*
%TD*%
D22*
%TO.P,R4,1*%
%TO.N,VBUS*%
X48092000Y-9375000D03*
%TO.P,R4,2*%
%TO.N,Net-(USB3-CC2)*%
X49112000Y-9375000D03*
%TD*%
D23*
%TO.P,U4,1,GND*%
%TO.N,GND*%
X28900000Y-12427500D03*
%TO.P,U4,2,XO*%
%TO.N,Net-(U4-XO)*%
X28900000Y-11792500D03*
%TO.P,U4,3,XI*%
%TO.N,Net-(U4-XI)*%
X28900000Y-11157500D03*
%TO.P,U4,4,DM4*%
%TO.N,/USB4_D-*%
X28900000Y-10522500D03*
%TO.P,U4,5,DP4*%
%TO.N,/USB4_D+*%
X28900000Y-9887500D03*
%TO.P,U4,6,DM3*%
%TO.N,/USB3_D-*%
X28900000Y-9252500D03*
%TO.P,U4,7,DP3*%
%TO.N,/USB3_D+*%
X28900000Y-8617500D03*
%TO.P,U4,8,DM2*%
%TO.N,/USB2_D-*%
X28900000Y-7982500D03*
%TO.P,U4,9,DP2*%
%TO.N,/USB2_D+*%
X28900000Y-7347500D03*
%TO.P,U4,10,DM1*%
%TO.N,/USB1_D-*%
X28900000Y-6712500D03*
%TO.P,U4,11,DP1*%
%TO.N,/USB1_D+*%
X28900000Y-6077500D03*
%TO.P,U4,12,GND*%
%TO.N,GND*%
X28900000Y-5442500D03*
%TO.P,U4,13,VDD33*%
%TO.N,Net-(C6-Pad1)*%
X28900000Y-4807500D03*
%TO.P,U4,14,LED3/SCL*%
%TO.N,unconnected-(U4-LED3{slash}SCL-Pad14)*%
X28900000Y-4172500D03*
%TO.P,U4,15,DMU*%
%TO.N,/USBU_D-*%
X23700000Y-4172500D03*
%TO.P,U4,16,DPU*%
%TO.N,/USBU_D+*%
X23700000Y-4807500D03*
%TO.P,U4,17,RESET#/CDP*%
%TO.N,unconnected-(U4-RESET#{slash}CDP-Pad17)*%
X23700000Y-5442500D03*
%TO.P,U4,18,NC*%
%TO.N,unconnected-(U4-NC-Pad18)*%
X23700000Y-6077500D03*
%TO.P,U4,19,PSELF*%
%TO.N,unconnected-(U4-PSELF-Pad19)*%
X23700000Y-6712500D03*
%TO.P,U4,20,V5*%
%TO.N,+5V*%
X23700000Y-7347500D03*
%TO.P,U4,21,VDD33*%
%TO.N,Net-(C4-Pad1)*%
X23700000Y-7982500D03*
%TO.P,U4,22,LED4/SDA*%
%TO.N,unconnected-(U4-LED4{slash}SDA-Pad22)*%
X23700000Y-8617500D03*
%TO.P,U4,23,LED1*%
%TO.N,unconnected-(U4-LED1-Pad23)*%
X23700000Y-9252500D03*
%TO.P,U4,24,LED2*%
%TO.N,unconnected-(U4-LED2-Pad24)*%
X23700000Y-9887500D03*
%TO.P,U4,25,PWREN#*%
%TO.N,/PWREN*%
X23700000Y-10522500D03*
%TO.P,U4,26,OVCUR#*%
%TO.N,/OVCUR*%
X23700000Y-11157500D03*
%TO.P,U4,27,NC*%
%TO.N,unconnected-(U4-NC-Pad27)*%
X23700000Y-11792500D03*
%TO.P,U4,28,GND*%
%TO.N,GND*%
X23700000Y-12427500D03*
%TD*%
D24*
%TO.P,J1,1,Pin_1*%
%TO.N,VBUS*%
X7200000Y-11650000D03*
%TO.P,J1,2,Pin_2*%
%TO.N,/USB4_D-*%
X8400000Y-11650000D03*
%TO.P,J1,3,Pin_3*%
%TO.N,/USB4_D+*%
X9600000Y-11650000D03*
%TO.P,J1,4,Pin_4*%
%TO.N,GND*%
X10800000Y-11650000D03*
D25*
%TO.P,J1,MP,MountPin*%
%TO.N,GNDPWR*%
X6000000Y-14400000D03*
D26*
X6425000Y-15100000D03*
D25*
X6800000Y-14400000D03*
X6800000Y-15100000D03*
X6800000Y-15800000D03*
X11200000Y-14400000D03*
X11200000Y-15100000D03*
X11200000Y-15800000D03*
D26*
X11575000Y-15100000D03*
D25*
X11950000Y-14400000D03*
%TD*%
D10*
%TO.P,U2,1,IO1*%
%TO.N,/USBU_D-*%
X14762500Y-10700000D03*
%TO.P,U2,2,IO2*%
%TO.N,/USBU_D+*%
X14762500Y-11200000D03*
D11*
%TO.P,U2,3,GND*%
%TO.N,GND*%
X14812500Y-11700000D03*
D10*
%TO.P,U2,4,D2+*%
%TO.N,/USB4_D+*%
X14762500Y-12200000D03*
%TO.P,U2,5,D2-*%
%TO.N,/USB4_D-*%
X14762500Y-12700000D03*
%TO.P,U2,6,NC*%
X15637500Y-12700000D03*
%TO.P,U2,7,NC*%
%TO.N,/USB4_D+*%
X15637500Y-12200000D03*
D11*
%TO.P,U2,8,GND*%
%TO.N,GND*%
X15587500Y-11700000D03*
D10*
%TO.P,U2,9,NC*%
%TO.N,/USBU_D+*%
X15637500Y-11200000D03*
%TO.P,U2,10,NC*%
%TO.N,/USBU_D-*%
X15637500Y-10700000D03*
%TD*%
D27*
%TO.P,Y1,1,1*%
%TO.N,Net-(U4-XI)*%
X34200000Y-12177500D03*
%TO.P,Y1,2,2*%
%TO.N,GND*%
X32000000Y-12177500D03*
%TO.P,Y1,3,3*%
%TO.N,Net-(U4-XO)*%
X32000000Y-13877500D03*
%TO.P,Y1,4,4*%
%TO.N,GND*%
X34200000Y-13877500D03*
%TD*%
D10*
%TO.P,U5,1,IO1*%
%TO.N,/USB3_D+*%
X85862500Y-13700000D03*
%TO.P,U5,2,IO2*%
%TO.N,/USB3_D-*%
X85862500Y-14200000D03*
D11*
%TO.P,U5,3,GND*%
%TO.N,GND*%
X85912500Y-14700000D03*
D10*
%TO.P,U5,4,D2+*%
%TO.N,unconnected-(U5-D2+-Pad4)*%
X85862500Y-15200000D03*
%TO.P,U5,5,D2-*%
%TO.N,unconnected-(U5-D2--Pad5)*%
X85862500Y-15700000D03*
%TO.P,U5,6,NC*%
X86737500Y-15700000D03*
%TO.P,U5,7,NC*%
%TO.N,unconnected-(U5-D2+-Pad4)*%
X86737500Y-15200000D03*
D11*
%TO.P,U5,8,GND*%
%TO.N,GND*%
X86687500Y-14700000D03*
D10*
%TO.P,U5,9,NC*%
%TO.N,/USB3_D-*%
X86737500Y-14200000D03*
%TO.P,U5,10,NC*%
%TO.N,/USB3_D+*%
X86737500Y-13700000D03*
%TD*%
D12*
%TO.P,C5,1*%
%TO.N,Net-(C4-Pad1)*%
X22250000Y-8170000D03*
%TO.P,C5,2*%
%TO.N,GND*%
X22250000Y-9130000D03*
%TD*%
D22*
%TO.P,R1,1*%
%TO.N,Net-(USB2-CC1)*%
X11203000Y-9375000D03*
%TO.P,R1,2*%
%TO.N,GND*%
X12223000Y-9375000D03*
%TD*%
D20*
%TO.P,C7,1*%
%TO.N,+5V*%
X22250000Y-7180000D03*
%TO.P,C7,2*%
%TO.N,GND*%
X22250000Y-6220000D03*
%TD*%
D14*
%TO.P,USB2,A1,GND*%
%TO.N,GND*%
X12223000Y-7695000D03*
%TO.P,USB2,A4,VBUS*%
%TO.N,+5V*%
X11448000Y-7695000D03*
D15*
%TO.P,USB2,A5,CC1*%
%TO.N,Net-(USB2-CC1)*%
X10248000Y-7695000D03*
%TO.P,USB2,A6,D+*%
%TO.N,/USBU_D+*%
X9248000Y-7695000D03*
%TO.P,USB2,A7,D-*%
%TO.N,/USBU_D-*%
X8748000Y-7695000D03*
%TO.P,USB2,A8,SBU1*%
%TO.N,unconnected-(USB2-SBU1-PadA8)*%
X7748000Y-7695000D03*
D14*
%TO.P,USB2,B1,GND*%
%TO.N,GND*%
X5773000Y-7695000D03*
%TO.P,USB2,B4,VBUS*%
%TO.N,+5V*%
X6548000Y-7695000D03*
D15*
%TO.P,USB2,B5,CC2*%
%TO.N,Net-(USB2-CC2)*%
X7248000Y-7695000D03*
%TO.P,USB2,B6,D+*%
%TO.N,/USBU_D+*%
X8248000Y-7695000D03*
%TO.P,USB2,B7,D-*%
%TO.N,/USBU_D-*%
X9748000Y-7695000D03*
%TO.P,USB2,B8,SBU2*%
%TO.N,unconnected-(USB2-SBU2-PadB8)*%
X10748000Y-7695000D03*
D16*
%TO.P,USB2,S1,SHIELD*%
%TO.N,GNDPWR*%
X13318000Y-6780000D03*
D17*
X13318000Y-2600000D03*
D16*
X4678000Y-6780000D03*
D17*
X4678000Y-2600000D03*
%TD*%
D28*
%TO.P,C1,1*%
%TO.N,+5V*%
X37000000Y-5250000D03*
%TO.P,C1,2*%
%TO.N,GND*%
X37000000Y-3350000D03*
%TD*%
D29*
%TO.P,USB4,1,VBUS*%
%TO.N,VBUS*%
X73062000Y-10550000D03*
%TO.P,USB4,2,D-*%
%TO.N,/USB2_D-*%
X70562000Y-10550000D03*
%TO.P,USB4,3,D+*%
%TO.N,/USB2_D+*%
X68562000Y-10550000D03*
%TO.P,USB4,4,GND*%
%TO.N,GND*%
X66062000Y-10550000D03*
D30*
%TO.P,USB4,5,Shield*%
%TO.N,GNDPWR*%
X75962000Y-9200000D03*
X75962000Y-3200000D03*
X63162000Y-9200000D03*
X63162000Y-3200000D03*
%TD*%
D31*
%TO.P,H2,1,1*%
%TO.N,GNDPWR*%
X2000000Y-2000000D03*
%TD*%
D21*
%TO.P,R2,1*%
%TO.N,Net-(USB2-CC2)*%
X6793000Y-9375000D03*
%TO.P,R2,2*%
%TO.N,GND*%
X5773000Y-9375000D03*
%TD*%
D32*
%TO.P,U1,1,OUT*%
%TO.N,VBUS*%
X39112500Y-2800000D03*
%TO.P,U1,2,GND*%
%TO.N,GND*%
X39112500Y-3750000D03*
%TO.P,U1,3,IN*%
%TO.N,+5V*%
X39112500Y-4700000D03*
%TO.P,U1,4,EN*%
X41387500Y-4700000D03*
%TO.P,U1,5,OUT*%
%TO.N,VBUS*%
X41387500Y-2800000D03*
%TD*%
D12*
%TO.P,C6,1*%
%TO.N,Net-(C6-Pad1)*%
X30350000Y-4482500D03*
%TO.P,C6,2*%
%TO.N,GND*%
X30350000Y-5442500D03*
%TD*%
D29*
%TO.P,USB1,1,VBUS*%
%TO.N,VBUS*%
X94292000Y-10550000D03*
%TO.P,USB1,2,D-*%
%TO.N,/USB3_D-*%
X91792000Y-10550000D03*
%TO.P,USB1,3,D+*%
%TO.N,/USB3_D+*%
X89792000Y-10550000D03*
%TO.P,USB1,4,GND*%
%TO.N,GND*%
X87292000Y-10550000D03*
D30*
%TO.P,USB1,5,Shield*%
%TO.N,GNDPWR*%
X97192000Y-9200000D03*
X97192000Y-3200000D03*
X84392000Y-9200000D03*
X84392000Y-3200000D03*
%TD*%
D33*
%TO.N,GND*%
X21430000Y-6220000D03*
X19700000Y-15450000D03*
X77944428Y-12425000D03*
X13000000Y-9375000D03*
X11800000Y-12100000D03*
X24772500Y-12427500D03*
X73944428Y-15001750D03*
X82944428Y-15001750D03*
X46500000Y-8500000D03*
X66062000Y-8600000D03*
X47700000Y-11500000D03*
X39850000Y-9200000D03*
X68944428Y-14001750D03*
X35750000Y-2100000D03*
X30350000Y-14750000D03*
X22944428Y-15001750D03*
X35944428Y-13001750D03*
X31142500Y-5442500D03*
X13800000Y-11700000D03*
X8944428Y-15001750D03*
X7944428Y-13001750D03*
X19944428Y-11001750D03*
X5000000Y-9375000D03*
X47944428Y-14001750D03*
X25944428Y-7001750D03*
X13944428Y-15001750D03*
X62944428Y-14001750D03*
X87700000Y-14700000D03*
X44100000Y-5300000D03*
X74944428Y-12425000D03*
X79944428Y-15001750D03*
X27827500Y-12427500D03*
X91944428Y-13001750D03*
X18900000Y-5000000D03*
X87300000Y-8600000D03*
X54572000Y-8500000D03*
X3944428Y-11001750D03*
X22250000Y-9900000D03*
X36944428Y-15001750D03*
X35944428Y-9001750D03*
X42800000Y-8550000D03*
X53725000Y-11225000D03*
X44900000Y-11500000D03*
X7944428Y-10001750D03*
X83944428Y-12450000D03*
X41944428Y-14001750D03*
X35750000Y-3100000D03*
X50944428Y-14001750D03*
X70944428Y-13001750D03*
X4944428Y-14001750D03*
X56944428Y-14001750D03*
X41000000Y-6700000D03*
X34200000Y-15000000D03*
X18192894Y-4292894D03*
X76944428Y-15001750D03*
X25944428Y-15001750D03*
X1944428Y-10001750D03*
X38250000Y-7600000D03*
X11800000Y-11200000D03*
X89400000Y-12750000D03*
X31200000Y-11100000D03*
X37944428Y-11001750D03*
X53944428Y-14001750D03*
X27944428Y-14001750D03*
X43100000Y-5300000D03*
X25944428Y-4001750D03*
X16600000Y-11700000D03*
X39944428Y-13001750D03*
X16944428Y-14800000D03*
X80944428Y-12425000D03*
X84900000Y-14700000D03*
X50944428Y-11001750D03*
X65944428Y-14001750D03*
X89944428Y-15001750D03*
X18350000Y-8400000D03*
X26944428Y-9001750D03*
X44944428Y-14001750D03*
X33400000Y-10400000D03*
%TO.N,+5V*%
X14800002Y-7700000D03*
X35750000Y-4350000D03*
X21430000Y-7180000D03*
X15800000Y-7700000D03*
X35750000Y-5350000D03*
%TO.N,VBUS*%
X43100000Y-2150000D03*
X73062000Y-8600000D03*
X44100000Y-2150000D03*
X52224911Y-6254900D03*
X6200000Y-12100000D03*
X48859089Y-6254900D03*
X94292000Y-8600000D03*
X6200000Y-11200000D03*
%TD*%
D34*
%TO.N,GND*%
X30350000Y-14750000D02*
X30350000Y-13980000D01*
D35*
X15587500Y-11700000D02*
X16600000Y-11700000D01*
D34*
X12223000Y-9375000D02*
X13000000Y-9375000D01*
X32000000Y-11900000D02*
X32000000Y-12177500D01*
D36*
X46556000Y-8500000D02*
X47317000Y-7739000D01*
X47317000Y-7739000D02*
X47317000Y-7695000D01*
D35*
X28900000Y-5442500D02*
X30350000Y-5442500D01*
D34*
X5773000Y-9375000D02*
X5773000Y-7695000D01*
D35*
X14812500Y-11700000D02*
X13800000Y-11700000D01*
D34*
X34200000Y-13877500D02*
X34200000Y-15000000D01*
X31120000Y-11020000D02*
X30350000Y-11020000D01*
D35*
X46687500Y-11500000D02*
X47700000Y-11500000D01*
X86687500Y-14700000D02*
X85912500Y-14700000D01*
D36*
X54572000Y-8500000D02*
X54486000Y-8500000D01*
D34*
X22250000Y-9130000D02*
X22250000Y-9900000D01*
D35*
X45912500Y-11500000D02*
X46687500Y-11500000D01*
D37*
X87292000Y-8608000D02*
X87292000Y-10550000D01*
D34*
X31200000Y-11100000D02*
X32000000Y-11900000D01*
D35*
X27827500Y-12427500D02*
X28900000Y-12427500D01*
D36*
X53767000Y-7781000D02*
X53767000Y-7695000D01*
D34*
X31142500Y-5442500D02*
X30350000Y-5442500D01*
D35*
X45912500Y-11500000D02*
X44900000Y-11500000D01*
X86687500Y-14700000D02*
X87700000Y-14700000D01*
D34*
X12223000Y-7695000D02*
X12223000Y-9375000D01*
X21430000Y-6220000D02*
X22250000Y-6220000D01*
X21200000Y-9130000D02*
X22250000Y-9130000D01*
D35*
X85912500Y-14700000D02*
X84900000Y-14700000D01*
D34*
X31200000Y-11100000D02*
X31120000Y-11020000D01*
D37*
X66062000Y-8600000D02*
X66062000Y-10550000D01*
D36*
X46500000Y-8500000D02*
X46556000Y-8500000D01*
D37*
X87300000Y-8600000D02*
X87292000Y-8608000D01*
D36*
X54486000Y-8500000D02*
X53767000Y-7781000D01*
D35*
X24772500Y-12427500D02*
X23700000Y-12427500D01*
D34*
X5000000Y-9375000D02*
X5773000Y-9375000D01*
%TO.N,+5V*%
X6548000Y-7695000D02*
X6548000Y-6982383D01*
D35*
X23700000Y-7347500D02*
X22997500Y-7347500D01*
D34*
X21430000Y-7180000D02*
X22250000Y-7180000D01*
X11448000Y-6982383D02*
X11448000Y-7695000D01*
D35*
X22997500Y-7347500D02*
X22830000Y-7180000D01*
X22830000Y-7180000D02*
X22250000Y-7180000D01*
D34*
X6548000Y-6982383D02*
X7630383Y-5900000D01*
X10365617Y-5900000D02*
X11448000Y-6982383D01*
%TO.N,VBUS*%
X48092000Y-9375000D02*
X48092000Y-7695000D01*
X52224911Y-6254900D02*
X52992000Y-7021989D01*
X48092000Y-7021989D02*
X48859089Y-6254900D01*
X52992000Y-7695000D02*
X52992000Y-9375000D01*
X48092000Y-7695000D02*
X48092000Y-7021989D01*
D37*
X94292000Y-8600000D02*
X94292000Y-10550000D01*
X73062000Y-8600000D02*
X73062000Y-10550000D01*
D34*
X52992000Y-7021989D02*
X52992000Y-7695000D01*
D38*
%TO.N,Net-(USB3-CC1)*%
X51792000Y-8692000D02*
X51972000Y-8872000D01*
X51792000Y-7695000D02*
X51792000Y-8692000D01*
X51972000Y-8872000D02*
X51972000Y-9375000D01*
%TO.N,Net-(USB3-CC2)*%
X48792000Y-8592000D02*
X48792000Y-7695000D01*
X49112000Y-9375000D02*
X49112000Y-8912000D01*
X49112000Y-8912000D02*
X48792000Y-8592000D01*
D39*
%TO.N,/USB1_D+*%
X50792000Y-7026272D02*
X50792000Y-7695000D01*
X43189074Y-10500000D02*
X38915024Y-6225950D01*
X45862500Y-10500000D02*
X43189074Y-10500000D01*
X49872950Y-8350950D02*
X49872950Y-9687976D01*
X50080822Y-6737450D02*
X50503178Y-6737450D01*
X49792000Y-7695000D02*
X49792000Y-7026272D01*
X49060926Y-10500000D02*
X46737500Y-10500000D01*
X46737500Y-10500000D02*
X45862500Y-10500000D01*
X49792000Y-7026272D02*
X50080822Y-6737450D01*
X49792000Y-8270000D02*
X49872950Y-8350950D01*
X29048450Y-6225950D02*
X28900000Y-6077500D01*
X49872950Y-9687976D02*
X49060926Y-10500000D01*
X38915024Y-6225950D02*
X29048450Y-6225950D01*
X50503178Y-6737450D02*
X50792000Y-7026272D01*
X49792000Y-7695000D02*
X49792000Y-8270000D01*
%TO.N,/USB2_D+*%
X45862500Y-12000000D02*
X45518599Y-12000000D01*
X69392950Y-12267976D02*
X69179976Y-12480950D01*
X68562000Y-10550000D02*
X68562000Y-11250000D01*
X47100000Y-12000000D02*
X46737500Y-12000000D01*
X69179976Y-12480950D02*
X48120024Y-12480950D01*
X45862500Y-12000000D02*
X46737500Y-12000000D01*
X68562000Y-11250000D02*
X69392950Y-12080950D01*
X29048450Y-7495950D02*
X28900000Y-7347500D01*
X45518599Y-12000000D02*
X45356699Y-12161900D01*
X36635024Y-7495950D02*
X29048450Y-7495950D01*
X41300974Y-12161900D02*
X36635024Y-7495950D01*
X47261900Y-12161900D02*
X47100000Y-12000000D01*
X69392950Y-12080950D02*
X69392950Y-12267976D01*
X47800974Y-12161900D02*
X47261900Y-12161900D01*
X48120024Y-12480950D02*
X47800974Y-12161900D01*
X45356699Y-12161900D02*
X41300974Y-12161900D01*
%TO.N,/USB2_D-*%
X69731050Y-12080950D02*
X69731050Y-12408024D01*
X70562000Y-10550000D02*
X70562000Y-11250000D01*
X45862500Y-12500000D02*
X41160926Y-12500000D01*
X29048450Y-7834050D02*
X28900000Y-7982500D01*
X41160926Y-12500000D02*
X36494976Y-7834050D01*
X69320024Y-12819050D02*
X47979976Y-12819050D01*
X47660926Y-12500000D02*
X46737500Y-12500000D01*
X70562000Y-11250000D02*
X69731050Y-12080950D01*
X45862500Y-12500000D02*
X46737500Y-12500000D01*
X47979976Y-12819050D02*
X47660926Y-12500000D01*
X69731050Y-12408024D02*
X69320024Y-12819050D01*
X36494976Y-7834050D02*
X29048450Y-7834050D01*
%TO.N,/USB1_D-*%
X47062801Y-11000000D02*
X47224701Y-10838100D01*
X47224701Y-10838100D02*
X49200972Y-10838100D01*
X45862500Y-11000000D02*
X45561900Y-11000000D01*
X46737500Y-11000000D02*
X45862500Y-11000000D01*
X49200972Y-10838100D02*
X50211050Y-9828022D01*
X51003178Y-8652550D02*
X51292000Y-8363728D01*
X45561900Y-11000000D02*
X45400000Y-10838100D01*
X50292000Y-7695000D02*
X50292000Y-8363728D01*
X29048450Y-6564050D02*
X28900000Y-6712500D01*
X43049026Y-10838100D02*
X38774976Y-6564050D01*
X46737500Y-11000000D02*
X47062801Y-11000000D01*
X50292000Y-8363728D02*
X50580822Y-8652550D01*
X38774976Y-6564050D02*
X29048450Y-6564050D01*
X45400000Y-10838100D02*
X43049026Y-10838100D01*
X50211050Y-9828022D02*
X50211050Y-8350950D01*
X50580822Y-8652550D02*
X51003178Y-8652550D01*
X50292000Y-8270000D02*
X50292000Y-7695000D01*
X50211050Y-8350950D02*
X50292000Y-8270000D01*
X51292000Y-8363728D02*
X51292000Y-7695000D01*
%TO.N,/USBU_D+*%
X17700972Y-11038100D02*
X19569050Y-9170022D01*
X22799999Y-4807500D02*
X23700000Y-4807500D01*
X9248000Y-7695000D02*
X9248000Y-8363728D01*
X21730024Y-4659050D02*
X22651549Y-4659050D01*
X12829978Y-10469050D02*
X10673916Y-10469050D01*
X10673916Y-10469050D02*
X9328950Y-9124084D01*
X19569050Y-6820024D02*
X21730024Y-4659050D01*
X8248000Y-8363728D02*
X8248000Y-7695000D01*
X9328950Y-8350950D02*
X9248000Y-8270000D01*
X14175299Y-11038100D02*
X13399028Y-11038100D01*
X13399028Y-11038100D02*
X12829978Y-10469050D01*
X9328950Y-9124084D02*
X9328950Y-8350950D01*
X22651549Y-4659050D02*
X22799999Y-4807500D01*
X8536822Y-8652550D02*
X8248000Y-8363728D01*
X15637500Y-11200000D02*
X16062801Y-11200000D01*
X16224701Y-11038100D02*
X17700972Y-11038100D01*
X16062801Y-11200000D02*
X16224701Y-11038100D01*
X9248000Y-8363728D02*
X8959177Y-8652550D01*
X8959177Y-8652550D02*
X8536822Y-8652550D01*
X9248000Y-8270000D02*
X9248000Y-7695000D01*
X14762500Y-11200000D02*
X15637500Y-11200000D01*
X14337199Y-11200000D02*
X14175299Y-11038100D01*
X19569050Y-9170022D02*
X19569050Y-6820024D01*
X14762500Y-11200000D02*
X14337199Y-11200000D01*
%TO.N,/USBU_D-*%
X22799999Y-4172500D02*
X22651549Y-4320950D01*
X9748000Y-7695000D02*
X9748000Y-8270000D01*
X9667050Y-8350950D02*
X9667050Y-8984036D01*
X19230950Y-9029976D02*
X17560926Y-10700000D01*
X8748000Y-7026272D02*
X9036822Y-6737450D01*
X9459178Y-6737450D02*
X9748000Y-7026272D01*
X8748000Y-7695000D02*
X8748000Y-7026272D01*
X10813964Y-10130950D02*
X12970024Y-10130950D01*
X19230950Y-6679976D02*
X19230950Y-9029976D01*
X14762500Y-10700000D02*
X15637500Y-10700000D01*
X17560926Y-10700000D02*
X15637500Y-10700000D01*
X9748000Y-8270000D02*
X9667050Y-8350950D01*
X9748000Y-7026272D02*
X9748000Y-7695000D01*
X9667050Y-8984036D02*
X10813964Y-10130950D01*
X12970024Y-10130950D02*
X13539074Y-10700000D01*
X21589976Y-4320950D02*
X19230950Y-6679976D01*
X13539074Y-10700000D02*
X14762500Y-10700000D01*
X9036822Y-6737450D02*
X9459178Y-6737450D01*
X22651549Y-4320950D02*
X21589976Y-4320950D01*
X23700000Y-4172500D02*
X22799999Y-4172500D01*
%TO.N,/USB4_D-*%
X8400000Y-11650000D02*
X8400000Y-11800000D01*
X28900000Y-10522500D02*
X28751550Y-10374050D01*
X28751550Y-10374050D02*
X27265024Y-10374050D01*
X8830950Y-12870024D02*
X9429976Y-13469050D01*
X14762500Y-12700000D02*
X15637500Y-12700000D01*
X13839074Y-12700000D02*
X14762500Y-12700000D01*
X8830950Y-12230950D02*
X8830950Y-12870024D01*
X27265024Y-10374050D02*
X26469050Y-11170024D01*
X26469050Y-12170024D02*
X25170024Y-13469050D01*
X9429976Y-13469050D02*
X13070024Y-13469050D01*
X13070024Y-13469050D02*
X13839074Y-12700000D01*
X25170024Y-13469050D02*
X18029976Y-13469050D01*
X17260926Y-12700000D02*
X15637500Y-12700000D01*
X26469050Y-11170024D02*
X26469050Y-12170024D01*
X8400000Y-11800000D02*
X8830950Y-12230950D01*
X18029976Y-13469050D02*
X17260926Y-12700000D01*
%TO.N,/USB4_D+*%
X26130950Y-11029976D02*
X27124976Y-10035950D01*
X13699028Y-12361900D02*
X12929978Y-13130950D01*
X16062801Y-12200000D02*
X16224701Y-12361900D01*
X27124976Y-10035950D02*
X28751550Y-10035950D01*
X25029976Y-13130950D02*
X26130950Y-12029976D01*
X18170022Y-13130950D02*
X25029976Y-13130950D01*
X17400972Y-12361900D02*
X18170022Y-13130950D01*
X9169050Y-12230950D02*
X9600000Y-11800000D01*
X28751550Y-10035950D02*
X28900000Y-9887500D01*
X12929978Y-13130950D02*
X9570024Y-13130950D01*
X14762500Y-12200000D02*
X15637500Y-12200000D01*
X15637500Y-12200000D02*
X16062801Y-12200000D01*
X14762500Y-12200000D02*
X14337199Y-12200000D01*
X16224701Y-12361900D02*
X17400972Y-12361900D01*
X26130950Y-12029976D02*
X26130950Y-11029976D01*
X9600000Y-11800000D02*
X9600000Y-11650000D01*
X9570024Y-13130950D02*
X9169050Y-12729976D01*
X14175299Y-12361900D02*
X13699028Y-12361900D01*
X9169050Y-12729976D02*
X9169050Y-12230950D01*
X14337199Y-12200000D02*
X14175299Y-12361900D01*
%TO.N,/USB3_D-*%
X73220024Y-14119050D02*
X71570024Y-15769050D01*
X89900972Y-14038100D02*
X89969536Y-13969536D01*
X91792000Y-11250000D02*
X91792000Y-10550000D01*
X90961050Y-12978022D02*
X90961050Y-12080950D01*
X85275299Y-14038100D02*
X73300974Y-14038100D01*
X85437199Y-14200000D02*
X85275299Y-14038100D01*
X90961050Y-12080950D02*
X91792000Y-11250000D01*
X40629976Y-15769050D02*
X33964976Y-9104050D01*
X87324701Y-14038100D02*
X89900972Y-14038100D01*
X86737500Y-14200000D02*
X87162801Y-14200000D01*
X29048450Y-9104050D02*
X28900000Y-9252500D01*
X73300974Y-14038100D02*
X73220024Y-14119050D01*
X85862500Y-14200000D02*
X86737500Y-14200000D01*
X87162801Y-14200000D02*
X87324701Y-14038100D01*
X89969536Y-13969536D02*
X90961050Y-12978022D01*
X71570024Y-15769050D02*
X40629976Y-15769050D01*
X33964976Y-9104050D02*
X29048450Y-9104050D01*
X85862500Y-14200000D02*
X85437199Y-14200000D01*
%TO.N,/USB3_D+*%
X73160926Y-13700000D02*
X71429976Y-15430950D01*
X29048450Y-8765950D02*
X28900000Y-8617500D01*
X34105024Y-8765950D02*
X29048450Y-8765950D01*
X85862500Y-13700000D02*
X86737500Y-13700000D01*
X89792000Y-10550000D02*
X89792000Y-11250000D01*
X90622950Y-12837976D02*
X89760926Y-13700000D01*
X40770024Y-15430950D02*
X34105024Y-8765950D01*
X85862500Y-13700000D02*
X73160926Y-13700000D01*
X89792000Y-11250000D02*
X90622950Y-12080950D01*
X71429976Y-15430950D02*
X40770024Y-15430950D01*
X89760926Y-13700000D02*
X86737500Y-13700000D01*
X90622950Y-12080950D02*
X90622950Y-12837976D01*
D35*
%TO.N,Net-(C4-Pad1)*%
X23700000Y-7982500D02*
X22967500Y-7982500D01*
X22780000Y-8170000D02*
X22250000Y-8170000D01*
X22967500Y-7982500D02*
X22780000Y-8170000D01*
D34*
X21200000Y-8170000D02*
X22250000Y-8170000D01*
D35*
%TO.N,Net-(C6-Pad1)*%
X29592500Y-4807500D02*
X29917500Y-4482500D01*
X28900000Y-4807500D02*
X29592500Y-4807500D01*
X29917500Y-4482500D02*
X30350000Y-4482500D01*
D38*
%TO.N,Net-(U4-XO)*%
X29800000Y-12100000D02*
X29492500Y-11792500D01*
X30350000Y-13020000D02*
X29800000Y-12470000D01*
X29800000Y-12470000D02*
X29800000Y-12100000D01*
X29492500Y-11792500D02*
X28900000Y-11792500D01*
X32000000Y-13877500D02*
X31207500Y-13877500D01*
X31207500Y-13877500D02*
X30350000Y-13020000D01*
%TO.N,Net-(U4-XI)*%
X31227499Y-13027499D02*
X30350000Y-12150000D01*
X34200000Y-12177500D02*
X33350001Y-13027499D01*
X33350001Y-13027499D02*
X31227499Y-13027499D01*
X29527500Y-11157500D02*
X28900000Y-11157500D01*
X30350000Y-12150000D02*
X30350000Y-11980000D01*
X30350000Y-11980000D02*
X29527500Y-11157500D01*
%TO.N,Net-(USB2-CC1)*%
X11100000Y-9375000D02*
X11203000Y-9375000D01*
X10248000Y-7695000D02*
X10248000Y-8523000D01*
X10248000Y-8523000D02*
X11100000Y-9375000D01*
%TO.N,Net-(USB2-CC2)*%
X7248000Y-8877000D02*
X6793000Y-9332000D01*
X7248000Y-7695000D02*
X7248000Y-8877000D01*
X6793000Y-9332000D02*
X6793000Y-9375000D01*
D39*
%TO.N,unconnected-(U5-D2+-Pad4)*%
X86737500Y-15200000D02*
X85862500Y-15200000D01*
%TO.N,unconnected-(U5-D2--Pad5)*%
X86737500Y-15700000D02*
X85862500Y-15700000D01*
%TD*%
%TA.AperFunction,Conductor*%
%TO.N,VBUS*%
G36*
X44261980Y-1652383D02*
G01*
X44321480Y-1664218D01*
X44366175Y-1682730D01*
X44406272Y-1709522D01*
X44440477Y-1743727D01*
X44467267Y-1783822D01*
X44485781Y-1828517D01*
X44497617Y-1888022D01*
X44500000Y-1912210D01*
X44500000Y-4487148D01*
X44480315Y-4554187D01*
X44427511Y-4599942D01*
X44358353Y-4609886D01*
X44351811Y-4608766D01*
X44314220Y-4601289D01*
X44314219Y-4601289D01*
X44310834Y-4600787D01*
X44299391Y-4599090D01*
X44299383Y-4599089D01*
X44299375Y-4599088D01*
X44299374Y-4599088D01*
X44260275Y-4595236D01*
X44260276Y-4595236D01*
X44254654Y-4594960D01*
X44245290Y-4594500D01*
X42954714Y-4594500D01*
X42939738Y-4595235D01*
X42900628Y-4599086D01*
X42900623Y-4599086D01*
X42900620Y-4599087D01*
X42900621Y-4599087D01*
X42896188Y-4599744D01*
X42885791Y-4601286D01*
X42885790Y-4601286D01*
X42885786Y-4601287D01*
X42818919Y-4614588D01*
X42818914Y-4614589D01*
X42761607Y-4631972D01*
X42727040Y-4646290D01*
X42716921Y-4650482D01*
X42716916Y-4650484D01*
X42687950Y-4665966D01*
X42619547Y-4680206D01*
X42554303Y-4655204D01*
X42512935Y-4598897D01*
X42505500Y-4556606D01*
X42505500Y-4504714D01*
X42504764Y-4489721D01*
X42502778Y-4469570D01*
X42500910Y-4450608D01*
X42498710Y-4435776D01*
X42485411Y-4368918D01*
X42468025Y-4311603D01*
X42449511Y-4266908D01*
X42449508Y-4266901D01*
X42429394Y-4229273D01*
X42421283Y-4214098D01*
X42421281Y-4214095D01*
X42421280Y-4214092D01*
X42394502Y-4174016D01*
X42394489Y-4173998D01*
X42356493Y-4127700D01*
X42322298Y-4093505D01*
X42292341Y-4068920D01*
X42275999Y-4055508D01*
X42274450Y-4054473D01*
X42235907Y-4028719D01*
X42235889Y-4028708D01*
X42183085Y-4000485D01*
X42183075Y-4000480D01*
X42138382Y-3981969D01*
X42081083Y-3964588D01*
X42014220Y-3951289D01*
X42014219Y-3951289D01*
X42010834Y-3950787D01*
X41999391Y-3949090D01*
X41999383Y-3949089D01*
X41999375Y-3949088D01*
X41999374Y-3949088D01*
X41960275Y-3945236D01*
X41960276Y-3945236D01*
X41954654Y-3944960D01*
X41945290Y-3944500D01*
X41945285Y-3944500D01*
X40229500Y-3944500D01*
X40162461Y-3924815D01*
X40116706Y-3872011D01*
X40105500Y-3820500D01*
X40105500Y-3554714D01*
X40104764Y-3539725D01*
X40100912Y-3500626D01*
X40100912Y-3500625D01*
X40100911Y-3500618D01*
X40100910Y-3500608D01*
X40098710Y-3485773D01*
X40098709Y-3485771D01*
X40098708Y-3485760D01*
X40088018Y-3432019D01*
X40083559Y-3414865D01*
X40072009Y-3379103D01*
X40068852Y-3369840D01*
X40040513Y-3321385D01*
X40012174Y-3272929D01*
X39966419Y-3220125D01*
X39966417Y-3220123D01*
X39966407Y-3220112D01*
X39921691Y-3177951D01*
X39921688Y-3177949D01*
X39921686Y-3177947D01*
X39821610Y-3127061D01*
X39821609Y-3127060D01*
X39821608Y-3127060D01*
X39754577Y-3107377D01*
X39754571Y-3107376D01*
X39668499Y-3095000D01*
X39668496Y-3095000D01*
X38596433Y-3095000D01*
X38555469Y-3088038D01*
X38549112Y-3085813D01*
X38516446Y-3068548D01*
X38511351Y-3064788D01*
X38485209Y-3038646D01*
X38481450Y-3033553D01*
X38464183Y-3000880D01*
X38463888Y-3000039D01*
X38440708Y-2933794D01*
X38440707Y-2933794D01*
X38431640Y-2907882D01*
X38430908Y-2907221D01*
X38420426Y-2885746D01*
X38419143Y-2882313D01*
X38419140Y-2882308D01*
X38419138Y-2882301D01*
X38385677Y-2821084D01*
X38333630Y-2751588D01*
X37907054Y-2325012D01*
X37907053Y-2325012D01*
X37907047Y-2325005D01*
X37907046Y-2325005D01*
X37894880Y-2314077D01*
X37894881Y-2314077D01*
X37867866Y-2292308D01*
X37862325Y-2287947D01*
X37762247Y-2237060D01*
X37695216Y-2217377D01*
X37695210Y-2217376D01*
X37609138Y-2205000D01*
X37609135Y-2205000D01*
X37438130Y-2205000D01*
X37397181Y-2198043D01*
X37393854Y-2196879D01*
X37361161Y-2179599D01*
X37358486Y-2177625D01*
X37332366Y-2151503D01*
X37330396Y-2148834D01*
X37313112Y-2116125D01*
X37311949Y-2112799D01*
X37305000Y-2071870D01*
X37305000Y-1774000D01*
X37324685Y-1706961D01*
X37377489Y-1661206D01*
X37429000Y-1650000D01*
X44237789Y-1650000D01*
X44261980Y-1652383D01*
G37*
%TD.AperFunction*%
%TD*%
%TA.AperFunction,Conductor*%
%TO.N,GND*%
G36*
X4060135Y-7919685D02*
G01*
X4083119Y-7938725D01*
X4124149Y-7982040D01*
X4135646Y-7989835D01*
X4277270Y-8085858D01*
X4277273Y-8085859D01*
X4277276Y-8085861D01*
X4449122Y-8154330D01*
X4449125Y-8154331D01*
X4631683Y-8184260D01*
X4816407Y-8174245D01*
X4816411Y-8174244D01*
X4994656Y-8124755D01*
X5000907Y-8122265D01*
X5001802Y-8124511D01*
X5059362Y-8112727D01*
X5124522Y-8137944D01*
X5165705Y-8194386D01*
X5173001Y-8236293D01*
X5173001Y-8394165D01*
X5183195Y-8464141D01*
X5235964Y-8572082D01*
X5320917Y-8657035D01*
X5321747Y-8657441D01*
X5322683Y-8658296D01*
X5329281Y-8663007D01*
X5328711Y-8663804D01*
X5373329Y-8704569D01*
X5391244Y-8772103D01*
X5369803Y-8838602D01*
X5340922Y-8868611D01*
X5326935Y-8878933D01*
X5249066Y-8984440D01*
X5249065Y-8984442D01*
X5205757Y-9108207D01*
X5205755Y-9108219D01*
X5203000Y-9137601D01*
X5203000Y-9612398D01*
X5205755Y-9641780D01*
X5205757Y-9641792D01*
X5249065Y-9765557D01*
X5249066Y-9765559D01*
X5326934Y-9871065D01*
X5432440Y-9948933D01*
X5432442Y-9948934D01*
X5556207Y-9992242D01*
X5556219Y-9992244D01*
X5585602Y-9995000D01*
X5960398Y-9995000D01*
X5989780Y-9992244D01*
X5989792Y-9992242D01*
X6113557Y-9948934D01*
X6113560Y-9948933D01*
X6208943Y-9878535D01*
X6274571Y-9854563D01*
X6342742Y-9869878D01*
X6356212Y-9878534D01*
X6452206Y-9949381D01*
X6493511Y-9963834D01*
X6576119Y-9992741D01*
X6583796Y-9993460D01*
X6605543Y-9995500D01*
X6980456Y-9995499D01*
X7009879Y-9992741D01*
X7133794Y-9949381D01*
X7239423Y-9871423D01*
X7317381Y-9765794D01*
X7339230Y-9703354D01*
X7360741Y-9641881D01*
X7360741Y-9641879D01*
X7361864Y-9629900D01*
X7363500Y-9612457D01*
X7363499Y-9379254D01*
X7383183Y-9312215D01*
X7399813Y-9291578D01*
X7553483Y-9137909D01*
X7553483Y-9137908D01*
X7576050Y-9115342D01*
X7586106Y-9095603D01*
X7596270Y-9079016D01*
X7609296Y-9061090D01*
X7616142Y-9040016D01*
X7623585Y-9022047D01*
X7633646Y-9002304D01*
X7637112Y-8980417D01*
X7641655Y-8961498D01*
X7644027Y-8954198D01*
X7648500Y-8940433D01*
X7648500Y-8844498D01*
X7668185Y-8777460D01*
X7720989Y-8731705D01*
X7772500Y-8720499D01*
X7872220Y-8720499D01*
X7919820Y-8713563D01*
X7942286Y-8710291D01*
X7942287Y-8710290D01*
X7948831Y-8709337D01*
X8018008Y-8719150D01*
X8054390Y-8744360D01*
X8274431Y-8964402D01*
X8274452Y-8964421D01*
X8295177Y-8985146D01*
X8315308Y-8995402D01*
X8331892Y-9005564D01*
X8350181Y-9018853D01*
X8371678Y-9025837D01*
X8389646Y-9033280D01*
X8409782Y-9043540D01*
X8432099Y-9047074D01*
X8451013Y-9051614D01*
X8472510Y-9058600D01*
X8504868Y-9058600D01*
X8798900Y-9058600D01*
X8865939Y-9078285D01*
X8911694Y-9131089D01*
X8922900Y-9182600D01*
X8922900Y-9188397D01*
X8929884Y-9209890D01*
X8934425Y-9228805D01*
X8935301Y-9234334D01*
X8937960Y-9251125D01*
X8948219Y-9271260D01*
X8955662Y-9289231D01*
X8962644Y-9310720D01*
X8962646Y-9310724D01*
X8975930Y-9329007D01*
X8986096Y-9345597D01*
X8996353Y-9365727D01*
X8996355Y-9365730D01*
X9017671Y-9387046D01*
X9017697Y-9387074D01*
X10122101Y-10491476D01*
X10155586Y-10552799D01*
X10150602Y-10622490D01*
X10108731Y-10678424D01*
X10043266Y-10702841D01*
X10022847Y-10702616D01*
X9999901Y-10700464D01*
X9989610Y-10699500D01*
X9210390Y-10699500D01*
X9210386Y-10699500D01*
X9178838Y-10702458D01*
X9178826Y-10702460D01*
X9040955Y-10750705D01*
X8971176Y-10754268D01*
X8959045Y-10750705D01*
X8821173Y-10702460D01*
X8821161Y-10702458D01*
X8789614Y-10699500D01*
X8789610Y-10699500D01*
X8010390Y-10699500D01*
X8010386Y-10699500D01*
X7978838Y-10702458D01*
X7978826Y-10702460D01*
X7840955Y-10750705D01*
X7771176Y-10754268D01*
X7759045Y-10750705D01*
X7621173Y-10702460D01*
X7621161Y-10702458D01*
X7589614Y-10699500D01*
X7589610Y-10699500D01*
X6810390Y-10699500D01*
X6810386Y-10699500D01*
X6778838Y-10702458D01*
X6778827Y-10702460D01*
X6733210Y-10718422D01*
X6663431Y-10721983D01*
X6610030Y-10694196D01*
X6592227Y-10678424D01*
X6572240Y-10660717D01*
X6572238Y-10660716D01*
X6572237Y-10660715D01*
X6432365Y-10587303D01*
X6278986Y-10549500D01*
X6278985Y-10549500D01*
X6121015Y-10549500D01*
X6121014Y-10549500D01*
X5967634Y-10587303D01*
X5827762Y-10660715D01*
X5709516Y-10765471D01*
X5619781Y-10895475D01*
X5619780Y-10895476D01*
X5563762Y-11043181D01*
X5544722Y-11199999D01*
X5544722Y-11200000D01*
X5563762Y-11356818D01*
X5611681Y-11483168D01*
X5619780Y-11504523D01*
X5656053Y-11557074D01*
X5671574Y-11579560D01*
X5693457Y-11645915D01*
X5675991Y-11713566D01*
X5671574Y-11720440D01*
X5619781Y-11795475D01*
X5619780Y-11795476D01*
X5563762Y-11943181D01*
X5544722Y-12099999D01*
X5544722Y-12100000D01*
X5563762Y-12256818D01*
X5611556Y-12382838D01*
X5619780Y-12404523D01*
X5709517Y-12534530D01*
X5827760Y-12639283D01*
X5827762Y-12639284D01*
X5967634Y-12712696D01*
X6121014Y-12750500D01*
X6121015Y-12750500D01*
X6278985Y-12750500D01*
X6432365Y-12712696D01*
X6572233Y-12639287D01*
X6572234Y-12639285D01*
X6572240Y-12639283D01*
X6610032Y-12605801D01*
X6673263Y-12576082D01*
X6733212Y-12581576D01*
X6778834Y-12597541D01*
X6778837Y-12597541D01*
X6778840Y-12597542D01*
X6810386Y-12600500D01*
X6810390Y-12600500D01*
X7589614Y-12600500D01*
X7603634Y-12599184D01*
X7621166Y-12597541D01*
X7754091Y-12551028D01*
X7754094Y-12551025D01*
X7759043Y-12549294D01*
X7828822Y-12545731D01*
X7840955Y-12549294D01*
X7845907Y-12551027D01*
X7845909Y-12551028D01*
X7978834Y-12597541D01*
X7994612Y-12599020D01*
X8010386Y-12600500D01*
X8010390Y-12600500D01*
X8300900Y-12600500D01*
X8367939Y-12620185D01*
X8413694Y-12672989D01*
X8424900Y-12724500D01*
X8424900Y-12934337D01*
X8431884Y-12955830D01*
X8436425Y-12974745D01*
X8436607Y-12975892D01*
X8439960Y-12997065D01*
X8450219Y-13017200D01*
X8457662Y-13035171D01*
X8464644Y-13056660D01*
X8464646Y-13056664D01*
X8477930Y-13074947D01*
X8488096Y-13091537D01*
X8498353Y-13111667D01*
X8498355Y-13111670D01*
X8519671Y-13132986D01*
X8519698Y-13133015D01*
X9167584Y-13780901D01*
X9167606Y-13780921D01*
X9188331Y-13801646D01*
X9208462Y-13811902D01*
X9225046Y-13822064D01*
X9243335Y-13835353D01*
X9264832Y-13842337D01*
X9282800Y-13849780D01*
X9302936Y-13860040D01*
X9325253Y-13863574D01*
X9344167Y-13868114D01*
X9365664Y-13875100D01*
X9398022Y-13875100D01*
X10463704Y-13875100D01*
X10530743Y-13894785D01*
X10576498Y-13947589D01*
X10586442Y-14016747D01*
X10574188Y-14055396D01*
X10564353Y-14074696D01*
X10564352Y-14074698D01*
X10549500Y-14168475D01*
X10549500Y-14168480D01*
X10549500Y-14168481D01*
X10549500Y-15055143D01*
X10549501Y-15875500D01*
X10529816Y-15942539D01*
X10477013Y-15988294D01*
X10425501Y-15999500D01*
X7574500Y-15999500D01*
X7507461Y-15979815D01*
X7461706Y-15927011D01*
X7450500Y-15875500D01*
X7450499Y-14168482D01*
X7439960Y-14101938D01*
X7435646Y-14074696D01*
X7378050Y-13961658D01*
X7378046Y-13961654D01*
X7378045Y-13961652D01*
X7288347Y-13871954D01*
X7288344Y-13871952D01*
X7288342Y-13871950D01*
X7211517Y-13832805D01*
X7175301Y-13814352D01*
X7081524Y-13799500D01*
X7081519Y-13799500D01*
X6843429Y-13799500D01*
X6835330Y-13798969D01*
X6813733Y-13796126D01*
X6800001Y-13794318D01*
X6799999Y-13794318D01*
X6785076Y-13796282D01*
X6764668Y-13798969D01*
X6756570Y-13799500D01*
X6043431Y-13799500D01*
X6035336Y-13798969D01*
X6008702Y-13795463D01*
X6000001Y-13794318D01*
X6000000Y-13794318D01*
X5994152Y-13795087D01*
X5964661Y-13798969D01*
X5956562Y-13799500D01*
X5768482Y-13799500D01*
X5690204Y-13811898D01*
X5674696Y-13814354D01*
X5561658Y-13871950D01*
X5561656Y-13871951D01*
X5561657Y-13871951D01*
X5561652Y-13871954D01*
X5471954Y-13961652D01*
X5471951Y-13961657D01*
X5414352Y-14074698D01*
X5399500Y-14168475D01*
X5399500Y-14356570D01*
X5398969Y-14364670D01*
X5394318Y-14400000D01*
X5398878Y-14434641D01*
X5398969Y-14435326D01*
X5399500Y-14443427D01*
X5399500Y-15212742D01*
X5399501Y-15875500D01*
X5379816Y-15942539D01*
X5327013Y-15988294D01*
X5275501Y-15999500D01*
X2546503Y-15999500D01*
X2479464Y-15979815D01*
X2433709Y-15927011D01*
X2423765Y-15857853D01*
X2452790Y-15794297D01*
X2495427Y-15762508D01*
X2662965Y-15686776D01*
X2662967Y-15686775D01*
X2662967Y-15686774D01*
X2662971Y-15686773D01*
X2854000Y-15557659D01*
X3020462Y-15398119D01*
X3157566Y-15212742D01*
X3261370Y-15006860D01*
X3328886Y-14786397D01*
X3358172Y-14557694D01*
X3358151Y-14557211D01*
X3348386Y-14327337D01*
X3348386Y-14327332D01*
X3299810Y-14101938D01*
X3213841Y-13887994D01*
X3092951Y-13691657D01*
X2940620Y-13518575D01*
X2940619Y-13518574D01*
X2940615Y-13518570D01*
X2761234Y-13373730D01*
X2761233Y-13373729D01*
X2754622Y-13370036D01*
X2645382Y-13309011D01*
X2559938Y-13261279D01*
X2342541Y-13184468D01*
X2342540Y-13184467D01*
X2342538Y-13184467D01*
X2342534Y-13184466D01*
X2342533Y-13184466D01*
X2115293Y-13145500D01*
X2115285Y-13145500D01*
X1942465Y-13145500D01*
X1942460Y-13145500D01*
X1770265Y-13160155D01*
X1547131Y-13218254D01*
X1337034Y-13313223D01*
X1337032Y-13313224D01*
X1145999Y-13442342D01*
X979540Y-13601878D01*
X842434Y-13787257D01*
X799733Y-13871950D01*
X741865Y-13986725D01*
X736259Y-13997843D01*
X734663Y-13997038D01*
X696295Y-14045698D01*
X630238Y-14068463D01*
X562359Y-14051902D01*
X514210Y-14001272D01*
X500500Y-13944596D01*
X500500Y-8024000D01*
X520185Y-7956961D01*
X572989Y-7911206D01*
X624500Y-7900000D01*
X3993096Y-7900000D01*
X4060135Y-7919685D01*
G37*
%TD.AperFunction*%
%TA.AperFunction,Conductor*%
G36*
X33812461Y-9529785D02*
G01*
X33833103Y-9546419D01*
X37037184Y-12750500D01*
X40074504Y-15787819D01*
X40107989Y-15849142D01*
X40103005Y-15918834D01*
X40061133Y-15974767D01*
X39995669Y-15999184D01*
X39986823Y-15999500D01*
X12724500Y-15999500D01*
X12657461Y-15979815D01*
X12611706Y-15927011D01*
X12600500Y-15875500D01*
X12600499Y-14168482D01*
X12589960Y-14101937D01*
X12585646Y-14074696D01*
X12575810Y-14055393D01*
X12562915Y-13986725D01*
X12589192Y-13921985D01*
X12646298Y-13881728D01*
X12686296Y-13875100D01*
X13134333Y-13875100D01*
X13134336Y-13875100D01*
X13155838Y-13868112D01*
X13174744Y-13863574D01*
X13197064Y-13860040D01*
X13217202Y-13849778D01*
X13235165Y-13842338D01*
X13256665Y-13835353D01*
X13274952Y-13822065D01*
X13291536Y-13811903D01*
X13311669Y-13801646D01*
X13327475Y-13785839D01*
X13327482Y-13785834D01*
X13970947Y-13142369D01*
X14032270Y-13108884D01*
X14058628Y-13106050D01*
X14730546Y-13106050D01*
X15605546Y-13106050D01*
X17041372Y-13106050D01*
X17108411Y-13125735D01*
X17129053Y-13142369D01*
X17767584Y-13780901D01*
X17767606Y-13780921D01*
X17788331Y-13801646D01*
X17808462Y-13811902D01*
X17825046Y-13822064D01*
X17843335Y-13835353D01*
X17864832Y-13842337D01*
X17882800Y-13849780D01*
X17902936Y-13860040D01*
X17925253Y-13863574D01*
X17944167Y-13868114D01*
X17965664Y-13875100D01*
X17965665Y-13875100D01*
X25234333Y-13875100D01*
X25234336Y-13875100D01*
X25255838Y-13868112D01*
X25274744Y-13863574D01*
X25297064Y-13860040D01*
X25317202Y-13849778D01*
X25335165Y-13842338D01*
X25356665Y-13835353D01*
X25374952Y-13822065D01*
X25391536Y-13811903D01*
X25411669Y-13801646D01*
X25427475Y-13785839D01*
X25427482Y-13785834D01*
X25738317Y-13474999D01*
X26778765Y-12434550D01*
X26778764Y-12434550D01*
X26801646Y-12411669D01*
X26801647Y-12411666D01*
X26805787Y-12407527D01*
X26809749Y-12395765D01*
X26811910Y-12391523D01*
X26822066Y-12374950D01*
X26835352Y-12356665D01*
X26842336Y-12335169D01*
X26849782Y-12317195D01*
X26860040Y-12297064D01*
X26863575Y-12274738D01*
X26868116Y-12255828D01*
X26875100Y-12234336D01*
X26875100Y-12105712D01*
X26875100Y-12105711D01*
X26875100Y-11389577D01*
X26894785Y-11322538D01*
X26911419Y-11301896D01*
X27396896Y-10816419D01*
X27458219Y-10782934D01*
X27484577Y-10780100D01*
X27875786Y-10780100D01*
X27942825Y-10799785D01*
X27988580Y-10852589D01*
X27999169Y-10909054D01*
X27999500Y-10909054D01*
X27999500Y-10910820D01*
X27999580Y-10911247D01*
X27999500Y-10912632D01*
X27999500Y-11402356D01*
X27999502Y-11402382D01*
X28002413Y-11427487D01*
X28004863Y-11436489D01*
X28002864Y-11437032D01*
X28010347Y-11494198D01*
X28004691Y-11513462D01*
X28004864Y-11513509D01*
X28002415Y-11522509D01*
X27999500Y-11547631D01*
X27999500Y-12037356D01*
X27999502Y-12037382D01*
X28002413Y-12062487D01*
X28004863Y-12071489D01*
X28003050Y-12071982D01*
X28010619Y-12129821D01*
X28005117Y-12148561D01*
X28005358Y-12148627D01*
X28002910Y-12157622D01*
X28000000Y-12182705D01*
X28000000Y-12672285D01*
X28000002Y-12672308D01*
X28002908Y-12697369D01*
X28002909Y-12697373D01*
X28048211Y-12799974D01*
X28048214Y-12799979D01*
X28127520Y-12879285D01*
X28127525Y-12879288D01*
X28230123Y-12924589D01*
X28255206Y-12927499D01*
X29544785Y-12927499D01*
X29544808Y-12927497D01*
X29569872Y-12924590D01*
X29578873Y-12922142D01*
X29579570Y-12924706D01*
X29634691Y-12917488D01*
X29697876Y-12947311D01*
X29734908Y-13006560D01*
X29739500Y-13039994D01*
X29739500Y-13213070D01*
X29742289Y-13242814D01*
X29742291Y-13242826D01*
X29786147Y-13368155D01*
X29786148Y-13368157D01*
X29819351Y-13413145D01*
X29829419Y-13426787D01*
X29853390Y-13492416D01*
X29838074Y-13560587D01*
X29829419Y-13574055D01*
X29786594Y-13632080D01*
X29742788Y-13757267D01*
X29742786Y-13757279D01*
X29740000Y-13786992D01*
X29740000Y-14173000D01*
X29742786Y-14202720D01*
X29786596Y-14327922D01*
X29865358Y-14434641D01*
X29972080Y-14513405D01*
X30097267Y-14557211D01*
X30097279Y-14557213D01*
X30126992Y-14559999D01*
X30573000Y-14559999D01*
X30602720Y-14557213D01*
X30727922Y-14513403D01*
X30804971Y-14456538D01*
X30870600Y-14432566D01*
X30938770Y-14447881D01*
X30987839Y-14497620D01*
X31001780Y-14542021D01*
X31002414Y-14547488D01*
X31002415Y-14547491D01*
X31047793Y-14650264D01*
X31047794Y-14650265D01*
X31127235Y-14729706D01*
X31230009Y-14775085D01*
X31255135Y-14778000D01*
X32744864Y-14777999D01*
X32744879Y-14777997D01*
X32744882Y-14777997D01*
X32769987Y-14775086D01*
X32769988Y-14775085D01*
X32769991Y-14775085D01*
X32872765Y-14729706D01*
X32952206Y-14650265D01*
X32984865Y-14576300D01*
X32986839Y-14571829D01*
X33031925Y-14518452D01*
X33098711Y-14497925D01*
X33165993Y-14516763D01*
X33212409Y-14568987D01*
X33213708Y-14571830D01*
X33248211Y-14649974D01*
X33248214Y-14649979D01*
X33327520Y-14729285D01*
X33327525Y-14729288D01*
X33430123Y-14774589D01*
X33455206Y-14777499D01*
X34944785Y-14777499D01*
X34944808Y-14777497D01*
X34969869Y-14774591D01*
X34969873Y-14774590D01*
X35072474Y-14729288D01*
X35072479Y-14729285D01*
X35151785Y-14649979D01*
X35151788Y-14649974D01*
X35197089Y-14547377D01*
X35197089Y-14547375D01*
X35199999Y-14522294D01*
X35199999Y-13232714D01*
X35199997Y-13232691D01*
X35197091Y-13207630D01*
X35197090Y-13207626D01*
X35151788Y-13105025D01*
X35146996Y-13098029D01*
X35125348Y-13031598D01*
X35143051Y-12964008D01*
X35146997Y-12957869D01*
X35152207Y-12950263D01*
X35183545Y-12879288D01*
X35197585Y-12847491D01*
X35200500Y-12822365D01*
X35200499Y-11532636D01*
X35200497Y-11532617D01*
X35197586Y-11507512D01*
X35197585Y-11507510D01*
X35197585Y-11507509D01*
X35152206Y-11404735D01*
X35072765Y-11325294D01*
X35020143Y-11302059D01*
X34969992Y-11279915D01*
X34944865Y-11277000D01*
X33455143Y-11277000D01*
X33455117Y-11277002D01*
X33430012Y-11279913D01*
X33430008Y-11279915D01*
X33327235Y-11325293D01*
X33247795Y-11404733D01*
X33213160Y-11483172D01*
X33168073Y-11536547D01*
X33101287Y-11557074D01*
X33034005Y-11538235D01*
X32987589Y-11486011D01*
X32986291Y-11483168D01*
X32951789Y-11405026D01*
X32951785Y-11405020D01*
X32872479Y-11325714D01*
X32872474Y-11325711D01*
X32769876Y-11280410D01*
X32744793Y-11277500D01*
X31255214Y-11277500D01*
X31255191Y-11277502D01*
X31230130Y-11280408D01*
X31230129Y-11280408D01*
X31134083Y-11322815D01*
X31064804Y-11331884D01*
X31001620Y-11302059D01*
X30964590Y-11242809D01*
X30959999Y-11209379D01*
X30959999Y-10826999D01*
X30957213Y-10797279D01*
X30913403Y-10672077D01*
X30834641Y-10565358D01*
X30727919Y-10486594D01*
X30602732Y-10442788D01*
X30602720Y-10442786D01*
X30573007Y-10440000D01*
X30126999Y-10440000D01*
X30097278Y-10442786D01*
X29965452Y-10488914D01*
X29895674Y-10492475D01*
X29835046Y-10457746D01*
X29802819Y-10395753D01*
X29800499Y-10371883D01*
X29800499Y-10277636D01*
X29797585Y-10252509D01*
X29797584Y-10252506D01*
X29795136Y-10243508D01*
X29797136Y-10242963D01*
X29789651Y-10185810D01*
X29795310Y-10166535D01*
X29795137Y-10166488D01*
X29797584Y-10157493D01*
X29797583Y-10157493D01*
X29797585Y-10157491D01*
X29800500Y-10132365D01*
X29800499Y-9642636D01*
X29800499Y-9642635D01*
X29800499Y-9642630D01*
X29800419Y-9641244D01*
X29800499Y-9640899D01*
X29800499Y-9639056D01*
X29800927Y-9639056D01*
X29816209Y-9573182D01*
X29866289Y-9524461D01*
X29924213Y-9510100D01*
X33745422Y-9510100D01*
X33812461Y-9529785D01*
G37*
%TD.AperFunction*%
%TA.AperFunction,Conductor*%
G36*
X85122785Y-14463835D02*
G01*
X85143428Y-14480470D01*
X85188682Y-14525725D01*
X85222167Y-14587048D01*
X85225000Y-14613405D01*
X85225000Y-14944785D01*
X85225002Y-14944808D01*
X85228984Y-14979141D01*
X85226987Y-14979372D01*
X85226987Y-15020571D01*
X85228490Y-15020746D01*
X85224500Y-15055131D01*
X85224500Y-15344856D01*
X85224502Y-15344882D01*
X85227413Y-15369987D01*
X85227414Y-15369989D01*
X85240627Y-15399914D01*
X85249698Y-15469193D01*
X85240628Y-15500082D01*
X85227415Y-15530007D01*
X85227415Y-15530009D01*
X85224500Y-15555131D01*
X85224500Y-15844856D01*
X85224502Y-15844877D01*
X85226397Y-15861214D01*
X85214567Y-15930075D01*
X85167387Y-15981609D01*
X85103223Y-15999500D01*
X72213178Y-15999500D01*
X72146139Y-15979815D01*
X72100384Y-15927011D01*
X72090440Y-15857853D01*
X72119465Y-15794297D01*
X72125497Y-15787819D01*
X73432846Y-14480469D01*
X73494169Y-14446984D01*
X73520527Y-14444150D01*
X85055746Y-14444150D01*
X85122785Y-14463835D01*
G37*
%TD.AperFunction*%
%TA.AperFunction,Conductor*%
G36*
X92819332Y-12150150D02*
G01*
X92875266Y-12192020D01*
X92899684Y-12257484D01*
X92900000Y-12266332D01*
X92900000Y-15875500D01*
X92880315Y-15942539D01*
X92827511Y-15988294D01*
X92776000Y-15999500D01*
X87496778Y-15999500D01*
X87429739Y-15979815D01*
X87383984Y-15927011D01*
X87373604Y-15861210D01*
X87375004Y-15849142D01*
X87375500Y-15844865D01*
X87375499Y-15555136D01*
X87375497Y-15555117D01*
X87372586Y-15530013D01*
X87372585Y-15530011D01*
X87372585Y-15530009D01*
X87359371Y-15500082D01*
X87350300Y-15430808D01*
X87359372Y-15399914D01*
X87372585Y-15369991D01*
X87375500Y-15344865D01*
X87375499Y-15055136D01*
X87375497Y-15055117D01*
X87371511Y-15020742D01*
X87373016Y-15020567D01*
X87373018Y-14979372D01*
X87371015Y-14979140D01*
X87374999Y-14944796D01*
X87374999Y-14613404D01*
X87394683Y-14546365D01*
X87411310Y-14525731D01*
X87420254Y-14516786D01*
X87420258Y-14516784D01*
X87427325Y-14509716D01*
X87427327Y-14509716D01*
X87456574Y-14480468D01*
X87517897Y-14446984D01*
X87544255Y-14444150D01*
X89965281Y-14444150D01*
X89965284Y-14444150D01*
X89986786Y-14437162D01*
X90005692Y-14432624D01*
X90028012Y-14429090D01*
X90048150Y-14418828D01*
X90066113Y-14411388D01*
X90087613Y-14404403D01*
X90105900Y-14391115D01*
X90122484Y-14380953D01*
X90142617Y-14370696D01*
X90158423Y-14354889D01*
X90158430Y-14354884D01*
X90185985Y-14327329D01*
X90279252Y-14234062D01*
X90279252Y-14234061D01*
X91270766Y-13242547D01*
X91270765Y-13242546D01*
X91282205Y-13231106D01*
X91293646Y-13219667D01*
X91303903Y-13199533D01*
X91314066Y-13182949D01*
X91327353Y-13164663D01*
X91334338Y-13143163D01*
X91341779Y-13125198D01*
X91352040Y-13105062D01*
X91355574Y-13082742D01*
X91360112Y-13063836D01*
X91367100Y-13042334D01*
X91367100Y-12913710D01*
X91367099Y-12374499D01*
X91386785Y-12307460D01*
X91439589Y-12261705D01*
X91491100Y-12250499D01*
X92536856Y-12250499D01*
X92536864Y-12250499D01*
X92536879Y-12250497D01*
X92536882Y-12250497D01*
X92561987Y-12247586D01*
X92561988Y-12247585D01*
X92561991Y-12247585D01*
X92664765Y-12202206D01*
X92688321Y-12178649D01*
X92749640Y-12145166D01*
X92819332Y-12150150D01*
G37*
%TD.AperFunction*%
%TA.AperFunction,Conductor*%
G36*
X36342461Y-8259785D02*
G01*
X36363103Y-8276419D01*
X40898534Y-12811851D01*
X40898556Y-12811871D01*
X40919281Y-12832596D01*
X40939412Y-12842852D01*
X40955996Y-12853014D01*
X40974285Y-12866303D01*
X40995782Y-12873287D01*
X41013750Y-12880730D01*
X41033886Y-12890990D01*
X41056203Y-12894524D01*
X41075117Y-12899064D01*
X41096614Y-12906050D01*
X41128972Y-12906050D01*
X45830546Y-12906050D01*
X46705546Y-12906050D01*
X47441372Y-12906050D01*
X47508411Y-12925735D01*
X47529053Y-12942369D01*
X47717585Y-13130902D01*
X47717606Y-13130921D01*
X47738331Y-13151646D01*
X47758462Y-13161902D01*
X47775046Y-13172064D01*
X47793335Y-13185353D01*
X47814832Y-13192337D01*
X47832800Y-13199780D01*
X47852936Y-13210040D01*
X47875253Y-13213574D01*
X47894167Y-13218114D01*
X47915664Y-13225100D01*
X47915665Y-13225100D01*
X69384333Y-13225100D01*
X69384336Y-13225100D01*
X69405838Y-13218112D01*
X69424744Y-13213574D01*
X69447064Y-13210040D01*
X69467202Y-13199778D01*
X69485165Y-13192338D01*
X69506665Y-13185353D01*
X69524952Y-13172065D01*
X69541536Y-13161903D01*
X69561669Y-13151646D01*
X69577475Y-13135839D01*
X69577482Y-13135834D01*
X69696116Y-13017200D01*
X70040766Y-12672549D01*
X70040765Y-12672549D01*
X70063646Y-12649669D01*
X70063646Y-12649667D01*
X70067786Y-12645529D01*
X70071745Y-12633771D01*
X70073905Y-12629532D01*
X70084066Y-12612951D01*
X70097353Y-12594665D01*
X70104338Y-12573165D01*
X70111779Y-12555200D01*
X70122040Y-12535064D01*
X70125574Y-12512744D01*
X70130112Y-12493838D01*
X70137100Y-12472336D01*
X70137100Y-12374498D01*
X70156785Y-12307460D01*
X70209589Y-12261705D01*
X70261100Y-12250499D01*
X71306856Y-12250499D01*
X71306864Y-12250499D01*
X71306879Y-12250497D01*
X71306882Y-12250497D01*
X71331987Y-12247586D01*
X71331988Y-12247585D01*
X71331991Y-12247585D01*
X71434765Y-12202206D01*
X71514206Y-12122765D01*
X71559585Y-12019991D01*
X71562500Y-11994865D01*
X71562499Y-11774000D01*
X71582185Y-11706961D01*
X71634989Y-11661206D01*
X71686500Y-11650000D01*
X71937501Y-11650000D01*
X72004540Y-11669685D01*
X72050295Y-11722489D01*
X72061501Y-11774000D01*
X72061501Y-11994856D01*
X72061502Y-11994882D01*
X72064413Y-12019987D01*
X72064415Y-12019991D01*
X72109793Y-12122764D01*
X72109794Y-12122764D01*
X72109794Y-12122765D01*
X72189235Y-12202206D01*
X72292009Y-12247585D01*
X72317135Y-12250500D01*
X73806864Y-12250499D01*
X73806879Y-12250497D01*
X73806882Y-12250497D01*
X73831987Y-12247586D01*
X73831988Y-12247585D01*
X73831991Y-12247585D01*
X73934765Y-12202206D01*
X74014206Y-12122765D01*
X74059585Y-12019991D01*
X74062500Y-11994865D01*
X74062500Y-11774000D01*
X74082185Y-11706961D01*
X74134989Y-11661206D01*
X74186500Y-11650000D01*
X86168001Y-11650000D01*
X86235040Y-11669685D01*
X86280795Y-11722489D01*
X86292001Y-11774000D01*
X86292001Y-11994785D01*
X86292002Y-11994808D01*
X86294908Y-12019869D01*
X86294909Y-12019873D01*
X86340211Y-12122474D01*
X86340214Y-12122479D01*
X86419520Y-12201785D01*
X86419525Y-12201788D01*
X86522123Y-12247089D01*
X86547206Y-12249999D01*
X88036785Y-12249999D01*
X88036808Y-12249997D01*
X88061869Y-12247091D01*
X88061873Y-12247090D01*
X88164474Y-12201788D01*
X88164479Y-12201785D01*
X88243785Y-12122479D01*
X88243788Y-12122474D01*
X88289089Y-12019877D01*
X88289089Y-12019875D01*
X88291999Y-11994794D01*
X88292000Y-11994791D01*
X88292000Y-11774000D01*
X88311685Y-11706961D01*
X88364489Y-11661206D01*
X88416000Y-11650000D01*
X88667501Y-11650000D01*
X88734540Y-11669685D01*
X88780295Y-11722489D01*
X88791501Y-11774000D01*
X88791501Y-11994856D01*
X88791502Y-11994882D01*
X88794413Y-12019987D01*
X88794415Y-12019991D01*
X88839793Y-12122764D01*
X88839794Y-12122764D01*
X88839794Y-12122765D01*
X88919235Y-12202206D01*
X89022009Y-12247585D01*
X89047135Y-12250500D01*
X90092900Y-12250499D01*
X90159939Y-12270183D01*
X90205694Y-12322987D01*
X90216900Y-12374499D01*
X90216900Y-12618422D01*
X90197215Y-12685461D01*
X90180581Y-12706103D01*
X89629053Y-13257631D01*
X89567730Y-13291116D01*
X89541372Y-13293950D01*
X73096611Y-13293950D01*
X73075117Y-13300934D01*
X73056201Y-13305475D01*
X73033889Y-13309009D01*
X73033882Y-13309011D01*
X73013748Y-13319269D01*
X72995786Y-13326709D01*
X72974287Y-13333695D01*
X72974281Y-13333698D01*
X72955998Y-13346982D01*
X72939414Y-13357145D01*
X72919282Y-13367403D01*
X72919281Y-13367404D01*
X72896403Y-13390281D01*
X72896400Y-13390284D01*
X72083964Y-14202720D01*
X71298103Y-14988581D01*
X71236780Y-15022066D01*
X71210422Y-15024900D01*
X40989577Y-15024900D01*
X40922538Y-15005215D01*
X40901896Y-14988581D01*
X34368016Y-8454699D01*
X34367987Y-8454672D01*
X34365096Y-8451781D01*
X34331611Y-8390458D01*
X34336595Y-8320766D01*
X34378467Y-8264833D01*
X34443931Y-8240416D01*
X34452777Y-8240100D01*
X36275422Y-8240100D01*
X36342461Y-8259785D01*
G37*
%TD.AperFunction*%
%TA.AperFunction,Conductor*%
G36*
X12677463Y-10894785D02*
G01*
X12698105Y-10911419D01*
X13066432Y-11279745D01*
X13157383Y-11370696D01*
X13177518Y-11380956D01*
X13194105Y-11391120D01*
X13212387Y-11404402D01*
X13233879Y-11411385D01*
X13251855Y-11418832D01*
X13271985Y-11429089D01*
X13271986Y-11429089D01*
X13271988Y-11429090D01*
X13294306Y-11432624D01*
X13313219Y-11437165D01*
X13334716Y-11444150D01*
X13367074Y-11444150D01*
X13955746Y-11444150D01*
X14022785Y-11463835D01*
X14043427Y-11480469D01*
X14088681Y-11525723D01*
X14122166Y-11587046D01*
X14125000Y-11613404D01*
X14125000Y-11786595D01*
X14105315Y-11853634D01*
X14088686Y-11874272D01*
X14072674Y-11890284D01*
X14072673Y-11890285D01*
X14043427Y-11919531D01*
X13982104Y-11953016D01*
X13955746Y-11955850D01*
X13634713Y-11955850D01*
X13613219Y-11962834D01*
X13594303Y-11967375D01*
X13571991Y-11970909D01*
X13571984Y-11970911D01*
X13551850Y-11981169D01*
X13533888Y-11988609D01*
X13512389Y-11995595D01*
X13512383Y-11995598D01*
X13494100Y-12008882D01*
X13477516Y-12019045D01*
X13457384Y-12029303D01*
X13457383Y-12029304D01*
X13434505Y-12052181D01*
X13434502Y-12052184D01*
X13112187Y-12374499D01*
X12798105Y-12688581D01*
X12736782Y-12722066D01*
X12710424Y-12724900D01*
X11494492Y-12724900D01*
X11427453Y-12705215D01*
X11381698Y-12652411D01*
X11371754Y-12583253D01*
X11400779Y-12519697D01*
X11420859Y-12501130D01*
X11422390Y-12500000D01*
X12200000Y-12500000D01*
X12200000Y-10875100D01*
X12610424Y-10875100D01*
X12677463Y-10894785D01*
G37*
%TD.AperFunction*%
%TA.AperFunction,Conductor*%
G36*
X22499033Y-5084785D02*
G01*
X22519675Y-5101419D01*
X22537607Y-5119351D01*
X22537629Y-5119371D01*
X22558354Y-5140096D01*
X22578485Y-5150352D01*
X22595069Y-5160514D01*
X22613358Y-5173803D01*
X22634855Y-5180787D01*
X22652823Y-5188230D01*
X22672959Y-5198490D01*
X22694895Y-5201963D01*
X22758030Y-5231891D01*
X22794963Y-5291201D01*
X22799500Y-5324437D01*
X22799500Y-5571871D01*
X22779815Y-5638910D01*
X22727011Y-5684665D01*
X22657853Y-5694609D01*
X22634545Y-5688913D01*
X22502725Y-5642787D01*
X22502720Y-5642786D01*
X22473007Y-5640000D01*
X22026999Y-5640000D01*
X21997279Y-5642786D01*
X21872077Y-5686596D01*
X21765358Y-5765358D01*
X21686594Y-5872080D01*
X21642788Y-5997267D01*
X21642786Y-5997279D01*
X21640000Y-6026992D01*
X21640001Y-6405500D01*
X21620317Y-6472539D01*
X21567513Y-6518294D01*
X21516001Y-6529500D01*
X21351014Y-6529500D01*
X21197634Y-6567303D01*
X21057762Y-6640715D01*
X20939516Y-6745471D01*
X20849781Y-6875475D01*
X20849780Y-6875476D01*
X20793762Y-7023181D01*
X20774722Y-7179999D01*
X20774722Y-7180000D01*
X20793762Y-7336818D01*
X20826257Y-7422497D01*
X20849780Y-7484523D01*
X20849781Y-7484524D01*
X20849896Y-7484744D01*
X20849931Y-7484922D01*
X20852440Y-7491536D01*
X20851339Y-7491953D01*
X20863618Y-7553253D01*
X20838123Y-7618305D01*
X20813731Y-7642134D01*
X20795030Y-7655937D01*
X20715001Y-7715001D01*
X20636147Y-7821844D01*
X20592291Y-7947173D01*
X20592289Y-7947185D01*
X20589500Y-7976929D01*
X20589500Y-8363070D01*
X20592289Y-8392814D01*
X20592291Y-8392826D01*
X20636147Y-8518155D01*
X20636148Y-8518157D01*
X20676163Y-8572375D01*
X20679419Y-8576787D01*
X20703390Y-8642416D01*
X20688074Y-8710587D01*
X20679419Y-8724055D01*
X20636594Y-8782080D01*
X20592788Y-8907267D01*
X20592786Y-8907279D01*
X20590000Y-8936992D01*
X20590000Y-9323000D01*
X20592786Y-9352720D01*
X20636596Y-9477922D01*
X20715358Y-9584641D01*
X20822080Y-9663405D01*
X20947267Y-9707211D01*
X20947279Y-9707213D01*
X20976992Y-9709999D01*
X21423000Y-9709999D01*
X21452720Y-9707213D01*
X21577922Y-9663403D01*
X21651366Y-9609199D01*
X21716994Y-9585228D01*
X21785165Y-9600543D01*
X21798634Y-9609199D01*
X21872080Y-9663405D01*
X21997267Y-9707211D01*
X21997279Y-9707213D01*
X22026992Y-9709999D01*
X22473000Y-9709999D01*
X22502724Y-9707213D01*
X22634545Y-9661087D01*
X22704324Y-9657525D01*
X22764951Y-9692253D01*
X22797179Y-9754247D01*
X22799500Y-9778128D01*
X22799500Y-10132356D01*
X22799502Y-10132382D01*
X22802413Y-10157485D01*
X22804863Y-10166487D01*
X22802865Y-10167030D01*
X22810346Y-10224205D01*
X22804691Y-10243461D01*
X22804864Y-10243508D01*
X22802415Y-10252508D01*
X22799500Y-10277631D01*
X22799500Y-10767356D01*
X22799502Y-10767382D01*
X22802413Y-10792485D01*
X22804863Y-10801487D01*
X22802865Y-10802030D01*
X22810346Y-10859205D01*
X22804691Y-10878461D01*
X22804864Y-10878508D01*
X22802415Y-10887508D01*
X22799500Y-10912631D01*
X22799500Y-11402356D01*
X22799502Y-11402382D01*
X22802413Y-11427487D01*
X22804863Y-11436489D01*
X22802864Y-11437032D01*
X22810347Y-11494198D01*
X22804691Y-11513462D01*
X22804864Y-11513509D01*
X22802415Y-11522509D01*
X22799500Y-11547631D01*
X22799500Y-12037356D01*
X22799502Y-12037382D01*
X22802413Y-12062487D01*
X22804863Y-12071489D01*
X22803050Y-12071982D01*
X22810619Y-12129821D01*
X22805117Y-12148561D01*
X22805358Y-12148627D01*
X22802910Y-12157622D01*
X22800000Y-12182705D01*
X22800000Y-12182707D01*
X22800001Y-12600900D01*
X22780317Y-12667939D01*
X22727513Y-12713694D01*
X22676001Y-12724900D01*
X18389576Y-12724900D01*
X18322537Y-12705215D01*
X18301895Y-12688581D01*
X17663962Y-12050647D01*
X17663934Y-12050621D01*
X17642618Y-12029305D01*
X17642617Y-12029304D01*
X17641400Y-12028684D01*
X17622485Y-12019046D01*
X17605895Y-12008880D01*
X17587612Y-11995596D01*
X17587608Y-11995594D01*
X17566119Y-11988612D01*
X17548148Y-11981169D01*
X17528013Y-11970910D01*
X17523311Y-11970165D01*
X17505693Y-11967375D01*
X17486778Y-11962834D01*
X17465285Y-11955850D01*
X17465284Y-11955850D01*
X17432926Y-11955850D01*
X16444256Y-11955850D01*
X16377217Y-11936165D01*
X16356575Y-11919531D01*
X16325804Y-11888760D01*
X16325775Y-11888733D01*
X16311314Y-11874272D01*
X16277832Y-11812947D01*
X16274999Y-11786594D01*
X16274999Y-11613405D01*
X16294684Y-11546366D01*
X16311308Y-11525734D01*
X16312973Y-11524068D01*
X16320249Y-11516791D01*
X16320259Y-11516784D01*
X16356574Y-11480469D01*
X16417897Y-11446984D01*
X16444255Y-11444150D01*
X17765281Y-11444150D01*
X17765284Y-11444150D01*
X17786786Y-11437162D01*
X17805692Y-11432624D01*
X17828012Y-11429090D01*
X17848150Y-11418828D01*
X17866113Y-11411388D01*
X17887613Y-11404403D01*
X17905900Y-11391115D01*
X17922484Y-11380953D01*
X17942617Y-11370696D01*
X17958423Y-11354889D01*
X17958430Y-11354884D01*
X18439205Y-10874109D01*
X19878765Y-9434548D01*
X19878765Y-9434547D01*
X19901646Y-9411667D01*
X19911905Y-9391532D01*
X19922066Y-9374948D01*
X19935352Y-9356663D01*
X19942336Y-9335167D01*
X19949782Y-9317193D01*
X19960040Y-9297062D01*
X19963575Y-9274736D01*
X19968116Y-9255826D01*
X19975100Y-9234334D01*
X19975100Y-9105710D01*
X19975100Y-9105709D01*
X19975100Y-7039577D01*
X19994785Y-6972539D01*
X20011419Y-6951897D01*
X21861897Y-5101419D01*
X21923220Y-5067934D01*
X21949578Y-5065100D01*
X22431994Y-5065100D01*
X22499033Y-5084785D01*
G37*
%TD.AperFunction*%
%TA.AperFunction,Conductor*%
G36*
X28640821Y-3096950D02*
G01*
X28664801Y-3099579D01*
X28723750Y-3111937D01*
X28767956Y-3130707D01*
X28807564Y-3157596D01*
X28841319Y-3191750D01*
X28867742Y-3231674D01*
X28885989Y-3276095D01*
X28897653Y-3335185D01*
X28900000Y-3359198D01*
X28900000Y-3548000D01*
X28880315Y-3615039D01*
X28827511Y-3660794D01*
X28776000Y-3672000D01*
X28255143Y-3672000D01*
X28255117Y-3672002D01*
X28230012Y-3674913D01*
X28230008Y-3674915D01*
X28127235Y-3720293D01*
X28047794Y-3799734D01*
X28002415Y-3902506D01*
X28002415Y-3902508D01*
X27999500Y-3927631D01*
X27999500Y-4417356D01*
X27999502Y-4417382D01*
X28002413Y-4442485D01*
X28004863Y-4451487D01*
X28002865Y-4452030D01*
X28010346Y-4509205D01*
X28004691Y-4528461D01*
X28004864Y-4528508D01*
X28002415Y-4537508D01*
X27999500Y-4562631D01*
X27999500Y-5052356D01*
X27999502Y-5052382D01*
X28002413Y-5077487D01*
X28004863Y-5086489D01*
X28003050Y-5086982D01*
X28010619Y-5144821D01*
X28005117Y-5163561D01*
X28005358Y-5163627D01*
X28002910Y-5172622D01*
X28000000Y-5197705D01*
X28000000Y-5687285D01*
X28000002Y-5687308D01*
X28002909Y-5712372D01*
X28005358Y-5721373D01*
X28003209Y-5721957D01*
X28010619Y-5778587D01*
X28004776Y-5798485D01*
X28004864Y-5798509D01*
X28002415Y-5807509D01*
X27999500Y-5832631D01*
X27999500Y-6322356D01*
X27999502Y-6322382D01*
X28002413Y-6347487D01*
X28004863Y-6356489D01*
X28002864Y-6357032D01*
X28010347Y-6414198D01*
X28004691Y-6433462D01*
X28004864Y-6433509D01*
X28002415Y-6442509D01*
X27999500Y-6467631D01*
X27999500Y-6957356D01*
X27999502Y-6957382D01*
X28002413Y-6982485D01*
X28004863Y-6991487D01*
X28002865Y-6992030D01*
X28010346Y-7049205D01*
X28004691Y-7068461D01*
X28004864Y-7068508D01*
X28002415Y-7077508D01*
X27999500Y-7102631D01*
X27999500Y-7592356D01*
X27999502Y-7592382D01*
X28002413Y-7617485D01*
X28004863Y-7626487D01*
X28002865Y-7627030D01*
X28010346Y-7684205D01*
X28004691Y-7703461D01*
X28004864Y-7703508D01*
X28002415Y-7712508D01*
X27999500Y-7737631D01*
X27999500Y-8227356D01*
X27999502Y-8227382D01*
X28002413Y-8252485D01*
X28004863Y-8261487D01*
X28002865Y-8262030D01*
X28010346Y-8319205D01*
X28004691Y-8338461D01*
X28004864Y-8338508D01*
X28002415Y-8347508D01*
X27999500Y-8372631D01*
X27999500Y-8862356D01*
X27999502Y-8862382D01*
X28002413Y-8887487D01*
X28004863Y-8896489D01*
X28002864Y-8897032D01*
X28010347Y-8954198D01*
X28004691Y-8973462D01*
X28004864Y-8973509D01*
X28002415Y-8982509D01*
X27999500Y-9007631D01*
X27999500Y-9497369D01*
X27999581Y-9498756D01*
X27999500Y-9499100D01*
X27999501Y-9500944D01*
X27999073Y-9500944D01*
X27983791Y-9566818D01*
X27933711Y-9615539D01*
X27875787Y-9629900D01*
X27060661Y-9629900D01*
X27039167Y-9636884D01*
X27020258Y-9641423D01*
X26997937Y-9644959D01*
X26997936Y-9644959D01*
X26977792Y-9655222D01*
X26959832Y-9662661D01*
X26938335Y-9669647D01*
X26938334Y-9669648D01*
X26920050Y-9682931D01*
X26903472Y-9693090D01*
X26883330Y-9703354D01*
X26883327Y-9703356D01*
X26615869Y-9970815D01*
X25821234Y-10765450D01*
X25821231Y-10765453D01*
X25806585Y-10780100D01*
X25798353Y-10788332D01*
X25788095Y-10808464D01*
X25777932Y-10825048D01*
X25764648Y-10843331D01*
X25764645Y-10843337D01*
X25757659Y-10864836D01*
X25750219Y-10882798D01*
X25739961Y-10902932D01*
X25739959Y-10902939D01*
X25736425Y-10925251D01*
X25731884Y-10944167D01*
X25724900Y-10965661D01*
X25724900Y-11810422D01*
X25705215Y-11877461D01*
X25688581Y-11898103D01*
X24898103Y-12688581D01*
X24836780Y-12722066D01*
X24810422Y-12724900D01*
X24724000Y-12724900D01*
X24656961Y-12705215D01*
X24611206Y-12652411D01*
X24600000Y-12600900D01*
X24599999Y-12182714D01*
X24599997Y-12182691D01*
X24597091Y-12157629D01*
X24594641Y-12148624D01*
X24596790Y-12148039D01*
X24589379Y-12091422D01*
X24595226Y-12071512D01*
X24595137Y-12071488D01*
X24597584Y-12062493D01*
X24597583Y-12062493D01*
X24597585Y-12062491D01*
X24600500Y-12037365D01*
X24600499Y-11547636D01*
X24600497Y-11547617D01*
X24597586Y-11522514D01*
X24595136Y-11513508D01*
X24597136Y-11512963D01*
X24589651Y-11455810D01*
X24595310Y-11436535D01*
X24595137Y-11436488D01*
X24597584Y-11427493D01*
X24597583Y-11427493D01*
X24597585Y-11427491D01*
X24600500Y-11402365D01*
X24600499Y-10912636D01*
X24600338Y-10911247D01*
X24597586Y-10887512D01*
X24595137Y-10878511D01*
X24597136Y-10877966D01*
X24589651Y-10820811D01*
X24595310Y-10801538D01*
X24595136Y-10801491D01*
X24597582Y-10792496D01*
X24597585Y-10792491D01*
X24600500Y-10767365D01*
X24600499Y-10277636D01*
X24597585Y-10252509D01*
X24597584Y-10252506D01*
X24595136Y-10243508D01*
X24597136Y-10242963D01*
X24589651Y-10185810D01*
X24595310Y-10166535D01*
X24595137Y-10166488D01*
X24597584Y-10157493D01*
X24597583Y-10157493D01*
X24597585Y-10157491D01*
X24600500Y-10132365D01*
X24600499Y-9642636D01*
X24600412Y-9641884D01*
X24597586Y-9617514D01*
X24595136Y-9608508D01*
X24597136Y-9607963D01*
X24589651Y-9550810D01*
X24595310Y-9531535D01*
X24595137Y-9531488D01*
X24597584Y-9522493D01*
X24597583Y-9522493D01*
X24597585Y-9522491D01*
X24600500Y-9497365D01*
X24600499Y-9007636D01*
X24599881Y-9002304D01*
X24597586Y-8982514D01*
X24595136Y-8973508D01*
X24597136Y-8972963D01*
X24589651Y-8915810D01*
X24595310Y-8896535D01*
X24595137Y-8896488D01*
X24597584Y-8887493D01*
X24597583Y-8887493D01*
X24597585Y-8887491D01*
X24600500Y-8862365D01*
X24600499Y-8372636D01*
X24599390Y-8363070D01*
X24597586Y-8347512D01*
X24595137Y-8338511D01*
X24597136Y-8337966D01*
X24589651Y-8280811D01*
X24595310Y-8261538D01*
X24595136Y-8261491D01*
X24597582Y-8252496D01*
X24597585Y-8252491D01*
X24600500Y-8227365D01*
X24600499Y-7737636D01*
X24597585Y-7712509D01*
X24597584Y-7712506D01*
X24595136Y-7703508D01*
X24597136Y-7702963D01*
X24589651Y-7645810D01*
X24595310Y-7626535D01*
X24595137Y-7626488D01*
X24597584Y-7617493D01*
X24597583Y-7617493D01*
X24597585Y-7617491D01*
X24600500Y-7592365D01*
X24600499Y-7102636D01*
X24597585Y-7077509D01*
X24597584Y-7077506D01*
X24595136Y-7068508D01*
X24597136Y-7067963D01*
X24589651Y-7010810D01*
X24595310Y-6991535D01*
X24595137Y-6991488D01*
X24597584Y-6982493D01*
X24597583Y-6982493D01*
X24597585Y-6982491D01*
X24600500Y-6957365D01*
X24600499Y-6467636D01*
X24600497Y-6467617D01*
X24597586Y-6442514D01*
X24595136Y-6433508D01*
X24597136Y-6432963D01*
X24589651Y-6375810D01*
X24595310Y-6356535D01*
X24595137Y-6356488D01*
X24597584Y-6347493D01*
X24597583Y-6347493D01*
X24597585Y-6347491D01*
X24600500Y-6322365D01*
X24600499Y-5832636D01*
X24597585Y-5807509D01*
X24597584Y-5807506D01*
X24595136Y-5798508D01*
X24597136Y-5797963D01*
X24589651Y-5740810D01*
X24595310Y-5721535D01*
X24595137Y-5721488D01*
X24597584Y-5712493D01*
X24597583Y-5712493D01*
X24597585Y-5712491D01*
X24600500Y-5687365D01*
X24600499Y-5197636D01*
X24599815Y-5191737D01*
X24597586Y-5172514D01*
X24595136Y-5163508D01*
X24597136Y-5162963D01*
X24589651Y-5105810D01*
X24595310Y-5086535D01*
X24595137Y-5086488D01*
X24597584Y-5077493D01*
X24597583Y-5077493D01*
X24597585Y-5077491D01*
X24600500Y-5052365D01*
X24600499Y-4562636D01*
X24597585Y-4537509D01*
X24597584Y-4537506D01*
X24595136Y-4528508D01*
X24597136Y-4527963D01*
X24589651Y-4470810D01*
X24595310Y-4451535D01*
X24595137Y-4451488D01*
X24597584Y-4442493D01*
X24597583Y-4442493D01*
X24597585Y-4442491D01*
X24600500Y-4417365D01*
X24600499Y-3927636D01*
X24599022Y-3914900D01*
X24597586Y-3902512D01*
X24597585Y-3902510D01*
X24597585Y-3902509D01*
X24552206Y-3799735D01*
X24472765Y-3720294D01*
X24427909Y-3700488D01*
X24369992Y-3674915D01*
X24344865Y-3672000D01*
X23055143Y-3672000D01*
X23055117Y-3672002D01*
X23030012Y-3674913D01*
X23030008Y-3674915D01*
X22927235Y-3720293D01*
X22927234Y-3720294D01*
X22917398Y-3730131D01*
X22856075Y-3763616D01*
X22829717Y-3766450D01*
X22735684Y-3766450D01*
X22714190Y-3773434D01*
X22695274Y-3777975D01*
X22672962Y-3781509D01*
X22672955Y-3781511D01*
X22652821Y-3791769D01*
X22634859Y-3799209D01*
X22613360Y-3806195D01*
X22613354Y-3806198D01*
X22595071Y-3819482D01*
X22578487Y-3829645D01*
X22558355Y-3839903D01*
X22558354Y-3839904D01*
X22535476Y-3862781D01*
X22535473Y-3862784D01*
X22524258Y-3873999D01*
X22519676Y-3878581D01*
X22458353Y-3912066D01*
X22431995Y-3914900D01*
X21525661Y-3914900D01*
X21504167Y-3921884D01*
X21485251Y-3926425D01*
X21462939Y-3929959D01*
X21462932Y-3929961D01*
X21442798Y-3940219D01*
X21424836Y-3947659D01*
X21403337Y-3954645D01*
X21403331Y-3954648D01*
X21385048Y-3967932D01*
X21368464Y-3978095D01*
X21348332Y-3988353D01*
X21348331Y-3988354D01*
X21325453Y-4011231D01*
X21325450Y-4011234D01*
X18921234Y-6415450D01*
X18921231Y-6415453D01*
X18908954Y-6427731D01*
X18898353Y-6438332D01*
X18888095Y-6458464D01*
X18877932Y-6475048D01*
X18864648Y-6493331D01*
X18864645Y-6493337D01*
X18857659Y-6514836D01*
X18850219Y-6532798D01*
X18839961Y-6552932D01*
X18839959Y-6552939D01*
X18836425Y-6575251D01*
X18831884Y-6594167D01*
X18824900Y-6615661D01*
X18824900Y-8810421D01*
X18805215Y-8877460D01*
X18788581Y-8898102D01*
X17429053Y-10257631D01*
X17367730Y-10291116D01*
X17341372Y-10293950D01*
X13758627Y-10293950D01*
X13691588Y-10274265D01*
X13670946Y-10257631D01*
X13233014Y-9819697D01*
X13232986Y-9819671D01*
X13211670Y-9798355D01*
X13211669Y-9798354D01*
X13210452Y-9797734D01*
X13191537Y-9788096D01*
X13174947Y-9777930D01*
X13156664Y-9764646D01*
X13156660Y-9764644D01*
X13135171Y-9757662D01*
X13117200Y-9750219D01*
X13097065Y-9739960D01*
X13092363Y-9739215D01*
X13074745Y-9736425D01*
X13055830Y-9731884D01*
X13034337Y-9724900D01*
X13034336Y-9724900D01*
X13001978Y-9724900D01*
X12917000Y-9724900D01*
X12849961Y-9705215D01*
X12804206Y-9652411D01*
X12793000Y-9600900D01*
X12793000Y-9137601D01*
X12790244Y-9108219D01*
X12790242Y-9108207D01*
X12746934Y-8984442D01*
X12746933Y-8984440D01*
X12669064Y-8878933D01*
X12655079Y-8868612D01*
X12612828Y-8812965D01*
X12607369Y-8743309D01*
X12640436Y-8681759D01*
X12674256Y-8657439D01*
X12675083Y-8657034D01*
X12760035Y-8572082D01*
X12812804Y-8464141D01*
X12823000Y-8394161D01*
X12823000Y-8231183D01*
X12842685Y-8164144D01*
X12895489Y-8118389D01*
X12964647Y-8108445D01*
X12992891Y-8115988D01*
X13089125Y-8154331D01*
X13271683Y-8184260D01*
X13367518Y-8179064D01*
X13435525Y-8195090D01*
X13484071Y-8245340D01*
X13491425Y-8262366D01*
X13504435Y-8299999D01*
X13504949Y-8301484D01*
X13504951Y-8301489D01*
X13539516Y-8362193D01*
X13539519Y-8362196D01*
X13539522Y-8362201D01*
X13564683Y-8397562D01*
X13575170Y-8412300D01*
X13583259Y-8418666D01*
X13663394Y-8481732D01*
X13725305Y-8514118D01*
X13807313Y-8543049D01*
X13820537Y-8545679D01*
X13835771Y-8548709D01*
X13835774Y-8548709D01*
X13835777Y-8548710D01*
X13850610Y-8550910D01*
X13880123Y-8553817D01*
X13889724Y-8554764D01*
X13889722Y-8554764D01*
X13896385Y-8555091D01*
X13904710Y-8555500D01*
X13904715Y-8555500D01*
X16370285Y-8555500D01*
X16370290Y-8555500D01*
X16379654Y-8555040D01*
X16385276Y-8554764D01*
X16385275Y-8554764D01*
X16424377Y-8550912D01*
X16424378Y-8550912D01*
X16424390Y-8550910D01*
X16424392Y-8550910D01*
X16435531Y-8549258D01*
X16439220Y-8548711D01*
X16439222Y-8548710D01*
X16439226Y-8548710D01*
X16496512Y-8537315D01*
X16553816Y-8519932D01*
X16558102Y-8518157D01*
X16559916Y-8517405D01*
X16598515Y-8501418D01*
X16651335Y-8473186D01*
X16683315Y-8451818D01*
X16729611Y-8413824D01*
X16763824Y-8379611D01*
X16801818Y-8333315D01*
X16823186Y-8301335D01*
X16851418Y-8248515D01*
X16869932Y-8203816D01*
X16887315Y-8146512D01*
X16898710Y-8089226D01*
X16900910Y-8074392D01*
X16900910Y-8074390D01*
X16900912Y-8074378D01*
X16900912Y-8074377D01*
X16904764Y-8035275D01*
X16904764Y-8035276D01*
X16905500Y-8020285D01*
X16905500Y-7989835D01*
X16925185Y-7922796D01*
X16977989Y-7877041D01*
X16980042Y-7876125D01*
X17027020Y-7855721D01*
X17097083Y-7800680D01*
X18572252Y-6325511D01*
X18627293Y-6255448D01*
X18627531Y-6254900D01*
X18687581Y-6116651D01*
X18687598Y-6116534D01*
X18708188Y-5966727D01*
X18699773Y-5905500D01*
X18692060Y-5849387D01*
X18688367Y-5814389D01*
X18688367Y-5814387D01*
X18678523Y-5766823D01*
X18660513Y-5709217D01*
X18641439Y-5664349D01*
X18629634Y-5642787D01*
X18612458Y-5611413D01*
X18612454Y-5611407D01*
X18590916Y-5579915D01*
X18573680Y-5554712D01*
X18564538Y-5542669D01*
X18564531Y-5542661D01*
X18564531Y-5542660D01*
X18539058Y-5512344D01*
X18539055Y-5512341D01*
X18528770Y-5501263D01*
X18198608Y-5179153D01*
X20400000Y-3000000D01*
X28640821Y-3096950D01*
G37*
%TD.AperFunction*%
%TA.AperFunction,Conductor*%
G36*
X51340815Y-8998739D02*
G01*
X51389513Y-9048842D01*
X51403392Y-9117320D01*
X51403305Y-9118287D01*
X51401500Y-9137543D01*
X51401500Y-9612453D01*
X51404258Y-9641874D01*
X51404260Y-9641884D01*
X51447618Y-9765792D01*
X51525576Y-9871423D01*
X51553906Y-9892331D01*
X51631206Y-9949381D01*
X51672511Y-9963834D01*
X51755119Y-9992741D01*
X51762796Y-9993460D01*
X51784543Y-9995500D01*
X52159456Y-9995499D01*
X52188879Y-9992741D01*
X52312794Y-9949381D01*
X52408367Y-9878844D01*
X52473995Y-9854874D01*
X52542165Y-9870189D01*
X52555629Y-9878842D01*
X52651206Y-9949381D01*
X52692511Y-9963834D01*
X52775119Y-9992741D01*
X52782796Y-9993460D01*
X52804543Y-9995500D01*
X53179456Y-9995499D01*
X53208879Y-9992741D01*
X53271539Y-9970814D01*
X53341317Y-9967252D01*
X53400175Y-10000175D01*
X54326773Y-10926774D01*
X54326774Y-10926775D01*
X54326777Y-10926777D01*
X54400000Y-11000000D01*
X60937789Y-11000000D01*
X60961980Y-11002383D01*
X61021480Y-11014218D01*
X61066175Y-11032730D01*
X61106272Y-11059522D01*
X61140477Y-11093727D01*
X61167267Y-11133822D01*
X61185781Y-11178517D01*
X61197617Y-11238022D01*
X61200000Y-11262210D01*
X61200000Y-11950900D01*
X61180315Y-12017939D01*
X61127511Y-12063694D01*
X61076000Y-12074900D01*
X48339578Y-12074900D01*
X48272539Y-12055215D01*
X48251897Y-12038581D01*
X48063964Y-11850647D01*
X48063936Y-11850621D01*
X48042620Y-11829305D01*
X48042619Y-11829304D01*
X48031615Y-11823697D01*
X48022487Y-11819046D01*
X48005897Y-11808880D01*
X47987614Y-11795596D01*
X47987610Y-11795594D01*
X47966121Y-11788612D01*
X47948150Y-11781169D01*
X47928015Y-11770910D01*
X47923313Y-11770165D01*
X47905695Y-11767375D01*
X47886780Y-11762834D01*
X47865287Y-11755850D01*
X47865286Y-11755850D01*
X47832928Y-11755850D01*
X47481455Y-11755850D01*
X47414416Y-11736165D01*
X47393774Y-11719531D01*
X47362991Y-11688748D01*
X47362962Y-11688721D01*
X47341646Y-11667405D01*
X47341645Y-11667404D01*
X47329481Y-11661206D01*
X47321513Y-11657146D01*
X47304923Y-11646980D01*
X47286640Y-11633696D01*
X47286636Y-11633694D01*
X47265147Y-11626712D01*
X47247176Y-11619269D01*
X47218347Y-11604581D01*
X47219016Y-11603266D01*
X47170079Y-11569799D01*
X47142885Y-11505438D01*
X47154805Y-11436593D01*
X47202052Y-11385120D01*
X47209891Y-11380773D01*
X47210123Y-11380655D01*
X47227942Y-11373288D01*
X47249442Y-11366303D01*
X47267729Y-11353015D01*
X47284313Y-11342853D01*
X47304446Y-11332596D01*
X47320252Y-11316789D01*
X47320259Y-11316784D01*
X47356574Y-11280469D01*
X47417897Y-11246984D01*
X47444255Y-11244150D01*
X49265281Y-11244150D01*
X49265284Y-11244150D01*
X49286786Y-11237162D01*
X49305692Y-11232624D01*
X49328012Y-11229090D01*
X49348150Y-11218828D01*
X49366113Y-11211388D01*
X49387613Y-11204403D01*
X49405900Y-11191115D01*
X49422484Y-11180953D01*
X49442617Y-11170696D01*
X49458423Y-11154889D01*
X49458430Y-11154884D01*
X50527834Y-10085480D01*
X50527839Y-10085473D01*
X50543646Y-10069667D01*
X50553903Y-10049534D01*
X50564065Y-10032950D01*
X50577353Y-10014663D01*
X50584338Y-9993163D01*
X50591778Y-9975200D01*
X50602040Y-9955062D01*
X50605574Y-9932742D01*
X50610112Y-9913836D01*
X50617100Y-9892334D01*
X50617100Y-9763710D01*
X50617100Y-9763709D01*
X50617100Y-9182600D01*
X50636785Y-9115561D01*
X50689589Y-9069806D01*
X50741100Y-9058600D01*
X51067487Y-9058600D01*
X51067490Y-9058600D01*
X51088992Y-9051612D01*
X51107898Y-9047074D01*
X51130218Y-9043540D01*
X51150356Y-9033278D01*
X51168319Y-9025838D01*
X51189819Y-9018853D01*
X51206958Y-9006399D01*
X51272760Y-8982918D01*
X51340815Y-8998739D01*
G37*
%TD.AperFunction*%
%TA.AperFunction,Conductor*%
G36*
X38622461Y-6989785D02*
G01*
X38643103Y-7006419D01*
X42716430Y-11079745D01*
X42807381Y-11170696D01*
X42827516Y-11180956D01*
X42844103Y-11191120D01*
X42862385Y-11204402D01*
X42862384Y-11204402D01*
X42883876Y-11211385D01*
X42901854Y-11218832D01*
X42921986Y-11229090D01*
X42944309Y-11232624D01*
X42963226Y-11237166D01*
X42984714Y-11244149D01*
X43014515Y-11244149D01*
X43014539Y-11244150D01*
X43017072Y-11244150D01*
X45180447Y-11244150D01*
X45247486Y-11263835D01*
X45268128Y-11280469D01*
X45320255Y-11332596D01*
X45327970Y-11336527D01*
X45342041Y-11346750D01*
X45342753Y-11345711D01*
X45355736Y-11354604D01*
X45372169Y-11364057D01*
X45375259Y-11366302D01*
X45393944Y-11372373D01*
X45451619Y-11411811D01*
X45478817Y-11476170D01*
X45466902Y-11545016D01*
X45419657Y-11596492D01*
X45393947Y-11608234D01*
X45391557Y-11609010D01*
X45371418Y-11619271D01*
X45353453Y-11626713D01*
X45331958Y-11633698D01*
X45313672Y-11646982D01*
X45297094Y-11657140D01*
X45276958Y-11667401D01*
X45276952Y-11667404D01*
X45236644Y-11707711D01*
X45236635Y-11707723D01*
X45224828Y-11719529D01*
X45163509Y-11753015D01*
X45137146Y-11755850D01*
X41520528Y-11755850D01*
X41453489Y-11736165D01*
X41432847Y-11719531D01*
X36898016Y-7184699D01*
X36897987Y-7184672D01*
X36895096Y-7181781D01*
X36861611Y-7120458D01*
X36866595Y-7050766D01*
X36908467Y-6994833D01*
X36973931Y-6970416D01*
X36982777Y-6970100D01*
X38555422Y-6970100D01*
X38622461Y-6989785D01*
G37*
%TD.AperFunction*%
%TA.AperFunction,Conductor*%
G36*
X41421177Y-6125185D02*
G01*
X41441819Y-6141819D01*
X43826773Y-8526774D01*
X43826774Y-8526775D01*
X43826777Y-8526777D01*
X43900000Y-8600000D01*
X46756520Y-8600000D01*
X46823559Y-8619685D01*
X46844201Y-8636319D01*
X46864917Y-8657035D01*
X46972857Y-8709804D01*
X47042838Y-8719999D01*
X47417500Y-8719999D01*
X47484539Y-8739683D01*
X47530294Y-8792487D01*
X47541500Y-8843999D01*
X47541500Y-9037778D01*
X47534542Y-9078731D01*
X47524258Y-9108119D01*
X47524258Y-9108120D01*
X47521500Y-9137538D01*
X47521500Y-9612453D01*
X47524258Y-9641874D01*
X47524260Y-9641884D01*
X47567618Y-9765792D01*
X47567619Y-9765794D01*
X47591650Y-9798355D01*
X47645578Y-9871425D01*
X47652147Y-9877994D01*
X47650827Y-9879313D01*
X47686144Y-9925831D01*
X47691600Y-9995488D01*
X47658530Y-10057036D01*
X47597435Y-10090935D01*
X47570258Y-10093950D01*
X43408627Y-10093950D01*
X43341588Y-10074265D01*
X43320946Y-10057631D01*
X39580497Y-6317181D01*
X39547012Y-6255858D01*
X39551996Y-6186166D01*
X39593868Y-6130233D01*
X39659332Y-6105816D01*
X39668178Y-6105500D01*
X41354138Y-6105500D01*
X41421177Y-6125185D01*
G37*
%TD.AperFunction*%
%TD*%
%TA.AperFunction,Conductor*%
%TO.N,GND*%
G36*
X36942539Y-1669685D02*
G01*
X36988294Y-1722489D01*
X36999500Y-1774000D01*
X36999500Y-2123070D01*
X37002289Y-2152814D01*
X37002291Y-2152826D01*
X37046147Y-2278155D01*
X37046148Y-2278157D01*
X37125001Y-2384999D01*
X37231843Y-2463852D01*
X37270003Y-2477204D01*
X37357173Y-2507708D01*
X37357177Y-2507708D01*
X37357181Y-2507710D01*
X37372057Y-2509105D01*
X37386930Y-2510500D01*
X37609138Y-2510500D01*
X37676177Y-2530185D01*
X37696819Y-2546819D01*
X38117609Y-2967609D01*
X38151070Y-3028826D01*
X38152352Y-3034697D01*
X38197206Y-3162880D01*
X38197207Y-3162882D01*
X38277850Y-3272150D01*
X38387118Y-3352793D01*
X38429845Y-3367744D01*
X38515299Y-3397646D01*
X38545730Y-3400500D01*
X39668499Y-3400500D01*
X39735538Y-3420185D01*
X39781293Y-3472989D01*
X39790116Y-3500309D01*
X39797617Y-3538019D01*
X39800000Y-3562210D01*
X39800000Y-3897962D01*
X39780315Y-3965001D01*
X39734684Y-4007197D01*
X39700302Y-4025668D01*
X39682580Y-4033472D01*
X39677003Y-4035424D01*
X39669529Y-4038039D01*
X39628569Y-4045000D01*
X38596431Y-4045000D01*
X38555473Y-4038040D01*
X38547994Y-4035423D01*
X38518598Y-4020491D01*
X38515172Y-4018130D01*
X38515171Y-4018129D01*
X38515169Y-4018128D01*
X38427894Y-3976561D01*
X38427890Y-3976559D01*
X38427883Y-3976557D01*
X38360865Y-3956878D01*
X38360858Y-3956877D01*
X38360855Y-3956876D01*
X38274783Y-3944500D01*
X38274780Y-3944500D01*
X36577904Y-3944500D01*
X36510865Y-3924815D01*
X36490227Y-3908185D01*
X36441254Y-3859212D01*
X36392287Y-3810244D01*
X36384669Y-3803129D01*
X36370419Y-3790702D01*
X36362307Y-3784103D01*
X36345643Y-3771468D01*
X36335210Y-3764038D01*
X36322445Y-3755509D01*
X36282352Y-3728719D01*
X36248059Y-3710388D01*
X36229537Y-3700487D01*
X36184846Y-3681975D01*
X36184843Y-3681974D01*
X36127527Y-3664588D01*
X36127524Y-3664587D01*
X36127523Y-3664587D01*
X36127521Y-3664586D01*
X36060654Y-3651286D01*
X36060652Y-3651286D01*
X36057271Y-3650784D01*
X36045829Y-3649087D01*
X36045818Y-3649086D01*
X36006710Y-3645236D01*
X35991733Y-3644500D01*
X35604714Y-3644500D01*
X35589738Y-3645235D01*
X35550628Y-3649086D01*
X35550623Y-3649086D01*
X35550620Y-3649087D01*
X35550621Y-3649087D01*
X35550615Y-3649088D01*
X35535791Y-3651286D01*
X35535790Y-3651286D01*
X35535786Y-3651287D01*
X35510690Y-3656278D01*
X35498191Y-3658765D01*
X35428599Y-3652538D01*
X35373422Y-3609675D01*
X35350178Y-3543785D01*
X35350000Y-3537148D01*
X35350000Y-1912210D01*
X35352383Y-1888019D01*
X35364218Y-1828519D01*
X35382729Y-1783826D01*
X35409524Y-1743724D01*
X35443724Y-1709524D01*
X35483826Y-1682729D01*
X35528514Y-1664219D01*
X35588028Y-1652381D01*
X35612211Y-1650000D01*
X36875500Y-1650000D01*
X36942539Y-1669685D01*
G37*
%TD.AperFunction*%
%TD*%
%TA.AperFunction,Conductor*%
%TO.N,+5V*%
G36*
X16360040Y-3902307D02*
G01*
X16418678Y-3913783D01*
X16462792Y-3931737D01*
X16512776Y-3964470D01*
X16531434Y-3979448D01*
X16608187Y-4054329D01*
X18310022Y-5714656D01*
X18325779Y-5733409D01*
X18360289Y-5783870D01*
X18379363Y-5828738D01*
X18389207Y-5876302D01*
X18389508Y-5925062D01*
X18380252Y-5972745D01*
X18361733Y-6017847D01*
X18327849Y-6068728D01*
X18312321Y-6087678D01*
X16673225Y-7726773D01*
X16673224Y-7726774D01*
X16673220Y-7726779D01*
X16600000Y-7800000D01*
X16600000Y-7903548D01*
X16600000Y-8012789D01*
X16597617Y-8036980D01*
X16587685Y-8086911D01*
X16569171Y-8131610D01*
X16547803Y-8163590D01*
X16513590Y-8197803D01*
X16481610Y-8219171D01*
X16436911Y-8237685D01*
X16386980Y-8247617D01*
X16362789Y-8250000D01*
X13912211Y-8250000D01*
X13888021Y-8247617D01*
X13866910Y-8243418D01*
X13804999Y-8211032D01*
X13770426Y-8150316D01*
X13774167Y-8080546D01*
X13810827Y-8027293D01*
X13827902Y-8012789D01*
X13939100Y-7918337D01*
X14051054Y-7771064D01*
X14128732Y-7603167D01*
X14168500Y-7422497D01*
X14168500Y-6183887D01*
X14153514Y-6046090D01*
X14094444Y-5870779D01*
X13999070Y-5712264D01*
X13962089Y-5673224D01*
X13871850Y-5577959D01*
X13789165Y-5521898D01*
X13718730Y-5474142D01*
X13718727Y-5474140D01*
X13718723Y-5474138D01*
X13546877Y-5405669D01*
X13473851Y-5393697D01*
X13364317Y-5375740D01*
X13364314Y-5375740D01*
X13179593Y-5385755D01*
X13179588Y-5385755D01*
X13001343Y-5435244D01*
X13001337Y-5435247D01*
X12837897Y-5521898D01*
X12817431Y-5539283D01*
X12780669Y-5570508D01*
X12716833Y-5598906D01*
X12700395Y-5600000D01*
X11503550Y-5600000D01*
X11400000Y-5600000D01*
X11326777Y-5673221D01*
X11326774Y-5673224D01*
X11326773Y-5673225D01*
X10481858Y-6518141D01*
X10463067Y-6533562D01*
X10412625Y-6567266D01*
X10367928Y-6585781D01*
X10333777Y-6592574D01*
X10308425Y-6597617D01*
X10284236Y-6600000D01*
X9947332Y-6600000D01*
X9880293Y-6580315D01*
X9859655Y-6563685D01*
X9723704Y-6427734D01*
X9723703Y-6427733D01*
X9722154Y-6426184D01*
X9722140Y-6426171D01*
X9700824Y-6404855D01*
X9700823Y-6404854D01*
X9693809Y-6401280D01*
X9680691Y-6394596D01*
X9664101Y-6384430D01*
X9645818Y-6371146D01*
X9645814Y-6371144D01*
X9624325Y-6364162D01*
X9606354Y-6356719D01*
X9586219Y-6346460D01*
X9581517Y-6345715D01*
X9563899Y-6342925D01*
X9544984Y-6338384D01*
X9523491Y-6331400D01*
X9523490Y-6331400D01*
X9491132Y-6331400D01*
X9101134Y-6331400D01*
X8972510Y-6331400D01*
X8972507Y-6331400D01*
X8951013Y-6338384D01*
X8932097Y-6342925D01*
X8909785Y-6346459D01*
X8909778Y-6346461D01*
X8889644Y-6356719D01*
X8871682Y-6364159D01*
X8850183Y-6371145D01*
X8850177Y-6371148D01*
X8831894Y-6384432D01*
X8815310Y-6394595D01*
X8795178Y-6404853D01*
X8795177Y-6404854D01*
X8772299Y-6427731D01*
X8772296Y-6427734D01*
X8636348Y-6563682D01*
X8575025Y-6597166D01*
X8548667Y-6600000D01*
X7715764Y-6600000D01*
X7691574Y-6597617D01*
X7658814Y-6591101D01*
X7632071Y-6585781D01*
X7587374Y-6567266D01*
X7536932Y-6533562D01*
X7518141Y-6518141D01*
X6381858Y-5381858D01*
X6366437Y-5363067D01*
X6332733Y-5312625D01*
X6314218Y-5267926D01*
X6302383Y-5208427D01*
X6300000Y-5184236D01*
X6300000Y-4162210D01*
X6302383Y-4138019D01*
X6314218Y-4078519D01*
X6332729Y-4033826D01*
X6359524Y-3993724D01*
X6393724Y-3959524D01*
X6433826Y-3932729D01*
X6478514Y-3914219D01*
X6538028Y-3902381D01*
X6562211Y-3900000D01*
X16336232Y-3900000D01*
X16360040Y-3902307D01*
G37*
%TD.AperFunction*%
%TD*%
%TA.AperFunction,Conductor*%
%TO.N,VBUS*%
G36*
X6256509Y-10858603D02*
G01*
X6308615Y-10871445D01*
X6336568Y-10882046D01*
X6384087Y-10906986D01*
X6404197Y-10920867D01*
X6404293Y-10920744D01*
X6404314Y-10920714D01*
X6404315Y-10920715D01*
X6404460Y-10920531D01*
X6407458Y-10922876D01*
X6469011Y-10965201D01*
X6484801Y-10973417D01*
X6522414Y-10992989D01*
X6567734Y-11012108D01*
X6679001Y-11027086D01*
X6748780Y-11023525D01*
X6831348Y-11007320D01*
X6855228Y-11005000D01*
X7475500Y-11005000D01*
X7542539Y-11024685D01*
X7588294Y-11077489D01*
X7599500Y-11129000D01*
X7599500Y-12171000D01*
X7579815Y-12238039D01*
X7527011Y-12283794D01*
X7475500Y-12295000D01*
X6855622Y-12295000D01*
X6829293Y-12292172D01*
X6761093Y-12277351D01*
X6761092Y-12277350D01*
X6761088Y-12277350D01*
X6701147Y-12271857D01*
X6651967Y-12271325D01*
X6651964Y-12271325D01*
X6543316Y-12299597D01*
X6543311Y-12299599D01*
X6480084Y-12329316D01*
X6407448Y-12377132D01*
X6403931Y-12379826D01*
X6403676Y-12379494D01*
X6384090Y-12393011D01*
X6336570Y-12417952D01*
X6308619Y-12428553D01*
X6282564Y-12434975D01*
X6256508Y-12441397D01*
X6226834Y-12445000D01*
X6173164Y-12445000D01*
X6143490Y-12441397D01*
X6130288Y-12438143D01*
X6091383Y-12428554D01*
X6063432Y-12417953D01*
X6015911Y-12393012D01*
X5991311Y-12376032D01*
X5951134Y-12340439D01*
X5931313Y-12318067D01*
X5900822Y-12273893D01*
X5886933Y-12247428D01*
X5867902Y-12197248D01*
X5860748Y-12168225D01*
X5854279Y-12114939D01*
X5854279Y-12085055D01*
X5855308Y-12076579D01*
X5860748Y-12031769D01*
X5867900Y-12002752D01*
X5886933Y-11952568D01*
X5900827Y-11926099D01*
X5902447Y-11923753D01*
X5925861Y-11889833D01*
X5933005Y-11878715D01*
X5971792Y-11789935D01*
X5989258Y-11722284D01*
X5998559Y-11661502D01*
X5991380Y-11608152D01*
X5983588Y-11550242D01*
X5983587Y-11550234D01*
X5961704Y-11483879D01*
X5922996Y-11406017D01*
X5913606Y-11392413D01*
X5900824Y-11373895D01*
X5886933Y-11347428D01*
X5870275Y-11303505D01*
X5867902Y-11297248D01*
X5860748Y-11268225D01*
X5854279Y-11214939D01*
X5854279Y-11185058D01*
X5860748Y-11131769D01*
X5867900Y-11102753D01*
X5886935Y-11052563D01*
X5900823Y-11026105D01*
X5900869Y-11026039D01*
X5931314Y-10981931D01*
X5951132Y-10959561D01*
X5991314Y-10923963D01*
X6015911Y-10906986D01*
X6063428Y-10882046D01*
X6091374Y-10871447D01*
X6143496Y-10858601D01*
X6173163Y-10855000D01*
X6226836Y-10855000D01*
X6256509Y-10858603D01*
G37*
%TD.AperFunction*%
%TD*%
%TA.AperFunction,Conductor*%
%TO.N,GND*%
G36*
X20146483Y-1942772D02*
G01*
X20191179Y-1961287D01*
X20241621Y-1994991D01*
X20260412Y-2010412D01*
X21188108Y-2938108D01*
X21260119Y-3010119D01*
X20400000Y-3000000D01*
X18198609Y-5179154D01*
X17540464Y-4537062D01*
X17506224Y-4476157D01*
X17510348Y-4406409D01*
X17539373Y-4360626D01*
X19889592Y-2010407D01*
X19908373Y-1994994D01*
X19958822Y-1961286D01*
X20003516Y-1942772D01*
X20050810Y-1933365D01*
X20099190Y-1933365D01*
X20146483Y-1942772D01*
G37*
%TD.AperFunction*%
%TD*%
%TA.AperFunction,Conductor*%
%TO.N,GND*%
G36*
X10536802Y-10855519D02*
G01*
X10546636Y-10859962D01*
X10546873Y-10860039D01*
X10546874Y-10860039D01*
X10546876Y-10860040D01*
X10569194Y-10863574D01*
X10588107Y-10868115D01*
X10609604Y-10875100D01*
X10609605Y-10875100D01*
X12200000Y-10875100D01*
X12200000Y-12500000D01*
X10223231Y-12500000D01*
X10267401Y-12467401D01*
X10267401Y-12467400D01*
X10351028Y-12354091D01*
X10397541Y-12221166D01*
X10400500Y-12189610D01*
X10400500Y-11110390D01*
X10397541Y-11078834D01*
X10397539Y-11078830D01*
X10397539Y-11078826D01*
X10374067Y-11011748D01*
X10370504Y-10941969D01*
X10405233Y-10881342D01*
X10467226Y-10849114D01*
X10536802Y-10855519D01*
G37*
%TD.AperFunction*%
%TD*%
%TA.AperFunction,Conductor*%
%TO.N,GND*%
G36*
X44261980Y-4902383D02*
G01*
X44321480Y-4914218D01*
X44366175Y-4932730D01*
X44406272Y-4959522D01*
X44440477Y-4993727D01*
X44467267Y-5033822D01*
X44485781Y-5078517D01*
X44489542Y-5097427D01*
X44497617Y-5138019D01*
X44500000Y-5162210D01*
X44500000Y-6687789D01*
X44497617Y-6711982D01*
X44485781Y-6771482D01*
X44467267Y-6816179D01*
X44440481Y-6856268D01*
X44406269Y-6890479D01*
X44371975Y-6913394D01*
X44366179Y-6917267D01*
X44321482Y-6935781D01*
X44287857Y-6942469D01*
X44261978Y-6947617D01*
X44237789Y-6950000D01*
X42962211Y-6950000D01*
X42938020Y-6947617D01*
X42923189Y-6944667D01*
X42878518Y-6935781D01*
X42833822Y-6917267D01*
X42793727Y-6890477D01*
X42759522Y-6856272D01*
X42732730Y-6816175D01*
X42714218Y-6771480D01*
X42702383Y-6711980D01*
X42700000Y-6687789D01*
X42700000Y-5162210D01*
X42702383Y-5138019D01*
X42714218Y-5078517D01*
X42732729Y-5033826D01*
X42759524Y-4993724D01*
X42793724Y-4959524D01*
X42833826Y-4932729D01*
X42878514Y-4914219D01*
X42938028Y-4902381D01*
X42962211Y-4900000D01*
X44237789Y-4900000D01*
X44261980Y-4902383D01*
G37*
%TD.AperFunction*%
%TD*%
%TA.AperFunction,Conductor*%
%TO.N,+5V*%
G36*
X36008418Y-3952381D02*
G01*
X36067929Y-3964218D01*
X36112624Y-3982732D01*
X36161694Y-4015520D01*
X36164703Y-4017663D01*
X36173569Y-4024385D01*
X36179948Y-4029948D01*
X36400000Y-4250000D01*
X37500000Y-4250000D01*
X38250000Y-4250000D01*
X38274783Y-4250000D01*
X38341822Y-4269685D01*
X38348406Y-4274222D01*
X38387118Y-4302793D01*
X38421652Y-4314877D01*
X38515299Y-4347646D01*
X38545730Y-4350500D01*
X38545734Y-4350500D01*
X39679270Y-4350500D01*
X39709699Y-4347646D01*
X39709701Y-4347646D01*
X39773790Y-4325219D01*
X39837882Y-4302793D01*
X39876584Y-4274229D01*
X39942212Y-4250259D01*
X39950217Y-4250000D01*
X41937789Y-4250000D01*
X41961980Y-4252383D01*
X42021480Y-4264218D01*
X42066175Y-4282730D01*
X42106272Y-4309522D01*
X42140477Y-4343727D01*
X42167267Y-4383822D01*
X42185781Y-4428517D01*
X42197617Y-4488022D01*
X42200000Y-4512210D01*
X42200000Y-5537789D01*
X42197617Y-5561982D01*
X42185781Y-5621482D01*
X42167267Y-5666179D01*
X42140481Y-5706268D01*
X42106269Y-5740479D01*
X42071975Y-5763394D01*
X42066179Y-5767267D01*
X42021482Y-5785781D01*
X41987857Y-5792469D01*
X41961978Y-5797617D01*
X41937789Y-5800000D01*
X35612211Y-5800000D01*
X35588020Y-5797617D01*
X35573189Y-5794667D01*
X35528518Y-5785781D01*
X35483822Y-5767267D01*
X35443727Y-5740477D01*
X35409522Y-5706272D01*
X35382730Y-5666175D01*
X35364218Y-5621480D01*
X35352383Y-5561980D01*
X35350000Y-5537789D01*
X35350000Y-4212210D01*
X35352383Y-4188019D01*
X35364218Y-4128517D01*
X35382729Y-4083826D01*
X35409524Y-4043724D01*
X35443724Y-4009524D01*
X35483826Y-3982729D01*
X35528514Y-3964219D01*
X35588028Y-3952381D01*
X35612211Y-3950000D01*
X35984236Y-3950000D01*
X36008418Y-3952381D01*
G37*
%TD.AperFunction*%
%TD*%
%TA.AperFunction,Conductor*%
%TO.N,GNDPWR*%
G36*
X99520536Y-520185D02*
G01*
X99566291Y-572989D01*
X99576235Y-642147D01*
X99547210Y-705703D01*
X99504573Y-737492D01*
X99337034Y-813223D01*
X99337032Y-813224D01*
X99145999Y-942342D01*
X98979540Y-1101878D01*
X98842434Y-1287257D01*
X98738630Y-1493138D01*
X98671113Y-1713606D01*
X98641828Y-1942306D01*
X98651613Y-2172662D01*
X98651614Y-2172670D01*
X98700190Y-2398062D01*
X98700190Y-2398063D01*
X98786157Y-2612002D01*
X98907048Y-2808342D01*
X99059380Y-2981425D01*
X99059384Y-2981429D01*
X99238765Y-3126269D01*
X99238766Y-3126270D01*
X99238769Y-3126271D01*
X99238772Y-3126274D01*
X99440063Y-3238721D01*
X99657462Y-3315533D01*
X99781956Y-3336880D01*
X99884706Y-3354499D01*
X99884715Y-3354500D01*
X100057540Y-3354500D01*
X100229734Y-3339844D01*
X100229737Y-3339843D01*
X100229739Y-3339843D01*
X100452869Y-3281745D01*
X100596243Y-3216936D01*
X100662965Y-3186776D01*
X100662967Y-3186775D01*
X100662967Y-3186774D01*
X100662971Y-3186773D01*
X100854000Y-3057659D01*
X101020462Y-2898119D01*
X101157566Y-2712742D01*
X101261370Y-2506860D01*
X101261370Y-2506858D01*
X101263741Y-2502157D01*
X101265339Y-2502962D01*
X101303692Y-2454311D01*
X101369746Y-2431537D01*
X101437626Y-2448089D01*
X101485782Y-2498713D01*
X101499500Y-2555403D01*
X101499500Y-3838503D01*
X101479815Y-3905542D01*
X101427011Y-3951297D01*
X101357853Y-3961241D01*
X101300459Y-3937219D01*
X101230697Y-3884187D01*
X101230690Y-3884183D01*
X101066744Y-3808333D01*
X101066740Y-3808331D01*
X100890322Y-3769500D01*
X100754972Y-3769500D01*
X100754970Y-3769500D01*
X100620413Y-3784134D01*
X100449225Y-3841814D01*
X100294437Y-3934947D01*
X100294436Y-3934948D01*
X100163290Y-4059175D01*
X100061915Y-4208695D01*
X100061914Y-4208698D01*
X99995054Y-4376502D01*
X99995053Y-4376505D01*
X99965828Y-4554776D01*
X99975607Y-4735152D01*
X99975608Y-4735154D01*
X100023934Y-4909209D01*
X100023937Y-4909215D01*
X100051712Y-4961603D01*
X100108551Y-5068814D01*
X100212959Y-5191732D01*
X100225498Y-5206494D01*
X100341210Y-5294457D01*
X100369308Y-5315816D01*
X100533256Y-5391667D01*
X100533257Y-5391667D01*
X100533259Y-5391668D01*
X100586782Y-5403448D01*
X100709678Y-5430500D01*
X100709681Y-5430500D01*
X100845022Y-5430500D01*
X100845028Y-5430500D01*
X100979586Y-5415866D01*
X101150774Y-5358186D01*
X101305561Y-5265054D01*
X101305562Y-5265053D01*
X101311321Y-5261588D01*
X101312914Y-5264236D01*
X101365442Y-5244056D01*
X101433857Y-5258238D01*
X101483744Y-5307156D01*
X101499500Y-5367647D01*
X101499500Y-13957732D01*
X101479815Y-14024771D01*
X101427011Y-14070526D01*
X101357853Y-14080470D01*
X101294297Y-14051445D01*
X101260442Y-14003966D01*
X101213842Y-13887997D01*
X101213841Y-13887994D01*
X101092951Y-13691657D01*
X100940620Y-13518575D01*
X100940619Y-13518574D01*
X100940615Y-13518570D01*
X100761234Y-13373730D01*
X100761233Y-13373729D01*
X100559938Y-13261279D01*
X100342541Y-13184468D01*
X100342540Y-13184467D01*
X100342538Y-13184467D01*
X100342534Y-13184466D01*
X100342533Y-13184466D01*
X100115293Y-13145500D01*
X100115285Y-13145500D01*
X99942465Y-13145500D01*
X99942460Y-13145500D01*
X99770265Y-13160155D01*
X99547131Y-13218254D01*
X99337034Y-13313223D01*
X99337032Y-13313224D01*
X99145999Y-13442342D01*
X98979540Y-13601878D01*
X98842434Y-13787257D01*
X98738630Y-13993138D01*
X98671113Y-14213606D01*
X98641828Y-14442306D01*
X98651613Y-14672662D01*
X98651614Y-14672670D01*
X98700190Y-14898062D01*
X98700190Y-14898063D01*
X98786157Y-15112002D01*
X98786159Y-15112006D01*
X98805189Y-15142912D01*
X98907048Y-15308342D01*
X99059380Y-15481425D01*
X99059384Y-15481429D01*
X99238765Y-15626269D01*
X99238766Y-15626270D01*
X99238769Y-15626271D01*
X99238772Y-15626274D01*
X99440063Y-15738720D01*
X99440063Y-15738721D01*
X99496278Y-15758583D01*
X99552931Y-15799477D01*
X99578481Y-15864507D01*
X99564817Y-15933028D01*
X99516277Y-15983284D01*
X99454969Y-15999500D01*
X97974845Y-15999500D01*
X97907806Y-15979815D01*
X97862051Y-15927011D01*
X97852107Y-15857853D01*
X97881132Y-15794297D01*
X97889570Y-15785477D01*
X97936709Y-15740824D01*
X97973356Y-15686773D01*
X98038083Y-15591307D01*
X98104947Y-15423492D01*
X98134172Y-15245227D01*
X98124392Y-15064848D01*
X98099864Y-14976508D01*
X98076065Y-14890790D01*
X98076062Y-14890784D01*
X98067417Y-14874479D01*
X97991449Y-14731186D01*
X97874502Y-14593506D01*
X97863085Y-14584827D01*
X97730698Y-14484188D01*
X97730690Y-14484183D01*
X97566744Y-14408333D01*
X97566740Y-14408331D01*
X97390322Y-14369500D01*
X97254972Y-14369500D01*
X97254970Y-14369500D01*
X97120413Y-14384134D01*
X96949225Y-14441814D01*
X96794437Y-14534947D01*
X96794436Y-14534948D01*
X96663290Y-14659175D01*
X96561915Y-14808695D01*
X96561914Y-14808698D01*
X96495054Y-14976502D01*
X96495053Y-14976505D01*
X96495053Y-14976508D01*
X96467704Y-15143333D01*
X96465828Y-15154776D01*
X96475607Y-15335152D01*
X96475608Y-15335154D01*
X96523934Y-15509209D01*
X96523937Y-15509215D01*
X96549621Y-15557659D01*
X96608551Y-15668814D01*
X96608552Y-15668815D01*
X96715925Y-15795224D01*
X96744323Y-15859063D01*
X96733699Y-15928120D01*
X96687426Y-15980471D01*
X96621417Y-15999500D01*
X93329500Y-15999500D01*
X93262461Y-15979815D01*
X93216706Y-15927011D01*
X93205500Y-15875500D01*
X93205500Y-12287832D01*
X93225185Y-12220793D01*
X93277989Y-12175038D01*
X93347147Y-12165094D01*
X93410703Y-12194119D01*
X93417156Y-12200127D01*
X93419235Y-12202206D01*
X93522009Y-12247585D01*
X93547135Y-12250500D01*
X95036864Y-12250499D01*
X95036879Y-12250497D01*
X95036882Y-12250497D01*
X95061987Y-12247586D01*
X95061988Y-12247585D01*
X95061991Y-12247585D01*
X95164765Y-12202206D01*
X95244206Y-12122765D01*
X95289585Y-12019991D01*
X95292500Y-11994865D01*
X95292500Y-10550500D01*
X95292500Y-9805477D01*
X95992000Y-9805477D01*
X96007378Y-9971439D01*
X96068240Y-10185350D01*
X96167368Y-10384425D01*
X96301391Y-10561900D01*
X96465738Y-10711721D01*
X96654820Y-10828797D01*
X96654822Y-10828798D01*
X96862195Y-10909135D01*
X96942000Y-10924052D01*
X96942000Y-9816110D01*
X96966457Y-9855610D01*
X97055962Y-9923201D01*
X97163840Y-9953895D01*
X97275521Y-9943546D01*
X97375922Y-9893552D01*
X97442000Y-9821069D01*
X97442000Y-10924052D01*
X97521804Y-10909135D01*
X97729177Y-10828798D01*
X97729179Y-10828797D01*
X97918261Y-10711721D01*
X98082608Y-10561900D01*
X98216631Y-10384425D01*
X98315759Y-10185350D01*
X98376621Y-9971439D01*
X98392000Y-9805477D01*
X98392000Y-9450000D01*
X97492000Y-9450000D01*
X97492000Y-8950000D01*
X98392000Y-8950000D01*
X98392000Y-8594522D01*
X98376621Y-8428560D01*
X98315759Y-8214649D01*
X98216631Y-8015574D01*
X98082608Y-7838099D01*
X97918261Y-7688278D01*
X97729179Y-7571202D01*
X97729177Y-7571201D01*
X97521799Y-7490864D01*
X97442000Y-7475946D01*
X97442000Y-8583889D01*
X97417543Y-8544390D01*
X97328038Y-8476799D01*
X97220160Y-8446105D01*
X97108479Y-8456454D01*
X97008078Y-8506448D01*
X96942000Y-8578930D01*
X96942000Y-7475946D01*
X96862200Y-7490864D01*
X96654822Y-7571201D01*
X96654820Y-7571202D01*
X96465738Y-7688278D01*
X96301391Y-7838099D01*
X96167368Y-8015574D01*
X96068240Y-8214649D01*
X96007378Y-8428560D01*
X95992000Y-8594522D01*
X95992000Y-8950000D01*
X96892000Y-8950000D01*
X96892000Y-9450000D01*
X95992000Y-9450000D01*
X95992000Y-9805477D01*
X95292500Y-9805477D01*
X95292500Y-8549258D01*
X95288128Y-8506259D01*
X95277074Y-8397560D01*
X95216162Y-8203420D01*
X95216160Y-8203416D01*
X95216159Y-8203412D01*
X95117409Y-8025498D01*
X95117408Y-8025497D01*
X95117407Y-8025495D01*
X94984867Y-7871106D01*
X94984865Y-7871104D01*
X94823962Y-7746554D01*
X94823959Y-7746553D01*
X94823958Y-7746552D01*
X94641271Y-7656940D01*
X94444285Y-7605937D01*
X94444287Y-7605937D01*
X94308804Y-7599066D01*
X94241064Y-7595631D01*
X94241063Y-7595631D01*
X94241061Y-7595631D01*
X94039936Y-7626442D01*
X94039924Y-7626445D01*
X93849118Y-7697111D01*
X93849111Y-7697115D01*
X93676432Y-7804745D01*
X93676427Y-7804749D01*
X93528949Y-7944938D01*
X93528947Y-7944940D01*
X93528947Y-7944941D01*
X93517967Y-7960717D01*
X93412705Y-8111949D01*
X93332459Y-8298943D01*
X93291500Y-8498258D01*
X93291500Y-11882971D01*
X93271815Y-11950010D01*
X93219011Y-11995765D01*
X93149853Y-12005709D01*
X93086297Y-11976684D01*
X93076224Y-11966903D01*
X93058341Y-11947451D01*
X93058337Y-11947448D01*
X93002407Y-11905580D01*
X92949730Y-11873877D01*
X92885076Y-11856941D01*
X92825213Y-11820910D01*
X92794333Y-11758235D01*
X92792499Y-11736988D01*
X92792499Y-9105143D01*
X92792499Y-9105137D01*
X92792499Y-9105136D01*
X92792000Y-9100829D01*
X92789586Y-9080012D01*
X92789585Y-9080010D01*
X92789585Y-9080009D01*
X92744206Y-8977235D01*
X92664765Y-8897794D01*
X92655955Y-8893904D01*
X92561992Y-8852415D01*
X92536865Y-8849500D01*
X91047143Y-8849500D01*
X91047117Y-8849502D01*
X91022012Y-8852413D01*
X91022008Y-8852415D01*
X90919235Y-8897793D01*
X90919233Y-8897794D01*
X90879680Y-8937348D01*
X90818357Y-8970832D01*
X90748665Y-8965847D01*
X90704320Y-8937348D01*
X90664765Y-8897794D01*
X90561992Y-8852415D01*
X90536865Y-8849500D01*
X89047143Y-8849500D01*
X89047117Y-8849502D01*
X89022012Y-8852413D01*
X89022008Y-8852415D01*
X88919235Y-8897793D01*
X88839794Y-8977234D01*
X88794415Y-9080006D01*
X88794415Y-9080008D01*
X88791500Y-9105131D01*
X88791500Y-11220500D01*
X88771815Y-11287539D01*
X88719011Y-11333294D01*
X88667500Y-11344500D01*
X88416499Y-11344500D01*
X88349460Y-11324815D01*
X88303705Y-11272011D01*
X88292499Y-11220500D01*
X88292500Y-10924052D01*
X88292500Y-10550500D01*
X88292500Y-8745459D01*
X88292679Y-8740750D01*
X88294784Y-8713115D01*
X88305337Y-8574523D01*
X88302119Y-8549258D01*
X88279631Y-8372678D01*
X88279630Y-8372676D01*
X88279630Y-8372672D01*
X88213816Y-8180128D01*
X88161798Y-8091761D01*
X88110593Y-8004776D01*
X88110592Y-8004775D01*
X88110591Y-8004773D01*
X87974179Y-7853786D01*
X87974178Y-7853785D01*
X87974177Y-7853784D01*
X87810170Y-7733352D01*
X87810167Y-7733351D01*
X87625271Y-7648395D01*
X87625264Y-7648393D01*
X87427054Y-7602396D01*
X87223641Y-7597242D01*
X87023352Y-7633140D01*
X87023345Y-7633142D01*
X86834385Y-7708621D01*
X86834376Y-7708625D01*
X86664482Y-7820597D01*
X86593532Y-7891547D01*
X86528945Y-7952943D01*
X86493899Y-8003294D01*
X86491062Y-8007056D01*
X86452302Y-8054592D01*
X86452299Y-8054597D01*
X86436392Y-8085047D01*
X86432324Y-8091761D01*
X86412702Y-8119954D01*
X86388509Y-8176330D01*
X86386488Y-8180584D01*
X86358091Y-8234951D01*
X86358090Y-8234952D01*
X86348640Y-8267975D01*
X86346007Y-8275371D01*
X86332459Y-8306943D01*
X86320113Y-8367019D01*
X86318990Y-8371595D01*
X86302113Y-8430577D01*
X86302113Y-8430579D01*
X86299503Y-8464841D01*
X86298414Y-8472608D01*
X86297554Y-8476799D01*
X86291500Y-8506258D01*
X86291500Y-8567597D01*
X86291321Y-8572306D01*
X86286662Y-8633474D01*
X86287462Y-8639750D01*
X86291003Y-8667560D01*
X86291500Y-8675388D01*
X86291500Y-11220500D01*
X86271815Y-11287539D01*
X86219011Y-11333294D01*
X86167500Y-11344500D01*
X74186499Y-11344500D01*
X74119460Y-11324815D01*
X74073705Y-11272011D01*
X74062499Y-11220500D01*
X74062500Y-10924052D01*
X74062500Y-10550500D01*
X74062500Y-9805477D01*
X74762000Y-9805477D01*
X74777378Y-9971439D01*
X74838240Y-10185350D01*
X74937368Y-10384425D01*
X75071391Y-10561900D01*
X75235738Y-10711721D01*
X75424820Y-10828797D01*
X75424822Y-10828798D01*
X75632195Y-10909135D01*
X75712000Y-10924052D01*
X75712000Y-9816110D01*
X75736457Y-9855610D01*
X75825962Y-9923201D01*
X75933840Y-9953895D01*
X76045521Y-9943546D01*
X76145922Y-9893552D01*
X76212000Y-9821069D01*
X76212000Y-10924052D01*
X76291804Y-10909135D01*
X76499177Y-10828798D01*
X76499179Y-10828797D01*
X76688261Y-10711721D01*
X76852608Y-10561900D01*
X76986631Y-10384425D01*
X77085759Y-10185350D01*
X77146621Y-9971439D01*
X77162000Y-9805477D01*
X83192000Y-9805477D01*
X83207378Y-9971439D01*
X83268240Y-10185350D01*
X83367368Y-10384425D01*
X83501391Y-10561900D01*
X83665738Y-10711721D01*
X83854820Y-10828797D01*
X83854822Y-10828798D01*
X84062195Y-10909135D01*
X84142000Y-10924052D01*
X84142000Y-9816110D01*
X84166457Y-9855610D01*
X84255962Y-9923201D01*
X84363840Y-9953895D01*
X84475521Y-9943546D01*
X84575922Y-9893552D01*
X84642000Y-9821069D01*
X84642000Y-10924052D01*
X84721804Y-10909135D01*
X84929177Y-10828798D01*
X84929179Y-10828797D01*
X85118261Y-10711721D01*
X85282608Y-10561900D01*
X85416631Y-10384425D01*
X85515759Y-10185350D01*
X85576621Y-9971439D01*
X85592000Y-9805477D01*
X85592000Y-9450000D01*
X84692000Y-9450000D01*
X84692000Y-8950000D01*
X85592000Y-8950000D01*
X85592000Y-8594522D01*
X85576621Y-8428560D01*
X85515759Y-8214649D01*
X85416631Y-8015574D01*
X85282608Y-7838099D01*
X85118261Y-7688278D01*
X84929179Y-7571202D01*
X84929177Y-7571201D01*
X84721799Y-7490864D01*
X84642000Y-7475946D01*
X84642000Y-8583889D01*
X84617543Y-8544390D01*
X84528038Y-8476799D01*
X84420160Y-8446105D01*
X84308479Y-8456454D01*
X84208078Y-8506448D01*
X84142000Y-8578930D01*
X84142000Y-7475946D01*
X84062200Y-7490864D01*
X83854822Y-7571201D01*
X83854820Y-7571202D01*
X83665738Y-7688278D01*
X83501391Y-7838099D01*
X83367368Y-8015574D01*
X83268240Y-8214649D01*
X83207378Y-8428560D01*
X83192000Y-8594522D01*
X83192000Y-8950000D01*
X84092000Y-8950000D01*
X84092000Y-9450000D01*
X83192000Y-9450000D01*
X83192000Y-9805477D01*
X77162000Y-9805477D01*
X77162000Y-9450000D01*
X76262000Y-9450000D01*
X76262000Y-8950000D01*
X77162000Y-8950000D01*
X77162000Y-8594522D01*
X77146621Y-8428560D01*
X77085759Y-8214649D01*
X76986631Y-8015574D01*
X76852608Y-7838099D01*
X76688261Y-7688278D01*
X76499179Y-7571202D01*
X76499177Y-7571201D01*
X76291799Y-7490864D01*
X76212000Y-7475946D01*
X76212000Y-8583889D01*
X76187543Y-8544390D01*
X76098038Y-8476799D01*
X75990160Y-8446105D01*
X75878479Y-8456454D01*
X75778078Y-8506448D01*
X75712000Y-8578930D01*
X75712000Y-7475946D01*
X75632200Y-7490864D01*
X75424822Y-7571201D01*
X75424820Y-7571202D01*
X75235738Y-7688278D01*
X75071391Y-7838099D01*
X74937368Y-8015574D01*
X74838240Y-8214649D01*
X74777378Y-8428560D01*
X74762000Y-8594522D01*
X74762000Y-8950000D01*
X75662000Y-8950000D01*
X75662000Y-9450000D01*
X74762000Y-9450000D01*
X74762000Y-9805477D01*
X74062500Y-9805477D01*
X74062500Y-8549258D01*
X74058128Y-8506259D01*
X74047074Y-8397560D01*
X73986162Y-8203420D01*
X73986160Y-8203416D01*
X73986159Y-8203412D01*
X73887409Y-8025498D01*
X73887408Y-8025497D01*
X73887407Y-8025495D01*
X73754867Y-7871106D01*
X73754865Y-7871104D01*
X73593962Y-7746554D01*
X73593959Y-7746553D01*
X73593958Y-7746552D01*
X73411271Y-7656940D01*
X73214285Y-7605937D01*
X73214287Y-7605937D01*
X73078804Y-7599066D01*
X73011064Y-7595631D01*
X73011063Y-7595631D01*
X73011061Y-7595631D01*
X72809936Y-7626442D01*
X72809924Y-7626445D01*
X72619118Y-7697111D01*
X72619111Y-7697115D01*
X72446432Y-7804745D01*
X72446427Y-7804749D01*
X72298949Y-7944938D01*
X72298947Y-7944940D01*
X72298947Y-7944941D01*
X72287967Y-7960717D01*
X72182705Y-8111949D01*
X72102459Y-8298943D01*
X72061500Y-8498258D01*
X72061500Y-11220500D01*
X72041815Y-11287539D01*
X71989011Y-11333294D01*
X71937500Y-11344500D01*
X71686499Y-11344500D01*
X71619460Y-11324815D01*
X71573705Y-11272011D01*
X71562499Y-11220500D01*
X71562499Y-9105143D01*
X71562499Y-9105137D01*
X71562499Y-9105136D01*
X71562000Y-9100829D01*
X71559586Y-9080012D01*
X71559585Y-9080010D01*
X71559585Y-9080009D01*
X71514206Y-8977235D01*
X71434765Y-8897794D01*
X71425955Y-8893904D01*
X71331992Y-8852415D01*
X71306865Y-8849500D01*
X69817143Y-8849500D01*
X69817117Y-8849502D01*
X69792012Y-8852413D01*
X69792008Y-8852415D01*
X69689235Y-8897793D01*
X69689233Y-8897794D01*
X69649680Y-8937348D01*
X69588357Y-8970832D01*
X69518665Y-8965847D01*
X69474320Y-8937348D01*
X69434765Y-8897794D01*
X69331992Y-8852415D01*
X69306865Y-8849500D01*
X67817143Y-8849500D01*
X67817117Y-8849502D01*
X67792012Y-8852413D01*
X67792008Y-8852415D01*
X67689235Y-8897793D01*
X67609794Y-8977234D01*
X67564415Y-9080006D01*
X67564415Y-9080008D01*
X67561500Y-9105131D01*
X67561500Y-9105137D01*
X67561501Y-11950900D01*
X67541816Y-12017939D01*
X67489013Y-12063694D01*
X67437501Y-12074900D01*
X67186500Y-12074900D01*
X67119461Y-12055215D01*
X67073706Y-12002411D01*
X67062500Y-11950900D01*
X67062500Y-10384425D01*
X67062500Y-8549258D01*
X67047074Y-8397562D01*
X67047074Y-8397560D01*
X66986162Y-8203420D01*
X66986160Y-8203416D01*
X66986159Y-8203412D01*
X66887409Y-8025498D01*
X66887408Y-8025497D01*
X66887407Y-8025495D01*
X66754867Y-7871106D01*
X66754865Y-7871104D01*
X66593962Y-7746554D01*
X66593959Y-7746553D01*
X66593958Y-7746552D01*
X66411271Y-7656940D01*
X66214285Y-7605937D01*
X66214287Y-7605937D01*
X66078804Y-7599066D01*
X66011064Y-7595631D01*
X66011063Y-7595631D01*
X66011061Y-7595631D01*
X65809936Y-7626442D01*
X65809924Y-7626445D01*
X65619118Y-7697111D01*
X65619111Y-7697115D01*
X65446432Y-7804745D01*
X65446427Y-7804749D01*
X65298949Y-7944938D01*
X65298947Y-7944940D01*
X65298947Y-7944941D01*
X65287967Y-7960717D01*
X65182705Y-8111949D01*
X65102459Y-8298943D01*
X65061499Y-8498258D01*
X65061500Y-9612457D01*
X65061500Y-10600742D01*
X65061500Y-10600747D01*
X65061500Y-11287539D01*
X65061501Y-11950900D01*
X65041816Y-12017939D01*
X64989013Y-12063694D01*
X64937501Y-12074900D01*
X61629500Y-12074900D01*
X61562461Y-12055215D01*
X61516706Y-12002411D01*
X61505500Y-11950900D01*
X61505500Y-11254714D01*
X61504764Y-11239721D01*
X61502870Y-11220500D01*
X61500910Y-11200608D01*
X61498710Y-11185776D01*
X61485411Y-11118918D01*
X61468025Y-11061603D01*
X61449511Y-11016908D01*
X61449508Y-11016901D01*
X61421282Y-10964097D01*
X61421280Y-10964092D01*
X61394502Y-10924016D01*
X61394489Y-10923998D01*
X61356493Y-10877700D01*
X61322298Y-10843505D01*
X61316462Y-10838716D01*
X61275999Y-10805508D01*
X61274450Y-10804473D01*
X61235907Y-10778719D01*
X61235889Y-10778708D01*
X61183085Y-10750485D01*
X61183075Y-10750480D01*
X61138382Y-10731969D01*
X61081083Y-10714588D01*
X61014220Y-10701289D01*
X61014219Y-10701289D01*
X61010834Y-10700787D01*
X60999391Y-10699090D01*
X60999383Y-10699089D01*
X60999375Y-10699088D01*
X60999374Y-10699088D01*
X60960275Y-10695236D01*
X60960276Y-10695236D01*
X60954654Y-10694960D01*
X60945290Y-10694500D01*
X60945285Y-10694500D01*
X54577904Y-10694500D01*
X54510865Y-10674815D01*
X54490223Y-10658181D01*
X53637520Y-9805477D01*
X61962000Y-9805477D01*
X61977378Y-9971439D01*
X62038240Y-10185350D01*
X62137368Y-10384425D01*
X62271391Y-10561900D01*
X62435738Y-10711721D01*
X62624820Y-10828797D01*
X62624822Y-10828798D01*
X62832195Y-10909135D01*
X62912000Y-10924052D01*
X62912000Y-9816110D01*
X62936457Y-9855610D01*
X63025962Y-9923201D01*
X63133840Y-9953895D01*
X63245521Y-9943546D01*
X63345922Y-9893552D01*
X63412000Y-9821069D01*
X63412000Y-10924052D01*
X63491804Y-10909135D01*
X63699177Y-10828798D01*
X63699179Y-10828797D01*
X63888261Y-10711721D01*
X64052608Y-10561900D01*
X64186631Y-10384425D01*
X64285759Y-10185350D01*
X64346621Y-9971439D01*
X64362000Y-9805477D01*
X64362000Y-9450000D01*
X63462000Y-9450000D01*
X63462000Y-8950000D01*
X64362000Y-8950000D01*
X64362000Y-8594522D01*
X64346621Y-8428560D01*
X64285759Y-8214649D01*
X64186631Y-8015574D01*
X64052608Y-7838099D01*
X63888261Y-7688278D01*
X63699179Y-7571202D01*
X63699177Y-7571201D01*
X63491799Y-7490864D01*
X63412000Y-7475946D01*
X63411999Y-8583889D01*
X63387543Y-8544390D01*
X63298038Y-8476799D01*
X63190160Y-8446105D01*
X63078479Y-8456454D01*
X62978078Y-8506448D01*
X62912000Y-8578930D01*
X62912000Y-7475946D01*
X62832200Y-7490864D01*
X62624822Y-7571201D01*
X62624820Y-7571202D01*
X62435738Y-7688278D01*
X62271391Y-7838099D01*
X62137368Y-8015574D01*
X62038240Y-8214649D01*
X61977378Y-8428560D01*
X61962000Y-8594522D01*
X61962000Y-8950000D01*
X62862000Y-8950000D01*
X62862000Y-9450000D01*
X61962000Y-9450000D01*
X61962000Y-9805477D01*
X53637520Y-9805477D01*
X53616200Y-9784157D01*
X53616193Y-9784151D01*
X53604272Y-9775132D01*
X53562686Y-9718986D01*
X53558057Y-9649270D01*
X53558348Y-9648250D01*
X53559737Y-9641888D01*
X53559741Y-9641879D01*
X53562500Y-9612457D01*
X53562499Y-9137544D01*
X53559741Y-9108121D01*
X53558697Y-9105136D01*
X53549458Y-9078732D01*
X53542500Y-9037779D01*
X53542500Y-8844499D01*
X53562185Y-8777460D01*
X53614989Y-8731705D01*
X53666500Y-8720499D01*
X53805902Y-8720499D01*
X53872941Y-8740184D01*
X53893583Y-8756818D01*
X54030669Y-8893904D01*
X54036020Y-8900005D01*
X54057718Y-8928282D01*
X54167515Y-9012532D01*
X54181076Y-9022937D01*
X54184450Y-9025720D01*
X54199757Y-9039281D01*
X54199758Y-9039281D01*
X54199760Y-9039283D01*
X54339635Y-9112696D01*
X54416325Y-9131598D01*
X54493014Y-9150500D01*
X54493015Y-9150500D01*
X54650985Y-9150500D01*
X54804365Y-9112696D01*
X54866644Y-9080009D01*
X54944240Y-9039283D01*
X55062483Y-8934530D01*
X55152220Y-8804523D01*
X55208237Y-8656818D01*
X55227278Y-8500000D01*
X55217596Y-8420263D01*
X55229056Y-8351342D01*
X55275960Y-8299555D01*
X55282240Y-8295959D01*
X55448170Y-8207269D01*
X55448173Y-8207267D01*
X55608055Y-8076055D01*
X55739267Y-7916173D01*
X55739271Y-7916166D01*
X55836766Y-7733766D01*
X55896808Y-7535834D01*
X55912000Y-7381584D01*
X55912000Y-7030000D01*
X55162000Y-7030000D01*
X55162000Y-6530000D01*
X55912000Y-6530000D01*
X55912000Y-6178415D01*
X55896808Y-6024165D01*
X55836766Y-5826233D01*
X55739271Y-5643833D01*
X55739267Y-5643826D01*
X55608055Y-5483944D01*
X55448173Y-5352732D01*
X55448166Y-5352728D01*
X55265763Y-5255232D01*
X55112000Y-5208587D01*
X55112000Y-6063889D01*
X55087543Y-6024390D01*
X54998038Y-5956799D01*
X54890160Y-5926105D01*
X54778479Y-5936454D01*
X54678078Y-5986448D01*
X54612000Y-6058930D01*
X54612000Y-5208587D01*
X54458236Y-5255232D01*
X54275833Y-5352728D01*
X54275826Y-5352732D01*
X54115944Y-5483944D01*
X53984732Y-5643826D01*
X53984730Y-5643829D01*
X53939967Y-5727576D01*
X53891004Y-5777420D01*
X53822867Y-5792880D01*
X53757187Y-5769048D01*
X53755122Y-5767497D01*
X53724251Y-5743808D01*
X53724247Y-5743806D01*
X53583280Y-5685416D01*
X53583278Y-5685415D01*
X53469981Y-5670500D01*
X53469980Y-5670500D01*
X53394020Y-5670500D01*
X53394019Y-5670500D01*
X53280721Y-5685415D01*
X53280719Y-5685416D01*
X53139752Y-5743806D01*
X53097472Y-5776249D01*
X53039973Y-5820370D01*
X53018695Y-5836697D01*
X52968635Y-5901936D01*
X52912207Y-5943138D01*
X52842460Y-5947292D01*
X52781541Y-5913079D01*
X52768210Y-5896888D01*
X52715394Y-5820370D01*
X52684364Y-5792880D01*
X52597151Y-5715617D01*
X52597149Y-5715616D01*
X52597148Y-5715615D01*
X52457276Y-5642203D01*
X52303897Y-5604400D01*
X52303896Y-5604400D01*
X52145926Y-5604400D01*
X52145925Y-5604400D01*
X51992545Y-5642203D01*
X51852673Y-5715615D01*
X51794110Y-5767497D01*
X51735160Y-5819722D01*
X51734427Y-5820371D01*
X51644692Y-5950375D01*
X51644691Y-5950376D01*
X51588673Y-6098081D01*
X51569633Y-6254899D01*
X51569633Y-6254900D01*
X51588674Y-6411718D01*
X51627506Y-6514111D01*
X51632873Y-6583774D01*
X51599725Y-6645281D01*
X51538587Y-6679102D01*
X51493688Y-6680787D01*
X51461096Y-6676039D01*
X51416215Y-6669500D01*
X51416210Y-6669500D01*
X51167782Y-6669500D01*
X51091163Y-6680662D01*
X51021986Y-6670847D01*
X50985608Y-6645638D01*
X50766168Y-6426197D01*
X50766140Y-6426171D01*
X50744824Y-6404855D01*
X50744823Y-6404854D01*
X50737809Y-6401280D01*
X50724691Y-6394596D01*
X50708101Y-6384430D01*
X50689818Y-6371146D01*
X50689814Y-6371144D01*
X50668325Y-6364162D01*
X50650354Y-6356719D01*
X50630219Y-6346460D01*
X50625517Y-6345715D01*
X50607899Y-6342925D01*
X50588984Y-6338384D01*
X50567491Y-6331400D01*
X50567490Y-6331400D01*
X50535132Y-6331400D01*
X50145134Y-6331400D01*
X50016510Y-6331400D01*
X50016507Y-6331400D01*
X49995013Y-6338384D01*
X49976097Y-6342925D01*
X49953785Y-6346459D01*
X49953778Y-6346461D01*
X49933644Y-6356719D01*
X49915682Y-6364159D01*
X49894183Y-6371145D01*
X49894177Y-6371148D01*
X49875894Y-6384432D01*
X49859310Y-6394595D01*
X49839178Y-6404853D01*
X49839176Y-6404854D01*
X49839177Y-6404854D01*
X49816299Y-6427731D01*
X49816296Y-6427734D01*
X49697904Y-6546126D01*
X49636581Y-6579610D01*
X49566889Y-6574626D01*
X49510956Y-6532754D01*
X49486539Y-6467290D01*
X49493615Y-6419022D01*
X49493531Y-6419002D01*
X49493746Y-6418127D01*
X49494283Y-6414468D01*
X49495326Y-6411717D01*
X49496160Y-6404853D01*
X49514367Y-6254900D01*
X49507756Y-6200448D01*
X49495326Y-6098081D01*
X49467293Y-6024165D01*
X49439309Y-5950377D01*
X49349572Y-5820370D01*
X49231329Y-5715617D01*
X49231327Y-5715616D01*
X49231326Y-5715615D01*
X49091454Y-5642203D01*
X48938075Y-5604400D01*
X48938074Y-5604400D01*
X48780104Y-5604400D01*
X48780103Y-5604400D01*
X48626723Y-5642203D01*
X48486851Y-5715615D01*
X48428288Y-5767497D01*
X48369338Y-5819722D01*
X48368605Y-5820371D01*
X48315789Y-5896888D01*
X48261506Y-5940879D01*
X48192057Y-5948538D01*
X48129492Y-5917434D01*
X48115364Y-5901936D01*
X48065304Y-5836696D01*
X47944250Y-5743808D01*
X47944249Y-5743807D01*
X47944247Y-5743806D01*
X47803280Y-5685416D01*
X47803278Y-5685415D01*
X47689981Y-5670500D01*
X47689980Y-5670500D01*
X47614020Y-5670500D01*
X47614019Y-5670500D01*
X47500721Y-5685415D01*
X47500719Y-5685416D01*
X47359752Y-5743806D01*
X47359749Y-5743808D01*
X47328876Y-5767498D01*
X47263706Y-5792692D01*
X47195262Y-5778653D01*
X47145272Y-5729839D01*
X47144031Y-5727575D01*
X47099266Y-5643826D01*
X46968055Y-5483944D01*
X46808173Y-5352732D01*
X46808166Y-5352728D01*
X46625763Y-5255232D01*
X46472000Y-5208587D01*
X46472000Y-6063889D01*
X46447543Y-6024390D01*
X46358038Y-5956799D01*
X46250160Y-5926105D01*
X46138479Y-5936454D01*
X46038078Y-5986448D01*
X45972000Y-6058930D01*
X45972000Y-5208587D01*
X45818236Y-5255232D01*
X45635833Y-5352728D01*
X45635826Y-5352732D01*
X45475944Y-5483944D01*
X45344732Y-5643826D01*
X45344728Y-5643833D01*
X45247233Y-5826233D01*
X45187191Y-6024165D01*
X45172000Y-6178415D01*
X45172000Y-6530000D01*
X45922000Y-6530000D01*
X45922000Y-7030000D01*
X45172000Y-7030000D01*
X45172000Y-7381584D01*
X45187191Y-7535834D01*
X45247233Y-7733766D01*
X45344728Y-7916166D01*
X45344732Y-7916173D01*
X45475946Y-8076057D01*
X45480252Y-8080363D01*
X45478984Y-8081630D01*
X45513561Y-8132386D01*
X45515436Y-8202230D01*
X45479252Y-8262001D01*
X45416498Y-8292720D01*
X45395564Y-8294500D01*
X44077904Y-8294500D01*
X44010865Y-8274815D01*
X43990223Y-8258181D01*
X43219223Y-7487181D01*
X43185738Y-7425858D01*
X43190722Y-7356166D01*
X43232594Y-7300233D01*
X43298058Y-7275816D01*
X43306904Y-7275500D01*
X44293097Y-7275500D01*
X44293102Y-7275500D01*
X44381564Y-7264877D01*
X44522342Y-7209361D01*
X44642922Y-7117922D01*
X44734361Y-6997342D01*
X44789877Y-6856564D01*
X44800500Y-6768102D01*
X44800500Y-6756607D01*
X44800799Y-6750525D01*
X44802570Y-6732551D01*
X44804764Y-6710272D01*
X44805500Y-6695289D01*
X44805500Y-5154709D01*
X44804764Y-5139726D01*
X44804591Y-5137975D01*
X44800910Y-5100607D01*
X44798711Y-5085780D01*
X44798711Y-5085778D01*
X44795337Y-5068815D01*
X44785411Y-5018915D01*
X44768025Y-4961603D01*
X44749511Y-4916908D01*
X44749509Y-4916904D01*
X44749508Y-4916901D01*
X44720163Y-4862002D01*
X44705920Y-4793599D01*
X44718988Y-4747344D01*
X44722550Y-4740337D01*
X44722553Y-4740335D01*
X44773439Y-4640259D01*
X44793124Y-4573220D01*
X44805500Y-4487148D01*
X44805500Y-2953167D01*
X45072000Y-2953167D01*
X45086737Y-3112216D01*
X45086738Y-3112219D01*
X45145058Y-3317196D01*
X45145066Y-3317216D01*
X45240059Y-3507989D01*
X45368500Y-3678071D01*
X45526000Y-3821651D01*
X45526002Y-3821653D01*
X45707201Y-3933846D01*
X45707207Y-3933849D01*
X45905941Y-4010838D01*
X45972000Y-4023186D01*
X45972000Y-3066110D01*
X45996457Y-3105610D01*
X46085962Y-3173201D01*
X46193840Y-3203895D01*
X46305521Y-3193546D01*
X46405922Y-3143552D01*
X46472000Y-3071069D01*
X46472000Y-4023185D01*
X46538058Y-4010838D01*
X46736792Y-3933849D01*
X46736798Y-3933846D01*
X46917997Y-3821653D01*
X46917999Y-3821651D01*
X47075499Y-3678071D01*
X47203940Y-3507989D01*
X47298933Y-3317216D01*
X47298941Y-3317196D01*
X47357261Y-3112219D01*
X47357262Y-3112216D01*
X47372000Y-2953167D01*
X53712000Y-2953167D01*
X53726737Y-3112216D01*
X53726738Y-3112219D01*
X53785058Y-3317196D01*
X53785066Y-3317216D01*
X53880059Y-3507989D01*
X54008500Y-3678071D01*
X54166000Y-3821651D01*
X54166002Y-3821653D01*
X54347201Y-3933846D01*
X54347207Y-3933849D01*
X54545941Y-4010838D01*
X54612000Y-4023186D01*
X54612000Y-3066110D01*
X54636457Y-3105610D01*
X54725962Y-3173201D01*
X54833840Y-3203895D01*
X54945521Y-3193546D01*
X55045922Y-3143552D01*
X55112000Y-3071069D01*
X55112000Y-4023185D01*
X55178058Y-4010838D01*
X55376792Y-3933849D01*
X55376798Y-3933846D01*
X55557997Y-3821653D01*
X55557999Y-3821651D01*
X55575741Y-3805477D01*
X61962000Y-3805477D01*
X61977378Y-3971439D01*
X62038240Y-4185350D01*
X62137368Y-4384425D01*
X62271391Y-4561900D01*
X62435738Y-4711721D01*
X62624820Y-4828797D01*
X62624822Y-4828798D01*
X62832195Y-4909135D01*
X62912000Y-4924052D01*
X62912000Y-3816110D01*
X62936457Y-3855610D01*
X63025962Y-3923201D01*
X63133840Y-3953895D01*
X63245521Y-3943546D01*
X63345922Y-3893552D01*
X63412000Y-3821069D01*
X63412000Y-4924052D01*
X63491804Y-4909135D01*
X63699177Y-4828798D01*
X63699179Y-4828797D01*
X63888261Y-4711721D01*
X64052608Y-4561900D01*
X64186631Y-4384425D01*
X64285759Y-4185350D01*
X64346621Y-3971439D01*
X64362000Y-3805477D01*
X74762000Y-3805477D01*
X74777378Y-3971439D01*
X74838240Y-4185350D01*
X74937368Y-4384425D01*
X75071391Y-4561900D01*
X75235738Y-4711721D01*
X75424820Y-4828797D01*
X75424822Y-4828798D01*
X75632195Y-4909135D01*
X75712000Y-4924052D01*
X75712000Y-3816110D01*
X75736457Y-3855610D01*
X75825962Y-3923201D01*
X75933840Y-3953895D01*
X76045521Y-3943546D01*
X76145922Y-3893552D01*
X76212000Y-3821069D01*
X76212000Y-4924052D01*
X76291804Y-4909135D01*
X76499177Y-4828798D01*
X76499179Y-4828797D01*
X76688261Y-4711721D01*
X76852608Y-4561900D01*
X76986631Y-4384425D01*
X77085759Y-4185350D01*
X77146621Y-3971439D01*
X77162000Y-3805477D01*
X83192000Y-3805477D01*
X83207378Y-3971439D01*
X83268240Y-4185350D01*
X83367368Y-4384425D01*
X83501391Y-4561900D01*
X83665738Y-4711721D01*
X83854820Y-4828797D01*
X83854822Y-4828798D01*
X84062195Y-4909135D01*
X84142000Y-4924052D01*
X84142000Y-3816110D01*
X84166457Y-3855610D01*
X84255962Y-3923201D01*
X84363840Y-3953895D01*
X84475521Y-3943546D01*
X84575922Y-3893552D01*
X84642000Y-3821069D01*
X84642000Y-4924052D01*
X84721804Y-4909135D01*
X84929177Y-4828798D01*
X84929179Y-4828797D01*
X85118261Y-4711721D01*
X85282608Y-4561900D01*
X85416631Y-4384425D01*
X85515759Y-4185350D01*
X85576621Y-3971439D01*
X85592000Y-3805477D01*
X95992000Y-3805477D01*
X96007378Y-3971439D01*
X96068240Y-4185350D01*
X96167368Y-4384425D01*
X96301391Y-4561900D01*
X96465738Y-4711721D01*
X96654820Y-4828797D01*
X96654822Y-4828798D01*
X96862195Y-4909135D01*
X96942000Y-4924052D01*
X96942000Y-3816110D01*
X96966457Y-3855610D01*
X97055962Y-3923201D01*
X97163840Y-3953895D01*
X97275521Y-3943546D01*
X97375922Y-3893552D01*
X97442000Y-3821069D01*
X97442000Y-4924052D01*
X97521804Y-4909135D01*
X97729177Y-4828798D01*
X97729179Y-4828797D01*
X97918261Y-4711721D01*
X98082608Y-4561900D01*
X98216631Y-4384425D01*
X98315759Y-4185350D01*
X98376621Y-3971439D01*
X98392000Y-3805477D01*
X98392000Y-3450000D01*
X97492000Y-3450000D01*
X97492000Y-2950000D01*
X98392000Y-2950000D01*
X98392000Y-2594522D01*
X98376621Y-2428560D01*
X98315759Y-2214649D01*
X98216631Y-2015574D01*
X98082608Y-1838099D01*
X97918261Y-1688278D01*
X97729179Y-1571202D01*
X97729177Y-1571201D01*
X97521799Y-1490864D01*
X97442000Y-1475946D01*
X97442000Y-2583889D01*
X97417543Y-2544390D01*
X97328038Y-2476799D01*
X97220160Y-2446105D01*
X97108479Y-2456454D01*
X97008078Y-2506448D01*
X96942000Y-2578930D01*
X96942000Y-1475946D01*
X96862200Y-1490864D01*
X96654822Y-1571201D01*
X96654820Y-1571202D01*
X96465738Y-1688278D01*
X96301391Y-1838099D01*
X96167368Y-2015574D01*
X96068240Y-2214649D01*
X96007378Y-2428560D01*
X95992000Y-2594522D01*
X95992000Y-2950000D01*
X96892000Y-2950000D01*
X96892000Y-3450000D01*
X95992000Y-3450000D01*
X95992000Y-3805477D01*
X85592000Y-3805477D01*
X85592000Y-3450000D01*
X84692000Y-3450000D01*
X84692000Y-2950000D01*
X85592000Y-2950000D01*
X85592000Y-2594522D01*
X85576621Y-2428560D01*
X85515759Y-2214649D01*
X85416631Y-2015574D01*
X85282608Y-1838099D01*
X85118261Y-1688278D01*
X84929179Y-1571202D01*
X84929177Y-1571201D01*
X84721799Y-1490864D01*
X84642000Y-1475946D01*
X84642000Y-2583889D01*
X84617543Y-2544390D01*
X84528038Y-2476799D01*
X84420160Y-2446105D01*
X84308479Y-2456454D01*
X84208078Y-2506448D01*
X84142000Y-2578930D01*
X84142000Y-1475946D01*
X84062200Y-1490864D01*
X83854822Y-1571201D01*
X83854820Y-1571202D01*
X83665738Y-1688278D01*
X83501391Y-1838099D01*
X83367368Y-2015574D01*
X83268240Y-2214649D01*
X83207378Y-2428560D01*
X83192000Y-2594522D01*
X83192000Y-2950000D01*
X84092000Y-2950000D01*
X84092000Y-3450000D01*
X83192000Y-3450000D01*
X83192000Y-3805477D01*
X77162000Y-3805477D01*
X77162000Y-3450000D01*
X76262000Y-3450000D01*
X76262000Y-2950000D01*
X77162000Y-2950000D01*
X77162000Y-2594522D01*
X77146621Y-2428560D01*
X77085759Y-2214649D01*
X76986631Y-2015574D01*
X76852608Y-1838099D01*
X76688261Y-1688278D01*
X76499179Y-1571202D01*
X76499177Y-1571201D01*
X76291799Y-1490864D01*
X76212000Y-1475946D01*
X76212000Y-2583889D01*
X76187543Y-2544390D01*
X76098038Y-2476799D01*
X75990160Y-2446105D01*
X75878479Y-2456454D01*
X75778078Y-2506448D01*
X75712000Y-2578930D01*
X75712000Y-1475946D01*
X75632200Y-1490864D01*
X75424822Y-1571201D01*
X75424820Y-1571202D01*
X75235738Y-1688278D01*
X75071391Y-1838099D01*
X74937368Y-2015574D01*
X74838240Y-2214649D01*
X74777378Y-2428560D01*
X74762000Y-2594522D01*
X74762000Y-2950000D01*
X75662000Y-2950000D01*
X75662000Y-3450000D01*
X74762000Y-3450000D01*
X74762000Y-3805477D01*
X64362000Y-3805477D01*
X64362000Y-3450000D01*
X63462000Y-3450000D01*
X63462000Y-2950000D01*
X64362000Y-2950000D01*
X64362000Y-2594522D01*
X64346621Y-2428560D01*
X64285759Y-2214649D01*
X64186631Y-2015574D01*
X64052608Y-1838099D01*
X63888261Y-1688278D01*
X63699179Y-1571202D01*
X63699177Y-1571201D01*
X63491799Y-1490864D01*
X63412000Y-1475946D01*
X63411999Y-2583889D01*
X63387543Y-2544390D01*
X63298038Y-2476799D01*
X63190160Y-2446105D01*
X63078479Y-2456454D01*
X62978078Y-2506448D01*
X62912000Y-2578930D01*
X62912000Y-1475946D01*
X62832200Y-1490864D01*
X62624822Y-1571201D01*
X62624820Y-1571202D01*
X62435738Y-1688278D01*
X62271391Y-1838099D01*
X62137368Y-2015574D01*
X62038240Y-2214649D01*
X61977378Y-2428560D01*
X61962000Y-2594522D01*
X61962000Y-2950000D01*
X62862000Y-2950000D01*
X62862000Y-3450000D01*
X61962000Y-3450000D01*
X61962000Y-3805477D01*
X55575741Y-3805477D01*
X55715499Y-3678071D01*
X55843940Y-3507989D01*
X55938933Y-3317216D01*
X55938941Y-3317196D01*
X55997261Y-3112219D01*
X55997262Y-3112216D01*
X56012000Y-2953167D01*
X56012000Y-2850000D01*
X55162000Y-2850000D01*
X55162000Y-2350000D01*
X56011999Y-2350000D01*
X56012000Y-2246832D01*
X55997262Y-2087783D01*
X55997261Y-2087780D01*
X55938941Y-1882803D01*
X55938933Y-1882783D01*
X55843940Y-1692010D01*
X55715499Y-1521928D01*
X55557999Y-1378348D01*
X55557997Y-1378346D01*
X55376798Y-1266153D01*
X55376789Y-1266149D01*
X55178063Y-1189163D01*
X55178058Y-1189162D01*
X55112000Y-1176813D01*
X55112000Y-2133889D01*
X55087543Y-2094390D01*
X54998038Y-2026799D01*
X54890160Y-1996105D01*
X54778479Y-2006454D01*
X54678078Y-2056448D01*
X54612000Y-2128930D01*
X54612000Y-1176813D01*
X54545941Y-1189162D01*
X54545936Y-1189163D01*
X54347210Y-1266149D01*
X54347201Y-1266153D01*
X54166002Y-1378346D01*
X54166000Y-1378348D01*
X54008500Y-1521928D01*
X53880059Y-1692010D01*
X53785066Y-1882783D01*
X53785058Y-1882803D01*
X53726738Y-2087780D01*
X53726737Y-2087783D01*
X53712000Y-2246832D01*
X53712000Y-2350000D01*
X54562000Y-2350000D01*
X54562000Y-2850000D01*
X53712000Y-2850000D01*
X53712000Y-2953167D01*
X47372000Y-2953167D01*
X47372000Y-2850000D01*
X46522000Y-2850000D01*
X46522000Y-2350000D01*
X47372000Y-2350000D01*
X47372000Y-2246832D01*
X47357262Y-2087783D01*
X47357261Y-2087780D01*
X47298941Y-1882803D01*
X47298933Y-1882783D01*
X47203940Y-1692010D01*
X47075499Y-1521928D01*
X46917999Y-1378348D01*
X46917997Y-1378346D01*
X46736798Y-1266153D01*
X46736789Y-1266149D01*
X46538063Y-1189163D01*
X46538058Y-1189162D01*
X46472000Y-1176813D01*
X46472000Y-2133889D01*
X46447543Y-2094390D01*
X46358038Y-2026799D01*
X46250160Y-1996105D01*
X46138479Y-2006454D01*
X46038078Y-2056448D01*
X45972000Y-2128930D01*
X45972000Y-1176813D01*
X45905941Y-1189162D01*
X45905936Y-1189163D01*
X45707210Y-1266149D01*
X45707201Y-1266153D01*
X45526002Y-1378346D01*
X45526000Y-1378348D01*
X45368500Y-1521928D01*
X45240059Y-1692010D01*
X45145066Y-1882783D01*
X45145058Y-1882803D01*
X45086738Y-2087780D01*
X45086737Y-2087783D01*
X45072000Y-2246832D01*
X45072000Y-2350000D01*
X45922000Y-2350000D01*
X45922000Y-2850000D01*
X45072000Y-2850000D01*
X45072000Y-2953167D01*
X44805500Y-2953167D01*
X44805500Y-1904708D01*
X44804764Y-1889723D01*
X44800910Y-1850608D01*
X44798710Y-1835776D01*
X44785411Y-1768918D01*
X44768025Y-1711603D01*
X44766231Y-1707273D01*
X44749514Y-1666915D01*
X44749508Y-1666901D01*
X44728642Y-1627865D01*
X44721283Y-1614098D01*
X44721281Y-1614095D01*
X44721280Y-1614092D01*
X44694502Y-1574016D01*
X44694489Y-1573998D01*
X44656493Y-1527700D01*
X44622298Y-1493505D01*
X44600902Y-1475946D01*
X44575999Y-1455508D01*
X44574450Y-1454473D01*
X44535907Y-1428719D01*
X44535889Y-1428708D01*
X44483085Y-1400485D01*
X44483075Y-1400480D01*
X44438382Y-1381969D01*
X44381083Y-1364588D01*
X44314220Y-1351289D01*
X44314219Y-1351289D01*
X44310834Y-1350787D01*
X44299391Y-1349090D01*
X44299383Y-1349089D01*
X44299375Y-1349088D01*
X44299374Y-1349088D01*
X44260275Y-1345236D01*
X44260276Y-1345236D01*
X44254654Y-1344960D01*
X44245290Y-1344500D01*
X44245285Y-1344500D01*
X37973095Y-1344500D01*
X37932140Y-1337541D01*
X37802826Y-1292291D01*
X37802814Y-1292289D01*
X37773070Y-1289500D01*
X37773066Y-1289500D01*
X37386934Y-1289500D01*
X37386930Y-1289500D01*
X37357185Y-1292289D01*
X37357173Y-1292291D01*
X37231844Y-1336147D01*
X37178115Y-1375801D01*
X37112486Y-1399771D01*
X37048281Y-1386563D01*
X37028611Y-1376561D01*
X37028607Y-1376560D01*
X37023502Y-1373964D01*
X37023760Y-1373456D01*
X37003347Y-1362120D01*
X36988668Y-1351286D01*
X36968157Y-1336148D01*
X36968155Y-1336147D01*
X36842826Y-1292291D01*
X36842814Y-1292289D01*
X36813070Y-1289500D01*
X36813066Y-1289500D01*
X36426934Y-1289500D01*
X36426930Y-1289500D01*
X36397185Y-1292289D01*
X36397173Y-1292291D01*
X36267860Y-1337541D01*
X36226905Y-1344500D01*
X35604714Y-1344500D01*
X35589738Y-1345235D01*
X35550628Y-1349086D01*
X35550623Y-1349086D01*
X35550620Y-1349087D01*
X35550621Y-1349087D01*
X35546188Y-1349744D01*
X35535791Y-1351286D01*
X35535790Y-1351286D01*
X35535786Y-1351287D01*
X35468919Y-1364588D01*
X35468914Y-1364589D01*
X35411607Y-1381972D01*
X35366917Y-1400483D01*
X35314105Y-1428711D01*
X35314095Y-1428717D01*
X35273994Y-1455512D01*
X35227697Y-1493507D01*
X35193507Y-1527697D01*
X35155512Y-1573994D01*
X35128719Y-1614092D01*
X35128716Y-1614098D01*
X35128714Y-1614101D01*
X35100481Y-1666924D01*
X35100480Y-1666927D01*
X35081968Y-1711620D01*
X35064588Y-1768915D01*
X35051289Y-1835779D01*
X35051289Y-1835780D01*
X35049088Y-1850624D01*
X35049088Y-1850625D01*
X35045236Y-1889724D01*
X35045236Y-1889723D01*
X35044500Y-1904714D01*
X35044500Y-3541243D01*
X35044787Y-3551966D01*
X35044789Y-3551983D01*
X35062077Y-3645413D01*
X35072925Y-3676163D01*
X35085323Y-3711308D01*
X35111509Y-3766939D01*
X35114072Y-3769829D01*
X35115718Y-3773326D01*
X35116390Y-3774345D01*
X35116243Y-3774441D01*
X35143829Y-3833045D01*
X35134685Y-3902313D01*
X35130004Y-3911340D01*
X35130148Y-3911417D01*
X35100484Y-3966913D01*
X35100481Y-3966921D01*
X35081970Y-4011611D01*
X35081969Y-4011615D01*
X35064590Y-4068906D01*
X35064587Y-4068917D01*
X35058281Y-4100624D01*
X35051290Y-4135776D01*
X35049090Y-4150608D01*
X35046168Y-4180268D01*
X35045236Y-4189726D01*
X35044500Y-4204714D01*
X35044500Y-5545285D01*
X35045236Y-5560276D01*
X35045236Y-5560275D01*
X35049088Y-5599374D01*
X35049088Y-5599375D01*
X35051289Y-5614219D01*
X35062724Y-5671709D01*
X35056497Y-5741301D01*
X35013633Y-5796478D01*
X34947743Y-5819722D01*
X34941107Y-5819900D01*
X31874726Y-5819900D01*
X31807687Y-5800215D01*
X31761932Y-5747411D01*
X31751988Y-5678253D01*
X31758782Y-5651933D01*
X31778737Y-5599318D01*
X31797778Y-5442500D01*
X31790777Y-5384836D01*
X31778737Y-5285681D01*
X31743108Y-5191737D01*
X31722720Y-5137977D01*
X31632983Y-5007970D01*
X31514740Y-4903217D01*
X31514738Y-4903216D01*
X31514737Y-4903215D01*
X31374865Y-4829803D01*
X31221486Y-4792000D01*
X31221485Y-4792000D01*
X31084500Y-4792000D01*
X31017461Y-4772315D01*
X30971706Y-4719511D01*
X30960500Y-4668000D01*
X30960500Y-4487145D01*
X30960500Y-4289434D01*
X30957710Y-4259681D01*
X30957708Y-4259677D01*
X30957708Y-4259673D01*
X30920978Y-4154709D01*
X30913852Y-4134343D01*
X30834999Y-4027501D01*
X30728157Y-3948648D01*
X30728155Y-3948647D01*
X30602826Y-3904791D01*
X30602814Y-3904789D01*
X30573070Y-3902000D01*
X30573066Y-3902000D01*
X30126934Y-3902000D01*
X30126930Y-3902000D01*
X30097185Y-3904789D01*
X30097173Y-3904791D01*
X29971845Y-3948646D01*
X29964705Y-3952420D01*
X29896236Y-3966341D01*
X29831110Y-3941035D01*
X29793332Y-3892878D01*
X29752206Y-3799735D01*
X29672765Y-3720294D01*
X29652414Y-3711308D01*
X29569992Y-3674915D01*
X29544868Y-3672000D01*
X29544865Y-3672000D01*
X29329500Y-3672000D01*
X29262461Y-3652315D01*
X29216706Y-3599511D01*
X29205500Y-3548000D01*
X29205500Y-3351763D01*
X29204919Y-3339843D01*
X29204775Y-3336888D01*
X29200980Y-3298058D01*
X29200979Y-3298051D01*
X29200980Y-3298054D01*
X29199865Y-3290492D01*
X29198811Y-3283327D01*
X29185706Y-3216933D01*
X29168577Y-3160015D01*
X29161814Y-3143552D01*
X29150334Y-3115602D01*
X29150327Y-3115587D01*
X29122502Y-3063070D01*
X29096080Y-3023148D01*
X29096077Y-3023143D01*
X29058606Y-2977002D01*
X29058605Y-2977001D01*
X29058601Y-2976996D01*
X29031919Y-2950000D01*
X29024851Y-2942848D01*
X29024845Y-2942843D01*
X29024840Y-2942838D01*
X29003850Y-2925379D01*
X28979156Y-2904838D01*
X28939548Y-2877949D01*
X28939547Y-2877948D01*
X28939542Y-2877945D01*
X28887351Y-2849504D01*
X28843148Y-2830735D01*
X28804230Y-2818522D01*
X28786432Y-2812937D01*
X28786428Y-2812936D01*
X28786424Y-2812935D01*
X28720201Y-2799051D01*
X28720200Y-2799051D01*
X28705491Y-2796709D01*
X28705492Y-2796709D01*
X28678534Y-2793753D01*
X28666720Y-2792458D01*
X28666719Y-2792458D01*
X28659286Y-2792008D01*
X28651857Y-2791559D01*
X27864973Y-2782301D01*
X21438651Y-2706697D01*
X21371848Y-2686226D01*
X21352429Y-2670387D01*
X20925962Y-2243920D01*
X20471129Y-1789087D01*
X20471122Y-1789080D01*
X20460026Y-1779024D01*
X20460014Y-1779013D01*
X20435617Y-1758992D01*
X20429632Y-1754080D01*
X20417585Y-1745145D01*
X20417586Y-1745146D01*
X20417582Y-1745143D01*
X20360905Y-1707272D01*
X20308096Y-1679045D01*
X20308091Y-1679043D01*
X20263400Y-1660530D01*
X20206082Y-1643142D01*
X20206076Y-1643140D01*
X20167932Y-1635553D01*
X20158789Y-1633735D01*
X20158787Y-1633734D01*
X20158783Y-1633734D01*
X20158776Y-1633733D01*
X20111993Y-1629126D01*
X20099190Y-1627865D01*
X20050810Y-1627865D01*
X20039248Y-1629003D01*
X19991224Y-1633733D01*
X19991217Y-1633734D01*
X19943924Y-1643140D01*
X19943918Y-1643142D01*
X19886606Y-1660526D01*
X19886602Y-1660528D01*
X19841905Y-1679043D01*
X19789100Y-1707268D01*
X19789092Y-1707273D01*
X19748482Y-1734408D01*
X19732413Y-1745145D01*
X19720365Y-1754080D01*
X19720358Y-1754086D01*
X19720356Y-1754087D01*
X19689985Y-1779012D01*
X19689986Y-1779012D01*
X19678874Y-1789083D01*
X19069895Y-2398062D01*
X17323350Y-4144606D01*
X17323333Y-4144626D01*
X17323327Y-4144629D01*
X17320936Y-4147021D01*
X17320374Y-4146459D01*
X17263938Y-4181423D01*
X17194078Y-4180268D01*
X17144384Y-4150642D01*
X16762115Y-3777697D01*
X16739483Y-3755617D01*
X16728436Y-3745835D01*
X16698268Y-3721617D01*
X16698269Y-3721618D01*
X16698267Y-3721617D01*
X16686319Y-3712940D01*
X16630159Y-3676162D01*
X16577953Y-3648773D01*
X16533839Y-3630819D01*
X16533834Y-3630818D01*
X16477362Y-3613973D01*
X16477341Y-3613968D01*
X16411480Y-3601078D01*
X16411476Y-3601077D01*
X16411469Y-3601076D01*
X16396855Y-3598943D01*
X16396842Y-3598941D01*
X16396838Y-3598941D01*
X16385741Y-3597866D01*
X16358352Y-3595213D01*
X16358342Y-3595212D01*
X16358341Y-3595212D01*
X16343618Y-3594500D01*
X16343611Y-3594500D01*
X14457129Y-3594500D01*
X14390090Y-3574815D01*
X14344335Y-3522011D01*
X14334391Y-3452853D01*
X14346129Y-3415229D01*
X14394933Y-3317216D01*
X14394941Y-3317196D01*
X14453261Y-3112219D01*
X14453262Y-3112216D01*
X14468000Y-2953167D01*
X14468000Y-2850000D01*
X13618000Y-2850000D01*
X13618000Y-2350000D01*
X14468000Y-2350000D01*
X14468000Y-2246832D01*
X14453262Y-2087783D01*
X14453261Y-2087780D01*
X14394941Y-1882803D01*
X14394933Y-1882783D01*
X14299940Y-1692010D01*
X14171499Y-1521928D01*
X14013999Y-1378348D01*
X14013997Y-1378346D01*
X13832798Y-1266153D01*
X13832789Y-1266149D01*
X13634063Y-1189163D01*
X13634058Y-1189162D01*
X13568000Y-1176813D01*
X13568000Y-2133889D01*
X13543543Y-2094390D01*
X13454038Y-2026799D01*
X13346160Y-1996105D01*
X13234479Y-2006454D01*
X13134078Y-2056448D01*
X13068000Y-2128930D01*
X13068000Y-1176813D01*
X13001941Y-1189162D01*
X13001936Y-1189163D01*
X12803210Y-1266149D01*
X12803201Y-1266153D01*
X12622002Y-1378346D01*
X12622000Y-1378348D01*
X12464500Y-1521928D01*
X12336059Y-1692010D01*
X12241066Y-1882783D01*
X12241058Y-1882803D01*
X12182738Y-2087780D01*
X12182737Y-2087783D01*
X12168000Y-2246832D01*
X12168000Y-2350000D01*
X13018000Y-2350000D01*
X13018000Y-2850000D01*
X12168000Y-2850000D01*
X12168000Y-2953167D01*
X12182737Y-3112216D01*
X12182738Y-3112219D01*
X12241058Y-3317196D01*
X12241066Y-3317216D01*
X12289871Y-3415229D01*
X12302132Y-3484014D01*
X12275259Y-3548509D01*
X12217783Y-3588236D01*
X12178871Y-3594500D01*
X6554714Y-3594500D01*
X6539738Y-3595235D01*
X6500628Y-3599086D01*
X6500623Y-3599086D01*
X6500620Y-3599087D01*
X6500621Y-3599087D01*
X6497762Y-3599511D01*
X6485791Y-3601286D01*
X6485790Y-3601286D01*
X6485786Y-3601287D01*
X6422036Y-3613968D01*
X6418914Y-3614589D01*
X6361607Y-3631972D01*
X6316917Y-3650483D01*
X6264105Y-3678711D01*
X6264095Y-3678717D01*
X6223994Y-3705512D01*
X6177697Y-3743507D01*
X6143507Y-3777697D01*
X6105512Y-3823994D01*
X6078719Y-3864092D01*
X6078714Y-3864099D01*
X6078714Y-3864101D01*
X6050481Y-3916924D01*
X6050480Y-3916927D01*
X6031968Y-3961620D01*
X6014588Y-4018915D01*
X6001289Y-4085779D01*
X6001289Y-4085780D01*
X5999088Y-4100624D01*
X5999088Y-4100625D01*
X5995236Y-4139723D01*
X5995236Y-4139726D01*
X5994702Y-4150608D01*
X5994500Y-4154714D01*
X5994500Y-5191732D01*
X5995236Y-5206723D01*
X5995236Y-5206722D01*
X5999088Y-5245821D01*
X5999088Y-5245822D01*
X6001289Y-5260666D01*
X6001289Y-5260667D01*
X6014586Y-5327521D01*
X6031972Y-5384834D01*
X6034803Y-5391668D01*
X6050488Y-5429535D01*
X6050491Y-5429540D01*
X6050492Y-5429543D01*
X6078716Y-5482348D01*
X6078717Y-5482350D01*
X6082783Y-5488435D01*
X6103659Y-5555113D01*
X6085173Y-5622493D01*
X6033192Y-5669181D01*
X5995866Y-5680262D01*
X5956720Y-5685416D01*
X5956719Y-5685416D01*
X5815752Y-5743806D01*
X5815749Y-5743808D01*
X5784876Y-5767498D01*
X5719706Y-5792692D01*
X5651262Y-5778653D01*
X5601272Y-5729839D01*
X5600031Y-5727575D01*
X5555266Y-5643826D01*
X5424055Y-5483944D01*
X5264173Y-5352732D01*
X5264166Y-5352728D01*
X5081763Y-5255232D01*
X4928000Y-5208587D01*
X4928000Y-6063889D01*
X4903543Y-6024390D01*
X4814038Y-5956799D01*
X4706160Y-5926105D01*
X4594479Y-5936454D01*
X4494078Y-5986448D01*
X4428000Y-6058930D01*
X4428000Y-5208587D01*
X4274236Y-5255232D01*
X4091833Y-5352728D01*
X4091826Y-5352732D01*
X3931944Y-5483944D01*
X3800732Y-5643826D01*
X3800728Y-5643833D01*
X3703233Y-5826233D01*
X3643191Y-6024165D01*
X3628000Y-6178415D01*
X3628000Y-6530000D01*
X4378000Y-6530000D01*
X4378000Y-7030000D01*
X3628000Y-7030000D01*
X3628000Y-7381584D01*
X3635560Y-7458346D01*
X3622541Y-7526992D01*
X3574476Y-7577702D01*
X3512157Y-7594500D01*
X624499Y-7594500D01*
X557460Y-7574815D01*
X511705Y-7522011D01*
X500499Y-7470500D01*
X500499Y-6338384D01*
X500499Y-5361493D01*
X520184Y-5294457D01*
X572988Y-5248702D01*
X642146Y-5238758D01*
X699540Y-5262779D01*
X769308Y-5315816D01*
X933256Y-5391667D01*
X933257Y-5391667D01*
X933259Y-5391668D01*
X986782Y-5403448D01*
X1109678Y-5430500D01*
X1109681Y-5430500D01*
X1245022Y-5430500D01*
X1245028Y-5430500D01*
X1379586Y-5415866D01*
X1550774Y-5358186D01*
X1705561Y-5265054D01*
X1836708Y-5140825D01*
X1837455Y-5139724D01*
X1874029Y-5085780D01*
X1938083Y-4991307D01*
X2004947Y-4823492D01*
X2034172Y-4645227D01*
X2024392Y-4464848D01*
X2011194Y-4417316D01*
X1976065Y-4290790D01*
X1976062Y-4290784D01*
X1955190Y-4251415D01*
X1891449Y-4131186D01*
X1774502Y-3993506D01*
X1762722Y-3984551D01*
X1630698Y-3884188D01*
X1630690Y-3884183D01*
X1466744Y-3808333D01*
X1466740Y-3808331D01*
X1290322Y-3769500D01*
X1154972Y-3769500D01*
X1154970Y-3769500D01*
X1020413Y-3784134D01*
X849225Y-3841814D01*
X749196Y-3902000D01*
X696263Y-3933849D01*
X688679Y-3938412D01*
X687135Y-3935846D01*
X634007Y-3955987D01*
X565655Y-3941501D01*
X515986Y-3892360D01*
X500499Y-3832355D01*
X500499Y-2953167D01*
X3528000Y-2953167D01*
X3542737Y-3112216D01*
X3542738Y-3112219D01*
X3601058Y-3317196D01*
X3601066Y-3317216D01*
X3696059Y-3507989D01*
X3824500Y-3678071D01*
X3982000Y-3821651D01*
X3982002Y-3821653D01*
X4163201Y-3933846D01*
X4163207Y-3933849D01*
X4361941Y-4010838D01*
X4428000Y-4023186D01*
X4428000Y-3066110D01*
X4452457Y-3105610D01*
X4541962Y-3173201D01*
X4649840Y-3203895D01*
X4761521Y-3193546D01*
X4861922Y-3143552D01*
X4928000Y-3071069D01*
X4928000Y-4023185D01*
X4994058Y-4010838D01*
X5192792Y-3933849D01*
X5192798Y-3933846D01*
X5373997Y-3821653D01*
X5373999Y-3821651D01*
X5531499Y-3678071D01*
X5659940Y-3507989D01*
X5754933Y-3317216D01*
X5754941Y-3317196D01*
X5813261Y-3112219D01*
X5813262Y-3112216D01*
X5828000Y-2953167D01*
X5828000Y-2850000D01*
X4978000Y-2850000D01*
X4978000Y-2350000D01*
X5828000Y-2350000D01*
X5828000Y-2246832D01*
X5813262Y-2087783D01*
X5813261Y-2087780D01*
X5754941Y-1882803D01*
X5754933Y-1882783D01*
X5659940Y-1692010D01*
X5531499Y-1521928D01*
X5373999Y-1378348D01*
X5373997Y-1378346D01*
X5192798Y-1266153D01*
X5192789Y-1266149D01*
X4994063Y-1189163D01*
X4994058Y-1189162D01*
X4928000Y-1176813D01*
X4928000Y-2133889D01*
X4903543Y-2094390D01*
X4814038Y-2026799D01*
X4706160Y-1996105D01*
X4594479Y-2006454D01*
X4494078Y-2056448D01*
X4428000Y-2128930D01*
X4428000Y-1176813D01*
X4361941Y-1189162D01*
X4361936Y-1189163D01*
X4163210Y-1266149D01*
X4163201Y-1266153D01*
X3982002Y-1378346D01*
X3982000Y-1378348D01*
X3824500Y-1521928D01*
X3696059Y-1692010D01*
X3601066Y-1882783D01*
X3601058Y-1882803D01*
X3542738Y-2087780D01*
X3542737Y-2087783D01*
X3528000Y-2246832D01*
X3528000Y-2350000D01*
X4378000Y-2350000D01*
X4378000Y-2850000D01*
X3528000Y-2850000D01*
X3528000Y-2953167D01*
X500499Y-2953167D01*
X500499Y-2002214D01*
X500657Y-1997791D01*
X504626Y-1942306D01*
X515130Y-1795437D01*
X517646Y-1777938D01*
X559356Y-1586199D01*
X564333Y-1569248D01*
X632911Y-1385385D01*
X640256Y-1369303D01*
X734294Y-1197083D01*
X743850Y-1182214D01*
X861443Y-1025128D01*
X873017Y-1011771D01*
X1011771Y-873017D01*
X1025128Y-861443D01*
X1182214Y-743850D01*
X1197083Y-734294D01*
X1369303Y-640256D01*
X1385385Y-632911D01*
X1569248Y-564333D01*
X1586199Y-559356D01*
X1777938Y-517646D01*
X1795436Y-515130D01*
X1997791Y-500657D01*
X2002214Y-500500D01*
X2065892Y-500500D01*
X99453497Y-500500D01*
X99520536Y-520185D01*
G37*
%TD.AperFunction*%
%TA.AperFunction,Conductor*%
G36*
X6010666Y-14103507D02*
G01*
X6013745Y-14103710D01*
X6079354Y-14127737D01*
X6093316Y-14139763D01*
X6332805Y-14379252D01*
X6381445Y-14379253D01*
X6448485Y-14398938D01*
X6469125Y-14415572D01*
X7065871Y-15012318D01*
X7099356Y-15073641D01*
X7094372Y-15143333D01*
X7065871Y-15187680D01*
X6887680Y-15365871D01*
X6826357Y-15399356D01*
X6756665Y-15394372D01*
X6712318Y-15365871D01*
X6492096Y-15145649D01*
X6600000Y-15145649D01*
X6639613Y-15227905D01*
X6710992Y-15284827D01*
X6777468Y-15300000D01*
X6822532Y-15300000D01*
X6889008Y-15284827D01*
X6960387Y-15227905D01*
X7000000Y-15145649D01*
X7000000Y-15054351D01*
X6960387Y-14972095D01*
X6889008Y-14915173D01*
X6822532Y-14900000D01*
X6777468Y-14900000D01*
X6710992Y-14915173D01*
X6639613Y-14972095D01*
X6600000Y-15054351D01*
X6600000Y-15145649D01*
X6492096Y-15145649D01*
X6467193Y-15120746D01*
X6418555Y-15120746D01*
X6351516Y-15101061D01*
X6330874Y-15084427D01*
X5739763Y-14493316D01*
X5713735Y-14445649D01*
X5800000Y-14445649D01*
X5839613Y-14527905D01*
X5910992Y-14584827D01*
X5977468Y-14600000D01*
X6022532Y-14600000D01*
X6089008Y-14584827D01*
X6160387Y-14527905D01*
X6200000Y-14445649D01*
X6200000Y-14354351D01*
X6160387Y-14272095D01*
X6089008Y-14215173D01*
X6022532Y-14200000D01*
X5977468Y-14200000D01*
X5910992Y-14215173D01*
X5839613Y-14272095D01*
X5800000Y-14354351D01*
X5800000Y-14445649D01*
X5713735Y-14445649D01*
X5706278Y-14431993D01*
X5703709Y-14413734D01*
X5703490Y-14410382D01*
X5703672Y-14412226D01*
X5703683Y-14387660D01*
X5703493Y-14389560D01*
X5703708Y-14386270D01*
X5727725Y-14320661D01*
X5739763Y-14306683D01*
X5906683Y-14139763D01*
X5968006Y-14106278D01*
X5986256Y-14103709D01*
X5987872Y-14103603D01*
X5989543Y-14103494D01*
X5987660Y-14103682D01*
X6012281Y-14103677D01*
X6010420Y-14103491D01*
X6010666Y-14103507D01*
G37*
%TD.AperFunction*%
%TA.AperFunction,Conductor*%
G36*
X11993332Y-14105627D02*
G01*
X12037680Y-14134128D01*
X12215871Y-14312318D01*
X12249356Y-14373641D01*
X12244372Y-14443332D01*
X12215871Y-14487680D01*
X11594125Y-15109427D01*
X11532802Y-15142912D01*
X11507969Y-15145582D01*
X11287680Y-15365871D01*
X11226357Y-15399356D01*
X11156665Y-15394372D01*
X11112318Y-15365871D01*
X10934127Y-15187680D01*
X10911176Y-15145649D01*
X11000000Y-15145649D01*
X11039613Y-15227905D01*
X11110992Y-15284827D01*
X11177468Y-15300000D01*
X11222532Y-15300000D01*
X11289008Y-15284827D01*
X11360387Y-15227905D01*
X11400000Y-15145649D01*
X11400000Y-15054351D01*
X11360387Y-14972095D01*
X11289008Y-14915173D01*
X11222532Y-14900000D01*
X11177468Y-14900000D01*
X11110992Y-14915173D01*
X11039613Y-14972095D01*
X11000000Y-15054351D01*
X11000000Y-15145649D01*
X10911176Y-15145649D01*
X10900642Y-15126357D01*
X10905626Y-15056665D01*
X10934127Y-15012318D01*
X11500798Y-14445649D01*
X11750000Y-14445649D01*
X11789613Y-14527905D01*
X11860992Y-14584827D01*
X11927468Y-14600000D01*
X11972532Y-14600000D01*
X12039008Y-14584827D01*
X12110387Y-14527905D01*
X12150000Y-14445649D01*
X12150000Y-14354351D01*
X12110387Y-14272095D01*
X12039008Y-14215173D01*
X11972532Y-14200000D01*
X11927468Y-14200000D01*
X11860992Y-14215173D01*
X11789613Y-14272095D01*
X11750000Y-14354351D01*
X11750000Y-14445649D01*
X11500798Y-14445649D01*
X11555875Y-14390572D01*
X11617198Y-14357087D01*
X11642029Y-14354417D01*
X11862318Y-14134128D01*
X11923641Y-14100643D01*
X11993332Y-14105627D01*
G37*
%TD.AperFunction*%
%TD*%
M02*
