%TF.GenerationSoftware,KiCad,Pcbnew,7.0.6*%
%TF.CreationDate,2023-09-19T22:06:04+01:00*%
%TF.ProjectId,MoonHub,4d6f6f6e-4875-4622-9e6b-696361645f70,rev?*%
%TF.SameCoordinates,Original*%
%TF.FileFunction,Copper,L1,Top*%
%TF.FilePolarity,Positive*%
%FSLAX46Y46*%
G04 Gerber Fmt 4.6, Leading zero omitted, Abs format (unit mm)*
G04 Created by KiCad (PCBNEW 7.0.6) date 2023-09-19 22:06:04*
%MOMM*%
%LPD*%
G01*
G04 APERTURE LIST*
G04 Aperture macros list*
%AMRoundRect*
0 Rectangle with rounded corners*
0 $1 Rounding radius*
0 $2 $3 $4 $5 $6 $7 $8 $9 X,Y pos of 4 corners*
0 Add a 4 corners polygon primitive as box body*
4,1,4,$2,$3,$4,$5,$6,$7,$8,$9,$2,$3,0*
0 Add four circle primitives for the rounded corners*
1,1,$1+$1,$2,$3*
1,1,$1+$1,$4,$5*
1,1,$1+$1,$6,$7*
1,1,$1+$1,$8,$9*
0 Add four rect primitives between the rounded corners*
20,1,$1+$1,$2,$3,$4,$5,0*
20,1,$1+$1,$4,$5,$6,$7,0*
20,1,$1+$1,$6,$7,$8,$9,0*
20,1,$1+$1,$8,$9,$2,$3,0*%
%AMRotRect*
0 Rectangle, with rotation*
0 The origin of the aperture is its center*
0 $1 length*
0 $2 width*
0 $3 Rotation angle, in degrees counterclockwise*
0 Add horizontal line*
21,1,$1,$2,0,0,$3*%
G04 Aperture macros list end*
%TA.AperFunction,SMDPad,CuDef*%
%ADD10RoundRect,0.218750X-0.381250X0.218750X-0.381250X-0.218750X0.381250X-0.218750X0.381250X0.218750X0*%
%TD*%
%TA.AperFunction,SMDPad,CuDef*%
%ADD11RoundRect,0.250000X-0.650000X0.325000X-0.650000X-0.325000X0.650000X-0.325000X0.650000X0.325000X0*%
%TD*%
%TA.AperFunction,SMDPad,CuDef*%
%ADD12RoundRect,0.140000X0.170000X-0.140000X0.170000X0.140000X-0.170000X0.140000X-0.170000X-0.140000X0*%
%TD*%
%TA.AperFunction,SMDPad,CuDef*%
%ADD13RoundRect,0.060000X0.240000X0.665000X-0.240000X0.665000X-0.240000X-0.665000X0.240000X-0.665000X0*%
%TD*%
%TA.AperFunction,SMDPad,CuDef*%
%ADD14RoundRect,0.060000X0.090000X0.665000X-0.090000X0.665000X-0.090000X-0.665000X0.090000X-0.665000X0*%
%TD*%
%TA.AperFunction,ComponentPad*%
%ADD15O,1.100000X2.200000*%
%TD*%
%TA.AperFunction,ComponentPad*%
%ADD16O,1.300000X1.900000*%
%TD*%
%TA.AperFunction,SMDPad,CuDef*%
%ADD17RoundRect,0.140000X-0.170000X0.140000X-0.170000X-0.140000X0.170000X-0.140000X0.170000X0.140000X0*%
%TD*%
%TA.AperFunction,WasherPad*%
%ADD18C,1.300000*%
%TD*%
%TA.AperFunction,SMDPad,CuDef*%
%ADD19RoundRect,0.135000X0.135000X0.185000X-0.135000X0.185000X-0.135000X-0.185000X0.135000X-0.185000X0*%
%TD*%
%TA.AperFunction,SMDPad,CuDef*%
%ADD20RoundRect,0.135000X-0.135000X-0.185000X0.135000X-0.185000X0.135000X0.185000X-0.135000X0.185000X0*%
%TD*%
%TA.AperFunction,SMDPad,CuDef*%
%ADD21R,1.200000X0.400000*%
%TD*%
%TA.AperFunction,SMDPad,CuDef*%
%ADD22RoundRect,0.166667X-0.333333X-0.483333X0.333333X-0.483333X0.333333X0.483333X-0.333333X0.483333X0*%
%TD*%
%TA.AperFunction,ComponentPad*%
%ADD23C,0.600000*%
%TD*%
%TA.AperFunction,SMDPad,CuDef*%
%ADD24RoundRect,0.100000X-0.625000X-0.900000X0.625000X-0.900000X0.625000X0.900000X-0.625000X0.900000X0*%
%TD*%
%TA.AperFunction,SMDPad,CuDef*%
%ADD25R,1.400000X1.200000*%
%TD*%
%TA.AperFunction,SMDPad,CuDef*%
%ADD26RotRect,1.200000X1.400000X225.000000*%
%TD*%
%TA.AperFunction,SMDPad,CuDef*%
%ADD27RoundRect,0.150000X-0.475000X-0.150000X0.475000X-0.150000X0.475000X0.150000X-0.475000X0.150000X0*%
%TD*%
%TA.AperFunction,WasherPad*%
%ADD28C,3.500001*%
%TD*%
%TA.AperFunction,SMDPad,CuDef*%
%ADD29RoundRect,0.218750X0.381250X-0.218750X0.381250X0.218750X-0.381250X0.218750X-0.381250X-0.218750X0*%
%TD*%
%TA.AperFunction,SMDPad,CuDef*%
%ADD30R,1.400000X2.800000*%
%TD*%
%TA.AperFunction,ComponentPad*%
%ADD31O,1.400000X2.500000*%
%TD*%
%TA.AperFunction,SMDPad,CuDef*%
%ADD32RoundRect,0.150000X-0.150000X0.475000X-0.150000X-0.475000X0.150000X-0.475000X0.150000X0.475000X0*%
%TD*%
%TA.AperFunction,ComponentPad*%
%ADD33C,3.500001*%
%TD*%
%TA.AperFunction,SMDPad,CuDef*%
%ADD34RoundRect,0.150000X0.150000X-0.475000X0.150000X0.475000X-0.150000X0.475000X-0.150000X-0.475000X0*%
%TD*%
%TA.AperFunction,SMDPad,CuDef*%
%ADD35RoundRect,0.150000X-0.512500X-0.150000X0.512500X-0.150000X0.512500X0.150000X-0.512500X0.150000X0*%
%TD*%
%TA.AperFunction,ViaPad*%
%ADD36C,0.700000*%
%TD*%
%TA.AperFunction,Conductor*%
%ADD37C,0.500000*%
%TD*%
%TA.AperFunction,Conductor*%
%ADD38C,0.600000*%
%TD*%
%TA.AperFunction,Conductor*%
%ADD39C,0.400000*%
%TD*%
%TA.AperFunction,Conductor*%
%ADD40C,1.400000*%
%TD*%
%TA.AperFunction,Conductor*%
%ADD41C,0.127000*%
%TD*%
%TA.AperFunction,Conductor*%
%ADD42C,0.211100*%
%TD*%
%TA.AperFunction,Conductor*%
%ADD43C,0.200000*%
%TD*%
G04 APERTURE END LIST*
D10*
%TO.P,FB4,1*%
%TO.N,GND*%
X78100000Y-6550500D03*
%TO.P,FB4,2*%
%TO.N,GNDPWR*%
X78100000Y-8675500D03*
%TD*%
D11*
%TO.P,C3,1*%
%TO.N,VBUS*%
X43600000Y-3450000D03*
%TO.P,C3,2*%
%TO.N,GND*%
X43600000Y-6400000D03*
%TD*%
D12*
%TO.P,C9,1*%
%TO.N,Net-(U4-XI)*%
X30365000Y-12037500D03*
%TO.P,C9,2*%
%TO.N,GND*%
X30365000Y-11077500D03*
%TD*%
D13*
%TO.P,USB3,A1,GND*%
%TO.N,GND*%
X53767000Y-7695000D03*
%TO.P,USB3,A4,VBUS*%
%TO.N,VBUS*%
X52992000Y-7695000D03*
D14*
%TO.P,USB3,A5,CC1*%
%TO.N,Net-(USB3-CC1)*%
X51792000Y-7695000D03*
%TO.P,USB3,A6,D+*%
%TO.N,/USB1_D+*%
X50792000Y-7695000D03*
%TO.P,USB3,A7,D-*%
%TO.N,/USB1_D-*%
X50292000Y-7695000D03*
%TO.P,USB3,A8,SBU1*%
%TO.N,unconnected-(USB3-SBU1-PadA8)*%
X49292000Y-7695000D03*
D13*
%TO.P,USB3,B1,GND*%
%TO.N,GND*%
X47317000Y-7695000D03*
%TO.P,USB3,B4,VBUS*%
%TO.N,VBUS*%
X48092000Y-7695000D03*
D14*
%TO.P,USB3,B5,CC2*%
%TO.N,Net-(USB3-CC2)*%
X48792000Y-7695000D03*
%TO.P,USB3,B6,D+*%
%TO.N,/USB1_D+*%
X49792000Y-7695000D03*
%TO.P,USB3,B7,D-*%
%TO.N,/USB1_D-*%
X51292000Y-7695000D03*
%TO.P,USB3,B8,SBU2*%
%TO.N,unconnected-(USB3-SBU2-PadB8)*%
X52292000Y-7695000D03*
D15*
%TO.P,USB3,S1,SHIELD*%
%TO.N,GNDPWR*%
X54862000Y-6780000D03*
D16*
X54862000Y-2600000D03*
D15*
X46222000Y-6780000D03*
D16*
X46222000Y-2600000D03*
%TD*%
D17*
%TO.P,C2,1*%
%TO.N,VBUS*%
X37600000Y-2220000D03*
%TO.P,C2,2*%
%TO.N,GND*%
X37600000Y-3180000D03*
%TD*%
D10*
%TO.P,FB2,1*%
%TO.N,GND*%
X99400000Y-6550500D03*
%TO.P,FB2,2*%
%TO.N,GNDPWR*%
X99400000Y-8675500D03*
%TD*%
D17*
%TO.P,C4,1*%
%TO.N,Net-(C4-Pad1)*%
X21200000Y-8170000D03*
%TO.P,C4,2*%
%TO.N,GND*%
X21200000Y-9130000D03*
%TD*%
D18*
%TO.P,H7,*%
%TO.N,*%
X96900000Y-15400000D03*
%TD*%
%TO.P,H6,*%
%TO.N,*%
X4700000Y-15600000D03*
%TD*%
D19*
%TO.P,R3,1*%
%TO.N,VBUS*%
X53710000Y-9100000D03*
%TO.P,R3,2*%
%TO.N,Net-(USB3-CC1)*%
X52690000Y-9100000D03*
%TD*%
D20*
%TO.P,R4,1*%
%TO.N,VBUS*%
X45990000Y-9200000D03*
%TO.P,R4,2*%
%TO.N,Net-(USB3-CC2)*%
X47010000Y-9200000D03*
%TD*%
D21*
%TO.P,U4,1,GND*%
%TO.N,GND*%
X28900000Y-12427500D03*
%TO.P,U4,2,XO*%
%TO.N,Net-(U4-XO)*%
X28900000Y-11792500D03*
%TO.P,U4,3,XI*%
%TO.N,Net-(U4-XI)*%
X28900000Y-11157500D03*
%TO.P,U4,4,DM4*%
%TO.N,/USB4_D-*%
X28900000Y-10522500D03*
%TO.P,U4,5,DP4*%
%TO.N,/USB4_D+*%
X28900000Y-9887500D03*
%TO.P,U4,6,DM3*%
%TO.N,/USB3_D-*%
X28900000Y-9252500D03*
%TO.P,U4,7,DP3*%
%TO.N,/USB3_D+*%
X28900000Y-8617500D03*
%TO.P,U4,8,DM2*%
%TO.N,/USB2_D-*%
X28900000Y-7982500D03*
%TO.P,U4,9,DP2*%
%TO.N,/USB2_D+*%
X28900000Y-7347500D03*
%TO.P,U4,10,DM1*%
%TO.N,/USB1_D-*%
X28900000Y-6712500D03*
%TO.P,U4,11,DP1*%
%TO.N,/USB1_D+*%
X28900000Y-6077500D03*
%TO.P,U4,12,GND*%
%TO.N,GND*%
X28900000Y-5442500D03*
%TO.P,U4,13,VDD33*%
%TO.N,Net-(C6-Pad1)*%
X28900000Y-4807500D03*
%TO.P,U4,14,LED3/SCL*%
%TO.N,unconnected-(U4-LED3{slash}SCL-Pad14)*%
X28900000Y-4172500D03*
%TO.P,U4,15,DMU*%
%TO.N,/USBU_D-*%
X23700000Y-4172500D03*
%TO.P,U4,16,DPU*%
%TO.N,/USBU_D+*%
X23700000Y-4807500D03*
%TO.P,U4,17,RESET#/CDP*%
%TO.N,unconnected-(U4-RESET#{slash}CDP-Pad17)*%
X23700000Y-5442500D03*
%TO.P,U4,18,NC*%
%TO.N,unconnected-(U4-NC-Pad18)*%
X23700000Y-6077500D03*
%TO.P,U4,19,PSELF*%
%TO.N,unconnected-(U4-PSELF-Pad19)*%
X23700000Y-6712500D03*
%TO.P,U4,20,V5*%
%TO.N,+5V*%
X23700000Y-7347500D03*
%TO.P,U4,21,VDD33*%
%TO.N,Net-(C4-Pad1)*%
X23700000Y-7982500D03*
%TO.P,U4,22,LED4/SDA*%
%TO.N,unconnected-(U4-LED4{slash}SDA-Pad22)*%
X23700000Y-8617500D03*
%TO.P,U4,23,LED1*%
%TO.N,unconnected-(U4-LED1-Pad23)*%
X23700000Y-9252500D03*
%TO.P,U4,24,LED2*%
%TO.N,unconnected-(U4-LED2-Pad24)*%
X23700000Y-9887500D03*
%TO.P,U4,25,PWREN#*%
%TO.N,/PWREN*%
X23700000Y-10522500D03*
%TO.P,U4,26,OVCUR#*%
%TO.N,/OVCUR*%
X23700000Y-11157500D03*
%TO.P,U4,27,NC*%
%TO.N,unconnected-(U4-NC-Pad27)*%
X23700000Y-11792500D03*
%TO.P,U4,28,GND*%
%TO.N,GND*%
X23700000Y-12427500D03*
%TD*%
D22*
%TO.P,J1,1,Pin_1*%
%TO.N,VBUS*%
X7200000Y-11650000D03*
%TO.P,J1,2,Pin_2*%
%TO.N,/USB4_D-*%
X8400000Y-11650000D03*
%TO.P,J1,3,Pin_3*%
%TO.N,/USB4_D+*%
X9600000Y-11650000D03*
%TO.P,J1,4,Pin_4*%
%TO.N,GND*%
X10800000Y-11650000D03*
D23*
%TO.P,J1,MP,MountPin*%
X6000000Y-14400000D03*
D24*
X6425000Y-15100000D03*
D23*
X6800000Y-14400000D03*
X6800000Y-15100000D03*
X6800000Y-15800000D03*
X11200000Y-14400000D03*
X11200000Y-15100000D03*
X11200000Y-15800000D03*
D24*
X11575000Y-15100000D03*
D23*
X11950000Y-14400000D03*
%TD*%
D25*
%TO.P,Y1,1,1*%
%TO.N,GND*%
X31915000Y-13877500D03*
%TO.P,Y1,2,2*%
%TO.N,Net-(U4-XO)*%
X34115000Y-13877500D03*
%TO.P,Y1,3,3*%
%TO.N,GND*%
X34115000Y-12177500D03*
%TO.P,Y1,4,4*%
%TO.N,Net-(U4-XI)*%
X31915000Y-12177500D03*
%TD*%
D17*
%TO.P,C5,1*%
%TO.N,Net-(C4-Pad1)*%
X22250000Y-8170000D03*
%TO.P,C5,2*%
%TO.N,GND*%
X22250000Y-9130000D03*
%TD*%
D26*
%TO.P,D1,1,A1*%
%TO.N,GND*%
X17952082Y-3747918D03*
%TO.P,D1,2,A2*%
%TO.N,+5V*%
X15547918Y-6152082D03*
%TD*%
D27*
%TO.P,U3,1,IO1*%
%TO.N,/USB1_D+*%
X48867000Y-9350000D03*
%TO.P,U3,2,VN*%
%TO.N,GND*%
X48867000Y-10300000D03*
%TO.P,U3,3,IO2*%
%TO.N,/USB1_D-*%
X48867000Y-11250000D03*
%TO.P,U3,4,IO3*%
%TO.N,unconnected-(U3-IO3-Pad4)*%
X51217000Y-11250000D03*
%TO.P,U3,5,VP*%
%TO.N,VBUS*%
X51217000Y-10300000D03*
%TO.P,U3,6,IO4*%
%TO.N,unconnected-(U3-IO4-Pad6)*%
X51217000Y-9350000D03*
%TD*%
D20*
%TO.P,R1,1*%
%TO.N,Net-(USB2-CC1)*%
X11203000Y-9100000D03*
%TO.P,R1,2*%
%TO.N,GND*%
X12223000Y-9100000D03*
%TD*%
D28*
%TO.P,H3,*%
%TO.N,*%
X2000000Y-14500000D03*
%TD*%
D12*
%TO.P,C7,1*%
%TO.N,+5V*%
X22250000Y-7180000D03*
%TO.P,C7,2*%
%TO.N,GND*%
X22250000Y-6220000D03*
%TD*%
D28*
%TO.P,H4,*%
%TO.N,*%
X100000000Y-14500000D03*
%TD*%
D13*
%TO.P,USB2,A1,GND*%
%TO.N,GND*%
X12223000Y-7695000D03*
%TO.P,USB2,A4,VBUS*%
%TO.N,+5V*%
X11448000Y-7695000D03*
D14*
%TO.P,USB2,A5,CC1*%
%TO.N,Net-(USB2-CC1)*%
X10248000Y-7695000D03*
%TO.P,USB2,A6,D+*%
%TO.N,/USBU_D+*%
X9248000Y-7695000D03*
%TO.P,USB2,A7,D-*%
%TO.N,/USBU_D-*%
X8748000Y-7695000D03*
%TO.P,USB2,A8,SBU1*%
%TO.N,unconnected-(USB2-SBU1-PadA8)*%
X7748000Y-7695000D03*
D13*
%TO.P,USB2,B1,GND*%
%TO.N,GND*%
X5773000Y-7695000D03*
%TO.P,USB2,B4,VBUS*%
%TO.N,+5V*%
X6548000Y-7695000D03*
D14*
%TO.P,USB2,B5,CC2*%
%TO.N,Net-(USB2-CC2)*%
X7248000Y-7695000D03*
%TO.P,USB2,B6,D+*%
%TO.N,/USBU_D+*%
X8248000Y-7695000D03*
%TO.P,USB2,B7,D-*%
%TO.N,/USBU_D-*%
X9748000Y-7695000D03*
%TO.P,USB2,B8,SBU2*%
%TO.N,unconnected-(USB2-SBU2-PadB8)*%
X10748000Y-7695000D03*
D15*
%TO.P,USB2,S1,SHIELD*%
%TO.N,GNDPWR*%
X13318000Y-6780000D03*
D16*
X13318000Y-2600000D03*
D15*
X4678000Y-6780000D03*
D16*
X4678000Y-2600000D03*
%TD*%
D29*
%TO.P,FB1,1*%
%TO.N,GND*%
X2600000Y-8905000D03*
%TO.P,FB1,2*%
%TO.N,GNDPWR*%
X2600000Y-6780000D03*
%TD*%
D12*
%TO.P,C1,1*%
%TO.N,+5V*%
X37600000Y-5130000D03*
%TO.P,C1,2*%
%TO.N,GND*%
X37600000Y-4170000D03*
%TD*%
D30*
%TO.P,USB4,1,VBUS*%
%TO.N,VBUS*%
X73062000Y-10149500D03*
%TO.P,USB4,2,D-*%
%TO.N,/USB2_D-*%
X70563000Y-10149500D03*
%TO.P,USB4,3,D+*%
%TO.N,/USB2_D+*%
X68561000Y-10149500D03*
%TO.P,USB4,4,GND*%
%TO.N,GND*%
X66062000Y-10149500D03*
D31*
%TO.P,USB4,5,Shield*%
%TO.N,GNDPWR*%
X75963000Y-8675500D03*
X75963000Y-2673500D03*
X63161000Y-8675500D03*
X63161000Y-2724500D03*
%TD*%
D28*
%TO.P,H1,*%
%TO.N,*%
X100000000Y-2000000D03*
%TD*%
D27*
%TO.P,U2,1,IO1*%
%TO.N,/USB3_D+*%
X89617000Y-12450000D03*
%TO.P,U2,2,VN*%
%TO.N,GND*%
X89617000Y-13400000D03*
%TO.P,U2,3,IO2*%
%TO.N,/USB3_D-*%
X89617000Y-14350000D03*
%TO.P,U2,4,IO3*%
%TO.N,unconnected-(U2-IO3-Pad4)*%
X91967000Y-14350000D03*
%TO.P,U2,5,VP*%
%TO.N,VBUS*%
X91967000Y-13400000D03*
%TO.P,U2,6,IO4*%
%TO.N,unconnected-(U2-IO4-Pad6)*%
X91967000Y-12450000D03*
%TD*%
D10*
%TO.P,FB3,1*%
%TO.N,GND*%
X57000000Y-4655000D03*
%TO.P,FB3,2*%
%TO.N,GNDPWR*%
X57000000Y-6780000D03*
%TD*%
D32*
%TO.P,U5,1,IO1*%
%TO.N,/USBU_D+*%
X18650000Y-8925000D03*
%TO.P,U5,2,VN*%
%TO.N,GND*%
X17700000Y-8925000D03*
%TO.P,U5,3,IO2*%
%TO.N,/USBU_D-*%
X16750000Y-8925000D03*
%TO.P,U5,4,IO3*%
%TO.N,unconnected-(U5-IO3-Pad4)*%
X16750000Y-11275000D03*
%TO.P,U5,5,VP*%
%TO.N,VBUS*%
X17700000Y-11275000D03*
%TO.P,U5,6,IO4*%
%TO.N,unconnected-(U5-IO4-Pad6)*%
X18650000Y-11275000D03*
%TD*%
D33*
%TO.P,H2,1,1*%
%TO.N,GNDPWR*%
X2000000Y-2000000D03*
%TD*%
D19*
%TO.P,R2,1*%
%TO.N,Net-(USB2-CC2)*%
X6793000Y-9100000D03*
%TO.P,R2,2*%
%TO.N,GND*%
X5773000Y-9100000D03*
%TD*%
D34*
%TO.P,U7,1,IO1*%
%TO.N,unconnected-(U7-IO1-Pad1)*%
X20150000Y-14475000D03*
%TO.P,U7,2,VN*%
%TO.N,GND*%
X21100000Y-14475000D03*
%TO.P,U7,3,IO2*%
%TO.N,/USB4_D-*%
X22050000Y-14475000D03*
%TO.P,U7,4,IO3*%
%TO.N,/USB4_D+*%
X22050000Y-12125000D03*
%TO.P,U7,5,VP*%
%TO.N,VBUS*%
X21100000Y-12125000D03*
%TO.P,U7,6,IO4*%
%TO.N,unconnected-(U7-IO4-Pad6)*%
X20150000Y-12125000D03*
%TD*%
D18*
%TO.P,H5,*%
%TO.N,*%
X1100000Y-4800000D03*
%TD*%
D35*
%TO.P,U1,1,OUT*%
%TO.N,VBUS*%
X39112500Y-2800000D03*
%TO.P,U1,2,GND*%
%TO.N,GND*%
X39112500Y-3750000D03*
%TO.P,U1,3,IN*%
%TO.N,+5V*%
X39112500Y-4700000D03*
%TO.P,U1,4,EN*%
X41387500Y-4700000D03*
%TO.P,U1,5,OUT*%
%TO.N,VBUS*%
X41387500Y-2800000D03*
%TD*%
D17*
%TO.P,C6,1*%
%TO.N,Net-(C6-Pad1)*%
X30350000Y-4482500D03*
%TO.P,C6,2*%
%TO.N,GND*%
X30350000Y-5442500D03*
%TD*%
D27*
%TO.P,U6,1,IO1*%
%TO.N,/USB2_D+*%
X58825000Y-10050000D03*
%TO.P,U6,2,VN*%
%TO.N,GND*%
X58825000Y-11000000D03*
%TO.P,U6,3,IO2*%
%TO.N,/USB2_D-*%
X58825000Y-11950000D03*
%TO.P,U6,4,IO3*%
%TO.N,unconnected-(U6-IO3-Pad4)*%
X61175000Y-11950000D03*
%TO.P,U6,5,VP*%
%TO.N,VBUS*%
X61175000Y-11000000D03*
%TO.P,U6,6,IO4*%
%TO.N,unconnected-(U6-IO4-Pad6)*%
X61175000Y-10050000D03*
%TD*%
D17*
%TO.P,C8,1*%
%TO.N,Net-(U4-XO)*%
X30365000Y-12997500D03*
%TO.P,C8,2*%
%TO.N,GND*%
X30365000Y-13957500D03*
%TD*%
D30*
%TO.P,USB1,1,VBUS*%
%TO.N,VBUS*%
X94292000Y-10149500D03*
%TO.P,USB1,2,D-*%
%TO.N,/USB3_D-*%
X91793000Y-10149500D03*
%TO.P,USB1,3,D+*%
%TO.N,/USB3_D+*%
X89791000Y-10149500D03*
%TO.P,USB1,4,GND*%
%TO.N,GND*%
X87292000Y-10149500D03*
D31*
%TO.P,USB1,5,Shield*%
%TO.N,GNDPWR*%
X97193000Y-8675500D03*
X97193000Y-2673500D03*
X84391000Y-8675500D03*
X84391000Y-2724500D03*
%TD*%
D36*
%TO.N,GND*%
X8944428Y-15001750D03*
X35944428Y-9001750D03*
X19107106Y-3307106D03*
X63944428Y-14001750D03*
X21100000Y-15602000D03*
X21430000Y-6220000D03*
X38944428Y-12001750D03*
X48944428Y-14001750D03*
X13000000Y-9100000D03*
X7944428Y-10001750D03*
X11800000Y-12100000D03*
X24772500Y-12427500D03*
X13500000Y-11400000D03*
X3944428Y-11001750D03*
X46500000Y-8500000D03*
X35944428Y-13001750D03*
X55944428Y-12001750D03*
X66062000Y-8262000D03*
X36500000Y-2100000D03*
X79944428Y-15001750D03*
X79200000Y-6550500D03*
X41944428Y-10001750D03*
X25944428Y-5001750D03*
X31142500Y-5442500D03*
X32907500Y-11077500D03*
X24700000Y-14500000D03*
X53944428Y-13001750D03*
X69944428Y-14001750D03*
X17700000Y-7798000D03*
X25944428Y-8001750D03*
X5000000Y-9100000D03*
X18400000Y-2600000D03*
X85944428Y-15001750D03*
X44100000Y-5300000D03*
X40944428Y-13001750D03*
X27827500Y-12427500D03*
X3700000Y-8900000D03*
X87292000Y-8208000D03*
X54572000Y-8500000D03*
X60944428Y-14001750D03*
X22250000Y-9900000D03*
X7944428Y-13001750D03*
X82944428Y-15001750D03*
X26944428Y-14001750D03*
X13800000Y-14600000D03*
X57700000Y-11000000D03*
X47750000Y-10300000D03*
X66944428Y-14001750D03*
X56944428Y-14001750D03*
X58944428Y-13001750D03*
X36500000Y-3100000D03*
X16944428Y-15001750D03*
X51944428Y-14001750D03*
X19944428Y-7001750D03*
X100500000Y-6550500D03*
X76944428Y-15001750D03*
X30600000Y-10001750D03*
X11800000Y-11200000D03*
X45944428Y-14001750D03*
X36944428Y-15001750D03*
X73944428Y-15001750D03*
X1944428Y-10001750D03*
X43100000Y-5300000D03*
X58100000Y-4655000D03*
X39944428Y-8001750D03*
X88500000Y-13400000D03*
X37944428Y-10001750D03*
X29570000Y-13957500D03*
X42944428Y-14001750D03*
X4944428Y-14001750D03*
%TO.N,+5V*%
X36500000Y-4350000D03*
X14750000Y-7600000D03*
X21430000Y-7180000D03*
X15750000Y-7600000D03*
X36500000Y-5350000D03*
%TO.N,VBUS*%
X45200000Y-9200000D03*
X43100000Y-2150000D03*
X52350000Y-10300000D03*
X73062000Y-8262000D03*
X44100000Y-2150000D03*
X53710000Y-9950000D03*
X93100000Y-13400000D03*
X52224911Y-6254900D03*
X17700000Y-12400000D03*
X6200000Y-12100000D03*
X48859089Y-6254900D03*
X94292000Y-8208000D03*
X62300000Y-11000000D03*
X21100000Y-11000000D03*
X6200000Y-11200000D03*
%TD*%
D37*
%TO.N,GND*%
X17700000Y-8925000D02*
X17700000Y-7798000D01*
D38*
X58100000Y-4655000D02*
X57000000Y-4655000D01*
X2600000Y-8905000D02*
X3695000Y-8905000D01*
D37*
X12223000Y-7695000D02*
X12223000Y-9100000D01*
X12223000Y-9100000D02*
X13000000Y-9100000D01*
D38*
X3695000Y-8905000D02*
X3700000Y-8900000D01*
D37*
X30365000Y-11077500D02*
X32907500Y-11077500D01*
X88500000Y-13400000D02*
X89617000Y-13400000D01*
D38*
X46556000Y-8500000D02*
X47317000Y-7739000D01*
D37*
X5773000Y-7695000D02*
X5773000Y-9100000D01*
D38*
X47317000Y-7739000D02*
X47317000Y-7695000D01*
D39*
X28900000Y-5442500D02*
X30350000Y-5442500D01*
D37*
X21100000Y-14475000D02*
X21100000Y-15602000D01*
X29570000Y-13957500D02*
X30365000Y-13957500D01*
D40*
X66062000Y-8262000D02*
X66062000Y-10149500D01*
D37*
X32907500Y-11077500D02*
X34007500Y-12177500D01*
D38*
X54572000Y-8500000D02*
X54486000Y-8500000D01*
D37*
X22250000Y-9130000D02*
X22250000Y-9900000D01*
D39*
X27827500Y-12427500D02*
X28900000Y-12427500D01*
D37*
X31915000Y-13877500D02*
X30445000Y-13877500D01*
D38*
X53767000Y-7781000D02*
X53767000Y-7695000D01*
D37*
X30445000Y-13877500D02*
X30365000Y-13957500D01*
X31142500Y-5442500D02*
X30350000Y-5442500D01*
D40*
X87292000Y-8208000D02*
X87292000Y-10149500D01*
D37*
X58825000Y-11000000D02*
X57700000Y-11000000D01*
X5000000Y-9100000D02*
X5773000Y-9100000D01*
D38*
X100500000Y-6550500D02*
X99400000Y-6550500D01*
D37*
X21430000Y-6220000D02*
X22250000Y-6220000D01*
X21200000Y-9130000D02*
X22250000Y-9130000D01*
D38*
X79200000Y-6550500D02*
X78100000Y-6550500D01*
X46500000Y-8500000D02*
X46556000Y-8500000D01*
X54486000Y-8500000D02*
X53767000Y-7781000D01*
D37*
X34007500Y-12177500D02*
X34115000Y-12177500D01*
D39*
X24772500Y-12427500D02*
X23700000Y-12427500D01*
D38*
X47750000Y-10300000D02*
X48867000Y-10300000D01*
D37*
%TO.N,+5V*%
X6548000Y-7695000D02*
X6548000Y-6982383D01*
D39*
X23700000Y-7347500D02*
X22997500Y-7347500D01*
D37*
X21430000Y-7180000D02*
X22250000Y-7180000D01*
X11448000Y-6982383D02*
X11448000Y-7695000D01*
D39*
X22997500Y-7347500D02*
X22830000Y-7180000D01*
X22830000Y-7180000D02*
X22250000Y-7180000D01*
D37*
X6548000Y-6982383D02*
X7630383Y-5900000D01*
X10365617Y-5900000D02*
X11448000Y-6982383D01*
%TO.N,VBUS*%
X53710000Y-9950000D02*
X53710000Y-9100000D01*
X17700000Y-12400000D02*
X17700000Y-11275000D01*
X52224911Y-6254900D02*
X52992000Y-7021989D01*
X45990000Y-9200000D02*
X45200000Y-9200000D01*
X48092000Y-7021989D02*
X48859089Y-6254900D01*
X61175000Y-11000000D02*
X62300000Y-11000000D01*
D40*
X73062000Y-8262000D02*
X73062000Y-10149500D01*
D37*
X48092000Y-7695000D02*
X48092000Y-7021989D01*
X21100000Y-12125000D02*
X21100000Y-11000000D01*
X51217000Y-10300000D02*
X52350000Y-10300000D01*
D40*
X94292000Y-8208000D02*
X94292000Y-10149500D01*
D37*
X52992000Y-7021989D02*
X52992000Y-7695000D01*
X93100000Y-13400000D02*
X91967000Y-13400000D01*
D41*
%TO.N,Net-(USB3-CC1)*%
X51792000Y-7695000D02*
X51792000Y-8592000D01*
X51792000Y-8592000D02*
X52300000Y-9100000D01*
X52300000Y-9100000D02*
X52690000Y-9100000D01*
%TO.N,Net-(USB3-CC2)*%
X48792000Y-7695000D02*
X48792000Y-8308000D01*
X48300000Y-8800000D02*
X47410000Y-8800000D01*
X47410000Y-8800000D02*
X47010000Y-9200000D01*
X48792000Y-8308000D02*
X48300000Y-8800000D01*
D42*
%TO.N,/USB1_D+*%
X50792000Y-7026272D02*
X50792000Y-7695000D01*
X49872950Y-8350950D02*
X49872950Y-9227050D01*
X49750000Y-9350000D02*
X48867000Y-9350000D01*
X44970024Y-10130950D02*
X41065024Y-6225950D01*
X29948451Y-6225950D02*
X29800001Y-6077500D01*
X50080822Y-6737450D02*
X50503178Y-6737450D01*
X49792000Y-7695000D02*
X49792000Y-7026272D01*
X48867000Y-9350000D02*
X47850000Y-9350000D01*
X49792000Y-7026272D02*
X50080822Y-6737450D01*
X49792000Y-8270000D02*
X49872950Y-8350950D01*
X47069050Y-10130950D02*
X44970024Y-10130950D01*
X49792000Y-7695000D02*
X49792000Y-8270000D01*
X41065024Y-6225950D02*
X29948451Y-6225950D01*
X47850000Y-9350000D02*
X47069050Y-10130950D01*
X50503178Y-6737450D02*
X50792000Y-7026272D01*
X29800001Y-6077500D02*
X28900000Y-6077500D01*
X49872950Y-9227050D02*
X49750000Y-9350000D01*
%TO.N,/USB2_D+*%
X68561000Y-10849500D02*
X69392950Y-11681450D01*
X68561000Y-10149500D02*
X68561000Y-10849500D01*
X60169050Y-11119050D02*
X59100000Y-10050000D01*
X59100000Y-10050000D02*
X58825000Y-10050000D01*
X58825000Y-10050000D02*
X57750000Y-10050000D01*
X57750000Y-10050000D02*
X56969050Y-10830950D01*
X52179976Y-12580950D02*
X42720024Y-12580950D01*
X29948451Y-7495950D02*
X29800001Y-7347500D01*
X37635024Y-7495950D02*
X29948451Y-7495950D01*
X60464693Y-12630950D02*
X60169050Y-12335307D01*
X69392950Y-11681450D02*
X69392950Y-11886974D01*
X69392950Y-11886974D02*
X68648974Y-12630950D01*
X42720024Y-12580950D02*
X37635024Y-7495950D01*
X29800001Y-7347500D02*
X28900000Y-7347500D01*
X68648974Y-12630950D02*
X60464693Y-12630950D01*
X53929976Y-10830950D02*
X52179976Y-12580950D01*
X56969050Y-10830950D02*
X53929976Y-10830950D01*
X60169050Y-12335307D02*
X60169050Y-11119050D01*
%TO.N,/USB2_D-*%
X58825000Y-11950000D02*
X57750000Y-11950000D01*
X68789022Y-12969050D02*
X60324645Y-12969050D01*
X69731050Y-12027022D02*
X68789022Y-12969050D01*
X70563000Y-10849500D02*
X69731050Y-11681450D01*
X54070024Y-11169050D02*
X52320024Y-12919050D01*
X59650000Y-11950000D02*
X58825000Y-11950000D01*
X56969050Y-11169050D02*
X54070024Y-11169050D01*
X69731050Y-11681450D02*
X69731050Y-12027022D01*
X52320024Y-12919050D02*
X42579976Y-12919050D01*
X57750000Y-11950000D02*
X56969050Y-11169050D01*
X70563000Y-10149500D02*
X70563000Y-10849500D01*
X29800001Y-7982500D02*
X28900000Y-7982500D01*
X37494976Y-7834050D02*
X29948451Y-7834050D01*
X59830950Y-12130950D02*
X59650000Y-11950000D01*
X59830950Y-12475355D02*
X59830950Y-12130950D01*
X29948451Y-7834050D02*
X29800001Y-7982500D01*
X42579976Y-12919050D02*
X37494976Y-7834050D01*
X60324645Y-12969050D02*
X59830950Y-12475355D01*
%TO.N,/USB1_D-*%
X44829976Y-10469050D02*
X40924976Y-6564050D01*
X50292000Y-7695000D02*
X50292000Y-8270000D01*
X50292000Y-8270000D02*
X50211050Y-8350950D01*
X51003178Y-8652550D02*
X51292000Y-8363728D01*
X29948451Y-6564050D02*
X29800001Y-6712500D01*
X40924976Y-6564050D02*
X29948451Y-6564050D01*
X50292000Y-7695000D02*
X50292000Y-8363728D01*
X50292000Y-8363728D02*
X50580822Y-8652550D01*
X49150000Y-11250000D02*
X48867000Y-11250000D01*
X50211050Y-10188950D02*
X49150000Y-11250000D01*
X48867000Y-11250000D02*
X47850000Y-11250000D01*
X50211050Y-8350950D02*
X50211050Y-10188950D01*
X50580822Y-8652550D02*
X51003178Y-8652550D01*
X29800001Y-6712500D02*
X28900000Y-6712500D01*
X47069050Y-10469050D02*
X44829976Y-10469050D01*
X51292000Y-8363728D02*
X51292000Y-7695000D01*
X47850000Y-11250000D02*
X47069050Y-10469050D01*
%TO.N,/USBU_D+*%
X22799999Y-4807500D02*
X23700000Y-4807500D01*
X17869050Y-6570024D02*
X19780024Y-4659050D01*
X9248000Y-7695000D02*
X9248000Y-8363728D01*
X9248000Y-7695000D02*
X9248000Y-8270000D01*
X9328950Y-9124084D02*
X10473916Y-10269050D01*
X9328950Y-8350950D02*
X9328950Y-9124084D01*
X22651549Y-4659050D02*
X22799999Y-4807500D01*
X10473916Y-10269050D02*
X17630950Y-10269050D01*
X8248000Y-8363728D02*
X8248000Y-7695000D01*
X9248000Y-8270000D02*
X9328950Y-8350950D01*
X8536822Y-8652550D02*
X8248000Y-8363728D01*
X18650000Y-8925000D02*
X18650000Y-7850000D01*
X9248000Y-8363728D02*
X8959177Y-8652550D01*
X18650000Y-9250000D02*
X18650000Y-8925000D01*
X18650000Y-7850000D02*
X17869050Y-7069050D01*
X8959177Y-8652550D02*
X8536822Y-8652550D01*
X17630950Y-10269050D02*
X18650000Y-9250000D01*
X19780024Y-4659050D02*
X22651549Y-4659050D01*
X17869050Y-7069050D02*
X17869050Y-6570024D01*
%TO.N,/USBU_D-*%
X8748000Y-7026272D02*
X9036822Y-6737450D01*
X16750000Y-8925000D02*
X16750000Y-7850000D01*
X9748000Y-8270000D02*
X9667050Y-8350950D01*
X9459178Y-6737450D02*
X9748000Y-7026272D01*
X8748000Y-7695000D02*
X8748000Y-7026272D01*
X16750000Y-7850000D02*
X17530950Y-7069050D01*
X17530950Y-7069050D02*
X17530950Y-6429976D01*
X9667050Y-8984036D02*
X10613964Y-9930950D01*
X9748000Y-7026272D02*
X9748000Y-7695000D01*
X16569050Y-9930950D02*
X16750000Y-9750000D01*
X10613964Y-9930950D02*
X16569050Y-9930950D01*
X22799999Y-4172500D02*
X23700000Y-4172500D01*
X22651549Y-4320950D02*
X22799999Y-4172500D01*
X17530950Y-6429976D02*
X19639976Y-4320950D01*
X9036822Y-6737450D02*
X9459178Y-6737450D01*
X16750000Y-9750000D02*
X16750000Y-8925000D01*
X19639976Y-4320950D02*
X22651549Y-4320950D01*
X9667050Y-8350950D02*
X9667050Y-8984036D01*
X9748000Y-7695000D02*
X9748000Y-8270000D01*
%TO.N,/USB4_D-*%
X26469050Y-11170024D02*
X27265024Y-10374050D01*
X25170024Y-13469050D02*
X26469050Y-12170024D01*
X22730950Y-13469050D02*
X25170024Y-13469050D01*
X21369050Y-13469050D02*
X22050000Y-14150000D01*
X8830950Y-12870024D02*
X9429976Y-13469050D01*
X9429976Y-13469050D02*
X21369050Y-13469050D01*
X8400000Y-11650000D02*
X8400000Y-11800000D01*
X8830950Y-12230950D02*
X8830950Y-12870024D01*
X27999999Y-10522500D02*
X28900000Y-10522500D01*
X22050000Y-14150000D02*
X22050000Y-14475000D01*
X8400000Y-11800000D02*
X8830950Y-12230950D01*
X26469050Y-12170024D02*
X26469050Y-11170024D01*
X22050000Y-14150000D02*
X22730950Y-13469050D01*
X27851549Y-10374050D02*
X27999999Y-10522500D01*
X27265024Y-10374050D02*
X27851549Y-10374050D01*
%TO.N,/USB4_D+*%
X22050000Y-12125000D02*
X22050000Y-12450000D01*
X9169050Y-12230950D02*
X9169050Y-12729976D01*
X9600000Y-11650000D02*
X9600000Y-11800000D01*
X22050000Y-12450000D02*
X22730950Y-13130950D01*
X26130950Y-12029976D02*
X26130950Y-11029976D01*
X27999999Y-9887500D02*
X28900000Y-9887500D01*
X9570024Y-13130950D02*
X21369050Y-13130950D01*
X27851549Y-10035950D02*
X27999999Y-9887500D01*
X21369050Y-13130950D02*
X22050000Y-12450000D01*
X27124976Y-10035950D02*
X27851549Y-10035950D01*
X26130950Y-11029976D02*
X27124976Y-10035950D01*
X25029976Y-13130950D02*
X26130950Y-12029976D01*
X22730950Y-13130950D02*
X25029976Y-13130950D01*
X9169050Y-12729976D02*
X9570024Y-13130950D01*
X9600000Y-11800000D02*
X9169050Y-12230950D01*
%TO.N,/USB3_D-*%
X39979976Y-15119050D02*
X33964976Y-9104050D01*
X90961050Y-11681450D02*
X90961050Y-13238950D01*
X87744050Y-13569050D02*
X73020024Y-13569050D01*
X91793000Y-10149500D02*
X91793000Y-10849500D01*
X71470024Y-15119050D02*
X39979976Y-15119050D01*
X91793000Y-10849500D02*
X90961050Y-11681450D01*
X88525000Y-14350000D02*
X87744050Y-13569050D01*
X33964976Y-9104050D02*
X29948451Y-9104050D01*
X89617000Y-14350000D02*
X88525000Y-14350000D01*
X29948451Y-9104050D02*
X29800001Y-9252500D01*
X89850000Y-14350000D02*
X89617000Y-14350000D01*
X29800001Y-9252500D02*
X28900000Y-9252500D01*
X90961050Y-13238950D02*
X89850000Y-14350000D01*
X73020024Y-13569050D02*
X71470024Y-15119050D01*
%TO.N,/USB3_D+*%
X72879976Y-13230950D02*
X71329976Y-14780950D01*
X29800001Y-8617500D02*
X28900000Y-8617500D01*
X71329976Y-14780950D02*
X40120024Y-14780950D01*
X87744050Y-13230950D02*
X72879976Y-13230950D01*
X89791000Y-10149500D02*
X89791000Y-10849500D01*
X29948451Y-8765950D02*
X29800001Y-8617500D01*
X89791000Y-10849500D02*
X90622950Y-11681450D01*
X90622950Y-12277050D02*
X90450000Y-12450000D01*
X90450000Y-12450000D02*
X89617000Y-12450000D01*
X90622950Y-11681450D02*
X90622950Y-12277050D01*
X88525000Y-12450000D02*
X87744050Y-13230950D01*
X34105024Y-8765950D02*
X29948451Y-8765950D01*
X40120024Y-14780950D02*
X34105024Y-8765950D01*
X89617000Y-12450000D02*
X88525000Y-12450000D01*
D39*
%TO.N,Net-(C4-Pad1)*%
X23700000Y-7982500D02*
X22967500Y-7982500D01*
X22780000Y-8170000D02*
X22250000Y-8170000D01*
X22967500Y-7982500D02*
X22780000Y-8170000D01*
D37*
X21200000Y-8170000D02*
X22250000Y-8170000D01*
D39*
%TO.N,Net-(C6-Pad1)*%
X29592500Y-4807500D02*
X29917500Y-4482500D01*
X28900000Y-4807500D02*
X29592500Y-4807500D01*
X29917500Y-4482500D02*
X30350000Y-4482500D01*
D43*
%TO.N,Net-(U4-XO)*%
X30395000Y-13027500D02*
X30365000Y-12997500D01*
X29800000Y-12477500D02*
X29800000Y-12152500D01*
X29800000Y-12152500D02*
X29440000Y-11792500D01*
X29440000Y-11792500D02*
X28900000Y-11792500D01*
X34115000Y-13877500D02*
X33900000Y-13877500D01*
X30365000Y-12997500D02*
X30320000Y-12997500D01*
X33900000Y-13877500D02*
X33050000Y-13027500D01*
X33050000Y-13027500D02*
X30395000Y-13027500D01*
X30320000Y-12997500D02*
X29800000Y-12477500D01*
D38*
%TO.N,GNDPWR*%
X2600000Y-6780000D02*
X4678000Y-6780000D01*
X75963000Y-8675500D02*
X78100000Y-8675500D01*
X54862000Y-6780000D02*
X57000000Y-6780000D01*
X97193000Y-8675500D02*
X99400000Y-8675500D01*
D43*
%TO.N,Net-(U4-XI)*%
X29527448Y-11157500D02*
X28900000Y-11157500D01*
X31915000Y-12177500D02*
X30505000Y-12177500D01*
X30365000Y-11995052D02*
X29527448Y-11157500D01*
X30365000Y-12037500D02*
X30365000Y-11995052D01*
X30505000Y-12177500D02*
X30365000Y-12037500D01*
%TO.N,Net-(USB2-CC1)*%
X10800000Y-9100000D02*
X11203000Y-9100000D01*
X10248000Y-8548000D02*
X10800000Y-9100000D01*
X10248000Y-7695000D02*
X10248000Y-8548000D01*
%TO.N,Net-(USB2-CC2)*%
X7248000Y-7695000D02*
X7248000Y-8645000D01*
X7248000Y-8645000D02*
X6793000Y-9100000D01*
%TD*%
%TA.AperFunction,Conductor*%
%TO.N,VBUS*%
G36*
X44261980Y-1652383D02*
G01*
X44321480Y-1664218D01*
X44366175Y-1682730D01*
X44406272Y-1709522D01*
X44440477Y-1743727D01*
X44467267Y-1783822D01*
X44485781Y-1828517D01*
X44497617Y-1888022D01*
X44500000Y-1912210D01*
X44500000Y-4487148D01*
X44480315Y-4554187D01*
X44427511Y-4599942D01*
X44358353Y-4609886D01*
X44351811Y-4608766D01*
X44314220Y-4601289D01*
X44314219Y-4601289D01*
X44310834Y-4600787D01*
X44299391Y-4599090D01*
X44299383Y-4599089D01*
X44299375Y-4599088D01*
X44299374Y-4599088D01*
X44260275Y-4595236D01*
X44260276Y-4595236D01*
X44254654Y-4594960D01*
X44245290Y-4594500D01*
X42954714Y-4594500D01*
X42939738Y-4595235D01*
X42900628Y-4599086D01*
X42900623Y-4599086D01*
X42900620Y-4599087D01*
X42900621Y-4599087D01*
X42896188Y-4599744D01*
X42885791Y-4601286D01*
X42885790Y-4601286D01*
X42885786Y-4601287D01*
X42818919Y-4614588D01*
X42818914Y-4614589D01*
X42761607Y-4631972D01*
X42727040Y-4646290D01*
X42716921Y-4650482D01*
X42716916Y-4650484D01*
X42687950Y-4665966D01*
X42619547Y-4680206D01*
X42554303Y-4655204D01*
X42512935Y-4598897D01*
X42505500Y-4556606D01*
X42505500Y-4504714D01*
X42504764Y-4489721D01*
X42502778Y-4469570D01*
X42500910Y-4450608D01*
X42498710Y-4435776D01*
X42485411Y-4368918D01*
X42468025Y-4311603D01*
X42449511Y-4266908D01*
X42449508Y-4266901D01*
X42421282Y-4214097D01*
X42421280Y-4214092D01*
X42394502Y-4174016D01*
X42394489Y-4173998D01*
X42356493Y-4127700D01*
X42322298Y-4093505D01*
X42316462Y-4088716D01*
X42275999Y-4055508D01*
X42246465Y-4035774D01*
X42235907Y-4028719D01*
X42235889Y-4028708D01*
X42183085Y-4000485D01*
X42183075Y-4000480D01*
X42138382Y-3981969D01*
X42081083Y-3964588D01*
X42014220Y-3951289D01*
X42014219Y-3951289D01*
X42010834Y-3950787D01*
X41999391Y-3949090D01*
X41999383Y-3949089D01*
X41999375Y-3949088D01*
X41999374Y-3949088D01*
X41960275Y-3945236D01*
X41960276Y-3945236D01*
X41954654Y-3944960D01*
X41945290Y-3944500D01*
X41945285Y-3944500D01*
X40229500Y-3944500D01*
X40162461Y-3924815D01*
X40116706Y-3872011D01*
X40105500Y-3820500D01*
X40105500Y-3554714D01*
X40104764Y-3539725D01*
X40100912Y-3500626D01*
X40100912Y-3500625D01*
X40100911Y-3500618D01*
X40100910Y-3500608D01*
X40098710Y-3485773D01*
X40098709Y-3485771D01*
X40098708Y-3485760D01*
X40088018Y-3432019D01*
X40083559Y-3414865D01*
X40072009Y-3379103D01*
X40068852Y-3369840D01*
X40012175Y-3272931D01*
X40012173Y-3272928D01*
X39966417Y-3220123D01*
X39966407Y-3220112D01*
X39921691Y-3177951D01*
X39921688Y-3177949D01*
X39921686Y-3177947D01*
X39821610Y-3127061D01*
X39821609Y-3127060D01*
X39821608Y-3127060D01*
X39754577Y-3107377D01*
X39754571Y-3107376D01*
X39668499Y-3095000D01*
X39668496Y-3095000D01*
X38596433Y-3095000D01*
X38555469Y-3088038D01*
X38549112Y-3085813D01*
X38516446Y-3068548D01*
X38511351Y-3064788D01*
X38485213Y-3038651D01*
X38481454Y-3033558D01*
X38464183Y-3000881D01*
X38440709Y-2933797D01*
X38440708Y-2933797D01*
X38431643Y-2907890D01*
X38430916Y-2907234D01*
X38420423Y-2885740D01*
X38419136Y-2882296D01*
X38385674Y-2821079D01*
X38333629Y-2751587D01*
X38333628Y-2751586D01*
X38333624Y-2751581D01*
X38192583Y-2610541D01*
X38192578Y-2610536D01*
X38187948Y-2606339D01*
X38181459Y-2600457D01*
X38181460Y-2600459D01*
X38151080Y-2575526D01*
X38145057Y-2571059D01*
X38139033Y-2566591D01*
X38127953Y-2559188D01*
X38127952Y-2559187D01*
X38127954Y-2559188D01*
X38099319Y-2543531D01*
X38080489Y-2533234D01*
X38040405Y-2515730D01*
X38040403Y-2515729D01*
X38040398Y-2515727D01*
X38032473Y-2512698D01*
X38013787Y-2505555D01*
X38013783Y-2505554D01*
X37902513Y-2490595D01*
X37873742Y-2492069D01*
X37864237Y-2489798D01*
X37824293Y-2493545D01*
X37811666Y-2494729D01*
X37805878Y-2495000D01*
X37428130Y-2495000D01*
X37387169Y-2488039D01*
X37382203Y-2486301D01*
X37325429Y-2445576D01*
X37323396Y-2442898D01*
X37320395Y-2438832D01*
X37303112Y-2406125D01*
X37301949Y-2402799D01*
X37295000Y-2361870D01*
X37295000Y-2078124D01*
X37301957Y-2037174D01*
X37308662Y-2018011D01*
X37316137Y-2000908D01*
X37332594Y-1969864D01*
X37341231Y-1952223D01*
X37367737Y-1843126D01*
X37367737Y-1843118D01*
X37367738Y-1843117D01*
X37371644Y-1770236D01*
X37372465Y-1770280D01*
X37391370Y-1706634D01*
X37444317Y-1661045D01*
X37495475Y-1650000D01*
X44237789Y-1650000D01*
X44261980Y-1652383D01*
G37*
%TD.AperFunction*%
%TD*%
%TA.AperFunction,Conductor*%
%TO.N,GND*%
G36*
X4060135Y-7919685D02*
G01*
X4083119Y-7938725D01*
X4124149Y-7982040D01*
X4152674Y-8001380D01*
X4277270Y-8085858D01*
X4277273Y-8085859D01*
X4277276Y-8085861D01*
X4449122Y-8154330D01*
X4449125Y-8154331D01*
X4631683Y-8184260D01*
X4816407Y-8174245D01*
X4816411Y-8174244D01*
X4994656Y-8124755D01*
X5000907Y-8122265D01*
X5001802Y-8124511D01*
X5059362Y-8112727D01*
X5124522Y-8137944D01*
X5165705Y-8194386D01*
X5173001Y-8236293D01*
X5173001Y-8394165D01*
X5183195Y-8464141D01*
X5235964Y-8572082D01*
X5240724Y-8578749D01*
X5263657Y-8644747D01*
X5251297Y-8700377D01*
X5252135Y-8700671D01*
X5249662Y-8707737D01*
X5249442Y-8708729D01*
X5249066Y-8709438D01*
X5205757Y-8833207D01*
X5205755Y-8833219D01*
X5203000Y-8862601D01*
X5203000Y-9337398D01*
X5205755Y-9366780D01*
X5205757Y-9366792D01*
X5249065Y-9490557D01*
X5249066Y-9490559D01*
X5326934Y-9596065D01*
X5432440Y-9673933D01*
X5432442Y-9673934D01*
X5556207Y-9717242D01*
X5556219Y-9717244D01*
X5585602Y-9720000D01*
X5960398Y-9720000D01*
X5989780Y-9717244D01*
X5989792Y-9717242D01*
X6113557Y-9673934D01*
X6113560Y-9673933D01*
X6208943Y-9603535D01*
X6274571Y-9579563D01*
X6342742Y-9594878D01*
X6356212Y-9603534D01*
X6452206Y-9674381D01*
X6488606Y-9687118D01*
X6576119Y-9717741D01*
X6583796Y-9718460D01*
X6605543Y-9720500D01*
X6980456Y-9720499D01*
X7009879Y-9717741D01*
X7133794Y-9674381D01*
X7239423Y-9596423D01*
X7317381Y-9490794D01*
X7353137Y-9388610D01*
X7360741Y-9366881D01*
X7360741Y-9366879D01*
X7360926Y-9364908D01*
X7363500Y-9337457D01*
X7363499Y-9147254D01*
X7383183Y-9080215D01*
X7399813Y-9059578D01*
X7553483Y-8905909D01*
X7553483Y-8905908D01*
X7576050Y-8883342D01*
X7586106Y-8863603D01*
X7596270Y-8847016D01*
X7609296Y-8829090D01*
X7616142Y-8808016D01*
X7623606Y-8790005D01*
X7624549Y-8788155D01*
X7672545Y-8737381D01*
X7735009Y-8720499D01*
X7872220Y-8720499D01*
X7919820Y-8713563D01*
X7942286Y-8710291D01*
X7942287Y-8710290D01*
X7948831Y-8709337D01*
X8018008Y-8719150D01*
X8054390Y-8744360D01*
X8274431Y-8964402D01*
X8274452Y-8964421D01*
X8295177Y-8985146D01*
X8315308Y-8995402D01*
X8331892Y-9005564D01*
X8350181Y-9018853D01*
X8371678Y-9025837D01*
X8389646Y-9033280D01*
X8409782Y-9043540D01*
X8432099Y-9047074D01*
X8451013Y-9051614D01*
X8472510Y-9058600D01*
X8504868Y-9058600D01*
X8798900Y-9058600D01*
X8865939Y-9078285D01*
X8911694Y-9131089D01*
X8922900Y-9182600D01*
X8922900Y-9188397D01*
X8929884Y-9209890D01*
X8934425Y-9228805D01*
X8937215Y-9246423D01*
X8937960Y-9251125D01*
X8948219Y-9271260D01*
X8955662Y-9289231D01*
X8962644Y-9310720D01*
X8962646Y-9310724D01*
X8975930Y-9329007D01*
X8986096Y-9345597D01*
X8996353Y-9365727D01*
X8996355Y-9365730D01*
X9017671Y-9387046D01*
X9017697Y-9387074D01*
X10122101Y-10491476D01*
X10155586Y-10552799D01*
X10150602Y-10622490D01*
X10108731Y-10678424D01*
X10043266Y-10702841D01*
X10022847Y-10702616D01*
X9999901Y-10700464D01*
X9989610Y-10699500D01*
X9210390Y-10699500D01*
X9210386Y-10699500D01*
X9178838Y-10702458D01*
X9178826Y-10702460D01*
X9040955Y-10750705D01*
X8971176Y-10754268D01*
X8959045Y-10750705D01*
X8821173Y-10702460D01*
X8821161Y-10702458D01*
X8789614Y-10699500D01*
X8789610Y-10699500D01*
X8010390Y-10699500D01*
X8010386Y-10699500D01*
X7978838Y-10702458D01*
X7978826Y-10702460D01*
X7840955Y-10750705D01*
X7771176Y-10754268D01*
X7759045Y-10750705D01*
X7621173Y-10702460D01*
X7621161Y-10702458D01*
X7589614Y-10699500D01*
X7589610Y-10699500D01*
X6810390Y-10699500D01*
X6810386Y-10699500D01*
X6778838Y-10702458D01*
X6778827Y-10702460D01*
X6733210Y-10718422D01*
X6663431Y-10721983D01*
X6610030Y-10694196D01*
X6572240Y-10660717D01*
X6572238Y-10660716D01*
X6572237Y-10660715D01*
X6432365Y-10587303D01*
X6278986Y-10549500D01*
X6278985Y-10549500D01*
X6121015Y-10549500D01*
X6121014Y-10549500D01*
X5967634Y-10587303D01*
X5827762Y-10660715D01*
X5709516Y-10765471D01*
X5619781Y-10895475D01*
X5619780Y-10895476D01*
X5563762Y-11043181D01*
X5544722Y-11199999D01*
X5544722Y-11200000D01*
X5563762Y-11356818D01*
X5612760Y-11486012D01*
X5619780Y-11504523D01*
X5653896Y-11553949D01*
X5671574Y-11579560D01*
X5693457Y-11645915D01*
X5675991Y-11713566D01*
X5671574Y-11720440D01*
X5619781Y-11795475D01*
X5619780Y-11795476D01*
X5563762Y-11943181D01*
X5544722Y-12099999D01*
X5544722Y-12100000D01*
X5563762Y-12256818D01*
X5608862Y-12375735D01*
X5619780Y-12404523D01*
X5709517Y-12534530D01*
X5827760Y-12639283D01*
X5827762Y-12639284D01*
X5967634Y-12712696D01*
X6121014Y-12750500D01*
X6121015Y-12750500D01*
X6278985Y-12750500D01*
X6432365Y-12712696D01*
X6572233Y-12639287D01*
X6572234Y-12639285D01*
X6572240Y-12639283D01*
X6610032Y-12605801D01*
X6673263Y-12576082D01*
X6733212Y-12581576D01*
X6778834Y-12597541D01*
X6778837Y-12597541D01*
X6778840Y-12597542D01*
X6810386Y-12600500D01*
X6810390Y-12600500D01*
X7589614Y-12600500D01*
X7603634Y-12599184D01*
X7621166Y-12597541D01*
X7754091Y-12551028D01*
X7754094Y-12551025D01*
X7759043Y-12549294D01*
X7828822Y-12545731D01*
X7840955Y-12549294D01*
X7845907Y-12551027D01*
X7845909Y-12551028D01*
X7978834Y-12597541D01*
X7994612Y-12599020D01*
X8010386Y-12600500D01*
X8010390Y-12600500D01*
X8300900Y-12600500D01*
X8367939Y-12620185D01*
X8413694Y-12672989D01*
X8424900Y-12724500D01*
X8424900Y-12934337D01*
X8431884Y-12955830D01*
X8436425Y-12974745D01*
X8437244Y-12979915D01*
X8439960Y-12997065D01*
X8450219Y-13017200D01*
X8457662Y-13035171D01*
X8464644Y-13056660D01*
X8464646Y-13056664D01*
X8477930Y-13074947D01*
X8488096Y-13091537D01*
X8498353Y-13111667D01*
X8498355Y-13111670D01*
X8519671Y-13132986D01*
X8519698Y-13133015D01*
X9167584Y-13780901D01*
X9167606Y-13780921D01*
X9188331Y-13801646D01*
X9208462Y-13811902D01*
X9225046Y-13822064D01*
X9243335Y-13835353D01*
X9264832Y-13842337D01*
X9282800Y-13849780D01*
X9302936Y-13860040D01*
X9325253Y-13863574D01*
X9344167Y-13868114D01*
X9365664Y-13875100D01*
X9398022Y-13875100D01*
X10464265Y-13875100D01*
X10531304Y-13894785D01*
X10577059Y-13947589D01*
X10587003Y-14016747D01*
X10574749Y-14055396D01*
X10564834Y-14074853D01*
X10564833Y-14074855D01*
X10550000Y-14168514D01*
X10550001Y-15875500D01*
X10530316Y-15942539D01*
X10477513Y-15988294D01*
X10426001Y-15999500D01*
X7574000Y-15999500D01*
X7506961Y-15979815D01*
X7461206Y-15927011D01*
X7450000Y-15875500D01*
X7449999Y-14168520D01*
X7435164Y-14074850D01*
X7435162Y-14074844D01*
X7377643Y-13961958D01*
X7377636Y-13961949D01*
X7288050Y-13872363D01*
X7288046Y-13872360D01*
X7175144Y-13814833D01*
X7081486Y-13800000D01*
X6843391Y-13800000D01*
X6835289Y-13799469D01*
X6800001Y-13794823D01*
X6799999Y-13794823D01*
X6764709Y-13799469D01*
X6756608Y-13800000D01*
X6043393Y-13800000D01*
X6035292Y-13799469D01*
X6000001Y-13794823D01*
X5964698Y-13799469D01*
X5956599Y-13800000D01*
X5768520Y-13800000D01*
X5674849Y-13814835D01*
X5674844Y-13814837D01*
X5561958Y-13872356D01*
X5561949Y-13872363D01*
X5472363Y-13961949D01*
X5472360Y-13961953D01*
X5414833Y-14074855D01*
X5400000Y-14168513D01*
X5400000Y-14356609D01*
X5399469Y-14364711D01*
X5394823Y-14399999D01*
X5399469Y-14435288D01*
X5400000Y-14443390D01*
X5400000Y-14754609D01*
X5380315Y-14821648D01*
X5327511Y-14867403D01*
X5258353Y-14877347D01*
X5203114Y-14854927D01*
X5158001Y-14822150D01*
X5151725Y-14817590D01*
X4979181Y-14740769D01*
X4979179Y-14740768D01*
X4794436Y-14701500D01*
X4605564Y-14701500D01*
X4420810Y-14740770D01*
X4417798Y-14741749D01*
X4415961Y-14741801D01*
X4414462Y-14742120D01*
X4414403Y-14741845D01*
X4347957Y-14743735D01*
X4288129Y-14707646D01*
X4257309Y-14644941D01*
X4255762Y-14615706D01*
X4263346Y-14500000D01*
X4243983Y-14204574D01*
X4186224Y-13914203D01*
X4183640Y-13906590D01*
X4091062Y-13633862D01*
X4091058Y-13633852D01*
X3960120Y-13368336D01*
X3960111Y-13368321D01*
X3942747Y-13342334D01*
X3795633Y-13122162D01*
X3750553Y-13070758D01*
X3600427Y-12899572D01*
X3377839Y-12704368D01*
X3367370Y-12697373D01*
X3217963Y-12597542D01*
X3131678Y-12539888D01*
X3131663Y-12539879D01*
X2866147Y-12408941D01*
X2866137Y-12408937D01*
X2585809Y-12313779D01*
X2585789Y-12313774D01*
X2295436Y-12256018D01*
X2295427Y-12256017D01*
X2295426Y-12256017D01*
X2000000Y-12236654D01*
X1704574Y-12256017D01*
X1704573Y-12256017D01*
X1704563Y-12256018D01*
X1414210Y-12313774D01*
X1414190Y-12313779D01*
X1133862Y-12408937D01*
X1133852Y-12408941D01*
X868336Y-12539879D01*
X868321Y-12539888D01*
X693391Y-12656773D01*
X626713Y-12677651D01*
X559333Y-12659166D01*
X512643Y-12607187D01*
X500500Y-12553671D01*
X500500Y-9164355D01*
X1700000Y-9164355D01*
X1710010Y-9247724D01*
X1762325Y-9380386D01*
X1848489Y-9494010D01*
X1962113Y-9580174D01*
X2094775Y-9632489D01*
X2178144Y-9642500D01*
X3021856Y-9642500D01*
X3105224Y-9632489D01*
X3237886Y-9580174D01*
X3351510Y-9494010D01*
X3437674Y-9380386D01*
X3489989Y-9247724D01*
X3500000Y-9164355D01*
X3500000Y-8645644D01*
X3489989Y-8562275D01*
X3437674Y-8429613D01*
X3351510Y-8315989D01*
X3237886Y-8229825D01*
X3105224Y-8177510D01*
X3021856Y-8167500D01*
X2178144Y-8167500D01*
X2094775Y-8177510D01*
X1962113Y-8229825D01*
X1848489Y-8315989D01*
X1762325Y-8429613D01*
X1710010Y-8562275D01*
X1700000Y-8645644D01*
X1700000Y-9164355D01*
X500500Y-9164355D01*
X500500Y-8024000D01*
X520185Y-7956961D01*
X572989Y-7911206D01*
X624500Y-7900000D01*
X3993096Y-7900000D01*
X4060135Y-7919685D01*
G37*
%TD.AperFunction*%
%TA.AperFunction,Conductor*%
G36*
X33812461Y-9529785D02*
G01*
X33833103Y-9546419D01*
X39717584Y-15430901D01*
X39717606Y-15430921D01*
X39738331Y-15451646D01*
X39758462Y-15461902D01*
X39775046Y-15472064D01*
X39793335Y-15485353D01*
X39814832Y-15492337D01*
X39832800Y-15499780D01*
X39852936Y-15510040D01*
X39875253Y-15513574D01*
X39894167Y-15518114D01*
X39915664Y-15525100D01*
X39915665Y-15525100D01*
X71534333Y-15525100D01*
X71534336Y-15525100D01*
X71555838Y-15518112D01*
X71574744Y-15513574D01*
X71597064Y-15510040D01*
X71617202Y-15499778D01*
X71635165Y-15492338D01*
X71656665Y-15485353D01*
X71674952Y-15472065D01*
X71691536Y-15461903D01*
X71711669Y-15451646D01*
X71727475Y-15435839D01*
X71727482Y-15435834D01*
X73151897Y-14011419D01*
X73213220Y-13977934D01*
X73239578Y-13975100D01*
X87524496Y-13975100D01*
X87591535Y-13994785D01*
X87612177Y-14011419D01*
X88262369Y-14661612D01*
X88262389Y-14661630D01*
X88283355Y-14682596D01*
X88303495Y-14692857D01*
X88320074Y-14703017D01*
X88338359Y-14716302D01*
X88359851Y-14723285D01*
X88377827Y-14730732D01*
X88397957Y-14740989D01*
X88397958Y-14740989D01*
X88397960Y-14740990D01*
X88420278Y-14744524D01*
X88439191Y-14749065D01*
X88460688Y-14756050D01*
X88493046Y-14756050D01*
X88708468Y-14756050D01*
X88775507Y-14775735D01*
X88808237Y-14806415D01*
X88819850Y-14822150D01*
X88929118Y-14902793D01*
X88971845Y-14917744D01*
X89057299Y-14947646D01*
X89087730Y-14950500D01*
X89087734Y-14950500D01*
X90146270Y-14950500D01*
X90176699Y-14947646D01*
X90176701Y-14947646D01*
X90240790Y-14925219D01*
X90304882Y-14902793D01*
X90414150Y-14822150D01*
X90494793Y-14712882D01*
X90517219Y-14648790D01*
X90539646Y-14584701D01*
X90539646Y-14584699D01*
X90542500Y-14554269D01*
X90542500Y-14283103D01*
X90562185Y-14216064D01*
X90578815Y-14195426D01*
X90867651Y-13906589D01*
X90928974Y-13873105D01*
X90998666Y-13878089D01*
X91054599Y-13919961D01*
X91079016Y-13985425D01*
X91072373Y-14035226D01*
X91044353Y-14115298D01*
X91044353Y-14115300D01*
X91041500Y-14145730D01*
X91041500Y-14554269D01*
X91044353Y-14584699D01*
X91044353Y-14584701D01*
X91089206Y-14712880D01*
X91089207Y-14712882D01*
X91169850Y-14822150D01*
X91279118Y-14902793D01*
X91321845Y-14917744D01*
X91407299Y-14947646D01*
X91437730Y-14950500D01*
X91437734Y-14950500D01*
X92496270Y-14950500D01*
X92526699Y-14947646D01*
X92526701Y-14947646D01*
X92590790Y-14925219D01*
X92654882Y-14902793D01*
X92702367Y-14867747D01*
X92767995Y-14843777D01*
X92836166Y-14859092D01*
X92885234Y-14908833D01*
X92900000Y-14967518D01*
X92900000Y-15875500D01*
X92880315Y-15942539D01*
X92827511Y-15988294D01*
X92776000Y-15999500D01*
X12724000Y-15999500D01*
X12656961Y-15979815D01*
X12611206Y-15927011D01*
X12600000Y-15875500D01*
X12599999Y-14168520D01*
X12585164Y-14074850D01*
X12585163Y-14074847D01*
X12575252Y-14055396D01*
X12562355Y-13986727D01*
X12588631Y-13921986D01*
X12645737Y-13881729D01*
X12685736Y-13875100D01*
X19425500Y-13875100D01*
X19492539Y-13894785D01*
X19538294Y-13947589D01*
X19549500Y-13999100D01*
X19549500Y-15004269D01*
X19552353Y-15034699D01*
X19552353Y-15034701D01*
X19597206Y-15162880D01*
X19597207Y-15162882D01*
X19677850Y-15272150D01*
X19787118Y-15352793D01*
X19829845Y-15367744D01*
X19915299Y-15397646D01*
X19945730Y-15400500D01*
X19945734Y-15400500D01*
X20354270Y-15400500D01*
X20384699Y-15397646D01*
X20384701Y-15397646D01*
X20448790Y-15375219D01*
X20512882Y-15352793D01*
X20551789Y-15324078D01*
X20617415Y-15300108D01*
X20685586Y-15315423D01*
X20699056Y-15324080D01*
X20737354Y-15352346D01*
X20865397Y-15397149D01*
X20895792Y-15399999D01*
X21304195Y-15399999D01*
X21334606Y-15397148D01*
X21462643Y-15352346D01*
X21500942Y-15324080D01*
X21566571Y-15300108D01*
X21634741Y-15315422D01*
X21648211Y-15324079D01*
X21687113Y-15352790D01*
X21687115Y-15352791D01*
X21687118Y-15352793D01*
X21729845Y-15367744D01*
X21815299Y-15397646D01*
X21845730Y-15400500D01*
X21845734Y-15400500D01*
X22254270Y-15400500D01*
X22284699Y-15397646D01*
X22284701Y-15397646D01*
X22348790Y-15375219D01*
X22412882Y-15352793D01*
X22522150Y-15272150D01*
X22602793Y-15162882D01*
X22635656Y-15068966D01*
X22647646Y-15034701D01*
X22647646Y-15034699D01*
X22650500Y-15004269D01*
X22650500Y-14175103D01*
X22670185Y-14108064D01*
X22686819Y-14087422D01*
X22862823Y-13911419D01*
X22924146Y-13877934D01*
X22950504Y-13875100D01*
X25234333Y-13875100D01*
X25234336Y-13875100D01*
X25255838Y-13868112D01*
X25274744Y-13863574D01*
X25297064Y-13860040D01*
X25317202Y-13849778D01*
X25335165Y-13842338D01*
X25356665Y-13835353D01*
X25374952Y-13822065D01*
X25391536Y-13811903D01*
X25411669Y-13801646D01*
X25427475Y-13785839D01*
X25427482Y-13785834D01*
X26797998Y-12415317D01*
X26805787Y-12407528D01*
X26809749Y-12395765D01*
X26811910Y-12391523D01*
X26822066Y-12374950D01*
X26835352Y-12356665D01*
X26842336Y-12335169D01*
X26849782Y-12317195D01*
X26850237Y-12316302D01*
X26860040Y-12297064D01*
X26863575Y-12274738D01*
X26868116Y-12255828D01*
X26875100Y-12234336D01*
X26875100Y-12105712D01*
X26875100Y-12105711D01*
X26875100Y-11389577D01*
X26894785Y-11322538D01*
X26911419Y-11301896D01*
X27396896Y-10816419D01*
X27458219Y-10782934D01*
X27484577Y-10780100D01*
X27631994Y-10780100D01*
X27699033Y-10799785D01*
X27719675Y-10816419D01*
X27737607Y-10834351D01*
X27737629Y-10834371D01*
X27758354Y-10855096D01*
X27778485Y-10865352D01*
X27795069Y-10875514D01*
X27813358Y-10888803D01*
X27834855Y-10895787D01*
X27852823Y-10903230D01*
X27872959Y-10913490D01*
X27894895Y-10916963D01*
X27958030Y-10946891D01*
X27994963Y-11006201D01*
X27999500Y-11039437D01*
X27999500Y-11402356D01*
X27999502Y-11402382D01*
X28002413Y-11427487D01*
X28004863Y-11436489D01*
X28002864Y-11437032D01*
X28010347Y-11494198D01*
X28004691Y-11513462D01*
X28004864Y-11513509D01*
X28002415Y-11522509D01*
X27999500Y-11547631D01*
X27999500Y-12037356D01*
X27999502Y-12037382D01*
X28002413Y-12062487D01*
X28004863Y-12071489D01*
X28003050Y-12071982D01*
X28010619Y-12129821D01*
X28005117Y-12148561D01*
X28005358Y-12148627D01*
X28002910Y-12157622D01*
X28000000Y-12182705D01*
X28000000Y-12672285D01*
X28000002Y-12672308D01*
X28002908Y-12697369D01*
X28002909Y-12697373D01*
X28048211Y-12799974D01*
X28048214Y-12799979D01*
X28127520Y-12879285D01*
X28127525Y-12879288D01*
X28230123Y-12924589D01*
X28255206Y-12927499D01*
X29544785Y-12927499D01*
X29544808Y-12927497D01*
X29569872Y-12924590D01*
X29578873Y-12922142D01*
X29579274Y-12923616D01*
X29638320Y-12915882D01*
X29701506Y-12945702D01*
X29706815Y-12950708D01*
X29718181Y-12962074D01*
X29751666Y-13023397D01*
X29754500Y-13049755D01*
X29754500Y-13190570D01*
X29757289Y-13220314D01*
X29757291Y-13220326D01*
X29801041Y-13345352D01*
X29801148Y-13345657D01*
X29832164Y-13387682D01*
X29844419Y-13404287D01*
X29868390Y-13469916D01*
X29853074Y-13538087D01*
X29844419Y-13551555D01*
X29801594Y-13609580D01*
X29757788Y-13734767D01*
X29757786Y-13734779D01*
X29755000Y-13764492D01*
X29755000Y-14150500D01*
X29757786Y-14180220D01*
X29801596Y-14305422D01*
X29880358Y-14412141D01*
X29987080Y-14490905D01*
X30112267Y-14534711D01*
X30112279Y-14534713D01*
X30141992Y-14537499D01*
X30588000Y-14537499D01*
X30617720Y-14534713D01*
X30742920Y-14490904D01*
X30746941Y-14488779D01*
X30815409Y-14474851D01*
X30880537Y-14500150D01*
X30918327Y-14548319D01*
X30963211Y-14649974D01*
X30963214Y-14649979D01*
X31042520Y-14729285D01*
X31042525Y-14729288D01*
X31145123Y-14774589D01*
X31170206Y-14777499D01*
X32659785Y-14777499D01*
X32659808Y-14777497D01*
X32684869Y-14774591D01*
X32684873Y-14774590D01*
X32787474Y-14729288D01*
X32787479Y-14729285D01*
X32866785Y-14649979D01*
X32866788Y-14649974D01*
X32901292Y-14571830D01*
X32946377Y-14518453D01*
X33013163Y-14497925D01*
X33080446Y-14516762D01*
X33126863Y-14568985D01*
X33128161Y-14571829D01*
X33162793Y-14650264D01*
X33162794Y-14650264D01*
X33162794Y-14650265D01*
X33242235Y-14729706D01*
X33345009Y-14775085D01*
X33370135Y-14778000D01*
X34859864Y-14777999D01*
X34859879Y-14777997D01*
X34859882Y-14777997D01*
X34884987Y-14775086D01*
X34884988Y-14775085D01*
X34884991Y-14775085D01*
X34987765Y-14729706D01*
X35067206Y-14650265D01*
X35112585Y-14547491D01*
X35115500Y-14522365D01*
X35115499Y-13232636D01*
X35115298Y-13230901D01*
X35112586Y-13207512D01*
X35112585Y-13207510D01*
X35112585Y-13207509D01*
X35067206Y-13104735D01*
X35067203Y-13104732D01*
X35061993Y-13097125D01*
X35040348Y-13030692D01*
X35058054Y-12963104D01*
X35061998Y-12956967D01*
X35066789Y-12949972D01*
X35112089Y-12847377D01*
X35112089Y-12847375D01*
X35114999Y-12822294D01*
X35114999Y-11532714D01*
X35114997Y-11532691D01*
X35112091Y-11507630D01*
X35112090Y-11507626D01*
X35066788Y-11405025D01*
X35066785Y-11405020D01*
X34987479Y-11325714D01*
X34987474Y-11325711D01*
X34884876Y-11280410D01*
X34859793Y-11277500D01*
X33370214Y-11277500D01*
X33370191Y-11277502D01*
X33345130Y-11280408D01*
X33345126Y-11280409D01*
X33242525Y-11325711D01*
X33242520Y-11325714D01*
X33163214Y-11405020D01*
X33163209Y-11405028D01*
X33128706Y-11483170D01*
X33083620Y-11536547D01*
X33016834Y-11557074D01*
X32949552Y-11538236D01*
X32903136Y-11486012D01*
X32901875Y-11483254D01*
X32867206Y-11404735D01*
X32787765Y-11325294D01*
X32740723Y-11304523D01*
X32684992Y-11279915D01*
X32659865Y-11277000D01*
X31170143Y-11277000D01*
X31170117Y-11277002D01*
X31145012Y-11279913D01*
X31136011Y-11282363D01*
X31135345Y-11279916D01*
X31079785Y-11287182D01*
X31016605Y-11257348D01*
X30979585Y-11198092D01*
X30974999Y-11164680D01*
X30974999Y-10884499D01*
X30972213Y-10854779D01*
X30928403Y-10729577D01*
X30849641Y-10622858D01*
X30742919Y-10544094D01*
X30617732Y-10500288D01*
X30617720Y-10500286D01*
X30588007Y-10497500D01*
X30141999Y-10497500D01*
X30112279Y-10500286D01*
X29987073Y-10544097D01*
X29982437Y-10546548D01*
X29913968Y-10560468D01*
X29848842Y-10535161D01*
X29807737Y-10478662D01*
X29800499Y-10436916D01*
X29800499Y-10277643D01*
X29800499Y-10277636D01*
X29797585Y-10252509D01*
X29797584Y-10252506D01*
X29795136Y-10243508D01*
X29797136Y-10242963D01*
X29789651Y-10185810D01*
X29795310Y-10166535D01*
X29795137Y-10166488D01*
X29797584Y-10157493D01*
X29797583Y-10157493D01*
X29797585Y-10157491D01*
X29800500Y-10132365D01*
X29800499Y-9769436D01*
X29820183Y-9702398D01*
X29872987Y-9656643D01*
X29905102Y-9646963D01*
X29927041Y-9643490D01*
X29947179Y-9633228D01*
X29965142Y-9625788D01*
X29986642Y-9618803D01*
X30004929Y-9605515D01*
X30021513Y-9595353D01*
X30041646Y-9585096D01*
X30057452Y-9569289D01*
X30057459Y-9569284D01*
X30080324Y-9546419D01*
X30141647Y-9512934D01*
X30168005Y-9510100D01*
X33745422Y-9510100D01*
X33812461Y-9529785D01*
G37*
%TD.AperFunction*%
%TA.AperFunction,Conductor*%
G36*
X37342461Y-8259785D02*
G01*
X37363103Y-8276419D01*
X42317584Y-13230901D01*
X42317606Y-13230921D01*
X42338331Y-13251646D01*
X42358462Y-13261902D01*
X42375046Y-13272064D01*
X42393335Y-13285353D01*
X42414832Y-13292337D01*
X42432800Y-13299780D01*
X42452936Y-13310040D01*
X42475253Y-13313574D01*
X42494167Y-13318114D01*
X42515664Y-13325100D01*
X42515665Y-13325100D01*
X52384333Y-13325100D01*
X52384336Y-13325100D01*
X52405838Y-13318112D01*
X52424744Y-13313574D01*
X52447064Y-13310040D01*
X52467202Y-13299778D01*
X52485165Y-13292338D01*
X52506665Y-13285353D01*
X52524952Y-13272065D01*
X52541536Y-13261903D01*
X52561669Y-13251646D01*
X52577475Y-13235839D01*
X52577482Y-13235834D01*
X54201897Y-11611419D01*
X54263220Y-11577934D01*
X54289578Y-11575100D01*
X56749496Y-11575100D01*
X56816535Y-11594785D01*
X56837177Y-11611419D01*
X57487369Y-12261612D01*
X57487389Y-12261630D01*
X57508355Y-12282596D01*
X57528495Y-12292857D01*
X57545074Y-12303017D01*
X57563359Y-12316302D01*
X57584851Y-12323285D01*
X57602827Y-12330732D01*
X57622957Y-12340989D01*
X57622958Y-12340989D01*
X57622960Y-12340990D01*
X57645278Y-12344524D01*
X57664191Y-12349065D01*
X57685688Y-12356050D01*
X57718046Y-12356050D01*
X57916468Y-12356050D01*
X57983507Y-12375735D01*
X58016237Y-12406415D01*
X58027850Y-12422150D01*
X58137118Y-12502793D01*
X58178134Y-12517145D01*
X58265299Y-12547646D01*
X58295730Y-12550500D01*
X59337530Y-12550500D01*
X59404569Y-12570185D01*
X59448017Y-12618209D01*
X59450219Y-12622531D01*
X59457662Y-12640502D01*
X59464644Y-12661991D01*
X59464646Y-12661995D01*
X59477930Y-12680278D01*
X59488096Y-12696868D01*
X59498353Y-12716998D01*
X59498355Y-12717001D01*
X59519671Y-12738317D01*
X59519697Y-12738345D01*
X59992049Y-13210695D01*
X60083000Y-13301646D01*
X60103135Y-13311906D01*
X60119722Y-13322070D01*
X60123893Y-13325100D01*
X60138004Y-13335352D01*
X60159496Y-13342335D01*
X60177472Y-13349782D01*
X60197602Y-13360039D01*
X60197603Y-13360039D01*
X60197605Y-13360040D01*
X60219923Y-13363574D01*
X60238836Y-13368115D01*
X60260333Y-13375100D01*
X60260334Y-13375100D01*
X68853331Y-13375100D01*
X68853334Y-13375100D01*
X68874836Y-13368112D01*
X68893742Y-13363574D01*
X68916062Y-13360040D01*
X68936200Y-13349778D01*
X68954163Y-13342338D01*
X68975663Y-13335353D01*
X68993950Y-13322065D01*
X69010534Y-13311903D01*
X69030667Y-13301646D01*
X69046473Y-13285839D01*
X69046480Y-13285834D01*
X70047834Y-12284480D01*
X70047839Y-12284473D01*
X70063646Y-12268667D01*
X70073903Y-12248534D01*
X70084065Y-12231950D01*
X70097353Y-12213663D01*
X70104338Y-12192163D01*
X70111778Y-12174200D01*
X70122040Y-12154062D01*
X70125574Y-12131742D01*
X70130115Y-12112827D01*
X70136322Y-12093727D01*
X70138940Y-12085673D01*
X70178382Y-12028000D01*
X70242743Y-12000807D01*
X70256868Y-12000000D01*
X72737789Y-12000000D01*
X72761980Y-12002383D01*
X72821480Y-12014218D01*
X72866175Y-12032730D01*
X72906272Y-12059522D01*
X72940477Y-12093727D01*
X72967267Y-12133822D01*
X72985781Y-12178517D01*
X72986614Y-12182705D01*
X72997617Y-12238022D01*
X73000000Y-12262210D01*
X73000000Y-12700900D01*
X72980315Y-12767939D01*
X72927511Y-12813694D01*
X72876000Y-12824900D01*
X72815661Y-12824900D01*
X72794167Y-12831884D01*
X72775251Y-12836425D01*
X72752939Y-12839959D01*
X72752932Y-12839961D01*
X72732798Y-12850219D01*
X72714836Y-12857659D01*
X72693337Y-12864645D01*
X72693331Y-12864648D01*
X72675048Y-12877932D01*
X72658464Y-12888095D01*
X72638332Y-12898353D01*
X72638331Y-12898354D01*
X72615453Y-12921231D01*
X72615450Y-12921234D01*
X71902832Y-13633852D01*
X71198103Y-14338581D01*
X71136780Y-14372066D01*
X71110422Y-14374900D01*
X40339578Y-14374900D01*
X40272539Y-14355215D01*
X40251897Y-14338581D01*
X34368016Y-8454699D01*
X34367987Y-8454672D01*
X34365096Y-8451781D01*
X34331611Y-8390458D01*
X34336595Y-8320766D01*
X34378467Y-8264833D01*
X34443931Y-8240416D01*
X34452777Y-8240100D01*
X37275422Y-8240100D01*
X37342461Y-8259785D01*
G37*
%TD.AperFunction*%
%TA.AperFunction,Conductor*%
G36*
X16092539Y-10694785D02*
G01*
X16138294Y-10747589D01*
X16149500Y-10799100D01*
X16149500Y-11804269D01*
X16152353Y-11834699D01*
X16152353Y-11834701D01*
X16197147Y-11962710D01*
X16197207Y-11962882D01*
X16277850Y-12072150D01*
X16387118Y-12152793D01*
X16422761Y-12165265D01*
X16515299Y-12197646D01*
X16545730Y-12200500D01*
X16928978Y-12200500D01*
X16996017Y-12220185D01*
X17041772Y-12272989D01*
X17052074Y-12339446D01*
X17044722Y-12399999D01*
X17044722Y-12400000D01*
X17063762Y-12556817D01*
X17063804Y-12556926D01*
X17063810Y-12557012D01*
X17065558Y-12564102D01*
X17064379Y-12564392D01*
X17069173Y-12626589D01*
X17036027Y-12688096D01*
X16974889Y-12721919D01*
X16947863Y-12724900D01*
X11494492Y-12724900D01*
X11427453Y-12705215D01*
X11381698Y-12652411D01*
X11371754Y-12583253D01*
X11400779Y-12519697D01*
X11420859Y-12501130D01*
X11422390Y-12500000D01*
X12200000Y-12500000D01*
X12200000Y-10800000D01*
X11474026Y-10800000D01*
X11487745Y-10738934D01*
X11537486Y-10689866D01*
X11596171Y-10675100D01*
X16025500Y-10675100D01*
X16092539Y-10694785D01*
G37*
%TD.AperFunction*%
%TA.AperFunction,Conductor*%
G36*
X22499033Y-5084785D02*
G01*
X22519675Y-5101419D01*
X22537607Y-5119351D01*
X22537629Y-5119371D01*
X22558354Y-5140096D01*
X22578485Y-5150352D01*
X22595069Y-5160514D01*
X22613358Y-5173803D01*
X22634855Y-5180787D01*
X22652823Y-5188230D01*
X22672959Y-5198490D01*
X22694895Y-5201963D01*
X22758030Y-5231891D01*
X22794963Y-5291201D01*
X22799500Y-5324437D01*
X22799500Y-5571871D01*
X22779815Y-5638910D01*
X22727011Y-5684665D01*
X22657853Y-5694609D01*
X22634545Y-5688913D01*
X22502725Y-5642787D01*
X22502720Y-5642786D01*
X22473007Y-5640000D01*
X22026999Y-5640000D01*
X21997279Y-5642786D01*
X21872077Y-5686596D01*
X21765358Y-5765358D01*
X21686594Y-5872080D01*
X21642788Y-5997267D01*
X21642786Y-5997279D01*
X21640000Y-6026992D01*
X21640001Y-6405500D01*
X21620317Y-6472539D01*
X21567513Y-6518294D01*
X21516001Y-6529500D01*
X21351014Y-6529500D01*
X21197634Y-6567303D01*
X21057762Y-6640715D01*
X20939516Y-6745471D01*
X20849781Y-6875475D01*
X20849780Y-6875476D01*
X20793762Y-7023181D01*
X20774722Y-7179999D01*
X20774722Y-7180000D01*
X20793762Y-7336818D01*
X20810329Y-7380500D01*
X20849780Y-7484523D01*
X20849781Y-7484524D01*
X20849896Y-7484744D01*
X20849931Y-7484922D01*
X20852440Y-7491536D01*
X20851339Y-7491953D01*
X20863618Y-7553253D01*
X20838123Y-7618305D01*
X20813731Y-7642134D01*
X20784976Y-7663357D01*
X20715001Y-7715001D01*
X20636147Y-7821844D01*
X20592291Y-7947173D01*
X20592289Y-7947185D01*
X20589500Y-7976929D01*
X20589500Y-8363070D01*
X20592289Y-8392814D01*
X20592291Y-8392826D01*
X20631583Y-8505112D01*
X20636148Y-8518157D01*
X20676163Y-8572375D01*
X20679419Y-8576787D01*
X20703390Y-8642416D01*
X20688074Y-8710587D01*
X20679419Y-8724055D01*
X20636594Y-8782080D01*
X20592788Y-8907267D01*
X20592786Y-8907279D01*
X20590000Y-8936992D01*
X20590000Y-9323000D01*
X20592786Y-9352720D01*
X20636596Y-9477922D01*
X20715358Y-9584641D01*
X20822080Y-9663405D01*
X20947267Y-9707211D01*
X20947279Y-9707213D01*
X20976992Y-9709999D01*
X21423000Y-9709999D01*
X21452720Y-9707213D01*
X21577922Y-9663403D01*
X21651366Y-9609199D01*
X21716994Y-9585228D01*
X21785165Y-9600543D01*
X21798634Y-9609199D01*
X21872080Y-9663405D01*
X21997267Y-9707211D01*
X21997279Y-9707213D01*
X22026992Y-9709999D01*
X22473000Y-9709999D01*
X22502724Y-9707213D01*
X22634545Y-9661087D01*
X22704324Y-9657525D01*
X22764951Y-9692253D01*
X22797179Y-9754247D01*
X22799500Y-9778128D01*
X22799500Y-10132356D01*
X22799502Y-10132382D01*
X22802413Y-10157485D01*
X22804863Y-10166487D01*
X22802865Y-10167030D01*
X22810346Y-10224205D01*
X22804691Y-10243461D01*
X22804864Y-10243508D01*
X22802415Y-10252508D01*
X22799500Y-10277631D01*
X22799500Y-10767356D01*
X22799502Y-10767382D01*
X22802413Y-10792485D01*
X22804863Y-10801487D01*
X22802865Y-10802030D01*
X22810346Y-10859205D01*
X22804691Y-10878461D01*
X22804864Y-10878508D01*
X22802415Y-10887508D01*
X22799500Y-10912631D01*
X22799500Y-11326816D01*
X22779815Y-11393855D01*
X22727011Y-11439610D01*
X22657853Y-11449554D01*
X22594297Y-11420529D01*
X22575734Y-11400455D01*
X22522150Y-11327850D01*
X22514952Y-11322538D01*
X22412882Y-11247207D01*
X22412880Y-11247206D01*
X22284700Y-11202353D01*
X22254270Y-11199500D01*
X22254266Y-11199500D01*
X21871022Y-11199500D01*
X21803983Y-11179815D01*
X21758228Y-11127011D01*
X21747926Y-11060554D01*
X21755278Y-11000000D01*
X21755278Y-10999999D01*
X21736237Y-10843181D01*
X21707490Y-10767382D01*
X21680220Y-10695477D01*
X21590483Y-10565470D01*
X21472240Y-10460717D01*
X21472238Y-10460716D01*
X21472237Y-10460715D01*
X21332365Y-10387303D01*
X21178986Y-10349500D01*
X21178985Y-10349500D01*
X21021015Y-10349500D01*
X21021014Y-10349500D01*
X20867634Y-10387303D01*
X20727762Y-10460715D01*
X20609516Y-10565471D01*
X20519781Y-10695475D01*
X20519780Y-10695476D01*
X20463762Y-10843181D01*
X20444722Y-10999999D01*
X20444722Y-11000000D01*
X20452074Y-11060554D01*
X20440613Y-11129478D01*
X20393709Y-11181263D01*
X20328978Y-11199500D01*
X19945730Y-11199500D01*
X19915300Y-11202353D01*
X19915298Y-11202353D01*
X19787119Y-11247206D01*
X19787117Y-11247207D01*
X19677850Y-11327850D01*
X19597207Y-11437117D01*
X19597206Y-11437119D01*
X19552353Y-11565298D01*
X19552353Y-11565300D01*
X19549500Y-11595730D01*
X19549500Y-12600900D01*
X19529815Y-12667939D01*
X19477011Y-12713694D01*
X19425500Y-12724900D01*
X18452137Y-12724900D01*
X18385098Y-12705215D01*
X18339343Y-12652411D01*
X18329399Y-12583253D01*
X18336196Y-12556926D01*
X18336237Y-12556817D01*
X18337151Y-12549294D01*
X18355278Y-12400000D01*
X18352236Y-12374945D01*
X18347926Y-12339446D01*
X18359387Y-12270522D01*
X18406291Y-12218737D01*
X18471022Y-12200500D01*
X18854270Y-12200500D01*
X18884699Y-12197646D01*
X18884701Y-12197646D01*
X18951733Y-12174190D01*
X19012882Y-12152793D01*
X19122150Y-12072150D01*
X19202793Y-11962882D01*
X19232683Y-11877461D01*
X19247646Y-11834701D01*
X19247646Y-11834699D01*
X19247646Y-11834698D01*
X19250500Y-11804266D01*
X19250500Y-10745734D01*
X19247939Y-10718422D01*
X19247646Y-10715300D01*
X19247646Y-10715298D01*
X19213017Y-10616336D01*
X19202793Y-10587118D01*
X19122150Y-10477850D01*
X19012882Y-10397207D01*
X19012880Y-10397206D01*
X18884700Y-10352353D01*
X18854270Y-10349500D01*
X18854266Y-10349500D01*
X18445734Y-10349500D01*
X18445729Y-10349500D01*
X18434040Y-10350596D01*
X18365456Y-10337256D01*
X18314971Y-10288954D01*
X18298615Y-10221026D01*
X18321580Y-10155039D01*
X18334777Y-10139463D01*
X18587421Y-9886819D01*
X18648745Y-9853334D01*
X18675103Y-9850500D01*
X18854270Y-9850500D01*
X18884699Y-9847646D01*
X18884701Y-9847646D01*
X18948790Y-9825219D01*
X19012882Y-9802793D01*
X19122150Y-9722150D01*
X19202793Y-9612882D01*
X19230226Y-9534482D01*
X19247646Y-9484701D01*
X19247646Y-9484699D01*
X19247951Y-9481450D01*
X19250500Y-9454266D01*
X19250500Y-8395734D01*
X19247646Y-8365301D01*
X19247646Y-8365300D01*
X19247646Y-8365298D01*
X19202793Y-8237119D01*
X19202792Y-8237117D01*
X19202184Y-8236293D01*
X19122150Y-8127850D01*
X19106415Y-8116237D01*
X19064165Y-8060590D01*
X19056050Y-8016468D01*
X19056050Y-7785689D01*
X19056049Y-7785685D01*
X19049066Y-7764195D01*
X19044524Y-7745278D01*
X19040990Y-7722960D01*
X19040989Y-7722958D01*
X19040989Y-7722957D01*
X19040989Y-7722956D01*
X19030732Y-7702827D01*
X19023284Y-7684848D01*
X19016835Y-7665000D01*
X19016302Y-7663359D01*
X19003017Y-7645074D01*
X18992857Y-7628495D01*
X18982596Y-7608355D01*
X18961630Y-7587389D01*
X18961612Y-7587369D01*
X18311419Y-6937176D01*
X18277934Y-6875853D01*
X18275100Y-6849495D01*
X18275100Y-6789577D01*
X18294785Y-6722538D01*
X18311419Y-6701896D01*
X19911896Y-5101419D01*
X19973219Y-5067934D01*
X19999577Y-5065100D01*
X22431994Y-5065100D01*
X22499033Y-5084785D01*
G37*
%TD.AperFunction*%
%TA.AperFunction,Conductor*%
G36*
X27942539Y-4019685D02*
G01*
X27988294Y-4072489D01*
X27999500Y-4124000D01*
X27999500Y-4417356D01*
X27999502Y-4417382D01*
X28002413Y-4442485D01*
X28004863Y-4451487D01*
X28002865Y-4452030D01*
X28010346Y-4509205D01*
X28004691Y-4528461D01*
X28004864Y-4528508D01*
X28002415Y-4537508D01*
X27999500Y-4562631D01*
X27999500Y-5052356D01*
X27999502Y-5052382D01*
X28002413Y-5077487D01*
X28004863Y-5086489D01*
X28003050Y-5086982D01*
X28010619Y-5144821D01*
X28005117Y-5163561D01*
X28005358Y-5163627D01*
X28002910Y-5172622D01*
X28000000Y-5197705D01*
X28000000Y-5687285D01*
X28000002Y-5687308D01*
X28002909Y-5712372D01*
X28005358Y-5721373D01*
X28003209Y-5721957D01*
X28010619Y-5778587D01*
X28004776Y-5798485D01*
X28004864Y-5798509D01*
X28002415Y-5807509D01*
X27999500Y-5832631D01*
X27999500Y-6322356D01*
X27999502Y-6322382D01*
X28002413Y-6347487D01*
X28004863Y-6356489D01*
X28002864Y-6357032D01*
X28010347Y-6414198D01*
X28004691Y-6433462D01*
X28004864Y-6433509D01*
X28002415Y-6442509D01*
X27999500Y-6467631D01*
X27999500Y-6957356D01*
X27999502Y-6957382D01*
X28002413Y-6982485D01*
X28004863Y-6991487D01*
X28002865Y-6992030D01*
X28010346Y-7049205D01*
X28004691Y-7068461D01*
X28004864Y-7068508D01*
X28002415Y-7077508D01*
X27999500Y-7102631D01*
X27999500Y-7592356D01*
X27999502Y-7592382D01*
X28002413Y-7617485D01*
X28004863Y-7626487D01*
X28002865Y-7627030D01*
X28010346Y-7684205D01*
X28004691Y-7703461D01*
X28004864Y-7703508D01*
X28002415Y-7712508D01*
X27999500Y-7737631D01*
X27999500Y-8227356D01*
X27999502Y-8227382D01*
X28002413Y-8252485D01*
X28004863Y-8261487D01*
X28002865Y-8262030D01*
X28010346Y-8319205D01*
X28004691Y-8338461D01*
X28004864Y-8338508D01*
X28002415Y-8347508D01*
X27999500Y-8372631D01*
X27999500Y-8862356D01*
X27999502Y-8862382D01*
X28002413Y-8887487D01*
X28004863Y-8896489D01*
X28002864Y-8897032D01*
X28010347Y-8954198D01*
X28004691Y-8973462D01*
X28004864Y-8973509D01*
X28002415Y-8982509D01*
X27999500Y-9007631D01*
X27999500Y-9370561D01*
X27979815Y-9437600D01*
X27927011Y-9483355D01*
X27894901Y-9493034D01*
X27872962Y-9496509D01*
X27872955Y-9496511D01*
X27852821Y-9506769D01*
X27834859Y-9514209D01*
X27813360Y-9521195D01*
X27813354Y-9521198D01*
X27795071Y-9534482D01*
X27778487Y-9544645D01*
X27758355Y-9554903D01*
X27758354Y-9554904D01*
X27735476Y-9577781D01*
X27735473Y-9577784D01*
X27719676Y-9593581D01*
X27658353Y-9627066D01*
X27631995Y-9629900D01*
X27060661Y-9629900D01*
X27039167Y-9636884D01*
X27020258Y-9641423D01*
X26997937Y-9644959D01*
X26997936Y-9644959D01*
X26977792Y-9655222D01*
X26959832Y-9662661D01*
X26938335Y-9669647D01*
X26938334Y-9669648D01*
X26920050Y-9682931D01*
X26903472Y-9693090D01*
X26883330Y-9703354D01*
X26883327Y-9703356D01*
X26591207Y-9995477D01*
X25821234Y-10765450D01*
X25821231Y-10765453D01*
X25808835Y-10777850D01*
X25798353Y-10788332D01*
X25788095Y-10808464D01*
X25777932Y-10825048D01*
X25764648Y-10843331D01*
X25764645Y-10843337D01*
X25757659Y-10864836D01*
X25750219Y-10882798D01*
X25739961Y-10902932D01*
X25739959Y-10902939D01*
X25736425Y-10925251D01*
X25731884Y-10944167D01*
X25724900Y-10965661D01*
X25724900Y-11810422D01*
X25705215Y-11877461D01*
X25688581Y-11898103D01*
X24898103Y-12688581D01*
X24836780Y-12722066D01*
X24810422Y-12724900D01*
X24724000Y-12724900D01*
X24656961Y-12705215D01*
X24611206Y-12652411D01*
X24600000Y-12600900D01*
X24599999Y-12182714D01*
X24599997Y-12182691D01*
X24597091Y-12157629D01*
X24594641Y-12148624D01*
X24596790Y-12148039D01*
X24589379Y-12091422D01*
X24595226Y-12071512D01*
X24595137Y-12071488D01*
X24597584Y-12062493D01*
X24597583Y-12062493D01*
X24597585Y-12062491D01*
X24600500Y-12037365D01*
X24600499Y-11547636D01*
X24600072Y-11543950D01*
X24597586Y-11522514D01*
X24595136Y-11513508D01*
X24597136Y-11512963D01*
X24589651Y-11455810D01*
X24595310Y-11436535D01*
X24595137Y-11436488D01*
X24597584Y-11427493D01*
X24597583Y-11427493D01*
X24597585Y-11427491D01*
X24600500Y-11402365D01*
X24600499Y-10912636D01*
X24599470Y-10903764D01*
X24597586Y-10887512D01*
X24595137Y-10878511D01*
X24597136Y-10877966D01*
X24589651Y-10820811D01*
X24595310Y-10801538D01*
X24595136Y-10801491D01*
X24597582Y-10792496D01*
X24597585Y-10792491D01*
X24600500Y-10767365D01*
X24600499Y-10277636D01*
X24597585Y-10252509D01*
X24597584Y-10252506D01*
X24595136Y-10243508D01*
X24597136Y-10242963D01*
X24589651Y-10185810D01*
X24595310Y-10166535D01*
X24595137Y-10166488D01*
X24597584Y-10157493D01*
X24597583Y-10157493D01*
X24597585Y-10157491D01*
X24600500Y-10132365D01*
X24600499Y-9642636D01*
X24600483Y-9642500D01*
X24597586Y-9617514D01*
X24595136Y-9608508D01*
X24597136Y-9607963D01*
X24589651Y-9550810D01*
X24595310Y-9531535D01*
X24595137Y-9531488D01*
X24597584Y-9522493D01*
X24597583Y-9522493D01*
X24597585Y-9522491D01*
X24600500Y-9497365D01*
X24600499Y-9007636D01*
X24597891Y-8985146D01*
X24597586Y-8982514D01*
X24595136Y-8973508D01*
X24597136Y-8972963D01*
X24589651Y-8915810D01*
X24595310Y-8896535D01*
X24595137Y-8896488D01*
X24597584Y-8887493D01*
X24597583Y-8887493D01*
X24597585Y-8887491D01*
X24600500Y-8862365D01*
X24600499Y-8372636D01*
X24600182Y-8369899D01*
X24597586Y-8347512D01*
X24595137Y-8338511D01*
X24597136Y-8337966D01*
X24589651Y-8280811D01*
X24595310Y-8261538D01*
X24595136Y-8261491D01*
X24597582Y-8252496D01*
X24597585Y-8252491D01*
X24600500Y-8227365D01*
X24600499Y-7737636D01*
X24600497Y-7737617D01*
X24597586Y-7712514D01*
X24597584Y-7712508D01*
X24597584Y-7712506D01*
X24595136Y-7703508D01*
X24597136Y-7702963D01*
X24589651Y-7645810D01*
X24595310Y-7626535D01*
X24595137Y-7626488D01*
X24597584Y-7617493D01*
X24597583Y-7617493D01*
X24597585Y-7617491D01*
X24600500Y-7592365D01*
X24600499Y-7102636D01*
X24597585Y-7077509D01*
X24597584Y-7077506D01*
X24595136Y-7068508D01*
X24597136Y-7067963D01*
X24589651Y-7010810D01*
X24595310Y-6991535D01*
X24595137Y-6991488D01*
X24597584Y-6982493D01*
X24597583Y-6982493D01*
X24597585Y-6982491D01*
X24600500Y-6957365D01*
X24600499Y-6467636D01*
X24597585Y-6442509D01*
X24597584Y-6442506D01*
X24595136Y-6433508D01*
X24597136Y-6432963D01*
X24589651Y-6375810D01*
X24595310Y-6356535D01*
X24595137Y-6356488D01*
X24597584Y-6347493D01*
X24597583Y-6347493D01*
X24597585Y-6347491D01*
X24600500Y-6322365D01*
X24600499Y-5832636D01*
X24597585Y-5807509D01*
X24597584Y-5807506D01*
X24595136Y-5798508D01*
X24597136Y-5797963D01*
X24589651Y-5740810D01*
X24595310Y-5721535D01*
X24595137Y-5721488D01*
X24597584Y-5712493D01*
X24597583Y-5712493D01*
X24597585Y-5712491D01*
X24600500Y-5687365D01*
X24600499Y-5197636D01*
X24600479Y-5197463D01*
X24597586Y-5172514D01*
X24595136Y-5163508D01*
X24597136Y-5162963D01*
X24589651Y-5105810D01*
X24595310Y-5086535D01*
X24595137Y-5086488D01*
X24597584Y-5077493D01*
X24597583Y-5077493D01*
X24597585Y-5077491D01*
X24600500Y-5052365D01*
X24600499Y-4562636D01*
X24597585Y-4537509D01*
X24597584Y-4537506D01*
X24595136Y-4528508D01*
X24597136Y-4527963D01*
X24589651Y-4470810D01*
X24595310Y-4451535D01*
X24595137Y-4451488D01*
X24597584Y-4442493D01*
X24597583Y-4442493D01*
X24597585Y-4442491D01*
X24600500Y-4417365D01*
X24600499Y-4123998D01*
X24620183Y-4056961D01*
X24672987Y-4011206D01*
X24724499Y-4000000D01*
X27875500Y-4000000D01*
X27942539Y-4019685D01*
G37*
%TD.AperFunction*%
%TA.AperFunction,Conductor*%
G36*
X40772461Y-6989785D02*
G01*
X40793103Y-7006419D01*
X44567584Y-10780901D01*
X44567606Y-10780921D01*
X44588331Y-10801646D01*
X44608462Y-10811902D01*
X44625046Y-10822064D01*
X44643335Y-10835353D01*
X44664832Y-10842337D01*
X44682800Y-10849780D01*
X44702936Y-10860040D01*
X44725253Y-10863574D01*
X44744167Y-10868114D01*
X44765664Y-10875100D01*
X44798022Y-10875100D01*
X46849496Y-10875100D01*
X46916535Y-10894785D01*
X46937177Y-10911419D01*
X47587369Y-11561612D01*
X47587389Y-11561630D01*
X47608355Y-11582596D01*
X47628495Y-11592857D01*
X47645074Y-11603017D01*
X47663359Y-11616302D01*
X47684851Y-11623285D01*
X47702827Y-11630732D01*
X47722957Y-11640989D01*
X47722958Y-11640989D01*
X47722960Y-11640990D01*
X47745278Y-11644524D01*
X47764191Y-11649065D01*
X47785688Y-11656050D01*
X47818046Y-11656050D01*
X47958468Y-11656050D01*
X48025507Y-11675735D01*
X48058237Y-11706415D01*
X48069850Y-11722150D01*
X48179118Y-11802793D01*
X48200921Y-11810422D01*
X48307299Y-11847646D01*
X48337730Y-11850500D01*
X48337734Y-11850500D01*
X49396270Y-11850500D01*
X49426699Y-11847646D01*
X49426701Y-11847646D01*
X49490790Y-11825219D01*
X49554882Y-11802793D01*
X49664150Y-11722150D01*
X49744793Y-11612882D01*
X49779565Y-11513509D01*
X49789646Y-11484701D01*
X49789646Y-11484699D01*
X49792500Y-11454269D01*
X49792500Y-11233102D01*
X49812185Y-11166063D01*
X49828815Y-11145425D01*
X50090740Y-10883500D01*
X50152060Y-10850017D01*
X50221751Y-10855001D01*
X50277685Y-10896872D01*
X50302102Y-10962337D01*
X50295463Y-11012129D01*
X50294353Y-11015300D01*
X50291500Y-11045730D01*
X50291500Y-11454269D01*
X50294353Y-11484699D01*
X50294353Y-11484701D01*
X50333749Y-11597285D01*
X50339207Y-11612882D01*
X50419850Y-11722150D01*
X50529118Y-11802793D01*
X50550921Y-11810422D01*
X50657299Y-11847646D01*
X50687730Y-11850500D01*
X50687734Y-11850500D01*
X51746270Y-11850500D01*
X51776699Y-11847646D01*
X51776701Y-11847646D01*
X51840790Y-11825219D01*
X51904882Y-11802793D01*
X52014150Y-11722150D01*
X52094793Y-11612882D01*
X52129565Y-11513509D01*
X52139646Y-11484701D01*
X52139646Y-11484699D01*
X52142500Y-11454269D01*
X52142500Y-11074500D01*
X52162185Y-11007461D01*
X52214989Y-10961706D01*
X52266500Y-10950500D01*
X52428985Y-10950500D01*
X52582365Y-10912696D01*
X52600961Y-10902936D01*
X52722240Y-10839283D01*
X52840483Y-10734530D01*
X52930220Y-10604523D01*
X52986237Y-10456818D01*
X52989187Y-10432516D01*
X53016806Y-10368340D01*
X53074739Y-10329281D01*
X53144592Y-10327744D01*
X53204187Y-10364216D01*
X53214330Y-10377016D01*
X53219517Y-10384530D01*
X53337760Y-10489283D01*
X53337762Y-10489284D01*
X53424396Y-10534754D01*
X53474609Y-10583338D01*
X53490583Y-10651357D01*
X53467248Y-10717215D01*
X53454451Y-10732231D01*
X52048103Y-12138581D01*
X51986780Y-12172066D01*
X51960422Y-12174900D01*
X42939578Y-12174900D01*
X42872539Y-12155215D01*
X42851897Y-12138581D01*
X37898016Y-7184699D01*
X37897987Y-7184672D01*
X37895096Y-7181781D01*
X37861611Y-7120458D01*
X37866595Y-7050766D01*
X37908467Y-6994833D01*
X37973931Y-6970416D01*
X37982777Y-6970100D01*
X40705422Y-6970100D01*
X40772461Y-6989785D01*
G37*
%TD.AperFunction*%
%TA.AperFunction,Conductor*%
G36*
X12992891Y-8115988D02*
G01*
X13089125Y-8154331D01*
X13240563Y-8179158D01*
X13303532Y-8209428D01*
X13340142Y-8268939D01*
X13344500Y-8301524D01*
X13344500Y-9057382D01*
X13344777Y-9066585D01*
X13345784Y-9083272D01*
X13346285Y-9088791D01*
X13346285Y-9111218D01*
X13345787Y-9116700D01*
X13344778Y-9133397D01*
X13344500Y-9142613D01*
X13344500Y-9195285D01*
X13345236Y-9210276D01*
X13345236Y-9210275D01*
X13349088Y-9249374D01*
X13349088Y-9249375D01*
X13351289Y-9264219D01*
X13351289Y-9264220D01*
X13364590Y-9331089D01*
X13374848Y-9364908D01*
X13375470Y-9434774D01*
X13338221Y-9493886D01*
X13274926Y-9523476D01*
X13256187Y-9524900D01*
X12909679Y-9524900D01*
X12842640Y-9505215D01*
X12796885Y-9452411D01*
X12786941Y-9383253D01*
X12789140Y-9374271D01*
X12788633Y-9374161D01*
X12790244Y-9366780D01*
X12793000Y-9337398D01*
X12793000Y-8862601D01*
X12790244Y-8833219D01*
X12790242Y-8833207D01*
X12746933Y-8709439D01*
X12746560Y-8708733D01*
X12746385Y-8707873D01*
X12743865Y-8700671D01*
X12744851Y-8700325D01*
X12732642Y-8640263D01*
X12755281Y-8578740D01*
X12760036Y-8572079D01*
X12812804Y-8464141D01*
X12823000Y-8394161D01*
X12823000Y-8231183D01*
X12842685Y-8164144D01*
X12895489Y-8118389D01*
X12964647Y-8108445D01*
X12992891Y-8115988D01*
G37*
%TD.AperFunction*%
%TA.AperFunction,Conductor*%
G36*
X17743332Y-7533421D02*
G01*
X17787680Y-7561922D01*
X18015773Y-7790015D01*
X18049258Y-7851338D01*
X18044274Y-7921030D01*
X18002402Y-7976963D01*
X17936938Y-8001380D01*
X17916516Y-8001155D01*
X17904197Y-8000000D01*
X17495800Y-8000000D01*
X17483477Y-8001156D01*
X17414893Y-7987813D01*
X17364411Y-7939509D01*
X17348057Y-7871580D01*
X17371024Y-7805594D01*
X17384225Y-7790016D01*
X17419326Y-7754915D01*
X17612322Y-7561919D01*
X17673641Y-7528437D01*
X17743332Y-7533421D01*
G37*
%TD.AperFunction*%
%TA.AperFunction,Conductor*%
G36*
X17722043Y-5664639D02*
G01*
X17660720Y-5698124D01*
X17591028Y-5693140D01*
X17576322Y-5683688D01*
X17862505Y-5524176D01*
X17722043Y-5664639D01*
G37*
%TD.AperFunction*%
%TD*%
%TA.AperFunction,Conductor*%
%TO.N,GND*%
G36*
X36911971Y-1652381D02*
G01*
X36969932Y-1663910D01*
X37031839Y-1696293D01*
X37066414Y-1757008D01*
X37062675Y-1826777D01*
X37045510Y-1859157D01*
X37036147Y-1871842D01*
X36992291Y-1997173D01*
X36992289Y-1997185D01*
X36989500Y-2026929D01*
X36989500Y-2413070D01*
X36992289Y-2442814D01*
X36992291Y-2442826D01*
X37036147Y-2568155D01*
X37036148Y-2568157D01*
X37115001Y-2674999D01*
X37150000Y-2700829D01*
X37150000Y-2750000D01*
X37216624Y-2750000D01*
X37221843Y-2753852D01*
X37260003Y-2767204D01*
X37347173Y-2797708D01*
X37347177Y-2797708D01*
X37347181Y-2797710D01*
X37362057Y-2799105D01*
X37376930Y-2800500D01*
X37376934Y-2800500D01*
X37823070Y-2800500D01*
X37834967Y-2799384D01*
X37852819Y-2797710D01*
X37852828Y-2797706D01*
X37860188Y-2796100D01*
X37860741Y-2798635D01*
X37918138Y-2795696D01*
X37958226Y-2813202D01*
X37963069Y-2816438D01*
X37981859Y-2831859D01*
X38117608Y-2967608D01*
X38151070Y-3028825D01*
X38152353Y-3034699D01*
X38197206Y-3162880D01*
X38197207Y-3162882D01*
X38277850Y-3272150D01*
X38387118Y-3352793D01*
X38429845Y-3367744D01*
X38515299Y-3397646D01*
X38545730Y-3400500D01*
X39668499Y-3400500D01*
X39735538Y-3420185D01*
X39781293Y-3472989D01*
X39790116Y-3500309D01*
X39797617Y-3538019D01*
X39800000Y-3562210D01*
X39800000Y-3897962D01*
X39780315Y-3965001D01*
X39734684Y-4007197D01*
X39700302Y-4025668D01*
X39682580Y-4033472D01*
X39676003Y-4035774D01*
X39669529Y-4038039D01*
X39628569Y-4045000D01*
X38596431Y-4045000D01*
X38555475Y-4038041D01*
X38540425Y-4032774D01*
X38502003Y-4019329D01*
X38500437Y-4018705D01*
X38496719Y-4017414D01*
X38495375Y-4017010D01*
X38463109Y-4005719D01*
X38457278Y-4006677D01*
X38442152Y-4003847D01*
X38395671Y-3992124D01*
X38395668Y-3992123D01*
X38325995Y-3987088D01*
X38325972Y-3987087D01*
X38264518Y-3988849D01*
X38157748Y-4023553D01*
X38157747Y-4023553D01*
X38096401Y-4056993D01*
X38045651Y-4091702D01*
X37974596Y-4178615D01*
X37974594Y-4178617D01*
X37941061Y-4239916D01*
X37941056Y-4239929D01*
X37939563Y-4243923D01*
X37933161Y-4252460D01*
X37896877Y-4356151D01*
X37879593Y-4388846D01*
X37877621Y-4391517D01*
X37851502Y-4417633D01*
X37848833Y-4419603D01*
X37816166Y-4436872D01*
X37814806Y-4437348D01*
X37812839Y-4438036D01*
X37771870Y-4445000D01*
X37428130Y-4445000D01*
X37387181Y-4438043D01*
X37383854Y-4436879D01*
X37351161Y-4419599D01*
X37348486Y-4417625D01*
X37322366Y-4391503D01*
X37320396Y-4388834D01*
X37303112Y-4356125D01*
X37301949Y-4352799D01*
X37295000Y-4311870D01*
X37295000Y-3974032D01*
X37294046Y-3953400D01*
X37294575Y-3951231D01*
X37293593Y-3945209D01*
X37292669Y-3941289D01*
X37278546Y-3866095D01*
X37278546Y-3866096D01*
X37278545Y-3866092D01*
X37265856Y-3819342D01*
X37209177Y-3722429D01*
X37163422Y-3669625D01*
X37163420Y-3669623D01*
X37163410Y-3669612D01*
X37118694Y-3627451D01*
X37118691Y-3627449D01*
X37118689Y-3627447D01*
X37018613Y-3576561D01*
X37018612Y-3576560D01*
X37018611Y-3576560D01*
X36951580Y-3556877D01*
X36951574Y-3556876D01*
X36865502Y-3544500D01*
X36254714Y-3544500D01*
X36239738Y-3545235D01*
X36200628Y-3549086D01*
X36200623Y-3549086D01*
X36200620Y-3549087D01*
X36200621Y-3549087D01*
X36196188Y-3549744D01*
X36185791Y-3551286D01*
X36185790Y-3551286D01*
X36185786Y-3551287D01*
X36160690Y-3556278D01*
X36148191Y-3558765D01*
X36078599Y-3552538D01*
X36023422Y-3509675D01*
X36000178Y-3443785D01*
X36000000Y-3437148D01*
X36000000Y-1912210D01*
X36002383Y-1888019D01*
X36014218Y-1828519D01*
X36032729Y-1783826D01*
X36059524Y-1743724D01*
X36093724Y-1709524D01*
X36133826Y-1682729D01*
X36178514Y-1664219D01*
X36238028Y-1652381D01*
X36262211Y-1650000D01*
X36887789Y-1650000D01*
X36911971Y-1652381D01*
G37*
%TD.AperFunction*%
%TD*%
%TA.AperFunction,Conductor*%
%TO.N,+5V*%
G36*
X15258427Y-3902383D02*
G01*
X15317920Y-3914217D01*
X15317926Y-3914218D01*
X15362625Y-3932733D01*
X15413067Y-3966437D01*
X15431858Y-3981858D01*
X17330661Y-5880661D01*
X17364146Y-5941984D01*
X17359162Y-6011676D01*
X17330660Y-6056023D01*
X17221234Y-6165450D01*
X17221231Y-6165453D01*
X17202802Y-6183883D01*
X17198353Y-6188332D01*
X17188095Y-6208464D01*
X17177932Y-6225048D01*
X17164648Y-6243331D01*
X17164645Y-6243337D01*
X17157659Y-6264836D01*
X17150219Y-6282798D01*
X17139961Y-6302932D01*
X17139959Y-6302939D01*
X17136425Y-6325251D01*
X17131884Y-6344167D01*
X17124900Y-6365661D01*
X17124900Y-6849495D01*
X17105215Y-6916534D01*
X17088580Y-6937176D01*
X16440284Y-7585474D01*
X16440281Y-7585477D01*
X16422596Y-7603163D01*
X16417403Y-7608356D01*
X16407145Y-7628488D01*
X16396982Y-7645072D01*
X16383698Y-7663355D01*
X16383695Y-7663361D01*
X16376709Y-7684860D01*
X16369269Y-7702822D01*
X16359011Y-7722956D01*
X16359009Y-7722963D01*
X16355475Y-7745275D01*
X16350934Y-7764191D01*
X16343950Y-7785685D01*
X16343950Y-8016468D01*
X16324265Y-8083507D01*
X16293584Y-8116237D01*
X16282045Y-8124754D01*
X16277850Y-8127850D01*
X16197207Y-8237117D01*
X16197206Y-8237119D01*
X16152353Y-8365298D01*
X16152353Y-8365300D01*
X16149500Y-8395730D01*
X16149500Y-9326000D01*
X16129815Y-9393039D01*
X16077011Y-9438794D01*
X16025500Y-9450000D01*
X13912211Y-9450000D01*
X13888020Y-9447617D01*
X13873189Y-9444667D01*
X13828518Y-9435781D01*
X13783822Y-9417267D01*
X13743727Y-9390477D01*
X13709522Y-9356272D01*
X13682730Y-9316175D01*
X13664218Y-9271480D01*
X13652383Y-9211980D01*
X13650000Y-9187789D01*
X13650000Y-9147222D01*
X13650452Y-9139742D01*
X13655278Y-9100000D01*
X13650451Y-9060251D01*
X13650000Y-9052777D01*
X13650000Y-8191228D01*
X13669685Y-8124189D01*
X13715917Y-8081673D01*
X13798104Y-8038100D01*
X13939100Y-7918337D01*
X14051054Y-7771064D01*
X14128732Y-7603167D01*
X14168500Y-7422497D01*
X14168500Y-6183887D01*
X14153514Y-6046090D01*
X14094444Y-5870779D01*
X13999070Y-5712264D01*
X13962089Y-5673224D01*
X13871850Y-5577959D01*
X13789165Y-5521898D01*
X13718730Y-5474142D01*
X13718727Y-5474140D01*
X13718723Y-5474138D01*
X13546877Y-5405669D01*
X13473851Y-5393697D01*
X13364317Y-5375740D01*
X13364314Y-5375740D01*
X13179593Y-5385755D01*
X13179588Y-5385755D01*
X13001343Y-5435244D01*
X13001337Y-5435247D01*
X12837897Y-5521898D01*
X12801930Y-5552449D01*
X12780669Y-5570508D01*
X12716833Y-5598906D01*
X12700395Y-5600000D01*
X11503550Y-5600000D01*
X11400000Y-5600000D01*
X11326777Y-5673221D01*
X11326774Y-5673224D01*
X11326773Y-5673225D01*
X10481858Y-6518141D01*
X10463067Y-6533562D01*
X10412625Y-6567266D01*
X10367928Y-6585781D01*
X10333777Y-6592574D01*
X10308425Y-6597617D01*
X10284236Y-6600000D01*
X9947332Y-6600000D01*
X9880293Y-6580315D01*
X9859655Y-6563685D01*
X9723704Y-6427734D01*
X9723703Y-6427733D01*
X9722154Y-6426184D01*
X9722140Y-6426171D01*
X9700824Y-6404855D01*
X9700823Y-6404854D01*
X9693809Y-6401280D01*
X9680691Y-6394596D01*
X9664101Y-6384430D01*
X9645818Y-6371146D01*
X9645814Y-6371144D01*
X9624325Y-6364162D01*
X9606354Y-6356719D01*
X9586219Y-6346460D01*
X9581517Y-6345715D01*
X9563899Y-6342925D01*
X9544984Y-6338384D01*
X9523491Y-6331400D01*
X9523490Y-6331400D01*
X9491132Y-6331400D01*
X9101134Y-6331400D01*
X8972510Y-6331400D01*
X8972507Y-6331400D01*
X8951013Y-6338384D01*
X8932097Y-6342925D01*
X8909785Y-6346459D01*
X8909778Y-6346461D01*
X8889644Y-6356719D01*
X8871682Y-6364159D01*
X8850183Y-6371145D01*
X8850177Y-6371148D01*
X8831894Y-6384432D01*
X8815310Y-6394595D01*
X8795178Y-6404853D01*
X8795177Y-6404854D01*
X8772299Y-6427731D01*
X8772296Y-6427734D01*
X8636348Y-6563682D01*
X8575025Y-6597166D01*
X8548667Y-6600000D01*
X7715764Y-6600000D01*
X7691574Y-6597617D01*
X7658814Y-6591101D01*
X7632071Y-6585781D01*
X7587374Y-6567266D01*
X7536932Y-6533562D01*
X7518141Y-6518141D01*
X6381858Y-5381858D01*
X6366437Y-5363067D01*
X6332733Y-5312625D01*
X6314218Y-5267926D01*
X6302383Y-5208427D01*
X6300000Y-5184236D01*
X6300000Y-4162210D01*
X6302383Y-4138019D01*
X6314218Y-4078519D01*
X6332729Y-4033826D01*
X6359524Y-3993724D01*
X6393724Y-3959524D01*
X6433826Y-3932729D01*
X6478514Y-3914219D01*
X6538028Y-3902381D01*
X6562211Y-3900000D01*
X15234236Y-3900000D01*
X15258427Y-3902383D01*
G37*
%TD.AperFunction*%
%TD*%
%TA.AperFunction,Conductor*%
%TO.N,VBUS*%
G36*
X6256509Y-10858603D02*
G01*
X6308615Y-10871445D01*
X6336568Y-10882046D01*
X6384087Y-10906986D01*
X6404197Y-10920867D01*
X6404293Y-10920744D01*
X6404314Y-10920714D01*
X6404315Y-10920715D01*
X6404460Y-10920531D01*
X6407458Y-10922876D01*
X6469011Y-10965201D01*
X6484801Y-10973417D01*
X6522414Y-10992989D01*
X6567734Y-11012108D01*
X6679001Y-11027086D01*
X6748780Y-11023525D01*
X6831348Y-11007320D01*
X6855228Y-11005000D01*
X7475500Y-11005000D01*
X7542539Y-11024685D01*
X7588294Y-11077489D01*
X7599500Y-11129000D01*
X7599500Y-12171000D01*
X7579815Y-12238039D01*
X7527011Y-12283794D01*
X7475500Y-12295000D01*
X6855622Y-12295000D01*
X6829293Y-12292172D01*
X6761093Y-12277351D01*
X6761092Y-12277350D01*
X6761088Y-12277350D01*
X6701147Y-12271857D01*
X6651967Y-12271325D01*
X6651964Y-12271325D01*
X6543316Y-12299597D01*
X6543311Y-12299599D01*
X6480084Y-12329316D01*
X6407448Y-12377132D01*
X6403931Y-12379826D01*
X6403676Y-12379494D01*
X6384090Y-12393011D01*
X6336570Y-12417952D01*
X6308619Y-12428553D01*
X6282564Y-12434975D01*
X6256508Y-12441397D01*
X6226834Y-12445000D01*
X6173164Y-12445000D01*
X6143490Y-12441397D01*
X6130288Y-12438143D01*
X6091383Y-12428554D01*
X6063432Y-12417953D01*
X6015911Y-12393012D01*
X5991311Y-12376032D01*
X5951134Y-12340439D01*
X5931313Y-12318067D01*
X5900822Y-12273893D01*
X5886933Y-12247428D01*
X5883372Y-12238039D01*
X5867902Y-12197248D01*
X5860748Y-12168225D01*
X5854279Y-12114939D01*
X5854279Y-12085055D01*
X5855654Y-12073729D01*
X5860748Y-12031769D01*
X5867900Y-12002752D01*
X5886933Y-11952568D01*
X5900827Y-11926099D01*
X5909720Y-11913217D01*
X5925861Y-11889833D01*
X5933005Y-11878715D01*
X5971792Y-11789935D01*
X5989258Y-11722284D01*
X5998559Y-11661502D01*
X5992038Y-11613043D01*
X5983588Y-11550242D01*
X5983587Y-11550234D01*
X5961704Y-11483879D01*
X5922996Y-11406017D01*
X5913606Y-11392413D01*
X5900824Y-11373895D01*
X5886933Y-11347428D01*
X5884751Y-11341674D01*
X5867902Y-11297248D01*
X5860748Y-11268225D01*
X5856484Y-11233102D01*
X5854279Y-11214939D01*
X5854279Y-11185058D01*
X5860748Y-11131769D01*
X5867900Y-11102753D01*
X5886935Y-11052563D01*
X5900823Y-11026105D01*
X5900869Y-11026039D01*
X5931314Y-10981931D01*
X5951132Y-10959561D01*
X5991314Y-10923963D01*
X6015911Y-10906986D01*
X6063428Y-10882046D01*
X6091374Y-10871447D01*
X6143496Y-10858601D01*
X6173163Y-10855000D01*
X6226836Y-10855000D01*
X6256509Y-10858603D01*
G37*
%TD.AperFunction*%
%TD*%
%TA.AperFunction,Conductor*%
%TO.N,GND*%
G36*
X18371483Y-1867772D02*
G01*
X18416179Y-1886287D01*
X18466621Y-1919991D01*
X18485412Y-1935412D01*
X19764587Y-3214587D01*
X19780008Y-3233378D01*
X19813712Y-3283820D01*
X19832227Y-3328518D01*
X19841634Y-3375808D01*
X19841634Y-3424193D01*
X19832227Y-3471482D01*
X19813712Y-3516179D01*
X19780008Y-3566621D01*
X19764587Y-3585412D01*
X18556927Y-4793072D01*
X18556926Y-4793073D01*
X17779627Y-5570371D01*
X17613157Y-5663157D01*
X17379137Y-5429137D01*
X17379132Y-5429131D01*
X16185412Y-4235412D01*
X16169991Y-4216621D01*
X16136287Y-4166179D01*
X16117772Y-4121482D01*
X16108365Y-4074190D01*
X16108365Y-4025808D01*
X16117772Y-3978518D01*
X16136286Y-3933822D01*
X16169994Y-3883373D01*
X16185407Y-3864592D01*
X18114592Y-1935407D01*
X18133373Y-1919994D01*
X18183822Y-1886286D01*
X18228516Y-1867772D01*
X18275810Y-1858365D01*
X18324190Y-1858365D01*
X18371483Y-1867772D01*
G37*
%TD.AperFunction*%
%TD*%
%TA.AperFunction,Conductor*%
%TO.N,GND*%
G36*
X12200000Y-12500000D02*
G01*
X10223231Y-12500000D01*
X10267401Y-12467401D01*
X10267401Y-12467400D01*
X10351028Y-12354091D01*
X10397541Y-12221166D01*
X10400500Y-12189610D01*
X10400500Y-11110390D01*
X10397541Y-11078834D01*
X10351028Y-10945909D01*
X10296617Y-10872185D01*
X10272646Y-10806556D01*
X10274119Y-10800000D01*
X12200000Y-10800000D01*
X12200000Y-12500000D01*
G37*
%TD.AperFunction*%
%TD*%
%TA.AperFunction,Conductor*%
%TO.N,GND*%
G36*
X44261980Y-4902383D02*
G01*
X44321480Y-4914218D01*
X44366175Y-4932730D01*
X44406272Y-4959522D01*
X44440477Y-4993727D01*
X44467267Y-5033822D01*
X44485781Y-5078517D01*
X44489542Y-5097427D01*
X44497617Y-5138019D01*
X44500000Y-5162210D01*
X44500000Y-6687789D01*
X44497617Y-6711982D01*
X44485781Y-6771482D01*
X44467267Y-6816179D01*
X44440481Y-6856268D01*
X44406269Y-6890479D01*
X44371975Y-6913394D01*
X44366179Y-6917267D01*
X44321482Y-6935781D01*
X44287857Y-6942469D01*
X44261978Y-6947617D01*
X44237789Y-6950000D01*
X42962211Y-6950000D01*
X42938020Y-6947617D01*
X42923189Y-6944667D01*
X42878518Y-6935781D01*
X42833822Y-6917267D01*
X42793727Y-6890477D01*
X42759522Y-6856272D01*
X42732730Y-6816175D01*
X42714218Y-6771480D01*
X42702383Y-6711980D01*
X42700000Y-6687789D01*
X42700000Y-5162210D01*
X42702383Y-5138019D01*
X42714218Y-5078517D01*
X42732729Y-5033826D01*
X42759524Y-4993724D01*
X42793724Y-4959524D01*
X42833826Y-4932729D01*
X42878514Y-4914219D01*
X42938028Y-4902381D01*
X42962211Y-4900000D01*
X44237789Y-4900000D01*
X44261980Y-4902383D01*
G37*
%TD.AperFunction*%
%TD*%
%TA.AperFunction,Conductor*%
%TO.N,+5V*%
G36*
X36932541Y-3869685D02*
G01*
X36978296Y-3922489D01*
X36987978Y-3974035D01*
X36989500Y-3974035D01*
X36989500Y-4363070D01*
X36992289Y-4392814D01*
X36992291Y-4392826D01*
X37025603Y-4488022D01*
X37036148Y-4518157D01*
X37115001Y-4624999D01*
X37221843Y-4703852D01*
X37260003Y-4717204D01*
X37347173Y-4747708D01*
X37347177Y-4747708D01*
X37347181Y-4747710D01*
X37362057Y-4749105D01*
X37376930Y-4750500D01*
X37376934Y-4750500D01*
X37823070Y-4750500D01*
X37836289Y-4749260D01*
X37852819Y-4747710D01*
X37852823Y-4747708D01*
X37852826Y-4747708D01*
X37901836Y-4730557D01*
X37978157Y-4703852D01*
X38084999Y-4624999D01*
X38163852Y-4518157D01*
X38207710Y-4392819D01*
X38207711Y-4392807D01*
X38209082Y-4386531D01*
X38242613Y-4325233D01*
X38303961Y-4291793D01*
X38373649Y-4296829D01*
X38386278Y-4302499D01*
X38515299Y-4347646D01*
X38545730Y-4350500D01*
X38545734Y-4350500D01*
X39679270Y-4350500D01*
X39709699Y-4347646D01*
X39709701Y-4347646D01*
X39773790Y-4325219D01*
X39837882Y-4302793D01*
X39876584Y-4274229D01*
X39942212Y-4250259D01*
X39950217Y-4250000D01*
X41937789Y-4250000D01*
X41961980Y-4252383D01*
X42021480Y-4264218D01*
X42066175Y-4282730D01*
X42106272Y-4309522D01*
X42140477Y-4343727D01*
X42167267Y-4383822D01*
X42185781Y-4428517D01*
X42197617Y-4488022D01*
X42200000Y-4512210D01*
X42200000Y-5537789D01*
X42197617Y-5561982D01*
X42185781Y-5621482D01*
X42167267Y-5666179D01*
X42140481Y-5706268D01*
X42106269Y-5740479D01*
X42071975Y-5763394D01*
X42066179Y-5767267D01*
X42021482Y-5785781D01*
X41987857Y-5792469D01*
X41961978Y-5797617D01*
X41937789Y-5800000D01*
X36262211Y-5800000D01*
X36238020Y-5797617D01*
X36223189Y-5794667D01*
X36178518Y-5785781D01*
X36133822Y-5767267D01*
X36093727Y-5740477D01*
X36059522Y-5706272D01*
X36032730Y-5666175D01*
X36014218Y-5621480D01*
X36002383Y-5561980D01*
X36000000Y-5537789D01*
X36000000Y-4112210D01*
X36002383Y-4088019D01*
X36014218Y-4028519D01*
X36032729Y-3983826D01*
X36059524Y-3943724D01*
X36093724Y-3909524D01*
X36133826Y-3882729D01*
X36178514Y-3864219D01*
X36238028Y-3852381D01*
X36262211Y-3850000D01*
X36865502Y-3850000D01*
X36932541Y-3869685D01*
G37*
%TD.AperFunction*%
%TD*%
%TA.AperFunction,Conductor*%
%TO.N,GNDPWR*%
G36*
X98120710Y-520185D02*
G01*
X98166465Y-572989D01*
X98176409Y-642147D01*
X98156773Y-693391D01*
X98039888Y-868321D01*
X98039879Y-868336D01*
X97961199Y-1027884D01*
X97913894Y-1079304D01*
X97846298Y-1096985D01*
X97784709Y-1078467D01*
X97730175Y-1044701D01*
X97522799Y-964364D01*
X97443000Y-949446D01*
X97443000Y-1877918D01*
X97387079Y-1826440D01*
X97280108Y-1779518D01*
X97163698Y-1769872D01*
X97050462Y-1798547D01*
X96952673Y-1862436D01*
X96943000Y-1874864D01*
X96943000Y-949446D01*
X96863200Y-964364D01*
X96655822Y-1044701D01*
X96655820Y-1044702D01*
X96466738Y-1161778D01*
X96302391Y-1311599D01*
X96168368Y-1489074D01*
X96069240Y-1688149D01*
X96008378Y-1902060D01*
X95993000Y-2068022D01*
X95993000Y-2423500D01*
X96843000Y-2423500D01*
X96843000Y-2923500D01*
X95993000Y-2923500D01*
X95993000Y-3278977D01*
X96008378Y-3444939D01*
X96069240Y-3658850D01*
X96168368Y-3857925D01*
X96302391Y-4035400D01*
X96466738Y-4185221D01*
X96655820Y-4302297D01*
X96655822Y-4302298D01*
X96863195Y-4382635D01*
X96943000Y-4397552D01*
X96943000Y-3469081D01*
X96998921Y-3520560D01*
X97105892Y-3567482D01*
X97222302Y-3577128D01*
X97335538Y-3548453D01*
X97433327Y-3484564D01*
X97443000Y-3472135D01*
X97443000Y-4397552D01*
X97522804Y-4382635D01*
X97730177Y-4302298D01*
X97730179Y-4302297D01*
X97919261Y-4185221D01*
X98083608Y-4035400D01*
X98217630Y-3857927D01*
X98290433Y-3711718D01*
X98337936Y-3660481D01*
X98405599Y-3643059D01*
X98471939Y-3664984D01*
X98483193Y-3673761D01*
X98575405Y-3754628D01*
X98622162Y-3795633D01*
X98868327Y-3960115D01*
X98868330Y-3960116D01*
X98868336Y-3960120D01*
X99133852Y-4091058D01*
X99133862Y-4091062D01*
X99414190Y-4186220D01*
X99414194Y-4186221D01*
X99414203Y-4186224D01*
X99610493Y-4225269D01*
X99704563Y-4243981D01*
X99704564Y-4243981D01*
X99704574Y-4243983D01*
X100000000Y-4263346D01*
X100295426Y-4243983D01*
X100585797Y-4186224D01*
X100678638Y-4154709D01*
X100866137Y-4091062D01*
X100866147Y-4091058D01*
X100875593Y-4086400D01*
X100979010Y-4035400D01*
X101131663Y-3960120D01*
X101131663Y-3960119D01*
X101131673Y-3960115D01*
X101306610Y-3843225D01*
X101373286Y-3822348D01*
X101440667Y-3840832D01*
X101487357Y-3892811D01*
X101499500Y-3946328D01*
X101499500Y-12553671D01*
X101479815Y-12620710D01*
X101427011Y-12666465D01*
X101357853Y-12676409D01*
X101306609Y-12656773D01*
X101131678Y-12539888D01*
X101131663Y-12539879D01*
X100866147Y-12408941D01*
X100866137Y-12408937D01*
X100585809Y-12313779D01*
X100585789Y-12313774D01*
X100295436Y-12256018D01*
X100295427Y-12256017D01*
X100295426Y-12256017D01*
X100000000Y-12236654D01*
X99704574Y-12256017D01*
X99704573Y-12256017D01*
X99704563Y-12256018D01*
X99414210Y-12313774D01*
X99414190Y-12313779D01*
X99133862Y-12408937D01*
X99133852Y-12408941D01*
X98868336Y-12539879D01*
X98868321Y-12539888D01*
X98622160Y-12704368D01*
X98399572Y-12899572D01*
X98204368Y-13122160D01*
X98039888Y-13368321D01*
X98039879Y-13368336D01*
X97908941Y-13633852D01*
X97908937Y-13633862D01*
X97813779Y-13914190D01*
X97813774Y-13914210D01*
X97756018Y-14204563D01*
X97756017Y-14204573D01*
X97756017Y-14204574D01*
X97736654Y-14500000D01*
X97746567Y-14651252D01*
X97747651Y-14667779D01*
X97732393Y-14735963D01*
X97682694Y-14785073D01*
X97614334Y-14799518D01*
X97549016Y-14774712D01*
X97531771Y-14758867D01*
X97504525Y-14728607D01*
X97351725Y-14617590D01*
X97179181Y-14540769D01*
X97179179Y-14540768D01*
X96994436Y-14501500D01*
X96805564Y-14501500D01*
X96620819Y-14540768D01*
X96620814Y-14540770D01*
X96448276Y-14617589D01*
X96342698Y-14694297D01*
X96295475Y-14728607D01*
X96169094Y-14868966D01*
X96169092Y-14868967D01*
X96169091Y-14868970D01*
X96074657Y-15032535D01*
X96016294Y-15212160D01*
X95996551Y-15400000D01*
X96016294Y-15587839D01*
X96074657Y-15767464D01*
X96101236Y-15813500D01*
X96117709Y-15881400D01*
X96094856Y-15947427D01*
X96039935Y-15990618D01*
X95993849Y-15999500D01*
X93329500Y-15999500D01*
X93262461Y-15979815D01*
X93216706Y-15927011D01*
X93205500Y-15875500D01*
X93205500Y-14967523D01*
X93205500Y-14967518D01*
X93196266Y-14892973D01*
X93181500Y-14834288D01*
X93181498Y-14834282D01*
X93181499Y-14834283D01*
X93169678Y-14799518D01*
X93165538Y-14787341D01*
X93146313Y-14758862D01*
X93102728Y-14694297D01*
X93102723Y-14694291D01*
X93102721Y-14694288D01*
X93053653Y-14644547D01*
X93053651Y-14644545D01*
X93053643Y-14644538D01*
X93006283Y-14605339D01*
X92967552Y-14588699D01*
X92913727Y-14544150D01*
X92892532Y-14477573D01*
X92892500Y-14474769D01*
X92892500Y-14174500D01*
X92912185Y-14107461D01*
X92964989Y-14061706D01*
X93016500Y-14050500D01*
X93178985Y-14050500D01*
X93332365Y-14012696D01*
X93349383Y-14003764D01*
X93472240Y-13939283D01*
X93590483Y-13834530D01*
X93680220Y-13704523D01*
X93736237Y-13556818D01*
X93755278Y-13400000D01*
X93736237Y-13243182D01*
X93680220Y-13095477D01*
X93590483Y-12965470D01*
X93472240Y-12860717D01*
X93472238Y-12860716D01*
X93472237Y-12860715D01*
X93332365Y-12787303D01*
X93178986Y-12749500D01*
X93178985Y-12749500D01*
X93021015Y-12749500D01*
X93016500Y-12749500D01*
X92949461Y-12729815D01*
X92903706Y-12677011D01*
X92892500Y-12625500D01*
X92892500Y-12245730D01*
X92889646Y-12215300D01*
X92889646Y-12215298D01*
X92850250Y-12102714D01*
X92844793Y-12087118D01*
X92764150Y-11977850D01*
X92722129Y-11946837D01*
X92679879Y-11891190D01*
X92674421Y-11821534D01*
X92707489Y-11759985D01*
X92707935Y-11759535D01*
X92745206Y-11722265D01*
X92790585Y-11619491D01*
X92793500Y-11594365D01*
X92793500Y-11594356D01*
X93291500Y-11594356D01*
X93291502Y-11594382D01*
X93294413Y-11619487D01*
X93294415Y-11619491D01*
X93339793Y-11722264D01*
X93339794Y-11722265D01*
X93419235Y-11801706D01*
X93522009Y-11847085D01*
X93547135Y-11850000D01*
X95036864Y-11849999D01*
X95036879Y-11849997D01*
X95036882Y-11849997D01*
X95061987Y-11847086D01*
X95061988Y-11847085D01*
X95061991Y-11847085D01*
X95164765Y-11801706D01*
X95244206Y-11722265D01*
X95289585Y-11619491D01*
X95292500Y-11594365D01*
X95292500Y-10149735D01*
X95292500Y-9280977D01*
X95993000Y-9280977D01*
X96008378Y-9446939D01*
X96069240Y-9660850D01*
X96168368Y-9859925D01*
X96302391Y-10037400D01*
X96466738Y-10187221D01*
X96655820Y-10304297D01*
X96655822Y-10304298D01*
X96863195Y-10384635D01*
X96943000Y-10399552D01*
X96943000Y-9471081D01*
X96998921Y-9522560D01*
X97105892Y-9569482D01*
X97222302Y-9579128D01*
X97335538Y-9550453D01*
X97433327Y-9486564D01*
X97443000Y-9474135D01*
X97443000Y-10399552D01*
X97522804Y-10384635D01*
X97730177Y-10304298D01*
X97730179Y-10304297D01*
X97919261Y-10187221D01*
X98083608Y-10037400D01*
X98217631Y-9859925D01*
X98316760Y-9660849D01*
X98359161Y-9511823D01*
X98396440Y-9452729D01*
X98459750Y-9423171D01*
X98528989Y-9432533D01*
X98566109Y-9458075D01*
X98569919Y-9461885D01*
X98712922Y-9550091D01*
X98712927Y-9550093D01*
X98872416Y-9602942D01*
X98970855Y-9612999D01*
X99149999Y-9612999D01*
X99150000Y-9612998D01*
X99150000Y-8925500D01*
X99650000Y-8925500D01*
X99650000Y-9612999D01*
X99829136Y-9612999D01*
X99829152Y-9612998D01*
X99927583Y-9602943D01*
X100087072Y-9550093D01*
X100087077Y-9550091D01*
X100230080Y-9461885D01*
X100348885Y-9343080D01*
X100437091Y-9200077D01*
X100437093Y-9200072D01*
X100489942Y-9040583D01*
X100499999Y-8942150D01*
X100500000Y-8942137D01*
X100500000Y-8925500D01*
X99650000Y-8925500D01*
X99150000Y-8925500D01*
X97543000Y-8925500D01*
X97543000Y-8425500D01*
X99150000Y-8425500D01*
X99150000Y-7738000D01*
X99650000Y-7738000D01*
X99650000Y-8425500D01*
X100499999Y-8425500D01*
X100499999Y-8408864D01*
X100499998Y-8408847D01*
X100489943Y-8310416D01*
X100437093Y-8150927D01*
X100437091Y-8150922D01*
X100348885Y-8007919D01*
X100230080Y-7889114D01*
X100087077Y-7800908D01*
X100087072Y-7800906D01*
X99927583Y-7748057D01*
X99829150Y-7738000D01*
X99650000Y-7738000D01*
X99150000Y-7738000D01*
X98970865Y-7738000D01*
X98970846Y-7738001D01*
X98872416Y-7748056D01*
X98712927Y-7800906D01*
X98712922Y-7800908D01*
X98569918Y-7889114D01*
X98569917Y-7889115D01*
X98566104Y-7892929D01*
X98504779Y-7926411D01*
X98435088Y-7921422D01*
X98379157Y-7879548D01*
X98359161Y-7839177D01*
X98316759Y-7690149D01*
X98217631Y-7491074D01*
X98083608Y-7313599D01*
X97919261Y-7163778D01*
X97730179Y-7046702D01*
X97730177Y-7046701D01*
X97522799Y-6966364D01*
X97443000Y-6951446D01*
X97443000Y-7879918D01*
X97387079Y-7828440D01*
X97280108Y-7781518D01*
X97163698Y-7771872D01*
X97050462Y-7800547D01*
X96952673Y-7864436D01*
X96943000Y-7876864D01*
X96943000Y-6951446D01*
X96863200Y-6966364D01*
X96655822Y-7046701D01*
X96655820Y-7046702D01*
X96466738Y-7163778D01*
X96302391Y-7313599D01*
X96168368Y-7491074D01*
X96069240Y-7690149D01*
X96008378Y-7904060D01*
X95993000Y-8070022D01*
X95993000Y-8425500D01*
X96843000Y-8425500D01*
X96843000Y-8925500D01*
X95993000Y-8925500D01*
X95993000Y-9280977D01*
X95292500Y-9280977D01*
X95292500Y-8157258D01*
X95284243Y-8076055D01*
X95277074Y-8005560D01*
X95216162Y-7811420D01*
X95216160Y-7811416D01*
X95216159Y-7811412D01*
X95117409Y-7633498D01*
X95117408Y-7633497D01*
X95117407Y-7633495D01*
X94984867Y-7479106D01*
X94984865Y-7479104D01*
X94823962Y-7354554D01*
X94823959Y-7354553D01*
X94823958Y-7354552D01*
X94641271Y-7264940D01*
X94444285Y-7213937D01*
X94444287Y-7213937D01*
X94308804Y-7207066D01*
X94241064Y-7203631D01*
X94241063Y-7203631D01*
X94241061Y-7203631D01*
X94039936Y-7234442D01*
X94039924Y-7234445D01*
X93849118Y-7305111D01*
X93849111Y-7305115D01*
X93676432Y-7412745D01*
X93676427Y-7412749D01*
X93528949Y-7552938D01*
X93528948Y-7552940D01*
X93412705Y-7719949D01*
X93332459Y-7906943D01*
X93291500Y-8106258D01*
X93291500Y-11594356D01*
X92793500Y-11594356D01*
X92793499Y-8704636D01*
X92793497Y-8704617D01*
X92790586Y-8679512D01*
X92790585Y-8679510D01*
X92790585Y-8679509D01*
X92745206Y-8576735D01*
X92665765Y-8497294D01*
X92633698Y-8483135D01*
X92562992Y-8451915D01*
X92537865Y-8449000D01*
X91048143Y-8449000D01*
X91048117Y-8449002D01*
X91023012Y-8451913D01*
X91023008Y-8451915D01*
X90920235Y-8497293D01*
X90920234Y-8497294D01*
X90879681Y-8537848D01*
X90818358Y-8571333D01*
X90748666Y-8566349D01*
X90704319Y-8537848D01*
X90663765Y-8497294D01*
X90560992Y-8451915D01*
X90535865Y-8449000D01*
X89046143Y-8449000D01*
X89046117Y-8449002D01*
X89021012Y-8451913D01*
X89021008Y-8451915D01*
X88918235Y-8497293D01*
X88838794Y-8576734D01*
X88793415Y-8679506D01*
X88793415Y-8679508D01*
X88790500Y-8704631D01*
X88790500Y-11594356D01*
X88790502Y-11594382D01*
X88793413Y-11619487D01*
X88793415Y-11619491D01*
X88838793Y-11722264D01*
X88875916Y-11759387D01*
X88909401Y-11820710D01*
X88904417Y-11890402D01*
X88862545Y-11946335D01*
X88861870Y-11946837D01*
X88819850Y-11977849D01*
X88808238Y-11993584D01*
X88752590Y-12035835D01*
X88708468Y-12043950D01*
X88460685Y-12043950D01*
X88439191Y-12050934D01*
X88420282Y-12055473D01*
X88397961Y-12059009D01*
X88397960Y-12059009D01*
X88377816Y-12069272D01*
X88359856Y-12076711D01*
X88338359Y-12083697D01*
X88338358Y-12083698D01*
X88320074Y-12096981D01*
X88303496Y-12107140D01*
X88283354Y-12117404D01*
X88283351Y-12117406D01*
X87612177Y-12788581D01*
X87550854Y-12822066D01*
X87524496Y-12824900D01*
X73429500Y-12824900D01*
X73362461Y-12805215D01*
X73316706Y-12752411D01*
X73305500Y-12700900D01*
X73305500Y-12254714D01*
X73304764Y-12239721D01*
X73303024Y-12222066D01*
X73300910Y-12200608D01*
X73298710Y-12185776D01*
X73285411Y-12118918D01*
X73268025Y-12061603D01*
X73251393Y-12021453D01*
X73243924Y-11951985D01*
X73275197Y-11889505D01*
X73335285Y-11853851D01*
X73365954Y-11849999D01*
X73806856Y-11849999D01*
X73806864Y-11849999D01*
X73806879Y-11849997D01*
X73806882Y-11849997D01*
X73831987Y-11847086D01*
X73831988Y-11847085D01*
X73831991Y-11847085D01*
X73934765Y-11801706D01*
X74014206Y-11722265D01*
X74059585Y-11619491D01*
X74062500Y-11594365D01*
X74062500Y-11594356D01*
X86291500Y-11594356D01*
X86291502Y-11594382D01*
X86294413Y-11619487D01*
X86294415Y-11619491D01*
X86339793Y-11722264D01*
X86339793Y-11722265D01*
X86339794Y-11722265D01*
X86419235Y-11801706D01*
X86522009Y-11847085D01*
X86547135Y-11850000D01*
X88036864Y-11849999D01*
X88036879Y-11849997D01*
X88036882Y-11849997D01*
X88061987Y-11847086D01*
X88061988Y-11847085D01*
X88061991Y-11847085D01*
X88164765Y-11801706D01*
X88244206Y-11722265D01*
X88289585Y-11619491D01*
X88292500Y-11594365D01*
X88292500Y-10149735D01*
X88292500Y-8157258D01*
X88284243Y-8076055D01*
X88277074Y-8005560D01*
X88216162Y-7811420D01*
X88216160Y-7811416D01*
X88216159Y-7811412D01*
X88117409Y-7633498D01*
X88117408Y-7633497D01*
X88117407Y-7633495D01*
X87984867Y-7479106D01*
X87984865Y-7479104D01*
X87823962Y-7354554D01*
X87823959Y-7354553D01*
X87823958Y-7354552D01*
X87641271Y-7264940D01*
X87444285Y-7213937D01*
X87444287Y-7213937D01*
X87308804Y-7207066D01*
X87241064Y-7203631D01*
X87241063Y-7203631D01*
X87241061Y-7203631D01*
X87039936Y-7234442D01*
X87039924Y-7234445D01*
X86849118Y-7305111D01*
X86849111Y-7305115D01*
X86676432Y-7412745D01*
X86676427Y-7412749D01*
X86528949Y-7552938D01*
X86528948Y-7552940D01*
X86412705Y-7719949D01*
X86332459Y-7906943D01*
X86291500Y-8106258D01*
X86291500Y-11594356D01*
X74062500Y-11594356D01*
X74062500Y-10149735D01*
X74062500Y-9280977D01*
X74763000Y-9280977D01*
X74778378Y-9446939D01*
X74839240Y-9660850D01*
X74938368Y-9859925D01*
X75072391Y-10037400D01*
X75236738Y-10187221D01*
X75425820Y-10304297D01*
X75425822Y-10304298D01*
X75633195Y-10384635D01*
X75713000Y-10399552D01*
X75713000Y-9471081D01*
X75768921Y-9522560D01*
X75875892Y-9569482D01*
X75992302Y-9579128D01*
X76105538Y-9550453D01*
X76203327Y-9486564D01*
X76213000Y-9474135D01*
X76213000Y-10399552D01*
X76292804Y-10384635D01*
X76500177Y-10304298D01*
X76500179Y-10304297D01*
X76689261Y-10187221D01*
X76853608Y-10037400D01*
X76987631Y-9859925D01*
X77086760Y-9660849D01*
X77117406Y-9553137D01*
X77154685Y-9494043D01*
X77217994Y-9464485D01*
X77287234Y-9473846D01*
X77301770Y-9481532D01*
X77412916Y-9550088D01*
X77412927Y-9550093D01*
X77572416Y-9602942D01*
X77670855Y-9612999D01*
X77849999Y-9612999D01*
X77850000Y-9612998D01*
X77850000Y-8925500D01*
X78350000Y-8925500D01*
X78350000Y-9612999D01*
X78529136Y-9612999D01*
X78529152Y-9612998D01*
X78627583Y-9602943D01*
X78787072Y-9550093D01*
X78787077Y-9550091D01*
X78930080Y-9461885D01*
X79048885Y-9343080D01*
X79087191Y-9280977D01*
X83191000Y-9280977D01*
X83206378Y-9446939D01*
X83267240Y-9660850D01*
X83366368Y-9859925D01*
X83500391Y-10037400D01*
X83664738Y-10187221D01*
X83853820Y-10304297D01*
X83853822Y-10304298D01*
X84061195Y-10384635D01*
X84141000Y-10399552D01*
X84141000Y-9471081D01*
X84196921Y-9522560D01*
X84303892Y-9569482D01*
X84420302Y-9579128D01*
X84533538Y-9550453D01*
X84631327Y-9486564D01*
X84641000Y-9474135D01*
X84641000Y-10399552D01*
X84720804Y-10384635D01*
X84928177Y-10304298D01*
X84928179Y-10304297D01*
X85117261Y-10187221D01*
X85281608Y-10037400D01*
X85415631Y-9859925D01*
X85514759Y-9660850D01*
X85575621Y-9446939D01*
X85591000Y-9280977D01*
X85591000Y-8925500D01*
X84741000Y-8925500D01*
X84741000Y-8425500D01*
X85591000Y-8425500D01*
X85591000Y-8070022D01*
X85575621Y-7904060D01*
X85514759Y-7690149D01*
X85415631Y-7491074D01*
X85281608Y-7313599D01*
X85117261Y-7163778D01*
X84928179Y-7046702D01*
X84928177Y-7046701D01*
X84720799Y-6966364D01*
X84641000Y-6951446D01*
X84641000Y-7879918D01*
X84585079Y-7828440D01*
X84478108Y-7781518D01*
X84361698Y-7771872D01*
X84248462Y-7800547D01*
X84150673Y-7864436D01*
X84141000Y-7876864D01*
X84141000Y-6951446D01*
X84061200Y-6966364D01*
X83853822Y-7046701D01*
X83853820Y-7046702D01*
X83664738Y-7163778D01*
X83500391Y-7313599D01*
X83366368Y-7491074D01*
X83267240Y-7690149D01*
X83206378Y-7904060D01*
X83191000Y-8070022D01*
X83191000Y-8425500D01*
X84041000Y-8425500D01*
X84041000Y-8925500D01*
X83191000Y-8925500D01*
X83191000Y-9280977D01*
X79087191Y-9280977D01*
X79137091Y-9200077D01*
X79137093Y-9200072D01*
X79189942Y-9040583D01*
X79199999Y-8942150D01*
X79200000Y-8942137D01*
X79200000Y-8925500D01*
X78350000Y-8925500D01*
X77850000Y-8925500D01*
X76313000Y-8925500D01*
X76313000Y-8425500D01*
X77850000Y-8425500D01*
X77850000Y-7738000D01*
X78350000Y-7738000D01*
X78350000Y-8425500D01*
X79199999Y-8425500D01*
X79199999Y-8408864D01*
X79199998Y-8408847D01*
X79189943Y-8310416D01*
X79137093Y-8150927D01*
X79137091Y-8150922D01*
X79048885Y-8007919D01*
X78930080Y-7889114D01*
X78787077Y-7800908D01*
X78787072Y-7800906D01*
X78627583Y-7748057D01*
X78529150Y-7738000D01*
X78350000Y-7738000D01*
X77850000Y-7738000D01*
X77670865Y-7738000D01*
X77670846Y-7738001D01*
X77572416Y-7748056D01*
X77412927Y-7800906D01*
X77412918Y-7800910D01*
X77301769Y-7869468D01*
X77234377Y-7887908D01*
X77167714Y-7866985D01*
X77122944Y-7813343D01*
X77117406Y-7797862D01*
X77086760Y-7690150D01*
X76987631Y-7491074D01*
X76853608Y-7313599D01*
X76689261Y-7163778D01*
X76500179Y-7046702D01*
X76500177Y-7046701D01*
X76292799Y-6966364D01*
X76213000Y-6951446D01*
X76213000Y-7879918D01*
X76157079Y-7828440D01*
X76050108Y-7781518D01*
X75933698Y-7771872D01*
X75820462Y-7800547D01*
X75722673Y-7864436D01*
X75713000Y-7876864D01*
X75713000Y-6951446D01*
X75633200Y-6966364D01*
X75425822Y-7046701D01*
X75425820Y-7046702D01*
X75236738Y-7163778D01*
X75072391Y-7313599D01*
X74938368Y-7491074D01*
X74839240Y-7690149D01*
X74778378Y-7904060D01*
X74763000Y-8070022D01*
X74763000Y-8425500D01*
X75613000Y-8425500D01*
X75613000Y-8925500D01*
X74763000Y-8925500D01*
X74763000Y-9280977D01*
X74062500Y-9280977D01*
X74062500Y-8211258D01*
X74062095Y-8207269D01*
X74047074Y-8059560D01*
X73986162Y-7865420D01*
X73986160Y-7865416D01*
X73986159Y-7865412D01*
X73887409Y-7687498D01*
X73887408Y-7687497D01*
X73887407Y-7687495D01*
X73754867Y-7533106D01*
X73754865Y-7533104D01*
X73593962Y-7408554D01*
X73593959Y-7408553D01*
X73593958Y-7408552D01*
X73411271Y-7318940D01*
X73214285Y-7267937D01*
X73214287Y-7267937D01*
X73078804Y-7261066D01*
X73011064Y-7257631D01*
X73011063Y-7257631D01*
X73011061Y-7257631D01*
X72809936Y-7288442D01*
X72809924Y-7288445D01*
X72619118Y-7359111D01*
X72619111Y-7359115D01*
X72446432Y-7466745D01*
X72446427Y-7466749D01*
X72298949Y-7606938D01*
X72298948Y-7606940D01*
X72182705Y-7773949D01*
X72102459Y-7960943D01*
X72061500Y-8160258D01*
X72061500Y-10200247D01*
X72061501Y-11570500D01*
X72041816Y-11637539D01*
X71989013Y-11683294D01*
X71937501Y-11694500D01*
X71687500Y-11694500D01*
X71620461Y-11674815D01*
X71574706Y-11622011D01*
X71563500Y-11570500D01*
X71563499Y-8704643D01*
X71563499Y-8704636D01*
X71563497Y-8704617D01*
X71560586Y-8679512D01*
X71560585Y-8679510D01*
X71560585Y-8679509D01*
X71515206Y-8576735D01*
X71435765Y-8497294D01*
X71403698Y-8483135D01*
X71332992Y-8451915D01*
X71307865Y-8449000D01*
X69818143Y-8449000D01*
X69818117Y-8449002D01*
X69793012Y-8451913D01*
X69793008Y-8451915D01*
X69690235Y-8497293D01*
X69690234Y-8497294D01*
X69649681Y-8537848D01*
X69588358Y-8571333D01*
X69518666Y-8566349D01*
X69474319Y-8537848D01*
X69433765Y-8497294D01*
X69330992Y-8451915D01*
X69305865Y-8449000D01*
X67816143Y-8449000D01*
X67816117Y-8449002D01*
X67791012Y-8451913D01*
X67791008Y-8451915D01*
X67688235Y-8497293D01*
X67608794Y-8576734D01*
X67563415Y-8679506D01*
X67563415Y-8679508D01*
X67560500Y-8704631D01*
X67560500Y-11594356D01*
X67560502Y-11594382D01*
X67563413Y-11619487D01*
X67563415Y-11619491D01*
X67608793Y-11722264D01*
X67608794Y-11722265D01*
X67688235Y-11801706D01*
X67791009Y-11847085D01*
X67816135Y-11850000D01*
X68556320Y-11849999D01*
X68623359Y-11869683D01*
X68669114Y-11922487D01*
X68679058Y-11991646D01*
X68650033Y-12055202D01*
X68644007Y-12061673D01*
X68517099Y-12188582D01*
X68455779Y-12222066D01*
X68429420Y-12224900D01*
X62224500Y-12224900D01*
X62157461Y-12205215D01*
X62111706Y-12152411D01*
X62100500Y-12100900D01*
X62100500Y-11774500D01*
X62120185Y-11707461D01*
X62172989Y-11661706D01*
X62224500Y-11650500D01*
X62378985Y-11650500D01*
X62532365Y-11612696D01*
X62567259Y-11594382D01*
X62672240Y-11539283D01*
X62790483Y-11434530D01*
X62880220Y-11304523D01*
X62936237Y-11156818D01*
X62955278Y-11000000D01*
X62936237Y-10843182D01*
X62880220Y-10695477D01*
X62812052Y-10596719D01*
X62790170Y-10530366D01*
X62807635Y-10462714D01*
X62858903Y-10415244D01*
X62901136Y-10407743D01*
X62911000Y-10399553D01*
X62911000Y-9471081D01*
X62966921Y-9522560D01*
X63073892Y-9569482D01*
X63190302Y-9579128D01*
X63303538Y-9550453D01*
X63401327Y-9486564D01*
X63411000Y-9474135D01*
X63411000Y-10399552D01*
X63490804Y-10384635D01*
X63698177Y-10304298D01*
X63698179Y-10304297D01*
X63887261Y-10187221D01*
X64051608Y-10037400D01*
X64185631Y-9859925D01*
X64284759Y-9660850D01*
X64345621Y-9446939D01*
X64360999Y-9280977D01*
X64361000Y-8925500D01*
X63511000Y-8925500D01*
X63511000Y-8425500D01*
X64361000Y-8425500D01*
X64361000Y-8425499D01*
X64360999Y-8160258D01*
X65061499Y-8160258D01*
X65061500Y-10200247D01*
X65061500Y-11594356D01*
X65061502Y-11594382D01*
X65064413Y-11619487D01*
X65064415Y-11619491D01*
X65109793Y-11722264D01*
X65109794Y-11722265D01*
X65189235Y-11801706D01*
X65292009Y-11847085D01*
X65317135Y-11850000D01*
X66806864Y-11849999D01*
X66806879Y-11849997D01*
X66806882Y-11849997D01*
X66831987Y-11847086D01*
X66831988Y-11847085D01*
X66831991Y-11847085D01*
X66934765Y-11801706D01*
X67014206Y-11722265D01*
X67059585Y-11619491D01*
X67062500Y-11594365D01*
X67062500Y-10149735D01*
X67062500Y-8211258D01*
X67062095Y-8207269D01*
X67047074Y-8059560D01*
X66986162Y-7865420D01*
X66986160Y-7865416D01*
X66986159Y-7865412D01*
X66887409Y-7687498D01*
X66887408Y-7687497D01*
X66887407Y-7687495D01*
X66754867Y-7533106D01*
X66754865Y-7533104D01*
X66593962Y-7408554D01*
X66593959Y-7408553D01*
X66593958Y-7408552D01*
X66411271Y-7318940D01*
X66214285Y-7267937D01*
X66214287Y-7267937D01*
X66078804Y-7261066D01*
X66011064Y-7257631D01*
X66011063Y-7257631D01*
X66011061Y-7257631D01*
X65809936Y-7288442D01*
X65809924Y-7288445D01*
X65619118Y-7359111D01*
X65619111Y-7359115D01*
X65446432Y-7466745D01*
X65446427Y-7466749D01*
X65298949Y-7606938D01*
X65298948Y-7606940D01*
X65182705Y-7773949D01*
X65102459Y-7960943D01*
X65061499Y-8160258D01*
X64360999Y-8160258D01*
X64360999Y-8070022D01*
X64345621Y-7904060D01*
X64284759Y-7690149D01*
X64185631Y-7491074D01*
X64051608Y-7313599D01*
X63887261Y-7163778D01*
X63698179Y-7046702D01*
X63698177Y-7046701D01*
X63490799Y-6966364D01*
X63411000Y-6951446D01*
X63411000Y-7879918D01*
X63355079Y-7828440D01*
X63248108Y-7781518D01*
X63131698Y-7771872D01*
X63018462Y-7800547D01*
X62920673Y-7864436D01*
X62911000Y-7876864D01*
X62911000Y-6951446D01*
X62831200Y-6966364D01*
X62623822Y-7046701D01*
X62623820Y-7046702D01*
X62434738Y-7163778D01*
X62270391Y-7313599D01*
X62136368Y-7491074D01*
X62037240Y-7690149D01*
X61976378Y-7904060D01*
X61960999Y-8070022D01*
X61961000Y-8425500D01*
X62811000Y-8425500D01*
X62811000Y-8925500D01*
X61961000Y-8925500D01*
X61961000Y-9280977D01*
X61967181Y-9347685D01*
X61953766Y-9416255D01*
X61905408Y-9466687D01*
X61837462Y-9482969D01*
X61802755Y-9476167D01*
X61734701Y-9452354D01*
X61734699Y-9452353D01*
X61704270Y-9449500D01*
X61704266Y-9449500D01*
X60645734Y-9449500D01*
X60645730Y-9449500D01*
X60615300Y-9452353D01*
X60615298Y-9452353D01*
X60487119Y-9497206D01*
X60487117Y-9497207D01*
X60377850Y-9577850D01*
X60297207Y-9687117D01*
X60297206Y-9687119D01*
X60252353Y-9815298D01*
X60252353Y-9815300D01*
X60249500Y-9845730D01*
X60249500Y-10254269D01*
X60252353Y-10284699D01*
X60252353Y-10284701D01*
X60257765Y-10300165D01*
X60261327Y-10369944D01*
X60226599Y-10430571D01*
X60164606Y-10462799D01*
X60095030Y-10456394D01*
X60053043Y-10428801D01*
X59786818Y-10162576D01*
X59753333Y-10101253D01*
X59750499Y-10074894D01*
X59750499Y-9995477D01*
X59750500Y-9845734D01*
X59747646Y-9815301D01*
X59747646Y-9815300D01*
X59747646Y-9815298D01*
X59702793Y-9687119D01*
X59702792Y-9687117D01*
X59695112Y-9676711D01*
X59622150Y-9577850D01*
X59512882Y-9497207D01*
X59512880Y-9497206D01*
X59384700Y-9452353D01*
X59354270Y-9449500D01*
X59354266Y-9449500D01*
X58295734Y-9449500D01*
X58295730Y-9449500D01*
X58265300Y-9452353D01*
X58265298Y-9452353D01*
X58137119Y-9497206D01*
X58137117Y-9497207D01*
X58027850Y-9577850D01*
X58016238Y-9593584D01*
X57960590Y-9635835D01*
X57916468Y-9643950D01*
X57685685Y-9643950D01*
X57664191Y-9650934D01*
X57645282Y-9655473D01*
X57622961Y-9659009D01*
X57622960Y-9659009D01*
X57602816Y-9669272D01*
X57584856Y-9676711D01*
X57563359Y-9683697D01*
X57563358Y-9683698D01*
X57545074Y-9696981D01*
X57528496Y-9707140D01*
X57508354Y-9717404D01*
X57508351Y-9717406D01*
X56837177Y-10388581D01*
X56775854Y-10422066D01*
X56749496Y-10424900D01*
X54405249Y-10424900D01*
X54338210Y-10405215D01*
X54292455Y-10352411D01*
X54282511Y-10283253D01*
X54289307Y-10256929D01*
X54290218Y-10254524D01*
X54290220Y-10254523D01*
X54346237Y-10106818D01*
X54365278Y-9950000D01*
X54352984Y-9848744D01*
X54346237Y-9793181D01*
X54318672Y-9720499D01*
X54290220Y-9645477D01*
X54282448Y-9634217D01*
X54260567Y-9567862D01*
X54260500Y-9563780D01*
X54260500Y-9437217D01*
X54267458Y-9396264D01*
X54277741Y-9366879D01*
X54280500Y-9337457D01*
X54280499Y-9256392D01*
X54300183Y-9189356D01*
X54352986Y-9143600D01*
X54422145Y-9133656D01*
X54434168Y-9135995D01*
X54493015Y-9150500D01*
X54650985Y-9150500D01*
X54804365Y-9112696D01*
X54863502Y-9081658D01*
X54944240Y-9039283D01*
X55062483Y-8934530D01*
X55152220Y-8804523D01*
X55208237Y-8656818D01*
X55227278Y-8500000D01*
X55217596Y-8420263D01*
X55229056Y-8351342D01*
X55275960Y-8299555D01*
X55282240Y-8295959D01*
X55448170Y-8207269D01*
X55448173Y-8207267D01*
X55608055Y-8076055D01*
X55739267Y-7916173D01*
X55739271Y-7916166D01*
X55836766Y-7733766D01*
X55893208Y-7547702D01*
X55931506Y-7489263D01*
X55995318Y-7460807D01*
X56064385Y-7471367D01*
X56099550Y-7496016D01*
X56169919Y-7566385D01*
X56312922Y-7654591D01*
X56312927Y-7654593D01*
X56472416Y-7707442D01*
X56570855Y-7717499D01*
X56749999Y-7717499D01*
X56750000Y-7717498D01*
X56750000Y-7030000D01*
X57250000Y-7030000D01*
X57250000Y-7717499D01*
X57429136Y-7717499D01*
X57429152Y-7717498D01*
X57527583Y-7707443D01*
X57687072Y-7654593D01*
X57687077Y-7654591D01*
X57830080Y-7566385D01*
X57948885Y-7447580D01*
X58037091Y-7304577D01*
X58037093Y-7304572D01*
X58089942Y-7145083D01*
X58099999Y-7046650D01*
X58100000Y-7046637D01*
X58100000Y-7030000D01*
X57250000Y-7030000D01*
X56750000Y-7030000D01*
X55162000Y-7030000D01*
X55162000Y-6809902D01*
X77199500Y-6809902D01*
X77209520Y-6893343D01*
X77209520Y-6893344D01*
X77209521Y-6893346D01*
X77245676Y-6985030D01*
X77261886Y-7026134D01*
X77348132Y-7139867D01*
X77461865Y-7226113D01*
X77461868Y-7226115D01*
X77594654Y-7278479D01*
X77678098Y-7288500D01*
X78521902Y-7288500D01*
X78605346Y-7278479D01*
X78738132Y-7226115D01*
X78803961Y-7176195D01*
X78869271Y-7151373D01*
X78878885Y-7151000D01*
X78913834Y-7151000D01*
X78959930Y-7162362D01*
X78960623Y-7160537D01*
X78967634Y-7163196D01*
X79121014Y-7201000D01*
X79121015Y-7201000D01*
X79278985Y-7201000D01*
X79432365Y-7163196D01*
X79437431Y-7160537D01*
X79572240Y-7089783D01*
X79690483Y-6985030D01*
X79780220Y-6855023D01*
X79797332Y-6809902D01*
X98499500Y-6809902D01*
X98509520Y-6893343D01*
X98509520Y-6893344D01*
X98509521Y-6893346D01*
X98545676Y-6985030D01*
X98561886Y-7026134D01*
X98648132Y-7139867D01*
X98761865Y-7226113D01*
X98761868Y-7226115D01*
X98894654Y-7278479D01*
X98978098Y-7288500D01*
X99821902Y-7288500D01*
X99905346Y-7278479D01*
X100038132Y-7226115D01*
X100103961Y-7176195D01*
X100169271Y-7151373D01*
X100178885Y-7151000D01*
X100213834Y-7151000D01*
X100259930Y-7162362D01*
X100260623Y-7160537D01*
X100267634Y-7163196D01*
X100421014Y-7201000D01*
X100421015Y-7201000D01*
X100578985Y-7201000D01*
X100732365Y-7163196D01*
X100737431Y-7160537D01*
X100872240Y-7089783D01*
X100990483Y-6985030D01*
X101080220Y-6855023D01*
X101136237Y-6707318D01*
X101155278Y-6550500D01*
X101139312Y-6419002D01*
X101136237Y-6393681D01*
X101097332Y-6291098D01*
X101080220Y-6245977D01*
X100990483Y-6115970D01*
X100872240Y-6011217D01*
X100872238Y-6011216D01*
X100872237Y-6011215D01*
X100732365Y-5937803D01*
X100578986Y-5900000D01*
X100578985Y-5900000D01*
X100421015Y-5900000D01*
X100421014Y-5900000D01*
X100267634Y-5937803D01*
X100260623Y-5940463D01*
X100259930Y-5938637D01*
X100213834Y-5950000D01*
X100178885Y-5950000D01*
X100111846Y-5930315D01*
X100103972Y-5924813D01*
X100038132Y-5874885D01*
X99905346Y-5822521D01*
X99905345Y-5822520D01*
X99905343Y-5822520D01*
X99821902Y-5812500D01*
X98978098Y-5812500D01*
X98894656Y-5822520D01*
X98894655Y-5822520D01*
X98761865Y-5874886D01*
X98648132Y-5961132D01*
X98561886Y-6074865D01*
X98509520Y-6207655D01*
X98509520Y-6207656D01*
X98499500Y-6291097D01*
X98499500Y-6809902D01*
X79797332Y-6809902D01*
X79836237Y-6707318D01*
X79855278Y-6550500D01*
X79839312Y-6419002D01*
X79836237Y-6393681D01*
X79797332Y-6291098D01*
X79780220Y-6245977D01*
X79690483Y-6115970D01*
X79572240Y-6011217D01*
X79572238Y-6011216D01*
X79572237Y-6011215D01*
X79432365Y-5937803D01*
X79278986Y-5900000D01*
X79278985Y-5900000D01*
X79121015Y-5900000D01*
X79121014Y-5900000D01*
X78967634Y-5937803D01*
X78960623Y-5940463D01*
X78959930Y-5938637D01*
X78913834Y-5950000D01*
X78878885Y-5950000D01*
X78811846Y-5930315D01*
X78803972Y-5924813D01*
X78738132Y-5874885D01*
X78605346Y-5822521D01*
X78605345Y-5822520D01*
X78605343Y-5822520D01*
X78521902Y-5812500D01*
X77678098Y-5812500D01*
X77594656Y-5822520D01*
X77594655Y-5822520D01*
X77461865Y-5874886D01*
X77348132Y-5961132D01*
X77261886Y-6074865D01*
X77209520Y-6207655D01*
X77209520Y-6207656D01*
X77199500Y-6291097D01*
X77199500Y-6809902D01*
X55162000Y-6809902D01*
X55162000Y-6530000D01*
X56750000Y-6530000D01*
X56750000Y-5842500D01*
X57250000Y-5842500D01*
X57250000Y-6530000D01*
X58099999Y-6530000D01*
X58099999Y-6513364D01*
X58099998Y-6513347D01*
X58089943Y-6414916D01*
X58037093Y-6255427D01*
X58037091Y-6255422D01*
X57948885Y-6112419D01*
X57830080Y-5993614D01*
X57687077Y-5905408D01*
X57687072Y-5905406D01*
X57527583Y-5852557D01*
X57429150Y-5842500D01*
X57250000Y-5842500D01*
X56750000Y-5842500D01*
X56570865Y-5842500D01*
X56570846Y-5842501D01*
X56472416Y-5852556D01*
X56312927Y-5905406D01*
X56312922Y-5905408D01*
X56169922Y-5993612D01*
X56099550Y-6063984D01*
X56038226Y-6097468D01*
X55968535Y-6092483D01*
X55912601Y-6050612D01*
X55893208Y-6012297D01*
X55836766Y-5826233D01*
X55739271Y-5643833D01*
X55739267Y-5643826D01*
X55608055Y-5483944D01*
X55448173Y-5352732D01*
X55448166Y-5352728D01*
X55265763Y-5255232D01*
X55112000Y-5208587D01*
X55112000Y-6063889D01*
X55087543Y-6024390D01*
X54998038Y-5956799D01*
X54890160Y-5926105D01*
X54778479Y-5936454D01*
X54678078Y-5986448D01*
X54612000Y-6058930D01*
X54612000Y-5208587D01*
X54458236Y-5255232D01*
X54275833Y-5352728D01*
X54275826Y-5352732D01*
X54115944Y-5483944D01*
X53984732Y-5643826D01*
X53984730Y-5643829D01*
X53939967Y-5727576D01*
X53891004Y-5777420D01*
X53822867Y-5792880D01*
X53757187Y-5769048D01*
X53755122Y-5767497D01*
X53724251Y-5743808D01*
X53724247Y-5743806D01*
X53583280Y-5685416D01*
X53583278Y-5685415D01*
X53469981Y-5670500D01*
X53469980Y-5670500D01*
X53394020Y-5670500D01*
X53394019Y-5670500D01*
X53280721Y-5685415D01*
X53280719Y-5685416D01*
X53139752Y-5743806D01*
X53097472Y-5776249D01*
X53039973Y-5820370D01*
X53018695Y-5836697D01*
X52968635Y-5901936D01*
X52912207Y-5943138D01*
X52842460Y-5947292D01*
X52781541Y-5913079D01*
X52768210Y-5896888D01*
X52753023Y-5874886D01*
X52715394Y-5820370D01*
X52597151Y-5715617D01*
X52597149Y-5715616D01*
X52597148Y-5715615D01*
X52457276Y-5642203D01*
X52303897Y-5604400D01*
X52303896Y-5604400D01*
X52145926Y-5604400D01*
X52145925Y-5604400D01*
X51992545Y-5642203D01*
X51852673Y-5715615D01*
X51794110Y-5767497D01*
X51735160Y-5819722D01*
X51734427Y-5820371D01*
X51644692Y-5950375D01*
X51644691Y-5950376D01*
X51588673Y-6098081D01*
X51569633Y-6254899D01*
X51569633Y-6254900D01*
X51588674Y-6411718D01*
X51627506Y-6514111D01*
X51632873Y-6583774D01*
X51599725Y-6645281D01*
X51538587Y-6679102D01*
X51493688Y-6680787D01*
X51461096Y-6676039D01*
X51416215Y-6669500D01*
X51416210Y-6669500D01*
X51167782Y-6669500D01*
X51091163Y-6680662D01*
X51021986Y-6670847D01*
X50985608Y-6645638D01*
X50766168Y-6426197D01*
X50766140Y-6426171D01*
X50744824Y-6404855D01*
X50744823Y-6404854D01*
X50737809Y-6401280D01*
X50724691Y-6394596D01*
X50708101Y-6384430D01*
X50689818Y-6371146D01*
X50689814Y-6371144D01*
X50668325Y-6364162D01*
X50650354Y-6356719D01*
X50630219Y-6346460D01*
X50625517Y-6345715D01*
X50607899Y-6342925D01*
X50588984Y-6338384D01*
X50567491Y-6331400D01*
X50567490Y-6331400D01*
X50535132Y-6331400D01*
X50145134Y-6331400D01*
X50016510Y-6331400D01*
X50016507Y-6331400D01*
X49995013Y-6338384D01*
X49976097Y-6342925D01*
X49953785Y-6346459D01*
X49953778Y-6346461D01*
X49933644Y-6356719D01*
X49915682Y-6364159D01*
X49894183Y-6371145D01*
X49894177Y-6371148D01*
X49875894Y-6384432D01*
X49859310Y-6394595D01*
X49839178Y-6404853D01*
X49839176Y-6404854D01*
X49839177Y-6404854D01*
X49816299Y-6427731D01*
X49816296Y-6427734D01*
X49697904Y-6546126D01*
X49636581Y-6579610D01*
X49566889Y-6574626D01*
X49510956Y-6532754D01*
X49486539Y-6467290D01*
X49493615Y-6419022D01*
X49493531Y-6419002D01*
X49493746Y-6418127D01*
X49494283Y-6414468D01*
X49495326Y-6411717D01*
X49496160Y-6404853D01*
X49514367Y-6254900D01*
X49513284Y-6245976D01*
X49495326Y-6098081D01*
X49467293Y-6024165D01*
X49439309Y-5950377D01*
X49349572Y-5820370D01*
X49231329Y-5715617D01*
X49231327Y-5715616D01*
X49231326Y-5715615D01*
X49091454Y-5642203D01*
X48938075Y-5604400D01*
X48938074Y-5604400D01*
X48780104Y-5604400D01*
X48780103Y-5604400D01*
X48626723Y-5642203D01*
X48486851Y-5715615D01*
X48428288Y-5767497D01*
X48369338Y-5819722D01*
X48368605Y-5820371D01*
X48315789Y-5896888D01*
X48261506Y-5940879D01*
X48192057Y-5948538D01*
X48129492Y-5917434D01*
X48115364Y-5901936D01*
X48065304Y-5836696D01*
X47944250Y-5743808D01*
X47944249Y-5743807D01*
X47944247Y-5743806D01*
X47803280Y-5685416D01*
X47803278Y-5685415D01*
X47689981Y-5670500D01*
X47689980Y-5670500D01*
X47614020Y-5670500D01*
X47614019Y-5670500D01*
X47500721Y-5685415D01*
X47500719Y-5685416D01*
X47359752Y-5743806D01*
X47359749Y-5743808D01*
X47328876Y-5767498D01*
X47263706Y-5792692D01*
X47195262Y-5778653D01*
X47145272Y-5729839D01*
X47144031Y-5727575D01*
X47099266Y-5643826D01*
X46968055Y-5483944D01*
X46808173Y-5352732D01*
X46808166Y-5352728D01*
X46625763Y-5255232D01*
X46472000Y-5208587D01*
X46472000Y-6063889D01*
X46447543Y-6024390D01*
X46358038Y-5956799D01*
X46250160Y-5926105D01*
X46138479Y-5936454D01*
X46038078Y-5986448D01*
X45972000Y-6058930D01*
X45972000Y-5208587D01*
X45818236Y-5255232D01*
X45635833Y-5352728D01*
X45635826Y-5352732D01*
X45475944Y-5483944D01*
X45344732Y-5643826D01*
X45344728Y-5643833D01*
X45247233Y-5826233D01*
X45187191Y-6024165D01*
X45172000Y-6178415D01*
X45172000Y-6530000D01*
X45922000Y-6530000D01*
X45922000Y-7030000D01*
X45172000Y-7030000D01*
X45172000Y-7381584D01*
X45187191Y-7535834D01*
X45247233Y-7733766D01*
X45344728Y-7916166D01*
X45344732Y-7916173D01*
X45475944Y-8076055D01*
X45635826Y-8207267D01*
X45635833Y-8207271D01*
X45790491Y-8289938D01*
X45840335Y-8338900D01*
X45855796Y-8407038D01*
X45855134Y-8414242D01*
X45846769Y-8483135D01*
X45819147Y-8547313D01*
X45764628Y-8585230D01*
X45649205Y-8625618D01*
X45640990Y-8629961D01*
X45639949Y-8627992D01*
X45586263Y-8647590D01*
X45520657Y-8633643D01*
X45432365Y-8587303D01*
X45278986Y-8549500D01*
X45278985Y-8549500D01*
X45121015Y-8549500D01*
X45121014Y-8549500D01*
X44967634Y-8587303D01*
X44827762Y-8660715D01*
X44709516Y-8765471D01*
X44619781Y-8895474D01*
X44602277Y-8941629D01*
X44560098Y-8997331D01*
X44494500Y-9021388D01*
X44426310Y-9006161D01*
X44398654Y-8985338D01*
X42900497Y-7487181D01*
X42867012Y-7425858D01*
X42871996Y-7356166D01*
X42913868Y-7300233D01*
X42979332Y-7275816D01*
X42988178Y-7275500D01*
X44293097Y-7275500D01*
X44293102Y-7275500D01*
X44381564Y-7264877D01*
X44522342Y-7209361D01*
X44642922Y-7117922D01*
X44734361Y-6997342D01*
X44789877Y-6856564D01*
X44800500Y-6768102D01*
X44800500Y-6756607D01*
X44800799Y-6750525D01*
X44802570Y-6732551D01*
X44804764Y-6710272D01*
X44805500Y-6695289D01*
X44805500Y-5154709D01*
X44804764Y-5139726D01*
X44804591Y-5137975D01*
X44800910Y-5100607D01*
X44798711Y-5085780D01*
X44798711Y-5085778D01*
X44798710Y-5085772D01*
X44785411Y-5018915D01*
X44768025Y-4961603D01*
X44749511Y-4916908D01*
X44749509Y-4916904D01*
X44749508Y-4916901D01*
X44748172Y-4914402D01*
X56099499Y-4914402D01*
X56109520Y-4997843D01*
X56109520Y-4997844D01*
X56135702Y-5064238D01*
X56145676Y-5089530D01*
X56161886Y-5130634D01*
X56248132Y-5244367D01*
X56361865Y-5330613D01*
X56361868Y-5330615D01*
X56494654Y-5382979D01*
X56578098Y-5393000D01*
X57421902Y-5393000D01*
X57505346Y-5382979D01*
X57638132Y-5330615D01*
X57703961Y-5280695D01*
X57769271Y-5255873D01*
X57778885Y-5255500D01*
X57813834Y-5255500D01*
X57859930Y-5266862D01*
X57860623Y-5265037D01*
X57867634Y-5267696D01*
X58021014Y-5305500D01*
X58021015Y-5305500D01*
X58178985Y-5305500D01*
X58332365Y-5267696D01*
X58345759Y-5260666D01*
X58472240Y-5194283D01*
X58590483Y-5089530D01*
X58680220Y-4959523D01*
X58736237Y-4811818D01*
X58755278Y-4655000D01*
X58736237Y-4498182D01*
X58732052Y-4487148D01*
X58697332Y-4395598D01*
X58680220Y-4350477D01*
X58590483Y-4220470D01*
X58472240Y-4115717D01*
X58472238Y-4115716D01*
X58472237Y-4115715D01*
X58332365Y-4042303D01*
X58178986Y-4004500D01*
X58178985Y-4004500D01*
X58021015Y-4004500D01*
X58021014Y-4004500D01*
X57867634Y-4042303D01*
X57860623Y-4044963D01*
X57859930Y-4043137D01*
X57813834Y-4054500D01*
X57778885Y-4054500D01*
X57711846Y-4034815D01*
X57703972Y-4029313D01*
X57638132Y-3979385D01*
X57505346Y-3927021D01*
X57505345Y-3927020D01*
X57505343Y-3927020D01*
X57421902Y-3917000D01*
X56578098Y-3917000D01*
X56494656Y-3927020D01*
X56494655Y-3927020D01*
X56361865Y-3979386D01*
X56248132Y-4065632D01*
X56161886Y-4179365D01*
X56109520Y-4312155D01*
X56109520Y-4312156D01*
X56099499Y-4395597D01*
X56099499Y-4914402D01*
X44748172Y-4914402D01*
X44720163Y-4862002D01*
X44705920Y-4793599D01*
X44718988Y-4747344D01*
X44722550Y-4740337D01*
X44722553Y-4740335D01*
X44773439Y-4640259D01*
X44793124Y-4573220D01*
X44805500Y-4487148D01*
X44805500Y-2953167D01*
X45072000Y-2953167D01*
X45086737Y-3112216D01*
X45086738Y-3112219D01*
X45145058Y-3317196D01*
X45145066Y-3317216D01*
X45240059Y-3507989D01*
X45368500Y-3678071D01*
X45526000Y-3821651D01*
X45526002Y-3821653D01*
X45707201Y-3933846D01*
X45707207Y-3933849D01*
X45905941Y-4010838D01*
X45972000Y-4023186D01*
X45972000Y-3066110D01*
X45996457Y-3105610D01*
X46085962Y-3173201D01*
X46193840Y-3203895D01*
X46305521Y-3193546D01*
X46405922Y-3143552D01*
X46472000Y-3071069D01*
X46472000Y-4023185D01*
X46538058Y-4010838D01*
X46736792Y-3933849D01*
X46736798Y-3933846D01*
X46917997Y-3821653D01*
X46917999Y-3821651D01*
X47075499Y-3678071D01*
X47203940Y-3507989D01*
X47298933Y-3317216D01*
X47298941Y-3317196D01*
X47357261Y-3112219D01*
X47357262Y-3112216D01*
X47372000Y-2953167D01*
X53712000Y-2953167D01*
X53726737Y-3112216D01*
X53726738Y-3112219D01*
X53785058Y-3317196D01*
X53785066Y-3317216D01*
X53880059Y-3507989D01*
X54008500Y-3678071D01*
X54166000Y-3821651D01*
X54166002Y-3821653D01*
X54347201Y-3933846D01*
X54347207Y-3933849D01*
X54545941Y-4010838D01*
X54612000Y-4023186D01*
X54612000Y-3066110D01*
X54636457Y-3105610D01*
X54725962Y-3173201D01*
X54833840Y-3203895D01*
X54945521Y-3193546D01*
X55045922Y-3143552D01*
X55112000Y-3071069D01*
X55112000Y-4023185D01*
X55178058Y-4010838D01*
X55376792Y-3933849D01*
X55376798Y-3933846D01*
X55557997Y-3821653D01*
X55557999Y-3821651D01*
X55715499Y-3678071D01*
X55843940Y-3507989D01*
X55932579Y-3329977D01*
X61960999Y-3329977D01*
X61976378Y-3495939D01*
X62037240Y-3709850D01*
X62136368Y-3908925D01*
X62270391Y-4086400D01*
X62434738Y-4236221D01*
X62623820Y-4353297D01*
X62623822Y-4353298D01*
X62831195Y-4433635D01*
X62911000Y-4448552D01*
X62911000Y-3520081D01*
X62966921Y-3571560D01*
X63073892Y-3618482D01*
X63190302Y-3628128D01*
X63303538Y-3599453D01*
X63401327Y-3535564D01*
X63411000Y-3523135D01*
X63411000Y-4448552D01*
X63490804Y-4433635D01*
X63698177Y-4353298D01*
X63698179Y-4353297D01*
X63887261Y-4236221D01*
X64051608Y-4086400D01*
X64185631Y-3908925D01*
X64284759Y-3709850D01*
X64345621Y-3495939D01*
X64360999Y-3329977D01*
X64360999Y-3278977D01*
X74763000Y-3278977D01*
X74778378Y-3444939D01*
X74839240Y-3658850D01*
X74938368Y-3857925D01*
X75072391Y-4035400D01*
X75236738Y-4185221D01*
X75425820Y-4302297D01*
X75425822Y-4302298D01*
X75633195Y-4382635D01*
X75713000Y-4397552D01*
X75713000Y-3469081D01*
X75768921Y-3520560D01*
X75875892Y-3567482D01*
X75992302Y-3577128D01*
X76105538Y-3548453D01*
X76203327Y-3484564D01*
X76213000Y-3472135D01*
X76213000Y-4397552D01*
X76292804Y-4382635D01*
X76500177Y-4302298D01*
X76500179Y-4302297D01*
X76689261Y-4185221D01*
X76853608Y-4035400D01*
X76987631Y-3857925D01*
X77086759Y-3658850D01*
X77147621Y-3444939D01*
X77158274Y-3329977D01*
X83191000Y-3329977D01*
X83206378Y-3495939D01*
X83267240Y-3709850D01*
X83366368Y-3908925D01*
X83500391Y-4086400D01*
X83664738Y-4236221D01*
X83853820Y-4353297D01*
X83853822Y-4353298D01*
X84061195Y-4433635D01*
X84141000Y-4448552D01*
X84141000Y-3520081D01*
X84196921Y-3571560D01*
X84303892Y-3618482D01*
X84420302Y-3628128D01*
X84533538Y-3599453D01*
X84631327Y-3535564D01*
X84641000Y-3523135D01*
X84641000Y-4448552D01*
X84720804Y-4433635D01*
X84928177Y-4353298D01*
X84928179Y-4353297D01*
X85117261Y-4236221D01*
X85281608Y-4086400D01*
X85415631Y-3908925D01*
X85514759Y-3709850D01*
X85575621Y-3495939D01*
X85591000Y-3329977D01*
X85591000Y-2974500D01*
X84741000Y-2974500D01*
X84741000Y-2474500D01*
X85591000Y-2474500D01*
X85591000Y-2119022D01*
X85575621Y-1953060D01*
X85514759Y-1739149D01*
X85415631Y-1540074D01*
X85281608Y-1362599D01*
X85117261Y-1212778D01*
X84928179Y-1095702D01*
X84928177Y-1095701D01*
X84720799Y-1015364D01*
X84641000Y-1000446D01*
X84641000Y-1928918D01*
X84585079Y-1877440D01*
X84478108Y-1830518D01*
X84361698Y-1820872D01*
X84248462Y-1849547D01*
X84150673Y-1913436D01*
X84141000Y-1925864D01*
X84141000Y-1000446D01*
X84061200Y-1015364D01*
X83853822Y-1095701D01*
X83853820Y-1095702D01*
X83664738Y-1212778D01*
X83500391Y-1362599D01*
X83366368Y-1540074D01*
X83267240Y-1739149D01*
X83206378Y-1953060D01*
X83191000Y-2119022D01*
X83191000Y-2474500D01*
X84041000Y-2474500D01*
X84041000Y-2974500D01*
X83191000Y-2974500D01*
X83191000Y-3329977D01*
X77158274Y-3329977D01*
X77163000Y-3278977D01*
X77163000Y-2923500D01*
X76313000Y-2923500D01*
X76313000Y-2423500D01*
X77163000Y-2423500D01*
X77163000Y-2068022D01*
X77147621Y-1902060D01*
X77086759Y-1688149D01*
X76987631Y-1489074D01*
X76853608Y-1311599D01*
X76689261Y-1161778D01*
X76500179Y-1044702D01*
X76500177Y-1044701D01*
X76292799Y-964364D01*
X76213000Y-949446D01*
X76213000Y-1877918D01*
X76157079Y-1826440D01*
X76050108Y-1779518D01*
X75933698Y-1769872D01*
X75820462Y-1798547D01*
X75722673Y-1862436D01*
X75713000Y-1874864D01*
X75713000Y-949446D01*
X75633200Y-964364D01*
X75425822Y-1044701D01*
X75425820Y-1044702D01*
X75236738Y-1161778D01*
X75072391Y-1311599D01*
X74938368Y-1489074D01*
X74839240Y-1688149D01*
X74778378Y-1902060D01*
X74763000Y-2068022D01*
X74763000Y-2423500D01*
X75613000Y-2423500D01*
X75613000Y-2923500D01*
X74763000Y-2923500D01*
X74763000Y-3278977D01*
X64360999Y-3278977D01*
X64361000Y-2974500D01*
X63511000Y-2974500D01*
X63511000Y-2474500D01*
X64361000Y-2474500D01*
X64361000Y-2474499D01*
X64360999Y-2119022D01*
X64345621Y-1953060D01*
X64284759Y-1739149D01*
X64185631Y-1540074D01*
X64051608Y-1362599D01*
X63887261Y-1212778D01*
X63698179Y-1095702D01*
X63698177Y-1095701D01*
X63490799Y-1015364D01*
X63411000Y-1000446D01*
X63411000Y-1928918D01*
X63355079Y-1877440D01*
X63248108Y-1830518D01*
X63131698Y-1820872D01*
X63018462Y-1849547D01*
X62920673Y-1913436D01*
X62911000Y-1925864D01*
X62911000Y-1000446D01*
X62831200Y-1015364D01*
X62623822Y-1095701D01*
X62623820Y-1095702D01*
X62434738Y-1212778D01*
X62270391Y-1362599D01*
X62136368Y-1540074D01*
X62037240Y-1739149D01*
X61976378Y-1953060D01*
X61960999Y-2119022D01*
X61961000Y-2474500D01*
X62811000Y-2474500D01*
X62811000Y-2974500D01*
X61961000Y-2974500D01*
X61960999Y-3329977D01*
X55932579Y-3329977D01*
X55938933Y-3317216D01*
X55938941Y-3317196D01*
X55997261Y-3112219D01*
X55997262Y-3112216D01*
X56012000Y-2953167D01*
X56012000Y-2850000D01*
X55162000Y-2850000D01*
X55162000Y-2350000D01*
X56011999Y-2350000D01*
X56012000Y-2246832D01*
X55997262Y-2087783D01*
X55997261Y-2087780D01*
X55938941Y-1882803D01*
X55938933Y-1882783D01*
X55843940Y-1692010D01*
X55715499Y-1521928D01*
X55557999Y-1378348D01*
X55557997Y-1378346D01*
X55376798Y-1266153D01*
X55376789Y-1266149D01*
X55178063Y-1189163D01*
X55178058Y-1189162D01*
X55112000Y-1176813D01*
X55112000Y-2133889D01*
X55087543Y-2094390D01*
X54998038Y-2026799D01*
X54890160Y-1996105D01*
X54778479Y-2006454D01*
X54678078Y-2056448D01*
X54612000Y-2128930D01*
X54612000Y-1176813D01*
X54545941Y-1189162D01*
X54545936Y-1189163D01*
X54347210Y-1266149D01*
X54347201Y-1266153D01*
X54166002Y-1378346D01*
X54166000Y-1378348D01*
X54008500Y-1521928D01*
X53880059Y-1692010D01*
X53785066Y-1882783D01*
X53785058Y-1882803D01*
X53726738Y-2087780D01*
X53726737Y-2087783D01*
X53712000Y-2246832D01*
X53712000Y-2350000D01*
X54562000Y-2350000D01*
X54562000Y-2850000D01*
X53712000Y-2850000D01*
X53712000Y-2953167D01*
X47372000Y-2953167D01*
X47372000Y-2850000D01*
X46522000Y-2850000D01*
X46522000Y-2350000D01*
X47372000Y-2350000D01*
X47372000Y-2246832D01*
X47357262Y-2087783D01*
X47357261Y-2087780D01*
X47298941Y-1882803D01*
X47298933Y-1882783D01*
X47203940Y-1692010D01*
X47075499Y-1521928D01*
X46917999Y-1378348D01*
X46917997Y-1378346D01*
X46736798Y-1266153D01*
X46736789Y-1266149D01*
X46538063Y-1189163D01*
X46538058Y-1189162D01*
X46472000Y-1176813D01*
X46472000Y-2133889D01*
X46447543Y-2094390D01*
X46358038Y-2026799D01*
X46250160Y-1996105D01*
X46138479Y-2006454D01*
X46038078Y-2056448D01*
X45972000Y-2128930D01*
X45972000Y-1176813D01*
X45905941Y-1189162D01*
X45905936Y-1189163D01*
X45707210Y-1266149D01*
X45707201Y-1266153D01*
X45526002Y-1378346D01*
X45526000Y-1378348D01*
X45368500Y-1521928D01*
X45240059Y-1692010D01*
X45145066Y-1882783D01*
X45145058Y-1882803D01*
X45086738Y-2087780D01*
X45086737Y-2087783D01*
X45072000Y-2246832D01*
X45072000Y-2350000D01*
X45922000Y-2350000D01*
X45922000Y-2850000D01*
X45072000Y-2850000D01*
X45072000Y-2953167D01*
X44805500Y-2953167D01*
X44805500Y-1904708D01*
X44804764Y-1889723D01*
X44800910Y-1850608D01*
X44798710Y-1835776D01*
X44785411Y-1768918D01*
X44768025Y-1711603D01*
X44765113Y-1704574D01*
X44749514Y-1666915D01*
X44749508Y-1666901D01*
X44732166Y-1634458D01*
X44721283Y-1614098D01*
X44721281Y-1614095D01*
X44721280Y-1614092D01*
X44694502Y-1574016D01*
X44694489Y-1573998D01*
X44656493Y-1527700D01*
X44622298Y-1493505D01*
X44616462Y-1488716D01*
X44575999Y-1455508D01*
X44536998Y-1429448D01*
X44535907Y-1428719D01*
X44535889Y-1428708D01*
X44483085Y-1400485D01*
X44483075Y-1400480D01*
X44438382Y-1381969D01*
X44381083Y-1364588D01*
X44314220Y-1351289D01*
X44314219Y-1351289D01*
X44310834Y-1350787D01*
X44299391Y-1349090D01*
X44299383Y-1349089D01*
X44299375Y-1349088D01*
X44299374Y-1349088D01*
X44260275Y-1345236D01*
X44260276Y-1345236D01*
X44254654Y-1344960D01*
X44245290Y-1344500D01*
X37495475Y-1344500D01*
X37495473Y-1344500D01*
X37431006Y-1351379D01*
X37430994Y-1351381D01*
X37397298Y-1358656D01*
X37379845Y-1362425D01*
X37379837Y-1362427D01*
X37379838Y-1362427D01*
X37342074Y-1373161D01*
X37342066Y-1373165D01*
X37273791Y-1412808D01*
X37205932Y-1429448D01*
X37154053Y-1415450D01*
X37111542Y-1393213D01*
X37111539Y-1393212D01*
X37111534Y-1393209D01*
X37111528Y-1393206D01*
X37111526Y-1393206D01*
X37029537Y-1364282D01*
X37029535Y-1364281D01*
X37029531Y-1364280D01*
X36964213Y-1351287D01*
X36964209Y-1351286D01*
X36964207Y-1351286D01*
X36964206Y-1351286D01*
X36960825Y-1350784D01*
X36949383Y-1349087D01*
X36949372Y-1349086D01*
X36910263Y-1345236D01*
X36895286Y-1344500D01*
X36254714Y-1344500D01*
X36239738Y-1345235D01*
X36200628Y-1349086D01*
X36200623Y-1349086D01*
X36200620Y-1349087D01*
X36200621Y-1349087D01*
X36196188Y-1349744D01*
X36185791Y-1351286D01*
X36185790Y-1351286D01*
X36185786Y-1351287D01*
X36120467Y-1364280D01*
X36118914Y-1364589D01*
X36061607Y-1381972D01*
X36016917Y-1400483D01*
X35964105Y-1428711D01*
X35964095Y-1428717D01*
X35923994Y-1455512D01*
X35877697Y-1493507D01*
X35843507Y-1527697D01*
X35805512Y-1573994D01*
X35778719Y-1614092D01*
X35778716Y-1614098D01*
X35778714Y-1614101D01*
X35750481Y-1666924D01*
X35750480Y-1666927D01*
X35731968Y-1711620D01*
X35714588Y-1768915D01*
X35701289Y-1835779D01*
X35701289Y-1835780D01*
X35700787Y-1839164D01*
X35699248Y-1849547D01*
X35699088Y-1850624D01*
X35699088Y-1850625D01*
X35695236Y-1889724D01*
X35695236Y-1889723D01*
X35694500Y-1904714D01*
X35694500Y-3441243D01*
X35694787Y-3451966D01*
X35694789Y-3451983D01*
X35712077Y-3545413D01*
X35731789Y-3601290D01*
X35735323Y-3611308D01*
X35761509Y-3666939D01*
X35764072Y-3669829D01*
X35765718Y-3673326D01*
X35766390Y-3674345D01*
X35766243Y-3674441D01*
X35793829Y-3733045D01*
X35784685Y-3802313D01*
X35780007Y-3811339D01*
X35780150Y-3811416D01*
X35778718Y-3814094D01*
X35778714Y-3814101D01*
X35750481Y-3866924D01*
X35750480Y-3866927D01*
X35731968Y-3911620D01*
X35714588Y-3968915D01*
X35701289Y-4035779D01*
X35701289Y-4035780D01*
X35699088Y-4050624D01*
X35699088Y-4050625D01*
X35695236Y-4089724D01*
X35695236Y-4089723D01*
X35695170Y-4091062D01*
X35694702Y-4100608D01*
X35694500Y-4104714D01*
X35694500Y-5545285D01*
X35695236Y-5560276D01*
X35695236Y-5560275D01*
X35699088Y-5599374D01*
X35699088Y-5599375D01*
X35701289Y-5614219D01*
X35712724Y-5671709D01*
X35706497Y-5741301D01*
X35663633Y-5796478D01*
X35597743Y-5819722D01*
X35591107Y-5819900D01*
X31874726Y-5819900D01*
X31807687Y-5800215D01*
X31761932Y-5747411D01*
X31751988Y-5678253D01*
X31758782Y-5651933D01*
X31778737Y-5599318D01*
X31797778Y-5442500D01*
X31790777Y-5384836D01*
X31778737Y-5285681D01*
X31743108Y-5191737D01*
X31722720Y-5137977D01*
X31632983Y-5007970D01*
X31514740Y-4903217D01*
X31514738Y-4903216D01*
X31514737Y-4903215D01*
X31374865Y-4829803D01*
X31221486Y-4792000D01*
X31221485Y-4792000D01*
X31084500Y-4792000D01*
X31017461Y-4772315D01*
X30971706Y-4719511D01*
X30960500Y-4668000D01*
X30960500Y-4487145D01*
X30960500Y-4289434D01*
X30957710Y-4259681D01*
X30957708Y-4259677D01*
X30957708Y-4259673D01*
X30920978Y-4154709D01*
X30913852Y-4134343D01*
X30834999Y-4027501D01*
X30728157Y-3948648D01*
X30728155Y-3948647D01*
X30602826Y-3904791D01*
X30602814Y-3904789D01*
X30573070Y-3902000D01*
X30573066Y-3902000D01*
X30126934Y-3902000D01*
X30126930Y-3902000D01*
X30097185Y-3904789D01*
X30097173Y-3904791D01*
X29971845Y-3948646D01*
X29964705Y-3952420D01*
X29896236Y-3966341D01*
X29831110Y-3941035D01*
X29793332Y-3892878D01*
X29752206Y-3799735D01*
X29672765Y-3720294D01*
X29664381Y-3716592D01*
X29569992Y-3674915D01*
X29544865Y-3672000D01*
X28255143Y-3672000D01*
X28255117Y-3672002D01*
X28230012Y-3674913D01*
X28230010Y-3674914D01*
X28120607Y-3723219D01*
X28051328Y-3732290D01*
X28034270Y-3727632D01*
X28034111Y-3728176D01*
X27961578Y-3706877D01*
X27961572Y-3706876D01*
X27875500Y-3694500D01*
X24724499Y-3694500D01*
X24724490Y-3694500D01*
X24724489Y-3694501D01*
X24659564Y-3701481D01*
X24659551Y-3701483D01*
X24608045Y-3712688D01*
X24562386Y-3725784D01*
X24561689Y-3723356D01*
X24504533Y-3730154D01*
X24475086Y-3721319D01*
X24472765Y-3720294D01*
X24369991Y-3674915D01*
X24344865Y-3672000D01*
X23055143Y-3672000D01*
X23055117Y-3672002D01*
X23030012Y-3674913D01*
X23030008Y-3674915D01*
X22927235Y-3720293D01*
X22927234Y-3720294D01*
X22917398Y-3730131D01*
X22856075Y-3763616D01*
X22829717Y-3766450D01*
X22735684Y-3766450D01*
X22714190Y-3773434D01*
X22695274Y-3777975D01*
X22672962Y-3781509D01*
X22672955Y-3781511D01*
X22652821Y-3791769D01*
X22634859Y-3799209D01*
X22613360Y-3806195D01*
X22613354Y-3806198D01*
X22595071Y-3819482D01*
X22578487Y-3829645D01*
X22558355Y-3839903D01*
X22558354Y-3839904D01*
X22535476Y-3862781D01*
X22535473Y-3862784D01*
X22519676Y-3878581D01*
X22458353Y-3912066D01*
X22431995Y-3914900D01*
X20146705Y-3914900D01*
X20079666Y-3895215D01*
X20033911Y-3842411D01*
X20023967Y-3773253D01*
X20043603Y-3722009D01*
X20051727Y-3709850D01*
X20067727Y-3685905D01*
X20095955Y-3633094D01*
X20114470Y-3588397D01*
X20131856Y-3531086D01*
X20141263Y-3483797D01*
X20147134Y-3424193D01*
X20147134Y-3375808D01*
X20141263Y-3316205D01*
X20131856Y-3268915D01*
X20126878Y-3252505D01*
X20114474Y-3211613D01*
X20106990Y-3193546D01*
X20095956Y-3166908D01*
X20067727Y-3114094D01*
X20029856Y-3057417D01*
X20020922Y-3045371D01*
X19995986Y-3014985D01*
X19994376Y-3013209D01*
X19985919Y-3003877D01*
X19985918Y-3003877D01*
X19985912Y-3003870D01*
X18696129Y-1714087D01*
X18696122Y-1714080D01*
X18685026Y-1704024D01*
X18685014Y-1704013D01*
X18660617Y-1683992D01*
X18654632Y-1679080D01*
X18642585Y-1670145D01*
X18642586Y-1670146D01*
X18642582Y-1670143D01*
X18585905Y-1632272D01*
X18533096Y-1604045D01*
X18533091Y-1604043D01*
X18488400Y-1585530D01*
X18431082Y-1568142D01*
X18431076Y-1568140D01*
X18392932Y-1560553D01*
X18383789Y-1558735D01*
X18383787Y-1558734D01*
X18383783Y-1558734D01*
X18383776Y-1558733D01*
X18336993Y-1554126D01*
X18324190Y-1552865D01*
X18275810Y-1552865D01*
X18264248Y-1554003D01*
X18216224Y-1558733D01*
X18216217Y-1558734D01*
X18168924Y-1568140D01*
X18168918Y-1568142D01*
X18111606Y-1585526D01*
X18111602Y-1585528D01*
X18066905Y-1604043D01*
X18014100Y-1632268D01*
X18014092Y-1632273D01*
X17973482Y-1659408D01*
X17957413Y-1670145D01*
X17945365Y-1679080D01*
X17945358Y-1679086D01*
X17945356Y-1679087D01*
X17914985Y-1704012D01*
X17914986Y-1704012D01*
X17903874Y-1714083D01*
X15964083Y-3653874D01*
X15954012Y-3664986D01*
X15954012Y-3664985D01*
X15936839Y-3685911D01*
X15929080Y-3695365D01*
X15920145Y-3707413D01*
X15914014Y-3716589D01*
X15882272Y-3764094D01*
X15882270Y-3764097D01*
X15878829Y-3770535D01*
X15829862Y-3820375D01*
X15761723Y-3835829D01*
X15696045Y-3811992D01*
X15681795Y-3799753D01*
X15663551Y-3781509D01*
X15642575Y-3760533D01*
X15642568Y-3760526D01*
X15631472Y-3750470D01*
X15631460Y-3750459D01*
X15601074Y-3725523D01*
X15589028Y-3716589D01*
X15532351Y-3678718D01*
X15532350Y-3678717D01*
X15532348Y-3678716D01*
X15479543Y-3650492D01*
X15479540Y-3650491D01*
X15479535Y-3650488D01*
X15437562Y-3633102D01*
X15434834Y-3631972D01*
X15377521Y-3614586D01*
X15310667Y-3601289D01*
X15310666Y-3601289D01*
X15307281Y-3600787D01*
X15295838Y-3599090D01*
X15295830Y-3599089D01*
X15295822Y-3599088D01*
X15295821Y-3599088D01*
X15256722Y-3595236D01*
X15256723Y-3595236D01*
X15251101Y-3594960D01*
X15241737Y-3594500D01*
X14457129Y-3594500D01*
X14390090Y-3574815D01*
X14344335Y-3522011D01*
X14334391Y-3452853D01*
X14346129Y-3415229D01*
X14394933Y-3317216D01*
X14394941Y-3317196D01*
X14453261Y-3112219D01*
X14453262Y-3112216D01*
X14468000Y-2953167D01*
X14468000Y-2850000D01*
X13618000Y-2850000D01*
X13618000Y-2350000D01*
X14468000Y-2350000D01*
X14468000Y-2246832D01*
X14453262Y-2087783D01*
X14453261Y-2087780D01*
X14394941Y-1882803D01*
X14394933Y-1882783D01*
X14299940Y-1692010D01*
X14171499Y-1521928D01*
X14013999Y-1378348D01*
X14013997Y-1378346D01*
X13832798Y-1266153D01*
X13832789Y-1266149D01*
X13634063Y-1189163D01*
X13634058Y-1189162D01*
X13568000Y-1176813D01*
X13568000Y-2133889D01*
X13543543Y-2094390D01*
X13454038Y-2026799D01*
X13346160Y-1996105D01*
X13234479Y-2006454D01*
X13134078Y-2056448D01*
X13068000Y-2128930D01*
X13068000Y-1176813D01*
X13001941Y-1189162D01*
X13001936Y-1189163D01*
X12803210Y-1266149D01*
X12803201Y-1266153D01*
X12622002Y-1378346D01*
X12622000Y-1378348D01*
X12464500Y-1521928D01*
X12336059Y-1692010D01*
X12241066Y-1882783D01*
X12241058Y-1882803D01*
X12182738Y-2087780D01*
X12182737Y-2087783D01*
X12168000Y-2246832D01*
X12168000Y-2350000D01*
X13018000Y-2350000D01*
X13018000Y-2850000D01*
X12168000Y-2850000D01*
X12168000Y-2953167D01*
X12182737Y-3112216D01*
X12182738Y-3112219D01*
X12241058Y-3317196D01*
X12241066Y-3317216D01*
X12289871Y-3415229D01*
X12302132Y-3484014D01*
X12275259Y-3548509D01*
X12217783Y-3588236D01*
X12178871Y-3594500D01*
X6554714Y-3594500D01*
X6539738Y-3595235D01*
X6500628Y-3599086D01*
X6500623Y-3599086D01*
X6500620Y-3599087D01*
X6500621Y-3599087D01*
X6496188Y-3599744D01*
X6485791Y-3601286D01*
X6485790Y-3601286D01*
X6485786Y-3601287D01*
X6418929Y-3614586D01*
X6418914Y-3614589D01*
X6361607Y-3631972D01*
X6316917Y-3650483D01*
X6264105Y-3678711D01*
X6264095Y-3678717D01*
X6223994Y-3705512D01*
X6177697Y-3743507D01*
X6143507Y-3777697D01*
X6105512Y-3823994D01*
X6078719Y-3864092D01*
X6078714Y-3864099D01*
X6078714Y-3864101D01*
X6050481Y-3916924D01*
X6046622Y-3926242D01*
X6031968Y-3961620D01*
X6014588Y-4018915D01*
X6001289Y-4085779D01*
X6001289Y-4085780D01*
X5999088Y-4100624D01*
X5999088Y-4100625D01*
X5995236Y-4139724D01*
X5995236Y-4139723D01*
X5994500Y-4154714D01*
X5994500Y-5191732D01*
X5995236Y-5206723D01*
X5995236Y-5206722D01*
X5999088Y-5245821D01*
X5999088Y-5245822D01*
X6001289Y-5260666D01*
X6001289Y-5260667D01*
X6014586Y-5327521D01*
X6031972Y-5384834D01*
X6031973Y-5384836D01*
X6050488Y-5429535D01*
X6050491Y-5429540D01*
X6050492Y-5429543D01*
X6078716Y-5482348D01*
X6078717Y-5482350D01*
X6082783Y-5488435D01*
X6103659Y-5555113D01*
X6085173Y-5622493D01*
X6033192Y-5669181D01*
X5995866Y-5680262D01*
X5956720Y-5685416D01*
X5956719Y-5685416D01*
X5815752Y-5743806D01*
X5815749Y-5743808D01*
X5784876Y-5767498D01*
X5719706Y-5792692D01*
X5651262Y-5778653D01*
X5601272Y-5729839D01*
X5600031Y-5727575D01*
X5555266Y-5643826D01*
X5424055Y-5483944D01*
X5264173Y-5352732D01*
X5264166Y-5352728D01*
X5081763Y-5255232D01*
X4928000Y-5208587D01*
X4928000Y-6063889D01*
X4903543Y-6024390D01*
X4814038Y-5956799D01*
X4706160Y-5926105D01*
X4594479Y-5936454D01*
X4494078Y-5986448D01*
X4428000Y-6058930D01*
X4428000Y-5208587D01*
X4274236Y-5255232D01*
X4091833Y-5352728D01*
X4091826Y-5352732D01*
X3931944Y-5483944D01*
X3800732Y-5643826D01*
X3800728Y-5643833D01*
X3703232Y-5826236D01*
X3660755Y-5966263D01*
X3622458Y-6024701D01*
X3558645Y-6053158D01*
X3489578Y-6042597D01*
X3454414Y-6017948D01*
X3430080Y-5993614D01*
X3287077Y-5905408D01*
X3287072Y-5905406D01*
X3127583Y-5852557D01*
X3029150Y-5842500D01*
X2850000Y-5842500D01*
X2850000Y-6530000D01*
X4378000Y-6530000D01*
X4378000Y-7030000D01*
X1500001Y-7030000D01*
X1500001Y-7046652D01*
X1510056Y-7145083D01*
X1562906Y-7304572D01*
X1562908Y-7304577D01*
X1625099Y-7405403D01*
X1643539Y-7472795D01*
X1622617Y-7539459D01*
X1568975Y-7584229D01*
X1519560Y-7594500D01*
X624499Y-7594500D01*
X557460Y-7574815D01*
X511705Y-7522011D01*
X500499Y-7470500D01*
X500499Y-6546126D01*
X500499Y-6530000D01*
X1500000Y-6530000D01*
X2350000Y-6530000D01*
X2350000Y-5842500D01*
X2170865Y-5842500D01*
X2170846Y-5842501D01*
X2072416Y-5852556D01*
X1912927Y-5905406D01*
X1912922Y-5905408D01*
X1769919Y-5993614D01*
X1651114Y-6112419D01*
X1562908Y-6255422D01*
X1562906Y-6255427D01*
X1510057Y-6414916D01*
X1500000Y-6513349D01*
X1500000Y-6530000D01*
X500499Y-6530000D01*
X500499Y-5707555D01*
X520184Y-5640520D01*
X572988Y-5594765D01*
X642146Y-5584821D01*
X674932Y-5594278D01*
X820819Y-5659231D01*
X1005564Y-5698500D01*
X1194436Y-5698500D01*
X1379181Y-5659231D01*
X1551725Y-5582410D01*
X1704525Y-5471393D01*
X1830906Y-5331034D01*
X1925342Y-5167466D01*
X1983706Y-4987838D01*
X2003449Y-4800000D01*
X1983706Y-4612162D01*
X1925342Y-4432534D01*
X1830906Y-4268966D01*
X1704525Y-4128607D01*
X1551725Y-4017590D01*
X1379181Y-3940769D01*
X1379179Y-3940768D01*
X1194436Y-3901500D01*
X1005564Y-3901500D01*
X820819Y-3940768D01*
X674934Y-4005721D01*
X605684Y-4015005D01*
X542408Y-3985377D01*
X505195Y-3926242D01*
X500499Y-3892447D01*
X500499Y-2953167D01*
X3528000Y-2953167D01*
X3542737Y-3112216D01*
X3542738Y-3112219D01*
X3601058Y-3317196D01*
X3601066Y-3317216D01*
X3696059Y-3507989D01*
X3824500Y-3678071D01*
X3982000Y-3821651D01*
X3982002Y-3821653D01*
X4163201Y-3933846D01*
X4163207Y-3933849D01*
X4361941Y-4010838D01*
X4428000Y-4023186D01*
X4428000Y-3066110D01*
X4452457Y-3105610D01*
X4541962Y-3173201D01*
X4649840Y-3203895D01*
X4761521Y-3193546D01*
X4861922Y-3143552D01*
X4928000Y-3071069D01*
X4928000Y-4023185D01*
X4994058Y-4010838D01*
X5192792Y-3933849D01*
X5192798Y-3933846D01*
X5373997Y-3821653D01*
X5373999Y-3821651D01*
X5531499Y-3678071D01*
X5659940Y-3507989D01*
X5754933Y-3317216D01*
X5754941Y-3317196D01*
X5813261Y-3112219D01*
X5813262Y-3112216D01*
X5828000Y-2953167D01*
X5828000Y-2850000D01*
X4978000Y-2850000D01*
X4978000Y-2350000D01*
X5828000Y-2350000D01*
X5828000Y-2246832D01*
X5813262Y-2087783D01*
X5813261Y-2087780D01*
X5754941Y-1882803D01*
X5754933Y-1882783D01*
X5659940Y-1692010D01*
X5531499Y-1521928D01*
X5373999Y-1378348D01*
X5373997Y-1378346D01*
X5192798Y-1266153D01*
X5192789Y-1266149D01*
X4994063Y-1189163D01*
X4994058Y-1189162D01*
X4928000Y-1176813D01*
X4928000Y-2133889D01*
X4903543Y-2094390D01*
X4814038Y-2026799D01*
X4706160Y-1996105D01*
X4594479Y-2006454D01*
X4494078Y-2056448D01*
X4428000Y-2128930D01*
X4428000Y-1176813D01*
X4361941Y-1189162D01*
X4361936Y-1189163D01*
X4163210Y-1266149D01*
X4163201Y-1266153D01*
X3982002Y-1378346D01*
X3982000Y-1378348D01*
X3824500Y-1521928D01*
X3696059Y-1692010D01*
X3601066Y-1882783D01*
X3601058Y-1882803D01*
X3542738Y-2087780D01*
X3542737Y-2087783D01*
X3528000Y-2246832D01*
X3528000Y-2350000D01*
X4378000Y-2350000D01*
X4378000Y-2850000D01*
X3528000Y-2850000D01*
X3528000Y-2953167D01*
X500499Y-2953167D01*
X500499Y-2002214D01*
X500657Y-1997791D01*
X506691Y-1913436D01*
X515130Y-1795437D01*
X517646Y-1777938D01*
X559356Y-1586199D01*
X564333Y-1569248D01*
X632911Y-1385385D01*
X640256Y-1369303D01*
X734294Y-1197083D01*
X743850Y-1182214D01*
X861443Y-1025128D01*
X873017Y-1011771D01*
X1011771Y-873017D01*
X1025128Y-861443D01*
X1182214Y-743850D01*
X1197083Y-734294D01*
X1369303Y-640256D01*
X1385385Y-632911D01*
X1569248Y-564333D01*
X1586199Y-559356D01*
X1777938Y-517646D01*
X1795436Y-515130D01*
X1997791Y-500657D01*
X2002214Y-500500D01*
X2065892Y-500500D01*
X98053671Y-500500D01*
X98120710Y-520185D01*
G37*
%TD.AperFunction*%
%TD*%
M02*
