%TF.GenerationSoftware,KiCad,Pcbnew,7.0.6*%
%TF.CreationDate,2023-09-19T22:06:04+01:00*%
%TF.ProjectId,MoonHub,4d6f6f6e-4875-4622-9e6b-696361645f70,rev?*%
%TF.SameCoordinates,Original*%
%TF.FileFunction,Soldermask,Top*%
%TF.FilePolarity,Negative*%
%FSLAX46Y46*%
G04 Gerber Fmt 4.6, Leading zero omitted, Abs format (unit mm)*
G04 Created by KiCad (PCBNEW 7.0.6) date 2023-09-19 22:06:04*
%MOMM*%
%LPD*%
G01*
G04 APERTURE LIST*
G04 Aperture macros list*
%AMRoundRect*
0 Rectangle with rounded corners*
0 $1 Rounding radius*
0 $2 $3 $4 $5 $6 $7 $8 $9 X,Y pos of 4 corners*
0 Add a 4 corners polygon primitive as box body*
4,1,4,$2,$3,$4,$5,$6,$7,$8,$9,$2,$3,0*
0 Add four circle primitives for the rounded corners*
1,1,$1+$1,$2,$3*
1,1,$1+$1,$4,$5*
1,1,$1+$1,$6,$7*
1,1,$1+$1,$8,$9*
0 Add four rect primitives between the rounded corners*
20,1,$1+$1,$2,$3,$4,$5,0*
20,1,$1+$1,$4,$5,$6,$7,0*
20,1,$1+$1,$6,$7,$8,$9,0*
20,1,$1+$1,$8,$9,$2,$3,0*%
G04 Aperture macros list end*
%ADD10RoundRect,0.256750X-0.381250X0.218750X-0.381250X-0.218750X0.381250X-0.218750X0.381250X0.218750X0*%
%ADD11RoundRect,0.288000X-0.650000X0.325000X-0.650000X-0.325000X0.650000X-0.325000X0.650000X0.325000X0*%
%ADD12RoundRect,0.178000X0.170000X-0.140000X0.170000X0.140000X-0.170000X0.140000X-0.170000X-0.140000X0*%
%ADD13C,0.726000*%
%ADD14RoundRect,0.098000X0.240000X0.665000X-0.240000X0.665000X-0.240000X-0.665000X0.240000X-0.665000X0*%
%ADD15RoundRect,0.098000X0.090000X0.665000X-0.090000X0.665000X-0.090000X-0.665000X0.090000X-0.665000X0*%
%ADD16O,1.176000X2.276000*%
%ADD17O,1.376000X1.976000*%
%ADD18RoundRect,0.178000X-0.170000X0.140000X-0.170000X-0.140000X0.170000X-0.140000X0.170000X0.140000X0*%
%ADD19C,1.376000*%
%ADD20RoundRect,0.173000X0.135000X0.185000X-0.135000X0.185000X-0.135000X-0.185000X0.135000X-0.185000X0*%
%ADD21RoundRect,0.173000X-0.135000X-0.185000X0.135000X-0.185000X0.135000X0.185000X-0.135000X0.185000X0*%
%ADD22RoundRect,0.038000X0.600000X0.200000X-0.600000X0.200000X-0.600000X-0.200000X0.600000X-0.200000X0*%
%ADD23RoundRect,0.100000X-0.250000X-0.400000X0.250000X-0.400000X0.250000X0.400000X-0.250000X0.400000X0*%
%ADD24RoundRect,0.125000X-0.250000X-0.475000X0.250000X-0.475000X0.250000X0.475000X-0.250000X0.475000X0*%
%ADD25RoundRect,0.038000X-0.700000X-0.600000X0.700000X-0.600000X0.700000X0.600000X-0.700000X0.600000X0*%
%ADD26RoundRect,0.038000X-0.070711X0.919239X-0.919239X0.070711X0.070711X-0.919239X0.919239X-0.070711X0*%
%ADD27RoundRect,0.188000X-0.475000X-0.150000X0.475000X-0.150000X0.475000X0.150000X-0.475000X0.150000X0*%
%ADD28C,3.576001*%
%ADD29RoundRect,0.256750X0.381250X-0.218750X0.381250X0.218750X-0.381250X0.218750X-0.381250X-0.218750X0*%
%ADD30RoundRect,0.038000X-0.700000X-1.400000X0.700000X-1.400000X0.700000X1.400000X-0.700000X1.400000X0*%
%ADD31O,1.476000X2.576000*%
%ADD32RoundRect,0.188000X-0.150000X0.475000X-0.150000X-0.475000X0.150000X-0.475000X0.150000X0.475000X0*%
%ADD33RoundRect,0.188000X0.150000X-0.475000X0.150000X0.475000X-0.150000X0.475000X-0.150000X-0.475000X0*%
%ADD34RoundRect,0.188000X-0.512500X-0.150000X0.512500X-0.150000X0.512500X0.150000X-0.512500X0.150000X0*%
G04 APERTURE END LIST*
D10*
%TO.C,FB4*%
X78100000Y-6550500D03*
X78100000Y-8675500D03*
%TD*%
D11*
%TO.C,C3*%
X43600000Y-3450000D03*
X43600000Y-6400000D03*
%TD*%
D12*
%TO.C,C9*%
X30365000Y-12037500D03*
X30365000Y-11077500D03*
%TD*%
D13*
%TO.C,USB3*%
X53432000Y-6250000D03*
X47652000Y-6250000D03*
D14*
X53767000Y-7695000D03*
X52992000Y-7695000D03*
D15*
X51792000Y-7695000D03*
X50792000Y-7695000D03*
X50292000Y-7695000D03*
X49292000Y-7695000D03*
D14*
X47317000Y-7695000D03*
X48092000Y-7695000D03*
D15*
X48792000Y-7695000D03*
X49792000Y-7695000D03*
X51292000Y-7695000D03*
X52292000Y-7695000D03*
D16*
X54862000Y-6780000D03*
D17*
X54862000Y-2600000D03*
D16*
X46222000Y-6780000D03*
D17*
X46222000Y-2600000D03*
%TD*%
D18*
%TO.C,C2*%
X37600000Y-2220000D03*
X37600000Y-3180000D03*
%TD*%
D10*
%TO.C,FB2*%
X99400000Y-6550500D03*
X99400000Y-8675500D03*
%TD*%
D18*
%TO.C,C4*%
X21200000Y-8170000D03*
X21200000Y-9130000D03*
%TD*%
D19*
%TO.C,H7*%
X96900000Y-15400000D03*
%TD*%
%TO.C,H6*%
X4700000Y-15600000D03*
%TD*%
D20*
%TO.C,R3*%
X53710000Y-9100000D03*
X52690000Y-9100000D03*
%TD*%
D21*
%TO.C,R4*%
X45990000Y-9200000D03*
X47010000Y-9200000D03*
%TD*%
D22*
%TO.C,U4*%
X28900000Y-12427500D03*
X28900000Y-11792500D03*
X28900000Y-11157500D03*
X28900000Y-10522500D03*
X28900000Y-9887500D03*
X28900000Y-9252500D03*
X28900000Y-8617500D03*
X28900000Y-7982500D03*
X28900000Y-7347500D03*
X28900000Y-6712500D03*
X28900000Y-6077500D03*
X28900000Y-5442500D03*
X28900000Y-4807500D03*
X28900000Y-4172500D03*
X23700000Y-4172500D03*
X23700000Y-4807500D03*
X23700000Y-5442500D03*
X23700000Y-6077500D03*
X23700000Y-6712500D03*
X23700000Y-7347500D03*
X23700000Y-7982500D03*
X23700000Y-8617500D03*
X23700000Y-9252500D03*
X23700000Y-9887500D03*
X23700000Y-10522500D03*
X23700000Y-11157500D03*
X23700000Y-11792500D03*
X23700000Y-12427500D03*
%TD*%
D23*
%TO.C,J1*%
X6050000Y-15600000D03*
D24*
X7200000Y-11600000D03*
X8400000Y-11600000D03*
X9600000Y-11600000D03*
X10800000Y-11600000D03*
D23*
X11950000Y-15600000D03*
%TD*%
D25*
%TO.C,Y1*%
X31915000Y-13877500D03*
X34115000Y-13877500D03*
X34115000Y-12177500D03*
X31915000Y-12177500D03*
%TD*%
D18*
%TO.C,C5*%
X22250000Y-8170000D03*
X22250000Y-9130000D03*
%TD*%
D26*
%TO.C,D1*%
X17952082Y-3747918D03*
X15547918Y-6152082D03*
%TD*%
D27*
%TO.C,U3*%
X48867000Y-9350000D03*
X48867000Y-10300000D03*
X48867000Y-11250000D03*
X51217000Y-11250000D03*
X51217000Y-10300000D03*
X51217000Y-9350000D03*
%TD*%
D21*
%TO.C,R1*%
X11203000Y-9100000D03*
X12223000Y-9100000D03*
%TD*%
D28*
%TO.C,H3*%
X2000000Y-14500000D03*
%TD*%
D12*
%TO.C,C7*%
X22250000Y-7180000D03*
X22250000Y-6220000D03*
%TD*%
D28*
%TO.C,H4*%
X100000000Y-14500000D03*
%TD*%
D13*
%TO.C,USB2*%
X11888000Y-6250000D03*
X6108000Y-6250000D03*
D14*
X12223000Y-7695000D03*
X11448000Y-7695000D03*
D15*
X10248000Y-7695000D03*
X9248000Y-7695000D03*
X8748000Y-7695000D03*
X7748000Y-7695000D03*
D14*
X5773000Y-7695000D03*
X6548000Y-7695000D03*
D15*
X7248000Y-7695000D03*
X8248000Y-7695000D03*
X9748000Y-7695000D03*
X10748000Y-7695000D03*
D16*
X13318000Y-6780000D03*
D17*
X13318000Y-2600000D03*
D16*
X4678000Y-6780000D03*
D17*
X4678000Y-2600000D03*
%TD*%
D29*
%TO.C,FB1*%
X2600000Y-8905000D03*
X2600000Y-6780000D03*
%TD*%
D12*
%TO.C,C1*%
X37600000Y-5130000D03*
X37600000Y-4170000D03*
%TD*%
D30*
%TO.C,USB4*%
X73062000Y-10149500D03*
X70563000Y-10149500D03*
X68561000Y-10149500D03*
X66062000Y-10149500D03*
D31*
X75963000Y-8675500D03*
X75963000Y-2673500D03*
X63161000Y-8675500D03*
X63161000Y-2724500D03*
%TD*%
D28*
%TO.C,H1*%
X100000000Y-2000000D03*
%TD*%
D27*
%TO.C,U2*%
X89617000Y-12450000D03*
X89617000Y-13400000D03*
X89617000Y-14350000D03*
X91967000Y-14350000D03*
X91967000Y-13400000D03*
X91967000Y-12450000D03*
%TD*%
D10*
%TO.C,FB3*%
X57000000Y-4655000D03*
X57000000Y-6780000D03*
%TD*%
D32*
%TO.C,U5*%
X18650000Y-8925000D03*
X17700000Y-8925000D03*
X16750000Y-8925000D03*
X16750000Y-11275000D03*
X17700000Y-11275000D03*
X18650000Y-11275000D03*
%TD*%
D28*
%TO.C,H2*%
X2000000Y-2000000D03*
%TD*%
D20*
%TO.C,R2*%
X6793000Y-9100000D03*
X5773000Y-9100000D03*
%TD*%
D33*
%TO.C,U7*%
X20150000Y-14475000D03*
X21100000Y-14475000D03*
X22050000Y-14475000D03*
X22050000Y-12125000D03*
X21100000Y-12125000D03*
X20150000Y-12125000D03*
%TD*%
D19*
%TO.C,H5*%
X1100000Y-4800000D03*
%TD*%
D34*
%TO.C,U1*%
X39112500Y-2800000D03*
X39112500Y-3750000D03*
X39112500Y-4700000D03*
X41387500Y-4700000D03*
X41387500Y-2800000D03*
%TD*%
D18*
%TO.C,C6*%
X30350000Y-4482500D03*
X30350000Y-5442500D03*
%TD*%
D27*
%TO.C,U6*%
X58825000Y-10050000D03*
X58825000Y-11000000D03*
X58825000Y-11950000D03*
X61175000Y-11950000D03*
X61175000Y-11000000D03*
X61175000Y-10050000D03*
%TD*%
D18*
%TO.C,C8*%
X30365000Y-12997500D03*
X30365000Y-13957500D03*
%TD*%
D30*
%TO.C,USB1*%
X94292000Y-10149500D03*
X91793000Y-10149500D03*
X89791000Y-10149500D03*
X87292000Y-10149500D03*
D31*
X97193000Y-8675500D03*
X97193000Y-2673500D03*
X84391000Y-8675500D03*
X84391000Y-2724500D03*
%TD*%
M02*
