M48
; DRILL file {KiCad 7.0.6} date Sun Feb 18 18:08:35 2024
; FORMAT={-:-/ absolute / inch / decimal}
; #@! TF.CreationDate,2024-02-18T18:08:35+00:00
; #@! TF.GenerationSoftware,Kicad,Pcbnew,7.0.6
; #@! TF.FileFunction,Plated,1,4,PTH
FMAT,2
INCH
; #@! TA.AperFunction,Plated,PTH,ViaDrill
T1C0.0118
; #@! TA.AperFunction,Plated,PTH,ComponentDrill
T2C0.0157
; #@! TA.AperFunction,Plated,PTH,ComponentDrill
T3C0.0236
; #@! TA.AperFunction,Plated,PTH,ComponentDrill
T4C0.0866
%
G90
G05
T1
X0.0766Y-0.3938
X0.1553Y-0.4331
X0.1947Y-0.5513
X0.1969Y-0.3691
X0.2441Y-0.4409
X0.2441Y-0.4764
X0.3128Y-0.3938
X0.3128Y-0.5119
X0.3521Y-0.5906
X0.4646Y-0.4409
X0.4646Y-0.4764
X0.5118Y-0.3691
X0.5433Y-0.4606
X0.549Y-0.5906
X0.5827Y-0.3031
X0.622Y-0.3031
X0.6535Y-0.4606
X0.6671Y-0.5827
X0.7163Y-0.169
X0.7224Y-0.3307
X0.7441Y-0.1969
X0.7756Y-0.6083
X0.7852Y-0.4331
X0.8437Y-0.2449
X0.8437Y-0.2827
X0.876Y-0.3898
X0.9033Y-0.5906
X0.9753Y-0.4893
X1.0214Y-0.1575
X1.0214Y-0.2757
X1.0214Y-0.5906
X1.0608Y-0.3544
X1.0956Y-0.4893
X1.1002Y-0.5513
X1.1949Y-0.5807
X1.2261Y-0.2143
X1.2283Y-0.437
X1.315Y-0.4094
X1.3465Y-0.5906
X1.4075Y-0.0827
X1.4075Y-0.122
X1.4075Y-0.1713
X1.4075Y-0.2106
X1.4151Y-0.3544
X1.4151Y-0.5119
X1.4545Y-0.5906
X1.4939Y-0.4331
X1.5059Y-0.2992
X1.5689Y-0.3622
X1.5726Y-0.5119
X1.6142Y-0.2638
X1.6514Y-0.5513
X1.685Y-0.3366
X1.6969Y-0.0846
X1.6969Y-0.2087
X1.7362Y-0.0846
X1.7362Y-0.2087
X1.7677Y-0.4528
X1.7695Y-0.5513
X1.8307Y-0.3346
X1.878Y-0.4528
X1.8876Y-0.5513
X1.9236Y-0.2463
X2.0057Y-0.4331
X2.0057Y-0.5513
X2.0561Y-0.2463
X2.1152Y-0.4419
X2.1238Y-0.5513
X2.1485Y-0.3346
X2.2419Y-0.5513
X2.4781Y-0.5513
X2.5962Y-0.5513
X2.6009Y-0.3386
X2.7143Y-0.5513
X2.7931Y-0.5119
X2.8765Y-0.3386
X2.9112Y-0.5906
X2.9506Y-0.4892
X3.0293Y-0.5906
X3.0687Y-0.4892
X3.1474Y-0.5906
X3.1868Y-0.4892
X3.2655Y-0.5906
X3.3049Y-0.4902
X3.3425Y-0.5787
X3.437Y-0.3386
X3.4528Y-0.5787
X3.5197Y-0.502
X3.5411Y-0.5906
X3.6199Y-0.5119
X3.7123Y-0.3386
T2
X0.2362Y-0.5669
X0.2677Y-0.5669
X0.2677Y-0.5945
X0.2677Y-0.622
X0.4409Y-0.5669
X0.4409Y-0.5945
X0.4409Y-0.622
X0.4705Y-0.5669
T4
X0.0787Y-0.0787
T3
G00X0.1842Y-0.1142
M15
G01X0.1842Y-0.0906
M16
G05
G00X0.1842Y-0.2886
M15
G01X0.1842Y-0.2453
M16
G05
G00X0.5243Y-0.1142
M15
G01X0.5243Y-0.0906
M16
G05
G00X0.5243Y-0.2886
M15
G01X0.5243Y-0.2453
M16
G05
G00X1.8198Y-0.1142
M15
G01X1.8198Y-0.0906
M16
G05
G00X1.8198Y-0.2886
M15
G01X1.8198Y-0.2453
M16
G05
G00X2.1599Y-0.1142
M15
G01X2.1599Y-0.0906
M16
G05
G00X2.1599Y-0.2886
M15
G01X2.1599Y-0.2453
M16
G05
G00X2.4867Y-0.1437
M15
G01X2.4867Y-0.1083
M16
G05
G00X2.4867Y-0.3799
M15
G01X2.4867Y-0.3445
M16
G05
G00X2.9906Y-0.1083
M15
G01X2.9906Y-0.1437
M16
G05
G00X2.9906Y-0.3445
M15
G01X2.9906Y-0.3799
M16
G05
G00X3.3225Y-0.1437
M15
G01X3.3225Y-0.1083
M16
G05
G00X3.3225Y-0.3799
M15
G01X3.3225Y-0.3445
M16
G05
G00X3.8265Y-0.1083
M15
G01X3.8265Y-0.1437
M16
G05
G00X3.8265Y-0.3445
M15
G01X3.8265Y-0.3799
M16
G05
T0
M30
