%TF.GenerationSoftware,KiCad,Pcbnew,7.0.6*%
%TF.CreationDate,2024-01-21T15:46:54+00:00*%
%TF.ProjectId,MoonHub,4d6f6f6e-4875-4622-9e6b-696361645f70,rev?*%
%TF.SameCoordinates,Original*%
%TF.FileFunction,Copper,L3,Inr*%
%TF.FilePolarity,Positive*%
%FSLAX46Y46*%
G04 Gerber Fmt 4.6, Leading zero omitted, Abs format (unit mm)*
G04 Created by KiCad (PCBNEW 7.0.6) date 2024-01-21 15:46:54*
%MOMM*%
%LPD*%
G01*
G04 APERTURE LIST*
%TA.AperFunction,ComponentPad*%
%ADD10O,1.300000X1.900000*%
%TD*%
%TA.AperFunction,ComponentPad*%
%ADD11O,1.100000X2.200000*%
%TD*%
%TA.AperFunction,ComponentPad*%
%ADD12C,0.600000*%
%TD*%
%TA.AperFunction,ComponentPad*%
%ADD13O,1.400000X2.500000*%
%TD*%
%TA.AperFunction,ComponentPad*%
%ADD14C,3.500001*%
%TD*%
%TA.AperFunction,ViaPad*%
%ADD15C,0.700000*%
%TD*%
G04 APERTURE END LIST*
D10*
%TO.N,GNDPWR*%
%TO.C,USB3*%
X46222000Y-2600000D03*
D11*
X46222000Y-6780000D03*
D10*
X54862000Y-2600000D03*
D11*
X54862000Y-6780000D03*
%TD*%
D12*
%TO.N,GNDPWR*%
%TO.C,J1*%
X11950000Y-14400000D03*
X11200000Y-15800000D03*
X11200000Y-15100000D03*
X11200000Y-14400000D03*
X6800000Y-15800000D03*
X6800000Y-15100000D03*
X6800000Y-14400000D03*
X6000000Y-14400000D03*
%TD*%
D10*
%TO.N,GNDPWR*%
%TO.C,USB2*%
X4678000Y-2600000D03*
D11*
X4678000Y-6780000D03*
D10*
X13318000Y-2600000D03*
D11*
X13318000Y-6780000D03*
%TD*%
D13*
%TO.N,GNDPWR*%
%TO.C,USB4*%
X75962000Y-9200000D03*
X75962000Y-3200000D03*
X63162000Y-9200000D03*
X63162000Y-3200000D03*
%TD*%
D14*
%TO.N,GNDPWR*%
%TO.C,H2*%
X2000000Y-2000000D03*
%TD*%
D13*
%TO.N,GNDPWR*%
%TO.C,USB1*%
X97192000Y-9200000D03*
X97192000Y-3200000D03*
X84392000Y-9200000D03*
X84392000Y-3200000D03*
%TD*%
D15*
%TO.N,GND*%
X21430000Y-6220000D03*
X19700000Y-15450000D03*
X77944428Y-12425000D03*
X13000000Y-9375000D03*
X11800000Y-12100000D03*
X24772500Y-12427500D03*
X73944428Y-15001750D03*
X82944428Y-15001750D03*
X46500000Y-8500000D03*
X66062000Y-8600000D03*
X47700000Y-11500000D03*
X39850000Y-9200000D03*
X68944428Y-14001750D03*
X35750000Y-2100000D03*
X30350000Y-14750000D03*
X22944428Y-15001750D03*
X35944428Y-13001750D03*
X31142500Y-5442500D03*
X13800000Y-11700000D03*
X8944428Y-15001750D03*
X7944428Y-13001750D03*
X19944428Y-11001750D03*
X5000000Y-9375000D03*
X47944428Y-14001750D03*
X25944428Y-7001750D03*
X13944428Y-15001750D03*
X62944428Y-14001750D03*
X87700000Y-14700000D03*
X44100000Y-5300000D03*
X74944428Y-12425000D03*
X79944428Y-15001750D03*
X27827500Y-12427500D03*
X91944428Y-13001750D03*
X18900000Y-5000000D03*
X87300000Y-8600000D03*
X54572000Y-8500000D03*
X3944428Y-11001750D03*
X22250000Y-9900000D03*
X36944428Y-15001750D03*
X35944428Y-9001750D03*
X42800000Y-8550000D03*
X53725000Y-11225000D03*
X44900000Y-11500000D03*
X7944428Y-10001750D03*
X83944428Y-12450000D03*
X41944428Y-14001750D03*
X35750000Y-3100000D03*
X50944428Y-14001750D03*
X70944428Y-13001750D03*
X4944428Y-14001750D03*
X56944428Y-14001750D03*
X41000000Y-6700000D03*
X34200000Y-15000000D03*
X18192894Y-4292894D03*
X76944428Y-15001750D03*
X25944428Y-15001750D03*
X1944428Y-10001750D03*
X38250000Y-7600000D03*
X11800000Y-11200000D03*
X89400000Y-12750000D03*
X31200000Y-11100000D03*
X37944428Y-11001750D03*
X53944428Y-14001750D03*
X27944428Y-14001750D03*
X43100000Y-5300000D03*
X25944428Y-4001750D03*
X16600000Y-11700000D03*
X39944428Y-13001750D03*
X16944428Y-14800000D03*
X80944428Y-12425000D03*
X84900000Y-14700000D03*
X50944428Y-11001750D03*
X65944428Y-14001750D03*
X89944428Y-15001750D03*
X18350000Y-8400000D03*
X26944428Y-9001750D03*
X44944428Y-14001750D03*
X33400000Y-10400000D03*
%TO.N,+5V*%
X14800002Y-7700000D03*
X35750000Y-4350000D03*
X21430000Y-7180000D03*
X15800000Y-7700000D03*
X35750000Y-5350000D03*
%TO.N,VBUS*%
X43100000Y-2150000D03*
X73062000Y-8600000D03*
X44100000Y-2150000D03*
X52224911Y-6254900D03*
X6200000Y-12100000D03*
X48859089Y-6254900D03*
X94292000Y-8600000D03*
X6200000Y-11200000D03*
%TD*%
%TA.AperFunction,Conductor*%
%TO.N,GND*%
G36*
X99520536Y-520185D02*
G01*
X99566291Y-572989D01*
X99576235Y-642147D01*
X99547210Y-705703D01*
X99504573Y-737492D01*
X99337034Y-813223D01*
X99337032Y-813224D01*
X99145999Y-942342D01*
X98979540Y-1101878D01*
X98842434Y-1287257D01*
X98738630Y-1493138D01*
X98671113Y-1713606D01*
X98641828Y-1942306D01*
X98651613Y-2172662D01*
X98651614Y-2172670D01*
X98700190Y-2398062D01*
X98700190Y-2398063D01*
X98786157Y-2612002D01*
X98907048Y-2808342D01*
X99059380Y-2981425D01*
X99059384Y-2981429D01*
X99238765Y-3126269D01*
X99238766Y-3126270D01*
X99238769Y-3126271D01*
X99238772Y-3126274D01*
X99440063Y-3238721D01*
X99657462Y-3315533D01*
X99784272Y-3337277D01*
X99884706Y-3354499D01*
X99884715Y-3354500D01*
X100057540Y-3354500D01*
X100229734Y-3339844D01*
X100229737Y-3339843D01*
X100229739Y-3339843D01*
X100452869Y-3281745D01*
X100581229Y-3223722D01*
X100662965Y-3186776D01*
X100662967Y-3186775D01*
X100662967Y-3186774D01*
X100662971Y-3186773D01*
X100854000Y-3057659D01*
X101020462Y-2898119D01*
X101157566Y-2712742D01*
X101261370Y-2506860D01*
X101261370Y-2506858D01*
X101263741Y-2502157D01*
X101265339Y-2502962D01*
X101303692Y-2454311D01*
X101369746Y-2431537D01*
X101437626Y-2448089D01*
X101485782Y-2498713D01*
X101499500Y-2555403D01*
X101499500Y-3838503D01*
X101479815Y-3905542D01*
X101427011Y-3951297D01*
X101357853Y-3961241D01*
X101300459Y-3937219D01*
X101230697Y-3884187D01*
X101230690Y-3884183D01*
X101066744Y-3808333D01*
X101066740Y-3808331D01*
X100890322Y-3769500D01*
X100754972Y-3769500D01*
X100754970Y-3769500D01*
X100620413Y-3784134D01*
X100449225Y-3841814D01*
X100294437Y-3934947D01*
X100294436Y-3934948D01*
X100163290Y-4059175D01*
X100061915Y-4208695D01*
X100061914Y-4208698D01*
X99995054Y-4376502D01*
X99995053Y-4376505D01*
X99995053Y-4376508D01*
X99967390Y-4545250D01*
X99965828Y-4554776D01*
X99975607Y-4735152D01*
X99975608Y-4735154D01*
X100023934Y-4909209D01*
X100023937Y-4909215D01*
X100066243Y-4989013D01*
X100108551Y-5068814D01*
X100108552Y-5068815D01*
X100225498Y-5206494D01*
X100341210Y-5294457D01*
X100369308Y-5315816D01*
X100533256Y-5391667D01*
X100533257Y-5391667D01*
X100533259Y-5391668D01*
X100586782Y-5403448D01*
X100709678Y-5430500D01*
X100709681Y-5430500D01*
X100845022Y-5430500D01*
X100845028Y-5430500D01*
X100979586Y-5415866D01*
X101150774Y-5358186D01*
X101305561Y-5265054D01*
X101305562Y-5265053D01*
X101311321Y-5261588D01*
X101312914Y-5264236D01*
X101365442Y-5244056D01*
X101433857Y-5258238D01*
X101483744Y-5307156D01*
X101499500Y-5367647D01*
X101499500Y-13957732D01*
X101479815Y-14024771D01*
X101427011Y-14070526D01*
X101357853Y-14080470D01*
X101294297Y-14051445D01*
X101260442Y-14003966D01*
X101213842Y-13887997D01*
X101213841Y-13887994D01*
X101092951Y-13691657D01*
X100940620Y-13518575D01*
X100940619Y-13518574D01*
X100940615Y-13518570D01*
X100761234Y-13373730D01*
X100761233Y-13373729D01*
X100559938Y-13261279D01*
X100342541Y-13184468D01*
X100342540Y-13184467D01*
X100342538Y-13184467D01*
X100342534Y-13184466D01*
X100342533Y-13184466D01*
X100115293Y-13145500D01*
X100115285Y-13145500D01*
X99942465Y-13145500D01*
X99942460Y-13145500D01*
X99770265Y-13160155D01*
X99547131Y-13218254D01*
X99337034Y-13313223D01*
X99337032Y-13313224D01*
X99145999Y-13442342D01*
X98979540Y-13601878D01*
X98842434Y-13787257D01*
X98738630Y-13993138D01*
X98671113Y-14213606D01*
X98641828Y-14442306D01*
X98651613Y-14672662D01*
X98651614Y-14672670D01*
X98700190Y-14898062D01*
X98700190Y-14898063D01*
X98786157Y-15112002D01*
X98907048Y-15308342D01*
X99059380Y-15481425D01*
X99059384Y-15481429D01*
X99238765Y-15626269D01*
X99238766Y-15626270D01*
X99238769Y-15626271D01*
X99238772Y-15626274D01*
X99440063Y-15738720D01*
X99440063Y-15738721D01*
X99496278Y-15758583D01*
X99552931Y-15799477D01*
X99578481Y-15864507D01*
X99564817Y-15933028D01*
X99516277Y-15983284D01*
X99454969Y-15999500D01*
X97974845Y-15999500D01*
X97907806Y-15979815D01*
X97862051Y-15927011D01*
X97852107Y-15857853D01*
X97881132Y-15794297D01*
X97889570Y-15785477D01*
X97936709Y-15740824D01*
X97973354Y-15686776D01*
X98038083Y-15591307D01*
X98104947Y-15423492D01*
X98134172Y-15245227D01*
X98124392Y-15064848D01*
X98108292Y-15006860D01*
X98076065Y-14890790D01*
X98076062Y-14890784D01*
X98067417Y-14874479D01*
X97991449Y-14731186D01*
X97874502Y-14593506D01*
X97874501Y-14593505D01*
X97730698Y-14484188D01*
X97730690Y-14484183D01*
X97566744Y-14408333D01*
X97566740Y-14408331D01*
X97390322Y-14369500D01*
X97254972Y-14369500D01*
X97254970Y-14369500D01*
X97120413Y-14384134D01*
X96949225Y-14441814D01*
X96794437Y-14534947D01*
X96794436Y-14534948D01*
X96663290Y-14659175D01*
X96561915Y-14808695D01*
X96561914Y-14808698D01*
X96495054Y-14976502D01*
X96495053Y-14976505D01*
X96491476Y-14998327D01*
X96472840Y-15112006D01*
X96465828Y-15154776D01*
X96475607Y-15335152D01*
X96475608Y-15335154D01*
X96523934Y-15509209D01*
X96523937Y-15509215D01*
X96549621Y-15557659D01*
X96608551Y-15668814D01*
X96608552Y-15668815D01*
X96715925Y-15795224D01*
X96744323Y-15859063D01*
X96733699Y-15928120D01*
X96687426Y-15980471D01*
X96621417Y-15999500D01*
X11920812Y-15999500D01*
X11853773Y-15979815D01*
X11808018Y-15927011D01*
X11797873Y-15859314D01*
X11798066Y-15857853D01*
X11805682Y-15800000D01*
X11800229Y-15758583D01*
X11785044Y-15643239D01*
X11785042Y-15643234D01*
X11778015Y-15626270D01*
X11729529Y-15509212D01*
X11724658Y-15497452D01*
X11717189Y-15427983D01*
X11724658Y-15402548D01*
X11763679Y-15308342D01*
X11785044Y-15256762D01*
X11804161Y-15111551D01*
X11832427Y-15047655D01*
X11890752Y-15009184D01*
X11943285Y-15004798D01*
X11950000Y-15005682D01*
X11950001Y-15005682D01*
X12005867Y-14998327D01*
X12106762Y-14985044D01*
X12252841Y-14924536D01*
X12378282Y-14828282D01*
X12474536Y-14702841D01*
X12535044Y-14556762D01*
X12555682Y-14400000D01*
X12535044Y-14243238D01*
X12474536Y-14097159D01*
X12378282Y-13971718D01*
X12252841Y-13875464D01*
X12106762Y-13814956D01*
X12106760Y-13814955D01*
X11950001Y-13794318D01*
X11949999Y-13794318D01*
X11793239Y-13814955D01*
X11793237Y-13814956D01*
X11647156Y-13875465D01*
X11640119Y-13879528D01*
X11638890Y-13877400D01*
X11585276Y-13898107D01*
X11516836Y-13884047D01*
X11509162Y-13879113D01*
X11502836Y-13875461D01*
X11356765Y-13814957D01*
X11356760Y-13814955D01*
X11200001Y-13794318D01*
X11199999Y-13794318D01*
X11043239Y-13814955D01*
X11043237Y-13814956D01*
X10897160Y-13875463D01*
X10771718Y-13971718D01*
X10675463Y-14097160D01*
X10614956Y-14243237D01*
X10614955Y-14243239D01*
X10594318Y-14399998D01*
X10594318Y-14400001D01*
X10614955Y-14556760D01*
X10614957Y-14556765D01*
X10675342Y-14702548D01*
X10682811Y-14772017D01*
X10675342Y-14797452D01*
X10614957Y-14943234D01*
X10614955Y-14943239D01*
X10594318Y-15099998D01*
X10594318Y-15100001D01*
X10614955Y-15256760D01*
X10614957Y-15256765D01*
X10675342Y-15402548D01*
X10682811Y-15472017D01*
X10675342Y-15497452D01*
X10614957Y-15643234D01*
X10614955Y-15643239D01*
X10594849Y-15795967D01*
X10594318Y-15800000D01*
X10601934Y-15857853D01*
X10602127Y-15859314D01*
X10591362Y-15928350D01*
X10544982Y-15980606D01*
X10479188Y-15999500D01*
X7520812Y-15999500D01*
X7453773Y-15979815D01*
X7408018Y-15927011D01*
X7397873Y-15859314D01*
X7398066Y-15857853D01*
X7405682Y-15800000D01*
X7400229Y-15758583D01*
X7385044Y-15643239D01*
X7385042Y-15643234D01*
X7378015Y-15626270D01*
X7329529Y-15509212D01*
X7324658Y-15497452D01*
X7317189Y-15427983D01*
X7324658Y-15402548D01*
X7363679Y-15308342D01*
X7385044Y-15256762D01*
X7405682Y-15100000D01*
X7393148Y-15004798D01*
X7385044Y-14943239D01*
X7385042Y-14943234D01*
X7376436Y-14922458D01*
X7337428Y-14828282D01*
X7324658Y-14797452D01*
X7317189Y-14727983D01*
X7324658Y-14702548D01*
X7369824Y-14593506D01*
X7385044Y-14556762D01*
X7405682Y-14400000D01*
X7385044Y-14243238D01*
X7324536Y-14097159D01*
X7228282Y-13971718D01*
X7102841Y-13875464D01*
X6956762Y-13814956D01*
X6956760Y-13814955D01*
X6800001Y-13794318D01*
X6799999Y-13794318D01*
X6643239Y-13814955D01*
X6643237Y-13814956D01*
X6497158Y-13875464D01*
X6475484Y-13892095D01*
X6410314Y-13917287D01*
X6341870Y-13903247D01*
X6324516Y-13892095D01*
X6302841Y-13875464D01*
X6156762Y-13814956D01*
X6156760Y-13814955D01*
X6000001Y-13794318D01*
X5999999Y-13794318D01*
X5843239Y-13814955D01*
X5843237Y-13814956D01*
X5697160Y-13875463D01*
X5571718Y-13971718D01*
X5475463Y-14097160D01*
X5414956Y-14243237D01*
X5414955Y-14243239D01*
X5394318Y-14399998D01*
X5394318Y-14400001D01*
X5414955Y-14556760D01*
X5414956Y-14556762D01*
X5475342Y-14702548D01*
X5475464Y-14702841D01*
X5571718Y-14828282D01*
X5697159Y-14924536D01*
X5843238Y-14985044D01*
X6000000Y-15005682D01*
X6055863Y-14998327D01*
X6124896Y-15009092D01*
X6177152Y-15055471D01*
X6194986Y-15105080D01*
X6201529Y-15154773D01*
X6213437Y-15245227D01*
X6214956Y-15256760D01*
X6214957Y-15256765D01*
X6275342Y-15402548D01*
X6282811Y-15472017D01*
X6275342Y-15497452D01*
X6214957Y-15643234D01*
X6214955Y-15643239D01*
X6194849Y-15795967D01*
X6194318Y-15800000D01*
X6201934Y-15857853D01*
X6202127Y-15859314D01*
X6191362Y-15928350D01*
X6144982Y-15980606D01*
X6079188Y-15999500D01*
X2546503Y-15999500D01*
X2479464Y-15979815D01*
X2433709Y-15927011D01*
X2423765Y-15857853D01*
X2452790Y-15794297D01*
X2495427Y-15762508D01*
X2662965Y-15686776D01*
X2662967Y-15686775D01*
X2662967Y-15686774D01*
X2662971Y-15686773D01*
X2854000Y-15557659D01*
X3020462Y-15398119D01*
X3157566Y-15212742D01*
X3261370Y-15006860D01*
X3328886Y-14786397D01*
X3358172Y-14557694D01*
X3358132Y-14556762D01*
X3348386Y-14327337D01*
X3348386Y-14327332D01*
X3299810Y-14101938D01*
X3213841Y-13887994D01*
X3092951Y-13691657D01*
X2940620Y-13518575D01*
X2940619Y-13518574D01*
X2940615Y-13518570D01*
X2761234Y-13373730D01*
X2761233Y-13373729D01*
X2559938Y-13261279D01*
X2342541Y-13184468D01*
X2342540Y-13184467D01*
X2342538Y-13184467D01*
X2342534Y-13184466D01*
X2342533Y-13184466D01*
X2115293Y-13145500D01*
X2115285Y-13145500D01*
X1942465Y-13145500D01*
X1942460Y-13145500D01*
X1770265Y-13160155D01*
X1547131Y-13218254D01*
X1337034Y-13313223D01*
X1337032Y-13313224D01*
X1145999Y-13442342D01*
X979540Y-13601878D01*
X842434Y-13787257D01*
X828468Y-13814957D01*
X763106Y-13944596D01*
X736259Y-13997843D01*
X734663Y-13997038D01*
X696295Y-14045698D01*
X630238Y-14068463D01*
X562359Y-14051902D01*
X514210Y-14001272D01*
X500500Y-13944596D01*
X500500Y-12100000D01*
X5544722Y-12100000D01*
X5563762Y-12256818D01*
X5619780Y-12404522D01*
X5619780Y-12404523D01*
X5709517Y-12534530D01*
X5827760Y-12639283D01*
X5827762Y-12639284D01*
X5967634Y-12712696D01*
X6121014Y-12750500D01*
X6121015Y-12750500D01*
X6278985Y-12750500D01*
X6432365Y-12712696D01*
X6432364Y-12712696D01*
X6572240Y-12639283D01*
X6690483Y-12534530D01*
X6780220Y-12404523D01*
X6836237Y-12256818D01*
X6855278Y-12100000D01*
X6836237Y-11943182D01*
X6780220Y-11795477D01*
X6728423Y-11720436D01*
X6706542Y-11654086D01*
X6724007Y-11586435D01*
X6728403Y-11579592D01*
X6780220Y-11504523D01*
X6836237Y-11356818D01*
X6855278Y-11200000D01*
X6836237Y-11043182D01*
X6780220Y-10895477D01*
X6690483Y-10765470D01*
X6572240Y-10660717D01*
X6572238Y-10660716D01*
X6572237Y-10660715D01*
X6432365Y-10587303D01*
X6278986Y-10549500D01*
X6278985Y-10549500D01*
X6121015Y-10549500D01*
X6121014Y-10549500D01*
X5967634Y-10587303D01*
X5827762Y-10660715D01*
X5709516Y-10765471D01*
X5619781Y-10895475D01*
X5619780Y-10895476D01*
X5563762Y-11043181D01*
X5544722Y-11199999D01*
X5544722Y-11200000D01*
X5563762Y-11356818D01*
X5619780Y-11504523D01*
X5619781Y-11504524D01*
X5671574Y-11579560D01*
X5693457Y-11645915D01*
X5675991Y-11713566D01*
X5671574Y-11720440D01*
X5619781Y-11795475D01*
X5619780Y-11795476D01*
X5563762Y-11943181D01*
X5544722Y-12099999D01*
X5544722Y-12100000D01*
X500500Y-12100000D01*
X500500Y-9800743D01*
X62161500Y-9800743D01*
X62176925Y-9952439D01*
X62237837Y-10146579D01*
X62237844Y-10146594D01*
X62336589Y-10324499D01*
X62336592Y-10324504D01*
X62469132Y-10478893D01*
X62469134Y-10478895D01*
X62630037Y-10603445D01*
X62630038Y-10603445D01*
X62630042Y-10603448D01*
X62812729Y-10693060D01*
X63009715Y-10744063D01*
X63212936Y-10754369D01*
X63414071Y-10723556D01*
X63604887Y-10652886D01*
X63777571Y-10545252D01*
X63925053Y-10405059D01*
X64041295Y-10238049D01*
X64121540Y-10051058D01*
X64162500Y-9851741D01*
X64162500Y-9800743D01*
X74961500Y-9800743D01*
X74976925Y-9952439D01*
X75037837Y-10146579D01*
X75037844Y-10146594D01*
X75136589Y-10324499D01*
X75136592Y-10324504D01*
X75269132Y-10478893D01*
X75269134Y-10478895D01*
X75430037Y-10603445D01*
X75430038Y-10603445D01*
X75430042Y-10603448D01*
X75612729Y-10693060D01*
X75809715Y-10744063D01*
X76012936Y-10754369D01*
X76214071Y-10723556D01*
X76404887Y-10652886D01*
X76577571Y-10545252D01*
X76725053Y-10405059D01*
X76841295Y-10238049D01*
X76921540Y-10051058D01*
X76962500Y-9851741D01*
X76962500Y-9800743D01*
X83391500Y-9800743D01*
X83406925Y-9952439D01*
X83467837Y-10146579D01*
X83467844Y-10146594D01*
X83566589Y-10324499D01*
X83566592Y-10324504D01*
X83699132Y-10478893D01*
X83699134Y-10478895D01*
X83860037Y-10603445D01*
X83860038Y-10603445D01*
X83860042Y-10603448D01*
X84042729Y-10693060D01*
X84239715Y-10744063D01*
X84442936Y-10754369D01*
X84644071Y-10723556D01*
X84834887Y-10652886D01*
X85007571Y-10545252D01*
X85155053Y-10405059D01*
X85271295Y-10238049D01*
X85351540Y-10051058D01*
X85392500Y-9851741D01*
X85392500Y-9800743D01*
X96191500Y-9800743D01*
X96206925Y-9952439D01*
X96267837Y-10146579D01*
X96267844Y-10146594D01*
X96366589Y-10324499D01*
X96366592Y-10324504D01*
X96499132Y-10478893D01*
X96499134Y-10478895D01*
X96660037Y-10603445D01*
X96660038Y-10603445D01*
X96660042Y-10603448D01*
X96842729Y-10693060D01*
X97039715Y-10744063D01*
X97242936Y-10754369D01*
X97444071Y-10723556D01*
X97634887Y-10652886D01*
X97807571Y-10545252D01*
X97955053Y-10405059D01*
X98071295Y-10238049D01*
X98151540Y-10051058D01*
X98192500Y-9851741D01*
X98192500Y-8599258D01*
X98177074Y-8447562D01*
X98177074Y-8447560D01*
X98116162Y-8253420D01*
X98116160Y-8253416D01*
X98116159Y-8253412D01*
X98017409Y-8075498D01*
X98017408Y-8075497D01*
X98017407Y-8075495D01*
X97884867Y-7921106D01*
X97884865Y-7921104D01*
X97723962Y-7796554D01*
X97723959Y-7796553D01*
X97723958Y-7796552D01*
X97541271Y-7706940D01*
X97344285Y-7655937D01*
X97344287Y-7655937D01*
X97208804Y-7649066D01*
X97141064Y-7645631D01*
X97141063Y-7645631D01*
X97141061Y-7645631D01*
X96939936Y-7676442D01*
X96939924Y-7676445D01*
X96749118Y-7747111D01*
X96749111Y-7747115D01*
X96576432Y-7854745D01*
X96576427Y-7854749D01*
X96428949Y-7994938D01*
X96428948Y-7994940D01*
X96312705Y-8161949D01*
X96232459Y-8348943D01*
X96191500Y-8548258D01*
X96191500Y-9800743D01*
X85392500Y-9800743D01*
X85392500Y-8600000D01*
X93636722Y-8600000D01*
X93655762Y-8756818D01*
X93711779Y-8904523D01*
X93711780Y-8904523D01*
X93801517Y-9034530D01*
X93919760Y-9139283D01*
X93919762Y-9139284D01*
X94059634Y-9212696D01*
X94213014Y-9250500D01*
X94213015Y-9250500D01*
X94370985Y-9250500D01*
X94524365Y-9212696D01*
X94524365Y-9212695D01*
X94664240Y-9139283D01*
X94782483Y-9034530D01*
X94872220Y-8904523D01*
X94928237Y-8756818D01*
X94947278Y-8600000D01*
X94940996Y-8548258D01*
X94928237Y-8443181D01*
X94892497Y-8348943D01*
X94872220Y-8295477D01*
X94782483Y-8165470D01*
X94664240Y-8060717D01*
X94664238Y-8060716D01*
X94664237Y-8060715D01*
X94524365Y-7987303D01*
X94370986Y-7949500D01*
X94370985Y-7949500D01*
X94213015Y-7949500D01*
X94213014Y-7949500D01*
X94059634Y-7987303D01*
X93919762Y-8060715D01*
X93903073Y-8075500D01*
X93805492Y-8161949D01*
X93801516Y-8165471D01*
X93711781Y-8295475D01*
X93711780Y-8295476D01*
X93655762Y-8443181D01*
X93636722Y-8599999D01*
X93636722Y-8600000D01*
X85392500Y-8600000D01*
X85392500Y-8599258D01*
X85377074Y-8447562D01*
X85377074Y-8447560D01*
X85316162Y-8253420D01*
X85316160Y-8253416D01*
X85316159Y-8253412D01*
X85217409Y-8075498D01*
X85217408Y-8075497D01*
X85217407Y-8075495D01*
X85084867Y-7921106D01*
X85084865Y-7921104D01*
X84923962Y-7796554D01*
X84923959Y-7796553D01*
X84923958Y-7796552D01*
X84741271Y-7706940D01*
X84544285Y-7655937D01*
X84544287Y-7655937D01*
X84408804Y-7649066D01*
X84341064Y-7645631D01*
X84341063Y-7645631D01*
X84341061Y-7645631D01*
X84139936Y-7676442D01*
X84139924Y-7676445D01*
X83949118Y-7747111D01*
X83949111Y-7747115D01*
X83776432Y-7854745D01*
X83776427Y-7854749D01*
X83628949Y-7994938D01*
X83628948Y-7994940D01*
X83512705Y-8161949D01*
X83432459Y-8348943D01*
X83391500Y-8548258D01*
X83391500Y-9800743D01*
X76962500Y-9800743D01*
X76962500Y-8599258D01*
X76947074Y-8447562D01*
X76947074Y-8447560D01*
X76886162Y-8253420D01*
X76886160Y-8253416D01*
X76886159Y-8253412D01*
X76787409Y-8075498D01*
X76787408Y-8075497D01*
X76787407Y-8075495D01*
X76654867Y-7921106D01*
X76654865Y-7921104D01*
X76493962Y-7796554D01*
X76493959Y-7796553D01*
X76493958Y-7796552D01*
X76311271Y-7706940D01*
X76114285Y-7655937D01*
X76114287Y-7655937D01*
X75978804Y-7649066D01*
X75911064Y-7645631D01*
X75911063Y-7645631D01*
X75911061Y-7645631D01*
X75709936Y-7676442D01*
X75709924Y-7676445D01*
X75519118Y-7747111D01*
X75519111Y-7747115D01*
X75346432Y-7854745D01*
X75346427Y-7854749D01*
X75198949Y-7994938D01*
X75198948Y-7994940D01*
X75082705Y-8161949D01*
X75002459Y-8348943D01*
X74961500Y-8548258D01*
X74961500Y-9800743D01*
X64162500Y-9800743D01*
X64162500Y-8600000D01*
X72406722Y-8600000D01*
X72425762Y-8756818D01*
X72481779Y-8904523D01*
X72481780Y-8904523D01*
X72571517Y-9034530D01*
X72689760Y-9139283D01*
X72689762Y-9139284D01*
X72829634Y-9212696D01*
X72983014Y-9250500D01*
X72983015Y-9250500D01*
X73140985Y-9250500D01*
X73294365Y-9212696D01*
X73294364Y-9212696D01*
X73434240Y-9139283D01*
X73552483Y-9034530D01*
X73642220Y-8904523D01*
X73698237Y-8756818D01*
X73717278Y-8600000D01*
X73710996Y-8548258D01*
X73698237Y-8443181D01*
X73662497Y-8348943D01*
X73642220Y-8295477D01*
X73552483Y-8165470D01*
X73434240Y-8060717D01*
X73434238Y-8060716D01*
X73434237Y-8060715D01*
X73294365Y-7987303D01*
X73140986Y-7949500D01*
X73140985Y-7949500D01*
X72983015Y-7949500D01*
X72983014Y-7949500D01*
X72829634Y-7987303D01*
X72689762Y-8060715D01*
X72673073Y-8075500D01*
X72575492Y-8161949D01*
X72571516Y-8165471D01*
X72481781Y-8295475D01*
X72481780Y-8295476D01*
X72425762Y-8443181D01*
X72406722Y-8599999D01*
X72406722Y-8600000D01*
X64162500Y-8600000D01*
X64162500Y-8599258D01*
X64147074Y-8447562D01*
X64147074Y-8447560D01*
X64086162Y-8253420D01*
X64086160Y-8253416D01*
X64086159Y-8253412D01*
X63987409Y-8075498D01*
X63987408Y-8075497D01*
X63987407Y-8075495D01*
X63854867Y-7921106D01*
X63854865Y-7921104D01*
X63693962Y-7796554D01*
X63693959Y-7796553D01*
X63693958Y-7796552D01*
X63511271Y-7706940D01*
X63314285Y-7655937D01*
X63314287Y-7655937D01*
X63178804Y-7649066D01*
X63111064Y-7645631D01*
X63111063Y-7645631D01*
X63111061Y-7645631D01*
X62909936Y-7676442D01*
X62909924Y-7676445D01*
X62719118Y-7747111D01*
X62719111Y-7747115D01*
X62546432Y-7854745D01*
X62546427Y-7854749D01*
X62398949Y-7994938D01*
X62398948Y-7994940D01*
X62282705Y-8161949D01*
X62202459Y-8348943D01*
X62161500Y-8548258D01*
X62161500Y-9800743D01*
X500500Y-9800743D01*
X500500Y-7376116D01*
X3827500Y-7376116D01*
X3842486Y-7513911D01*
X3901557Y-7689223D01*
X3901558Y-7689225D01*
X3936389Y-7747115D01*
X3987949Y-7832810D01*
X3996931Y-7847737D01*
X3996932Y-7847738D01*
X4124149Y-7982040D01*
X4157311Y-8004524D01*
X4277270Y-8085858D01*
X4277273Y-8085859D01*
X4277276Y-8085861D01*
X4449122Y-8154330D01*
X4449125Y-8154331D01*
X4631683Y-8184260D01*
X4816407Y-8174245D01*
X4816411Y-8174244D01*
X4994656Y-8124755D01*
X4994656Y-8124754D01*
X4994659Y-8124754D01*
X5158104Y-8038100D01*
X5299100Y-7918337D01*
X5411054Y-7771064D01*
X5488732Y-7603167D01*
X5528500Y-7422497D01*
X5528500Y-6787223D01*
X5548185Y-6720185D01*
X5600989Y-6674430D01*
X5670147Y-6664486D01*
X5727983Y-6688846D01*
X5815750Y-6756192D01*
X5956720Y-6814584D01*
X6013370Y-6822042D01*
X6070019Y-6829500D01*
X6070020Y-6829500D01*
X6145981Y-6829500D01*
X6183746Y-6824528D01*
X6259280Y-6814584D01*
X6400250Y-6756192D01*
X6521304Y-6663304D01*
X6614192Y-6542250D01*
X6672584Y-6401280D01*
X6692500Y-6250001D01*
X11303500Y-6250001D01*
X11323415Y-6401278D01*
X11323416Y-6401280D01*
X11381806Y-6542247D01*
X11381807Y-6542249D01*
X11381808Y-6542250D01*
X11474696Y-6663304D01*
X11595750Y-6756192D01*
X11736720Y-6814584D01*
X11793370Y-6822042D01*
X11850019Y-6829500D01*
X11850020Y-6829500D01*
X11925981Y-6829500D01*
X11963746Y-6824528D01*
X12039280Y-6814584D01*
X12180250Y-6756192D01*
X12268014Y-6688848D01*
X12333181Y-6663654D01*
X12401626Y-6677692D01*
X12451616Y-6726505D01*
X12467499Y-6787224D01*
X12467499Y-7376106D01*
X12467500Y-7376116D01*
X12482486Y-7513911D01*
X12541557Y-7689223D01*
X12541558Y-7689225D01*
X12576389Y-7747115D01*
X12627949Y-7832810D01*
X12636931Y-7847737D01*
X12636932Y-7847738D01*
X12764149Y-7982040D01*
X12797311Y-8004524D01*
X12917270Y-8085858D01*
X12917273Y-8085859D01*
X12917276Y-8085861D01*
X13089122Y-8154330D01*
X13089125Y-8154331D01*
X13271683Y-8184260D01*
X13456407Y-8174245D01*
X13456411Y-8174244D01*
X13634656Y-8124755D01*
X13634656Y-8124754D01*
X13634659Y-8124754D01*
X13798104Y-8038100D01*
X13939100Y-7918337D01*
X13969203Y-7878736D01*
X14025444Y-7837280D01*
X14095171Y-7832810D01*
X14156245Y-7866746D01*
X14183861Y-7909807D01*
X14219782Y-8004523D01*
X14309519Y-8134530D01*
X14427762Y-8239283D01*
X14427764Y-8239284D01*
X14567636Y-8312696D01*
X14721016Y-8350500D01*
X14721017Y-8350500D01*
X14878987Y-8350500D01*
X15032367Y-8312696D01*
X15172239Y-8239285D01*
X15172240Y-8239283D01*
X15172242Y-8239283D01*
X15217775Y-8198944D01*
X15281007Y-8169224D01*
X15350271Y-8178408D01*
X15382225Y-8198943D01*
X15415417Y-8228348D01*
X15427762Y-8239285D01*
X15567634Y-8312696D01*
X15721014Y-8350500D01*
X15721015Y-8350500D01*
X15878985Y-8350500D01*
X16032365Y-8312696D01*
X16032364Y-8312696D01*
X16172240Y-8239283D01*
X16290483Y-8134530D01*
X16380220Y-8004523D01*
X16436237Y-7856818D01*
X16455278Y-7700000D01*
X16453970Y-7689223D01*
X16436237Y-7543181D01*
X16390466Y-7422494D01*
X16380220Y-7395477D01*
X16290483Y-7265470D01*
X16194006Y-7180000D01*
X20774722Y-7180000D01*
X20793762Y-7336818D01*
X20849780Y-7484523D01*
X20939517Y-7614530D01*
X21057760Y-7719283D01*
X21057762Y-7719284D01*
X21197634Y-7792696D01*
X21351014Y-7830500D01*
X21351015Y-7830500D01*
X21508985Y-7830500D01*
X21662365Y-7792696D01*
X21662364Y-7792696D01*
X21802240Y-7719283D01*
X21920483Y-7614530D01*
X22010220Y-7484523D01*
X22051333Y-7376116D01*
X45371500Y-7376116D01*
X45386486Y-7513911D01*
X45445557Y-7689223D01*
X45445558Y-7689225D01*
X45480389Y-7747115D01*
X45531949Y-7832810D01*
X45540931Y-7847737D01*
X45540932Y-7847738D01*
X45668149Y-7982040D01*
X45701311Y-8004524D01*
X45821270Y-8085858D01*
X45821273Y-8085859D01*
X45821276Y-8085861D01*
X45993122Y-8154330D01*
X45993125Y-8154331D01*
X46175683Y-8184260D01*
X46360407Y-8174245D01*
X46360411Y-8174244D01*
X46538656Y-8124755D01*
X46538656Y-8124754D01*
X46538659Y-8124754D01*
X46702104Y-8038100D01*
X46843100Y-7918337D01*
X46955054Y-7771064D01*
X47032732Y-7603167D01*
X47072500Y-7422497D01*
X47072500Y-6787223D01*
X47092185Y-6720185D01*
X47144989Y-6674430D01*
X47214147Y-6664486D01*
X47271983Y-6688846D01*
X47359750Y-6756192D01*
X47500720Y-6814584D01*
X47557370Y-6822042D01*
X47614019Y-6829500D01*
X47614020Y-6829500D01*
X47689981Y-6829500D01*
X47727746Y-6824528D01*
X47803280Y-6814584D01*
X47944250Y-6756192D01*
X48065304Y-6663304D01*
X48111803Y-6602705D01*
X48168230Y-6561503D01*
X48237976Y-6557348D01*
X48298896Y-6591560D01*
X48312227Y-6607751D01*
X48368606Y-6689430D01*
X48486849Y-6794183D01*
X48486851Y-6794184D01*
X48626723Y-6867596D01*
X48780103Y-6905400D01*
X48780104Y-6905400D01*
X48938074Y-6905400D01*
X49091454Y-6867596D01*
X49091453Y-6867596D01*
X49231329Y-6794183D01*
X49349572Y-6689430D01*
X49439309Y-6559423D01*
X49495326Y-6411718D01*
X49514367Y-6254900D01*
X51569633Y-6254900D01*
X51588673Y-6411718D01*
X51643904Y-6557348D01*
X51644691Y-6559423D01*
X51734428Y-6689430D01*
X51852671Y-6794183D01*
X51852673Y-6794184D01*
X51992545Y-6867596D01*
X52145925Y-6905400D01*
X52145926Y-6905400D01*
X52303896Y-6905400D01*
X52457276Y-6867596D01*
X52457276Y-6867595D01*
X52597151Y-6794183D01*
X52715394Y-6689430D01*
X52771773Y-6607750D01*
X52826053Y-6563762D01*
X52895501Y-6556102D01*
X52958066Y-6587205D01*
X52972196Y-6602705D01*
X52976069Y-6607752D01*
X53018696Y-6663304D01*
X53139750Y-6756192D01*
X53280720Y-6814584D01*
X53337370Y-6822042D01*
X53394019Y-6829500D01*
X53394020Y-6829500D01*
X53469981Y-6829500D01*
X53507746Y-6824528D01*
X53583280Y-6814584D01*
X53724250Y-6756192D01*
X53812015Y-6688846D01*
X53877182Y-6663654D01*
X53945627Y-6677692D01*
X53995617Y-6726506D01*
X54011500Y-6787224D01*
X54011500Y-7376116D01*
X54026486Y-7513911D01*
X54085557Y-7689223D01*
X54085558Y-7689225D01*
X54120389Y-7747115D01*
X54171949Y-7832810D01*
X54180931Y-7847737D01*
X54180932Y-7847738D01*
X54308149Y-7982040D01*
X54341311Y-8004524D01*
X54461270Y-8085858D01*
X54461273Y-8085859D01*
X54461276Y-8085861D01*
X54633122Y-8154330D01*
X54633125Y-8154331D01*
X54815683Y-8184260D01*
X55000407Y-8174245D01*
X55000411Y-8174244D01*
X55178656Y-8124755D01*
X55178656Y-8124754D01*
X55178659Y-8124754D01*
X55342104Y-8038100D01*
X55483100Y-7918337D01*
X55595054Y-7771064D01*
X55672732Y-7603167D01*
X55712500Y-7422497D01*
X55712500Y-6183887D01*
X55697514Y-6046090D01*
X55638444Y-5870779D01*
X55543070Y-5712264D01*
X55488375Y-5654523D01*
X55415850Y-5577959D01*
X55333165Y-5521898D01*
X55262730Y-5474142D01*
X55262727Y-5474140D01*
X55262723Y-5474138D01*
X55090877Y-5405669D01*
X55005461Y-5391666D01*
X54908317Y-5375740D01*
X54908314Y-5375740D01*
X54723593Y-5385755D01*
X54723588Y-5385755D01*
X54545343Y-5435244D01*
X54545337Y-5435247D01*
X54381897Y-5521898D01*
X54240900Y-5641662D01*
X54128946Y-5788936D01*
X54094564Y-5863250D01*
X54048549Y-5915828D01*
X53981413Y-5935181D01*
X53914472Y-5915166D01*
X53883651Y-5886671D01*
X53845304Y-5836696D01*
X53724250Y-5743808D01*
X53724249Y-5743807D01*
X53724247Y-5743806D01*
X53583280Y-5685416D01*
X53583278Y-5685415D01*
X53469981Y-5670500D01*
X53469980Y-5670500D01*
X53394020Y-5670500D01*
X53394019Y-5670500D01*
X53280721Y-5685415D01*
X53280719Y-5685416D01*
X53139752Y-5743806D01*
X53086680Y-5784530D01*
X53039973Y-5820370D01*
X53018695Y-5836697D01*
X52968635Y-5901936D01*
X52912207Y-5943138D01*
X52842460Y-5947292D01*
X52781541Y-5913079D01*
X52768210Y-5896888D01*
X52762961Y-5889284D01*
X52715394Y-5820370D01*
X52597151Y-5715617D01*
X52597149Y-5715616D01*
X52597148Y-5715615D01*
X52457276Y-5642203D01*
X52303897Y-5604400D01*
X52303896Y-5604400D01*
X52145926Y-5604400D01*
X52145925Y-5604400D01*
X51992545Y-5642203D01*
X51852673Y-5715615D01*
X51734427Y-5820371D01*
X51644692Y-5950375D01*
X51644691Y-5950376D01*
X51588673Y-6098081D01*
X51569633Y-6254899D01*
X51569633Y-6254900D01*
X49514367Y-6254900D01*
X49509161Y-6212020D01*
X49495326Y-6098081D01*
X49458318Y-6000500D01*
X49439309Y-5950377D01*
X49349572Y-5820370D01*
X49231329Y-5715617D01*
X49231327Y-5715616D01*
X49231326Y-5715615D01*
X49091454Y-5642203D01*
X48938075Y-5604400D01*
X48938074Y-5604400D01*
X48780104Y-5604400D01*
X48780103Y-5604400D01*
X48626723Y-5642203D01*
X48486851Y-5715615D01*
X48368605Y-5820371D01*
X48315789Y-5896888D01*
X48261506Y-5940879D01*
X48192057Y-5948538D01*
X48129492Y-5917434D01*
X48115364Y-5901936D01*
X48065304Y-5836696D01*
X47944250Y-5743808D01*
X47944249Y-5743807D01*
X47944247Y-5743806D01*
X47803280Y-5685416D01*
X47803278Y-5685415D01*
X47689981Y-5670500D01*
X47689980Y-5670500D01*
X47614020Y-5670500D01*
X47614019Y-5670500D01*
X47500721Y-5685415D01*
X47500719Y-5685416D01*
X47359752Y-5743806D01*
X47306680Y-5784530D01*
X47259973Y-5820370D01*
X47238695Y-5836697D01*
X47203335Y-5882779D01*
X47146906Y-5923981D01*
X47077160Y-5928135D01*
X47016240Y-5893922D01*
X46998710Y-5871220D01*
X46922049Y-5743808D01*
X46903070Y-5712264D01*
X46848375Y-5654523D01*
X46775850Y-5577959D01*
X46693165Y-5521898D01*
X46622730Y-5474142D01*
X46622727Y-5474140D01*
X46622723Y-5474138D01*
X46450877Y-5405669D01*
X46365461Y-5391666D01*
X46268317Y-5375740D01*
X46268314Y-5375740D01*
X46083593Y-5385755D01*
X46083588Y-5385755D01*
X45905343Y-5435244D01*
X45905337Y-5435247D01*
X45741897Y-5521898D01*
X45600900Y-5641662D01*
X45488946Y-5788936D01*
X45411268Y-5956832D01*
X45411266Y-5956836D01*
X45371500Y-6137502D01*
X45371500Y-7376116D01*
X22051333Y-7376116D01*
X22066237Y-7336818D01*
X22085278Y-7180000D01*
X22082937Y-7160715D01*
X22066237Y-7023181D01*
X22021568Y-6905400D01*
X22010220Y-6875477D01*
X21920483Y-6745470D01*
X21802240Y-6640717D01*
X21802238Y-6640716D01*
X21802237Y-6640715D01*
X21662365Y-6567303D01*
X21508986Y-6529500D01*
X21508985Y-6529500D01*
X21351015Y-6529500D01*
X21351014Y-6529500D01*
X21197634Y-6567303D01*
X21057762Y-6640715D01*
X20939516Y-6745471D01*
X20849781Y-6875475D01*
X20849780Y-6875476D01*
X20793762Y-7023181D01*
X20774722Y-7179999D01*
X20774722Y-7180000D01*
X16194006Y-7180000D01*
X16172240Y-7160717D01*
X16172238Y-7160716D01*
X16172237Y-7160715D01*
X16032365Y-7087303D01*
X15878986Y-7049500D01*
X15878985Y-7049500D01*
X15721015Y-7049500D01*
X15721014Y-7049500D01*
X15567634Y-7087303D01*
X15427762Y-7160714D01*
X15382227Y-7201055D01*
X15318993Y-7230775D01*
X15249730Y-7221591D01*
X15217775Y-7201055D01*
X15172239Y-7160714D01*
X15032367Y-7087303D01*
X14878988Y-7049500D01*
X14878987Y-7049500D01*
X14721017Y-7049500D01*
X14721016Y-7049500D01*
X14567636Y-7087303D01*
X14427763Y-7160715D01*
X14427761Y-7160717D01*
X14374726Y-7207701D01*
X14311492Y-7237422D01*
X14242229Y-7228238D01*
X14188926Y-7183065D01*
X14168507Y-7116245D01*
X14168500Y-7114885D01*
X14168500Y-6183893D01*
X14168500Y-6183887D01*
X14153514Y-6046090D01*
X14094444Y-5870779D01*
X13999070Y-5712264D01*
X13944375Y-5654523D01*
X13871850Y-5577959D01*
X13789165Y-5521898D01*
X13718730Y-5474142D01*
X13718727Y-5474140D01*
X13718723Y-5474138D01*
X13546877Y-5405669D01*
X13461461Y-5391666D01*
X13364317Y-5375740D01*
X13364314Y-5375740D01*
X13179593Y-5385755D01*
X13179588Y-5385755D01*
X13001343Y-5435244D01*
X13001337Y-5435247D01*
X12837897Y-5521898D01*
X12696900Y-5641662D01*
X12584946Y-5788936D01*
X12550564Y-5863250D01*
X12504549Y-5915828D01*
X12437413Y-5935181D01*
X12370472Y-5915166D01*
X12339651Y-5886671D01*
X12301304Y-5836696D01*
X12180250Y-5743808D01*
X12180249Y-5743807D01*
X12180247Y-5743806D01*
X12039280Y-5685416D01*
X12039278Y-5685415D01*
X11925981Y-5670500D01*
X11925980Y-5670500D01*
X11850020Y-5670500D01*
X11850019Y-5670500D01*
X11736721Y-5685415D01*
X11736719Y-5685416D01*
X11595752Y-5743806D01*
X11474696Y-5836696D01*
X11381806Y-5957752D01*
X11323416Y-6098719D01*
X11323415Y-6098721D01*
X11303500Y-6249998D01*
X11303500Y-6250001D01*
X6692500Y-6250001D01*
X6692500Y-6250000D01*
X6672584Y-6098720D01*
X6614192Y-5957750D01*
X6521304Y-5836696D01*
X6400250Y-5743808D01*
X6400249Y-5743807D01*
X6400247Y-5743806D01*
X6259280Y-5685416D01*
X6259278Y-5685415D01*
X6145981Y-5670500D01*
X6145980Y-5670500D01*
X6070020Y-5670500D01*
X6070019Y-5670500D01*
X5956721Y-5685415D01*
X5956719Y-5685416D01*
X5815752Y-5743806D01*
X5762680Y-5784530D01*
X5715973Y-5820370D01*
X5694695Y-5836697D01*
X5659335Y-5882779D01*
X5602906Y-5923981D01*
X5533160Y-5928135D01*
X5472240Y-5893922D01*
X5454710Y-5871220D01*
X5378049Y-5743808D01*
X5359070Y-5712264D01*
X5304375Y-5654523D01*
X5231850Y-5577959D01*
X5149165Y-5521898D01*
X5078730Y-5474142D01*
X5078727Y-5474140D01*
X5078723Y-5474138D01*
X4906877Y-5405669D01*
X4821461Y-5391666D01*
X4724317Y-5375740D01*
X4724314Y-5375740D01*
X4539593Y-5385755D01*
X4539588Y-5385755D01*
X4361343Y-5435244D01*
X4361337Y-5435247D01*
X4197897Y-5521898D01*
X4056900Y-5641662D01*
X3944946Y-5788936D01*
X3867268Y-5956832D01*
X3867266Y-5956836D01*
X3827500Y-6137502D01*
X3827500Y-7376116D01*
X500500Y-7376116D01*
X500500Y-5361496D01*
X520185Y-5294457D01*
X572989Y-5248702D01*
X642147Y-5238758D01*
X699541Y-5262780D01*
X769308Y-5315816D01*
X933256Y-5391667D01*
X933257Y-5391667D01*
X933259Y-5391668D01*
X986782Y-5403448D01*
X1109678Y-5430500D01*
X1109681Y-5430500D01*
X1245022Y-5430500D01*
X1245028Y-5430500D01*
X1379586Y-5415866D01*
X1550774Y-5358186D01*
X1564379Y-5350000D01*
X35094722Y-5350000D01*
X35113762Y-5506818D01*
X35140743Y-5577959D01*
X35169780Y-5654523D01*
X35259517Y-5784530D01*
X35377760Y-5889283D01*
X35377762Y-5889284D01*
X35517634Y-5962696D01*
X35671014Y-6000500D01*
X35671015Y-6000500D01*
X35828985Y-6000500D01*
X35982365Y-5962696D01*
X35993538Y-5956832D01*
X36122240Y-5889283D01*
X36240483Y-5784530D01*
X36330220Y-5654523D01*
X36386237Y-5506818D01*
X36405278Y-5350000D01*
X36394964Y-5265051D01*
X36386237Y-5193181D01*
X36364992Y-5137164D01*
X36330220Y-5045477D01*
X36243912Y-4920438D01*
X36222030Y-4854086D01*
X36239495Y-4786434D01*
X36243905Y-4779571D01*
X36330220Y-4654523D01*
X36386237Y-4506818D01*
X36405278Y-4350000D01*
X36398089Y-4290788D01*
X36386237Y-4193181D01*
X36350508Y-4098973D01*
X36330220Y-4045477D01*
X36240483Y-3915470D01*
X36122240Y-3810717D01*
X36122238Y-3810716D01*
X36122237Y-3810715D01*
X35982365Y-3737303D01*
X35828986Y-3699500D01*
X35828985Y-3699500D01*
X35671015Y-3699500D01*
X35671014Y-3699500D01*
X35517634Y-3737303D01*
X35377762Y-3810715D01*
X35259516Y-3915471D01*
X35169781Y-4045475D01*
X35169780Y-4045476D01*
X35113762Y-4193181D01*
X35094722Y-4349999D01*
X35094722Y-4350000D01*
X35113762Y-4506818D01*
X35169780Y-4654523D01*
X35169781Y-4654524D01*
X35256086Y-4779560D01*
X35277969Y-4845915D01*
X35260503Y-4913566D01*
X35256086Y-4920440D01*
X35169781Y-5045475D01*
X35169780Y-5045476D01*
X35113762Y-5193181D01*
X35094722Y-5349999D01*
X35094722Y-5350000D01*
X1564379Y-5350000D01*
X1705561Y-5265054D01*
X1836708Y-5140825D01*
X1938083Y-4991307D01*
X2004947Y-4823492D01*
X2034172Y-4645227D01*
X2024392Y-4464848D01*
X1999864Y-4376508D01*
X1976065Y-4290790D01*
X1976064Y-4290787D01*
X1945206Y-4232582D01*
X1931196Y-4164131D01*
X1956418Y-4098973D01*
X2012863Y-4057793D01*
X2054762Y-4050500D01*
X2140259Y-4050500D01*
X2181961Y-4044768D01*
X2418161Y-4012303D01*
X2688275Y-3936620D01*
X2897100Y-3845914D01*
X2945566Y-3824863D01*
X2945568Y-3824862D01*
X3185246Y-3679111D01*
X3402845Y-3502081D01*
X3594312Y-3297069D01*
X3601894Y-3286327D01*
X3656632Y-3242909D01*
X3726157Y-3235977D01*
X3788393Y-3267733D01*
X3811619Y-3297655D01*
X3893839Y-3445788D01*
X3893842Y-3445792D01*
X3893842Y-3445793D01*
X4019758Y-3592466D01*
X4019759Y-3592468D01*
X4172624Y-3710794D01*
X4172627Y-3710796D01*
X4346184Y-3795930D01*
X4346188Y-3795931D01*
X4346186Y-3795931D01*
X4533317Y-3844383D01*
X4533320Y-3844383D01*
X4533326Y-3844385D01*
X4726390Y-3854176D01*
X4917474Y-3824903D01*
X5098753Y-3757764D01*
X5262807Y-3655509D01*
X5402919Y-3522323D01*
X5513353Y-3363658D01*
X5589587Y-3186012D01*
X5628500Y-2996656D01*
X5628500Y-2948207D01*
X12367500Y-2948207D01*
X12382154Y-3092322D01*
X12440022Y-3276759D01*
X12440029Y-3276774D01*
X12533839Y-3445788D01*
X12533842Y-3445793D01*
X12659758Y-3592466D01*
X12659759Y-3592468D01*
X12812624Y-3710794D01*
X12812627Y-3710796D01*
X12986184Y-3795930D01*
X12986188Y-3795931D01*
X12986186Y-3795931D01*
X13173317Y-3844383D01*
X13173320Y-3844383D01*
X13173326Y-3844385D01*
X13366390Y-3854176D01*
X13557474Y-3824903D01*
X13738753Y-3757764D01*
X13902807Y-3655509D01*
X14042919Y-3522323D01*
X14153353Y-3363658D01*
X14229587Y-3186012D01*
X14268500Y-2996656D01*
X14268500Y-2948207D01*
X45271500Y-2948207D01*
X45286154Y-3092322D01*
X45344022Y-3276759D01*
X45344029Y-3276774D01*
X45437839Y-3445788D01*
X45437842Y-3445793D01*
X45563758Y-3592466D01*
X45563759Y-3592468D01*
X45716624Y-3710794D01*
X45716627Y-3710796D01*
X45890184Y-3795930D01*
X45890188Y-3795931D01*
X45890186Y-3795931D01*
X46077317Y-3844383D01*
X46077320Y-3844383D01*
X46077326Y-3844385D01*
X46270390Y-3854176D01*
X46461474Y-3824903D01*
X46642753Y-3757764D01*
X46806807Y-3655509D01*
X46946919Y-3522323D01*
X47057353Y-3363658D01*
X47133587Y-3186012D01*
X47172500Y-2996656D01*
X47172500Y-2948207D01*
X53911500Y-2948207D01*
X53926154Y-3092322D01*
X53984022Y-3276759D01*
X53984029Y-3276774D01*
X54077839Y-3445788D01*
X54077842Y-3445793D01*
X54203758Y-3592466D01*
X54203759Y-3592468D01*
X54356624Y-3710794D01*
X54356627Y-3710796D01*
X54530184Y-3795930D01*
X54530188Y-3795931D01*
X54530186Y-3795931D01*
X54717317Y-3844383D01*
X54717320Y-3844383D01*
X54717326Y-3844385D01*
X54910390Y-3854176D01*
X55101474Y-3824903D01*
X55166707Y-3800743D01*
X62161500Y-3800743D01*
X62176925Y-3952439D01*
X62237837Y-4146579D01*
X62237844Y-4146594D01*
X62336589Y-4324499D01*
X62336592Y-4324504D01*
X62469132Y-4478893D01*
X62469134Y-4478895D01*
X62630037Y-4603445D01*
X62630038Y-4603445D01*
X62630042Y-4603448D01*
X62812729Y-4693060D01*
X63009715Y-4744063D01*
X63212936Y-4754369D01*
X63414071Y-4723556D01*
X63604887Y-4652886D01*
X63777571Y-4545252D01*
X63925053Y-4405059D01*
X64041295Y-4238049D01*
X64121540Y-4051058D01*
X64162500Y-3851741D01*
X64162500Y-3800743D01*
X74961500Y-3800743D01*
X74976925Y-3952439D01*
X75037837Y-4146579D01*
X75037844Y-4146594D01*
X75136589Y-4324499D01*
X75136592Y-4324504D01*
X75269132Y-4478893D01*
X75269134Y-4478895D01*
X75430037Y-4603445D01*
X75430038Y-4603445D01*
X75430042Y-4603448D01*
X75612729Y-4693060D01*
X75809715Y-4744063D01*
X76012936Y-4754369D01*
X76214071Y-4723556D01*
X76404887Y-4652886D01*
X76577571Y-4545252D01*
X76725053Y-4405059D01*
X76841295Y-4238049D01*
X76921540Y-4051058D01*
X76962500Y-3851741D01*
X76962500Y-3800743D01*
X83391500Y-3800743D01*
X83406925Y-3952439D01*
X83467837Y-4146579D01*
X83467844Y-4146594D01*
X83566589Y-4324499D01*
X83566592Y-4324504D01*
X83699132Y-4478893D01*
X83699134Y-4478895D01*
X83860037Y-4603445D01*
X83860038Y-4603445D01*
X83860042Y-4603448D01*
X84042729Y-4693060D01*
X84239715Y-4744063D01*
X84442936Y-4754369D01*
X84644071Y-4723556D01*
X84834887Y-4652886D01*
X85007571Y-4545252D01*
X85155053Y-4405059D01*
X85271295Y-4238049D01*
X85351540Y-4051058D01*
X85392500Y-3851741D01*
X85392500Y-3800743D01*
X96191500Y-3800743D01*
X96206925Y-3952439D01*
X96267837Y-4146579D01*
X96267844Y-4146594D01*
X96366589Y-4324499D01*
X96366592Y-4324504D01*
X96499132Y-4478893D01*
X96499134Y-4478895D01*
X96660037Y-4603445D01*
X96660038Y-4603445D01*
X96660042Y-4603448D01*
X96842729Y-4693060D01*
X97039715Y-4744063D01*
X97242936Y-4754369D01*
X97444071Y-4723556D01*
X97634887Y-4652886D01*
X97807571Y-4545252D01*
X97955053Y-4405059D01*
X98071295Y-4238049D01*
X98151540Y-4051058D01*
X98192500Y-3851741D01*
X98192500Y-2599258D01*
X98191003Y-2584530D01*
X98177074Y-2447560D01*
X98116162Y-2253420D01*
X98116160Y-2253416D01*
X98116159Y-2253412D01*
X98017409Y-2075498D01*
X98017408Y-2075497D01*
X98017407Y-2075495D01*
X97884867Y-1921106D01*
X97884865Y-1921104D01*
X97723962Y-1796554D01*
X97723959Y-1796553D01*
X97723958Y-1796552D01*
X97541271Y-1706940D01*
X97344285Y-1655937D01*
X97344287Y-1655937D01*
X97208804Y-1649066D01*
X97141064Y-1645631D01*
X97141063Y-1645631D01*
X97141061Y-1645631D01*
X96939936Y-1676442D01*
X96939924Y-1676445D01*
X96749118Y-1747111D01*
X96749111Y-1747115D01*
X96576432Y-1854745D01*
X96576427Y-1854749D01*
X96428949Y-1994938D01*
X96428948Y-1994940D01*
X96312705Y-2161949D01*
X96232459Y-2348943D01*
X96191500Y-2548258D01*
X96191500Y-3800743D01*
X85392500Y-3800743D01*
X85392500Y-2599258D01*
X85391003Y-2584530D01*
X85377074Y-2447560D01*
X85316162Y-2253420D01*
X85316160Y-2253416D01*
X85316159Y-2253412D01*
X85217409Y-2075498D01*
X85217408Y-2075497D01*
X85217407Y-2075495D01*
X85084867Y-1921106D01*
X85084865Y-1921104D01*
X84923962Y-1796554D01*
X84923959Y-1796553D01*
X84923958Y-1796552D01*
X84741271Y-1706940D01*
X84544285Y-1655937D01*
X84544287Y-1655937D01*
X84408804Y-1649066D01*
X84341064Y-1645631D01*
X84341063Y-1645631D01*
X84341061Y-1645631D01*
X84139936Y-1676442D01*
X84139924Y-1676445D01*
X83949118Y-1747111D01*
X83949111Y-1747115D01*
X83776432Y-1854745D01*
X83776427Y-1854749D01*
X83628949Y-1994938D01*
X83628948Y-1994940D01*
X83512705Y-2161949D01*
X83432459Y-2348943D01*
X83391500Y-2548258D01*
X83391500Y-3800743D01*
X76962500Y-3800743D01*
X76962500Y-2599258D01*
X76961003Y-2584530D01*
X76947074Y-2447560D01*
X76886162Y-2253420D01*
X76886160Y-2253416D01*
X76886159Y-2253412D01*
X76787409Y-2075498D01*
X76787408Y-2075497D01*
X76787407Y-2075495D01*
X76654867Y-1921106D01*
X76654865Y-1921104D01*
X76493962Y-1796554D01*
X76493959Y-1796553D01*
X76493958Y-1796552D01*
X76311271Y-1706940D01*
X76114285Y-1655937D01*
X76114287Y-1655937D01*
X75978804Y-1649066D01*
X75911064Y-1645631D01*
X75911063Y-1645631D01*
X75911061Y-1645631D01*
X75709936Y-1676442D01*
X75709924Y-1676445D01*
X75519118Y-1747111D01*
X75519111Y-1747115D01*
X75346432Y-1854745D01*
X75346427Y-1854749D01*
X75198949Y-1994938D01*
X75198948Y-1994940D01*
X75082705Y-2161949D01*
X75002459Y-2348943D01*
X74961500Y-2548258D01*
X74961500Y-3800743D01*
X64162500Y-3800743D01*
X64162500Y-2599258D01*
X64147074Y-2447562D01*
X64147074Y-2447560D01*
X64086162Y-2253420D01*
X64086160Y-2253416D01*
X64086159Y-2253412D01*
X63987409Y-2075498D01*
X63987408Y-2075497D01*
X63987407Y-2075495D01*
X63854867Y-1921106D01*
X63854865Y-1921104D01*
X63693962Y-1796554D01*
X63693959Y-1796553D01*
X63693958Y-1796552D01*
X63511271Y-1706940D01*
X63314285Y-1655937D01*
X63314287Y-1655937D01*
X63178804Y-1649066D01*
X63111064Y-1645631D01*
X63111063Y-1645631D01*
X63111061Y-1645631D01*
X62909936Y-1676442D01*
X62909924Y-1676445D01*
X62719118Y-1747111D01*
X62719111Y-1747115D01*
X62546432Y-1854745D01*
X62546427Y-1854749D01*
X62398949Y-1994938D01*
X62398948Y-1994940D01*
X62282705Y-2161949D01*
X62202459Y-2348943D01*
X62161500Y-2548258D01*
X62161500Y-3800743D01*
X55166707Y-3800743D01*
X55282753Y-3757764D01*
X55446807Y-3655509D01*
X55586919Y-3522323D01*
X55697353Y-3363658D01*
X55773587Y-3186012D01*
X55812500Y-2996656D01*
X55812500Y-2251794D01*
X55797845Y-2107679D01*
X55797845Y-2107677D01*
X55739977Y-1923240D01*
X55739975Y-1923236D01*
X55739974Y-1923232D01*
X55646159Y-1754209D01*
X55646158Y-1754208D01*
X55646157Y-1754206D01*
X55520241Y-1607533D01*
X55520240Y-1607531D01*
X55367375Y-1489205D01*
X55367371Y-1489203D01*
X55278254Y-1445489D01*
X55193816Y-1404070D01*
X55193814Y-1404069D01*
X55193811Y-1404068D01*
X55193813Y-1404068D01*
X55006682Y-1355616D01*
X55006676Y-1355615D01*
X54877964Y-1349087D01*
X54813610Y-1345824D01*
X54813609Y-1345824D01*
X54813607Y-1345824D01*
X54622533Y-1375095D01*
X54622521Y-1375098D01*
X54441251Y-1442234D01*
X54441242Y-1442238D01*
X54277196Y-1544488D01*
X54137080Y-1677677D01*
X54026646Y-1836342D01*
X53950413Y-2013987D01*
X53911500Y-2203343D01*
X53911500Y-2948207D01*
X47172500Y-2948207D01*
X47172500Y-2251794D01*
X47157845Y-2107679D01*
X47157845Y-2107677D01*
X47099977Y-1923240D01*
X47099975Y-1923236D01*
X47099974Y-1923232D01*
X47006159Y-1754209D01*
X47006158Y-1754208D01*
X47006157Y-1754206D01*
X46880241Y-1607533D01*
X46880240Y-1607531D01*
X46727375Y-1489205D01*
X46727371Y-1489203D01*
X46638254Y-1445489D01*
X46553816Y-1404070D01*
X46553814Y-1404069D01*
X46553811Y-1404068D01*
X46553813Y-1404068D01*
X46366682Y-1355616D01*
X46366676Y-1355615D01*
X46237964Y-1349087D01*
X46173610Y-1345824D01*
X46173609Y-1345824D01*
X46173607Y-1345824D01*
X45982533Y-1375095D01*
X45982521Y-1375098D01*
X45801251Y-1442234D01*
X45801242Y-1442238D01*
X45637196Y-1544488D01*
X45497080Y-1677677D01*
X45386646Y-1836342D01*
X45310413Y-2013987D01*
X45271500Y-2203343D01*
X45271500Y-2948207D01*
X14268500Y-2948207D01*
X14268500Y-2251794D01*
X14258149Y-2150000D01*
X42444722Y-2150000D01*
X42463762Y-2306818D01*
X42517139Y-2447560D01*
X42519780Y-2454523D01*
X42609517Y-2584530D01*
X42727760Y-2689283D01*
X42727762Y-2689284D01*
X42867634Y-2762696D01*
X43021014Y-2800500D01*
X43021015Y-2800500D01*
X43178985Y-2800500D01*
X43332365Y-2762696D01*
X43472237Y-2689285D01*
X43472238Y-2689283D01*
X43472240Y-2689283D01*
X43517774Y-2648943D01*
X43581006Y-2619223D01*
X43650270Y-2628407D01*
X43682224Y-2648942D01*
X43716890Y-2679653D01*
X43727762Y-2689285D01*
X43867634Y-2762696D01*
X44021014Y-2800500D01*
X44021015Y-2800500D01*
X44178985Y-2800500D01*
X44332365Y-2762696D01*
X44332364Y-2762696D01*
X44472240Y-2689283D01*
X44590483Y-2584530D01*
X44680220Y-2454523D01*
X44736237Y-2306818D01*
X44755278Y-2150000D01*
X44736451Y-1994940D01*
X44736237Y-1993181D01*
X44714992Y-1937163D01*
X44680220Y-1845477D01*
X44590483Y-1715470D01*
X44472240Y-1610717D01*
X44472238Y-1610716D01*
X44472237Y-1610715D01*
X44332365Y-1537303D01*
X44178986Y-1499500D01*
X44178985Y-1499500D01*
X44021015Y-1499500D01*
X44021014Y-1499500D01*
X43867634Y-1537303D01*
X43727761Y-1610715D01*
X43727759Y-1610717D01*
X43682226Y-1651055D01*
X43618992Y-1680776D01*
X43549729Y-1671592D01*
X43517774Y-1651055D01*
X43472240Y-1610717D01*
X43472238Y-1610715D01*
X43332365Y-1537303D01*
X43178986Y-1499500D01*
X43178985Y-1499500D01*
X43021015Y-1499500D01*
X43021014Y-1499500D01*
X42867634Y-1537303D01*
X42727762Y-1610715D01*
X42727759Y-1610717D01*
X42727760Y-1610717D01*
X42611625Y-1713603D01*
X42609516Y-1715471D01*
X42519781Y-1845475D01*
X42519780Y-1845476D01*
X42463762Y-1993181D01*
X42444722Y-2149999D01*
X42444722Y-2150000D01*
X14258149Y-2150000D01*
X14253845Y-2107679D01*
X14253845Y-2107677D01*
X14195977Y-1923240D01*
X14195975Y-1923236D01*
X14195974Y-1923232D01*
X14102159Y-1754209D01*
X14102158Y-1754208D01*
X14102157Y-1754206D01*
X13976241Y-1607533D01*
X13976240Y-1607531D01*
X13823375Y-1489205D01*
X13823371Y-1489203D01*
X13734254Y-1445489D01*
X13649816Y-1404070D01*
X13649814Y-1404069D01*
X13649811Y-1404068D01*
X13649813Y-1404068D01*
X13462682Y-1355616D01*
X13462676Y-1355615D01*
X13333964Y-1349087D01*
X13269610Y-1345824D01*
X13269609Y-1345824D01*
X13269607Y-1345824D01*
X13078533Y-1375095D01*
X13078521Y-1375098D01*
X12897251Y-1442234D01*
X12897242Y-1442238D01*
X12733196Y-1544488D01*
X12593080Y-1677677D01*
X12482646Y-1836342D01*
X12406413Y-2013987D01*
X12367500Y-2203343D01*
X12367500Y-2948207D01*
X5628500Y-2948207D01*
X5628500Y-2251794D01*
X5613845Y-2107679D01*
X5613845Y-2107677D01*
X5555977Y-1923240D01*
X5555975Y-1923236D01*
X5555974Y-1923232D01*
X5462159Y-1754209D01*
X5462158Y-1754208D01*
X5462157Y-1754206D01*
X5336241Y-1607533D01*
X5336240Y-1607531D01*
X5183375Y-1489205D01*
X5183371Y-1489203D01*
X5094254Y-1445489D01*
X5009816Y-1404070D01*
X5009814Y-1404069D01*
X5009811Y-1404068D01*
X5009813Y-1404068D01*
X4822682Y-1355616D01*
X4822676Y-1355615D01*
X4693964Y-1349087D01*
X4629610Y-1345824D01*
X4629609Y-1345824D01*
X4629607Y-1345824D01*
X4438533Y-1375095D01*
X4438521Y-1375098D01*
X4257251Y-1442234D01*
X4257244Y-1442237D01*
X4159385Y-1503232D01*
X4092080Y-1521987D01*
X4025319Y-1501377D01*
X3980299Y-1447945D01*
X3976955Y-1439524D01*
X3943654Y-1345824D01*
X3885136Y-1181170D01*
X3756081Y-932104D01*
X3594312Y-702931D01*
X3594309Y-702927D01*
X3594161Y-702746D01*
X3594132Y-702676D01*
X3591869Y-699471D01*
X3592577Y-698971D01*
X3567129Y-638317D01*
X3579221Y-569502D01*
X3626598Y-518148D01*
X3690357Y-500500D01*
X99453497Y-500500D01*
X99520536Y-520185D01*
G37*
%TD.AperFunction*%
%TD*%
M02*
