%TF.GenerationSoftware,KiCad,Pcbnew,7.0.6*%
%TF.CreationDate,2023-09-19T22:06:04+01:00*%
%TF.ProjectId,MoonHub,4d6f6f6e-4875-4622-9e6b-696361645f70,rev?*%
%TF.SameCoordinates,Original*%
%TF.FileFunction,Paste,Top*%
%TF.FilePolarity,Positive*%
%FSLAX46Y46*%
G04 Gerber Fmt 4.6, Leading zero omitted, Abs format (unit mm)*
G04 Created by KiCad (PCBNEW 7.0.6) date 2023-09-19 22:06:04*
%MOMM*%
%LPD*%
G01*
G04 APERTURE LIST*
G04 Aperture macros list*
%AMRoundRect*
0 Rectangle with rounded corners*
0 $1 Rounding radius*
0 $2 $3 $4 $5 $6 $7 $8 $9 X,Y pos of 4 corners*
0 Add a 4 corners polygon primitive as box body*
4,1,4,$2,$3,$4,$5,$6,$7,$8,$9,$2,$3,0*
0 Add four circle primitives for the rounded corners*
1,1,$1+$1,$2,$3*
1,1,$1+$1,$4,$5*
1,1,$1+$1,$6,$7*
1,1,$1+$1,$8,$9*
0 Add four rect primitives between the rounded corners*
20,1,$1+$1,$2,$3,$4,$5,0*
20,1,$1+$1,$4,$5,$6,$7,0*
20,1,$1+$1,$6,$7,$8,$9,0*
20,1,$1+$1,$8,$9,$2,$3,0*%
%AMRotRect*
0 Rectangle, with rotation*
0 The origin of the aperture is its center*
0 $1 length*
0 $2 width*
0 $3 Rotation angle, in degrees counterclockwise*
0 Add horizontal line*
21,1,$1,$2,0,0,$3*%
G04 Aperture macros list end*
%ADD10RoundRect,0.218750X-0.381250X0.218750X-0.381250X-0.218750X0.381250X-0.218750X0.381250X0.218750X0*%
%ADD11RoundRect,0.250000X-0.650000X0.325000X-0.650000X-0.325000X0.650000X-0.325000X0.650000X0.325000X0*%
%ADD12RoundRect,0.140000X0.170000X-0.140000X0.170000X0.140000X-0.170000X0.140000X-0.170000X-0.140000X0*%
%ADD13RoundRect,0.060000X0.240000X0.665000X-0.240000X0.665000X-0.240000X-0.665000X0.240000X-0.665000X0*%
%ADD14RoundRect,0.060000X0.090000X0.665000X-0.090000X0.665000X-0.090000X-0.665000X0.090000X-0.665000X0*%
%ADD15O,1.100000X2.200000*%
%ADD16O,1.300000X1.900000*%
%ADD17RoundRect,0.140000X-0.170000X0.140000X-0.170000X-0.140000X0.170000X-0.140000X0.170000X0.140000X0*%
%ADD18RoundRect,0.135000X0.135000X0.185000X-0.135000X0.185000X-0.135000X-0.185000X0.135000X-0.185000X0*%
%ADD19RoundRect,0.135000X-0.135000X-0.185000X0.135000X-0.185000X0.135000X0.185000X-0.135000X0.185000X0*%
%ADD20R,1.200000X0.400000*%
%ADD21RoundRect,0.100000X-0.250000X-0.400000X0.250000X-0.400000X0.250000X0.400000X-0.250000X0.400000X0*%
%ADD22RoundRect,0.125000X-0.250000X-0.475000X0.250000X-0.475000X0.250000X0.475000X-0.250000X0.475000X0*%
%ADD23R,1.400000X1.200000*%
%ADD24RotRect,1.200000X1.400000X225.000000*%
%ADD25RoundRect,0.150000X-0.475000X-0.150000X0.475000X-0.150000X0.475000X0.150000X-0.475000X0.150000X0*%
%ADD26RoundRect,0.218750X0.381250X-0.218750X0.381250X0.218750X-0.381250X0.218750X-0.381250X-0.218750X0*%
%ADD27R,1.400000X2.800000*%
%ADD28O,1.400000X2.500000*%
%ADD29RoundRect,0.150000X-0.150000X0.475000X-0.150000X-0.475000X0.150000X-0.475000X0.150000X0.475000X0*%
%ADD30RoundRect,0.150000X0.150000X-0.475000X0.150000X0.475000X-0.150000X0.475000X-0.150000X-0.475000X0*%
%ADD31RoundRect,0.150000X-0.512500X-0.150000X0.512500X-0.150000X0.512500X0.150000X-0.512500X0.150000X0*%
G04 APERTURE END LIST*
%TO.C,USB4*%
G36*
X73762000Y-11549500D02*
G01*
X72362000Y-11549500D01*
X72362000Y-8749500D01*
X73762000Y-8749500D01*
X73762000Y-11549500D01*
G37*
G36*
X71263000Y-11549500D02*
G01*
X69863000Y-11549500D01*
X69863000Y-8749500D01*
X71263000Y-8749500D01*
X71263000Y-11549500D01*
G37*
G36*
X69261000Y-11549500D02*
G01*
X67861000Y-11549500D01*
X67861000Y-8749500D01*
X69261000Y-8749500D01*
X69261000Y-11549500D01*
G37*
G36*
X66762000Y-11549500D02*
G01*
X65362000Y-11549500D01*
X65362000Y-8749500D01*
X66762000Y-8749500D01*
X66762000Y-11549500D01*
G37*
G36*
X76015000Y-7427500D02*
G01*
X76050000Y-7431500D01*
X76084000Y-7436500D01*
X76119000Y-7443500D01*
X76152000Y-7451500D01*
X76186000Y-7462500D01*
X76219000Y-7474500D01*
X76251000Y-7487500D01*
X76282000Y-7502500D01*
X76313000Y-7519500D01*
X76343000Y-7537500D01*
X76371000Y-7557500D01*
X76399000Y-7578500D01*
X76426000Y-7600500D01*
X76452000Y-7624500D01*
X76476000Y-7649500D01*
X76499000Y-7675500D01*
X76521000Y-7703500D01*
X76541000Y-7731500D01*
X76560000Y-7760500D01*
X76578000Y-7790500D01*
X76593000Y-7822500D01*
X76608000Y-7853500D01*
X76621000Y-7886500D01*
X76632000Y-7919500D01*
X76641000Y-7953500D01*
X76649000Y-7987500D01*
X76655000Y-8021500D01*
X76659000Y-8056500D01*
X76662000Y-8090500D01*
X76663000Y-8125500D01*
X76663000Y-9225500D01*
X76662000Y-9260500D01*
X76659000Y-9295500D01*
X76655000Y-9330500D01*
X76649000Y-9364500D01*
X76641000Y-9398500D01*
X76632000Y-9432500D01*
X76621000Y-9465500D01*
X76608000Y-9497500D01*
X76593000Y-9529500D01*
X76578000Y-9560500D01*
X76560000Y-9590500D01*
X76541000Y-9620500D01*
X76521000Y-9648500D01*
X76499000Y-9675500D01*
X76476000Y-9701500D01*
X76452000Y-9726500D01*
X76426000Y-9750500D01*
X76399000Y-9773500D01*
X76371000Y-9794500D01*
X76343000Y-9813500D01*
X76313000Y-9832500D01*
X76282000Y-9848500D01*
X76251000Y-9863500D01*
X76219000Y-9877500D01*
X76186000Y-9889500D01*
X76152000Y-9899500D01*
X76119000Y-9908500D01*
X76084000Y-9915500D01*
X76050000Y-9920500D01*
X76015000Y-9923500D01*
X75980000Y-9925500D01*
X75945000Y-9925500D01*
X75911000Y-9923500D01*
X75876000Y-9920500D01*
X75841000Y-9915500D01*
X75807000Y-9908500D01*
X75773000Y-9899500D01*
X75740000Y-9889500D01*
X75707000Y-9877500D01*
X75675000Y-9863500D01*
X75643000Y-9848500D01*
X75613000Y-9832500D01*
X75583000Y-9813500D01*
X75554000Y-9794500D01*
X75526000Y-9773500D01*
X75500000Y-9750500D01*
X75474000Y-9726500D01*
X75450000Y-9701500D01*
X75427000Y-9675500D01*
X75405000Y-9648500D01*
X75384000Y-9620500D01*
X75366000Y-9590500D01*
X75348000Y-9560500D01*
X75332000Y-9529500D01*
X75318000Y-9497500D01*
X75305000Y-9465500D01*
X75294000Y-9432500D01*
X75284000Y-9398500D01*
X75277000Y-9364500D01*
X75271000Y-9330500D01*
X75266000Y-9295500D01*
X75264000Y-9260500D01*
X75263000Y-9225500D01*
X75263000Y-8125500D01*
X75264000Y-8090500D01*
X75266000Y-8056500D01*
X75271000Y-8021500D01*
X75277000Y-7987500D01*
X75284000Y-7953500D01*
X75294000Y-7919500D01*
X75305000Y-7886500D01*
X75318000Y-7853500D01*
X75332000Y-7822500D01*
X75348000Y-7790500D01*
X75366000Y-7760500D01*
X75384000Y-7731500D01*
X75405000Y-7703500D01*
X75427000Y-7675500D01*
X75450000Y-7649500D01*
X75474000Y-7624500D01*
X75500000Y-7600500D01*
X75526000Y-7578500D01*
X75554000Y-7557500D01*
X75583000Y-7537500D01*
X75613000Y-7519500D01*
X75643000Y-7502500D01*
X75675000Y-7487500D01*
X75707000Y-7474500D01*
X75740000Y-7462500D01*
X75773000Y-7451500D01*
X75807000Y-7443500D01*
X75841000Y-7436500D01*
X75876000Y-7431500D01*
X75911000Y-7427500D01*
X75945000Y-7425500D01*
X75980000Y-7425500D01*
X76015000Y-7427500D01*
G37*
G36*
X76015000Y-1425500D02*
G01*
X76050000Y-1429500D01*
X76084000Y-1434500D01*
X76119000Y-1441500D01*
X76152000Y-1449500D01*
X76186000Y-1460500D01*
X76219000Y-1472500D01*
X76251000Y-1485500D01*
X76282000Y-1500500D01*
X76313000Y-1517500D01*
X76343000Y-1535500D01*
X76371000Y-1555500D01*
X76399000Y-1576500D01*
X76426000Y-1598500D01*
X76452000Y-1622500D01*
X76476000Y-1647500D01*
X76499000Y-1673500D01*
X76521000Y-1701500D01*
X76541000Y-1729500D01*
X76560000Y-1758500D01*
X76578000Y-1788500D01*
X76593000Y-1820500D01*
X76608000Y-1851500D01*
X76621000Y-1884500D01*
X76632000Y-1917500D01*
X76641000Y-1950500D01*
X76649000Y-1984500D01*
X76655000Y-2019500D01*
X76659000Y-2054500D01*
X76662000Y-2088500D01*
X76663000Y-2123500D01*
X76663000Y-3223500D01*
X76662000Y-3258500D01*
X76659000Y-3293500D01*
X76655000Y-3328500D01*
X76649000Y-3362500D01*
X76641000Y-3396500D01*
X76632000Y-3430500D01*
X76621000Y-3463500D01*
X76608000Y-3495500D01*
X76593000Y-3527500D01*
X76578000Y-3558500D01*
X76560000Y-3588500D01*
X76541000Y-3618500D01*
X76521000Y-3646500D01*
X76499000Y-3673500D01*
X76476000Y-3699500D01*
X76452000Y-3724500D01*
X76426000Y-3748500D01*
X76399000Y-3770500D01*
X76371000Y-3791500D01*
X76343000Y-3811500D01*
X76313000Y-3829500D01*
X76282000Y-3846500D01*
X76251000Y-3861500D01*
X76219000Y-3875500D01*
X76186000Y-3887500D01*
X76152000Y-3897500D01*
X76119000Y-3906500D01*
X76084000Y-3913500D01*
X76050000Y-3918500D01*
X76015000Y-3921500D01*
X75980000Y-3923500D01*
X75945000Y-3923500D01*
X75911000Y-3921500D01*
X75876000Y-3918500D01*
X75841000Y-3913500D01*
X75807000Y-3906500D01*
X75773000Y-3897500D01*
X75740000Y-3887500D01*
X75707000Y-3875500D01*
X75675000Y-3861500D01*
X75643000Y-3846500D01*
X75613000Y-3829500D01*
X75583000Y-3811500D01*
X75554000Y-3791500D01*
X75526000Y-3770500D01*
X75500000Y-3748500D01*
X75474000Y-3724500D01*
X75450000Y-3699500D01*
X75427000Y-3673500D01*
X75405000Y-3646500D01*
X75384000Y-3618500D01*
X75366000Y-3588500D01*
X75348000Y-3558500D01*
X75332000Y-3527500D01*
X75318000Y-3495500D01*
X75305000Y-3463500D01*
X75294000Y-3430500D01*
X75284000Y-3396500D01*
X75277000Y-3362500D01*
X75271000Y-3328500D01*
X75266000Y-3293500D01*
X75264000Y-3258500D01*
X75263000Y-3223500D01*
X75263000Y-2123500D01*
X75264000Y-2088500D01*
X75266000Y-2054500D01*
X75271000Y-2019500D01*
X75277000Y-1984500D01*
X75284000Y-1950500D01*
X75294000Y-1917500D01*
X75305000Y-1884500D01*
X75318000Y-1851500D01*
X75332000Y-1820500D01*
X75348000Y-1788500D01*
X75366000Y-1758500D01*
X75384000Y-1729500D01*
X75405000Y-1701500D01*
X75427000Y-1673500D01*
X75450000Y-1647500D01*
X75474000Y-1622500D01*
X75500000Y-1598500D01*
X75526000Y-1576500D01*
X75554000Y-1555500D01*
X75583000Y-1535500D01*
X75613000Y-1517500D01*
X75643000Y-1500500D01*
X75675000Y-1485500D01*
X75707000Y-1472500D01*
X75740000Y-1460500D01*
X75773000Y-1449500D01*
X75807000Y-1441500D01*
X75841000Y-1434500D01*
X75876000Y-1429500D01*
X75911000Y-1425500D01*
X75945000Y-1423500D01*
X75980000Y-1423500D01*
X76015000Y-1425500D01*
G37*
G36*
X63213000Y-7427500D02*
G01*
X63248000Y-7431500D01*
X63283000Y-7436500D01*
X63317000Y-7443500D01*
X63351000Y-7451500D01*
X63384000Y-7462500D01*
X63417000Y-7474500D01*
X63449000Y-7487500D01*
X63481000Y-7502500D01*
X63511000Y-7519500D01*
X63541000Y-7537500D01*
X63570000Y-7557500D01*
X63598000Y-7578500D01*
X63624000Y-7600500D01*
X63650000Y-7624500D01*
X63674000Y-7649500D01*
X63697000Y-7675500D01*
X63719000Y-7703500D01*
X63740000Y-7731500D01*
X63758000Y-7760500D01*
X63776000Y-7790500D01*
X63792000Y-7822500D01*
X63806000Y-7853500D01*
X63819000Y-7886500D01*
X63830000Y-7919500D01*
X63840000Y-7953500D01*
X63847000Y-7987500D01*
X63853000Y-8021500D01*
X63858000Y-8056500D01*
X63860000Y-8090500D01*
X63861000Y-8125500D01*
X63861000Y-9225500D01*
X63860000Y-9260500D01*
X63858000Y-9295500D01*
X63853000Y-9330500D01*
X63847000Y-9364500D01*
X63840000Y-9398500D01*
X63830000Y-9432500D01*
X63819000Y-9465500D01*
X63806000Y-9497500D01*
X63792000Y-9529500D01*
X63776000Y-9560500D01*
X63758000Y-9590500D01*
X63740000Y-9620500D01*
X63719000Y-9648500D01*
X63697000Y-9675500D01*
X63674000Y-9701500D01*
X63650000Y-9726500D01*
X63624000Y-9750500D01*
X63598000Y-9773500D01*
X63570000Y-9794500D01*
X63541000Y-9813500D01*
X63511000Y-9832500D01*
X63481000Y-9848500D01*
X63449000Y-9863500D01*
X63417000Y-9877500D01*
X63384000Y-9889500D01*
X63351000Y-9899500D01*
X63317000Y-9908500D01*
X63283000Y-9915500D01*
X63248000Y-9920500D01*
X63213000Y-9923500D01*
X63179000Y-9925500D01*
X63144000Y-9925500D01*
X63109000Y-9923500D01*
X63074000Y-9920500D01*
X63040000Y-9915500D01*
X63005000Y-9908500D01*
X62972000Y-9899500D01*
X62938000Y-9889500D01*
X62905000Y-9877500D01*
X62873000Y-9863500D01*
X62842000Y-9848500D01*
X62811000Y-9832500D01*
X62781000Y-9813500D01*
X62753000Y-9794500D01*
X62725000Y-9773500D01*
X62698000Y-9750500D01*
X62672000Y-9726500D01*
X62648000Y-9701500D01*
X62625000Y-9675500D01*
X62603000Y-9648500D01*
X62583000Y-9620500D01*
X62564000Y-9590500D01*
X62546000Y-9560500D01*
X62530000Y-9529500D01*
X62516000Y-9497500D01*
X62503000Y-9465500D01*
X62492000Y-9432500D01*
X62483000Y-9398500D01*
X62475000Y-9364500D01*
X62469000Y-9330500D01*
X62465000Y-9295500D01*
X62462000Y-9260500D01*
X62461000Y-9225500D01*
X62461000Y-8125500D01*
X62462000Y-8090500D01*
X62465000Y-8056500D01*
X62469000Y-8021500D01*
X62475000Y-7987500D01*
X62483000Y-7953500D01*
X62492000Y-7919500D01*
X62503000Y-7886500D01*
X62516000Y-7853500D01*
X62530000Y-7822500D01*
X62546000Y-7790500D01*
X62564000Y-7760500D01*
X62583000Y-7731500D01*
X62603000Y-7703500D01*
X62625000Y-7675500D01*
X62648000Y-7649500D01*
X62672000Y-7624500D01*
X62698000Y-7600500D01*
X62725000Y-7578500D01*
X62753000Y-7557500D01*
X62781000Y-7537500D01*
X62811000Y-7519500D01*
X62842000Y-7502500D01*
X62873000Y-7487500D01*
X62905000Y-7474500D01*
X62938000Y-7462500D01*
X62972000Y-7451500D01*
X63005000Y-7443500D01*
X63040000Y-7436500D01*
X63074000Y-7431500D01*
X63109000Y-7427500D01*
X63144000Y-7425500D01*
X63179000Y-7425500D01*
X63213000Y-7427500D01*
G37*
G36*
X63213000Y-1476500D02*
G01*
X63248000Y-1479500D01*
X63283000Y-1485500D01*
X63317000Y-1492500D01*
X63351000Y-1500500D01*
X63384000Y-1510500D01*
X63417000Y-1522500D01*
X63449000Y-1536500D01*
X63481000Y-1551500D01*
X63511000Y-1568500D01*
X63541000Y-1586500D01*
X63570000Y-1606500D01*
X63598000Y-1627500D01*
X63624000Y-1649500D01*
X63650000Y-1673500D01*
X63674000Y-1698500D01*
X63697000Y-1724500D01*
X63719000Y-1751500D01*
X63740000Y-1780500D01*
X63758000Y-1809500D01*
X63776000Y-1839500D01*
X63792000Y-1870500D01*
X63806000Y-1902500D01*
X63819000Y-1935500D01*
X63830000Y-1968500D01*
X63840000Y-2001500D01*
X63847000Y-2035500D01*
X63853000Y-2070500D01*
X63858000Y-2104500D01*
X63860000Y-2139500D01*
X63861000Y-2174500D01*
X63861000Y-3274500D01*
X63860000Y-3309500D01*
X63858000Y-3344500D01*
X63853000Y-3378500D01*
X63847000Y-3413500D01*
X63840000Y-3447500D01*
X63830000Y-3480500D01*
X63819000Y-3513500D01*
X63806000Y-3546500D01*
X63792000Y-3578500D01*
X63776000Y-3609500D01*
X63758000Y-3639500D01*
X63740000Y-3668500D01*
X63719000Y-3697500D01*
X63697000Y-3724500D01*
X63674000Y-3750500D01*
X63650000Y-3775500D01*
X63624000Y-3799500D01*
X63598000Y-3821500D01*
X63570000Y-3842500D01*
X63541000Y-3862500D01*
X63511000Y-3880500D01*
X63481000Y-3897500D01*
X63449000Y-3912500D01*
X63417000Y-3926500D01*
X63384000Y-3938500D01*
X63351000Y-3948500D01*
X63317000Y-3956500D01*
X63283000Y-3963500D01*
X63248000Y-3969500D01*
X63213000Y-3972500D01*
X63179000Y-3974500D01*
X63144000Y-3974500D01*
X63109000Y-3972500D01*
X63074000Y-3969500D01*
X63040000Y-3963500D01*
X63005000Y-3956500D01*
X62972000Y-3948500D01*
X62938000Y-3938500D01*
X62905000Y-3926500D01*
X62873000Y-3912500D01*
X62842000Y-3897500D01*
X62811000Y-3880500D01*
X62781000Y-3862500D01*
X62753000Y-3842500D01*
X62725000Y-3821500D01*
X62698000Y-3799500D01*
X62672000Y-3775500D01*
X62648000Y-3750500D01*
X62625000Y-3724500D01*
X62603000Y-3697500D01*
X62583000Y-3668500D01*
X62564000Y-3639500D01*
X62546000Y-3609500D01*
X62530000Y-3578500D01*
X62516000Y-3546500D01*
X62503000Y-3513500D01*
X62492000Y-3480500D01*
X62483000Y-3447500D01*
X62475000Y-3413500D01*
X62469000Y-3378500D01*
X62465000Y-3344500D01*
X62462000Y-3309500D01*
X62461000Y-3274500D01*
X62461000Y-2174500D01*
X62462000Y-2139500D01*
X62465000Y-2104500D01*
X62469000Y-2070500D01*
X62475000Y-2035500D01*
X62483000Y-2001500D01*
X62492000Y-1968500D01*
X62503000Y-1935500D01*
X62516000Y-1902500D01*
X62530000Y-1870500D01*
X62546000Y-1839500D01*
X62564000Y-1809500D01*
X62583000Y-1780500D01*
X62603000Y-1751500D01*
X62625000Y-1724500D01*
X62648000Y-1698500D01*
X62672000Y-1673500D01*
X62698000Y-1649500D01*
X62725000Y-1627500D01*
X62753000Y-1606500D01*
X62781000Y-1586500D01*
X62811000Y-1568500D01*
X62842000Y-1551500D01*
X62873000Y-1536500D01*
X62905000Y-1522500D01*
X62938000Y-1510500D01*
X62972000Y-1500500D01*
X63005000Y-1492500D01*
X63040000Y-1485500D01*
X63074000Y-1479500D01*
X63109000Y-1476500D01*
X63144000Y-1474500D01*
X63179000Y-1474500D01*
X63213000Y-1476500D01*
G37*
%TO.C,USB1*%
G36*
X94992000Y-11549500D02*
G01*
X93592000Y-11549500D01*
X93592000Y-8749500D01*
X94992000Y-8749500D01*
X94992000Y-11549500D01*
G37*
G36*
X92493000Y-11549500D02*
G01*
X91093000Y-11549500D01*
X91093000Y-8749500D01*
X92493000Y-8749500D01*
X92493000Y-11549500D01*
G37*
G36*
X90491000Y-11549500D02*
G01*
X89091000Y-11549500D01*
X89091000Y-8749500D01*
X90491000Y-8749500D01*
X90491000Y-11549500D01*
G37*
G36*
X87992000Y-11549500D02*
G01*
X86592000Y-11549500D01*
X86592000Y-8749500D01*
X87992000Y-8749500D01*
X87992000Y-11549500D01*
G37*
G36*
X97245000Y-7427500D02*
G01*
X97280000Y-7431500D01*
X97314000Y-7436500D01*
X97349000Y-7443500D01*
X97382000Y-7451500D01*
X97416000Y-7462500D01*
X97449000Y-7474500D01*
X97481000Y-7487500D01*
X97512000Y-7502500D01*
X97543000Y-7519500D01*
X97573000Y-7537500D01*
X97601000Y-7557500D01*
X97629000Y-7578500D01*
X97656000Y-7600500D01*
X97682000Y-7624500D01*
X97706000Y-7649500D01*
X97729000Y-7675500D01*
X97751000Y-7703500D01*
X97771000Y-7731500D01*
X97790000Y-7760500D01*
X97808000Y-7790500D01*
X97823000Y-7822500D01*
X97838000Y-7853500D01*
X97851000Y-7886500D01*
X97862000Y-7919500D01*
X97871000Y-7953500D01*
X97879000Y-7987500D01*
X97885000Y-8021500D01*
X97889000Y-8056500D01*
X97892000Y-8090500D01*
X97893000Y-8125500D01*
X97893000Y-9225500D01*
X97892000Y-9260500D01*
X97889000Y-9295500D01*
X97885000Y-9330500D01*
X97879000Y-9364500D01*
X97871000Y-9398500D01*
X97862000Y-9432500D01*
X97851000Y-9465500D01*
X97838000Y-9497500D01*
X97823000Y-9529500D01*
X97808000Y-9560500D01*
X97790000Y-9590500D01*
X97771000Y-9620500D01*
X97751000Y-9648500D01*
X97729000Y-9675500D01*
X97706000Y-9701500D01*
X97682000Y-9726500D01*
X97656000Y-9750500D01*
X97629000Y-9773500D01*
X97601000Y-9794500D01*
X97573000Y-9813500D01*
X97543000Y-9832500D01*
X97512000Y-9848500D01*
X97481000Y-9863500D01*
X97449000Y-9877500D01*
X97416000Y-9889500D01*
X97382000Y-9899500D01*
X97349000Y-9908500D01*
X97314000Y-9915500D01*
X97280000Y-9920500D01*
X97245000Y-9923500D01*
X97210000Y-9925500D01*
X97175000Y-9925500D01*
X97141000Y-9923500D01*
X97106000Y-9920500D01*
X97071000Y-9915500D01*
X97037000Y-9908500D01*
X97003000Y-9899500D01*
X96970000Y-9889500D01*
X96937000Y-9877500D01*
X96905000Y-9863500D01*
X96873000Y-9848500D01*
X96843000Y-9832500D01*
X96813000Y-9813500D01*
X96784000Y-9794500D01*
X96756000Y-9773500D01*
X96730000Y-9750500D01*
X96704000Y-9726500D01*
X96680000Y-9701500D01*
X96657000Y-9675500D01*
X96635000Y-9648500D01*
X96614000Y-9620500D01*
X96596000Y-9590500D01*
X96578000Y-9560500D01*
X96562000Y-9529500D01*
X96548000Y-9497500D01*
X96535000Y-9465500D01*
X96524000Y-9432500D01*
X96514000Y-9398500D01*
X96507000Y-9364500D01*
X96501000Y-9330500D01*
X96496000Y-9295500D01*
X96494000Y-9260500D01*
X96493000Y-9225500D01*
X96493000Y-8125500D01*
X96494000Y-8090500D01*
X96496000Y-8056500D01*
X96501000Y-8021500D01*
X96507000Y-7987500D01*
X96514000Y-7953500D01*
X96524000Y-7919500D01*
X96535000Y-7886500D01*
X96548000Y-7853500D01*
X96562000Y-7822500D01*
X96578000Y-7790500D01*
X96596000Y-7760500D01*
X96614000Y-7731500D01*
X96635000Y-7703500D01*
X96657000Y-7675500D01*
X96680000Y-7649500D01*
X96704000Y-7624500D01*
X96730000Y-7600500D01*
X96756000Y-7578500D01*
X96784000Y-7557500D01*
X96813000Y-7537500D01*
X96843000Y-7519500D01*
X96873000Y-7502500D01*
X96905000Y-7487500D01*
X96937000Y-7474500D01*
X96970000Y-7462500D01*
X97003000Y-7451500D01*
X97037000Y-7443500D01*
X97071000Y-7436500D01*
X97106000Y-7431500D01*
X97141000Y-7427500D01*
X97175000Y-7425500D01*
X97210000Y-7425500D01*
X97245000Y-7427500D01*
G37*
G36*
X97245000Y-1425500D02*
G01*
X97280000Y-1429500D01*
X97314000Y-1434500D01*
X97349000Y-1441500D01*
X97382000Y-1449500D01*
X97416000Y-1460500D01*
X97449000Y-1472500D01*
X97481000Y-1485500D01*
X97512000Y-1500500D01*
X97543000Y-1517500D01*
X97573000Y-1535500D01*
X97601000Y-1555500D01*
X97629000Y-1576500D01*
X97656000Y-1598500D01*
X97682000Y-1622500D01*
X97706000Y-1647500D01*
X97729000Y-1673500D01*
X97751000Y-1701500D01*
X97771000Y-1729500D01*
X97790000Y-1758500D01*
X97808000Y-1788500D01*
X97823000Y-1820500D01*
X97838000Y-1851500D01*
X97851000Y-1884500D01*
X97862000Y-1917500D01*
X97871000Y-1950500D01*
X97879000Y-1984500D01*
X97885000Y-2019500D01*
X97889000Y-2054500D01*
X97892000Y-2088500D01*
X97893000Y-2123500D01*
X97893000Y-3223500D01*
X97892000Y-3258500D01*
X97889000Y-3293500D01*
X97885000Y-3328500D01*
X97879000Y-3362500D01*
X97871000Y-3396500D01*
X97862000Y-3430500D01*
X97851000Y-3463500D01*
X97838000Y-3495500D01*
X97823000Y-3527500D01*
X97808000Y-3558500D01*
X97790000Y-3588500D01*
X97771000Y-3618500D01*
X97751000Y-3646500D01*
X97729000Y-3673500D01*
X97706000Y-3699500D01*
X97682000Y-3724500D01*
X97656000Y-3748500D01*
X97629000Y-3770500D01*
X97601000Y-3791500D01*
X97573000Y-3811500D01*
X97543000Y-3829500D01*
X97512000Y-3846500D01*
X97481000Y-3861500D01*
X97449000Y-3875500D01*
X97416000Y-3887500D01*
X97382000Y-3897500D01*
X97349000Y-3906500D01*
X97314000Y-3913500D01*
X97280000Y-3918500D01*
X97245000Y-3921500D01*
X97210000Y-3923500D01*
X97175000Y-3923500D01*
X97141000Y-3921500D01*
X97106000Y-3918500D01*
X97071000Y-3913500D01*
X97037000Y-3906500D01*
X97003000Y-3897500D01*
X96970000Y-3887500D01*
X96937000Y-3875500D01*
X96905000Y-3861500D01*
X96873000Y-3846500D01*
X96843000Y-3829500D01*
X96813000Y-3811500D01*
X96784000Y-3791500D01*
X96756000Y-3770500D01*
X96730000Y-3748500D01*
X96704000Y-3724500D01*
X96680000Y-3699500D01*
X96657000Y-3673500D01*
X96635000Y-3646500D01*
X96614000Y-3618500D01*
X96596000Y-3588500D01*
X96578000Y-3558500D01*
X96562000Y-3527500D01*
X96548000Y-3495500D01*
X96535000Y-3463500D01*
X96524000Y-3430500D01*
X96514000Y-3396500D01*
X96507000Y-3362500D01*
X96501000Y-3328500D01*
X96496000Y-3293500D01*
X96494000Y-3258500D01*
X96493000Y-3223500D01*
X96493000Y-2123500D01*
X96494000Y-2088500D01*
X96496000Y-2054500D01*
X96501000Y-2019500D01*
X96507000Y-1984500D01*
X96514000Y-1950500D01*
X96524000Y-1917500D01*
X96535000Y-1884500D01*
X96548000Y-1851500D01*
X96562000Y-1820500D01*
X96578000Y-1788500D01*
X96596000Y-1758500D01*
X96614000Y-1729500D01*
X96635000Y-1701500D01*
X96657000Y-1673500D01*
X96680000Y-1647500D01*
X96704000Y-1622500D01*
X96730000Y-1598500D01*
X96756000Y-1576500D01*
X96784000Y-1555500D01*
X96813000Y-1535500D01*
X96843000Y-1517500D01*
X96873000Y-1500500D01*
X96905000Y-1485500D01*
X96937000Y-1472500D01*
X96970000Y-1460500D01*
X97003000Y-1449500D01*
X97037000Y-1441500D01*
X97071000Y-1434500D01*
X97106000Y-1429500D01*
X97141000Y-1425500D01*
X97175000Y-1423500D01*
X97210000Y-1423500D01*
X97245000Y-1425500D01*
G37*
G36*
X84443000Y-7427500D02*
G01*
X84478000Y-7431500D01*
X84513000Y-7436500D01*
X84547000Y-7443500D01*
X84581000Y-7451500D01*
X84614000Y-7462500D01*
X84647000Y-7474500D01*
X84679000Y-7487500D01*
X84711000Y-7502500D01*
X84741000Y-7519500D01*
X84771000Y-7537500D01*
X84800000Y-7557500D01*
X84828000Y-7578500D01*
X84854000Y-7600500D01*
X84880000Y-7624500D01*
X84904000Y-7649500D01*
X84927000Y-7675500D01*
X84949000Y-7703500D01*
X84970000Y-7731500D01*
X84988000Y-7760500D01*
X85006000Y-7790500D01*
X85022000Y-7822500D01*
X85036000Y-7853500D01*
X85049000Y-7886500D01*
X85060000Y-7919500D01*
X85070000Y-7953500D01*
X85077000Y-7987500D01*
X85083000Y-8021500D01*
X85088000Y-8056500D01*
X85090000Y-8090500D01*
X85091000Y-8125500D01*
X85091000Y-9225500D01*
X85090000Y-9260500D01*
X85088000Y-9295500D01*
X85083000Y-9330500D01*
X85077000Y-9364500D01*
X85070000Y-9398500D01*
X85060000Y-9432500D01*
X85049000Y-9465500D01*
X85036000Y-9497500D01*
X85022000Y-9529500D01*
X85006000Y-9560500D01*
X84988000Y-9590500D01*
X84970000Y-9620500D01*
X84949000Y-9648500D01*
X84927000Y-9675500D01*
X84904000Y-9701500D01*
X84880000Y-9726500D01*
X84854000Y-9750500D01*
X84828000Y-9773500D01*
X84800000Y-9794500D01*
X84771000Y-9813500D01*
X84741000Y-9832500D01*
X84711000Y-9848500D01*
X84679000Y-9863500D01*
X84647000Y-9877500D01*
X84614000Y-9889500D01*
X84581000Y-9899500D01*
X84547000Y-9908500D01*
X84513000Y-9915500D01*
X84478000Y-9920500D01*
X84443000Y-9923500D01*
X84409000Y-9925500D01*
X84374000Y-9925500D01*
X84339000Y-9923500D01*
X84304000Y-9920500D01*
X84270000Y-9915500D01*
X84235000Y-9908500D01*
X84202000Y-9899500D01*
X84168000Y-9889500D01*
X84135000Y-9877500D01*
X84103000Y-9863500D01*
X84072000Y-9848500D01*
X84041000Y-9832500D01*
X84011000Y-9813500D01*
X83983000Y-9794500D01*
X83955000Y-9773500D01*
X83928000Y-9750500D01*
X83902000Y-9726500D01*
X83878000Y-9701500D01*
X83855000Y-9675500D01*
X83833000Y-9648500D01*
X83813000Y-9620500D01*
X83794000Y-9590500D01*
X83776000Y-9560500D01*
X83760000Y-9529500D01*
X83746000Y-9497500D01*
X83733000Y-9465500D01*
X83722000Y-9432500D01*
X83713000Y-9398500D01*
X83705000Y-9364500D01*
X83699000Y-9330500D01*
X83695000Y-9295500D01*
X83692000Y-9260500D01*
X83691000Y-9225500D01*
X83691000Y-8125500D01*
X83692000Y-8090500D01*
X83695000Y-8056500D01*
X83699000Y-8021500D01*
X83705000Y-7987500D01*
X83713000Y-7953500D01*
X83722000Y-7919500D01*
X83733000Y-7886500D01*
X83746000Y-7853500D01*
X83760000Y-7822500D01*
X83776000Y-7790500D01*
X83794000Y-7760500D01*
X83813000Y-7731500D01*
X83833000Y-7703500D01*
X83855000Y-7675500D01*
X83878000Y-7649500D01*
X83902000Y-7624500D01*
X83928000Y-7600500D01*
X83955000Y-7578500D01*
X83983000Y-7557500D01*
X84011000Y-7537500D01*
X84041000Y-7519500D01*
X84072000Y-7502500D01*
X84103000Y-7487500D01*
X84135000Y-7474500D01*
X84168000Y-7462500D01*
X84202000Y-7451500D01*
X84235000Y-7443500D01*
X84270000Y-7436500D01*
X84304000Y-7431500D01*
X84339000Y-7427500D01*
X84374000Y-7425500D01*
X84409000Y-7425500D01*
X84443000Y-7427500D01*
G37*
G36*
X84443000Y-1476500D02*
G01*
X84478000Y-1479500D01*
X84513000Y-1485500D01*
X84547000Y-1492500D01*
X84581000Y-1500500D01*
X84614000Y-1510500D01*
X84647000Y-1522500D01*
X84679000Y-1536500D01*
X84711000Y-1551500D01*
X84741000Y-1568500D01*
X84771000Y-1586500D01*
X84800000Y-1606500D01*
X84828000Y-1627500D01*
X84854000Y-1649500D01*
X84880000Y-1673500D01*
X84904000Y-1698500D01*
X84927000Y-1724500D01*
X84949000Y-1751500D01*
X84970000Y-1780500D01*
X84988000Y-1809500D01*
X85006000Y-1839500D01*
X85022000Y-1870500D01*
X85036000Y-1902500D01*
X85049000Y-1935500D01*
X85060000Y-1968500D01*
X85070000Y-2001500D01*
X85077000Y-2035500D01*
X85083000Y-2070500D01*
X85088000Y-2104500D01*
X85090000Y-2139500D01*
X85091000Y-2174500D01*
X85091000Y-3274500D01*
X85090000Y-3309500D01*
X85088000Y-3344500D01*
X85083000Y-3378500D01*
X85077000Y-3413500D01*
X85070000Y-3447500D01*
X85060000Y-3480500D01*
X85049000Y-3513500D01*
X85036000Y-3546500D01*
X85022000Y-3578500D01*
X85006000Y-3609500D01*
X84988000Y-3639500D01*
X84970000Y-3668500D01*
X84949000Y-3697500D01*
X84927000Y-3724500D01*
X84904000Y-3750500D01*
X84880000Y-3775500D01*
X84854000Y-3799500D01*
X84828000Y-3821500D01*
X84800000Y-3842500D01*
X84771000Y-3862500D01*
X84741000Y-3880500D01*
X84711000Y-3897500D01*
X84679000Y-3912500D01*
X84647000Y-3926500D01*
X84614000Y-3938500D01*
X84581000Y-3948500D01*
X84547000Y-3956500D01*
X84513000Y-3963500D01*
X84478000Y-3969500D01*
X84443000Y-3972500D01*
X84409000Y-3974500D01*
X84374000Y-3974500D01*
X84339000Y-3972500D01*
X84304000Y-3969500D01*
X84270000Y-3963500D01*
X84235000Y-3956500D01*
X84202000Y-3948500D01*
X84168000Y-3938500D01*
X84135000Y-3926500D01*
X84103000Y-3912500D01*
X84072000Y-3897500D01*
X84041000Y-3880500D01*
X84011000Y-3862500D01*
X83983000Y-3842500D01*
X83955000Y-3821500D01*
X83928000Y-3799500D01*
X83902000Y-3775500D01*
X83878000Y-3750500D01*
X83855000Y-3724500D01*
X83833000Y-3697500D01*
X83813000Y-3668500D01*
X83794000Y-3639500D01*
X83776000Y-3609500D01*
X83760000Y-3578500D01*
X83746000Y-3546500D01*
X83733000Y-3513500D01*
X83722000Y-3480500D01*
X83713000Y-3447500D01*
X83705000Y-3413500D01*
X83699000Y-3378500D01*
X83695000Y-3344500D01*
X83692000Y-3309500D01*
X83691000Y-3274500D01*
X83691000Y-2174500D01*
X83692000Y-2139500D01*
X83695000Y-2104500D01*
X83699000Y-2070500D01*
X83705000Y-2035500D01*
X83713000Y-2001500D01*
X83722000Y-1968500D01*
X83733000Y-1935500D01*
X83746000Y-1902500D01*
X83760000Y-1870500D01*
X83776000Y-1839500D01*
X83794000Y-1809500D01*
X83813000Y-1780500D01*
X83833000Y-1751500D01*
X83855000Y-1724500D01*
X83878000Y-1698500D01*
X83902000Y-1673500D01*
X83928000Y-1649500D01*
X83955000Y-1627500D01*
X83983000Y-1606500D01*
X84011000Y-1586500D01*
X84041000Y-1568500D01*
X84072000Y-1551500D01*
X84103000Y-1536500D01*
X84135000Y-1522500D01*
X84168000Y-1510500D01*
X84202000Y-1500500D01*
X84235000Y-1492500D01*
X84270000Y-1485500D01*
X84304000Y-1479500D01*
X84339000Y-1476500D01*
X84374000Y-1474500D01*
X84409000Y-1474500D01*
X84443000Y-1476500D01*
G37*
%TD*%
D10*
%TO.C,FB4*%
X78100000Y-6550500D03*
X78100000Y-8675500D03*
%TD*%
D11*
%TO.C,C3*%
X43600000Y-3450000D03*
X43600000Y-6400000D03*
%TD*%
D12*
%TO.C,C9*%
X30365000Y-12037500D03*
X30365000Y-11077500D03*
%TD*%
D13*
%TO.C,USB3*%
X53767000Y-7695000D03*
X52992000Y-7695000D03*
D14*
X51792000Y-7695000D03*
X50792000Y-7695000D03*
X50292000Y-7695000D03*
X49292000Y-7695000D03*
D13*
X47317000Y-7695000D03*
X48092000Y-7695000D03*
D14*
X48792000Y-7695000D03*
X49792000Y-7695000D03*
X51292000Y-7695000D03*
X52292000Y-7695000D03*
D15*
X54862000Y-6780000D03*
D16*
X54862000Y-2600000D03*
D15*
X46222000Y-6780000D03*
D16*
X46222000Y-2600000D03*
%TD*%
D17*
%TO.C,C2*%
X37600000Y-2220000D03*
X37600000Y-3180000D03*
%TD*%
D10*
%TO.C,FB2*%
X99400000Y-6550500D03*
X99400000Y-8675500D03*
%TD*%
D17*
%TO.C,C4*%
X21200000Y-8170000D03*
X21200000Y-9130000D03*
%TD*%
D18*
%TO.C,R3*%
X53710000Y-9100000D03*
X52690000Y-9100000D03*
%TD*%
D19*
%TO.C,R4*%
X45990000Y-9200000D03*
X47010000Y-9200000D03*
%TD*%
D20*
%TO.C,U4*%
X28900000Y-12427500D03*
X28900000Y-11792500D03*
X28900000Y-11157500D03*
X28900000Y-10522500D03*
X28900000Y-9887500D03*
X28900000Y-9252500D03*
X28900000Y-8617500D03*
X28900000Y-7982500D03*
X28900000Y-7347500D03*
X28900000Y-6712500D03*
X28900000Y-6077500D03*
X28900000Y-5442500D03*
X28900000Y-4807500D03*
X28900000Y-4172500D03*
X23700000Y-4172500D03*
X23700000Y-4807500D03*
X23700000Y-5442500D03*
X23700000Y-6077500D03*
X23700000Y-6712500D03*
X23700000Y-7347500D03*
X23700000Y-7982500D03*
X23700000Y-8617500D03*
X23700000Y-9252500D03*
X23700000Y-9887500D03*
X23700000Y-10522500D03*
X23700000Y-11157500D03*
X23700000Y-11792500D03*
X23700000Y-12427500D03*
%TD*%
D21*
%TO.C,J1*%
X6050000Y-15600000D03*
D22*
X7200000Y-11600000D03*
X8400000Y-11600000D03*
X9600000Y-11600000D03*
X10800000Y-11600000D03*
D21*
X11950000Y-15600000D03*
%TD*%
D23*
%TO.C,Y1*%
X31915000Y-13877500D03*
X34115000Y-13877500D03*
X34115000Y-12177500D03*
X31915000Y-12177500D03*
%TD*%
D17*
%TO.C,C5*%
X22250000Y-8170000D03*
X22250000Y-9130000D03*
%TD*%
D24*
%TO.C,D1*%
X17952082Y-3747918D03*
X15547918Y-6152082D03*
%TD*%
D25*
%TO.C,U3*%
X48867000Y-9350000D03*
X48867000Y-10300000D03*
X48867000Y-11250000D03*
X51217000Y-11250000D03*
X51217000Y-10300000D03*
X51217000Y-9350000D03*
%TD*%
D19*
%TO.C,R1*%
X11203000Y-9100000D03*
X12223000Y-9100000D03*
%TD*%
D12*
%TO.C,C7*%
X22250000Y-7180000D03*
X22250000Y-6220000D03*
%TD*%
D13*
%TO.C,USB2*%
X12223000Y-7695000D03*
X11448000Y-7695000D03*
D14*
X10248000Y-7695000D03*
X9248000Y-7695000D03*
X8748000Y-7695000D03*
X7748000Y-7695000D03*
D13*
X5773000Y-7695000D03*
X6548000Y-7695000D03*
D14*
X7248000Y-7695000D03*
X8248000Y-7695000D03*
X9748000Y-7695000D03*
X10748000Y-7695000D03*
D15*
X13318000Y-6780000D03*
D16*
X13318000Y-2600000D03*
D15*
X4678000Y-6780000D03*
D16*
X4678000Y-2600000D03*
%TD*%
D26*
%TO.C,FB1*%
X2600000Y-8905000D03*
X2600000Y-6780000D03*
%TD*%
D12*
%TO.C,C1*%
X37600000Y-5130000D03*
X37600000Y-4170000D03*
%TD*%
D27*
%TO.C,USB4*%
X73062000Y-10149500D03*
X70563000Y-10149500D03*
X68561000Y-10149500D03*
X66062000Y-10149500D03*
D28*
X75963000Y-8675500D03*
X75963000Y-2673500D03*
X63161000Y-8675500D03*
X63161000Y-2724500D03*
%TD*%
D25*
%TO.C,U2*%
X89617000Y-12450000D03*
X89617000Y-13400000D03*
X89617000Y-14350000D03*
X91967000Y-14350000D03*
X91967000Y-13400000D03*
X91967000Y-12450000D03*
%TD*%
D10*
%TO.C,FB3*%
X57000000Y-4655000D03*
X57000000Y-6780000D03*
%TD*%
D29*
%TO.C,U5*%
X18650000Y-8925000D03*
X17700000Y-8925000D03*
X16750000Y-8925000D03*
X16750000Y-11275000D03*
X17700000Y-11275000D03*
X18650000Y-11275000D03*
%TD*%
D18*
%TO.C,R2*%
X6793000Y-9100000D03*
X5773000Y-9100000D03*
%TD*%
D30*
%TO.C,U7*%
X20150000Y-14475000D03*
X21100000Y-14475000D03*
X22050000Y-14475000D03*
X22050000Y-12125000D03*
X21100000Y-12125000D03*
X20150000Y-12125000D03*
%TD*%
D31*
%TO.C,U1*%
X39112500Y-2800000D03*
X39112500Y-3750000D03*
X39112500Y-4700000D03*
X41387500Y-4700000D03*
X41387500Y-2800000D03*
%TD*%
D17*
%TO.C,C6*%
X30350000Y-4482500D03*
X30350000Y-5442500D03*
%TD*%
D25*
%TO.C,U6*%
X58825000Y-10050000D03*
X58825000Y-11000000D03*
X58825000Y-11950000D03*
X61175000Y-11950000D03*
X61175000Y-11000000D03*
X61175000Y-10050000D03*
%TD*%
D17*
%TO.C,C8*%
X30365000Y-12997500D03*
X30365000Y-13957500D03*
%TD*%
D27*
%TO.C,USB1*%
X94292000Y-10149500D03*
X91793000Y-10149500D03*
X89791000Y-10149500D03*
X87292000Y-10149500D03*
D28*
X97193000Y-8675500D03*
X97193000Y-2673500D03*
X84391000Y-8675500D03*
X84391000Y-2724500D03*
%TD*%
M02*
