%TF.GenerationSoftware,KiCad,Pcbnew,7.0.6*%
%TF.CreationDate,2023-09-19T22:06:04+01:00*%
%TF.ProjectId,MoonHub,4d6f6f6e-4875-4622-9e6b-696361645f70,rev?*%
%TF.SameCoordinates,Original*%
%TF.FileFunction,Legend,Bot*%
%TF.FilePolarity,Positive*%
%FSLAX46Y46*%
G04 Gerber Fmt 4.6, Leading zero omitted, Abs format (unit mm)*
G04 Created by KiCad (PCBNEW 7.0.6) date 2023-09-19 22:06:04*
%MOMM*%
%LPD*%
G01*
G04 APERTURE LIST*
%ADD10C,0.153000*%
%ADD11C,0.203200*%
%ADD12C,0.726000*%
%ADD13O,1.176000X2.276000*%
%ADD14O,1.376000X1.976000*%
%ADD15C,1.376000*%
%ADD16C,3.576001*%
%ADD17O,1.476000X2.576000*%
G04 APERTURE END LIST*
D10*
X65000000Y-5100000D02*
X48400000Y-5100000D01*
X93700000Y-5100000D02*
X74100000Y-5100000D01*
X48400000Y-5100000D02*
X48400000Y-4100000D01*
X69284853Y-4900000D02*
X71284853Y-4900000D01*
X70084853Y-5400000D02*
X70484853Y-5400000D01*
X69284853Y-5400000D02*
X69684853Y-5400000D01*
X93700000Y-5100000D02*
X93700000Y-4100000D01*
X70884853Y-5400000D02*
X71284853Y-5400000D01*
X72858481Y-4651704D02*
X73342291Y-4651704D01*
X73342291Y-4651704D02*
X73390672Y-5135514D01*
X73390672Y-5135514D02*
X73342291Y-5087133D01*
X73342291Y-5087133D02*
X73245529Y-5038752D01*
X73245529Y-5038752D02*
X73003624Y-5038752D01*
X73003624Y-5038752D02*
X72906862Y-5087133D01*
X72906862Y-5087133D02*
X72858481Y-5135514D01*
X72858481Y-5135514D02*
X72810100Y-5232276D01*
X72810100Y-5232276D02*
X72810100Y-5474181D01*
X72810100Y-5474181D02*
X72858481Y-5570943D01*
X72858481Y-5570943D02*
X72906862Y-5619324D01*
X72906862Y-5619324D02*
X73003624Y-5667704D01*
X73003624Y-5667704D02*
X73245529Y-5667704D01*
X73245529Y-5667704D02*
X73342291Y-5619324D01*
X73342291Y-5619324D02*
X73390672Y-5570943D01*
X72519815Y-4651704D02*
X72181148Y-5667704D01*
X72181148Y-5667704D02*
X71842481Y-4651704D01*
D11*
G36*
X48118401Y-2888412D02*
G01*
X47050450Y-2888412D01*
X47050450Y-2673065D01*
X47195593Y-2673065D01*
X47232501Y-2723865D01*
X47292220Y-2743269D01*
X47872792Y-2743269D01*
X47932511Y-2723865D01*
X47969419Y-2673065D01*
X47969419Y-2610273D01*
X47932511Y-2559473D01*
X47872792Y-2540069D01*
X47684106Y-2540069D01*
X47684106Y-1919334D01*
X47704188Y-1939416D01*
X47718860Y-1946892D01*
X47730593Y-1958448D01*
X47827355Y-2006829D01*
X47889447Y-2016180D01*
X47945177Y-1987249D01*
X47973258Y-1931086D01*
X47962965Y-1869144D01*
X47918229Y-1825081D01*
X47836213Y-1784072D01*
X47758224Y-1706083D01*
X47667042Y-1569311D01*
X47665363Y-1567984D01*
X47664702Y-1565950D01*
X47640878Y-1548641D01*
X47617771Y-1530386D01*
X47615633Y-1530299D01*
X47613902Y-1529042D01*
X47584455Y-1529042D01*
X47555030Y-1527855D01*
X47553250Y-1529042D01*
X47551110Y-1529042D01*
X47527282Y-1546353D01*
X47502784Y-1562686D01*
X47502041Y-1564691D01*
X47500310Y-1565950D01*
X47491207Y-1593965D01*
X47480989Y-1621574D01*
X47481567Y-1623633D01*
X47480906Y-1625669D01*
X47480906Y-2540069D01*
X47292220Y-2540069D01*
X47232501Y-2559473D01*
X47195593Y-2610273D01*
X47195593Y-2673065D01*
X47050450Y-2673065D01*
X47050450Y-1382712D01*
X48118401Y-1382712D01*
X48118401Y-2888412D01*
G37*
G36*
X67106128Y-2988412D02*
G01*
X65984940Y-2988412D01*
X65984940Y-2015955D01*
X66130083Y-2015955D01*
X66135171Y-2031616D01*
X66135297Y-2048084D01*
X66183678Y-2193227D01*
X66197588Y-2212070D01*
X66208222Y-2232940D01*
X66615352Y-2640069D01*
X66231683Y-2640069D01*
X66171964Y-2659473D01*
X66135056Y-2710273D01*
X66135056Y-2773065D01*
X66171964Y-2823865D01*
X66231683Y-2843269D01*
X66860636Y-2843269D01*
X66883264Y-2835916D01*
X66906761Y-2832195D01*
X66912557Y-2826398D01*
X66920355Y-2823865D01*
X66934340Y-2804615D01*
X66951162Y-2787794D01*
X66952444Y-2779697D01*
X66957263Y-2773065D01*
X66957263Y-2749274D01*
X66960985Y-2725775D01*
X66957262Y-2718470D01*
X66957263Y-2710273D01*
X66943279Y-2691026D01*
X66932478Y-2669827D01*
X66368865Y-2106215D01*
X66333283Y-1999467D01*
X66333283Y-1943177D01*
X66363564Y-1882614D01*
X66388628Y-1857550D01*
X66449192Y-1827269D01*
X66643127Y-1827269D01*
X66703691Y-1857550D01*
X66740413Y-1894273D01*
X66796361Y-1922780D01*
X66858380Y-1912957D01*
X66902781Y-1868556D01*
X66912604Y-1806537D01*
X66884097Y-1750589D01*
X66835716Y-1702208D01*
X66821043Y-1694731D01*
X66809311Y-1683176D01*
X66712549Y-1634795D01*
X66689388Y-1631306D01*
X66667112Y-1624069D01*
X66425207Y-1624069D01*
X66402930Y-1631306D01*
X66379770Y-1634795D01*
X66283008Y-1683176D01*
X66271275Y-1694731D01*
X66256603Y-1702208D01*
X66208222Y-1750589D01*
X66200745Y-1765261D01*
X66189190Y-1776994D01*
X66140809Y-1873756D01*
X66137320Y-1896916D01*
X66130083Y-1919193D01*
X66130083Y-2015955D01*
X65984940Y-2015955D01*
X65984940Y-1478926D01*
X67106128Y-1478926D01*
X67106128Y-2988412D01*
G37*
G36*
X6870364Y-4773208D02*
G01*
X6668478Y-4773208D01*
X6769421Y-4470379D01*
X6870364Y-4773208D01*
G37*
G36*
X8796583Y-4579684D02*
G01*
X8535120Y-4579684D01*
X8474556Y-4549402D01*
X8449493Y-4524339D01*
X8419211Y-4463774D01*
X8419211Y-4366602D01*
X8449493Y-4306038D01*
X8474556Y-4280974D01*
X8535120Y-4250693D01*
X8796583Y-4250693D01*
X8796583Y-4579684D01*
G37*
G36*
X11554297Y-4579684D02*
G01*
X11292834Y-4579684D01*
X11232270Y-4549402D01*
X11207206Y-4524338D01*
X11176925Y-4463774D01*
X11176925Y-4366601D01*
X11207206Y-4306038D01*
X11232270Y-4280975D01*
X11292834Y-4250693D01*
X11554297Y-4250693D01*
X11554297Y-4579684D01*
G37*
G36*
X12967021Y-5411836D02*
G01*
X5168011Y-5411836D01*
X5168011Y-5165093D01*
X5313154Y-5165093D01*
X5332558Y-5224812D01*
X5383358Y-5261720D01*
X5446150Y-5261720D01*
X5496950Y-5224812D01*
X5516354Y-5165093D01*
X5516354Y-4607060D01*
X5661353Y-4917773D01*
X5674657Y-4932031D01*
X5684108Y-4949093D01*
X5695565Y-4954439D01*
X5704191Y-4963684D01*
X5723335Y-4967399D01*
X5741009Y-4975647D01*
X5753420Y-4973238D01*
X5765833Y-4975647D01*
X5783506Y-4967399D01*
X5802651Y-4963684D01*
X5811276Y-4954439D01*
X5822734Y-4949093D01*
X5832184Y-4932031D01*
X5845489Y-4917773D01*
X5990488Y-4607060D01*
X5990488Y-5165093D01*
X6009892Y-5224812D01*
X6060692Y-5261720D01*
X6123484Y-5261720D01*
X6174284Y-5224812D01*
X6183725Y-5195755D01*
X6333891Y-5195755D01*
X6370413Y-5246833D01*
X6429983Y-5266690D01*
X6489847Y-5247740D01*
X6527140Y-5197222D01*
X6600745Y-4976408D01*
X6938097Y-4976408D01*
X7011702Y-5197222D01*
X7048995Y-5247740D01*
X7108859Y-5266690D01*
X7168429Y-5246833D01*
X7204426Y-5196489D01*
X7301746Y-5196489D01*
X7338654Y-5247289D01*
X7398373Y-5266693D01*
X7882183Y-5266693D01*
X7897488Y-5261720D01*
X7913579Y-5261720D01*
X7926597Y-5252261D01*
X7941902Y-5247289D01*
X7951360Y-5234270D01*
X7964379Y-5224812D01*
X7969351Y-5209507D01*
X7978810Y-5196489D01*
X7978810Y-5180398D01*
X7983783Y-5165093D01*
X7983783Y-4487760D01*
X8216011Y-4487760D01*
X8223248Y-4510036D01*
X8226737Y-4533197D01*
X8275118Y-4629959D01*
X8286673Y-4641691D01*
X8294150Y-4656364D01*
X8342531Y-4704745D01*
X8357203Y-4712221D01*
X8368936Y-4723777D01*
X8465698Y-4772158D01*
X8468365Y-4772559D01*
X8234377Y-5106829D01*
X8216027Y-5166880D01*
X8236478Y-5226248D01*
X8287920Y-5262257D01*
X8350702Y-5261153D01*
X8400845Y-5223357D01*
X8709176Y-4782884D01*
X8796583Y-4782884D01*
X8796583Y-5165093D01*
X8815987Y-5224812D01*
X8866787Y-5261720D01*
X8929579Y-5261720D01*
X8980379Y-5224812D01*
X8999783Y-5165093D01*
X8999783Y-4180489D01*
X9140222Y-4180489D01*
X9177130Y-4231289D01*
X9236849Y-4250693D01*
X9425535Y-4250693D01*
X9425535Y-5165093D01*
X9444939Y-5224812D01*
X9495739Y-5261720D01*
X9558531Y-5261720D01*
X9609331Y-5224812D01*
X9628735Y-5165093D01*
X9628735Y-4971570D01*
X10006106Y-4971570D01*
X10013343Y-4993846D01*
X10016832Y-5017007D01*
X10065213Y-5113769D01*
X10076768Y-5125501D01*
X10084245Y-5140174D01*
X10132626Y-5188555D01*
X10147299Y-5196031D01*
X10159032Y-5207587D01*
X10255794Y-5255967D01*
X10278953Y-5259454D01*
X10301230Y-5266693D01*
X10543135Y-5266693D01*
X10558796Y-5261604D01*
X10575263Y-5261479D01*
X10720406Y-5213099D01*
X10770925Y-5175807D01*
X10789875Y-5115942D01*
X10770019Y-5056372D01*
X10718941Y-5019850D01*
X10656150Y-5020327D01*
X10526649Y-5063493D01*
X10325214Y-5063493D01*
X10264651Y-5033212D01*
X10239587Y-5008148D01*
X10209306Y-4947585D01*
X10209306Y-4898793D01*
X10239588Y-4838228D01*
X10264650Y-4813166D01*
X10336694Y-4777144D01*
X10519396Y-4731469D01*
X10528993Y-4725463D01*
X10540191Y-4723777D01*
X10636953Y-4675396D01*
X10648685Y-4663840D01*
X10663358Y-4656364D01*
X10711739Y-4607983D01*
X10719215Y-4593310D01*
X10730771Y-4581578D01*
X10777680Y-4487760D01*
X10973725Y-4487760D01*
X10980962Y-4510036D01*
X10984451Y-4533197D01*
X11032832Y-4629959D01*
X11044387Y-4641691D01*
X11051864Y-4656364D01*
X11100245Y-4704745D01*
X11114917Y-4712221D01*
X11126650Y-4723777D01*
X11223412Y-4772158D01*
X11246572Y-4775646D01*
X11268849Y-4782884D01*
X11554297Y-4782884D01*
X11554297Y-5165093D01*
X11573701Y-5224812D01*
X11624501Y-5261720D01*
X11687293Y-5261720D01*
X11738093Y-5224812D01*
X11757497Y-5165093D01*
X11757497Y-4971570D01*
X12038106Y-4971570D01*
X12045343Y-4993846D01*
X12048832Y-5017007D01*
X12097213Y-5113769D01*
X12108768Y-5125501D01*
X12116245Y-5140174D01*
X12164626Y-5188555D01*
X12179299Y-5196031D01*
X12191032Y-5207587D01*
X12287794Y-5255967D01*
X12310953Y-5259454D01*
X12333230Y-5266693D01*
X12526754Y-5266693D01*
X12549030Y-5259454D01*
X12572190Y-5255967D01*
X12668952Y-5207587D01*
X12680684Y-5196031D01*
X12695358Y-5188555D01*
X12743739Y-5140174D01*
X12751215Y-5125501D01*
X12762771Y-5113769D01*
X12811152Y-5017007D01*
X12814640Y-4993846D01*
X12821878Y-4971570D01*
X12821878Y-4149093D01*
X12802474Y-4089374D01*
X12751674Y-4052466D01*
X12688882Y-4052466D01*
X12638082Y-4089374D01*
X12618678Y-4149093D01*
X12618678Y-4947585D01*
X12588396Y-5008148D01*
X12563332Y-5033212D01*
X12502770Y-5063493D01*
X12357214Y-5063493D01*
X12296651Y-5033212D01*
X12271587Y-5008148D01*
X12241306Y-4947584D01*
X12241306Y-4149093D01*
X12221902Y-4089374D01*
X12171102Y-4052466D01*
X12108310Y-4052466D01*
X12057510Y-4089374D01*
X12038106Y-4149093D01*
X12038106Y-4971570D01*
X11757497Y-4971570D01*
X11757497Y-4149093D01*
X11752524Y-4133787D01*
X11752524Y-4117697D01*
X11743065Y-4104678D01*
X11738093Y-4089374D01*
X11725074Y-4079915D01*
X11715616Y-4066897D01*
X11700311Y-4061924D01*
X11687293Y-4052466D01*
X11671202Y-4052466D01*
X11655897Y-4047493D01*
X11268849Y-4047493D01*
X11246572Y-4054730D01*
X11223412Y-4058219D01*
X11126650Y-4106600D01*
X11114917Y-4118155D01*
X11100245Y-4125632D01*
X11051864Y-4174013D01*
X11044387Y-4188685D01*
X11032832Y-4200418D01*
X10984451Y-4297180D01*
X10980962Y-4320340D01*
X10973725Y-4342617D01*
X10973725Y-4487760D01*
X10777680Y-4487760D01*
X10779152Y-4484816D01*
X10782640Y-4461655D01*
X10789878Y-4439379D01*
X10789878Y-4342617D01*
X10782640Y-4320340D01*
X10779152Y-4297180D01*
X10730771Y-4200418D01*
X10719215Y-4188685D01*
X10711739Y-4174013D01*
X10663358Y-4125632D01*
X10648685Y-4118155D01*
X10636953Y-4106600D01*
X10540191Y-4058219D01*
X10517030Y-4054730D01*
X10494754Y-4047493D01*
X10252849Y-4047493D01*
X10237187Y-4052581D01*
X10220720Y-4052707D01*
X10075577Y-4101088D01*
X10025059Y-4138381D01*
X10006109Y-4198245D01*
X10025966Y-4257815D01*
X10077044Y-4294337D01*
X10139835Y-4293860D01*
X10269336Y-4250693D01*
X10470769Y-4250693D01*
X10531333Y-4280975D01*
X10556395Y-4306037D01*
X10586678Y-4366602D01*
X10586678Y-4415393D01*
X10556396Y-4475957D01*
X10531332Y-4501021D01*
X10459290Y-4537042D01*
X10276588Y-4582718D01*
X10266990Y-4588723D01*
X10255793Y-4590410D01*
X10159031Y-4638791D01*
X10147298Y-4650346D01*
X10132626Y-4657823D01*
X10084245Y-4706204D01*
X10076768Y-4720876D01*
X10065213Y-4732609D01*
X10016832Y-4829371D01*
X10013343Y-4852531D01*
X10006106Y-4874808D01*
X10006106Y-4971570D01*
X9628735Y-4971570D01*
X9628735Y-4250693D01*
X9817421Y-4250693D01*
X9877140Y-4231289D01*
X9914048Y-4180489D01*
X9914048Y-4117697D01*
X9877140Y-4066897D01*
X9817421Y-4047493D01*
X9236849Y-4047493D01*
X9177130Y-4066897D01*
X9140222Y-4117697D01*
X9140222Y-4180489D01*
X8999783Y-4180489D01*
X8999783Y-4149093D01*
X8994810Y-4133787D01*
X8994810Y-4117697D01*
X8985351Y-4104678D01*
X8980379Y-4089374D01*
X8967360Y-4079915D01*
X8957902Y-4066897D01*
X8942597Y-4061924D01*
X8929579Y-4052466D01*
X8913488Y-4052466D01*
X8898183Y-4047493D01*
X8511135Y-4047493D01*
X8488858Y-4054730D01*
X8465698Y-4058219D01*
X8368936Y-4106600D01*
X8357203Y-4118155D01*
X8342531Y-4125632D01*
X8294150Y-4174013D01*
X8286673Y-4188685D01*
X8275118Y-4200418D01*
X8226737Y-4297180D01*
X8223248Y-4320340D01*
X8216011Y-4342617D01*
X8216011Y-4487760D01*
X7983783Y-4487760D01*
X7983783Y-4149093D01*
X7978810Y-4133787D01*
X7978810Y-4117697D01*
X7969351Y-4104678D01*
X7964379Y-4089374D01*
X7951360Y-4079915D01*
X7941902Y-4066897D01*
X7926597Y-4061924D01*
X7913579Y-4052466D01*
X7897488Y-4052466D01*
X7882183Y-4047493D01*
X7398373Y-4047493D01*
X7338654Y-4066897D01*
X7301746Y-4117697D01*
X7301746Y-4180489D01*
X7338654Y-4231289D01*
X7398373Y-4250693D01*
X7780583Y-4250693D01*
X7780583Y-4531303D01*
X7543516Y-4531303D01*
X7483797Y-4550707D01*
X7446889Y-4601507D01*
X7446889Y-4664299D01*
X7483797Y-4715099D01*
X7543516Y-4734503D01*
X7780583Y-4734503D01*
X7780583Y-5063493D01*
X7398373Y-5063493D01*
X7338654Y-5082897D01*
X7301746Y-5133697D01*
X7301746Y-5196489D01*
X7204426Y-5196489D01*
X7204951Y-5195755D01*
X7204474Y-5132964D01*
X6865807Y-4116964D01*
X6847598Y-4092298D01*
X6829762Y-4067353D01*
X6828994Y-4067097D01*
X6828514Y-4066446D01*
X6799267Y-4057187D01*
X6770192Y-4047496D01*
X6769421Y-4047740D01*
X6768650Y-4047496D01*
X6739574Y-4057187D01*
X6710328Y-4066446D01*
X6709847Y-4067097D01*
X6709080Y-4067353D01*
X6691243Y-4092298D01*
X6673035Y-4116964D01*
X6334368Y-5132964D01*
X6333891Y-5195755D01*
X6183725Y-5195755D01*
X6193688Y-5165093D01*
X6193688Y-4149093D01*
X6190610Y-4139620D01*
X6191827Y-4129736D01*
X6181115Y-4110397D01*
X6174284Y-4089374D01*
X6166226Y-4083520D01*
X6161401Y-4074808D01*
X6141367Y-4065458D01*
X6123484Y-4052466D01*
X6113526Y-4052466D01*
X6104500Y-4048254D01*
X6082797Y-4052466D01*
X6060692Y-4052466D01*
X6052635Y-4058319D01*
X6042858Y-4060217D01*
X6027776Y-4076380D01*
X6009892Y-4089374D01*
X6006814Y-4098846D01*
X6000020Y-4106128D01*
X5753421Y-4634554D01*
X5506822Y-4106128D01*
X5500027Y-4098846D01*
X5496950Y-4089374D01*
X5479065Y-4076380D01*
X5463984Y-4060217D01*
X5454206Y-4058319D01*
X5446150Y-4052466D01*
X5424045Y-4052466D01*
X5402342Y-4048254D01*
X5393316Y-4052466D01*
X5383358Y-4052466D01*
X5365474Y-4065458D01*
X5345441Y-4074808D01*
X5340615Y-4083520D01*
X5332558Y-4089374D01*
X5325726Y-4110397D01*
X5315015Y-4129736D01*
X5316231Y-4139620D01*
X5313154Y-4149093D01*
X5313154Y-5165093D01*
X5168011Y-5165093D01*
X5168011Y-3902350D01*
X12967021Y-3902350D01*
X12967021Y-5411836D01*
G37*
G36*
X88376128Y-2888412D02*
G01*
X87254940Y-2888412D01*
X87254940Y-2448146D01*
X87400083Y-2448146D01*
X87407320Y-2470422D01*
X87410809Y-2493583D01*
X87459190Y-2590345D01*
X87470745Y-2602077D01*
X87478222Y-2616750D01*
X87526603Y-2665131D01*
X87541276Y-2672607D01*
X87553009Y-2684163D01*
X87649771Y-2732543D01*
X87672930Y-2736030D01*
X87695207Y-2743269D01*
X87985493Y-2743269D01*
X88007769Y-2736030D01*
X88030929Y-2732543D01*
X88127691Y-2684163D01*
X88139423Y-2672607D01*
X88154097Y-2665131D01*
X88202478Y-2616750D01*
X88230985Y-2560802D01*
X88221162Y-2498783D01*
X88176761Y-2454382D01*
X88114742Y-2444559D01*
X88058794Y-2473066D01*
X88022071Y-2509788D01*
X87961509Y-2540069D01*
X87719191Y-2540069D01*
X87658628Y-2509788D01*
X87633565Y-2484725D01*
X87603283Y-2424160D01*
X87603283Y-2230226D01*
X87633565Y-2169662D01*
X87658628Y-2144598D01*
X87719192Y-2114317D01*
X87840350Y-2114317D01*
X87859889Y-2107968D01*
X87880351Y-2106111D01*
X87889061Y-2098489D01*
X87900069Y-2094913D01*
X87912145Y-2078290D01*
X87927607Y-2064762D01*
X87930173Y-2053476D01*
X87936977Y-2044113D01*
X87936977Y-2023568D01*
X87941534Y-2003534D01*
X87936977Y-1992894D01*
X87936977Y-1981321D01*
X87924901Y-1964700D01*
X87916812Y-1945813D01*
X87725586Y-1727269D01*
X88130636Y-1727269D01*
X88190355Y-1707865D01*
X88227263Y-1657065D01*
X88227263Y-1594273D01*
X88190355Y-1543473D01*
X88130636Y-1524069D01*
X87501683Y-1524069D01*
X87482143Y-1530417D01*
X87461682Y-1532275D01*
X87452971Y-1539896D01*
X87441964Y-1543473D01*
X87429887Y-1560095D01*
X87414426Y-1573624D01*
X87411859Y-1584909D01*
X87405056Y-1594273D01*
X87405056Y-1614817D01*
X87400499Y-1634852D01*
X87405056Y-1645491D01*
X87405056Y-1657065D01*
X87417131Y-1673685D01*
X87425221Y-1692573D01*
X87633117Y-1930169D01*
X87553008Y-1970224D01*
X87541275Y-1981779D01*
X87526603Y-1989256D01*
X87478222Y-2037637D01*
X87470745Y-2052309D01*
X87459190Y-2064042D01*
X87410809Y-2160804D01*
X87407320Y-2183964D01*
X87400083Y-2206241D01*
X87400083Y-2448146D01*
X87254940Y-2448146D01*
X87254940Y-1378926D01*
X88376128Y-1378926D01*
X88376128Y-2888412D01*
G37*
D10*
X68448767Y-4651704D02*
X68352005Y-4651704D01*
X68352005Y-4651704D02*
X68255243Y-4700085D01*
X68255243Y-4700085D02*
X68206862Y-4748466D01*
X68206862Y-4748466D02*
X68158481Y-4845228D01*
X68158481Y-4845228D02*
X68110100Y-5038752D01*
X68110100Y-5038752D02*
X68110100Y-5280657D01*
X68110100Y-5280657D02*
X68158481Y-5474181D01*
X68158481Y-5474181D02*
X68206862Y-5570943D01*
X68206862Y-5570943D02*
X68255243Y-5619324D01*
X68255243Y-5619324D02*
X68352005Y-5667704D01*
X68352005Y-5667704D02*
X68448767Y-5667704D01*
X68448767Y-5667704D02*
X68545529Y-5619324D01*
X68545529Y-5619324D02*
X68593910Y-5570943D01*
X68593910Y-5570943D02*
X68642291Y-5474181D01*
X68642291Y-5474181D02*
X68690672Y-5280657D01*
X68690672Y-5280657D02*
X68690672Y-5038752D01*
X68690672Y-5038752D02*
X68642291Y-4845228D01*
X68642291Y-4845228D02*
X68593910Y-4748466D01*
X68593910Y-4748466D02*
X68545529Y-4700085D01*
X68545529Y-4700085D02*
X68448767Y-4651704D01*
X67674672Y-5570943D02*
X67626291Y-5619324D01*
X67626291Y-5619324D02*
X67674672Y-5667704D01*
X67674672Y-5667704D02*
X67723053Y-5619324D01*
X67723053Y-5619324D02*
X67674672Y-5570943D01*
X67674672Y-5570943D02*
X67674672Y-5667704D01*
X66707052Y-4651704D02*
X67190862Y-4651704D01*
X67190862Y-4651704D02*
X67239243Y-5135514D01*
X67239243Y-5135514D02*
X67190862Y-5087133D01*
X67190862Y-5087133D02*
X67094100Y-5038752D01*
X67094100Y-5038752D02*
X66852195Y-5038752D01*
X66852195Y-5038752D02*
X66755433Y-5087133D01*
X66755433Y-5087133D02*
X66707052Y-5135514D01*
X66707052Y-5135514D02*
X66658671Y-5232276D01*
X66658671Y-5232276D02*
X66658671Y-5474181D01*
X66658671Y-5474181D02*
X66707052Y-5570943D01*
X66707052Y-5570943D02*
X66755433Y-5619324D01*
X66755433Y-5619324D02*
X66852195Y-5667704D01*
X66852195Y-5667704D02*
X67094100Y-5667704D01*
X67094100Y-5667704D02*
X67190862Y-5619324D01*
X67190862Y-5619324D02*
X67239243Y-5570943D01*
X66271624Y-5377419D02*
X65787814Y-5377419D01*
X66368386Y-5667704D02*
X66029719Y-4651704D01*
X66029719Y-4651704D02*
X65691052Y-5667704D01*
%TO.C,G\u002A\u002A\u002A*%
G36*
X69612269Y-940506D02*
G01*
X69642119Y-945768D01*
X69654277Y-949162D01*
X69703091Y-968515D01*
X69747971Y-995549D01*
X69787775Y-1029331D01*
X69821361Y-1068929D01*
X69847587Y-1113411D01*
X69864803Y-1149616D01*
X70149191Y-1149744D01*
X70185282Y-1149766D01*
X70242561Y-1149851D01*
X70291745Y-1150039D01*
X70333653Y-1150379D01*
X70369104Y-1150920D01*
X70398919Y-1151714D01*
X70423916Y-1152809D01*
X70444915Y-1154257D01*
X70462737Y-1156105D01*
X70478199Y-1158406D01*
X70492123Y-1161208D01*
X70505327Y-1164562D01*
X70518630Y-1168517D01*
X70532854Y-1173123D01*
X70534875Y-1173798D01*
X70579620Y-1191475D01*
X70626544Y-1214616D01*
X70672775Y-1241557D01*
X70715446Y-1270631D01*
X70751687Y-1300173D01*
X70755647Y-1304065D01*
X70766098Y-1314738D01*
X70782184Y-1331372D01*
X70803450Y-1353491D01*
X70829444Y-1380620D01*
X70859709Y-1412283D01*
X70893793Y-1448004D01*
X70931241Y-1487309D01*
X70971599Y-1529720D01*
X71014413Y-1574763D01*
X71059229Y-1621962D01*
X71105593Y-1670842D01*
X71145599Y-1712994D01*
X71199215Y-1769326D01*
X71248651Y-1821071D01*
X71293661Y-1867976D01*
X71333999Y-1909788D01*
X71369420Y-1946255D01*
X71399677Y-1977123D01*
X71424527Y-2002142D01*
X71443722Y-2021057D01*
X71457017Y-2033617D01*
X71464166Y-2039569D01*
X71480199Y-2049146D01*
X71511568Y-2065055D01*
X71544094Y-2078633D01*
X71573607Y-2088033D01*
X71574392Y-2088225D01*
X71583662Y-2089890D01*
X71596653Y-2091258D01*
X71614173Y-2092352D01*
X71637030Y-2093194D01*
X71666031Y-2093808D01*
X71701984Y-2094218D01*
X71745697Y-2094447D01*
X71797977Y-2094518D01*
X71996563Y-2094518D01*
X72008041Y-2054779D01*
X72025809Y-2003327D01*
X72055375Y-1941938D01*
X72092072Y-1885655D01*
X72135217Y-1834947D01*
X72184128Y-1790282D01*
X72238125Y-1752127D01*
X72296524Y-1720952D01*
X72358645Y-1697224D01*
X72423805Y-1681411D01*
X72491322Y-1673982D01*
X72560516Y-1675404D01*
X72571057Y-1676412D01*
X72640082Y-1688176D01*
X72705536Y-1708278D01*
X72766890Y-1736233D01*
X72823611Y-1771553D01*
X72875167Y-1813753D01*
X72921026Y-1862347D01*
X72960657Y-1916847D01*
X72993526Y-1976768D01*
X73019104Y-2041623D01*
X73036856Y-2110927D01*
X73040167Y-2135340D01*
X73042197Y-2168272D01*
X73042575Y-2204579D01*
X73041343Y-2241199D01*
X73038542Y-2275072D01*
X73034216Y-2303138D01*
X73016884Y-2366796D01*
X72991246Y-2429557D01*
X72958798Y-2487126D01*
X72920208Y-2539229D01*
X72876141Y-2585591D01*
X72827263Y-2625938D01*
X72774240Y-2659996D01*
X72717738Y-2687491D01*
X72658424Y-2708148D01*
X72596964Y-2721693D01*
X72534023Y-2727851D01*
X72470268Y-2726349D01*
X72406365Y-2716911D01*
X72342979Y-2699265D01*
X72280779Y-2673135D01*
X72220428Y-2638246D01*
X72189199Y-2615503D01*
X72140857Y-2571684D01*
X72097553Y-2521366D01*
X72060296Y-2465940D01*
X72030095Y-2406798D01*
X72007960Y-2345330D01*
X71996572Y-2305482D01*
X71404183Y-2305482D01*
X71321900Y-2305488D01*
X71243086Y-2305511D01*
X71172667Y-2305559D01*
X71110137Y-2305637D01*
X71054990Y-2305753D01*
X71006721Y-2305912D01*
X70964823Y-2306123D01*
X70928792Y-2306391D01*
X70898121Y-2306722D01*
X70872305Y-2307125D01*
X70850838Y-2307605D01*
X70833214Y-2308168D01*
X70818928Y-2308823D01*
X70807473Y-2309574D01*
X70798345Y-2310429D01*
X70791038Y-2311395D01*
X70785046Y-2312478D01*
X70779862Y-2313685D01*
X70755050Y-2321344D01*
X70718862Y-2336405D01*
X70684663Y-2354796D01*
X70656144Y-2374695D01*
X70651726Y-2378758D01*
X70640603Y-2389746D01*
X70623865Y-2406707D01*
X70601975Y-2429158D01*
X70575397Y-2456616D01*
X70544594Y-2488599D01*
X70510030Y-2524625D01*
X70472169Y-2564211D01*
X70431473Y-2606874D01*
X70388408Y-2652133D01*
X70343435Y-2699504D01*
X70297019Y-2748505D01*
X70267805Y-2779356D01*
X70211918Y-2838226D01*
X70160323Y-2892368D01*
X70113251Y-2941545D01*
X70070935Y-2985517D01*
X70033606Y-3024046D01*
X70001495Y-3056894D01*
X69974834Y-3083823D01*
X69953855Y-3104592D01*
X69938789Y-3118965D01*
X69929868Y-3126702D01*
X69873204Y-3165654D01*
X69813785Y-3198337D01*
X69751618Y-3224084D01*
X69684312Y-3244038D01*
X69676758Y-3245626D01*
X69667214Y-3247028D01*
X69655062Y-3248231D01*
X69639550Y-3249260D01*
X69619927Y-3250137D01*
X69595440Y-3250884D01*
X69565337Y-3251526D01*
X69528867Y-3252083D01*
X69485276Y-3252581D01*
X69433814Y-3253040D01*
X69373727Y-3253485D01*
X69093614Y-3255414D01*
X69093614Y-3360598D01*
X69093614Y-3465781D01*
X68777169Y-3465781D01*
X68460724Y-3465781D01*
X68460724Y-3149336D01*
X68460724Y-2832890D01*
X68777169Y-2832890D01*
X69093614Y-2832890D01*
X69093614Y-2938372D01*
X69093614Y-3043854D01*
X69354000Y-3043854D01*
X69404248Y-3043830D01*
X69457921Y-3043704D01*
X69503718Y-3043417D01*
X69542464Y-3042913D01*
X69574984Y-3042134D01*
X69602105Y-3041022D01*
X69624651Y-3039520D01*
X69643449Y-3037571D01*
X69659323Y-3035118D01*
X69673099Y-3032103D01*
X69685603Y-3028468D01*
X69697660Y-3024157D01*
X69710096Y-3019111D01*
X69714855Y-3017102D01*
X69724901Y-3012738D01*
X69734364Y-3008261D01*
X69743683Y-3003251D01*
X69753297Y-2997292D01*
X69763646Y-2989963D01*
X69775169Y-2980848D01*
X69788305Y-2969527D01*
X69803494Y-2955581D01*
X69821175Y-2938593D01*
X69841787Y-2918144D01*
X69865771Y-2893816D01*
X69893564Y-2865190D01*
X69925607Y-2831847D01*
X69962340Y-2793370D01*
X70004200Y-2749339D01*
X70051628Y-2699337D01*
X70105063Y-2642945D01*
X70126733Y-2620063D01*
X70170399Y-2573904D01*
X70211982Y-2529879D01*
X70251045Y-2488455D01*
X70287151Y-2450097D01*
X70319861Y-2415273D01*
X70348739Y-2384449D01*
X70373347Y-2358091D01*
X70393248Y-2336666D01*
X70408005Y-2320640D01*
X70417180Y-2310481D01*
X70420336Y-2306654D01*
X70417954Y-2306433D01*
X70406854Y-2306132D01*
X70387046Y-2305838D01*
X70358920Y-2305553D01*
X70322866Y-2305279D01*
X70279274Y-2305015D01*
X70228533Y-2304765D01*
X70171033Y-2304528D01*
X70107163Y-2304305D01*
X70037313Y-2304098D01*
X69961873Y-2303909D01*
X69881232Y-2303737D01*
X69795781Y-2303585D01*
X69705907Y-2303453D01*
X69612002Y-2303343D01*
X69514455Y-2303255D01*
X69413655Y-2303190D01*
X69309993Y-2303151D01*
X69203857Y-2303138D01*
X67987374Y-2303138D01*
X67986129Y-2434446D01*
X67984884Y-2565755D01*
X67669765Y-2384063D01*
X67669637Y-2383990D01*
X67608433Y-2348648D01*
X67555008Y-2317678D01*
X67508975Y-2290846D01*
X67469946Y-2267918D01*
X67437535Y-2248660D01*
X67411353Y-2232838D01*
X67391015Y-2220219D01*
X67376133Y-2210568D01*
X67366320Y-2203652D01*
X67361188Y-2199236D01*
X67360351Y-2197086D01*
X67360596Y-2196888D01*
X67366753Y-2192958D01*
X67380105Y-2184930D01*
X67399886Y-2173243D01*
X67425331Y-2158337D01*
X67455675Y-2140654D01*
X67490152Y-2120632D01*
X67527998Y-2098713D01*
X67568447Y-2075335D01*
X67610733Y-2050940D01*
X67654092Y-2025967D01*
X67697758Y-2000857D01*
X67740966Y-1976049D01*
X67782951Y-1951984D01*
X67822946Y-1929102D01*
X67860188Y-1907843D01*
X67893911Y-1888647D01*
X67923349Y-1871954D01*
X67947738Y-1858205D01*
X67966311Y-1847839D01*
X67978304Y-1841297D01*
X67982952Y-1839018D01*
X67984032Y-1842685D01*
X67985094Y-1854781D01*
X67985978Y-1874354D01*
X67986650Y-1900404D01*
X67987078Y-1931933D01*
X67987228Y-1967940D01*
X67987228Y-2096862D01*
X69600501Y-2096862D01*
X69630201Y-2096862D01*
X69774639Y-2096860D01*
X69910048Y-2096852D01*
X70036715Y-2096839D01*
X70154929Y-2096818D01*
X70264979Y-2096787D01*
X70367153Y-2096746D01*
X70461741Y-2096694D01*
X70549031Y-2096627D01*
X70629311Y-2096546D01*
X70702871Y-2096449D01*
X70769999Y-2096334D01*
X70830983Y-2096200D01*
X70886113Y-2096045D01*
X70935678Y-2095868D01*
X70979965Y-2095668D01*
X71019264Y-2095443D01*
X71053863Y-2095192D01*
X71084051Y-2094913D01*
X71110116Y-2094605D01*
X71132349Y-2094266D01*
X71151036Y-2093895D01*
X71166467Y-2093490D01*
X71178931Y-2093051D01*
X71188716Y-2092575D01*
X71196111Y-2092062D01*
X71201404Y-2091509D01*
X71204885Y-2090916D01*
X71206842Y-2090280D01*
X71207564Y-2089601D01*
X71207339Y-2088877D01*
X71207046Y-2088518D01*
X71200298Y-2080859D01*
X71187788Y-2067196D01*
X71170071Y-2048110D01*
X71147701Y-2024185D01*
X71121233Y-1996003D01*
X71091222Y-1964148D01*
X71058221Y-1929202D01*
X71022785Y-1891749D01*
X70985468Y-1852370D01*
X70946826Y-1811649D01*
X70907412Y-1770169D01*
X70867781Y-1728512D01*
X70828488Y-1687262D01*
X70790087Y-1647001D01*
X70753132Y-1608312D01*
X70718178Y-1571777D01*
X70685780Y-1537981D01*
X70656491Y-1507505D01*
X70630867Y-1480933D01*
X70609461Y-1458847D01*
X70592829Y-1441830D01*
X70581525Y-1430466D01*
X70576103Y-1425336D01*
X70552981Y-1409491D01*
X70523165Y-1393048D01*
X70491053Y-1378457D01*
X70460189Y-1367488D01*
X70454032Y-1365854D01*
X70446464Y-1364345D01*
X70437139Y-1363059D01*
X70425295Y-1361973D01*
X70410171Y-1361063D01*
X70391003Y-1360303D01*
X70367031Y-1359669D01*
X70337492Y-1359139D01*
X70301624Y-1358686D01*
X70258666Y-1358286D01*
X70207856Y-1357917D01*
X70148432Y-1357552D01*
X69864803Y-1355912D01*
X69847082Y-1393595D01*
X69834243Y-1417426D01*
X69805589Y-1456637D01*
X69770331Y-1491816D01*
X69730100Y-1521648D01*
X69686525Y-1544813D01*
X69641236Y-1559995D01*
X69634531Y-1561362D01*
X69613518Y-1564247D01*
X69588855Y-1566263D01*
X69564579Y-1567040D01*
X69526350Y-1565169D01*
X69475450Y-1555631D01*
X69428571Y-1537779D01*
X69385076Y-1511352D01*
X69344330Y-1476085D01*
X69315355Y-1443658D01*
X69286777Y-1400987D01*
X69266833Y-1355593D01*
X69255144Y-1306570D01*
X69251332Y-1253009D01*
X69253710Y-1210230D01*
X69263722Y-1160334D01*
X69281910Y-1114258D01*
X69308654Y-1071093D01*
X69344330Y-1029932D01*
X69351226Y-1023192D01*
X69393811Y-988949D01*
X69440787Y-962986D01*
X69492101Y-945331D01*
X69508405Y-942044D01*
X69541529Y-938633D01*
X69577444Y-938124D01*
X69612269Y-940506D01*
G37*
G36*
X50612269Y-840506D02*
G01*
X50642119Y-845768D01*
X50654277Y-849162D01*
X50703091Y-868515D01*
X50747971Y-895549D01*
X50787775Y-929331D01*
X50821361Y-968929D01*
X50847587Y-1013411D01*
X50864803Y-1049616D01*
X51149191Y-1049744D01*
X51185282Y-1049766D01*
X51242561Y-1049851D01*
X51291745Y-1050039D01*
X51333653Y-1050379D01*
X51369104Y-1050920D01*
X51398919Y-1051714D01*
X51423916Y-1052809D01*
X51444915Y-1054257D01*
X51462737Y-1056105D01*
X51478199Y-1058406D01*
X51492123Y-1061208D01*
X51505327Y-1064562D01*
X51518630Y-1068517D01*
X51532854Y-1073123D01*
X51534875Y-1073798D01*
X51579620Y-1091475D01*
X51626544Y-1114616D01*
X51672775Y-1141557D01*
X51715446Y-1170631D01*
X51751687Y-1200173D01*
X51755647Y-1204065D01*
X51766098Y-1214738D01*
X51782184Y-1231372D01*
X51803450Y-1253491D01*
X51829444Y-1280620D01*
X51859709Y-1312283D01*
X51893793Y-1348004D01*
X51931241Y-1387309D01*
X51971599Y-1429720D01*
X52014413Y-1474763D01*
X52059229Y-1521962D01*
X52105593Y-1570842D01*
X52145599Y-1612994D01*
X52199215Y-1669326D01*
X52248651Y-1721071D01*
X52293661Y-1767976D01*
X52333999Y-1809788D01*
X52369420Y-1846255D01*
X52399677Y-1877123D01*
X52424527Y-1902142D01*
X52443722Y-1921057D01*
X52457017Y-1933617D01*
X52464166Y-1939569D01*
X52480199Y-1949146D01*
X52511568Y-1965055D01*
X52544094Y-1978633D01*
X52573607Y-1988033D01*
X52574392Y-1988225D01*
X52583662Y-1989890D01*
X52596653Y-1991258D01*
X52614173Y-1992352D01*
X52637030Y-1993194D01*
X52666031Y-1993808D01*
X52701984Y-1994218D01*
X52745697Y-1994447D01*
X52797977Y-1994518D01*
X52996563Y-1994518D01*
X53008041Y-1954779D01*
X53025809Y-1903327D01*
X53055375Y-1841938D01*
X53092072Y-1785655D01*
X53135217Y-1734947D01*
X53184128Y-1690282D01*
X53238125Y-1652127D01*
X53296524Y-1620952D01*
X53358645Y-1597224D01*
X53423805Y-1581411D01*
X53491322Y-1573982D01*
X53560516Y-1575404D01*
X53571057Y-1576412D01*
X53640082Y-1588176D01*
X53705536Y-1608278D01*
X53766890Y-1636233D01*
X53823611Y-1671553D01*
X53875167Y-1713753D01*
X53921026Y-1762347D01*
X53960657Y-1816847D01*
X53993526Y-1876768D01*
X54019104Y-1941623D01*
X54036856Y-2010927D01*
X54040167Y-2035340D01*
X54042197Y-2068272D01*
X54042575Y-2104579D01*
X54041343Y-2141199D01*
X54038542Y-2175072D01*
X54034216Y-2203138D01*
X54016884Y-2266796D01*
X53991246Y-2329557D01*
X53958798Y-2387126D01*
X53920208Y-2439229D01*
X53876141Y-2485591D01*
X53827263Y-2525938D01*
X53774240Y-2559996D01*
X53717738Y-2587491D01*
X53658424Y-2608148D01*
X53596964Y-2621693D01*
X53534023Y-2627851D01*
X53470268Y-2626349D01*
X53406365Y-2616911D01*
X53342979Y-2599265D01*
X53280779Y-2573135D01*
X53220428Y-2538246D01*
X53189199Y-2515503D01*
X53140857Y-2471684D01*
X53097553Y-2421366D01*
X53060296Y-2365940D01*
X53030095Y-2306798D01*
X53007960Y-2245330D01*
X52996572Y-2205482D01*
X52404183Y-2205482D01*
X52321900Y-2205488D01*
X52243086Y-2205511D01*
X52172667Y-2205559D01*
X52110137Y-2205637D01*
X52054990Y-2205753D01*
X52006721Y-2205912D01*
X51964823Y-2206123D01*
X51928792Y-2206391D01*
X51898121Y-2206722D01*
X51872305Y-2207125D01*
X51850838Y-2207605D01*
X51833214Y-2208168D01*
X51818928Y-2208823D01*
X51807473Y-2209574D01*
X51798345Y-2210429D01*
X51791038Y-2211395D01*
X51785046Y-2212478D01*
X51779862Y-2213685D01*
X51755050Y-2221344D01*
X51718862Y-2236405D01*
X51684663Y-2254796D01*
X51656144Y-2274695D01*
X51651726Y-2278758D01*
X51640603Y-2289746D01*
X51623865Y-2306707D01*
X51601975Y-2329158D01*
X51575397Y-2356616D01*
X51544594Y-2388599D01*
X51510030Y-2424625D01*
X51472169Y-2464211D01*
X51431473Y-2506874D01*
X51388408Y-2552133D01*
X51343435Y-2599504D01*
X51297019Y-2648505D01*
X51267805Y-2679356D01*
X51211918Y-2738226D01*
X51160323Y-2792368D01*
X51113251Y-2841545D01*
X51070935Y-2885517D01*
X51033606Y-2924046D01*
X51001495Y-2956894D01*
X50974834Y-2983823D01*
X50953855Y-3004592D01*
X50938789Y-3018965D01*
X50929868Y-3026702D01*
X50873204Y-3065654D01*
X50813785Y-3098337D01*
X50751618Y-3124084D01*
X50684312Y-3144038D01*
X50676758Y-3145626D01*
X50667214Y-3147028D01*
X50655062Y-3148231D01*
X50639550Y-3149260D01*
X50619927Y-3150137D01*
X50595440Y-3150884D01*
X50565337Y-3151526D01*
X50528867Y-3152083D01*
X50485276Y-3152581D01*
X50433814Y-3153040D01*
X50373727Y-3153485D01*
X50093614Y-3155414D01*
X50093614Y-3260598D01*
X50093614Y-3365781D01*
X49777169Y-3365781D01*
X49460724Y-3365781D01*
X49460724Y-3049336D01*
X49460724Y-2732890D01*
X49777169Y-2732890D01*
X50093614Y-2732890D01*
X50093614Y-2838372D01*
X50093614Y-2943854D01*
X50354000Y-2943854D01*
X50404248Y-2943830D01*
X50457921Y-2943704D01*
X50503718Y-2943417D01*
X50542464Y-2942913D01*
X50574984Y-2942134D01*
X50602105Y-2941022D01*
X50624651Y-2939520D01*
X50643449Y-2937571D01*
X50659323Y-2935118D01*
X50673099Y-2932103D01*
X50685603Y-2928468D01*
X50697660Y-2924157D01*
X50710096Y-2919111D01*
X50714855Y-2917102D01*
X50724901Y-2912738D01*
X50734364Y-2908261D01*
X50743683Y-2903251D01*
X50753297Y-2897292D01*
X50763646Y-2889963D01*
X50775169Y-2880848D01*
X50788305Y-2869527D01*
X50803494Y-2855581D01*
X50821175Y-2838593D01*
X50841787Y-2818144D01*
X50865771Y-2793816D01*
X50893564Y-2765190D01*
X50925607Y-2731847D01*
X50962340Y-2693370D01*
X51004200Y-2649339D01*
X51051628Y-2599337D01*
X51105063Y-2542945D01*
X51126733Y-2520063D01*
X51170399Y-2473904D01*
X51211982Y-2429879D01*
X51251045Y-2388455D01*
X51287151Y-2350097D01*
X51319861Y-2315273D01*
X51348739Y-2284449D01*
X51373347Y-2258091D01*
X51393248Y-2236666D01*
X51408005Y-2220640D01*
X51417180Y-2210481D01*
X51420336Y-2206654D01*
X51417954Y-2206433D01*
X51406854Y-2206132D01*
X51387046Y-2205838D01*
X51358920Y-2205553D01*
X51322866Y-2205279D01*
X51279274Y-2205015D01*
X51228533Y-2204765D01*
X51171033Y-2204528D01*
X51107163Y-2204305D01*
X51037313Y-2204098D01*
X50961873Y-2203909D01*
X50881232Y-2203737D01*
X50795781Y-2203585D01*
X50705907Y-2203453D01*
X50612002Y-2203343D01*
X50514455Y-2203255D01*
X50413655Y-2203190D01*
X50309993Y-2203151D01*
X50203857Y-2203138D01*
X48987374Y-2203138D01*
X48986129Y-2334446D01*
X48984884Y-2465755D01*
X48669765Y-2284063D01*
X48669637Y-2283990D01*
X48608433Y-2248648D01*
X48555008Y-2217678D01*
X48508975Y-2190846D01*
X48469946Y-2167918D01*
X48437535Y-2148660D01*
X48411353Y-2132838D01*
X48391015Y-2120219D01*
X48376133Y-2110568D01*
X48366320Y-2103652D01*
X48361188Y-2099236D01*
X48360351Y-2097086D01*
X48360596Y-2096888D01*
X48366753Y-2092958D01*
X48380105Y-2084930D01*
X48399886Y-2073243D01*
X48425331Y-2058337D01*
X48455675Y-2040654D01*
X48490152Y-2020632D01*
X48527998Y-1998713D01*
X48568447Y-1975335D01*
X48610733Y-1950940D01*
X48654092Y-1925967D01*
X48697758Y-1900857D01*
X48740966Y-1876049D01*
X48782951Y-1851984D01*
X48822946Y-1829102D01*
X48860188Y-1807843D01*
X48893911Y-1788647D01*
X48923349Y-1771954D01*
X48947738Y-1758205D01*
X48966311Y-1747839D01*
X48978304Y-1741297D01*
X48982952Y-1739018D01*
X48984032Y-1742685D01*
X48985094Y-1754781D01*
X48985978Y-1774354D01*
X48986650Y-1800404D01*
X48987078Y-1831933D01*
X48987228Y-1867940D01*
X48987228Y-1996862D01*
X50600501Y-1996862D01*
X50630201Y-1996862D01*
X50774639Y-1996860D01*
X50910048Y-1996852D01*
X51036715Y-1996839D01*
X51154929Y-1996818D01*
X51264979Y-1996787D01*
X51367153Y-1996746D01*
X51461741Y-1996694D01*
X51549031Y-1996627D01*
X51629311Y-1996546D01*
X51702871Y-1996449D01*
X51769999Y-1996334D01*
X51830983Y-1996200D01*
X51886113Y-1996045D01*
X51935678Y-1995868D01*
X51979965Y-1995668D01*
X52019264Y-1995443D01*
X52053863Y-1995192D01*
X52084051Y-1994913D01*
X52110116Y-1994605D01*
X52132349Y-1994266D01*
X52151036Y-1993895D01*
X52166467Y-1993490D01*
X52178931Y-1993051D01*
X52188716Y-1992575D01*
X52196111Y-1992062D01*
X52201404Y-1991509D01*
X52204885Y-1990916D01*
X52206842Y-1990280D01*
X52207564Y-1989601D01*
X52207339Y-1988877D01*
X52207046Y-1988518D01*
X52200298Y-1980859D01*
X52187788Y-1967196D01*
X52170071Y-1948110D01*
X52147701Y-1924185D01*
X52121233Y-1896003D01*
X52091222Y-1864148D01*
X52058221Y-1829202D01*
X52022785Y-1791749D01*
X51985468Y-1752370D01*
X51946826Y-1711649D01*
X51907412Y-1670169D01*
X51867781Y-1628512D01*
X51828488Y-1587262D01*
X51790087Y-1547001D01*
X51753132Y-1508312D01*
X51718178Y-1471777D01*
X51685780Y-1437981D01*
X51656491Y-1407505D01*
X51630867Y-1380933D01*
X51609461Y-1358847D01*
X51592829Y-1341830D01*
X51581525Y-1330466D01*
X51576103Y-1325336D01*
X51552981Y-1309491D01*
X51523165Y-1293048D01*
X51491053Y-1278457D01*
X51460189Y-1267488D01*
X51454032Y-1265854D01*
X51446464Y-1264345D01*
X51437139Y-1263059D01*
X51425295Y-1261973D01*
X51410171Y-1261063D01*
X51391003Y-1260303D01*
X51367031Y-1259669D01*
X51337492Y-1259139D01*
X51301624Y-1258686D01*
X51258666Y-1258286D01*
X51207856Y-1257917D01*
X51148432Y-1257552D01*
X50864803Y-1255912D01*
X50847082Y-1293595D01*
X50834243Y-1317426D01*
X50805589Y-1356637D01*
X50770331Y-1391816D01*
X50730100Y-1421648D01*
X50686525Y-1444813D01*
X50641236Y-1459995D01*
X50634531Y-1461362D01*
X50613518Y-1464247D01*
X50588855Y-1466263D01*
X50564579Y-1467040D01*
X50526350Y-1465169D01*
X50475450Y-1455631D01*
X50428571Y-1437779D01*
X50385076Y-1411352D01*
X50344330Y-1376085D01*
X50315355Y-1343658D01*
X50286777Y-1300987D01*
X50266833Y-1255593D01*
X50255144Y-1206570D01*
X50251332Y-1153009D01*
X50253710Y-1110230D01*
X50263722Y-1060334D01*
X50281910Y-1014258D01*
X50308654Y-971093D01*
X50344330Y-929932D01*
X50351226Y-923192D01*
X50393811Y-888949D01*
X50440787Y-862986D01*
X50492101Y-845331D01*
X50508405Y-842044D01*
X50541529Y-838633D01*
X50577444Y-838124D01*
X50612269Y-840506D01*
G37*
G36*
X8408806Y-840506D02*
G01*
X8438656Y-845768D01*
X8450814Y-849162D01*
X8499628Y-868515D01*
X8544508Y-895549D01*
X8584312Y-929331D01*
X8617898Y-968929D01*
X8644124Y-1013411D01*
X8661340Y-1049616D01*
X8945728Y-1049744D01*
X8981819Y-1049766D01*
X9039098Y-1049851D01*
X9088282Y-1050039D01*
X9130190Y-1050379D01*
X9165641Y-1050920D01*
X9195456Y-1051714D01*
X9220453Y-1052809D01*
X9241452Y-1054257D01*
X9259274Y-1056105D01*
X9274736Y-1058406D01*
X9288660Y-1061208D01*
X9301864Y-1064562D01*
X9315167Y-1068517D01*
X9329391Y-1073123D01*
X9331412Y-1073798D01*
X9376157Y-1091475D01*
X9423081Y-1114616D01*
X9469312Y-1141557D01*
X9511983Y-1170631D01*
X9548224Y-1200173D01*
X9552184Y-1204065D01*
X9562635Y-1214738D01*
X9578721Y-1231372D01*
X9599987Y-1253491D01*
X9625981Y-1280620D01*
X9656246Y-1312283D01*
X9690330Y-1348004D01*
X9727778Y-1387309D01*
X9768136Y-1429720D01*
X9810950Y-1474763D01*
X9855766Y-1521962D01*
X9902130Y-1570842D01*
X9942136Y-1612994D01*
X9995752Y-1669326D01*
X10045188Y-1721071D01*
X10090198Y-1767976D01*
X10130536Y-1809788D01*
X10165957Y-1846255D01*
X10196214Y-1877123D01*
X10221064Y-1902142D01*
X10240259Y-1921057D01*
X10253554Y-1933617D01*
X10260703Y-1939569D01*
X10276736Y-1949146D01*
X10308105Y-1965055D01*
X10340631Y-1978633D01*
X10370144Y-1988033D01*
X10370929Y-1988225D01*
X10380199Y-1989890D01*
X10393190Y-1991258D01*
X10410710Y-1992352D01*
X10433567Y-1993194D01*
X10462568Y-1993808D01*
X10498521Y-1994218D01*
X10542234Y-1994447D01*
X10594514Y-1994518D01*
X10793100Y-1994518D01*
X10804578Y-1954779D01*
X10822346Y-1903327D01*
X10851912Y-1841938D01*
X10888609Y-1785655D01*
X10931754Y-1734947D01*
X10980665Y-1690282D01*
X11034662Y-1652127D01*
X11093061Y-1620952D01*
X11155182Y-1597224D01*
X11220342Y-1581411D01*
X11287859Y-1573982D01*
X11357053Y-1575404D01*
X11367594Y-1576412D01*
X11436619Y-1588176D01*
X11502073Y-1608278D01*
X11563427Y-1636233D01*
X11620148Y-1671553D01*
X11671704Y-1713753D01*
X11717563Y-1762347D01*
X11757194Y-1816847D01*
X11790063Y-1876768D01*
X11815641Y-1941623D01*
X11833393Y-2010927D01*
X11836704Y-2035340D01*
X11838734Y-2068272D01*
X11839112Y-2104579D01*
X11837880Y-2141199D01*
X11835079Y-2175072D01*
X11830753Y-2203138D01*
X11813421Y-2266796D01*
X11787783Y-2329557D01*
X11755335Y-2387126D01*
X11716745Y-2439229D01*
X11672678Y-2485591D01*
X11623800Y-2525938D01*
X11570777Y-2559996D01*
X11514275Y-2587491D01*
X11454961Y-2608148D01*
X11393501Y-2621693D01*
X11330560Y-2627851D01*
X11266805Y-2626349D01*
X11202902Y-2616911D01*
X11139516Y-2599265D01*
X11077316Y-2573135D01*
X11016965Y-2538246D01*
X10985736Y-2515503D01*
X10937394Y-2471684D01*
X10894090Y-2421366D01*
X10856833Y-2365940D01*
X10826632Y-2306798D01*
X10804497Y-2245330D01*
X10793109Y-2205482D01*
X10200720Y-2205482D01*
X10118437Y-2205488D01*
X10039623Y-2205511D01*
X9969204Y-2205559D01*
X9906674Y-2205637D01*
X9851527Y-2205753D01*
X9803258Y-2205912D01*
X9761360Y-2206123D01*
X9725329Y-2206391D01*
X9694658Y-2206722D01*
X9668842Y-2207125D01*
X9647375Y-2207605D01*
X9629751Y-2208168D01*
X9615465Y-2208823D01*
X9604010Y-2209574D01*
X9594882Y-2210429D01*
X9587575Y-2211395D01*
X9581583Y-2212478D01*
X9576399Y-2213685D01*
X9551587Y-2221344D01*
X9515399Y-2236405D01*
X9481200Y-2254796D01*
X9452681Y-2274695D01*
X9448263Y-2278758D01*
X9437140Y-2289746D01*
X9420402Y-2306707D01*
X9398512Y-2329158D01*
X9371934Y-2356616D01*
X9341131Y-2388599D01*
X9306567Y-2424625D01*
X9268706Y-2464211D01*
X9228010Y-2506874D01*
X9184945Y-2552133D01*
X9139972Y-2599504D01*
X9093556Y-2648505D01*
X9064342Y-2679356D01*
X9008455Y-2738226D01*
X8956860Y-2792368D01*
X8909788Y-2841545D01*
X8867472Y-2885517D01*
X8830143Y-2924046D01*
X8798032Y-2956894D01*
X8771371Y-2983823D01*
X8750392Y-3004592D01*
X8735326Y-3018965D01*
X8726405Y-3026702D01*
X8669741Y-3065654D01*
X8610322Y-3098337D01*
X8548155Y-3124084D01*
X8480849Y-3144038D01*
X8473295Y-3145626D01*
X8463751Y-3147028D01*
X8451599Y-3148231D01*
X8436087Y-3149260D01*
X8416464Y-3150137D01*
X8391977Y-3150884D01*
X8361874Y-3151526D01*
X8325404Y-3152083D01*
X8281813Y-3152581D01*
X8230351Y-3153040D01*
X8170264Y-3153485D01*
X7890151Y-3155414D01*
X7890151Y-3260598D01*
X7890151Y-3365781D01*
X7573706Y-3365781D01*
X7257261Y-3365781D01*
X7257261Y-3049336D01*
X7257261Y-2732890D01*
X7573706Y-2732890D01*
X7890151Y-2732890D01*
X7890151Y-2838372D01*
X7890151Y-2943854D01*
X8150537Y-2943854D01*
X8200785Y-2943830D01*
X8254458Y-2943704D01*
X8300255Y-2943417D01*
X8339001Y-2942913D01*
X8371521Y-2942134D01*
X8398642Y-2941022D01*
X8421188Y-2939520D01*
X8439986Y-2937571D01*
X8455860Y-2935118D01*
X8469636Y-2932103D01*
X8482140Y-2928468D01*
X8494197Y-2924157D01*
X8506633Y-2919111D01*
X8511392Y-2917102D01*
X8521438Y-2912738D01*
X8530901Y-2908261D01*
X8540220Y-2903251D01*
X8549834Y-2897292D01*
X8560183Y-2889963D01*
X8571706Y-2880848D01*
X8584842Y-2869527D01*
X8600031Y-2855581D01*
X8617712Y-2838593D01*
X8638324Y-2818144D01*
X8662308Y-2793816D01*
X8690101Y-2765190D01*
X8722144Y-2731847D01*
X8758877Y-2693370D01*
X8800737Y-2649339D01*
X8848165Y-2599337D01*
X8901600Y-2542945D01*
X8923270Y-2520063D01*
X8966936Y-2473904D01*
X9008519Y-2429879D01*
X9047582Y-2388455D01*
X9083688Y-2350097D01*
X9116398Y-2315273D01*
X9145276Y-2284449D01*
X9169884Y-2258091D01*
X9189785Y-2236666D01*
X9204542Y-2220640D01*
X9213717Y-2210481D01*
X9216873Y-2206654D01*
X9214491Y-2206433D01*
X9203391Y-2206132D01*
X9183583Y-2205838D01*
X9155457Y-2205553D01*
X9119403Y-2205279D01*
X9075811Y-2205015D01*
X9025070Y-2204765D01*
X8967570Y-2204528D01*
X8903700Y-2204305D01*
X8833850Y-2204098D01*
X8758410Y-2203909D01*
X8677769Y-2203737D01*
X8592318Y-2203585D01*
X8502444Y-2203453D01*
X8408539Y-2203343D01*
X8310992Y-2203255D01*
X8210192Y-2203190D01*
X8106530Y-2203151D01*
X8000394Y-2203138D01*
X6783911Y-2203138D01*
X6782666Y-2334446D01*
X6781421Y-2465755D01*
X6466302Y-2284063D01*
X6466174Y-2283990D01*
X6404970Y-2248648D01*
X6351545Y-2217678D01*
X6305512Y-2190846D01*
X6266483Y-2167918D01*
X6234072Y-2148660D01*
X6207890Y-2132838D01*
X6187552Y-2120219D01*
X6172670Y-2110568D01*
X6162857Y-2103652D01*
X6157725Y-2099236D01*
X6156888Y-2097086D01*
X6157133Y-2096888D01*
X6163290Y-2092958D01*
X6176642Y-2084930D01*
X6196423Y-2073243D01*
X6221868Y-2058337D01*
X6252212Y-2040654D01*
X6286689Y-2020632D01*
X6324535Y-1998713D01*
X6364984Y-1975335D01*
X6407270Y-1950940D01*
X6450629Y-1925967D01*
X6494295Y-1900857D01*
X6537503Y-1876049D01*
X6579488Y-1851984D01*
X6619483Y-1829102D01*
X6656725Y-1807843D01*
X6690448Y-1788647D01*
X6719886Y-1771954D01*
X6744275Y-1758205D01*
X6762848Y-1747839D01*
X6774841Y-1741297D01*
X6779489Y-1739018D01*
X6780569Y-1742685D01*
X6781631Y-1754781D01*
X6782515Y-1774354D01*
X6783187Y-1800404D01*
X6783615Y-1831933D01*
X6783765Y-1867940D01*
X6783765Y-1996862D01*
X8397038Y-1996862D01*
X8426738Y-1996862D01*
X8571176Y-1996860D01*
X8706585Y-1996852D01*
X8833252Y-1996839D01*
X8951466Y-1996818D01*
X9061516Y-1996787D01*
X9163690Y-1996746D01*
X9258278Y-1996694D01*
X9345568Y-1996627D01*
X9425848Y-1996546D01*
X9499408Y-1996449D01*
X9566536Y-1996334D01*
X9627520Y-1996200D01*
X9682650Y-1996045D01*
X9732215Y-1995868D01*
X9776502Y-1995668D01*
X9815801Y-1995443D01*
X9850400Y-1995192D01*
X9880588Y-1994913D01*
X9906653Y-1994605D01*
X9928886Y-1994266D01*
X9947573Y-1993895D01*
X9963004Y-1993490D01*
X9975468Y-1993051D01*
X9985253Y-1992575D01*
X9992648Y-1992062D01*
X9997941Y-1991509D01*
X10001422Y-1990916D01*
X10003379Y-1990280D01*
X10004101Y-1989601D01*
X10003876Y-1988877D01*
X10003583Y-1988518D01*
X9996835Y-1980859D01*
X9984325Y-1967196D01*
X9966608Y-1948110D01*
X9944238Y-1924185D01*
X9917770Y-1896003D01*
X9887759Y-1864148D01*
X9854758Y-1829202D01*
X9819322Y-1791749D01*
X9782005Y-1752370D01*
X9743363Y-1711649D01*
X9703949Y-1670169D01*
X9664318Y-1628512D01*
X9625025Y-1587262D01*
X9586624Y-1547001D01*
X9549669Y-1508312D01*
X9514715Y-1471777D01*
X9482317Y-1437981D01*
X9453028Y-1407505D01*
X9427404Y-1380933D01*
X9405998Y-1358847D01*
X9389366Y-1341830D01*
X9378062Y-1330466D01*
X9372640Y-1325336D01*
X9349518Y-1309491D01*
X9319702Y-1293048D01*
X9287590Y-1278457D01*
X9256726Y-1267488D01*
X9250569Y-1265854D01*
X9243001Y-1264345D01*
X9233676Y-1263059D01*
X9221832Y-1261973D01*
X9206708Y-1261063D01*
X9187540Y-1260303D01*
X9163568Y-1259669D01*
X9134029Y-1259139D01*
X9098161Y-1258686D01*
X9055203Y-1258286D01*
X9004393Y-1257917D01*
X8944969Y-1257552D01*
X8661340Y-1255912D01*
X8643619Y-1293595D01*
X8630780Y-1317426D01*
X8602126Y-1356637D01*
X8566868Y-1391816D01*
X8526637Y-1421648D01*
X8483062Y-1444813D01*
X8437773Y-1459995D01*
X8431068Y-1461362D01*
X8410055Y-1464247D01*
X8385392Y-1466263D01*
X8361116Y-1467040D01*
X8322887Y-1465169D01*
X8271987Y-1455631D01*
X8225108Y-1437779D01*
X8181613Y-1411352D01*
X8140867Y-1376085D01*
X8111892Y-1343658D01*
X8083314Y-1300987D01*
X8063370Y-1255593D01*
X8051681Y-1206570D01*
X8047869Y-1153009D01*
X8050247Y-1110230D01*
X8060259Y-1060334D01*
X8078447Y-1014258D01*
X8105191Y-971093D01*
X8140867Y-929932D01*
X8147763Y-923192D01*
X8190348Y-888949D01*
X8237324Y-862986D01*
X8288638Y-845331D01*
X8304942Y-842044D01*
X8338066Y-838633D01*
X8373981Y-838124D01*
X8408806Y-840506D01*
G37*
G36*
X90812269Y-840506D02*
G01*
X90842119Y-845768D01*
X90854277Y-849162D01*
X90903091Y-868515D01*
X90947971Y-895549D01*
X90987775Y-929331D01*
X91021361Y-968929D01*
X91047587Y-1013411D01*
X91064803Y-1049616D01*
X91349191Y-1049744D01*
X91385282Y-1049766D01*
X91442561Y-1049851D01*
X91491745Y-1050039D01*
X91533653Y-1050379D01*
X91569104Y-1050920D01*
X91598919Y-1051714D01*
X91623916Y-1052809D01*
X91644915Y-1054257D01*
X91662737Y-1056105D01*
X91678199Y-1058406D01*
X91692123Y-1061208D01*
X91705327Y-1064562D01*
X91718630Y-1068517D01*
X91732854Y-1073123D01*
X91734875Y-1073798D01*
X91779620Y-1091475D01*
X91826544Y-1114616D01*
X91872775Y-1141557D01*
X91915446Y-1170631D01*
X91951687Y-1200173D01*
X91955647Y-1204065D01*
X91966098Y-1214738D01*
X91982184Y-1231372D01*
X92003450Y-1253491D01*
X92029444Y-1280620D01*
X92059709Y-1312283D01*
X92093793Y-1348004D01*
X92131241Y-1387309D01*
X92171599Y-1429720D01*
X92214413Y-1474763D01*
X92259229Y-1521962D01*
X92305593Y-1570842D01*
X92345599Y-1612994D01*
X92399215Y-1669326D01*
X92448651Y-1721071D01*
X92493661Y-1767976D01*
X92533999Y-1809788D01*
X92569420Y-1846255D01*
X92599677Y-1877123D01*
X92624527Y-1902142D01*
X92643722Y-1921057D01*
X92657017Y-1933617D01*
X92664166Y-1939569D01*
X92680199Y-1949146D01*
X92711568Y-1965055D01*
X92744094Y-1978633D01*
X92773607Y-1988033D01*
X92774392Y-1988225D01*
X92783662Y-1989890D01*
X92796653Y-1991258D01*
X92814173Y-1992352D01*
X92837030Y-1993194D01*
X92866031Y-1993808D01*
X92901984Y-1994218D01*
X92945697Y-1994447D01*
X92997977Y-1994518D01*
X93196563Y-1994518D01*
X93208041Y-1954779D01*
X93225809Y-1903327D01*
X93255375Y-1841938D01*
X93292072Y-1785655D01*
X93335217Y-1734947D01*
X93384128Y-1690282D01*
X93438125Y-1652127D01*
X93496524Y-1620952D01*
X93558645Y-1597224D01*
X93623805Y-1581411D01*
X93691322Y-1573982D01*
X93760516Y-1575404D01*
X93771057Y-1576412D01*
X93840082Y-1588176D01*
X93905536Y-1608278D01*
X93966890Y-1636233D01*
X94023611Y-1671553D01*
X94075167Y-1713753D01*
X94121026Y-1762347D01*
X94160657Y-1816847D01*
X94193526Y-1876768D01*
X94219104Y-1941623D01*
X94236856Y-2010927D01*
X94240167Y-2035340D01*
X94242197Y-2068272D01*
X94242575Y-2104579D01*
X94241343Y-2141199D01*
X94238542Y-2175072D01*
X94234216Y-2203138D01*
X94216884Y-2266796D01*
X94191246Y-2329557D01*
X94158798Y-2387126D01*
X94120208Y-2439229D01*
X94076141Y-2485591D01*
X94027263Y-2525938D01*
X93974240Y-2559996D01*
X93917738Y-2587491D01*
X93858424Y-2608148D01*
X93796964Y-2621693D01*
X93734023Y-2627851D01*
X93670268Y-2626349D01*
X93606365Y-2616911D01*
X93542979Y-2599265D01*
X93480779Y-2573135D01*
X93420428Y-2538246D01*
X93389199Y-2515503D01*
X93340857Y-2471684D01*
X93297553Y-2421366D01*
X93260296Y-2365940D01*
X93230095Y-2306798D01*
X93207960Y-2245330D01*
X93196572Y-2205482D01*
X92604183Y-2205482D01*
X92521900Y-2205488D01*
X92443086Y-2205511D01*
X92372667Y-2205559D01*
X92310137Y-2205637D01*
X92254990Y-2205753D01*
X92206721Y-2205912D01*
X92164823Y-2206123D01*
X92128792Y-2206391D01*
X92098121Y-2206722D01*
X92072305Y-2207125D01*
X92050838Y-2207605D01*
X92033214Y-2208168D01*
X92018928Y-2208823D01*
X92007473Y-2209574D01*
X91998345Y-2210429D01*
X91991038Y-2211395D01*
X91985046Y-2212478D01*
X91979862Y-2213685D01*
X91955050Y-2221344D01*
X91918862Y-2236405D01*
X91884663Y-2254796D01*
X91856144Y-2274695D01*
X91851726Y-2278758D01*
X91840603Y-2289746D01*
X91823865Y-2306707D01*
X91801975Y-2329158D01*
X91775397Y-2356616D01*
X91744594Y-2388599D01*
X91710030Y-2424625D01*
X91672169Y-2464211D01*
X91631473Y-2506874D01*
X91588408Y-2552133D01*
X91543435Y-2599504D01*
X91497019Y-2648505D01*
X91467805Y-2679356D01*
X91411918Y-2738226D01*
X91360323Y-2792368D01*
X91313251Y-2841545D01*
X91270935Y-2885517D01*
X91233606Y-2924046D01*
X91201495Y-2956894D01*
X91174834Y-2983823D01*
X91153855Y-3004592D01*
X91138789Y-3018965D01*
X91129868Y-3026702D01*
X91073204Y-3065654D01*
X91013785Y-3098337D01*
X90951618Y-3124084D01*
X90884312Y-3144038D01*
X90876758Y-3145626D01*
X90867214Y-3147028D01*
X90855062Y-3148231D01*
X90839550Y-3149260D01*
X90819927Y-3150137D01*
X90795440Y-3150884D01*
X90765337Y-3151526D01*
X90728867Y-3152083D01*
X90685276Y-3152581D01*
X90633814Y-3153040D01*
X90573727Y-3153485D01*
X90293614Y-3155414D01*
X90293614Y-3260598D01*
X90293614Y-3365781D01*
X89977169Y-3365781D01*
X89660724Y-3365781D01*
X89660724Y-3049336D01*
X89660724Y-2732890D01*
X89977169Y-2732890D01*
X90293614Y-2732890D01*
X90293614Y-2838372D01*
X90293614Y-2943854D01*
X90554000Y-2943854D01*
X90604248Y-2943830D01*
X90657921Y-2943704D01*
X90703718Y-2943417D01*
X90742464Y-2942913D01*
X90774984Y-2942134D01*
X90802105Y-2941022D01*
X90824651Y-2939520D01*
X90843449Y-2937571D01*
X90859323Y-2935118D01*
X90873099Y-2932103D01*
X90885603Y-2928468D01*
X90897660Y-2924157D01*
X90910096Y-2919111D01*
X90914855Y-2917102D01*
X90924901Y-2912738D01*
X90934364Y-2908261D01*
X90943683Y-2903251D01*
X90953297Y-2897292D01*
X90963646Y-2889963D01*
X90975169Y-2880848D01*
X90988305Y-2869527D01*
X91003494Y-2855581D01*
X91021175Y-2838593D01*
X91041787Y-2818144D01*
X91065771Y-2793816D01*
X91093564Y-2765190D01*
X91125607Y-2731847D01*
X91162340Y-2693370D01*
X91204200Y-2649339D01*
X91251628Y-2599337D01*
X91305063Y-2542945D01*
X91326733Y-2520063D01*
X91370399Y-2473904D01*
X91411982Y-2429879D01*
X91451045Y-2388455D01*
X91487151Y-2350097D01*
X91519861Y-2315273D01*
X91548739Y-2284449D01*
X91573347Y-2258091D01*
X91593248Y-2236666D01*
X91608005Y-2220640D01*
X91617180Y-2210481D01*
X91620336Y-2206654D01*
X91617954Y-2206433D01*
X91606854Y-2206132D01*
X91587046Y-2205838D01*
X91558920Y-2205553D01*
X91522866Y-2205279D01*
X91479274Y-2205015D01*
X91428533Y-2204765D01*
X91371033Y-2204528D01*
X91307163Y-2204305D01*
X91237313Y-2204098D01*
X91161873Y-2203909D01*
X91081232Y-2203737D01*
X90995781Y-2203585D01*
X90905907Y-2203453D01*
X90812002Y-2203343D01*
X90714455Y-2203255D01*
X90613655Y-2203190D01*
X90509993Y-2203151D01*
X90403857Y-2203138D01*
X89187374Y-2203138D01*
X89186129Y-2334446D01*
X89184884Y-2465755D01*
X88869765Y-2284063D01*
X88869637Y-2283990D01*
X88808433Y-2248648D01*
X88755008Y-2217678D01*
X88708975Y-2190846D01*
X88669946Y-2167918D01*
X88637535Y-2148660D01*
X88611353Y-2132838D01*
X88591015Y-2120219D01*
X88576133Y-2110568D01*
X88566320Y-2103652D01*
X88561188Y-2099236D01*
X88560351Y-2097086D01*
X88560596Y-2096888D01*
X88566753Y-2092958D01*
X88580105Y-2084930D01*
X88599886Y-2073243D01*
X88625331Y-2058337D01*
X88655675Y-2040654D01*
X88690152Y-2020632D01*
X88727998Y-1998713D01*
X88768447Y-1975335D01*
X88810733Y-1950940D01*
X88854092Y-1925967D01*
X88897758Y-1900857D01*
X88940966Y-1876049D01*
X88982951Y-1851984D01*
X89022946Y-1829102D01*
X89060188Y-1807843D01*
X89093911Y-1788647D01*
X89123349Y-1771954D01*
X89147738Y-1758205D01*
X89166311Y-1747839D01*
X89178304Y-1741297D01*
X89182952Y-1739018D01*
X89184032Y-1742685D01*
X89185094Y-1754781D01*
X89185978Y-1774354D01*
X89186650Y-1800404D01*
X89187078Y-1831933D01*
X89187228Y-1867940D01*
X89187228Y-1996862D01*
X90800501Y-1996862D01*
X90830201Y-1996862D01*
X90974639Y-1996860D01*
X91110048Y-1996852D01*
X91236715Y-1996839D01*
X91354929Y-1996818D01*
X91464979Y-1996787D01*
X91567153Y-1996746D01*
X91661741Y-1996694D01*
X91749031Y-1996627D01*
X91829311Y-1996546D01*
X91902871Y-1996449D01*
X91969999Y-1996334D01*
X92030983Y-1996200D01*
X92086113Y-1996045D01*
X92135678Y-1995868D01*
X92179965Y-1995668D01*
X92219264Y-1995443D01*
X92253863Y-1995192D01*
X92284051Y-1994913D01*
X92310116Y-1994605D01*
X92332349Y-1994266D01*
X92351036Y-1993895D01*
X92366467Y-1993490D01*
X92378931Y-1993051D01*
X92388716Y-1992575D01*
X92396111Y-1992062D01*
X92401404Y-1991509D01*
X92404885Y-1990916D01*
X92406842Y-1990280D01*
X92407564Y-1989601D01*
X92407339Y-1988877D01*
X92407046Y-1988518D01*
X92400298Y-1980859D01*
X92387788Y-1967196D01*
X92370071Y-1948110D01*
X92347701Y-1924185D01*
X92321233Y-1896003D01*
X92291222Y-1864148D01*
X92258221Y-1829202D01*
X92222785Y-1791749D01*
X92185468Y-1752370D01*
X92146826Y-1711649D01*
X92107412Y-1670169D01*
X92067781Y-1628512D01*
X92028488Y-1587262D01*
X91990087Y-1547001D01*
X91953132Y-1508312D01*
X91918178Y-1471777D01*
X91885780Y-1437981D01*
X91856491Y-1407505D01*
X91830867Y-1380933D01*
X91809461Y-1358847D01*
X91792829Y-1341830D01*
X91781525Y-1330466D01*
X91776103Y-1325336D01*
X91752981Y-1309491D01*
X91723165Y-1293048D01*
X91691053Y-1278457D01*
X91660189Y-1267488D01*
X91654032Y-1265854D01*
X91646464Y-1264345D01*
X91637139Y-1263059D01*
X91625295Y-1261973D01*
X91610171Y-1261063D01*
X91591003Y-1260303D01*
X91567031Y-1259669D01*
X91537492Y-1259139D01*
X91501624Y-1258686D01*
X91458666Y-1258286D01*
X91407856Y-1257917D01*
X91348432Y-1257552D01*
X91064803Y-1255912D01*
X91047082Y-1293595D01*
X91034243Y-1317426D01*
X91005589Y-1356637D01*
X90970331Y-1391816D01*
X90930100Y-1421648D01*
X90886525Y-1444813D01*
X90841236Y-1459995D01*
X90834531Y-1461362D01*
X90813518Y-1464247D01*
X90788855Y-1466263D01*
X90764579Y-1467040D01*
X90726350Y-1465169D01*
X90675450Y-1455631D01*
X90628571Y-1437779D01*
X90585076Y-1411352D01*
X90544330Y-1376085D01*
X90515355Y-1343658D01*
X90486777Y-1300987D01*
X90466833Y-1255593D01*
X90455144Y-1206570D01*
X90451332Y-1153009D01*
X90453710Y-1110230D01*
X90463722Y-1060334D01*
X90481910Y-1014258D01*
X90508654Y-971093D01*
X90544330Y-929932D01*
X90551226Y-923192D01*
X90593811Y-888949D01*
X90640787Y-862986D01*
X90692101Y-845331D01*
X90708405Y-842044D01*
X90741529Y-838633D01*
X90777444Y-838124D01*
X90812269Y-840506D01*
G37*
%TD*%
%LPC*%
D12*
%TO.C,USB3*%
X53432000Y-6250000D03*
X47652000Y-6250000D03*
D13*
X54862000Y-6780000D03*
D14*
X54862000Y-2600000D03*
D13*
X46222000Y-6780000D03*
D14*
X46222000Y-2600000D03*
%TD*%
D15*
%TO.C,H7*%
X96900000Y-15400000D03*
%TD*%
%TO.C,H6*%
X4700000Y-15600000D03*
%TD*%
D16*
%TO.C,H3*%
X2000000Y-14500000D03*
%TD*%
%TO.C,H4*%
X100000000Y-14500000D03*
%TD*%
D12*
%TO.C,USB2*%
X11888000Y-6250000D03*
X6108000Y-6250000D03*
D13*
X13318000Y-6780000D03*
D14*
X13318000Y-2600000D03*
D13*
X4678000Y-6780000D03*
D14*
X4678000Y-2600000D03*
%TD*%
D17*
%TO.C,USB4*%
X75963000Y-8675500D03*
X75963000Y-2673500D03*
X63161000Y-8675500D03*
X63161000Y-2724500D03*
%TD*%
D16*
%TO.C,H1*%
X100000000Y-2000000D03*
%TD*%
%TO.C,H2*%
X2000000Y-2000000D03*
%TD*%
D15*
%TO.C,H5*%
X1100000Y-4800000D03*
%TD*%
D17*
%TO.C,USB1*%
X97193000Y-8675500D03*
X97193000Y-2673500D03*
X84391000Y-8675500D03*
X84391000Y-2724500D03*
%TD*%
%LPD*%
M02*
