M48
; DRILL file {KiCad 7.0.6} date Wed Sep  6 00:42:42 2023
; FORMAT={-:-/ absolute / inch / decimal}
; #@! TF.CreationDate,2023-09-06T00:42:42+01:00
; #@! TF.GenerationSoftware,Kicad,Pcbnew,7.0.6
; #@! TF.FileFunction,Plated,1,4,PTH
FMAT,2
INCH
; #@! TA.AperFunction,Plated,PTH,ViaDrill
T1C0.0118
; #@! TA.AperFunction,Plated,PTH,ComponentDrill
T2C0.0157
; #@! TA.AperFunction,Plated,PTH,ComponentDrill
T3C0.0236
; #@! TA.AperFunction,Plated,PTH,ComponentDrill
T4C0.0276
; #@! TA.AperFunction,Plated,PTH,ComponentDrill
T5C0.0866
%
G90
G05
T1
X0.2992Y-0.3228
X0.2992Y-0.4764
X0.5252Y-0.5591
X0.7248Y-0.4248
X1.3307Y-0.5551
X1.5094Y-0.5551
X1.5591Y-0.185
X1.5591Y-0.3228
X1.7988Y-0.4248
X2.2785Y-0.3456
X2.5157Y-0.4173
X2.5325Y-0.3456
X2.6967Y-0.3506
X4.9803Y-0.2598
X5.0354Y-0.2992
X5.1496Y-0.2771
X5.2972Y-0.2913
X5.4016Y-0.5197
X5.4134Y-0.1811
X5.5022Y-0.0884
X5.5343Y-0.2413
X5.5354Y-0.1575
X5.6547Y-0.2413
X5.7559Y-0.3425
X5.7866Y-0.4496
X5.7866Y-0.4874
X5.9016Y-0.2913
X5.9016Y-0.378
X5.9409Y-0.2913
X5.9409Y-0.378
X5.9685Y-0.1811
X5.9685Y-0.2205
X5.9843Y-0.3504
X6.0482Y-0.3543
X6.0787Y-0.4173
X6.1248Y-0.2402
X6.2483Y-0.2402
X6.3135Y-0.3543
X6.4803Y-0.3504
T2
X4.8622Y-0.1024
X4.8622Y-0.2756
X4.8898Y-0.1024
X4.8898Y-0.2756
X4.9173Y-0.0709
X4.9173Y-0.1024
X4.9173Y-0.2756
X4.9173Y-0.3051
T5
X6.4622Y-0.0787
T3
G00X2.2354Y-0.1141
M15
G01X2.2354Y-0.0905
M16
G05
G00X2.2354Y-0.2885
M15
G01X2.2354Y-0.2452
M16
G05
G00X2.5756Y-0.1141
M15
G01X2.5756Y-0.0905
M16
G05
G00X2.5756Y-0.2885
M15
G01X2.5756Y-0.2452
M16
G05
G00X6.0164Y-0.1141
M15
G01X6.0164Y-0.0905
M16
G05
G00X6.0164Y-0.2885
M15
G01X6.0164Y-0.2452
M16
G05
G00X6.3566Y-0.1141
M15
G01X6.3566Y-0.0905
M16
G05
G00X6.3566Y-0.2885
M15
G01X6.3566Y-0.2452
M16
G05
T4
G00X0.185Y-0.1285
M15
G01X0.185Y-0.0852
M16
G05
G00X0.185Y-0.3628
M15
G01X0.185Y-0.3195
M16
G05
G00X0.689Y-0.0832
M15
G01X0.689Y-0.1265
M16
G05
G00X0.689Y-0.3195
M15
G01X0.689Y-0.3628
M16
G05
G00X1.1693Y-0.1285
M15
G01X1.1693Y-0.0852
M16
G05
G00X1.1693Y-0.3628
M15
G01X1.1693Y-0.3195
M16
G05
G00X1.6733Y-0.0832
M15
G01X1.6733Y-0.1265
M16
G05
G00X1.6733Y-0.3195
M15
G01X1.6733Y-0.3628
M16
G05
T0
M30
