%TF.GenerationSoftware,KiCad,Pcbnew,7.0.6*%
%TF.CreationDate,2024-02-18T18:08:35+00:00*%
%TF.ProjectId,MoonHub,4d6f6f6e-4875-4622-9e6b-696361645f70,rev?*%
%TF.SameCoordinates,Original*%
%TF.FileFunction,Legend,Top*%
%TF.FilePolarity,Positive*%
%FSLAX46Y46*%
G04 Gerber Fmt 4.6, Leading zero omitted, Abs format (unit mm)*
G04 Created by KiCad (PCBNEW 7.0.6) date 2024-02-18 18:08:35*
%MOMM*%
%LPD*%
G01*
G04 APERTURE LIST*
G04 Aperture macros list*
%AMRoundRect*
0 Rectangle with rounded corners*
0 $1 Rounding radius*
0 $2 $3 $4 $5 $6 $7 $8 $9 X,Y pos of 4 corners*
0 Add a 4 corners polygon primitive as box body*
4,1,4,$2,$3,$4,$5,$6,$7,$8,$9,$2,$3,0*
0 Add four circle primitives for the rounded corners*
1,1,$1+$1,$2,$3*
1,1,$1+$1,$4,$5*
1,1,$1+$1,$6,$7*
1,1,$1+$1,$8,$9*
0 Add four rect primitives between the rounded corners*
20,1,$1+$1,$2,$3,$4,$5,0*
20,1,$1+$1,$4,$5,$6,$7,0*
20,1,$1+$1,$6,$7,$8,$9,0*
20,1,$1+$1,$8,$9,$2,$3,0*%
G04 Aperture macros list end*
%ADD10C,0.203200*%
%ADD11C,0.153000*%
%ADD12C,0.150000*%
%ADD13C,0.100000*%
%ADD14C,0.120000*%
%ADD15C,0.200000*%
%ADD16C,0.650000*%
%ADD17RoundRect,0.038000X-0.337500X0.100000X-0.337500X-0.100000X0.337500X-0.100000X0.337500X0.100000X0*%
%ADD18RoundRect,0.038000X-0.387500X0.200000X-0.387500X-0.200000X0.387500X-0.200000X0.387500X0.200000X0*%
%ADD19RoundRect,0.178000X-0.170000X0.140000X-0.170000X-0.140000X0.170000X-0.140000X0.170000X0.140000X0*%
%ADD20RoundRect,0.288000X-0.650000X0.325000X-0.650000X-0.325000X0.650000X-0.325000X0.650000X0.325000X0*%
%ADD21C,0.726000*%
%ADD22RoundRect,0.098000X0.240000X0.665000X-0.240000X0.665000X-0.240000X-0.665000X0.240000X-0.665000X0*%
%ADD23RoundRect,0.098000X0.090000X0.665000X-0.090000X0.665000X-0.090000X-0.665000X0.090000X-0.665000X0*%
%ADD24O,1.176000X2.276000*%
%ADD25O,1.376000X1.976000*%
%ADD26RoundRect,0.178000X0.140000X0.170000X-0.140000X0.170000X-0.140000X-0.170000X0.140000X-0.170000X0*%
%ADD27RoundRect,0.288000X-0.247487X-1.166726X1.166726X0.247487X0.247487X1.166726X-1.166726X-0.247487X0*%
%ADD28RoundRect,0.178000X0.170000X-0.140000X0.170000X0.140000X-0.170000X0.140000X-0.170000X-0.140000X0*%
%ADD29RoundRect,0.173000X0.135000X0.185000X-0.135000X0.185000X-0.135000X-0.185000X0.135000X-0.185000X0*%
%ADD30RoundRect,0.173000X-0.135000X-0.185000X0.135000X-0.185000X0.135000X0.185000X-0.135000X0.185000X0*%
%ADD31RoundRect,0.038000X0.600000X0.200000X-0.600000X0.200000X-0.600000X-0.200000X0.600000X-0.200000X0*%
%ADD32RoundRect,0.100000X-0.250000X-0.400000X0.250000X-0.400000X0.250000X0.400000X-0.250000X0.400000X0*%
%ADD33RoundRect,0.125000X-0.250000X-0.475000X0.250000X-0.475000X0.250000X0.475000X-0.250000X0.475000X0*%
%ADD34RoundRect,0.038000X0.700000X0.600000X-0.700000X0.600000X-0.700000X-0.600000X0.700000X-0.600000X0*%
%ADD35C,2.276000*%
%ADD36RoundRect,0.288000X0.475000X-0.250000X0.475000X0.250000X-0.475000X0.250000X-0.475000X-0.250000X0*%
%ADD37RoundRect,0.038000X-0.700000X-1.400000X0.700000X-1.400000X0.700000X1.400000X-0.700000X1.400000X0*%
%ADD38O,1.476000X2.576000*%
%ADD39C,3.576001*%
%ADD40RoundRect,0.188000X-0.512500X-0.150000X0.512500X-0.150000X0.512500X0.150000X-0.512500X0.150000X0*%
G04 APERTURE END LIST*
D10*
X13511017Y-13652000D02*
X13511017Y-14329333D01*
X13075588Y-13652000D02*
X13075588Y-14184191D01*
X13075588Y-14184191D02*
X13123969Y-14280953D01*
X13123969Y-14280953D02*
X13220731Y-14329333D01*
X13220731Y-14329333D02*
X13365874Y-14329333D01*
X13365874Y-14329333D02*
X13462636Y-14280953D01*
X13462636Y-14280953D02*
X13511017Y-14232572D01*
X13994826Y-14329333D02*
X13994826Y-13313333D01*
X13994826Y-13313333D02*
X14236731Y-13313333D01*
X14236731Y-13313333D02*
X14381874Y-13361714D01*
X14381874Y-13361714D02*
X14478636Y-13458476D01*
X14478636Y-13458476D02*
X14527017Y-13555238D01*
X14527017Y-13555238D02*
X14575398Y-13748762D01*
X14575398Y-13748762D02*
X14575398Y-13893905D01*
X14575398Y-13893905D02*
X14527017Y-14087429D01*
X14527017Y-14087429D02*
X14478636Y-14184191D01*
X14478636Y-14184191D02*
X14381874Y-14280953D01*
X14381874Y-14280953D02*
X14236731Y-14329333D01*
X14236731Y-14329333D02*
X13994826Y-14329333D01*
X15349493Y-13797143D02*
X15494636Y-13845524D01*
X15494636Y-13845524D02*
X15543017Y-13893905D01*
X15543017Y-13893905D02*
X15591398Y-13990667D01*
X15591398Y-13990667D02*
X15591398Y-14135810D01*
X15591398Y-14135810D02*
X15543017Y-14232572D01*
X15543017Y-14232572D02*
X15494636Y-14280953D01*
X15494636Y-14280953D02*
X15397874Y-14329333D01*
X15397874Y-14329333D02*
X15010826Y-14329333D01*
X15010826Y-14329333D02*
X15010826Y-13313333D01*
X15010826Y-13313333D02*
X15349493Y-13313333D01*
X15349493Y-13313333D02*
X15446255Y-13361714D01*
X15446255Y-13361714D02*
X15494636Y-13410095D01*
X15494636Y-13410095D02*
X15543017Y-13506857D01*
X15543017Y-13506857D02*
X15543017Y-13603619D01*
X15543017Y-13603619D02*
X15494636Y-13700381D01*
X15494636Y-13700381D02*
X15446255Y-13748762D01*
X15446255Y-13748762D02*
X15349493Y-13797143D01*
X15349493Y-13797143D02*
X15010826Y-13797143D01*
X13656160Y-15868332D02*
X13607779Y-15916713D01*
X13607779Y-15916713D02*
X13462636Y-15965093D01*
X13462636Y-15965093D02*
X13365874Y-15965093D01*
X13365874Y-15965093D02*
X13220731Y-15916713D01*
X13220731Y-15916713D02*
X13123969Y-15819951D01*
X13123969Y-15819951D02*
X13075588Y-15723189D01*
X13075588Y-15723189D02*
X13027207Y-15529665D01*
X13027207Y-15529665D02*
X13027207Y-15384522D01*
X13027207Y-15384522D02*
X13075588Y-15190998D01*
X13075588Y-15190998D02*
X13123969Y-15094236D01*
X13123969Y-15094236D02*
X13220731Y-14997474D01*
X13220731Y-14997474D02*
X13365874Y-14949093D01*
X13365874Y-14949093D02*
X13462636Y-14949093D01*
X13462636Y-14949093D02*
X13607779Y-14997474D01*
X13607779Y-14997474D02*
X13656160Y-15045855D01*
X14043207Y-15674808D02*
X14527017Y-15674808D01*
X13946445Y-15965093D02*
X14285112Y-14949093D01*
X14285112Y-14949093D02*
X14623779Y-15965093D01*
X15301112Y-15432903D02*
X15446255Y-15481284D01*
X15446255Y-15481284D02*
X15494636Y-15529665D01*
X15494636Y-15529665D02*
X15543017Y-15626427D01*
X15543017Y-15626427D02*
X15543017Y-15771570D01*
X15543017Y-15771570D02*
X15494636Y-15868332D01*
X15494636Y-15868332D02*
X15446255Y-15916713D01*
X15446255Y-15916713D02*
X15349493Y-15965093D01*
X15349493Y-15965093D02*
X14962445Y-15965093D01*
X14962445Y-15965093D02*
X14962445Y-14949093D01*
X14962445Y-14949093D02*
X15301112Y-14949093D01*
X15301112Y-14949093D02*
X15397874Y-14997474D01*
X15397874Y-14997474D02*
X15446255Y-15045855D01*
X15446255Y-15045855D02*
X15494636Y-15142617D01*
X15494636Y-15142617D02*
X15494636Y-15239379D01*
X15494636Y-15239379D02*
X15446255Y-15336141D01*
X15446255Y-15336141D02*
X15397874Y-15384522D01*
X15397874Y-15384522D02*
X15301112Y-15432903D01*
X15301112Y-15432903D02*
X14962445Y-15432903D01*
X16462255Y-15965093D02*
X15978445Y-15965093D01*
X15978445Y-15965093D02*
X15978445Y-14949093D01*
X16800921Y-15432903D02*
X17139588Y-15432903D01*
X17284731Y-15965093D02*
X16800921Y-15965093D01*
X16800921Y-15965093D02*
X16800921Y-14949093D01*
X16800921Y-14949093D02*
X17284731Y-14949093D01*
X17671778Y-15916713D02*
X17816921Y-15965093D01*
X17816921Y-15965093D02*
X18058826Y-15965093D01*
X18058826Y-15965093D02*
X18155588Y-15916713D01*
X18155588Y-15916713D02*
X18203969Y-15868332D01*
X18203969Y-15868332D02*
X18252350Y-15771570D01*
X18252350Y-15771570D02*
X18252350Y-15674808D01*
X18252350Y-15674808D02*
X18203969Y-15578046D01*
X18203969Y-15578046D02*
X18155588Y-15529665D01*
X18155588Y-15529665D02*
X18058826Y-15481284D01*
X18058826Y-15481284D02*
X17865302Y-15432903D01*
X17865302Y-15432903D02*
X17768540Y-15384522D01*
X17768540Y-15384522D02*
X17720159Y-15336141D01*
X17720159Y-15336141D02*
X17671778Y-15239379D01*
X17671778Y-15239379D02*
X17671778Y-15142617D01*
X17671778Y-15142617D02*
X17720159Y-15045855D01*
X17720159Y-15045855D02*
X17768540Y-14997474D01*
X17768540Y-14997474D02*
X17865302Y-14949093D01*
X17865302Y-14949093D02*
X18107207Y-14949093D01*
X18107207Y-14949093D02*
X18252350Y-14997474D01*
X19655397Y-14949093D02*
X19848921Y-14949093D01*
X19848921Y-14949093D02*
X19945683Y-14997474D01*
X19945683Y-14997474D02*
X20042445Y-15094236D01*
X20042445Y-15094236D02*
X20090826Y-15287760D01*
X20090826Y-15287760D02*
X20090826Y-15626427D01*
X20090826Y-15626427D02*
X20042445Y-15819951D01*
X20042445Y-15819951D02*
X19945683Y-15916713D01*
X19945683Y-15916713D02*
X19848921Y-15965093D01*
X19848921Y-15965093D02*
X19655397Y-15965093D01*
X19655397Y-15965093D02*
X19558635Y-15916713D01*
X19558635Y-15916713D02*
X19461873Y-15819951D01*
X19461873Y-15819951D02*
X19413492Y-15626427D01*
X19413492Y-15626427D02*
X19413492Y-15287760D01*
X19413492Y-15287760D02*
X19461873Y-15094236D01*
X19461873Y-15094236D02*
X19558635Y-14997474D01*
X19558635Y-14997474D02*
X19655397Y-14949093D01*
X20526254Y-15965093D02*
X20526254Y-14949093D01*
X20526254Y-14949093D02*
X21106826Y-15965093D01*
X21106826Y-15965093D02*
X21106826Y-14949093D01*
X22074445Y-15965093D02*
X21590635Y-15965093D01*
X21590635Y-15965093D02*
X21590635Y-14949093D01*
X22606635Y-15481284D02*
X22606635Y-15965093D01*
X22267968Y-14949093D02*
X22606635Y-15481284D01*
X22606635Y-15481284D02*
X22945302Y-14949093D01*
D11*
X37632847Y-14851704D02*
X37632847Y-15577419D01*
X37632847Y-15577419D02*
X37584466Y-15722562D01*
X37584466Y-15722562D02*
X37487704Y-15819324D01*
X37487704Y-15819324D02*
X37342561Y-15867704D01*
X37342561Y-15867704D02*
X37245799Y-15867704D01*
X38600466Y-15867704D02*
X38116656Y-15867704D01*
X38116656Y-15867704D02*
X38116656Y-14851704D01*
X39519704Y-15770943D02*
X39471323Y-15819324D01*
X39471323Y-15819324D02*
X39326180Y-15867704D01*
X39326180Y-15867704D02*
X39229418Y-15867704D01*
X39229418Y-15867704D02*
X39084275Y-15819324D01*
X39084275Y-15819324D02*
X38987513Y-15722562D01*
X38987513Y-15722562D02*
X38939132Y-15625800D01*
X38939132Y-15625800D02*
X38890751Y-15432276D01*
X38890751Y-15432276D02*
X38890751Y-15287133D01*
X38890751Y-15287133D02*
X38939132Y-15093609D01*
X38939132Y-15093609D02*
X38987513Y-14996847D01*
X38987513Y-14996847D02*
X39084275Y-14900085D01*
X39084275Y-14900085D02*
X39229418Y-14851704D01*
X39229418Y-14851704D02*
X39326180Y-14851704D01*
X39326180Y-14851704D02*
X39471323Y-14900085D01*
X39471323Y-14900085D02*
X39519704Y-14948466D01*
X40245418Y-14851704D02*
X40245418Y-15577419D01*
X40245418Y-15577419D02*
X40197037Y-15722562D01*
X40197037Y-15722562D02*
X40100275Y-15819324D01*
X40100275Y-15819324D02*
X39955132Y-15867704D01*
X39955132Y-15867704D02*
X39858370Y-15867704D01*
X41213037Y-15867704D02*
X40729227Y-15867704D01*
X40729227Y-15867704D02*
X40729227Y-14851704D01*
X42132275Y-15770943D02*
X42083894Y-15819324D01*
X42083894Y-15819324D02*
X41938751Y-15867704D01*
X41938751Y-15867704D02*
X41841989Y-15867704D01*
X41841989Y-15867704D02*
X41696846Y-15819324D01*
X41696846Y-15819324D02*
X41600084Y-15722562D01*
X41600084Y-15722562D02*
X41551703Y-15625800D01*
X41551703Y-15625800D02*
X41503322Y-15432276D01*
X41503322Y-15432276D02*
X41503322Y-15287133D01*
X41503322Y-15287133D02*
X41551703Y-15093609D01*
X41551703Y-15093609D02*
X41600084Y-14996847D01*
X41600084Y-14996847D02*
X41696846Y-14900085D01*
X41696846Y-14900085D02*
X41841989Y-14851704D01*
X41841989Y-14851704D02*
X41938751Y-14851704D01*
X41938751Y-14851704D02*
X42083894Y-14900085D01*
X42083894Y-14900085D02*
X42132275Y-14948466D01*
X42857989Y-14851704D02*
X42857989Y-15577419D01*
X42857989Y-15577419D02*
X42809608Y-15722562D01*
X42809608Y-15722562D02*
X42712846Y-15819324D01*
X42712846Y-15819324D02*
X42567703Y-15867704D01*
X42567703Y-15867704D02*
X42470941Y-15867704D01*
X43825608Y-15867704D02*
X43341798Y-15867704D01*
X43341798Y-15867704D02*
X43341798Y-14851704D01*
X44744846Y-15770943D02*
X44696465Y-15819324D01*
X44696465Y-15819324D02*
X44551322Y-15867704D01*
X44551322Y-15867704D02*
X44454560Y-15867704D01*
X44454560Y-15867704D02*
X44309417Y-15819324D01*
X44309417Y-15819324D02*
X44212655Y-15722562D01*
X44212655Y-15722562D02*
X44164274Y-15625800D01*
X44164274Y-15625800D02*
X44115893Y-15432276D01*
X44115893Y-15432276D02*
X44115893Y-15287133D01*
X44115893Y-15287133D02*
X44164274Y-15093609D01*
X44164274Y-15093609D02*
X44212655Y-14996847D01*
X44212655Y-14996847D02*
X44309417Y-14900085D01*
X44309417Y-14900085D02*
X44454560Y-14851704D01*
X44454560Y-14851704D02*
X44551322Y-14851704D01*
X44551322Y-14851704D02*
X44696465Y-14900085D01*
X44696465Y-14900085D02*
X44744846Y-14948466D01*
X45470560Y-14851704D02*
X45470560Y-15577419D01*
X45470560Y-15577419D02*
X45422179Y-15722562D01*
X45422179Y-15722562D02*
X45325417Y-15819324D01*
X45325417Y-15819324D02*
X45180274Y-15867704D01*
X45180274Y-15867704D02*
X45083512Y-15867704D01*
X46438179Y-15867704D02*
X45954369Y-15867704D01*
X45954369Y-15867704D02*
X45954369Y-14851704D01*
X47357417Y-15770943D02*
X47309036Y-15819324D01*
X47309036Y-15819324D02*
X47163893Y-15867704D01*
X47163893Y-15867704D02*
X47067131Y-15867704D01*
X47067131Y-15867704D02*
X46921988Y-15819324D01*
X46921988Y-15819324D02*
X46825226Y-15722562D01*
X46825226Y-15722562D02*
X46776845Y-15625800D01*
X46776845Y-15625800D02*
X46728464Y-15432276D01*
X46728464Y-15432276D02*
X46728464Y-15287133D01*
X46728464Y-15287133D02*
X46776845Y-15093609D01*
X46776845Y-15093609D02*
X46825226Y-14996847D01*
X46825226Y-14996847D02*
X46921988Y-14900085D01*
X46921988Y-14900085D02*
X47067131Y-14851704D01*
X47067131Y-14851704D02*
X47163893Y-14851704D01*
X47163893Y-14851704D02*
X47309036Y-14900085D01*
X47309036Y-14900085D02*
X47357417Y-14948466D01*
D10*
X77169541Y-13965093D02*
X77296541Y-12949093D01*
X77296541Y-12949093D02*
X77544493Y-13674808D01*
X77544493Y-13674808D02*
X77973874Y-12949093D01*
X77973874Y-12949093D02*
X77846874Y-13965093D01*
X78475827Y-13965093D02*
X78385112Y-13916713D01*
X78385112Y-13916713D02*
X78342779Y-13868332D01*
X78342779Y-13868332D02*
X78306493Y-13771570D01*
X78306493Y-13771570D02*
X78342779Y-13481284D01*
X78342779Y-13481284D02*
X78403255Y-13384522D01*
X78403255Y-13384522D02*
X78457684Y-13336141D01*
X78457684Y-13336141D02*
X78560493Y-13287760D01*
X78560493Y-13287760D02*
X78705636Y-13287760D01*
X78705636Y-13287760D02*
X78796350Y-13336141D01*
X78796350Y-13336141D02*
X78838684Y-13384522D01*
X78838684Y-13384522D02*
X78874969Y-13481284D01*
X78874969Y-13481284D02*
X78838684Y-13771570D01*
X78838684Y-13771570D02*
X78778207Y-13868332D01*
X78778207Y-13868332D02*
X78723779Y-13916713D01*
X78723779Y-13916713D02*
X78620969Y-13965093D01*
X78620969Y-13965093D02*
X78475827Y-13965093D01*
X79395065Y-13965093D02*
X79304350Y-13916713D01*
X79304350Y-13916713D02*
X79262017Y-13868332D01*
X79262017Y-13868332D02*
X79225731Y-13771570D01*
X79225731Y-13771570D02*
X79262017Y-13481284D01*
X79262017Y-13481284D02*
X79322493Y-13384522D01*
X79322493Y-13384522D02*
X79376922Y-13336141D01*
X79376922Y-13336141D02*
X79479731Y-13287760D01*
X79479731Y-13287760D02*
X79624874Y-13287760D01*
X79624874Y-13287760D02*
X79715588Y-13336141D01*
X79715588Y-13336141D02*
X79757922Y-13384522D01*
X79757922Y-13384522D02*
X79794207Y-13481284D01*
X79794207Y-13481284D02*
X79757922Y-13771570D01*
X79757922Y-13771570D02*
X79697445Y-13868332D01*
X79697445Y-13868332D02*
X79643017Y-13916713D01*
X79643017Y-13916713D02*
X79540207Y-13965093D01*
X79540207Y-13965093D02*
X79395065Y-13965093D01*
X80253826Y-13287760D02*
X80169160Y-13965093D01*
X80241731Y-13384522D02*
X80296160Y-13336141D01*
X80296160Y-13336141D02*
X80398969Y-13287760D01*
X80398969Y-13287760D02*
X80544112Y-13287760D01*
X80544112Y-13287760D02*
X80634826Y-13336141D01*
X80634826Y-13336141D02*
X80671112Y-13432903D01*
X80671112Y-13432903D02*
X80604588Y-13965093D01*
X81088398Y-13965093D02*
X81215398Y-12949093D01*
X81154921Y-13432903D02*
X81735493Y-13432903D01*
X81668969Y-13965093D02*
X81795969Y-12949093D01*
X82672874Y-13287760D02*
X82588207Y-13965093D01*
X82237445Y-13287760D02*
X82170922Y-13819951D01*
X82170922Y-13819951D02*
X82207207Y-13916713D01*
X82207207Y-13916713D02*
X82297922Y-13965093D01*
X82297922Y-13965093D02*
X82443064Y-13965093D01*
X82443064Y-13965093D02*
X82545874Y-13916713D01*
X82545874Y-13916713D02*
X82600302Y-13868332D01*
X83072017Y-13965093D02*
X83199017Y-12949093D01*
X83150636Y-13336141D02*
X83253445Y-13287760D01*
X83253445Y-13287760D02*
X83446969Y-13287760D01*
X83446969Y-13287760D02*
X83537683Y-13336141D01*
X83537683Y-13336141D02*
X83580017Y-13384522D01*
X83580017Y-13384522D02*
X83616302Y-13481284D01*
X83616302Y-13481284D02*
X83580017Y-13771570D01*
X83580017Y-13771570D02*
X83519540Y-13868332D01*
X83519540Y-13868332D02*
X83465112Y-13916713D01*
X83465112Y-13916713D02*
X83362302Y-13965093D01*
X83362302Y-13965093D02*
X83168779Y-13965093D01*
X83168779Y-13965093D02*
X83078064Y-13916713D01*
D11*
X77717085Y-15567704D02*
X77438895Y-15083895D01*
X77136514Y-15567704D02*
X77263514Y-14551704D01*
X77263514Y-14551704D02*
X77650561Y-14551704D01*
X77650561Y-14551704D02*
X77741276Y-14600085D01*
X77741276Y-14600085D02*
X77783609Y-14648466D01*
X77783609Y-14648466D02*
X77819895Y-14745228D01*
X77819895Y-14745228D02*
X77801752Y-14890371D01*
X77801752Y-14890371D02*
X77741276Y-14987133D01*
X77741276Y-14987133D02*
X77686847Y-15035514D01*
X77686847Y-15035514D02*
X77584037Y-15083895D01*
X77584037Y-15083895D02*
X77196990Y-15083895D01*
X78219037Y-15035514D02*
X78557704Y-15035514D01*
X78636323Y-15567704D02*
X78152514Y-15567704D01*
X78152514Y-15567704D02*
X78279514Y-14551704D01*
X78279514Y-14551704D02*
X78763323Y-14551704D01*
X79053609Y-14551704D02*
X79265275Y-15567704D01*
X79265275Y-15567704D02*
X79730942Y-14551704D01*
X81248894Y-15567704D02*
X80668323Y-15567704D01*
X80958608Y-15567704D02*
X81085608Y-14551704D01*
X81085608Y-14551704D02*
X80970704Y-14696847D01*
X80970704Y-14696847D02*
X80861847Y-14793609D01*
X80861847Y-14793609D02*
X80759037Y-14841990D01*
X81696418Y-15470943D02*
X81738751Y-15519324D01*
X81738751Y-15519324D02*
X81684323Y-15567704D01*
X81684323Y-15567704D02*
X81641989Y-15519324D01*
X81641989Y-15519324D02*
X81696418Y-15470943D01*
X81696418Y-15470943D02*
X81684323Y-15567704D01*
X82488656Y-14551704D02*
X82585418Y-14551704D01*
X82585418Y-14551704D02*
X82676133Y-14600085D01*
X82676133Y-14600085D02*
X82718466Y-14648466D01*
X82718466Y-14648466D02*
X82754752Y-14745228D01*
X82754752Y-14745228D02*
X82778942Y-14938752D01*
X82778942Y-14938752D02*
X82748704Y-15180657D01*
X82748704Y-15180657D02*
X82676133Y-15374181D01*
X82676133Y-15374181D02*
X82615656Y-15470943D01*
X82615656Y-15470943D02*
X82561228Y-15519324D01*
X82561228Y-15519324D02*
X82458418Y-15567704D01*
X82458418Y-15567704D02*
X82361656Y-15567704D01*
X82361656Y-15567704D02*
X82270942Y-15519324D01*
X82270942Y-15519324D02*
X82228609Y-15470943D01*
X82228609Y-15470943D02*
X82192323Y-15374181D01*
X82192323Y-15374181D02*
X82168133Y-15180657D01*
X82168133Y-15180657D02*
X82198371Y-14938752D01*
X82198371Y-14938752D02*
X82270942Y-14745228D01*
X82270942Y-14745228D02*
X82331418Y-14648466D01*
X82331418Y-14648466D02*
X82385847Y-14600085D01*
X82385847Y-14600085D02*
X82488656Y-14551704D01*
X45525904Y-8846064D02*
X45525904Y-9668541D01*
X45525904Y-9668541D02*
X45574285Y-9765303D01*
X45574285Y-9765303D02*
X45622666Y-9813684D01*
X45622666Y-9813684D02*
X45719428Y-9862064D01*
X45719428Y-9862064D02*
X45912952Y-9862064D01*
X45912952Y-9862064D02*
X46009714Y-9813684D01*
X46009714Y-9813684D02*
X46058095Y-9765303D01*
X46058095Y-9765303D02*
X46106476Y-9668541D01*
X46106476Y-9668541D02*
X46106476Y-8846064D01*
X46493523Y-8846064D02*
X47122476Y-8846064D01*
X47122476Y-8846064D02*
X46783809Y-9233112D01*
X46783809Y-9233112D02*
X46928952Y-9233112D01*
X46928952Y-9233112D02*
X47025714Y-9281493D01*
X47025714Y-9281493D02*
X47074095Y-9329874D01*
X47074095Y-9329874D02*
X47122476Y-9426636D01*
X47122476Y-9426636D02*
X47122476Y-9668541D01*
X47122476Y-9668541D02*
X47074095Y-9765303D01*
X47074095Y-9765303D02*
X47025714Y-9813684D01*
X47025714Y-9813684D02*
X46928952Y-9862064D01*
X46928952Y-9862064D02*
X46638666Y-9862064D01*
X46638666Y-9862064D02*
X46541904Y-9813684D01*
X46541904Y-9813684D02*
X46493523Y-9765303D01*
D12*
X28733333Y-14559580D02*
X28685714Y-14607200D01*
X28685714Y-14607200D02*
X28542857Y-14654819D01*
X28542857Y-14654819D02*
X28447619Y-14654819D01*
X28447619Y-14654819D02*
X28304762Y-14607200D01*
X28304762Y-14607200D02*
X28209524Y-14511961D01*
X28209524Y-14511961D02*
X28161905Y-14416723D01*
X28161905Y-14416723D02*
X28114286Y-14226247D01*
X28114286Y-14226247D02*
X28114286Y-14083390D01*
X28114286Y-14083390D02*
X28161905Y-13892914D01*
X28161905Y-13892914D02*
X28209524Y-13797676D01*
X28209524Y-13797676D02*
X28304762Y-13702438D01*
X28304762Y-13702438D02*
X28447619Y-13654819D01*
X28447619Y-13654819D02*
X28542857Y-13654819D01*
X28542857Y-13654819D02*
X28685714Y-13702438D01*
X28685714Y-13702438D02*
X28733333Y-13750057D01*
X29209524Y-14654819D02*
X29400000Y-14654819D01*
X29400000Y-14654819D02*
X29495238Y-14607200D01*
X29495238Y-14607200D02*
X29542857Y-14559580D01*
X29542857Y-14559580D02*
X29638095Y-14416723D01*
X29638095Y-14416723D02*
X29685714Y-14226247D01*
X29685714Y-14226247D02*
X29685714Y-13845295D01*
X29685714Y-13845295D02*
X29638095Y-13750057D01*
X29638095Y-13750057D02*
X29590476Y-13702438D01*
X29590476Y-13702438D02*
X29495238Y-13654819D01*
X29495238Y-13654819D02*
X29304762Y-13654819D01*
X29304762Y-13654819D02*
X29209524Y-13702438D01*
X29209524Y-13702438D02*
X29161905Y-13750057D01*
X29161905Y-13750057D02*
X29114286Y-13845295D01*
X29114286Y-13845295D02*
X29114286Y-14083390D01*
X29114286Y-14083390D02*
X29161905Y-14178628D01*
X29161905Y-14178628D02*
X29209524Y-14226247D01*
X29209524Y-14226247D02*
X29304762Y-14273866D01*
X29304762Y-14273866D02*
X29495238Y-14273866D01*
X29495238Y-14273866D02*
X29590476Y-14226247D01*
X29590476Y-14226247D02*
X29638095Y-14178628D01*
X29638095Y-14178628D02*
X29685714Y-14083390D01*
D11*
X43430667Y-8265303D02*
X43382286Y-8313684D01*
X43382286Y-8313684D02*
X43237143Y-8362064D01*
X43237143Y-8362064D02*
X43140381Y-8362064D01*
X43140381Y-8362064D02*
X42995238Y-8313684D01*
X42995238Y-8313684D02*
X42898476Y-8216922D01*
X42898476Y-8216922D02*
X42850095Y-8120160D01*
X42850095Y-8120160D02*
X42801714Y-7926636D01*
X42801714Y-7926636D02*
X42801714Y-7781493D01*
X42801714Y-7781493D02*
X42850095Y-7587969D01*
X42850095Y-7587969D02*
X42898476Y-7491207D01*
X42898476Y-7491207D02*
X42995238Y-7394445D01*
X42995238Y-7394445D02*
X43140381Y-7346064D01*
X43140381Y-7346064D02*
X43237143Y-7346064D01*
X43237143Y-7346064D02*
X43382286Y-7394445D01*
X43382286Y-7394445D02*
X43430667Y-7442826D01*
X43769333Y-7346064D02*
X44398286Y-7346064D01*
X44398286Y-7346064D02*
X44059619Y-7733112D01*
X44059619Y-7733112D02*
X44204762Y-7733112D01*
X44204762Y-7733112D02*
X44301524Y-7781493D01*
X44301524Y-7781493D02*
X44349905Y-7829874D01*
X44349905Y-7829874D02*
X44398286Y-7926636D01*
X44398286Y-7926636D02*
X44398286Y-8168541D01*
X44398286Y-8168541D02*
X44349905Y-8265303D01*
X44349905Y-8265303D02*
X44301524Y-8313684D01*
X44301524Y-8313684D02*
X44204762Y-8362064D01*
X44204762Y-8362064D02*
X43914476Y-8362064D01*
X43914476Y-8362064D02*
X43817714Y-8313684D01*
X43817714Y-8313684D02*
X43769333Y-8265303D01*
X55734095Y-546064D02*
X55734095Y-1368541D01*
X55734095Y-1368541D02*
X55782476Y-1465303D01*
X55782476Y-1465303D02*
X55830857Y-1513684D01*
X55830857Y-1513684D02*
X55927619Y-1562064D01*
X55927619Y-1562064D02*
X56121143Y-1562064D01*
X56121143Y-1562064D02*
X56217905Y-1513684D01*
X56217905Y-1513684D02*
X56266286Y-1465303D01*
X56266286Y-1465303D02*
X56314667Y-1368541D01*
X56314667Y-1368541D02*
X56314667Y-546064D01*
X56750095Y-1513684D02*
X56895238Y-1562064D01*
X56895238Y-1562064D02*
X57137143Y-1562064D01*
X57137143Y-1562064D02*
X57233905Y-1513684D01*
X57233905Y-1513684D02*
X57282286Y-1465303D01*
X57282286Y-1465303D02*
X57330667Y-1368541D01*
X57330667Y-1368541D02*
X57330667Y-1271779D01*
X57330667Y-1271779D02*
X57282286Y-1175017D01*
X57282286Y-1175017D02*
X57233905Y-1126636D01*
X57233905Y-1126636D02*
X57137143Y-1078255D01*
X57137143Y-1078255D02*
X56943619Y-1029874D01*
X56943619Y-1029874D02*
X56846857Y-981493D01*
X56846857Y-981493D02*
X56798476Y-933112D01*
X56798476Y-933112D02*
X56750095Y-836350D01*
X56750095Y-836350D02*
X56750095Y-739588D01*
X56750095Y-739588D02*
X56798476Y-642826D01*
X56798476Y-642826D02*
X56846857Y-594445D01*
X56846857Y-594445D02*
X56943619Y-546064D01*
X56943619Y-546064D02*
X57185524Y-546064D01*
X57185524Y-546064D02*
X57330667Y-594445D01*
X58104762Y-1029874D02*
X58249905Y-1078255D01*
X58249905Y-1078255D02*
X58298286Y-1126636D01*
X58298286Y-1126636D02*
X58346667Y-1223398D01*
X58346667Y-1223398D02*
X58346667Y-1368541D01*
X58346667Y-1368541D02*
X58298286Y-1465303D01*
X58298286Y-1465303D02*
X58249905Y-1513684D01*
X58249905Y-1513684D02*
X58153143Y-1562064D01*
X58153143Y-1562064D02*
X57766095Y-1562064D01*
X57766095Y-1562064D02*
X57766095Y-546064D01*
X57766095Y-546064D02*
X58104762Y-546064D01*
X58104762Y-546064D02*
X58201524Y-594445D01*
X58201524Y-594445D02*
X58249905Y-642826D01*
X58249905Y-642826D02*
X58298286Y-739588D01*
X58298286Y-739588D02*
X58298286Y-836350D01*
X58298286Y-836350D02*
X58249905Y-933112D01*
X58249905Y-933112D02*
X58201524Y-981493D01*
X58201524Y-981493D02*
X58104762Y-1029874D01*
X58104762Y-1029874D02*
X57766095Y-1029874D01*
X58685333Y-546064D02*
X59314286Y-546064D01*
X59314286Y-546064D02*
X58975619Y-933112D01*
X58975619Y-933112D02*
X59120762Y-933112D01*
X59120762Y-933112D02*
X59217524Y-981493D01*
X59217524Y-981493D02*
X59265905Y-1029874D01*
X59265905Y-1029874D02*
X59314286Y-1126636D01*
X59314286Y-1126636D02*
X59314286Y-1368541D01*
X59314286Y-1368541D02*
X59265905Y-1465303D01*
X59265905Y-1465303D02*
X59217524Y-1513684D01*
X59217524Y-1513684D02*
X59120762Y-1562064D01*
X59120762Y-1562064D02*
X58830476Y-1562064D01*
X58830476Y-1562064D02*
X58733714Y-1513684D01*
X58733714Y-1513684D02*
X58685333Y-1465303D01*
X34930667Y-2265303D02*
X34882286Y-2313684D01*
X34882286Y-2313684D02*
X34737143Y-2362064D01*
X34737143Y-2362064D02*
X34640381Y-2362064D01*
X34640381Y-2362064D02*
X34495238Y-2313684D01*
X34495238Y-2313684D02*
X34398476Y-2216922D01*
X34398476Y-2216922D02*
X34350095Y-2120160D01*
X34350095Y-2120160D02*
X34301714Y-1926636D01*
X34301714Y-1926636D02*
X34301714Y-1781493D01*
X34301714Y-1781493D02*
X34350095Y-1587969D01*
X34350095Y-1587969D02*
X34398476Y-1491207D01*
X34398476Y-1491207D02*
X34495238Y-1394445D01*
X34495238Y-1394445D02*
X34640381Y-1346064D01*
X34640381Y-1346064D02*
X34737143Y-1346064D01*
X34737143Y-1346064D02*
X34882286Y-1394445D01*
X34882286Y-1394445D02*
X34930667Y-1442826D01*
X35317714Y-1442826D02*
X35366095Y-1394445D01*
X35366095Y-1394445D02*
X35462857Y-1346064D01*
X35462857Y-1346064D02*
X35704762Y-1346064D01*
X35704762Y-1346064D02*
X35801524Y-1394445D01*
X35801524Y-1394445D02*
X35849905Y-1442826D01*
X35849905Y-1442826D02*
X35898286Y-1539588D01*
X35898286Y-1539588D02*
X35898286Y-1636350D01*
X35898286Y-1636350D02*
X35849905Y-1781493D01*
X35849905Y-1781493D02*
X35269333Y-2362064D01*
X35269333Y-2362064D02*
X35898286Y-2362064D01*
D12*
X16431926Y-3875750D02*
X15724820Y-3168643D01*
X15724820Y-3168643D02*
X15893178Y-3000284D01*
X15893178Y-3000284D02*
X16027865Y-2932941D01*
X16027865Y-2932941D02*
X16162552Y-2932941D01*
X16162552Y-2932941D02*
X16263568Y-2966613D01*
X16263568Y-2966613D02*
X16431926Y-3067628D01*
X16431926Y-3067628D02*
X16532942Y-3168643D01*
X16532942Y-3168643D02*
X16633957Y-3337002D01*
X16633957Y-3337002D02*
X16667629Y-3438017D01*
X16667629Y-3438017D02*
X16667629Y-3572704D01*
X16667629Y-3572704D02*
X16600285Y-3707391D01*
X16600285Y-3707391D02*
X16431926Y-3875750D01*
X17509422Y-2798254D02*
X17105361Y-3202315D01*
X17307392Y-3000284D02*
X16600285Y-2293178D01*
X16600285Y-2293178D02*
X16633957Y-2461536D01*
X16633957Y-2461536D02*
X16633957Y-2596223D01*
X16633957Y-2596223D02*
X16600285Y-2697239D01*
D11*
X20565303Y-8869332D02*
X20613684Y-8917713D01*
X20613684Y-8917713D02*
X20662064Y-9062856D01*
X20662064Y-9062856D02*
X20662064Y-9159618D01*
X20662064Y-9159618D02*
X20613684Y-9304761D01*
X20613684Y-9304761D02*
X20516922Y-9401523D01*
X20516922Y-9401523D02*
X20420160Y-9449904D01*
X20420160Y-9449904D02*
X20226636Y-9498285D01*
X20226636Y-9498285D02*
X20081493Y-9498285D01*
X20081493Y-9498285D02*
X19887969Y-9449904D01*
X19887969Y-9449904D02*
X19791207Y-9401523D01*
X19791207Y-9401523D02*
X19694445Y-9304761D01*
X19694445Y-9304761D02*
X19646064Y-9159618D01*
X19646064Y-9159618D02*
X19646064Y-9062856D01*
X19646064Y-9062856D02*
X19694445Y-8917713D01*
X19694445Y-8917713D02*
X19742826Y-8869332D01*
X19984731Y-7998475D02*
X20662064Y-7998475D01*
X19597684Y-8240380D02*
X20323398Y-8482285D01*
X20323398Y-8482285D02*
X20323398Y-7853332D01*
D12*
X30533333Y-10359580D02*
X30485714Y-10407200D01*
X30485714Y-10407200D02*
X30342857Y-10454819D01*
X30342857Y-10454819D02*
X30247619Y-10454819D01*
X30247619Y-10454819D02*
X30104762Y-10407200D01*
X30104762Y-10407200D02*
X30009524Y-10311961D01*
X30009524Y-10311961D02*
X29961905Y-10216723D01*
X29961905Y-10216723D02*
X29914286Y-10026247D01*
X29914286Y-10026247D02*
X29914286Y-9883390D01*
X29914286Y-9883390D02*
X29961905Y-9692914D01*
X29961905Y-9692914D02*
X30009524Y-9597676D01*
X30009524Y-9597676D02*
X30104762Y-9502438D01*
X30104762Y-9502438D02*
X30247619Y-9454819D01*
X30247619Y-9454819D02*
X30342857Y-9454819D01*
X30342857Y-9454819D02*
X30485714Y-9502438D01*
X30485714Y-9502438D02*
X30533333Y-9550057D01*
X31104762Y-9883390D02*
X31009524Y-9835771D01*
X31009524Y-9835771D02*
X30961905Y-9788152D01*
X30961905Y-9788152D02*
X30914286Y-9692914D01*
X30914286Y-9692914D02*
X30914286Y-9645295D01*
X30914286Y-9645295D02*
X30961905Y-9550057D01*
X30961905Y-9550057D02*
X31009524Y-9502438D01*
X31009524Y-9502438D02*
X31104762Y-9454819D01*
X31104762Y-9454819D02*
X31295238Y-9454819D01*
X31295238Y-9454819D02*
X31390476Y-9502438D01*
X31390476Y-9502438D02*
X31438095Y-9550057D01*
X31438095Y-9550057D02*
X31485714Y-9645295D01*
X31485714Y-9645295D02*
X31485714Y-9692914D01*
X31485714Y-9692914D02*
X31438095Y-9788152D01*
X31438095Y-9788152D02*
X31390476Y-9835771D01*
X31390476Y-9835771D02*
X31295238Y-9883390D01*
X31295238Y-9883390D02*
X31104762Y-9883390D01*
X31104762Y-9883390D02*
X31009524Y-9931009D01*
X31009524Y-9931009D02*
X30961905Y-9978628D01*
X30961905Y-9978628D02*
X30914286Y-10073866D01*
X30914286Y-10073866D02*
X30914286Y-10264342D01*
X30914286Y-10264342D02*
X30961905Y-10359580D01*
X30961905Y-10359580D02*
X31009524Y-10407200D01*
X31009524Y-10407200D02*
X31104762Y-10454819D01*
X31104762Y-10454819D02*
X31295238Y-10454819D01*
X31295238Y-10454819D02*
X31390476Y-10407200D01*
X31390476Y-10407200D02*
X31438095Y-10359580D01*
X31438095Y-10359580D02*
X31485714Y-10264342D01*
X31485714Y-10264342D02*
X31485714Y-10073866D01*
X31485714Y-10073866D02*
X31438095Y-9978628D01*
X31438095Y-9978628D02*
X31390476Y-9931009D01*
X31390476Y-9931009D02*
X31295238Y-9883390D01*
D11*
X52305667Y-11037064D02*
X51967000Y-10553255D01*
X51725095Y-11037064D02*
X51725095Y-10021064D01*
X51725095Y-10021064D02*
X52112143Y-10021064D01*
X52112143Y-10021064D02*
X52208905Y-10069445D01*
X52208905Y-10069445D02*
X52257286Y-10117826D01*
X52257286Y-10117826D02*
X52305667Y-10214588D01*
X52305667Y-10214588D02*
X52305667Y-10359731D01*
X52305667Y-10359731D02*
X52257286Y-10456493D01*
X52257286Y-10456493D02*
X52208905Y-10504874D01*
X52208905Y-10504874D02*
X52112143Y-10553255D01*
X52112143Y-10553255D02*
X51725095Y-10553255D01*
X52644333Y-10021064D02*
X53273286Y-10021064D01*
X53273286Y-10021064D02*
X52934619Y-10408112D01*
X52934619Y-10408112D02*
X53079762Y-10408112D01*
X53079762Y-10408112D02*
X53176524Y-10456493D01*
X53176524Y-10456493D02*
X53224905Y-10504874D01*
X53224905Y-10504874D02*
X53273286Y-10601636D01*
X53273286Y-10601636D02*
X53273286Y-10843541D01*
X53273286Y-10843541D02*
X53224905Y-10940303D01*
X53224905Y-10940303D02*
X53176524Y-10988684D01*
X53176524Y-10988684D02*
X53079762Y-11037064D01*
X53079762Y-11037064D02*
X52789476Y-11037064D01*
X52789476Y-11037064D02*
X52692714Y-10988684D01*
X52692714Y-10988684D02*
X52644333Y-10940303D01*
X48432667Y-11037064D02*
X48094000Y-10553255D01*
X47852095Y-11037064D02*
X47852095Y-10021064D01*
X47852095Y-10021064D02*
X48239143Y-10021064D01*
X48239143Y-10021064D02*
X48335905Y-10069445D01*
X48335905Y-10069445D02*
X48384286Y-10117826D01*
X48384286Y-10117826D02*
X48432667Y-10214588D01*
X48432667Y-10214588D02*
X48432667Y-10359731D01*
X48432667Y-10359731D02*
X48384286Y-10456493D01*
X48384286Y-10456493D02*
X48335905Y-10504874D01*
X48335905Y-10504874D02*
X48239143Y-10553255D01*
X48239143Y-10553255D02*
X47852095Y-10553255D01*
X49303524Y-10359731D02*
X49303524Y-11037064D01*
X49061619Y-9972684D02*
X48819714Y-10698398D01*
X48819714Y-10698398D02*
X49448667Y-10698398D01*
X25525904Y-1746064D02*
X25525904Y-2568541D01*
X25525904Y-2568541D02*
X25574285Y-2665303D01*
X25574285Y-2665303D02*
X25622666Y-2713684D01*
X25622666Y-2713684D02*
X25719428Y-2762064D01*
X25719428Y-2762064D02*
X25912952Y-2762064D01*
X25912952Y-2762064D02*
X26009714Y-2713684D01*
X26009714Y-2713684D02*
X26058095Y-2665303D01*
X26058095Y-2665303D02*
X26106476Y-2568541D01*
X26106476Y-2568541D02*
X26106476Y-1746064D01*
X27025714Y-2084731D02*
X27025714Y-2762064D01*
X26783809Y-1697684D02*
X26541904Y-2423398D01*
X26541904Y-2423398D02*
X27170857Y-2423398D01*
X14425904Y-9046064D02*
X14425904Y-9868541D01*
X14425904Y-9868541D02*
X14474285Y-9965303D01*
X14474285Y-9965303D02*
X14522666Y-10013684D01*
X14522666Y-10013684D02*
X14619428Y-10062064D01*
X14619428Y-10062064D02*
X14812952Y-10062064D01*
X14812952Y-10062064D02*
X14909714Y-10013684D01*
X14909714Y-10013684D02*
X14958095Y-9965303D01*
X14958095Y-9965303D02*
X15006476Y-9868541D01*
X15006476Y-9868541D02*
X15006476Y-9046064D01*
X15441904Y-9142826D02*
X15490285Y-9094445D01*
X15490285Y-9094445D02*
X15587047Y-9046064D01*
X15587047Y-9046064D02*
X15828952Y-9046064D01*
X15828952Y-9046064D02*
X15925714Y-9094445D01*
X15925714Y-9094445D02*
X15974095Y-9142826D01*
X15974095Y-9142826D02*
X16022476Y-9239588D01*
X16022476Y-9239588D02*
X16022476Y-9336350D01*
X16022476Y-9336350D02*
X15974095Y-9481493D01*
X15974095Y-9481493D02*
X15393523Y-10062064D01*
X15393523Y-10062064D02*
X16022476Y-10062064D01*
X32616190Y-15455755D02*
X32616190Y-15939564D01*
X32277523Y-14923564D02*
X32616190Y-15455755D01*
X32616190Y-15455755D02*
X32954857Y-14923564D01*
X33825714Y-15939564D02*
X33245142Y-15939564D01*
X33535428Y-15939564D02*
X33535428Y-14923564D01*
X33535428Y-14923564D02*
X33438666Y-15068707D01*
X33438666Y-15068707D02*
X33341904Y-15165469D01*
X33341904Y-15165469D02*
X33245142Y-15213850D01*
X85525904Y-12046064D02*
X85525904Y-12868541D01*
X85525904Y-12868541D02*
X85574285Y-12965303D01*
X85574285Y-12965303D02*
X85622666Y-13013684D01*
X85622666Y-13013684D02*
X85719428Y-13062064D01*
X85719428Y-13062064D02*
X85912952Y-13062064D01*
X85912952Y-13062064D02*
X86009714Y-13013684D01*
X86009714Y-13013684D02*
X86058095Y-12965303D01*
X86058095Y-12965303D02*
X86106476Y-12868541D01*
X86106476Y-12868541D02*
X86106476Y-12046064D01*
X87074095Y-12046064D02*
X86590285Y-12046064D01*
X86590285Y-12046064D02*
X86541904Y-12529874D01*
X86541904Y-12529874D02*
X86590285Y-12481493D01*
X86590285Y-12481493D02*
X86687047Y-12433112D01*
X86687047Y-12433112D02*
X86928952Y-12433112D01*
X86928952Y-12433112D02*
X87025714Y-12481493D01*
X87025714Y-12481493D02*
X87074095Y-12529874D01*
X87074095Y-12529874D02*
X87122476Y-12626636D01*
X87122476Y-12626636D02*
X87122476Y-12868541D01*
X87122476Y-12868541D02*
X87074095Y-12965303D01*
X87074095Y-12965303D02*
X87025714Y-13013684D01*
X87025714Y-13013684D02*
X86928952Y-13062064D01*
X86928952Y-13062064D02*
X86687047Y-13062064D01*
X86687047Y-13062064D02*
X86590285Y-13013684D01*
X86590285Y-13013684D02*
X86541904Y-12965303D01*
X22565303Y-10669332D02*
X22613684Y-10717713D01*
X22613684Y-10717713D02*
X22662064Y-10862856D01*
X22662064Y-10862856D02*
X22662064Y-10959618D01*
X22662064Y-10959618D02*
X22613684Y-11104761D01*
X22613684Y-11104761D02*
X22516922Y-11201523D01*
X22516922Y-11201523D02*
X22420160Y-11249904D01*
X22420160Y-11249904D02*
X22226636Y-11298285D01*
X22226636Y-11298285D02*
X22081493Y-11298285D01*
X22081493Y-11298285D02*
X21887969Y-11249904D01*
X21887969Y-11249904D02*
X21791207Y-11201523D01*
X21791207Y-11201523D02*
X21694445Y-11104761D01*
X21694445Y-11104761D02*
X21646064Y-10959618D01*
X21646064Y-10959618D02*
X21646064Y-10862856D01*
X21646064Y-10862856D02*
X21694445Y-10717713D01*
X21694445Y-10717713D02*
X21742826Y-10669332D01*
X21646064Y-9750094D02*
X21646064Y-10233904D01*
X21646064Y-10233904D02*
X22129874Y-10282285D01*
X22129874Y-10282285D02*
X22081493Y-10233904D01*
X22081493Y-10233904D02*
X22033112Y-10137142D01*
X22033112Y-10137142D02*
X22033112Y-9895237D01*
X22033112Y-9895237D02*
X22081493Y-9798475D01*
X22081493Y-9798475D02*
X22129874Y-9750094D01*
X22129874Y-9750094D02*
X22226636Y-9701713D01*
X22226636Y-9701713D02*
X22468541Y-9701713D01*
X22468541Y-9701713D02*
X22565303Y-9750094D01*
X22565303Y-9750094D02*
X22613684Y-9798475D01*
X22613684Y-9798475D02*
X22662064Y-9895237D01*
X22662064Y-9895237D02*
X22662064Y-10137142D01*
X22662064Y-10137142D02*
X22613684Y-10233904D01*
X22613684Y-10233904D02*
X22565303Y-10282285D01*
X12130667Y-11037064D02*
X11792000Y-10553255D01*
X11550095Y-11037064D02*
X11550095Y-10021064D01*
X11550095Y-10021064D02*
X11937143Y-10021064D01*
X11937143Y-10021064D02*
X12033905Y-10069445D01*
X12033905Y-10069445D02*
X12082286Y-10117826D01*
X12082286Y-10117826D02*
X12130667Y-10214588D01*
X12130667Y-10214588D02*
X12130667Y-10359731D01*
X12130667Y-10359731D02*
X12082286Y-10456493D01*
X12082286Y-10456493D02*
X12033905Y-10504874D01*
X12033905Y-10504874D02*
X11937143Y-10553255D01*
X11937143Y-10553255D02*
X11550095Y-10553255D01*
X13098286Y-11037064D02*
X12517714Y-11037064D01*
X12808000Y-11037064D02*
X12808000Y-10021064D01*
X12808000Y-10021064D02*
X12711238Y-10166207D01*
X12711238Y-10166207D02*
X12614476Y-10262969D01*
X12614476Y-10262969D02*
X12517714Y-10311350D01*
X22565303Y-4969332D02*
X22613684Y-5017713D01*
X22613684Y-5017713D02*
X22662064Y-5162856D01*
X22662064Y-5162856D02*
X22662064Y-5259618D01*
X22662064Y-5259618D02*
X22613684Y-5404761D01*
X22613684Y-5404761D02*
X22516922Y-5501523D01*
X22516922Y-5501523D02*
X22420160Y-5549904D01*
X22420160Y-5549904D02*
X22226636Y-5598285D01*
X22226636Y-5598285D02*
X22081493Y-5598285D01*
X22081493Y-5598285D02*
X21887969Y-5549904D01*
X21887969Y-5549904D02*
X21791207Y-5501523D01*
X21791207Y-5501523D02*
X21694445Y-5404761D01*
X21694445Y-5404761D02*
X21646064Y-5259618D01*
X21646064Y-5259618D02*
X21646064Y-5162856D01*
X21646064Y-5162856D02*
X21694445Y-5017713D01*
X21694445Y-5017713D02*
X21742826Y-4969332D01*
X21646064Y-4630666D02*
X21646064Y-3953332D01*
X21646064Y-3953332D02*
X22662064Y-4388761D01*
X14334095Y-646064D02*
X14334095Y-1468541D01*
X14334095Y-1468541D02*
X14382476Y-1565303D01*
X14382476Y-1565303D02*
X14430857Y-1613684D01*
X14430857Y-1613684D02*
X14527619Y-1662064D01*
X14527619Y-1662064D02*
X14721143Y-1662064D01*
X14721143Y-1662064D02*
X14817905Y-1613684D01*
X14817905Y-1613684D02*
X14866286Y-1565303D01*
X14866286Y-1565303D02*
X14914667Y-1468541D01*
X14914667Y-1468541D02*
X14914667Y-646064D01*
X15350095Y-1613684D02*
X15495238Y-1662064D01*
X15495238Y-1662064D02*
X15737143Y-1662064D01*
X15737143Y-1662064D02*
X15833905Y-1613684D01*
X15833905Y-1613684D02*
X15882286Y-1565303D01*
X15882286Y-1565303D02*
X15930667Y-1468541D01*
X15930667Y-1468541D02*
X15930667Y-1371779D01*
X15930667Y-1371779D02*
X15882286Y-1275017D01*
X15882286Y-1275017D02*
X15833905Y-1226636D01*
X15833905Y-1226636D02*
X15737143Y-1178255D01*
X15737143Y-1178255D02*
X15543619Y-1129874D01*
X15543619Y-1129874D02*
X15446857Y-1081493D01*
X15446857Y-1081493D02*
X15398476Y-1033112D01*
X15398476Y-1033112D02*
X15350095Y-936350D01*
X15350095Y-936350D02*
X15350095Y-839588D01*
X15350095Y-839588D02*
X15398476Y-742826D01*
X15398476Y-742826D02*
X15446857Y-694445D01*
X15446857Y-694445D02*
X15543619Y-646064D01*
X15543619Y-646064D02*
X15785524Y-646064D01*
X15785524Y-646064D02*
X15930667Y-694445D01*
X16704762Y-1129874D02*
X16849905Y-1178255D01*
X16849905Y-1178255D02*
X16898286Y-1226636D01*
X16898286Y-1226636D02*
X16946667Y-1323398D01*
X16946667Y-1323398D02*
X16946667Y-1468541D01*
X16946667Y-1468541D02*
X16898286Y-1565303D01*
X16898286Y-1565303D02*
X16849905Y-1613684D01*
X16849905Y-1613684D02*
X16753143Y-1662064D01*
X16753143Y-1662064D02*
X16366095Y-1662064D01*
X16366095Y-1662064D02*
X16366095Y-646064D01*
X16366095Y-646064D02*
X16704762Y-646064D01*
X16704762Y-646064D02*
X16801524Y-694445D01*
X16801524Y-694445D02*
X16849905Y-742826D01*
X16849905Y-742826D02*
X16898286Y-839588D01*
X16898286Y-839588D02*
X16898286Y-936350D01*
X16898286Y-936350D02*
X16849905Y-1033112D01*
X16849905Y-1033112D02*
X16801524Y-1081493D01*
X16801524Y-1081493D02*
X16704762Y-1129874D01*
X16704762Y-1129874D02*
X16366095Y-1129874D01*
X17333714Y-742826D02*
X17382095Y-694445D01*
X17382095Y-694445D02*
X17478857Y-646064D01*
X17478857Y-646064D02*
X17720762Y-646064D01*
X17720762Y-646064D02*
X17817524Y-694445D01*
X17817524Y-694445D02*
X17865905Y-742826D01*
X17865905Y-742826D02*
X17914286Y-839588D01*
X17914286Y-839588D02*
X17914286Y-936350D01*
X17914286Y-936350D02*
X17865905Y-1081493D01*
X17865905Y-1081493D02*
X17285333Y-1662064D01*
X17285333Y-1662064D02*
X17914286Y-1662064D01*
D12*
X35679580Y-4466666D02*
X35727200Y-4514285D01*
X35727200Y-4514285D02*
X35774819Y-4657142D01*
X35774819Y-4657142D02*
X35774819Y-4752380D01*
X35774819Y-4752380D02*
X35727200Y-4895237D01*
X35727200Y-4895237D02*
X35631961Y-4990475D01*
X35631961Y-4990475D02*
X35536723Y-5038094D01*
X35536723Y-5038094D02*
X35346247Y-5085713D01*
X35346247Y-5085713D02*
X35203390Y-5085713D01*
X35203390Y-5085713D02*
X35012914Y-5038094D01*
X35012914Y-5038094D02*
X34917676Y-4990475D01*
X34917676Y-4990475D02*
X34822438Y-4895237D01*
X34822438Y-4895237D02*
X34774819Y-4752380D01*
X34774819Y-4752380D02*
X34774819Y-4657142D01*
X34774819Y-4657142D02*
X34822438Y-4514285D01*
X34822438Y-4514285D02*
X34870057Y-4466666D01*
X35774819Y-3514285D02*
X35774819Y-4085713D01*
X35774819Y-3799999D02*
X34774819Y-3799999D01*
X34774819Y-3799999D02*
X34917676Y-3895237D01*
X34917676Y-3895237D02*
X35012914Y-3990475D01*
X35012914Y-3990475D02*
X35060533Y-4085713D01*
D11*
X76534095Y-5346064D02*
X76534095Y-6168541D01*
X76534095Y-6168541D02*
X76582476Y-6265303D01*
X76582476Y-6265303D02*
X76630857Y-6313684D01*
X76630857Y-6313684D02*
X76727619Y-6362064D01*
X76727619Y-6362064D02*
X76921143Y-6362064D01*
X76921143Y-6362064D02*
X77017905Y-6313684D01*
X77017905Y-6313684D02*
X77066286Y-6265303D01*
X77066286Y-6265303D02*
X77114667Y-6168541D01*
X77114667Y-6168541D02*
X77114667Y-5346064D01*
X77550095Y-6313684D02*
X77695238Y-6362064D01*
X77695238Y-6362064D02*
X77937143Y-6362064D01*
X77937143Y-6362064D02*
X78033905Y-6313684D01*
X78033905Y-6313684D02*
X78082286Y-6265303D01*
X78082286Y-6265303D02*
X78130667Y-6168541D01*
X78130667Y-6168541D02*
X78130667Y-6071779D01*
X78130667Y-6071779D02*
X78082286Y-5975017D01*
X78082286Y-5975017D02*
X78033905Y-5926636D01*
X78033905Y-5926636D02*
X77937143Y-5878255D01*
X77937143Y-5878255D02*
X77743619Y-5829874D01*
X77743619Y-5829874D02*
X77646857Y-5781493D01*
X77646857Y-5781493D02*
X77598476Y-5733112D01*
X77598476Y-5733112D02*
X77550095Y-5636350D01*
X77550095Y-5636350D02*
X77550095Y-5539588D01*
X77550095Y-5539588D02*
X77598476Y-5442826D01*
X77598476Y-5442826D02*
X77646857Y-5394445D01*
X77646857Y-5394445D02*
X77743619Y-5346064D01*
X77743619Y-5346064D02*
X77985524Y-5346064D01*
X77985524Y-5346064D02*
X78130667Y-5394445D01*
X78904762Y-5829874D02*
X79049905Y-5878255D01*
X79049905Y-5878255D02*
X79098286Y-5926636D01*
X79098286Y-5926636D02*
X79146667Y-6023398D01*
X79146667Y-6023398D02*
X79146667Y-6168541D01*
X79146667Y-6168541D02*
X79098286Y-6265303D01*
X79098286Y-6265303D02*
X79049905Y-6313684D01*
X79049905Y-6313684D02*
X78953143Y-6362064D01*
X78953143Y-6362064D02*
X78566095Y-6362064D01*
X78566095Y-6362064D02*
X78566095Y-5346064D01*
X78566095Y-5346064D02*
X78904762Y-5346064D01*
X78904762Y-5346064D02*
X79001524Y-5394445D01*
X79001524Y-5394445D02*
X79049905Y-5442826D01*
X79049905Y-5442826D02*
X79098286Y-5539588D01*
X79098286Y-5539588D02*
X79098286Y-5636350D01*
X79098286Y-5636350D02*
X79049905Y-5733112D01*
X79049905Y-5733112D02*
X79001524Y-5781493D01*
X79001524Y-5781493D02*
X78904762Y-5829874D01*
X78904762Y-5829874D02*
X78566095Y-5829874D01*
X80017524Y-5684731D02*
X80017524Y-6362064D01*
X79775619Y-5297684D02*
X79533714Y-6023398D01*
X79533714Y-6023398D02*
X80162667Y-6023398D01*
X5455667Y-11007064D02*
X5117000Y-10523255D01*
X4875095Y-11007064D02*
X4875095Y-9991064D01*
X4875095Y-9991064D02*
X5262143Y-9991064D01*
X5262143Y-9991064D02*
X5358905Y-10039445D01*
X5358905Y-10039445D02*
X5407286Y-10087826D01*
X5407286Y-10087826D02*
X5455667Y-10184588D01*
X5455667Y-10184588D02*
X5455667Y-10329731D01*
X5455667Y-10329731D02*
X5407286Y-10426493D01*
X5407286Y-10426493D02*
X5358905Y-10474874D01*
X5358905Y-10474874D02*
X5262143Y-10523255D01*
X5262143Y-10523255D02*
X4875095Y-10523255D01*
X5842714Y-10087826D02*
X5891095Y-10039445D01*
X5891095Y-10039445D02*
X5987857Y-9991064D01*
X5987857Y-9991064D02*
X6229762Y-9991064D01*
X6229762Y-9991064D02*
X6326524Y-10039445D01*
X6326524Y-10039445D02*
X6374905Y-10087826D01*
X6374905Y-10087826D02*
X6423286Y-10184588D01*
X6423286Y-10184588D02*
X6423286Y-10281350D01*
X6423286Y-10281350D02*
X6374905Y-10426493D01*
X6374905Y-10426493D02*
X5794333Y-11007064D01*
X5794333Y-11007064D02*
X6423286Y-11007064D01*
X39475904Y-796064D02*
X39475904Y-1618541D01*
X39475904Y-1618541D02*
X39524285Y-1715303D01*
X39524285Y-1715303D02*
X39572666Y-1763684D01*
X39572666Y-1763684D02*
X39669428Y-1812064D01*
X39669428Y-1812064D02*
X39862952Y-1812064D01*
X39862952Y-1812064D02*
X39959714Y-1763684D01*
X39959714Y-1763684D02*
X40008095Y-1715303D01*
X40008095Y-1715303D02*
X40056476Y-1618541D01*
X40056476Y-1618541D02*
X40056476Y-796064D01*
X41072476Y-1812064D02*
X40491904Y-1812064D01*
X40782190Y-1812064D02*
X40782190Y-796064D01*
X40782190Y-796064D02*
X40685428Y-941207D01*
X40685428Y-941207D02*
X40588666Y-1037969D01*
X40588666Y-1037969D02*
X40491904Y-1086350D01*
X30530667Y-3765303D02*
X30482286Y-3813684D01*
X30482286Y-3813684D02*
X30337143Y-3862064D01*
X30337143Y-3862064D02*
X30240381Y-3862064D01*
X30240381Y-3862064D02*
X30095238Y-3813684D01*
X30095238Y-3813684D02*
X29998476Y-3716922D01*
X29998476Y-3716922D02*
X29950095Y-3620160D01*
X29950095Y-3620160D02*
X29901714Y-3426636D01*
X29901714Y-3426636D02*
X29901714Y-3281493D01*
X29901714Y-3281493D02*
X29950095Y-3087969D01*
X29950095Y-3087969D02*
X29998476Y-2991207D01*
X29998476Y-2991207D02*
X30095238Y-2894445D01*
X30095238Y-2894445D02*
X30240381Y-2846064D01*
X30240381Y-2846064D02*
X30337143Y-2846064D01*
X30337143Y-2846064D02*
X30482286Y-2894445D01*
X30482286Y-2894445D02*
X30530667Y-2942826D01*
X31401524Y-2846064D02*
X31208000Y-2846064D01*
X31208000Y-2846064D02*
X31111238Y-2894445D01*
X31111238Y-2894445D02*
X31062857Y-2942826D01*
X31062857Y-2942826D02*
X30966095Y-3087969D01*
X30966095Y-3087969D02*
X30917714Y-3281493D01*
X30917714Y-3281493D02*
X30917714Y-3668541D01*
X30917714Y-3668541D02*
X30966095Y-3765303D01*
X30966095Y-3765303D02*
X31014476Y-3813684D01*
X31014476Y-3813684D02*
X31111238Y-3862064D01*
X31111238Y-3862064D02*
X31304762Y-3862064D01*
X31304762Y-3862064D02*
X31401524Y-3813684D01*
X31401524Y-3813684D02*
X31449905Y-3765303D01*
X31449905Y-3765303D02*
X31498286Y-3668541D01*
X31498286Y-3668541D02*
X31498286Y-3426636D01*
X31498286Y-3426636D02*
X31449905Y-3329874D01*
X31449905Y-3329874D02*
X31401524Y-3281493D01*
X31401524Y-3281493D02*
X31304762Y-3233112D01*
X31304762Y-3233112D02*
X31111238Y-3233112D01*
X31111238Y-3233112D02*
X31014476Y-3281493D01*
X31014476Y-3281493D02*
X30966095Y-3329874D01*
X30966095Y-3329874D02*
X30917714Y-3426636D01*
X97725628Y-5346064D02*
X97725628Y-6168541D01*
X97725628Y-6168541D02*
X97774009Y-6265303D01*
X97774009Y-6265303D02*
X97822390Y-6313684D01*
X97822390Y-6313684D02*
X97919152Y-6362064D01*
X97919152Y-6362064D02*
X98112676Y-6362064D01*
X98112676Y-6362064D02*
X98209438Y-6313684D01*
X98209438Y-6313684D02*
X98257819Y-6265303D01*
X98257819Y-6265303D02*
X98306200Y-6168541D01*
X98306200Y-6168541D02*
X98306200Y-5346064D01*
X98741628Y-6313684D02*
X98886771Y-6362064D01*
X98886771Y-6362064D02*
X99128676Y-6362064D01*
X99128676Y-6362064D02*
X99225438Y-6313684D01*
X99225438Y-6313684D02*
X99273819Y-6265303D01*
X99273819Y-6265303D02*
X99322200Y-6168541D01*
X99322200Y-6168541D02*
X99322200Y-6071779D01*
X99322200Y-6071779D02*
X99273819Y-5975017D01*
X99273819Y-5975017D02*
X99225438Y-5926636D01*
X99225438Y-5926636D02*
X99128676Y-5878255D01*
X99128676Y-5878255D02*
X98935152Y-5829874D01*
X98935152Y-5829874D02*
X98838390Y-5781493D01*
X98838390Y-5781493D02*
X98790009Y-5733112D01*
X98790009Y-5733112D02*
X98741628Y-5636350D01*
X98741628Y-5636350D02*
X98741628Y-5539588D01*
X98741628Y-5539588D02*
X98790009Y-5442826D01*
X98790009Y-5442826D02*
X98838390Y-5394445D01*
X98838390Y-5394445D02*
X98935152Y-5346064D01*
X98935152Y-5346064D02*
X99177057Y-5346064D01*
X99177057Y-5346064D02*
X99322200Y-5394445D01*
X100096295Y-5829874D02*
X100241438Y-5878255D01*
X100241438Y-5878255D02*
X100289819Y-5926636D01*
X100289819Y-5926636D02*
X100338200Y-6023398D01*
X100338200Y-6023398D02*
X100338200Y-6168541D01*
X100338200Y-6168541D02*
X100289819Y-6265303D01*
X100289819Y-6265303D02*
X100241438Y-6313684D01*
X100241438Y-6313684D02*
X100144676Y-6362064D01*
X100144676Y-6362064D02*
X99757628Y-6362064D01*
X99757628Y-6362064D02*
X99757628Y-5346064D01*
X99757628Y-5346064D02*
X100096295Y-5346064D01*
X100096295Y-5346064D02*
X100193057Y-5394445D01*
X100193057Y-5394445D02*
X100241438Y-5442826D01*
X100241438Y-5442826D02*
X100289819Y-5539588D01*
X100289819Y-5539588D02*
X100289819Y-5636350D01*
X100289819Y-5636350D02*
X100241438Y-5733112D01*
X100241438Y-5733112D02*
X100193057Y-5781493D01*
X100193057Y-5781493D02*
X100096295Y-5829874D01*
X100096295Y-5829874D02*
X99757628Y-5829874D01*
X101305819Y-6362064D02*
X100725247Y-6362064D01*
X101015533Y-6362064D02*
X101015533Y-5346064D01*
X101015533Y-5346064D02*
X100918771Y-5491207D01*
X100918771Y-5491207D02*
X100822009Y-5587969D01*
X100822009Y-5587969D02*
X100725247Y-5636350D01*
D13*
%TO.C,U3*%
X45700000Y-10200000D02*
X46900000Y-10200000D01*
X45700000Y-12800000D02*
X46900000Y-12800000D01*
D12*
X45275000Y-10500000D02*
G75*
G03*
X45275000Y-10500000I-75000J0D01*
G01*
D14*
%TO.C,C9*%
X30710000Y-13392164D02*
X30710000Y-13607836D01*
X29990000Y-13392164D02*
X29990000Y-13607836D01*
D11*
%TO.C,C3*%
X44510000Y-4213748D02*
X44510000Y-5636252D01*
X42690000Y-4213748D02*
X42690000Y-5636252D01*
%TO.C,C2*%
X37207836Y-2260000D02*
X36992164Y-2260000D01*
X37207836Y-1540000D02*
X36992164Y-1540000D01*
D14*
%TO.C,D1*%
X14751329Y-6115219D02*
X17084781Y-8448671D01*
X14751329Y-6115219D02*
X18647487Y-2219060D01*
X17084781Y-8448671D02*
X20980940Y-4552513D01*
D11*
%TO.C,C4*%
X21560000Y-8542164D02*
X21560000Y-8757836D01*
X20840000Y-8542164D02*
X20840000Y-8757836D01*
D14*
%TO.C,C8*%
X29990000Y-11607836D02*
X29990000Y-11392164D01*
X30710000Y-11607836D02*
X30710000Y-11392164D01*
D11*
%TO.C,R3*%
X52635641Y-9755000D02*
X52328359Y-9755000D01*
X52635641Y-8995000D02*
X52328359Y-8995000D01*
%TO.C,R4*%
X48448359Y-8995000D02*
X48755641Y-8995000D01*
X48448359Y-9755000D02*
X48755641Y-9755000D01*
%TO.C,U4*%
X28375000Y-13380000D02*
X28375000Y-12900000D01*
X28375000Y-13380000D02*
X24225000Y-13380000D01*
X28375000Y-12900000D02*
X29500000Y-12900000D01*
X28375000Y-3220000D02*
X28375000Y-3700000D01*
X28375000Y-3220000D02*
X24225000Y-3220000D01*
X24225000Y-13380000D02*
X24225000Y-12900000D01*
X24225000Y-3220000D02*
X24225000Y-3700000D01*
%TO.C,J1*%
X5700000Y-11600000D02*
X5700000Y-15000000D01*
X5700000Y-11600000D02*
X6600000Y-11600000D01*
X6600000Y-12000000D02*
X5700000Y-12000000D01*
X7000000Y-16100000D02*
X6500000Y-16100000D01*
X7550000Y-15400000D02*
X7000000Y-16100000D01*
X10450000Y-15400000D02*
X7550000Y-15400000D01*
X11000000Y-16100000D02*
X10450000Y-15400000D01*
X11000000Y-16100000D02*
X11500000Y-16100000D01*
X11400000Y-11600000D02*
X12300000Y-11600000D01*
X12300000Y-11600000D02*
X12300000Y-15000000D01*
X12300000Y-12000000D02*
X11400000Y-12000000D01*
X7341421Y-12558579D02*
G75*
G03*
X7341421Y-12558579I-141421J0D01*
G01*
D13*
%TO.C,U2*%
X14600000Y-10400000D02*
X15800000Y-10400000D01*
X14600000Y-13000000D02*
X15800000Y-13000000D01*
D12*
X14175000Y-10700000D02*
G75*
G03*
X14175000Y-10700000I-75000J0D01*
G01*
D11*
%TO.C,Y1*%
X35100000Y-14677500D02*
X35100000Y-11377500D01*
X35100000Y-11377500D02*
X31100000Y-11377500D01*
D13*
%TO.C,U5*%
X85700000Y-13400000D02*
X86900000Y-13400000D01*
X85700000Y-16000000D02*
X86900000Y-16000000D01*
D12*
X85275000Y-13700000D02*
G75*
G03*
X85275000Y-13700000I-75000J0D01*
G01*
D11*
%TO.C,C5*%
X22610000Y-8542164D02*
X22610000Y-8757836D01*
X21890000Y-8542164D02*
X21890000Y-8757836D01*
%TO.C,R1*%
X11559359Y-8995000D02*
X11866641Y-8995000D01*
X11559359Y-9755000D02*
X11866641Y-9755000D01*
%TO.C,C7*%
X21890000Y-6807836D02*
X21890000Y-6592164D01*
X22610000Y-6807836D02*
X22610000Y-6592164D01*
D14*
%TO.C,C1*%
X36265000Y-4561252D02*
X36265000Y-4038748D01*
X37735000Y-4561252D02*
X37735000Y-4038748D01*
D15*
%TO.C,USB4*%
X76862000Y-10550000D02*
X76862000Y-7650000D01*
X76862000Y-10550000D02*
X73962000Y-10550000D01*
X76112000Y-7250000D02*
X76112000Y-4612000D01*
X71462000Y-10550000D02*
X72162000Y-10550000D01*
X69462000Y-10550000D02*
X69662000Y-10550000D01*
X66962000Y-10550000D02*
X67662000Y-10550000D01*
X63012000Y-7250000D02*
X63012000Y-4612000D01*
X62262000Y-10550000D02*
X65162000Y-10550000D01*
X62262000Y-10550000D02*
X62262000Y-7650000D01*
D11*
%TO.C,R2*%
X6436641Y-9755000D02*
X6129359Y-9755000D01*
X6436641Y-8995000D02*
X6129359Y-8995000D01*
%TO.C,U1*%
X40250000Y-2190000D02*
X38450000Y-2190000D01*
X40250000Y-2190000D02*
X41050000Y-2190000D01*
X40250000Y-5310000D02*
X39450000Y-5310000D01*
X40250000Y-5310000D02*
X41050000Y-5310000D01*
%TO.C,C6*%
X30710000Y-4854664D02*
X30710000Y-5070336D01*
X29990000Y-4854664D02*
X29990000Y-5070336D01*
D15*
%TO.C,USB1*%
X98092000Y-10550000D02*
X98092000Y-7650000D01*
X98092000Y-10550000D02*
X95192000Y-10550000D01*
X97342000Y-7250000D02*
X97342000Y-4612000D01*
X92692000Y-10550000D02*
X93392000Y-10550000D01*
X90692000Y-10550000D02*
X90892000Y-10550000D01*
X88192000Y-10550000D02*
X88892000Y-10550000D01*
X84242000Y-7250000D02*
X84242000Y-4612000D01*
X83492000Y-10550000D02*
X86392000Y-10550000D01*
X83492000Y-10550000D02*
X83492000Y-7650000D01*
%TD*%
%LPC*%
%TO.C,H7*%
D16*
X97625000Y-15200000D02*
G75*
G03*
X97625000Y-15200000I-325000J0D01*
G01*
%TO.C,H6*%
X101125000Y-4600000D02*
G75*
G03*
X101125000Y-4600000I-325000J0D01*
G01*
%TO.C,H5*%
X1525000Y-4600000D02*
G75*
G03*
X1525000Y-4600000I-325000J0D01*
G01*
%TD*%
D17*
%TO.C,U3*%
X45862500Y-10500000D03*
X45862500Y-11000000D03*
D18*
X45912500Y-11500000D03*
D17*
X45862500Y-12000000D03*
X45862500Y-12500000D03*
X46737500Y-12500000D03*
X46737500Y-12000000D03*
D18*
X46687500Y-11500000D03*
D17*
X46737500Y-11000000D03*
X46737500Y-10500000D03*
%TD*%
D19*
%TO.C,C9*%
X30350000Y-13020000D03*
X30350000Y-13980000D03*
%TD*%
D20*
%TO.C,C3*%
X43600000Y-3450000D03*
X43600000Y-6400000D03*
%TD*%
D21*
%TO.C,USB3*%
X53432000Y-6250000D03*
X47652000Y-6250000D03*
D22*
X53767000Y-7695000D03*
X52992000Y-7695000D03*
D23*
X51792000Y-7695000D03*
X50792000Y-7695000D03*
X50292000Y-7695000D03*
X49292000Y-7695000D03*
D22*
X47317000Y-7695000D03*
X48092000Y-7695000D03*
D23*
X48792000Y-7695000D03*
X49792000Y-7695000D03*
X51292000Y-7695000D03*
X52292000Y-7695000D03*
D24*
X54862000Y-6780000D03*
D25*
X54862000Y-2600000D03*
D24*
X46222000Y-6780000D03*
D25*
X46222000Y-2600000D03*
%TD*%
D26*
%TO.C,C2*%
X37580000Y-1900000D03*
X36620000Y-1900000D03*
%TD*%
D27*
%TO.C,D1*%
X16985786Y-6214214D03*
X19814214Y-3385786D03*
%TD*%
D19*
%TO.C,C4*%
X21200000Y-8170000D03*
X21200000Y-9130000D03*
%TD*%
D28*
%TO.C,C8*%
X30350000Y-11980000D03*
X30350000Y-11020000D03*
%TD*%
D29*
%TO.C,R3*%
X52992000Y-9375000D03*
X51972000Y-9375000D03*
%TD*%
D30*
%TO.C,R4*%
X48092000Y-9375000D03*
X49112000Y-9375000D03*
%TD*%
D31*
%TO.C,U4*%
X28900000Y-12427500D03*
X28900000Y-11792500D03*
X28900000Y-11157500D03*
X28900000Y-10522500D03*
X28900000Y-9887500D03*
X28900000Y-9252500D03*
X28900000Y-8617500D03*
X28900000Y-7982500D03*
X28900000Y-7347500D03*
X28900000Y-6712500D03*
X28900000Y-6077500D03*
X28900000Y-5442500D03*
X28900000Y-4807500D03*
X28900000Y-4172500D03*
X23700000Y-4172500D03*
X23700000Y-4807500D03*
X23700000Y-5442500D03*
X23700000Y-6077500D03*
X23700000Y-6712500D03*
X23700000Y-7347500D03*
X23700000Y-7982500D03*
X23700000Y-8617500D03*
X23700000Y-9252500D03*
X23700000Y-9887500D03*
X23700000Y-10522500D03*
X23700000Y-11157500D03*
X23700000Y-11792500D03*
X23700000Y-12427500D03*
%TD*%
D32*
%TO.C,J1*%
X6050000Y-15600000D03*
D33*
X7200000Y-11600000D03*
X8400000Y-11600000D03*
X9600000Y-11600000D03*
X10800000Y-11600000D03*
D32*
X11950000Y-15600000D03*
%TD*%
D17*
%TO.C,U2*%
X14762500Y-10700000D03*
X14762500Y-11200000D03*
D18*
X14812500Y-11700000D03*
D17*
X14762500Y-12200000D03*
X14762500Y-12700000D03*
X15637500Y-12700000D03*
X15637500Y-12200000D03*
D18*
X15587500Y-11700000D03*
D17*
X15637500Y-11200000D03*
X15637500Y-10700000D03*
%TD*%
D34*
%TO.C,Y1*%
X34200000Y-12177500D03*
X32000000Y-12177500D03*
X32000000Y-13877500D03*
X34200000Y-13877500D03*
%TD*%
D17*
%TO.C,U5*%
X85862500Y-13700000D03*
X85862500Y-14200000D03*
D18*
X85912500Y-14700000D03*
D17*
X85862500Y-15200000D03*
X85862500Y-15700000D03*
X86737500Y-15700000D03*
X86737500Y-15200000D03*
D18*
X86687500Y-14700000D03*
D17*
X86737500Y-14200000D03*
X86737500Y-13700000D03*
%TD*%
D35*
%TO.C,H3*%
X100000000Y-14500000D03*
%TD*%
D19*
%TO.C,C5*%
X22250000Y-8170000D03*
X22250000Y-9130000D03*
%TD*%
D30*
%TO.C,R1*%
X11203000Y-9375000D03*
X12223000Y-9375000D03*
%TD*%
D35*
%TO.C,H4*%
X2000000Y-14500000D03*
%TD*%
D28*
%TO.C,C7*%
X22250000Y-7180000D03*
X22250000Y-6220000D03*
%TD*%
D21*
%TO.C,USB2*%
X11888000Y-6250000D03*
X6108000Y-6250000D03*
D22*
X12223000Y-7695000D03*
X11448000Y-7695000D03*
D23*
X10248000Y-7695000D03*
X9248000Y-7695000D03*
X8748000Y-7695000D03*
X7748000Y-7695000D03*
D22*
X5773000Y-7695000D03*
X6548000Y-7695000D03*
D23*
X7248000Y-7695000D03*
X8248000Y-7695000D03*
X9748000Y-7695000D03*
X10748000Y-7695000D03*
D24*
X13318000Y-6780000D03*
D25*
X13318000Y-2600000D03*
D24*
X4678000Y-6780000D03*
D25*
X4678000Y-2600000D03*
%TD*%
D36*
%TO.C,C1*%
X37000000Y-5250000D03*
X37000000Y-3350000D03*
%TD*%
D37*
%TO.C,USB4*%
X73062000Y-10550000D03*
X70562000Y-10550000D03*
X68562000Y-10550000D03*
X66062000Y-10550000D03*
D38*
X75962000Y-9200000D03*
X75962000Y-3200000D03*
X63162000Y-9200000D03*
X63162000Y-3200000D03*
%TD*%
D35*
%TO.C,H1*%
X100000000Y-2000000D03*
%TD*%
D39*
%TO.C,H2*%
X2000000Y-2000000D03*
%TD*%
D29*
%TO.C,R2*%
X6793000Y-9375000D03*
X5773000Y-9375000D03*
%TD*%
D40*
%TO.C,U1*%
X39112500Y-2800000D03*
X39112500Y-3750000D03*
X39112500Y-4700000D03*
X41387500Y-4700000D03*
X41387500Y-2800000D03*
%TD*%
D19*
%TO.C,C6*%
X30350000Y-4482500D03*
X30350000Y-5442500D03*
%TD*%
D37*
%TO.C,USB1*%
X94292000Y-10550000D03*
X91792000Y-10550000D03*
X89792000Y-10550000D03*
X87292000Y-10550000D03*
D38*
X97192000Y-9200000D03*
X97192000Y-3200000D03*
X84392000Y-9200000D03*
X84392000Y-3200000D03*
%TD*%
%LPD*%
M02*
