%TF.GenerationSoftware,KiCad,Pcbnew,7.0.6*%
%TF.CreationDate,2023-09-06T01:08:14+01:00*%
%TF.ProjectId,MoonHub,4d6f6f6e-4875-4622-9e6b-696361645f70,rev?*%
%TF.SameCoordinates,Original*%
%TF.FileFunction,Copper,L1,Top*%
%TF.FilePolarity,Positive*%
%FSLAX46Y46*%
G04 Gerber Fmt 4.6, Leading zero omitted, Abs format (unit mm)*
G04 Created by KiCad (PCBNEW 7.0.6) date 2023-09-06 01:08:14*
%MOMM*%
%LPD*%
G01*
G04 APERTURE LIST*
G04 Aperture macros list*
%AMRoundRect*
0 Rectangle with rounded corners*
0 $1 Rounding radius*
0 $2 $3 $4 $5 $6 $7 $8 $9 X,Y pos of 4 corners*
0 Add a 4 corners polygon primitive as box body*
4,1,4,$2,$3,$4,$5,$6,$7,$8,$9,$2,$3,0*
0 Add four circle primitives for the rounded corners*
1,1,$1+$1,$2,$3*
1,1,$1+$1,$4,$5*
1,1,$1+$1,$6,$7*
1,1,$1+$1,$8,$9*
0 Add four rect primitives between the rounded corners*
20,1,$1+$1,$2,$3,$4,$5,0*
20,1,$1+$1,$4,$5,$6,$7,0*
20,1,$1+$1,$6,$7,$8,$9,0*
20,1,$1+$1,$8,$9,$2,$3,0*%
G04 Aperture macros list end*
%TA.AperFunction,ComponentPad*%
%ADD10C,3.500001*%
%TD*%
%TA.AperFunction,ComponentPad*%
%ADD11C,0.600000*%
%TD*%
%TA.AperFunction,SMDPad,CuDef*%
%ADD12RoundRect,0.100000X-0.900000X0.625000X-0.900000X-0.625000X0.900000X-0.625000X0.900000X0.625000X0*%
%TD*%
%TA.AperFunction,SMDPad,CuDef*%
%ADD13RoundRect,0.166667X-0.733333X0.333333X-0.733333X-0.333333X0.733333X-0.333333X0.733333X0.333333X0*%
%TD*%
%TA.AperFunction,SMDPad,CuDef*%
%ADD14RoundRect,0.140000X-0.170000X0.140000X-0.170000X-0.140000X0.170000X-0.140000X0.170000X0.140000X0*%
%TD*%
%TA.AperFunction,SMDPad,CuDef*%
%ADD15RoundRect,0.218750X0.381250X-0.218750X0.381250X0.218750X-0.381250X0.218750X-0.381250X-0.218750X0*%
%TD*%
%TA.AperFunction,SMDPad,CuDef*%
%ADD16RoundRect,0.140000X0.140000X0.170000X-0.140000X0.170000X-0.140000X-0.170000X0.140000X-0.170000X0*%
%TD*%
%TA.AperFunction,SMDPad,CuDef*%
%ADD17RoundRect,0.060000X0.240000X0.665000X-0.240000X0.665000X-0.240000X-0.665000X0.240000X-0.665000X0*%
%TD*%
%TA.AperFunction,SMDPad,CuDef*%
%ADD18RoundRect,0.060000X0.090000X0.665000X-0.090000X0.665000X-0.090000X-0.665000X0.090000X-0.665000X0*%
%TD*%
%TA.AperFunction,ComponentPad*%
%ADD19O,1.100000X2.200000*%
%TD*%
%TA.AperFunction,ComponentPad*%
%ADD20O,1.300000X1.700000*%
%TD*%
%TA.AperFunction,SMDPad,CuDef*%
%ADD21RoundRect,0.140000X0.170000X-0.140000X0.170000X0.140000X-0.170000X0.140000X-0.170000X-0.140000X0*%
%TD*%
%TA.AperFunction,SMDPad,CuDef*%
%ADD22R,1.400000X1.200000*%
%TD*%
%TA.AperFunction,SMDPad,CuDef*%
%ADD23RoundRect,0.135000X0.135000X0.185000X-0.135000X0.185000X-0.135000X-0.185000X0.135000X-0.185000X0*%
%TD*%
%TA.AperFunction,SMDPad,CuDef*%
%ADD24RoundRect,0.135000X-0.135000X-0.185000X0.135000X-0.185000X0.135000X0.185000X-0.135000X0.185000X0*%
%TD*%
%TA.AperFunction,SMDPad,CuDef*%
%ADD25R,1.200000X0.400000*%
%TD*%
%TA.AperFunction,SMDPad,CuDef*%
%ADD26RoundRect,0.200000X0.200000X0.275000X-0.200000X0.275000X-0.200000X-0.275000X0.200000X-0.275000X0*%
%TD*%
%TA.AperFunction,SMDPad,CuDef*%
%ADD27RoundRect,0.250000X-0.325000X-0.650000X0.325000X-0.650000X0.325000X0.650000X-0.325000X0.650000X0*%
%TD*%
%TA.AperFunction,SMDPad,CuDef*%
%ADD28RoundRect,0.150000X0.475000X0.150000X-0.475000X0.150000X-0.475000X-0.150000X0.475000X-0.150000X0*%
%TD*%
%TA.AperFunction,WasherPad*%
%ADD29C,3.500001*%
%TD*%
%TA.AperFunction,SMDPad,CuDef*%
%ADD30RoundRect,0.150000X-0.512500X-0.150000X0.512500X-0.150000X0.512500X0.150000X-0.512500X0.150000X0*%
%TD*%
%TA.AperFunction,SMDPad,CuDef*%
%ADD31R,1.400000X2.800000*%
%TD*%
%TA.AperFunction,ComponentPad*%
%ADD32O,1.400000X2.500000*%
%TD*%
%TA.AperFunction,SMDPad,CuDef*%
%ADD33RoundRect,0.150000X-0.475000X-0.150000X0.475000X-0.150000X0.475000X0.150000X-0.475000X0.150000X0*%
%TD*%
%TA.AperFunction,SMDPad,CuDef*%
%ADD34RoundRect,0.150000X0.150000X-0.475000X0.150000X0.475000X-0.150000X0.475000X-0.150000X-0.475000X0*%
%TD*%
G04 APERTURE END LIST*
D10*
%TO.P,H2,1,1*%
%TO.N,GNDPWR*%
X2000000Y-2000000D03*
%TD*%
D11*
%TO.P,USB2,*%
%TO.N,*%
X57900000Y-2350000D03*
D12*
X57200000Y-2775000D03*
D11*
X57900000Y-3150000D03*
X57200000Y-3150000D03*
X56500000Y-3150000D03*
X57900000Y-7550000D03*
X57200000Y-7550000D03*
X56500000Y-7550000D03*
D12*
X57200000Y-7925000D03*
D11*
X57900000Y-8300000D03*
D13*
%TO.P,USB2,1,Pin_1*%
%TO.N,VBUS*%
X60900000Y-3550000D03*
%TO.P,USB2,2,Pin_2*%
%TO.N,/USB4_D-*%
X60900000Y-4750000D03*
%TO.P,USB2,3,Pin_3*%
%TO.N,/USB4_D+*%
X60900000Y-5950000D03*
%TO.P,USB2,4,Pin_4*%
%TO.N,GND*%
X60900000Y-7150000D03*
%TD*%
D14*
%TO.P,C7,1*%
%TO.N,+5V*%
X73600000Y-2795000D03*
%TO.P,C7,2*%
%TO.N,GND*%
X73600000Y-3755000D03*
%TD*%
D15*
%TO.P,FB4,1*%
%TO.N,GND*%
X52599000Y-9299500D03*
%TO.P,FB4,2*%
%TO.N,GNDPWR*%
X52599000Y-7174500D03*
%TD*%
D16*
%TO.P,C6,1*%
%TO.N,Net-(U3-XI)*%
X71000000Y-7950000D03*
%TO.P,C6,2*%
%TO.N,GND*%
X70040000Y-7950000D03*
%TD*%
D17*
%TO.P,USB3,A1,GND*%
%TO.N,GND*%
X49524000Y-8089500D03*
%TO.P,USB3,A4,VBUS*%
%TO.N,VBUS*%
X48749000Y-8089500D03*
D18*
%TO.P,USB3,A5,CC1*%
%TO.N,Net-(USB3-CC1)*%
X47549000Y-8089500D03*
%TO.P,USB3,A6,D+*%
%TO.N,/USB3_D+*%
X46549000Y-8089500D03*
%TO.P,USB3,A7,D-*%
%TO.N,/USB3_D-*%
X46049000Y-8089500D03*
%TO.P,USB3,A8,SBU1*%
%TO.N,unconnected-(USB3-SBU1-PadA8)*%
X45049000Y-8089500D03*
D17*
%TO.P,USB3,B1,GND*%
%TO.N,GND*%
X43074000Y-8089500D03*
%TO.P,USB3,B4,VBUS*%
%TO.N,VBUS*%
X43849000Y-8089500D03*
D18*
%TO.P,USB3,B5,CC2*%
%TO.N,Net-(USB3-CC2)*%
X44549000Y-8089500D03*
%TO.P,USB3,B6,D+*%
%TO.N,/USB3_D+*%
X45549000Y-8089500D03*
%TO.P,USB3,B7,D-*%
%TO.N,/USB3_D-*%
X47049000Y-8089500D03*
%TO.P,USB3,B8,SBU2*%
%TO.N,unconnected-(USB3-SBU2-PadB8)*%
X48049000Y-8089500D03*
D19*
%TO.P,USB3,S1,SHIELD*%
%TO.N,GNDPWR*%
X50619000Y-7174500D03*
D20*
X50619000Y-2994500D03*
D19*
X41979000Y-7174500D03*
D20*
X41979000Y-2994500D03*
%TD*%
D15*
%TO.P,FB2,1*%
%TO.N,GND*%
X20789000Y-11046500D03*
%TO.P,FB2,2*%
%TO.N,GNDPWR*%
X20789000Y-8921500D03*
%TD*%
D21*
%TO.P,C1,1*%
%TO.N,Net-(C1-Pad1)*%
X80300000Y-10930000D03*
%TO.P,C1,2*%
%TO.N,GND*%
X80300000Y-9970000D03*
%TD*%
D22*
%TO.P,D1,1,A1*%
%TO.N,GND*%
X83400000Y-5650000D03*
%TO.P,D1,2,A2*%
%TO.N,+5V*%
X83400000Y-9050000D03*
%TD*%
D23*
%TO.P,R3,1*%
%TO.N,VBUS*%
X51209000Y-9895500D03*
%TO.P,R3,2*%
%TO.N,Net-(USB3-CC1)*%
X50189000Y-9895500D03*
%TD*%
D24*
%TO.P,R4,1*%
%TO.N,VBUS*%
X43089000Y-9995500D03*
%TO.P,R4,2*%
%TO.N,Net-(USB3-CC2)*%
X44109000Y-9995500D03*
%TD*%
D25*
%TO.P,U3,1,GND*%
%TO.N,GND*%
X72500000Y-6680000D03*
%TO.P,U3,2,XO*%
%TO.N,Net-(U3-XO)*%
X72500000Y-7315000D03*
%TO.P,U3,3,XI*%
%TO.N,Net-(U3-XI)*%
X72500000Y-7950000D03*
%TO.P,U3,4,DM4*%
%TO.N,/USB4_D-*%
X72500000Y-8585000D03*
%TO.P,U3,5,DP4*%
%TO.N,/USB4_D+*%
X72500000Y-9220000D03*
%TO.P,U3,6,DM3*%
%TO.N,/USB3_D-*%
X72500000Y-9855000D03*
%TO.P,U3,7,DP3*%
%TO.N,/USB3_D+*%
X72500000Y-10490000D03*
%TO.P,U3,8,DM2*%
%TO.N,/USB1_D-*%
X72500000Y-11125000D03*
%TO.P,U3,9,DP2*%
%TO.N,/USB1_D+*%
X72500000Y-11760000D03*
%TO.P,U3,10,DM1*%
%TO.N,/USB2_D-*%
X72500000Y-12395000D03*
%TO.P,U3,11,DP1*%
%TO.N,/USB2_D+*%
X72500000Y-13030000D03*
%TO.P,U3,12,GND*%
%TO.N,GND*%
X72500000Y-13665000D03*
%TO.P,U3,13,VDD33*%
%TO.N,Net-(C2-Pad1)*%
X72500000Y-14300000D03*
%TO.P,U3,14,LED3/SCL*%
%TO.N,unconnected-(U3-LED3{slash}SCL-Pad14)*%
X72500000Y-14935000D03*
%TO.P,U3,15,DMU*%
%TO.N,/USBU_D-*%
X77700000Y-14935000D03*
%TO.P,U3,16,DPU*%
%TO.N,/USBU_D+*%
X77700000Y-14300000D03*
%TO.P,U3,17,RESET#/CDP*%
%TO.N,unconnected-(U3-RESET#{slash}CDP-Pad17)*%
X77700000Y-13665000D03*
%TO.P,U3,18,NC*%
%TO.N,unconnected-(U3-NC-Pad18)*%
X77700000Y-13030000D03*
%TO.P,U3,19,PSELF*%
%TO.N,unconnected-(U3-PSELF-Pad19)*%
X77700000Y-12395000D03*
%TO.P,U3,20,V5*%
%TO.N,+5V*%
X77700000Y-11760000D03*
%TO.P,U3,21,VDD33*%
%TO.N,Net-(C1-Pad1)*%
X77700000Y-11125000D03*
%TO.P,U3,22,LED4/SDA*%
%TO.N,unconnected-(U3-LED4{slash}SDA-Pad22)*%
X77700000Y-10490000D03*
%TO.P,U3,23,LED1*%
%TO.N,unconnected-(U3-LED1-Pad23)*%
X77700000Y-9855000D03*
%TO.P,U3,24,LED2*%
%TO.N,unconnected-(U3-LED2-Pad24)*%
X77700000Y-9220000D03*
%TO.P,U3,25,PWREN#*%
%TO.N,/PWREN*%
X77700000Y-8585000D03*
%TO.P,U3,26,OVCUR#*%
%TO.N,/OVCUR*%
X77700000Y-7950000D03*
%TO.P,U3,27,NC*%
%TO.N,unconnected-(U3-NC-Pad27)*%
X77700000Y-7315000D03*
%TO.P,U3,28,GND*%
%TO.N,GND*%
X77700000Y-6680000D03*
%TD*%
D26*
%TO.P,R5,1*%
%TO.N,+5V*%
X81025000Y-7050000D03*
%TO.P,R5,2*%
%TO.N,/OVCUR*%
X79375000Y-7050000D03*
%TD*%
D22*
%TO.P,Y1,1,1*%
%TO.N,GND*%
X67100000Y-6400000D03*
%TO.P,Y1,2,2*%
%TO.N,Net-(U3-XO)*%
X69300000Y-6400000D03*
%TO.P,Y1,3,3*%
%TO.N,GND*%
X69300000Y-4700000D03*
%TO.P,Y1,4,4*%
%TO.N,Net-(U3-XI)*%
X67100000Y-4700000D03*
%TD*%
D27*
%TO.P,C8,1*%
%TO.N,VBUS*%
X79425000Y-3250000D03*
%TO.P,C8,2*%
%TO.N,GND*%
X82375000Y-3250000D03*
%TD*%
D21*
%TO.P,C3,1*%
%TO.N,Net-(C1-Pad1)*%
X79200000Y-10930000D03*
%TO.P,C3,2*%
%TO.N,GND*%
X79200000Y-9970000D03*
%TD*%
D28*
%TO.P,U6,1,IO1*%
%TO.N,/USB3_D+*%
X47974000Y-11945500D03*
%TO.P,U6,2,VN*%
%TO.N,GND*%
X47974000Y-10995500D03*
%TO.P,U6,3,IO2*%
%TO.N,/USB3_D-*%
X47974000Y-10045500D03*
%TO.P,U6,4,IO3*%
%TO.N,unconnected-(U6-IO3-Pad4)*%
X45624000Y-10045500D03*
%TO.P,U6,5,VP*%
%TO.N,VBUS*%
X45624000Y-10995500D03*
%TO.P,U6,6,IO4*%
%TO.N,unconnected-(U6-IO4-Pad6)*%
X45624000Y-11945500D03*
%TD*%
D24*
%TO.P,R1,1*%
%TO.N,Net-(USB1-CC1)*%
X92390000Y-10450000D03*
%TO.P,R1,2*%
%TO.N,GND*%
X93410000Y-10450000D03*
%TD*%
D29*
%TO.P,H3,*%
%TO.N,*%
X2000000Y-14500000D03*
%TD*%
D14*
%TO.P,C4,1*%
%TO.N,+5V*%
X79200000Y-11970000D03*
%TO.P,C4,2*%
%TO.N,GND*%
X79200000Y-12930000D03*
%TD*%
D29*
%TO.P,H4,*%
%TO.N,*%
X100000000Y-14500000D03*
%TD*%
D17*
%TO.P,USB1,A1,GND*%
%TO.N,GND*%
X93362500Y-8244000D03*
%TO.P,USB1,A4,VBUS*%
%TO.N,+5V*%
X92587500Y-8244000D03*
D18*
%TO.P,USB1,A5,CC1*%
%TO.N,Net-(USB1-CC1)*%
X91387500Y-8244000D03*
%TO.P,USB1,A6,D+*%
%TO.N,/USBU_D+*%
X90387500Y-8244000D03*
%TO.P,USB1,A7,D-*%
%TO.N,/USBU_D-*%
X89887500Y-8244000D03*
%TO.P,USB1,A8,SBU1*%
%TO.N,unconnected-(USB1-SBU1-PadA8)*%
X88887500Y-8244000D03*
D17*
%TO.P,USB1,B1,GND*%
%TO.N,GND*%
X86912500Y-8244000D03*
%TO.P,USB1,B4,VBUS*%
%TO.N,+5V*%
X87687500Y-8244000D03*
D18*
%TO.P,USB1,B5,CC2*%
%TO.N,Net-(USB1-CC2)*%
X88387500Y-8244000D03*
%TO.P,USB1,B6,D+*%
%TO.N,/USBU_D+*%
X89387500Y-8244000D03*
%TO.P,USB1,B7,D-*%
%TO.N,/USBU_D-*%
X90887500Y-8244000D03*
%TO.P,USB1,B8,SBU2*%
%TO.N,unconnected-(USB1-SBU2-PadB8)*%
X91887500Y-8244000D03*
D19*
%TO.P,USB1,S1,SHIELD*%
%TO.N,GNDPWR*%
X94457500Y-7329000D03*
D20*
X94457500Y-3149000D03*
D19*
X85817500Y-7329000D03*
D20*
X85817500Y-3149000D03*
%TD*%
D30*
%TO.P,U4,1,IN*%
%TO.N,+5V*%
X75162500Y-2800000D03*
%TO.P,U4,2,GND*%
%TO.N,GND*%
X75162500Y-3750000D03*
%TO.P,U4,3,~{EN}*%
%TO.N,/PWREN*%
X75162500Y-4700000D03*
%TO.P,U4,4,~{FAULT}*%
%TO.N,/OVCUR*%
X77437500Y-4700000D03*
%TO.P,U4,5,ILIM*%
%TO.N,Net-(U4-ILIM)*%
X77437500Y-3750000D03*
%TO.P,U4,6,OUT*%
%TO.N,VBUS*%
X77437500Y-2800000D03*
%TD*%
D15*
%TO.P,FB1,1*%
%TO.N,GND*%
X96500000Y-9454000D03*
%TO.P,FB1,2*%
%TO.N,GNDPWR*%
X96500000Y-7329000D03*
%TD*%
D26*
%TO.P,R6,1*%
%TO.N,GND*%
X81025000Y-5350000D03*
%TO.P,R6,2*%
%TO.N,Net-(U4-ILIM)*%
X79375000Y-5350000D03*
%TD*%
D31*
%TO.P,USB4,1,VBUS*%
%TO.N,VBUS*%
X33698000Y-10231000D03*
%TO.P,USB4,2,D-*%
%TO.N,/USB2_D-*%
X31199000Y-10231000D03*
%TO.P,USB4,3,D+*%
%TO.N,/USB2_D+*%
X29197000Y-10231000D03*
%TO.P,USB4,4,GND*%
%TO.N,GND*%
X26698000Y-10231000D03*
D32*
%TO.P,USB4,5,Shield*%
%TO.N,GNDPWR*%
X36599000Y-8757000D03*
X36599000Y-2755000D03*
X23797000Y-8757000D03*
X23797000Y-2806000D03*
%TD*%
D29*
%TO.P,H1,*%
%TO.N,*%
X100000000Y-2000000D03*
%TD*%
D28*
%TO.P,U1,1,IO1*%
%TO.N,/USB1_D+*%
X13464000Y-15407000D03*
%TO.P,U1,2,VN*%
%TO.N,GND*%
X13464000Y-14457000D03*
%TO.P,U1,3,IO2*%
%TO.N,/USB1_D-*%
X13464000Y-13507000D03*
%TO.P,U1,4,IO3*%
%TO.N,unconnected-(U1-IO3-Pad4)*%
X11114000Y-13507000D03*
%TO.P,U1,5,VP*%
%TO.N,VBUS*%
X11114000Y-14457000D03*
%TO.P,U1,6,IO4*%
%TO.N,unconnected-(U1-IO4-Pad6)*%
X11114000Y-15407000D03*
%TD*%
D15*
%TO.P,FB3,1*%
%TO.N,GND*%
X38698000Y-10882000D03*
%TO.P,FB3,2*%
%TO.N,GNDPWR*%
X38698000Y-8757000D03*
%TD*%
D33*
%TO.P,U2,1,IO1*%
%TO.N,/USBU_D+*%
X88462500Y-10200000D03*
%TO.P,U2,2,VN*%
%TO.N,GND*%
X88462500Y-11150000D03*
%TO.P,U2,3,IO2*%
%TO.N,/USBU_D-*%
X88462500Y-12100000D03*
%TO.P,U2,4,IO3*%
%TO.N,unconnected-(U2-IO3-Pad4)*%
X90812500Y-12100000D03*
%TO.P,U2,5,VP*%
%TO.N,VBUS*%
X90812500Y-11150000D03*
%TO.P,U2,6,IO4*%
%TO.N,unconnected-(U2-IO4-Pad6)*%
X90812500Y-10200000D03*
%TD*%
D23*
%TO.P,R2,1*%
%TO.N,Net-(USB1-CC2)*%
X86010000Y-10250000D03*
%TO.P,R2,2*%
%TO.N,GND*%
X84990000Y-10250000D03*
%TD*%
D34*
%TO.P,U7,1,IO1*%
%TO.N,/USB4_D+*%
X62850000Y-6525000D03*
%TO.P,U7,2,VN*%
%TO.N,GND*%
X63800000Y-6525000D03*
%TO.P,U7,3,IO2*%
%TO.N,/USB4_D-*%
X64750000Y-6525000D03*
%TO.P,U7,4,IO3*%
%TO.N,unconnected-(U7-IO3-Pad4)*%
X64750000Y-4175000D03*
%TO.P,U7,5,VP*%
%TO.N,VBUS*%
X63800000Y-4175000D03*
%TO.P,U7,6,IO4*%
%TO.N,unconnected-(U7-IO4-Pad6)*%
X62850000Y-4175000D03*
%TD*%
D21*
%TO.P,C2,1*%
%TO.N,Net-(C2-Pad1)*%
X71000000Y-14705000D03*
%TO.P,C2,2*%
%TO.N,GND*%
X71000000Y-13745000D03*
%TD*%
D28*
%TO.P,U5,1,IO1*%
%TO.N,/USB2_D+*%
X31373000Y-15142500D03*
%TO.P,U5,2,VN*%
%TO.N,GND*%
X31373000Y-14192500D03*
%TO.P,U5,3,IO2*%
%TO.N,/USB2_D-*%
X31373000Y-13242500D03*
%TO.P,U5,4,IO3*%
%TO.N,unconnected-(U5-IO3-Pad4)*%
X29023000Y-13242500D03*
%TO.P,U5,5,VP*%
%TO.N,VBUS*%
X29023000Y-14192500D03*
%TO.P,U5,6,IO4*%
%TO.N,unconnected-(U5-IO4-Pad6)*%
X29023000Y-15142500D03*
%TD*%
D21*
%TO.P,C5,1*%
%TO.N,Net-(U3-XO)*%
X71000000Y-6830000D03*
%TO.P,C5,2*%
%TO.N,GND*%
X71000000Y-5870000D03*
%TD*%
D31*
%TO.P,USB5,1,VBUS*%
%TO.N,VBUS*%
X15789000Y-10395500D03*
%TO.P,USB5,2,D-*%
%TO.N,/USB1_D-*%
X13290000Y-10395500D03*
%TO.P,USB5,3,D+*%
%TO.N,/USB1_D+*%
X11288000Y-10395500D03*
%TO.P,USB5,4,GND*%
%TO.N,GND*%
X8789000Y-10395500D03*
D32*
%TO.P,USB5,5,Shield*%
%TO.N,GNDPWR*%
X18690000Y-8921500D03*
X18690000Y-2919500D03*
X5888000Y-8921500D03*
X5888000Y-2970500D03*
%TD*%
%TA.AperFunction,Conductor*%
%TO.N,VBUS*%
G36*
X98120710Y-520185D02*
G01*
X98166465Y-572989D01*
X98176409Y-642147D01*
X98156773Y-693391D01*
X98039888Y-868321D01*
X98039879Y-868336D01*
X97908941Y-1133852D01*
X97908937Y-1133862D01*
X97813779Y-1414190D01*
X97813774Y-1414210D01*
X97756018Y-1704563D01*
X97756017Y-1704573D01*
X97756017Y-1704574D01*
X97736654Y-2000000D01*
X97750226Y-2207078D01*
X97756017Y-2295424D01*
X97756018Y-2295436D01*
X97813774Y-2585787D01*
X97813779Y-2585809D01*
X97908937Y-2866137D01*
X97908941Y-2866147D01*
X98039879Y-3131663D01*
X98039888Y-3131678D01*
X98078435Y-3189367D01*
X98204367Y-3377838D01*
X98212505Y-3387118D01*
X98399572Y-3600427D01*
X98559053Y-3740288D01*
X98622162Y-3795633D01*
X98868327Y-3960115D01*
X98868330Y-3960116D01*
X98868336Y-3960120D01*
X99133852Y-4091058D01*
X99133862Y-4091062D01*
X99414190Y-4186220D01*
X99414194Y-4186221D01*
X99414203Y-4186224D01*
X99530942Y-4209445D01*
X99704563Y-4243981D01*
X99704564Y-4243981D01*
X99704574Y-4243983D01*
X100000000Y-4263346D01*
X100295426Y-4243983D01*
X100585797Y-4186224D01*
X100585809Y-4186220D01*
X100866137Y-4091062D01*
X100866147Y-4091058D01*
X101131663Y-3960120D01*
X101131663Y-3960119D01*
X101131673Y-3960115D01*
X101306610Y-3843225D01*
X101373286Y-3822348D01*
X101440667Y-3840832D01*
X101487357Y-3892811D01*
X101499500Y-3946328D01*
X101499500Y-12553671D01*
X101479815Y-12620710D01*
X101427011Y-12666465D01*
X101357853Y-12676409D01*
X101306609Y-12656773D01*
X101131678Y-12539888D01*
X101131663Y-12539879D01*
X100866147Y-12408941D01*
X100866137Y-12408937D01*
X100585809Y-12313779D01*
X100585789Y-12313774D01*
X100295436Y-12256018D01*
X100295427Y-12256017D01*
X100295426Y-12256017D01*
X100000000Y-12236654D01*
X99704574Y-12256017D01*
X99704573Y-12256017D01*
X99704563Y-12256018D01*
X99414210Y-12313774D01*
X99414190Y-12313779D01*
X99133862Y-12408937D01*
X99133852Y-12408941D01*
X98868336Y-12539879D01*
X98868321Y-12539888D01*
X98622160Y-12704368D01*
X98399572Y-12899572D01*
X98204368Y-13122160D01*
X98039888Y-13368321D01*
X98039879Y-13368336D01*
X97908941Y-13633852D01*
X97908937Y-13633862D01*
X97813779Y-13914190D01*
X97813774Y-13914210D01*
X97756018Y-14204563D01*
X97756017Y-14204573D01*
X97756017Y-14204574D01*
X97736654Y-14500000D01*
X97755221Y-14783288D01*
X97756017Y-14795424D01*
X97756018Y-14795436D01*
X97813774Y-15085789D01*
X97813779Y-15085809D01*
X97908937Y-15366137D01*
X97908941Y-15366147D01*
X98039879Y-15631663D01*
X98039888Y-15631678D01*
X98156773Y-15806609D01*
X98177651Y-15873287D01*
X98159166Y-15940667D01*
X98107187Y-15987357D01*
X98053671Y-15999500D01*
X14417958Y-15999500D01*
X14350919Y-15979815D01*
X14305164Y-15927011D01*
X14295220Y-15857853D01*
X14318187Y-15801867D01*
X14341793Y-15769882D01*
X14367893Y-15695292D01*
X14386646Y-15641701D01*
X14386646Y-15641699D01*
X14389500Y-15611269D01*
X14389500Y-15202730D01*
X14386646Y-15172300D01*
X14386646Y-15172298D01*
X14341793Y-15044119D01*
X14341792Y-15044117D01*
X14313389Y-15005632D01*
X14289419Y-14940005D01*
X14304734Y-14871835D01*
X14313385Y-14858373D01*
X14341793Y-14819882D01*
X14369348Y-14741134D01*
X14386646Y-14691701D01*
X14386646Y-14691699D01*
X14389500Y-14661269D01*
X14389500Y-14442501D01*
X27900704Y-14442501D01*
X27900899Y-14444986D01*
X27946718Y-14602698D01*
X28030314Y-14744052D01*
X28030321Y-14744061D01*
X28069549Y-14783288D01*
X28103035Y-14844611D01*
X28099648Y-14899924D01*
X28101964Y-14900430D01*
X28100353Y-14907805D01*
X28097500Y-14938230D01*
X28097500Y-15346769D01*
X28100353Y-15377199D01*
X28100353Y-15377201D01*
X28145206Y-15505380D01*
X28145207Y-15505382D01*
X28225850Y-15614650D01*
X28335118Y-15695293D01*
X28377845Y-15710244D01*
X28463299Y-15740146D01*
X28493730Y-15743000D01*
X28493734Y-15743000D01*
X29552270Y-15743000D01*
X29582699Y-15740146D01*
X29582701Y-15740146D01*
X29646790Y-15717719D01*
X29710882Y-15695293D01*
X29820150Y-15614650D01*
X29900793Y-15505382D01*
X29926266Y-15432584D01*
X29945646Y-15377201D01*
X29945646Y-15377199D01*
X29948500Y-15346769D01*
X30447500Y-15346769D01*
X30450353Y-15377199D01*
X30450353Y-15377201D01*
X30495206Y-15505380D01*
X30495207Y-15505382D01*
X30575850Y-15614650D01*
X30685118Y-15695293D01*
X30727845Y-15710244D01*
X30813299Y-15740146D01*
X30843730Y-15743000D01*
X30843734Y-15743000D01*
X31902270Y-15743000D01*
X31932699Y-15740146D01*
X31932701Y-15740146D01*
X31996790Y-15717719D01*
X32060882Y-15695293D01*
X32170150Y-15614650D01*
X32250793Y-15505382D01*
X32276266Y-15432584D01*
X32295646Y-15377201D01*
X32295646Y-15377199D01*
X32298500Y-15346769D01*
X32298500Y-14938230D01*
X32295646Y-14907800D01*
X32295646Y-14907798D01*
X32250793Y-14779619D01*
X32250792Y-14779617D01*
X32222389Y-14741132D01*
X32198419Y-14675505D01*
X32213734Y-14607335D01*
X32222385Y-14593873D01*
X32250793Y-14555382D01*
X32276410Y-14482173D01*
X32295646Y-14427201D01*
X32295646Y-14427199D01*
X32298500Y-14396769D01*
X32298500Y-13988230D01*
X32295646Y-13957800D01*
X32295646Y-13957798D01*
X32262006Y-13861663D01*
X32250793Y-13829618D01*
X32222389Y-13791132D01*
X32198419Y-13725505D01*
X32213734Y-13657335D01*
X32222385Y-13643873D01*
X32250793Y-13605382D01*
X32284970Y-13507710D01*
X32295646Y-13477201D01*
X32295646Y-13477199D01*
X32298500Y-13446769D01*
X32298500Y-13038230D01*
X32295646Y-13007800D01*
X32295646Y-13007798D01*
X32260199Y-12906500D01*
X32250793Y-12879618D01*
X32170150Y-12770350D01*
X32060882Y-12689707D01*
X32060880Y-12689706D01*
X31932700Y-12644853D01*
X31902270Y-12642000D01*
X31902266Y-12642000D01*
X30843734Y-12642000D01*
X30843730Y-12642000D01*
X30813300Y-12644853D01*
X30813298Y-12644853D01*
X30685119Y-12689706D01*
X30685117Y-12689707D01*
X30575850Y-12770350D01*
X30495207Y-12879617D01*
X30495206Y-12879619D01*
X30450353Y-13007798D01*
X30450353Y-13007800D01*
X30447500Y-13038230D01*
X30447500Y-13446769D01*
X30450353Y-13477199D01*
X30450353Y-13477201D01*
X30493921Y-13601708D01*
X30495207Y-13605382D01*
X30516219Y-13633852D01*
X30523610Y-13643867D01*
X30547580Y-13709497D01*
X30532264Y-13777667D01*
X30523610Y-13791133D01*
X30495207Y-13829618D01*
X30495206Y-13829619D01*
X30450353Y-13957798D01*
X30450353Y-13957800D01*
X30447500Y-13988230D01*
X30447500Y-14396769D01*
X30450353Y-14427199D01*
X30450353Y-14427201D01*
X30495206Y-14555380D01*
X30495207Y-14555382D01*
X30512628Y-14578987D01*
X30523610Y-14593867D01*
X30547580Y-14659497D01*
X30532264Y-14727667D01*
X30523610Y-14741133D01*
X30495207Y-14779618D01*
X30495206Y-14779619D01*
X30450353Y-14907798D01*
X30450353Y-14907800D01*
X30447500Y-14938230D01*
X30447500Y-15346769D01*
X29948500Y-15346769D01*
X29948500Y-14938230D01*
X29945647Y-14907806D01*
X29944036Y-14900432D01*
X29946476Y-14899898D01*
X29943524Y-14842157D01*
X29976450Y-14783288D01*
X30015680Y-14744058D01*
X30015686Y-14744050D01*
X30099281Y-14602698D01*
X30145100Y-14444986D01*
X30145295Y-14442501D01*
X30145295Y-14442500D01*
X27900705Y-14442500D01*
X27900704Y-14442501D01*
X14389500Y-14442501D01*
X14389500Y-14252730D01*
X14386646Y-14222300D01*
X14386646Y-14222298D01*
X14353006Y-14126163D01*
X14341793Y-14094118D01*
X14313389Y-14055632D01*
X14289419Y-13990005D01*
X14300092Y-13942498D01*
X27900704Y-13942498D01*
X27900705Y-13942500D01*
X30145295Y-13942500D01*
X30145295Y-13942498D01*
X30145100Y-13940013D01*
X30099281Y-13782301D01*
X30015685Y-13640947D01*
X30015678Y-13640938D01*
X29976450Y-13601711D01*
X29942964Y-13540388D01*
X29946358Y-13485075D01*
X29944036Y-13484568D01*
X29945647Y-13477193D01*
X29948500Y-13446769D01*
X29948500Y-13038230D01*
X29945646Y-13007800D01*
X29945646Y-13007798D01*
X29910199Y-12906500D01*
X29900793Y-12879618D01*
X29820150Y-12770350D01*
X29710882Y-12689707D01*
X29710880Y-12689706D01*
X29582700Y-12644853D01*
X29552270Y-12642000D01*
X29552266Y-12642000D01*
X28493734Y-12642000D01*
X28493730Y-12642000D01*
X28463300Y-12644853D01*
X28463298Y-12644853D01*
X28335119Y-12689706D01*
X28335117Y-12689707D01*
X28225850Y-12770350D01*
X28145207Y-12879617D01*
X28145206Y-12879619D01*
X28100353Y-13007798D01*
X28100353Y-13007800D01*
X28097500Y-13038230D01*
X28097500Y-13446769D01*
X28100353Y-13477199D01*
X28101964Y-13484573D01*
X28099528Y-13485104D01*
X28102465Y-13542878D01*
X28069551Y-13601708D01*
X28030321Y-13640939D01*
X28030313Y-13640949D01*
X27946718Y-13782301D01*
X27900899Y-13940013D01*
X27900704Y-13942498D01*
X14300092Y-13942498D01*
X14304734Y-13921835D01*
X14313385Y-13908373D01*
X14341793Y-13869882D01*
X14369348Y-13791134D01*
X14386646Y-13741701D01*
X14386646Y-13741699D01*
X14389500Y-13711269D01*
X14389500Y-13302730D01*
X14386646Y-13272300D01*
X14386646Y-13272298D01*
X14353006Y-13176163D01*
X14341793Y-13144118D01*
X14261150Y-13034850D01*
X14151882Y-12954207D01*
X14151880Y-12954206D01*
X14023700Y-12909353D01*
X13993270Y-12906500D01*
X13993266Y-12906500D01*
X12934734Y-12906500D01*
X12934730Y-12906500D01*
X12904300Y-12909353D01*
X12904298Y-12909353D01*
X12776119Y-12954206D01*
X12776117Y-12954207D01*
X12666850Y-13034850D01*
X12586207Y-13144117D01*
X12586206Y-13144119D01*
X12541353Y-13272298D01*
X12541353Y-13272300D01*
X12538500Y-13302730D01*
X12538500Y-13711269D01*
X12541353Y-13741699D01*
X12541353Y-13741701D01*
X12584921Y-13866208D01*
X12586207Y-13869882D01*
X12612385Y-13905353D01*
X12614610Y-13908367D01*
X12638580Y-13973997D01*
X12623264Y-14042167D01*
X12614610Y-14055633D01*
X12586207Y-14094118D01*
X12586206Y-14094119D01*
X12541353Y-14222298D01*
X12541353Y-14222300D01*
X12538500Y-14252730D01*
X12538500Y-14661269D01*
X12541353Y-14691699D01*
X12541353Y-14691701D01*
X12581524Y-14806500D01*
X12586207Y-14819882D01*
X12602647Y-14842157D01*
X12614610Y-14858367D01*
X12638580Y-14923997D01*
X12623264Y-14992167D01*
X12614610Y-15005633D01*
X12586207Y-15044118D01*
X12586206Y-15044119D01*
X12541353Y-15172298D01*
X12541353Y-15172300D01*
X12538500Y-15202730D01*
X12538500Y-15611269D01*
X12541353Y-15641699D01*
X12541353Y-15641701D01*
X12586206Y-15769880D01*
X12586207Y-15769882D01*
X12609813Y-15801867D01*
X12633783Y-15867496D01*
X12618467Y-15935667D01*
X12568726Y-15984734D01*
X12510042Y-15999500D01*
X12067958Y-15999500D01*
X12000919Y-15979815D01*
X11955164Y-15927011D01*
X11945220Y-15857853D01*
X11968187Y-15801867D01*
X11991793Y-15769882D01*
X12017893Y-15695292D01*
X12036646Y-15641701D01*
X12036646Y-15641699D01*
X12039500Y-15611269D01*
X12039500Y-15202730D01*
X12036647Y-15172306D01*
X12035036Y-15164932D01*
X12037476Y-15164398D01*
X12034524Y-15106657D01*
X12067450Y-15047788D01*
X12106680Y-15008558D01*
X12106686Y-15008550D01*
X12190281Y-14867198D01*
X12236100Y-14709486D01*
X12236295Y-14707001D01*
X12236295Y-14707000D01*
X9991705Y-14707000D01*
X9991704Y-14707001D01*
X9991899Y-14709486D01*
X10037718Y-14867198D01*
X10121314Y-15008552D01*
X10121321Y-15008561D01*
X10160549Y-15047788D01*
X10194035Y-15109111D01*
X10190648Y-15164424D01*
X10192964Y-15164930D01*
X10191353Y-15172305D01*
X10188500Y-15202730D01*
X10188500Y-15611269D01*
X10191353Y-15641699D01*
X10191353Y-15641701D01*
X10236206Y-15769880D01*
X10236207Y-15769882D01*
X10259813Y-15801867D01*
X10283783Y-15867496D01*
X10268467Y-15935667D01*
X10218726Y-15984734D01*
X10160042Y-15999500D01*
X3946329Y-15999500D01*
X3879290Y-15979815D01*
X3833535Y-15927011D01*
X3823591Y-15857853D01*
X3843227Y-15806609D01*
X3887636Y-15740146D01*
X3960115Y-15631673D01*
X4091059Y-15366145D01*
X4097637Y-15346769D01*
X4186220Y-15085809D01*
X4186220Y-15085808D01*
X4186224Y-15085797D01*
X4243983Y-14795426D01*
X4263346Y-14500000D01*
X4244142Y-14206998D01*
X9991704Y-14206998D01*
X9991705Y-14207000D01*
X12236295Y-14207000D01*
X12236295Y-14206998D01*
X12236100Y-14204513D01*
X12190281Y-14046801D01*
X12106685Y-13905447D01*
X12106678Y-13905438D01*
X12067450Y-13866211D01*
X12033964Y-13804888D01*
X12037358Y-13749575D01*
X12035036Y-13749068D01*
X12036647Y-13741693D01*
X12039500Y-13711269D01*
X12039500Y-13302730D01*
X12036646Y-13272300D01*
X12036646Y-13272298D01*
X12003006Y-13176163D01*
X11991793Y-13144118D01*
X11911150Y-13034850D01*
X11801882Y-12954207D01*
X11801880Y-12954206D01*
X11673700Y-12909353D01*
X11643270Y-12906500D01*
X11643266Y-12906500D01*
X10584734Y-12906500D01*
X10584730Y-12906500D01*
X10554300Y-12909353D01*
X10554298Y-12909353D01*
X10426119Y-12954206D01*
X10426117Y-12954207D01*
X10316850Y-13034850D01*
X10236207Y-13144117D01*
X10236206Y-13144119D01*
X10191353Y-13272298D01*
X10191353Y-13272300D01*
X10188500Y-13302730D01*
X10188500Y-13711269D01*
X10191353Y-13741699D01*
X10192964Y-13749073D01*
X10190528Y-13749604D01*
X10193465Y-13807378D01*
X10160551Y-13866208D01*
X10121321Y-13905439D01*
X10121313Y-13905449D01*
X10037718Y-14046801D01*
X9991899Y-14204513D01*
X9991704Y-14206998D01*
X4244142Y-14206998D01*
X4243983Y-14204574D01*
X4186224Y-13914203D01*
X4186220Y-13914190D01*
X4091062Y-13633862D01*
X4091058Y-13633852D01*
X3960120Y-13368336D01*
X3960111Y-13368321D01*
X3916287Y-13302734D01*
X3795633Y-13122162D01*
X3722030Y-13038234D01*
X3600427Y-12899572D01*
X3381047Y-12707181D01*
X3377838Y-12704367D01*
X3179960Y-12572149D01*
X3131678Y-12539888D01*
X3131663Y-12539879D01*
X2866147Y-12408941D01*
X2866137Y-12408937D01*
X2585809Y-12313779D01*
X2585789Y-12313774D01*
X2295436Y-12256018D01*
X2295427Y-12256017D01*
X2295426Y-12256017D01*
X2000000Y-12236654D01*
X1704574Y-12256017D01*
X1704573Y-12256017D01*
X1704563Y-12256018D01*
X1414210Y-12313774D01*
X1414190Y-12313779D01*
X1133862Y-12408937D01*
X1133852Y-12408941D01*
X868336Y-12539879D01*
X868321Y-12539888D01*
X693391Y-12656773D01*
X626713Y-12677651D01*
X559333Y-12659166D01*
X512643Y-12607187D01*
X500500Y-12553671D01*
X500500Y-11840356D01*
X7788500Y-11840356D01*
X7788502Y-11840382D01*
X7791413Y-11865487D01*
X7791415Y-11865491D01*
X7836793Y-11968264D01*
X7836794Y-11968265D01*
X7916235Y-12047706D01*
X8019009Y-12093085D01*
X8044135Y-12096000D01*
X9533864Y-12095999D01*
X9533879Y-12095997D01*
X9533882Y-12095997D01*
X9558987Y-12093086D01*
X9558988Y-12093085D01*
X9558991Y-12093085D01*
X9661765Y-12047706D01*
X9741206Y-11968265D01*
X9786585Y-11865491D01*
X9789500Y-11840365D01*
X9789500Y-11840356D01*
X10287500Y-11840356D01*
X10287502Y-11840382D01*
X10290413Y-11865487D01*
X10290415Y-11865491D01*
X10335793Y-11968264D01*
X10335794Y-11968265D01*
X10415235Y-12047706D01*
X10518009Y-12093085D01*
X10543135Y-12096000D01*
X12032864Y-12095999D01*
X12032879Y-12095997D01*
X12032882Y-12095997D01*
X12057987Y-12093086D01*
X12057988Y-12093085D01*
X12057991Y-12093085D01*
X12160765Y-12047706D01*
X12201319Y-12007152D01*
X12262642Y-11973667D01*
X12332334Y-11978651D01*
X12376681Y-12007152D01*
X12417235Y-12047706D01*
X12520009Y-12093085D01*
X12545135Y-12096000D01*
X14034864Y-12095999D01*
X14034879Y-12095997D01*
X14034882Y-12095997D01*
X14059987Y-12093086D01*
X14059988Y-12093085D01*
X14059991Y-12093085D01*
X14162765Y-12047706D01*
X14242206Y-11968265D01*
X14287585Y-11865491D01*
X14290500Y-11840365D01*
X14290499Y-10645500D01*
X14589000Y-10645500D01*
X14589000Y-11843344D01*
X14595401Y-11902872D01*
X14595403Y-11902879D01*
X14645645Y-12037586D01*
X14645649Y-12037593D01*
X14731809Y-12152687D01*
X14731812Y-12152690D01*
X14846906Y-12238850D01*
X14846913Y-12238854D01*
X14981620Y-12289096D01*
X14981627Y-12289098D01*
X15041155Y-12295499D01*
X15041172Y-12295500D01*
X15539000Y-12295500D01*
X15539000Y-10645500D01*
X16039000Y-10645500D01*
X16039000Y-12295500D01*
X16536828Y-12295500D01*
X16536844Y-12295499D01*
X16596372Y-12289098D01*
X16596379Y-12289096D01*
X16731086Y-12238854D01*
X16731093Y-12238850D01*
X16846187Y-12152690D01*
X16846190Y-12152687D01*
X16932350Y-12037593D01*
X16932354Y-12037586D01*
X16982596Y-11902879D01*
X16982598Y-11902872D01*
X16988999Y-11843344D01*
X16989000Y-11843327D01*
X16989000Y-11305902D01*
X19888500Y-11305902D01*
X19898520Y-11389343D01*
X19898520Y-11389344D01*
X19904969Y-11405698D01*
X19947236Y-11512880D01*
X19950886Y-11522134D01*
X20037132Y-11635867D01*
X20150865Y-11722113D01*
X20150868Y-11722115D01*
X20283654Y-11774479D01*
X20367098Y-11784500D01*
X21210902Y-11784500D01*
X21294346Y-11774479D01*
X21427132Y-11722115D01*
X21488134Y-11675856D01*
X25697500Y-11675856D01*
X25697502Y-11675882D01*
X25700413Y-11700987D01*
X25700415Y-11700991D01*
X25745793Y-11803764D01*
X25745794Y-11803765D01*
X25825235Y-11883206D01*
X25928009Y-11928585D01*
X25953135Y-11931500D01*
X27442864Y-11931499D01*
X27442879Y-11931497D01*
X27442882Y-11931497D01*
X27467987Y-11928586D01*
X27467988Y-11928585D01*
X27467991Y-11928585D01*
X27570765Y-11883206D01*
X27650206Y-11803765D01*
X27695585Y-11700991D01*
X27698500Y-11675865D01*
X27698500Y-11675856D01*
X28196500Y-11675856D01*
X28196502Y-11675882D01*
X28199413Y-11700987D01*
X28199415Y-11700991D01*
X28244793Y-11803764D01*
X28244794Y-11803765D01*
X28324235Y-11883206D01*
X28427009Y-11928585D01*
X28452135Y-11931500D01*
X29941864Y-11931499D01*
X29941879Y-11931497D01*
X29941882Y-11931497D01*
X29966987Y-11928586D01*
X29966988Y-11928585D01*
X29966991Y-11928585D01*
X30069765Y-11883206D01*
X30110319Y-11842651D01*
X30171642Y-11809167D01*
X30241334Y-11814151D01*
X30285681Y-11842652D01*
X30326235Y-11883206D01*
X30429009Y-11928585D01*
X30454135Y-11931500D01*
X31943864Y-11931499D01*
X31943879Y-11931497D01*
X31943882Y-11931497D01*
X31968987Y-11928586D01*
X31968988Y-11928585D01*
X31968991Y-11928585D01*
X32071765Y-11883206D01*
X32151206Y-11803765D01*
X32196585Y-11700991D01*
X32199500Y-11675865D01*
X32199499Y-10481000D01*
X32498000Y-10481000D01*
X32498000Y-11678844D01*
X32504401Y-11738372D01*
X32504403Y-11738379D01*
X32554645Y-11873086D01*
X32554649Y-11873093D01*
X32640809Y-11988187D01*
X32640812Y-11988190D01*
X32755906Y-12074350D01*
X32755913Y-12074354D01*
X32890620Y-12124596D01*
X32890627Y-12124598D01*
X32950155Y-12130999D01*
X32950172Y-12131000D01*
X33448000Y-12131000D01*
X33448000Y-10481000D01*
X33948000Y-10481000D01*
X33948000Y-12131000D01*
X34445828Y-12131000D01*
X34445844Y-12130999D01*
X34505372Y-12124598D01*
X34505379Y-12124596D01*
X34640086Y-12074354D01*
X34640093Y-12074350D01*
X34755187Y-11988190D01*
X34755190Y-11988187D01*
X34841350Y-11873093D01*
X34841354Y-11873086D01*
X34891596Y-11738379D01*
X34891598Y-11738372D01*
X34897999Y-11678844D01*
X34898000Y-11678827D01*
X34898000Y-11141402D01*
X37797500Y-11141402D01*
X37807520Y-11224843D01*
X37807520Y-11224844D01*
X37859886Y-11357634D01*
X37946132Y-11471367D01*
X38052558Y-11552072D01*
X38059868Y-11557615D01*
X38192654Y-11609979D01*
X38276098Y-11620000D01*
X39119902Y-11620000D01*
X39203346Y-11609979D01*
X39336132Y-11557615D01*
X39449867Y-11471367D01*
X39536115Y-11357632D01*
X39580334Y-11245501D01*
X44501704Y-11245501D01*
X44501899Y-11247986D01*
X44547718Y-11405698D01*
X44631314Y-11547052D01*
X44631321Y-11547061D01*
X44670549Y-11586288D01*
X44704035Y-11647611D01*
X44700648Y-11702924D01*
X44702964Y-11703430D01*
X44701353Y-11710805D01*
X44698500Y-11741230D01*
X44698500Y-12149769D01*
X44701353Y-12180199D01*
X44701353Y-12180201D01*
X44746206Y-12308380D01*
X44746207Y-12308382D01*
X44826850Y-12417650D01*
X44936118Y-12498293D01*
X44978845Y-12513244D01*
X45064299Y-12543146D01*
X45094730Y-12546000D01*
X45094734Y-12546000D01*
X46153270Y-12546000D01*
X46183699Y-12543146D01*
X46183701Y-12543146D01*
X46247790Y-12520719D01*
X46311882Y-12498293D01*
X46421150Y-12417650D01*
X46501793Y-12308382D01*
X46542228Y-12192826D01*
X46546646Y-12180201D01*
X46546646Y-12180199D01*
X46549500Y-12149769D01*
X46549500Y-11741230D01*
X46546647Y-11710806D01*
X46545036Y-11703432D01*
X46547476Y-11702898D01*
X46544524Y-11645157D01*
X46577450Y-11586288D01*
X46616680Y-11547058D01*
X46616686Y-11547050D01*
X46700281Y-11405698D01*
X46746100Y-11247986D01*
X46746295Y-11245501D01*
X46746295Y-11245500D01*
X44501705Y-11245500D01*
X44501704Y-11245501D01*
X39580334Y-11245501D01*
X39588479Y-11224846D01*
X39598500Y-11141402D01*
X39598500Y-10622598D01*
X39597678Y-10615757D01*
X39592169Y-10569881D01*
X39588479Y-10539154D01*
X39536115Y-10406368D01*
X39536113Y-10406365D01*
X39449867Y-10292632D01*
X39387714Y-10245500D01*
X42319069Y-10245500D01*
X42321832Y-10280622D01*
X42321833Y-10280628D01*
X42366592Y-10434688D01*
X42366593Y-10434691D01*
X42448261Y-10572785D01*
X42448268Y-10572794D01*
X42561705Y-10686231D01*
X42561714Y-10686238D01*
X42699805Y-10767904D01*
X42839000Y-10808344D01*
X42839000Y-10245500D01*
X42319069Y-10245500D01*
X39387714Y-10245500D01*
X39336134Y-10206386D01*
X39336132Y-10206385D01*
X39203346Y-10154021D01*
X39203345Y-10154020D01*
X39203343Y-10154020D01*
X39119902Y-10144000D01*
X38276098Y-10144000D01*
X38192656Y-10154020D01*
X38192655Y-10154020D01*
X38059865Y-10206386D01*
X37946132Y-10292632D01*
X37859886Y-10406365D01*
X37807520Y-10539155D01*
X37807520Y-10539156D01*
X37797500Y-10622597D01*
X37797500Y-11141402D01*
X34898000Y-11141402D01*
X34898000Y-10481000D01*
X33948000Y-10481000D01*
X33448000Y-10481000D01*
X32498000Y-10481000D01*
X32199499Y-10481000D01*
X32199499Y-9981000D01*
X32498000Y-9981000D01*
X33448000Y-9981000D01*
X33448000Y-8331000D01*
X33948000Y-8331000D01*
X33948000Y-9981000D01*
X34898000Y-9981000D01*
X34898000Y-9357743D01*
X35598500Y-9357743D01*
X35613925Y-9509439D01*
X35674837Y-9703579D01*
X35674844Y-9703594D01*
X35773589Y-9881499D01*
X35773592Y-9881504D01*
X35906132Y-10035893D01*
X35906134Y-10035895D01*
X36067037Y-10160445D01*
X36067038Y-10160445D01*
X36067042Y-10160448D01*
X36249729Y-10250060D01*
X36446715Y-10301063D01*
X36649936Y-10311369D01*
X36851071Y-10280556D01*
X37041887Y-10209886D01*
X37214571Y-10102252D01*
X37362053Y-9962059D01*
X37478295Y-9795049D01*
X37558540Y-9608058D01*
X37599500Y-9408741D01*
X37599500Y-9224791D01*
X37619185Y-9157753D01*
X37671989Y-9111998D01*
X37741147Y-9102054D01*
X37804703Y-9131079D01*
X37838853Y-9179300D01*
X37859657Y-9232053D01*
X37859886Y-9232634D01*
X37946132Y-9346367D01*
X38059865Y-9432613D01*
X38059868Y-9432615D01*
X38192654Y-9484979D01*
X38276098Y-9495000D01*
X39119902Y-9495000D01*
X39203346Y-9484979D01*
X39336132Y-9432615D01*
X39449867Y-9346367D01*
X39536115Y-9232632D01*
X39588479Y-9099846D01*
X39598500Y-9016402D01*
X39598500Y-8497598D01*
X39588479Y-8414154D01*
X39536115Y-8281368D01*
X39523452Y-8264669D01*
X39449867Y-8167632D01*
X39336134Y-8081386D01*
X39336132Y-8081385D01*
X39203346Y-8029021D01*
X39203345Y-8029020D01*
X39203343Y-8029020D01*
X39119902Y-8019000D01*
X38276098Y-8019000D01*
X38192656Y-8029020D01*
X38192655Y-8029020D01*
X38059865Y-8081386D01*
X37946132Y-8167632D01*
X37859886Y-8281365D01*
X37859884Y-8281369D01*
X37838854Y-8334698D01*
X37795948Y-8389841D01*
X37730040Y-8413034D01*
X37662056Y-8396913D01*
X37613580Y-8346596D01*
X37599500Y-8289207D01*
X37599500Y-8156256D01*
X37584074Y-8004560D01*
X37523162Y-7810420D01*
X37523160Y-7810416D01*
X37523159Y-7810412D01*
X37501070Y-7770616D01*
X41128500Y-7770616D01*
X41143218Y-7905943D01*
X41143486Y-7908410D01*
X41201769Y-8081386D01*
X41202557Y-8083723D01*
X41202558Y-8083725D01*
X41243736Y-8152163D01*
X41297930Y-8242236D01*
X41303685Y-8248311D01*
X41425149Y-8376540D01*
X41461407Y-8401123D01*
X41578270Y-8480358D01*
X41578273Y-8480359D01*
X41578276Y-8480361D01*
X41750122Y-8548830D01*
X41750125Y-8548831D01*
X41932683Y-8578760D01*
X42117407Y-8568745D01*
X42117411Y-8568744D01*
X42295656Y-8519255D01*
X42301907Y-8516765D01*
X42302864Y-8519167D01*
X42359824Y-8507489D01*
X42424992Y-8532686D01*
X42466191Y-8589116D01*
X42473500Y-8631057D01*
X42473500Y-8788713D01*
X42479496Y-8829864D01*
X42483709Y-8858786D01*
X42483709Y-8858787D01*
X42483710Y-8858789D01*
X42483710Y-8858791D01*
X42536548Y-8966872D01*
X42536550Y-8966875D01*
X42621624Y-9051949D01*
X42629988Y-9057921D01*
X42628269Y-9060328D01*
X42667773Y-9096425D01*
X42685684Y-9163959D01*
X42664240Y-9230457D01*
X42624849Y-9267424D01*
X42561711Y-9304764D01*
X42561705Y-9304768D01*
X42448268Y-9418205D01*
X42448261Y-9418214D01*
X42366593Y-9556308D01*
X42366592Y-9556311D01*
X42321833Y-9710371D01*
X42321832Y-9710377D01*
X42319069Y-9745500D01*
X43215000Y-9745500D01*
X43282039Y-9765185D01*
X43327794Y-9817989D01*
X43339000Y-9869500D01*
X43339000Y-10808343D01*
X43478194Y-10767904D01*
X43616285Y-10686238D01*
X43616294Y-10686231D01*
X43686767Y-10615757D01*
X43748089Y-10582271D01*
X43815402Y-10586395D01*
X43892121Y-10613241D01*
X43892120Y-10613241D01*
X43896534Y-10613654D01*
X43921543Y-10616000D01*
X44296456Y-10615999D01*
X44325879Y-10613241D01*
X44337991Y-10609002D01*
X44407765Y-10605438D01*
X44468394Y-10640164D01*
X44500625Y-10702156D01*
X44500858Y-10736569D01*
X44502397Y-10736691D01*
X44501704Y-10745498D01*
X44501705Y-10745500D01*
X46746295Y-10745500D01*
X46746295Y-10745498D01*
X46746100Y-10743013D01*
X46700281Y-10585301D01*
X46616685Y-10443947D01*
X46616678Y-10443938D01*
X46577450Y-10404711D01*
X46543964Y-10343388D01*
X46547358Y-10288075D01*
X46545036Y-10287568D01*
X46546647Y-10280193D01*
X46549500Y-10249769D01*
X46549500Y-9841230D01*
X46546646Y-9810800D01*
X46546646Y-9810798D01*
X46509131Y-9703588D01*
X46501793Y-9682618D01*
X46421150Y-9573350D01*
X46311882Y-9492707D01*
X46311880Y-9492706D01*
X46183700Y-9447853D01*
X46153270Y-9445000D01*
X46153266Y-9445000D01*
X45094734Y-9445000D01*
X45094730Y-9445000D01*
X45064300Y-9447853D01*
X45064298Y-9447853D01*
X44936119Y-9492706D01*
X44936117Y-9492707D01*
X44826848Y-9573351D01*
X44826847Y-9573352D01*
X44818311Y-9584918D01*
X44762662Y-9627167D01*
X44693006Y-9632623D01*
X44631458Y-9599553D01*
X44618774Y-9584914D01*
X44555424Y-9499077D01*
X44473544Y-9438647D01*
X44449794Y-9421119D01*
X44449793Y-9421118D01*
X44449791Y-9421117D01*
X44441579Y-9416777D01*
X44442705Y-9414645D01*
X44396799Y-9381716D01*
X44371055Y-9316762D01*
X44384516Y-9248201D01*
X44419610Y-9206597D01*
X44488703Y-9154202D01*
X44491583Y-9151323D01*
X44494864Y-9149530D01*
X44495463Y-9149077D01*
X44495531Y-9149166D01*
X44552904Y-9117834D01*
X44579265Y-9114999D01*
X44673214Y-9114999D01*
X44743286Y-9104791D01*
X44744530Y-9104182D01*
X44746155Y-9103904D01*
X44752493Y-9101947D01*
X44752749Y-9102778D01*
X44813400Y-9092417D01*
X44853462Y-9104179D01*
X44854714Y-9104791D01*
X44924785Y-9115000D01*
X45173214Y-9114999D01*
X45243286Y-9104791D01*
X45244530Y-9104182D01*
X45246155Y-9103904D01*
X45252493Y-9101947D01*
X45252749Y-9102778D01*
X45313400Y-9092417D01*
X45353462Y-9104179D01*
X45354714Y-9104791D01*
X45424785Y-9115000D01*
X45673214Y-9114999D01*
X45743286Y-9104791D01*
X45744530Y-9104182D01*
X45746155Y-9103904D01*
X45752493Y-9101947D01*
X45752749Y-9102778D01*
X45813400Y-9092417D01*
X45853462Y-9104179D01*
X45854714Y-9104791D01*
X45924785Y-9115000D01*
X46173214Y-9114999D01*
X46243286Y-9104791D01*
X46244530Y-9104182D01*
X46246155Y-9103904D01*
X46252493Y-9101947D01*
X46252749Y-9102778D01*
X46313400Y-9092417D01*
X46353462Y-9104179D01*
X46354714Y-9104791D01*
X46424785Y-9115000D01*
X46673214Y-9114999D01*
X46743286Y-9104791D01*
X46744530Y-9104182D01*
X46746155Y-9103904D01*
X46752493Y-9101947D01*
X46752749Y-9102778D01*
X46813400Y-9092417D01*
X46853462Y-9104179D01*
X46854714Y-9104791D01*
X46924785Y-9115000D01*
X47173214Y-9114999D01*
X47243286Y-9104791D01*
X47244530Y-9104182D01*
X47246155Y-9103904D01*
X47252493Y-9101947D01*
X47252749Y-9102778D01*
X47313400Y-9092417D01*
X47353462Y-9104179D01*
X47354714Y-9104791D01*
X47424785Y-9115000D01*
X47673214Y-9114999D01*
X47743286Y-9104791D01*
X47744530Y-9104182D01*
X47746155Y-9103904D01*
X47752493Y-9101947D01*
X47752749Y-9102778D01*
X47813400Y-9092417D01*
X47853462Y-9104179D01*
X47854714Y-9104791D01*
X47924785Y-9115000D01*
X48018732Y-9114999D01*
X48085769Y-9134683D01*
X48106417Y-9151323D01*
X48109297Y-9154203D01*
X48198960Y-9222196D01*
X48240483Y-9278388D01*
X48245035Y-9348109D01*
X48211171Y-9409223D01*
X48149641Y-9442327D01*
X48124035Y-9445000D01*
X47444730Y-9445000D01*
X47414300Y-9447853D01*
X47414298Y-9447853D01*
X47286119Y-9492706D01*
X47286117Y-9492707D01*
X47176850Y-9573350D01*
X47096207Y-9682617D01*
X47096206Y-9682619D01*
X47051353Y-9810798D01*
X47051353Y-9810800D01*
X47048499Y-9841230D01*
X47048499Y-10249769D01*
X47051353Y-10280199D01*
X47051353Y-10280201D01*
X47094922Y-10404711D01*
X47096207Y-10408382D01*
X47123274Y-10445057D01*
X47124609Y-10446865D01*
X47148580Y-10512494D01*
X47133265Y-10580665D01*
X47124611Y-10594131D01*
X47096207Y-10632618D01*
X47096206Y-10632619D01*
X47051353Y-10760798D01*
X47051353Y-10760800D01*
X47048499Y-10791230D01*
X47048499Y-11199769D01*
X47051353Y-11230199D01*
X47051353Y-11230201D01*
X47095945Y-11357634D01*
X47096207Y-11358382D01*
X47119059Y-11389346D01*
X47124609Y-11396865D01*
X47148580Y-11462494D01*
X47133265Y-11530665D01*
X47124611Y-11544131D01*
X47096207Y-11582618D01*
X47096206Y-11582619D01*
X47051353Y-11710798D01*
X47051353Y-11710800D01*
X47048499Y-11741230D01*
X47048499Y-12149769D01*
X47051353Y-12180199D01*
X47051353Y-12180201D01*
X47096206Y-12308380D01*
X47096207Y-12308382D01*
X47176850Y-12417650D01*
X47286118Y-12498293D01*
X47328845Y-12513244D01*
X47414299Y-12543146D01*
X47444730Y-12546000D01*
X47444734Y-12546000D01*
X48503270Y-12546000D01*
X48533699Y-12543146D01*
X48533701Y-12543146D01*
X48597790Y-12520719D01*
X48661882Y-12498293D01*
X48771150Y-12417650D01*
X48851793Y-12308382D01*
X48892228Y-12192826D01*
X48896646Y-12180201D01*
X48896646Y-12180199D01*
X48899500Y-12149769D01*
X48899500Y-11741230D01*
X48896646Y-11710800D01*
X48896646Y-11710798D01*
X48851793Y-11582619D01*
X48851792Y-11582617D01*
X48823389Y-11544132D01*
X48799419Y-11478505D01*
X48814734Y-11410335D01*
X48823385Y-11396873D01*
X48851793Y-11358382D01*
X48879866Y-11278155D01*
X48896646Y-11230201D01*
X48896646Y-11230199D01*
X48899500Y-11199769D01*
X48899500Y-10791230D01*
X48896646Y-10760800D01*
X48896646Y-10760798D01*
X48861472Y-10660279D01*
X48851793Y-10632618D01*
X48823389Y-10594132D01*
X48799419Y-10528505D01*
X48814734Y-10460335D01*
X48823385Y-10446873D01*
X48851793Y-10408382D01*
X48876797Y-10336925D01*
X48896646Y-10280201D01*
X48896646Y-10280199D01*
X48899500Y-10249769D01*
X48899500Y-9841230D01*
X48896646Y-9810800D01*
X48896646Y-9810798D01*
X48859131Y-9703588D01*
X48851793Y-9682618D01*
X48771150Y-9573350D01*
X48661882Y-9492707D01*
X48661880Y-9492706D01*
X48582044Y-9464770D01*
X48525268Y-9424048D01*
X48499521Y-9359095D01*
X48498999Y-9347729D01*
X48498999Y-8797867D01*
X48499162Y-8793377D01*
X48499498Y-8788727D01*
X48499500Y-8788715D01*
X48499499Y-7963498D01*
X48519183Y-7896461D01*
X48571987Y-7850706D01*
X48623499Y-7839500D01*
X48799500Y-7839500D01*
X48866539Y-7859185D01*
X48912294Y-7911989D01*
X48923500Y-7963500D01*
X48923500Y-8788713D01*
X48924180Y-8793377D01*
X48933709Y-8858786D01*
X48933710Y-8858788D01*
X48986400Y-8966567D01*
X48999000Y-9021028D01*
X48999000Y-9314499D01*
X49032837Y-9314499D01*
X49122832Y-9303693D01*
X49266043Y-9247218D01*
X49388702Y-9154203D01*
X49391583Y-9151323D01*
X49394865Y-9149530D01*
X49395462Y-9149078D01*
X49395529Y-9149167D01*
X49452904Y-9117834D01*
X49479263Y-9114999D01*
X49750657Y-9114999D01*
X49817696Y-9134684D01*
X49863451Y-9187488D01*
X49873395Y-9256646D01*
X49844370Y-9320202D01*
X49824291Y-9338769D01*
X49742576Y-9399076D01*
X49664618Y-9504707D01*
X49621258Y-9628618D01*
X49621258Y-9628620D01*
X49618500Y-9658038D01*
X49618500Y-10132953D01*
X49621258Y-10162374D01*
X49621260Y-10162384D01*
X49662634Y-10280622D01*
X49664619Y-10286294D01*
X49675519Y-10301063D01*
X49742576Y-10391923D01*
X49773249Y-10414560D01*
X49848206Y-10469881D01*
X49889511Y-10484334D01*
X49972119Y-10513241D01*
X49979796Y-10513960D01*
X50001543Y-10516000D01*
X50376456Y-10515999D01*
X50405879Y-10513241D01*
X50482597Y-10486395D01*
X50552372Y-10482833D01*
X50611232Y-10515756D01*
X50681709Y-10586234D01*
X50681714Y-10586238D01*
X50819805Y-10667904D01*
X50959000Y-10708344D01*
X50959000Y-10708343D01*
X51459000Y-10708343D01*
X51598194Y-10667904D01*
X51736285Y-10586238D01*
X51736294Y-10586231D01*
X51849731Y-10472794D01*
X51849738Y-10472785D01*
X51931406Y-10334691D01*
X51931407Y-10334688D01*
X51976166Y-10180629D01*
X51976167Y-10180623D01*
X51979070Y-10143728D01*
X52003952Y-10078439D01*
X52060182Y-10036967D01*
X52117471Y-10030339D01*
X52177098Y-10037500D01*
X52177099Y-10037500D01*
X53020902Y-10037500D01*
X53104346Y-10027479D01*
X53237132Y-9975115D01*
X53350867Y-9888867D01*
X53437115Y-9775132D01*
X53489479Y-9642346D01*
X53499500Y-9558902D01*
X53499500Y-9040098D01*
X53489479Y-8956654D01*
X53437115Y-8823868D01*
X53436255Y-8822734D01*
X53350867Y-8710132D01*
X53237134Y-8623886D01*
X53237132Y-8623885D01*
X53104346Y-8571521D01*
X53104345Y-8571520D01*
X53104343Y-8571520D01*
X53020902Y-8561500D01*
X52177098Y-8561500D01*
X52093656Y-8571520D01*
X52093655Y-8571520D01*
X51960865Y-8623886D01*
X51847132Y-8710132D01*
X51760886Y-8823865D01*
X51745044Y-8864038D01*
X51710892Y-8950643D01*
X51708522Y-8956652D01*
X51708520Y-8956656D01*
X51702906Y-9003406D01*
X51675368Y-9067620D01*
X51617485Y-9106752D01*
X51547634Y-9108378D01*
X51545196Y-9107696D01*
X51459001Y-9082653D01*
X51459000Y-9082654D01*
X51459000Y-10708343D01*
X50959000Y-10708343D01*
X50959000Y-9082654D01*
X50958998Y-9082653D01*
X50819811Y-9123091D01*
X50819808Y-9123093D01*
X50681714Y-9204761D01*
X50681709Y-9204765D01*
X50611231Y-9275243D01*
X50549907Y-9308727D01*
X50482596Y-9304603D01*
X50405878Y-9277758D01*
X50376461Y-9275000D01*
X50051041Y-9275000D01*
X49984002Y-9255315D01*
X49938247Y-9202511D01*
X49928303Y-9133353D01*
X49957328Y-9069797D01*
X49970667Y-9057657D01*
X50061449Y-8966875D01*
X50061451Y-8966872D01*
X50104874Y-8878048D01*
X50114291Y-8858786D01*
X50124500Y-8788715D01*
X50124499Y-8625881D01*
X50144183Y-8558843D01*
X50196987Y-8513088D01*
X50266145Y-8503144D01*
X50294392Y-8510687D01*
X50390125Y-8548831D01*
X50572683Y-8578760D01*
X50757407Y-8568745D01*
X50757411Y-8568744D01*
X50935656Y-8519255D01*
X50935656Y-8519254D01*
X50935659Y-8519254D01*
X51099104Y-8432600D01*
X51240100Y-8312837D01*
X51352054Y-8165564D01*
X51429732Y-7997667D01*
X51469500Y-7816997D01*
X51469500Y-7563681D01*
X51489185Y-7496642D01*
X51541989Y-7450887D01*
X51611147Y-7440943D01*
X51674703Y-7469968D01*
X51708853Y-7518188D01*
X51757917Y-7642605D01*
X51760886Y-7650134D01*
X51847132Y-7763867D01*
X51928408Y-7825500D01*
X51960868Y-7850115D01*
X52093654Y-7902479D01*
X52177098Y-7912500D01*
X53020902Y-7912500D01*
X53104346Y-7902479D01*
X53237132Y-7850115D01*
X53350867Y-7763867D01*
X53437115Y-7650132D01*
X53476602Y-7550000D01*
X55894318Y-7550000D01*
X55898924Y-7584991D01*
X55898969Y-7585327D01*
X55899500Y-7593429D01*
X55899500Y-8581517D01*
X55910006Y-8647849D01*
X55914354Y-8675304D01*
X55971950Y-8788342D01*
X55971952Y-8788344D01*
X55971954Y-8788347D01*
X56061652Y-8878045D01*
X56061654Y-8878046D01*
X56061658Y-8878050D01*
X56174694Y-8935645D01*
X56174698Y-8935647D01*
X56268475Y-8950499D01*
X56268481Y-8950500D01*
X58131518Y-8950499D01*
X58225304Y-8935646D01*
X58338342Y-8878050D01*
X58428050Y-8788342D01*
X58485646Y-8675304D01*
X58485646Y-8675302D01*
X58485647Y-8675301D01*
X58500499Y-8581524D01*
X58500500Y-8581519D01*
X58500499Y-8343430D01*
X58501030Y-8335328D01*
X58501974Y-8328157D01*
X58505682Y-8300000D01*
X58501029Y-8264668D01*
X58500499Y-8256567D01*
X58500499Y-7593434D01*
X58501030Y-7585333D01*
X58502226Y-7576248D01*
X58505682Y-7550000D01*
X58501027Y-7514648D01*
X58500499Y-7506579D01*
X58500499Y-7268482D01*
X58485646Y-7174696D01*
X58428050Y-7061658D01*
X58428046Y-7061654D01*
X58428045Y-7061652D01*
X58338347Y-6971954D01*
X58338344Y-6971952D01*
X58338342Y-6971950D01*
X58259506Y-6931781D01*
X58225301Y-6914352D01*
X58131524Y-6899500D01*
X56268482Y-6899500D01*
X56187519Y-6912323D01*
X56174696Y-6914354D01*
X56061658Y-6971950D01*
X56061657Y-6971950D01*
X56061657Y-6971951D01*
X56061652Y-6971954D01*
X55971954Y-7061652D01*
X55971951Y-7061657D01*
X55971950Y-7061658D01*
X55960210Y-7084699D01*
X55914352Y-7174698D01*
X55899500Y-7268475D01*
X55899500Y-7506570D01*
X55898969Y-7514667D01*
X55894318Y-7550000D01*
X53476602Y-7550000D01*
X53489479Y-7517346D01*
X53499500Y-7433902D01*
X53499500Y-6915098D01*
X53489479Y-6831654D01*
X53437115Y-6698868D01*
X53437113Y-6698865D01*
X53350867Y-6585132D01*
X53237134Y-6498886D01*
X53237132Y-6498885D01*
X53104346Y-6446521D01*
X53104345Y-6446520D01*
X53104343Y-6446520D01*
X53020902Y-6436500D01*
X52177098Y-6436500D01*
X52093656Y-6446520D01*
X52093655Y-6446520D01*
X51960865Y-6498886D01*
X51847132Y-6585132D01*
X51760886Y-6698865D01*
X51760883Y-6698871D01*
X51708854Y-6830808D01*
X51665949Y-6885952D01*
X51600041Y-6909145D01*
X51532056Y-6893024D01*
X51483580Y-6842707D01*
X51469500Y-6785318D01*
X51469500Y-6578393D01*
X51469500Y-6578387D01*
X51454514Y-6440590D01*
X51395444Y-6265279D01*
X51300070Y-6106764D01*
X51220855Y-6023138D01*
X51172850Y-5972459D01*
X51090165Y-5916398D01*
X51019730Y-5868642D01*
X51019727Y-5868640D01*
X51019723Y-5868638D01*
X50847877Y-5800169D01*
X50774851Y-5788197D01*
X50665317Y-5770240D01*
X50665314Y-5770240D01*
X50480593Y-5780255D01*
X50480588Y-5780255D01*
X50302343Y-5829744D01*
X50302337Y-5829747D01*
X50138897Y-5916398D01*
X49997900Y-6036162D01*
X49885946Y-6183436D01*
X49851564Y-6257750D01*
X49805549Y-6310328D01*
X49738413Y-6329681D01*
X49671472Y-6309666D01*
X49640651Y-6281171D01*
X49602304Y-6231196D01*
X49481250Y-6138308D01*
X49481249Y-6138307D01*
X49481247Y-6138306D01*
X49340280Y-6079916D01*
X49340278Y-6079915D01*
X49226981Y-6065000D01*
X49226980Y-6065000D01*
X49151020Y-6065000D01*
X49151019Y-6065000D01*
X49037721Y-6079915D01*
X49037719Y-6079916D01*
X48896752Y-6138306D01*
X48775696Y-6231196D01*
X48682806Y-6352252D01*
X48624416Y-6493219D01*
X48624415Y-6493221D01*
X48604500Y-6644498D01*
X48604500Y-6644502D01*
X48615007Y-6724316D01*
X48604241Y-6793351D01*
X48557861Y-6845606D01*
X48492072Y-6864500D01*
X48465164Y-6864500D01*
X48375167Y-6875306D01*
X48231956Y-6931781D01*
X48109293Y-7024800D01*
X48106407Y-7027686D01*
X48103123Y-7029478D01*
X48102539Y-7029922D01*
X48102472Y-7029834D01*
X48045082Y-7061168D01*
X48018732Y-7064000D01*
X47924786Y-7064000D01*
X47854712Y-7074209D01*
X47853454Y-7074825D01*
X47851815Y-7075104D01*
X47845513Y-7077052D01*
X47845257Y-7076223D01*
X47784580Y-7086580D01*
X47744542Y-7074823D01*
X47743287Y-7074209D01*
X47733275Y-7072750D01*
X47673215Y-7064000D01*
X47673209Y-7064000D01*
X47424786Y-7064000D01*
X47354712Y-7074209D01*
X47353454Y-7074825D01*
X47351815Y-7075104D01*
X47345513Y-7077052D01*
X47345257Y-7076223D01*
X47284580Y-7086580D01*
X47244542Y-7074823D01*
X47243287Y-7074209D01*
X47233275Y-7072750D01*
X47173215Y-7064000D01*
X47173209Y-7064000D01*
X46924786Y-7064000D01*
X46854712Y-7074209D01*
X46853454Y-7074825D01*
X46851815Y-7075104D01*
X46845513Y-7077052D01*
X46845257Y-7076223D01*
X46784580Y-7086580D01*
X46744542Y-7074823D01*
X46743287Y-7074209D01*
X46733275Y-7072750D01*
X46673215Y-7064000D01*
X46673209Y-7064000D01*
X46424786Y-7064000D01*
X46354712Y-7074209D01*
X46353454Y-7074825D01*
X46351815Y-7075104D01*
X46345513Y-7077052D01*
X46345257Y-7076223D01*
X46284580Y-7086580D01*
X46244542Y-7074823D01*
X46243287Y-7074209D01*
X46233275Y-7072750D01*
X46173215Y-7064000D01*
X46173209Y-7064000D01*
X45924786Y-7064000D01*
X45854712Y-7074209D01*
X45853454Y-7074825D01*
X45851815Y-7075104D01*
X45845513Y-7077052D01*
X45845257Y-7076223D01*
X45784580Y-7086580D01*
X45744542Y-7074823D01*
X45743287Y-7074209D01*
X45733275Y-7072750D01*
X45673215Y-7064000D01*
X45673209Y-7064000D01*
X45424786Y-7064000D01*
X45354712Y-7074209D01*
X45353454Y-7074825D01*
X45351815Y-7075104D01*
X45345513Y-7077052D01*
X45345257Y-7076223D01*
X45284580Y-7086580D01*
X45244542Y-7074823D01*
X45243287Y-7074209D01*
X45233275Y-7072750D01*
X45173215Y-7064000D01*
X45173209Y-7064000D01*
X44924786Y-7064000D01*
X44854712Y-7074209D01*
X44853454Y-7074825D01*
X44851815Y-7075104D01*
X44845513Y-7077052D01*
X44845257Y-7076223D01*
X44784580Y-7086580D01*
X44744542Y-7074823D01*
X44743287Y-7074209D01*
X44733275Y-7072750D01*
X44673215Y-7064000D01*
X44673209Y-7064000D01*
X44579268Y-7064000D01*
X44512229Y-7044315D01*
X44491582Y-7027676D01*
X44488702Y-7024796D01*
X44366043Y-6931781D01*
X44222833Y-6875306D01*
X44132837Y-6864500D01*
X44105931Y-6864500D01*
X44038892Y-6844815D01*
X43993137Y-6792011D01*
X43982992Y-6724314D01*
X43986343Y-6698865D01*
X43993500Y-6644500D01*
X43984853Y-6578822D01*
X43975245Y-6505836D01*
X43973584Y-6493220D01*
X43915192Y-6352250D01*
X43822304Y-6231196D01*
X43701250Y-6138308D01*
X43701249Y-6138307D01*
X43701247Y-6138306D01*
X43560280Y-6079916D01*
X43560278Y-6079915D01*
X43446981Y-6065000D01*
X43446980Y-6065000D01*
X43371020Y-6065000D01*
X43371019Y-6065000D01*
X43257721Y-6079915D01*
X43257719Y-6079916D01*
X43116752Y-6138306D01*
X42995695Y-6231197D01*
X42960335Y-6277279D01*
X42903906Y-6318481D01*
X42834160Y-6322635D01*
X42773240Y-6288422D01*
X42755710Y-6265720D01*
X42703833Y-6179500D01*
X42660070Y-6106764D01*
X42580855Y-6023138D01*
X42532850Y-5972459D01*
X42450165Y-5916398D01*
X42379730Y-5868642D01*
X42379727Y-5868640D01*
X42379723Y-5868638D01*
X42207877Y-5800169D01*
X42134851Y-5788197D01*
X42025317Y-5770240D01*
X42025314Y-5770240D01*
X41840593Y-5780255D01*
X41840588Y-5780255D01*
X41662343Y-5829744D01*
X41662337Y-5829747D01*
X41498897Y-5916398D01*
X41357900Y-6036162D01*
X41245946Y-6183436D01*
X41168268Y-6351332D01*
X41168266Y-6351336D01*
X41128500Y-6532002D01*
X41128500Y-7770616D01*
X37501070Y-7770616D01*
X37424409Y-7632498D01*
X37424408Y-7632497D01*
X37424407Y-7632495D01*
X37291867Y-7478106D01*
X37291865Y-7478104D01*
X37130962Y-7353554D01*
X37130959Y-7353553D01*
X37130958Y-7353552D01*
X36948271Y-7263940D01*
X36751285Y-7212937D01*
X36751287Y-7212937D01*
X36615804Y-7206066D01*
X36548064Y-7202631D01*
X36548063Y-7202631D01*
X36548061Y-7202631D01*
X36346936Y-7233442D01*
X36346924Y-7233445D01*
X36156118Y-7304111D01*
X36156111Y-7304115D01*
X35983432Y-7411745D01*
X35983427Y-7411749D01*
X35835949Y-7551938D01*
X35835947Y-7551940D01*
X35835947Y-7551941D01*
X35822570Y-7571161D01*
X35719705Y-7718949D01*
X35639459Y-7905943D01*
X35598500Y-8105258D01*
X35598500Y-9357743D01*
X34898000Y-9357743D01*
X34898000Y-8783172D01*
X34897999Y-8783155D01*
X34891598Y-8723627D01*
X34891596Y-8723620D01*
X34841354Y-8588913D01*
X34841350Y-8588906D01*
X34755190Y-8473812D01*
X34755187Y-8473809D01*
X34640093Y-8387649D01*
X34640086Y-8387645D01*
X34505379Y-8337403D01*
X34505372Y-8337401D01*
X34445844Y-8331000D01*
X33948000Y-8331000D01*
X33448000Y-8331000D01*
X32950155Y-8331000D01*
X32890627Y-8337401D01*
X32890620Y-8337403D01*
X32755913Y-8387645D01*
X32755906Y-8387649D01*
X32640812Y-8473809D01*
X32640809Y-8473812D01*
X32554649Y-8588906D01*
X32554645Y-8588913D01*
X32504403Y-8723620D01*
X32504401Y-8723627D01*
X32498000Y-8783155D01*
X32498000Y-9981000D01*
X32199499Y-9981000D01*
X32199499Y-8786136D01*
X32199234Y-8783848D01*
X32196586Y-8761012D01*
X32196585Y-8761010D01*
X32196585Y-8761009D01*
X32151206Y-8658235D01*
X32071765Y-8578794D01*
X32055291Y-8571520D01*
X31968992Y-8533415D01*
X31943865Y-8530500D01*
X30454143Y-8530500D01*
X30454117Y-8530502D01*
X30429012Y-8533413D01*
X30429008Y-8533415D01*
X30326235Y-8578793D01*
X30326234Y-8578794D01*
X30285681Y-8619348D01*
X30224358Y-8652833D01*
X30154666Y-8647849D01*
X30110319Y-8619348D01*
X30069765Y-8578794D01*
X29966992Y-8533415D01*
X29941865Y-8530500D01*
X28452143Y-8530500D01*
X28452117Y-8530502D01*
X28427012Y-8533413D01*
X28427008Y-8533415D01*
X28324235Y-8578793D01*
X28244794Y-8658234D01*
X28199415Y-8761006D01*
X28199415Y-8761008D01*
X28196500Y-8786131D01*
X28196500Y-11675856D01*
X27698500Y-11675856D01*
X27698499Y-8786136D01*
X27698234Y-8783848D01*
X27695586Y-8761012D01*
X27695585Y-8761010D01*
X27695585Y-8761009D01*
X27650206Y-8658235D01*
X27570765Y-8578794D01*
X27554291Y-8571520D01*
X27467992Y-8533415D01*
X27442865Y-8530500D01*
X25953143Y-8530500D01*
X25953117Y-8530502D01*
X25928012Y-8533413D01*
X25928008Y-8533415D01*
X25825235Y-8578793D01*
X25745794Y-8658234D01*
X25700415Y-8761006D01*
X25700415Y-8761008D01*
X25697500Y-8786131D01*
X25697500Y-11675856D01*
X21488134Y-11675856D01*
X21540867Y-11635867D01*
X21627115Y-11522132D01*
X21679479Y-11389346D01*
X21689500Y-11305902D01*
X21689500Y-10787098D01*
X21687325Y-10768991D01*
X21683229Y-10734882D01*
X21679479Y-10703654D01*
X21627115Y-10570868D01*
X21603067Y-10539156D01*
X21540867Y-10457132D01*
X21427134Y-10370886D01*
X21427132Y-10370885D01*
X21294346Y-10318521D01*
X21294345Y-10318520D01*
X21294343Y-10318520D01*
X21210902Y-10308500D01*
X20367098Y-10308500D01*
X20283656Y-10318520D01*
X20283655Y-10318520D01*
X20150865Y-10370886D01*
X20037132Y-10457132D01*
X19950886Y-10570865D01*
X19898520Y-10703655D01*
X19898520Y-10703656D01*
X19888500Y-10787097D01*
X19888500Y-11305902D01*
X16989000Y-11305902D01*
X16989000Y-10645500D01*
X16039000Y-10645500D01*
X15539000Y-10645500D01*
X14589000Y-10645500D01*
X14290499Y-10645500D01*
X14290499Y-10145500D01*
X14589000Y-10145500D01*
X15539000Y-10145500D01*
X15539000Y-8495500D01*
X16039000Y-8495500D01*
X16039000Y-10145500D01*
X16989000Y-10145500D01*
X16989000Y-9522243D01*
X17689500Y-9522243D01*
X17704925Y-9673939D01*
X17765837Y-9868079D01*
X17765844Y-9868094D01*
X17864589Y-10045999D01*
X17864592Y-10046004D01*
X17997132Y-10200393D01*
X17997134Y-10200395D01*
X18158037Y-10324945D01*
X18158038Y-10324945D01*
X18158042Y-10324948D01*
X18340729Y-10414560D01*
X18537715Y-10465563D01*
X18740936Y-10475869D01*
X18942071Y-10445056D01*
X19132887Y-10374386D01*
X19305571Y-10266752D01*
X19453053Y-10126559D01*
X19569295Y-9959549D01*
X19649540Y-9772558D01*
X19690500Y-9573241D01*
X19690500Y-9389292D01*
X19710185Y-9322253D01*
X19762989Y-9276498D01*
X19832147Y-9266554D01*
X19895703Y-9295579D01*
X19929853Y-9343800D01*
X19948975Y-9392289D01*
X19950886Y-9397134D01*
X20037132Y-9510867D01*
X20134910Y-9585014D01*
X20150868Y-9597115D01*
X20283654Y-9649479D01*
X20367098Y-9659500D01*
X21210902Y-9659500D01*
X21294346Y-9649479D01*
X21427132Y-9597115D01*
X21540867Y-9510867D01*
X21627115Y-9397132D01*
X21642648Y-9357743D01*
X22796500Y-9357743D01*
X22811925Y-9509439D01*
X22872837Y-9703579D01*
X22872844Y-9703594D01*
X22971589Y-9881499D01*
X22971592Y-9881504D01*
X23104132Y-10035893D01*
X23104134Y-10035895D01*
X23265037Y-10160445D01*
X23265038Y-10160445D01*
X23265042Y-10160448D01*
X23447729Y-10250060D01*
X23644715Y-10301063D01*
X23847936Y-10311369D01*
X24049071Y-10280556D01*
X24239887Y-10209886D01*
X24412571Y-10102252D01*
X24560053Y-9962059D01*
X24676295Y-9795049D01*
X24756540Y-9608058D01*
X24797500Y-9408741D01*
X24797500Y-8156258D01*
X24788774Y-8070443D01*
X24782074Y-8004560D01*
X24721162Y-7810420D01*
X24721160Y-7810416D01*
X24721159Y-7810412D01*
X24622409Y-7632498D01*
X24622408Y-7632497D01*
X24622407Y-7632495D01*
X24489867Y-7478106D01*
X24489865Y-7478104D01*
X24328962Y-7353554D01*
X24328959Y-7353553D01*
X24328958Y-7353552D01*
X24146271Y-7263940D01*
X23949285Y-7212937D01*
X23949287Y-7212937D01*
X23813804Y-7206066D01*
X23746064Y-7202631D01*
X23746063Y-7202631D01*
X23746061Y-7202631D01*
X23544936Y-7233442D01*
X23544924Y-7233445D01*
X23354118Y-7304111D01*
X23354111Y-7304115D01*
X23181432Y-7411745D01*
X23181427Y-7411749D01*
X23033949Y-7551938D01*
X23033947Y-7551940D01*
X23033947Y-7551941D01*
X23020570Y-7571161D01*
X22917705Y-7718949D01*
X22837459Y-7905943D01*
X22796500Y-8105258D01*
X22796500Y-9357743D01*
X21642648Y-9357743D01*
X21679479Y-9264346D01*
X21689500Y-9180902D01*
X21689500Y-8662098D01*
X21679479Y-8578654D01*
X21627115Y-8445868D01*
X21618872Y-8434998D01*
X21540867Y-8332132D01*
X21427134Y-8245886D01*
X21427132Y-8245885D01*
X21294346Y-8193521D01*
X21294345Y-8193520D01*
X21294343Y-8193520D01*
X21210902Y-8183500D01*
X20367098Y-8183500D01*
X20283656Y-8193520D01*
X20283655Y-8193520D01*
X20150865Y-8245886D01*
X20037132Y-8332132D01*
X19950886Y-8445865D01*
X19950884Y-8445869D01*
X19929854Y-8499198D01*
X19886948Y-8554341D01*
X19821040Y-8577534D01*
X19753056Y-8561413D01*
X19704580Y-8511096D01*
X19690500Y-8453707D01*
X19690500Y-8320756D01*
X19675074Y-8169060D01*
X19614162Y-7974920D01*
X19614160Y-7974916D01*
X19614159Y-7974912D01*
X19515409Y-7796998D01*
X19515408Y-7796997D01*
X19515407Y-7796995D01*
X19382867Y-7642606D01*
X19382865Y-7642604D01*
X19221962Y-7518054D01*
X19221959Y-7518053D01*
X19221958Y-7518052D01*
X19039271Y-7428440D01*
X18842285Y-7377437D01*
X18842287Y-7377437D01*
X18706804Y-7370566D01*
X18639064Y-7367131D01*
X18639063Y-7367131D01*
X18639061Y-7367131D01*
X18437936Y-7397942D01*
X18437924Y-7397945D01*
X18247118Y-7468611D01*
X18247111Y-7468615D01*
X18074432Y-7576245D01*
X18074427Y-7576249D01*
X17926949Y-7716438D01*
X17926947Y-7716440D01*
X17926947Y-7716441D01*
X17925200Y-7718951D01*
X17810705Y-7883449D01*
X17730459Y-8070443D01*
X17689500Y-8269758D01*
X17689500Y-9522243D01*
X16989000Y-9522243D01*
X16989000Y-8947672D01*
X16988999Y-8947655D01*
X16982598Y-8888127D01*
X16982596Y-8888120D01*
X16932354Y-8753413D01*
X16932350Y-8753406D01*
X16846190Y-8638312D01*
X16846187Y-8638309D01*
X16731093Y-8552149D01*
X16731086Y-8552145D01*
X16596379Y-8501903D01*
X16596372Y-8501901D01*
X16536844Y-8495500D01*
X16039000Y-8495500D01*
X15539000Y-8495500D01*
X15041155Y-8495500D01*
X14981627Y-8501901D01*
X14981620Y-8501903D01*
X14846913Y-8552145D01*
X14846906Y-8552149D01*
X14731812Y-8638309D01*
X14731809Y-8638312D01*
X14645649Y-8753406D01*
X14645645Y-8753413D01*
X14595403Y-8888120D01*
X14595401Y-8888127D01*
X14589000Y-8947655D01*
X14589000Y-10145500D01*
X14290499Y-10145500D01*
X14290499Y-8950636D01*
X14290427Y-8950012D01*
X14287586Y-8925512D01*
X14287585Y-8925510D01*
X14287585Y-8925509D01*
X14242206Y-8822735D01*
X14162765Y-8743294D01*
X14140038Y-8733259D01*
X14059992Y-8697915D01*
X14034865Y-8695000D01*
X12545143Y-8695000D01*
X12545117Y-8695002D01*
X12520012Y-8697913D01*
X12520008Y-8697915D01*
X12417235Y-8743293D01*
X12417234Y-8743294D01*
X12376681Y-8783848D01*
X12315358Y-8817333D01*
X12245666Y-8812349D01*
X12201319Y-8783848D01*
X12160765Y-8743294D01*
X12057992Y-8697915D01*
X12032865Y-8695000D01*
X10543143Y-8695000D01*
X10543117Y-8695002D01*
X10518012Y-8697913D01*
X10518008Y-8697915D01*
X10415235Y-8743293D01*
X10335794Y-8822734D01*
X10290415Y-8925506D01*
X10290415Y-8925508D01*
X10287500Y-8950631D01*
X10287500Y-11840356D01*
X9789500Y-11840356D01*
X9789499Y-8950636D01*
X9789427Y-8950012D01*
X9786586Y-8925512D01*
X9786585Y-8925510D01*
X9786585Y-8925509D01*
X9741206Y-8822735D01*
X9661765Y-8743294D01*
X9639038Y-8733259D01*
X9558992Y-8697915D01*
X9533865Y-8695000D01*
X8044143Y-8695000D01*
X8044117Y-8695002D01*
X8019012Y-8697913D01*
X8019008Y-8697915D01*
X7916235Y-8743293D01*
X7836794Y-8822734D01*
X7791415Y-8925506D01*
X7791415Y-8925508D01*
X7788500Y-8950631D01*
X7788500Y-11840356D01*
X500500Y-11840356D01*
X500500Y-9522243D01*
X4887500Y-9522243D01*
X4902925Y-9673939D01*
X4963837Y-9868079D01*
X4963844Y-9868094D01*
X5062589Y-10045999D01*
X5062592Y-10046004D01*
X5195132Y-10200393D01*
X5195134Y-10200395D01*
X5356037Y-10324945D01*
X5356038Y-10324945D01*
X5356042Y-10324948D01*
X5538729Y-10414560D01*
X5735715Y-10465563D01*
X5938936Y-10475869D01*
X6140071Y-10445056D01*
X6330887Y-10374386D01*
X6503571Y-10266752D01*
X6651053Y-10126559D01*
X6767295Y-9959549D01*
X6847540Y-9772558D01*
X6888500Y-9573241D01*
X6888500Y-8320758D01*
X6888430Y-8320064D01*
X6873074Y-8169060D01*
X6812162Y-7974920D01*
X6812160Y-7974916D01*
X6812159Y-7974912D01*
X6713409Y-7796998D01*
X6713408Y-7796997D01*
X6713407Y-7796995D01*
X6580867Y-7642606D01*
X6580865Y-7642604D01*
X6419962Y-7518054D01*
X6419959Y-7518053D01*
X6419958Y-7518052D01*
X6237271Y-7428440D01*
X6040285Y-7377437D01*
X6040287Y-7377437D01*
X5904804Y-7370566D01*
X5837064Y-7367131D01*
X5837063Y-7367131D01*
X5837061Y-7367131D01*
X5635936Y-7397942D01*
X5635924Y-7397945D01*
X5445118Y-7468611D01*
X5445111Y-7468615D01*
X5272432Y-7576245D01*
X5272427Y-7576249D01*
X5124949Y-7716438D01*
X5124947Y-7716440D01*
X5124947Y-7716441D01*
X5123200Y-7718951D01*
X5008705Y-7883449D01*
X4928459Y-8070443D01*
X4887500Y-8269758D01*
X4887500Y-9522243D01*
X500500Y-9522243D01*
X500500Y-3684181D01*
X520185Y-3617142D01*
X572989Y-3571387D01*
X642147Y-3561443D01*
X702754Y-3587992D01*
X814754Y-3679111D01*
X814756Y-3679112D01*
X814757Y-3679113D01*
X1054433Y-3824863D01*
X1210866Y-3892811D01*
X1311725Y-3936620D01*
X1581839Y-4012303D01*
X1826159Y-4045884D01*
X1859741Y-4050500D01*
X1859742Y-4050500D01*
X2140259Y-4050500D01*
X2170219Y-4046381D01*
X2418161Y-4012303D01*
X2688275Y-3936620D01*
X2945568Y-3824862D01*
X3185246Y-3679111D01*
X3317834Y-3571243D01*
X4887500Y-3571243D01*
X4902925Y-3722939D01*
X4963837Y-3917079D01*
X4963844Y-3917094D01*
X5062589Y-4094999D01*
X5062592Y-4095004D01*
X5195132Y-4249393D01*
X5195134Y-4249395D01*
X5356037Y-4373945D01*
X5356038Y-4373945D01*
X5356042Y-4373948D01*
X5538729Y-4463560D01*
X5735715Y-4514563D01*
X5938936Y-4524869D01*
X6140071Y-4494056D01*
X6330887Y-4423386D01*
X6503571Y-4315752D01*
X6651053Y-4175559D01*
X6767295Y-4008549D01*
X6847540Y-3821558D01*
X6888500Y-3622241D01*
X6888500Y-3520243D01*
X17689500Y-3520243D01*
X17704925Y-3671939D01*
X17765837Y-3866079D01*
X17765844Y-3866094D01*
X17864589Y-4043999D01*
X17864592Y-4044004D01*
X17997132Y-4198393D01*
X17997134Y-4198395D01*
X18158037Y-4322945D01*
X18158038Y-4322945D01*
X18158042Y-4322948D01*
X18340729Y-4412560D01*
X18537715Y-4463563D01*
X18740936Y-4473869D01*
X18942071Y-4443056D01*
X19132887Y-4372386D01*
X19305571Y-4264752D01*
X19453053Y-4124559D01*
X19569295Y-3957549D01*
X19649540Y-3770558D01*
X19690500Y-3571241D01*
X19690500Y-3406743D01*
X22796500Y-3406743D01*
X22811925Y-3558439D01*
X22872837Y-3752579D01*
X22872844Y-3752594D01*
X22971589Y-3930499D01*
X22971592Y-3930504D01*
X23104132Y-4084893D01*
X23104134Y-4084895D01*
X23265037Y-4209445D01*
X23265038Y-4209445D01*
X23265042Y-4209448D01*
X23447729Y-4299060D01*
X23644715Y-4350063D01*
X23847936Y-4360369D01*
X24049071Y-4329556D01*
X24239887Y-4258886D01*
X24412571Y-4151252D01*
X24560053Y-4011059D01*
X24676295Y-3844049D01*
X24756540Y-3657058D01*
X24797500Y-3457741D01*
X24797500Y-3355743D01*
X35598500Y-3355743D01*
X35613925Y-3507439D01*
X35674837Y-3701579D01*
X35674844Y-3701594D01*
X35773589Y-3879499D01*
X35773592Y-3879504D01*
X35906132Y-4033893D01*
X35906134Y-4033895D01*
X36067037Y-4158445D01*
X36067038Y-4158445D01*
X36067042Y-4158448D01*
X36249729Y-4248060D01*
X36446715Y-4299063D01*
X36649936Y-4309369D01*
X36851071Y-4278556D01*
X37041887Y-4207886D01*
X37214571Y-4100252D01*
X37362053Y-3960059D01*
X37478295Y-3793049D01*
X37558540Y-3606058D01*
X37599500Y-3406741D01*
X37599500Y-3242707D01*
X41028500Y-3242707D01*
X41043154Y-3386822D01*
X41101022Y-3571259D01*
X41101029Y-3571274D01*
X41194839Y-3740288D01*
X41194842Y-3740293D01*
X41320758Y-3886966D01*
X41320759Y-3886968D01*
X41473314Y-4005054D01*
X41473627Y-4005296D01*
X41647184Y-4090430D01*
X41647188Y-4090431D01*
X41647186Y-4090431D01*
X41834317Y-4138883D01*
X41834320Y-4138883D01*
X41834326Y-4138885D01*
X42027390Y-4148676D01*
X42218474Y-4119403D01*
X42399753Y-4052264D01*
X42563807Y-3950009D01*
X42703919Y-3816823D01*
X42814353Y-3658158D01*
X42890587Y-3480512D01*
X42929500Y-3291156D01*
X42929500Y-3242707D01*
X49668500Y-3242707D01*
X49683154Y-3386822D01*
X49741022Y-3571259D01*
X49741029Y-3571274D01*
X49834839Y-3740288D01*
X49834842Y-3740293D01*
X49960758Y-3886966D01*
X49960759Y-3886968D01*
X50113314Y-4005054D01*
X50113627Y-4005296D01*
X50287184Y-4090430D01*
X50287188Y-4090431D01*
X50287186Y-4090431D01*
X50474317Y-4138883D01*
X50474320Y-4138883D01*
X50474326Y-4138885D01*
X50667390Y-4148676D01*
X50858474Y-4119403D01*
X51039753Y-4052264D01*
X51203807Y-3950009D01*
X51217261Y-3937220D01*
X59500001Y-3937220D01*
X59506102Y-4004379D01*
X59506104Y-4004386D01*
X59554266Y-4158944D01*
X59554269Y-4158952D01*
X59638019Y-4297493D01*
X59663180Y-4322653D01*
X59696666Y-4383976D01*
X59699500Y-4410336D01*
X59699500Y-5139614D01*
X59702458Y-5171161D01*
X59702458Y-5171165D01*
X59702459Y-5171166D01*
X59747715Y-5300500D01*
X59750705Y-5309043D01*
X59754268Y-5378822D01*
X59750705Y-5390954D01*
X59702460Y-5528826D01*
X59702458Y-5528838D01*
X59699499Y-5560385D01*
X59699499Y-6339614D01*
X59702458Y-6371161D01*
X59702460Y-6371170D01*
X59724843Y-6435135D01*
X59748312Y-6502206D01*
X59750705Y-6509043D01*
X59754268Y-6578822D01*
X59750705Y-6590954D01*
X59702460Y-6728826D01*
X59702458Y-6728838D01*
X59699499Y-6760385D01*
X59699499Y-7539614D01*
X59702458Y-7571161D01*
X59702460Y-7571170D01*
X59717206Y-7613310D01*
X59748972Y-7704091D01*
X59765831Y-7726934D01*
X59832598Y-7817401D01*
X59862542Y-7839500D01*
X59945909Y-7901028D01*
X60078834Y-7947541D01*
X60094612Y-7949020D01*
X60110386Y-7950500D01*
X60110390Y-7950500D01*
X61689614Y-7950500D01*
X61703634Y-7949184D01*
X61721166Y-7947541D01*
X61854091Y-7901028D01*
X61967401Y-7817401D01*
X62051028Y-7704091D01*
X62097541Y-7571166D01*
X62100500Y-7539610D01*
X62100500Y-7323183D01*
X62120185Y-7256145D01*
X62172989Y-7210390D01*
X62242147Y-7200446D01*
X62305703Y-7229471D01*
X62324265Y-7249544D01*
X62377850Y-7322150D01*
X62487118Y-7402793D01*
X62512710Y-7411748D01*
X62615299Y-7447646D01*
X62645730Y-7450500D01*
X62645734Y-7450500D01*
X63054270Y-7450500D01*
X63084699Y-7447646D01*
X63084701Y-7447646D01*
X63148790Y-7425219D01*
X63212882Y-7402793D01*
X63251367Y-7374389D01*
X63316995Y-7350419D01*
X63385165Y-7365734D01*
X63398626Y-7374385D01*
X63437118Y-7402793D01*
X63462710Y-7411748D01*
X63565299Y-7447646D01*
X63595730Y-7450500D01*
X63595734Y-7450500D01*
X64004270Y-7450500D01*
X64034699Y-7447646D01*
X64034701Y-7447646D01*
X64098790Y-7425219D01*
X64162882Y-7402793D01*
X64201367Y-7374389D01*
X64266995Y-7350419D01*
X64335165Y-7365734D01*
X64348626Y-7374385D01*
X64387118Y-7402793D01*
X64412710Y-7411748D01*
X64515299Y-7447646D01*
X64545730Y-7450500D01*
X64545734Y-7450500D01*
X64954270Y-7450500D01*
X64984699Y-7447646D01*
X64984701Y-7447646D01*
X65048790Y-7425219D01*
X65112882Y-7402793D01*
X65222150Y-7322150D01*
X65302793Y-7212882D01*
X65326192Y-7146011D01*
X65347646Y-7084701D01*
X65347646Y-7084699D01*
X65350500Y-7054269D01*
X65350500Y-7044856D01*
X66099500Y-7044856D01*
X66099502Y-7044882D01*
X66102413Y-7069983D01*
X66102415Y-7069991D01*
X66147793Y-7172764D01*
X66147794Y-7172765D01*
X66227235Y-7252206D01*
X66330009Y-7297585D01*
X66355135Y-7300500D01*
X67844864Y-7300499D01*
X67844879Y-7300497D01*
X67844882Y-7300497D01*
X67869987Y-7297586D01*
X67869988Y-7297585D01*
X67869991Y-7297585D01*
X67972765Y-7252206D01*
X68052206Y-7172765D01*
X68086565Y-7094947D01*
X68131651Y-7041571D01*
X68198438Y-7021043D01*
X68265720Y-7039881D01*
X68312136Y-7092104D01*
X68313434Y-7094947D01*
X68347793Y-7172764D01*
X68347794Y-7172765D01*
X68427235Y-7252206D01*
X68530009Y-7297585D01*
X68555135Y-7300500D01*
X69460779Y-7300499D01*
X69527817Y-7320183D01*
X69573572Y-7372987D01*
X69583516Y-7442146D01*
X69560549Y-7498132D01*
X69506147Y-7571844D01*
X69462291Y-7697173D01*
X69462289Y-7697185D01*
X69459500Y-7726929D01*
X69459500Y-8173070D01*
X69462289Y-8202814D01*
X69462291Y-8202826D01*
X69503316Y-8320064D01*
X69506148Y-8328157D01*
X69585001Y-8434999D01*
X69691843Y-8513852D01*
X69707284Y-8519255D01*
X69817173Y-8557708D01*
X69817177Y-8557708D01*
X69817181Y-8557710D01*
X69832057Y-8559105D01*
X69846930Y-8560500D01*
X69846934Y-8560500D01*
X70233070Y-8560500D01*
X70246289Y-8559260D01*
X70262819Y-8557710D01*
X70262823Y-8557708D01*
X70262826Y-8557708D01*
X70311836Y-8540557D01*
X70388157Y-8513852D01*
X70446368Y-8470890D01*
X70511995Y-8446920D01*
X70580165Y-8462235D01*
X70593625Y-8470885D01*
X70651843Y-8513852D01*
X70667284Y-8519255D01*
X70777173Y-8557708D01*
X70777177Y-8557708D01*
X70777181Y-8557710D01*
X70792057Y-8559105D01*
X70806930Y-8560500D01*
X70806934Y-8560500D01*
X71193070Y-8560500D01*
X71206289Y-8559260D01*
X71222819Y-8557710D01*
X71222823Y-8557708D01*
X71222826Y-8557708D01*
X71271836Y-8540557D01*
X71348157Y-8513852D01*
X71401868Y-8474211D01*
X71467494Y-8450241D01*
X71535665Y-8465556D01*
X71584733Y-8515296D01*
X71599500Y-8573982D01*
X71599500Y-8829856D01*
X71599502Y-8829882D01*
X71602413Y-8854987D01*
X71604863Y-8863989D01*
X71602864Y-8864532D01*
X71610347Y-8921698D01*
X71604691Y-8940962D01*
X71604864Y-8941009D01*
X71602415Y-8950009D01*
X71599500Y-8975131D01*
X71599500Y-9464856D01*
X71599502Y-9464882D01*
X71602413Y-9489985D01*
X71604863Y-9498987D01*
X71602865Y-9499530D01*
X71610346Y-9556705D01*
X71604691Y-9575961D01*
X71604864Y-9576008D01*
X71602415Y-9585008D01*
X71599500Y-9610131D01*
X71599500Y-10099856D01*
X71599502Y-10099882D01*
X71602413Y-10124985D01*
X71604863Y-10133987D01*
X71602865Y-10134530D01*
X71610346Y-10191705D01*
X71604691Y-10210961D01*
X71604864Y-10211008D01*
X71602415Y-10220008D01*
X71599500Y-10245131D01*
X71599500Y-10734856D01*
X71599502Y-10734882D01*
X71602413Y-10759987D01*
X71604863Y-10768989D01*
X71602864Y-10769532D01*
X71610347Y-10826698D01*
X71604691Y-10845962D01*
X71604864Y-10846009D01*
X71602415Y-10855009D01*
X71599500Y-10880131D01*
X71599500Y-11369856D01*
X71599502Y-11369882D01*
X71602413Y-11394987D01*
X71604863Y-11403989D01*
X71602864Y-11404532D01*
X71610347Y-11461698D01*
X71604691Y-11480962D01*
X71604864Y-11481009D01*
X71602415Y-11490009D01*
X71599500Y-11515131D01*
X71599500Y-12004856D01*
X71599502Y-12004882D01*
X71602413Y-12029985D01*
X71604863Y-12038987D01*
X71602865Y-12039530D01*
X71610346Y-12096705D01*
X71604691Y-12115961D01*
X71604864Y-12116008D01*
X71602415Y-12125008D01*
X71599500Y-12150131D01*
X71599500Y-12639856D01*
X71599502Y-12639882D01*
X71602413Y-12664985D01*
X71604863Y-12673987D01*
X71602865Y-12674530D01*
X71610346Y-12731705D01*
X71604691Y-12750961D01*
X71604864Y-12751008D01*
X71602415Y-12760008D01*
X71599500Y-12785131D01*
X71599500Y-13128876D01*
X71579815Y-13195915D01*
X71527011Y-13241670D01*
X71457853Y-13251614D01*
X71401867Y-13228647D01*
X71378157Y-13211148D01*
X71378155Y-13211147D01*
X71252826Y-13167291D01*
X71252814Y-13167289D01*
X71223070Y-13164500D01*
X71223066Y-13164500D01*
X70776934Y-13164500D01*
X70776930Y-13164500D01*
X70747185Y-13167289D01*
X70747173Y-13167291D01*
X70621844Y-13211147D01*
X70515001Y-13290001D01*
X70436147Y-13396844D01*
X70392291Y-13522173D01*
X70392289Y-13522185D01*
X70389500Y-13551929D01*
X70389500Y-13938070D01*
X70392289Y-13967814D01*
X70392291Y-13967826D01*
X70436147Y-14093157D01*
X70436148Y-14093158D01*
X70479108Y-14151367D01*
X70503079Y-14216996D01*
X70487763Y-14285166D01*
X70479108Y-14298633D01*
X70436148Y-14356841D01*
X70436147Y-14356842D01*
X70392291Y-14482173D01*
X70392289Y-14482185D01*
X70389500Y-14511929D01*
X70389500Y-14898070D01*
X70392289Y-14927814D01*
X70392291Y-14927826D01*
X70432985Y-15044118D01*
X70436148Y-15053157D01*
X70515001Y-15159999D01*
X70621843Y-15238852D01*
X70645986Y-15247300D01*
X70747173Y-15282708D01*
X70747177Y-15282708D01*
X70747181Y-15282710D01*
X70762057Y-15284105D01*
X70776930Y-15285500D01*
X70776934Y-15285500D01*
X71223070Y-15285500D01*
X71236289Y-15284260D01*
X71252819Y-15282710D01*
X71252823Y-15282708D01*
X71252826Y-15282708D01*
X71354014Y-15247300D01*
X71378157Y-15238852D01*
X71434029Y-15197615D01*
X71499656Y-15173645D01*
X71567826Y-15188960D01*
X71616895Y-15238699D01*
X71621096Y-15247300D01*
X71647793Y-15307764D01*
X71647794Y-15307765D01*
X71727235Y-15387206D01*
X71830009Y-15432585D01*
X71855135Y-15435500D01*
X73144864Y-15435499D01*
X73144879Y-15435497D01*
X73144882Y-15435497D01*
X73169987Y-15432586D01*
X73169988Y-15432585D01*
X73169991Y-15432585D01*
X73272765Y-15387206D01*
X73352206Y-15307765D01*
X73397585Y-15204991D01*
X73400500Y-15179865D01*
X73400499Y-14690136D01*
X73400497Y-14690117D01*
X73397586Y-14665014D01*
X73397584Y-14665008D01*
X73397584Y-14665006D01*
X73395136Y-14656008D01*
X73397136Y-14655463D01*
X73389651Y-14598310D01*
X73395310Y-14579035D01*
X73395137Y-14578988D01*
X73397584Y-14569993D01*
X73397583Y-14569993D01*
X73397585Y-14569991D01*
X73400500Y-14544865D01*
X73400499Y-14055136D01*
X73400497Y-14055117D01*
X73397586Y-14030012D01*
X73395137Y-14021011D01*
X73397136Y-14020466D01*
X73389651Y-13963311D01*
X73395310Y-13944038D01*
X73395136Y-13943991D01*
X73397582Y-13934996D01*
X73397585Y-13934991D01*
X73400500Y-13909865D01*
X73400499Y-13420136D01*
X73397798Y-13396843D01*
X73397586Y-13395012D01*
X73395137Y-13386011D01*
X73397136Y-13385466D01*
X73389651Y-13328311D01*
X73395310Y-13309038D01*
X73395136Y-13308991D01*
X73397582Y-13299996D01*
X73397585Y-13299991D01*
X73400500Y-13274865D01*
X73400499Y-12785136D01*
X73400497Y-12785117D01*
X73397586Y-12760014D01*
X73397584Y-12760008D01*
X73397584Y-12760006D01*
X73395136Y-12751008D01*
X73397136Y-12750463D01*
X73389651Y-12693310D01*
X73395310Y-12674035D01*
X73395137Y-12673988D01*
X73397584Y-12664993D01*
X73397583Y-12664993D01*
X73397585Y-12664991D01*
X73400500Y-12639865D01*
X73400499Y-12150136D01*
X73400497Y-12150117D01*
X73397586Y-12125014D01*
X73397584Y-12125008D01*
X73397584Y-12125006D01*
X73395136Y-12116008D01*
X73397136Y-12115463D01*
X73389651Y-12058310D01*
X73395310Y-12039035D01*
X73395137Y-12038988D01*
X73397584Y-12029993D01*
X73397583Y-12029993D01*
X73397585Y-12029991D01*
X73400500Y-12004865D01*
X73400499Y-11515136D01*
X73400497Y-11515117D01*
X73397586Y-11490012D01*
X73395137Y-11481011D01*
X73397136Y-11480466D01*
X73389651Y-11423311D01*
X73395310Y-11404038D01*
X73395136Y-11403991D01*
X73397582Y-11394996D01*
X73397585Y-11394991D01*
X73400500Y-11369865D01*
X73400499Y-10880136D01*
X73399382Y-10870500D01*
X73397586Y-10855012D01*
X73395137Y-10846011D01*
X73397136Y-10845466D01*
X73389651Y-10788311D01*
X73395310Y-10769038D01*
X73395136Y-10768991D01*
X73397582Y-10759996D01*
X73397585Y-10759991D01*
X73400500Y-10734865D01*
X73400499Y-10245136D01*
X73399087Y-10232957D01*
X73397586Y-10220014D01*
X73397584Y-10220008D01*
X73397584Y-10220006D01*
X73395136Y-10211008D01*
X73397136Y-10210463D01*
X73389651Y-10153310D01*
X73395310Y-10134035D01*
X73395137Y-10133988D01*
X73397584Y-10124993D01*
X73397583Y-10124993D01*
X73397585Y-10124991D01*
X73400500Y-10099865D01*
X73400499Y-9610136D01*
X73400258Y-9608056D01*
X73397586Y-9585014D01*
X73397584Y-9585008D01*
X73397584Y-9585006D01*
X73395136Y-9576008D01*
X73397136Y-9575463D01*
X73389651Y-9518310D01*
X73395310Y-9499035D01*
X73395137Y-9498988D01*
X73397584Y-9489993D01*
X73397583Y-9489993D01*
X73397585Y-9489991D01*
X73400500Y-9464865D01*
X73400499Y-8975136D01*
X73399541Y-8966872D01*
X73397586Y-8950012D01*
X73395137Y-8941011D01*
X73397136Y-8940466D01*
X73389651Y-8883311D01*
X73395310Y-8864038D01*
X73395136Y-8863991D01*
X73397582Y-8854996D01*
X73397585Y-8854991D01*
X73400500Y-8829865D01*
X73400499Y-8340136D01*
X73400182Y-8337401D01*
X73397586Y-8315012D01*
X73395137Y-8306011D01*
X73397136Y-8305466D01*
X73389651Y-8248311D01*
X73395310Y-8229038D01*
X73395136Y-8228991D01*
X73397582Y-8219996D01*
X73397585Y-8219991D01*
X73400500Y-8194865D01*
X73400499Y-7705136D01*
X73400378Y-7704090D01*
X73397586Y-7680014D01*
X73397584Y-7680008D01*
X73397584Y-7680006D01*
X73395136Y-7671008D01*
X73397136Y-7670463D01*
X73389651Y-7613310D01*
X73395310Y-7594035D01*
X73395137Y-7593988D01*
X73397584Y-7584993D01*
X73397583Y-7584993D01*
X73397585Y-7584991D01*
X73400500Y-7559865D01*
X73400499Y-7070136D01*
X73400437Y-7069598D01*
X73397586Y-7045014D01*
X73397584Y-7045008D01*
X73397584Y-7045006D01*
X73395136Y-7036008D01*
X73397136Y-7035463D01*
X73389651Y-6978310D01*
X73395310Y-6959035D01*
X73395137Y-6958988D01*
X73397584Y-6949993D01*
X73397583Y-6949993D01*
X73397585Y-6949991D01*
X73400500Y-6924865D01*
X73400499Y-6435136D01*
X73399869Y-6429705D01*
X73397586Y-6410012D01*
X73397585Y-6410010D01*
X73397585Y-6410009D01*
X73352206Y-6307235D01*
X73272765Y-6227794D01*
X73250939Y-6218157D01*
X73169992Y-6182415D01*
X73144865Y-6179500D01*
X71855143Y-6179500D01*
X71855117Y-6179502D01*
X71830012Y-6182413D01*
X71830011Y-6182414D01*
X71782611Y-6203343D01*
X71713333Y-6212414D01*
X71650148Y-6182590D01*
X71613118Y-6123340D01*
X71609068Y-6078331D01*
X71610500Y-6063066D01*
X71610500Y-5676934D01*
X71610119Y-5672876D01*
X71607710Y-5647185D01*
X71607710Y-5647181D01*
X71607708Y-5647177D01*
X71607708Y-5647173D01*
X71572429Y-5546354D01*
X71563852Y-5521843D01*
X71484999Y-5415001D01*
X71378157Y-5336148D01*
X71378155Y-5336147D01*
X71252826Y-5292291D01*
X71252814Y-5292289D01*
X71223070Y-5289500D01*
X71223066Y-5289500D01*
X70776934Y-5289500D01*
X70776930Y-5289500D01*
X70747185Y-5292289D01*
X70747173Y-5292291D01*
X70621844Y-5336147D01*
X70515000Y-5415001D01*
X70512176Y-5417826D01*
X70508325Y-5419928D01*
X70507525Y-5420519D01*
X70507444Y-5420409D01*
X70450851Y-5451308D01*
X70381159Y-5446319D01*
X70325228Y-5404445D01*
X70300814Y-5338979D01*
X70300499Y-5330167D01*
X70300499Y-4055136D01*
X70300216Y-4052697D01*
X70297586Y-4030012D01*
X70297585Y-4030010D01*
X70297585Y-4030009D01*
X70261406Y-3948070D01*
X72989500Y-3948070D01*
X72992289Y-3977814D01*
X72992291Y-3977826D01*
X73035131Y-4100252D01*
X73036148Y-4103157D01*
X73115001Y-4209999D01*
X73221843Y-4288852D01*
X73251024Y-4299063D01*
X73347173Y-4332708D01*
X73347177Y-4332708D01*
X73347181Y-4332710D01*
X73362057Y-4334105D01*
X73376930Y-4335500D01*
X73376934Y-4335500D01*
X73823070Y-4335500D01*
X73836289Y-4334260D01*
X73852819Y-4332710D01*
X73852823Y-4332708D01*
X73852826Y-4332708D01*
X73919526Y-4309368D01*
X73978157Y-4288852D01*
X74040203Y-4243059D01*
X74105831Y-4219089D01*
X74174001Y-4234404D01*
X74223070Y-4284144D01*
X74237457Y-4352516D01*
X74230877Y-4383785D01*
X74202354Y-4465298D01*
X74202353Y-4465300D01*
X74199500Y-4495730D01*
X74199500Y-4904269D01*
X74202353Y-4934699D01*
X74202353Y-4934701D01*
X74247206Y-5062880D01*
X74247207Y-5062882D01*
X74327850Y-5172150D01*
X74437118Y-5252793D01*
X74479845Y-5267744D01*
X74565299Y-5297646D01*
X74595730Y-5300500D01*
X74595734Y-5300500D01*
X75729270Y-5300500D01*
X75759699Y-5297646D01*
X75759701Y-5297646D01*
X75823790Y-5275219D01*
X75887882Y-5252793D01*
X75997150Y-5172150D01*
X76077793Y-5062882D01*
X76100219Y-4998790D01*
X76122646Y-4934701D01*
X76122646Y-4934699D01*
X76125500Y-4904269D01*
X76474500Y-4904269D01*
X76477353Y-4934699D01*
X76477353Y-4934701D01*
X76522206Y-5062880D01*
X76522207Y-5062882D01*
X76602850Y-5172150D01*
X76712118Y-5252793D01*
X76754845Y-5267744D01*
X76840299Y-5297646D01*
X76870730Y-5300500D01*
X76870734Y-5300500D01*
X78004270Y-5300500D01*
X78034699Y-5297646D01*
X78034701Y-5297646D01*
X78098790Y-5275219D01*
X78162882Y-5252793D01*
X78272150Y-5172150D01*
X78352793Y-5062882D01*
X78375219Y-4998790D01*
X78397646Y-4934701D01*
X78397646Y-4934699D01*
X78400500Y-4904269D01*
X78400500Y-4560523D01*
X78420185Y-4493484D01*
X78472989Y-4447729D01*
X78542147Y-4437785D01*
X78605703Y-4466810D01*
X78612181Y-4472842D01*
X78631654Y-4492315D01*
X78758580Y-4570604D01*
X78805304Y-4622552D01*
X78816527Y-4691515D01*
X78792750Y-4750454D01*
X78731204Y-4832668D01*
X78731202Y-4832671D01*
X78680910Y-4967513D01*
X78680909Y-4967517D01*
X78674500Y-5027127D01*
X78674500Y-5027134D01*
X78674500Y-5027135D01*
X78674500Y-5672870D01*
X78674501Y-5672876D01*
X78680908Y-5732483D01*
X78731202Y-5867328D01*
X78731206Y-5867335D01*
X78817452Y-5982544D01*
X78817455Y-5982547D01*
X78932664Y-6068793D01*
X78932669Y-6068796D01*
X78972944Y-6083817D01*
X79028876Y-6125686D01*
X79053295Y-6191150D01*
X79038445Y-6259423D01*
X78989040Y-6308830D01*
X78972946Y-6316180D01*
X78932674Y-6331201D01*
X78932664Y-6331206D01*
X78817456Y-6417452D01*
X78817455Y-6417453D01*
X78817454Y-6417454D01*
X78808283Y-6429705D01*
X78752348Y-6471574D01*
X78682656Y-6476556D01*
X78621334Y-6443069D01*
X78595584Y-6405477D01*
X78552206Y-6307235D01*
X78472765Y-6227794D01*
X78369992Y-6182415D01*
X78344865Y-6179500D01*
X77055143Y-6179500D01*
X77055117Y-6179502D01*
X77030012Y-6182413D01*
X77030008Y-6182415D01*
X76927235Y-6227793D01*
X76847794Y-6307234D01*
X76802415Y-6410006D01*
X76802415Y-6410008D01*
X76799500Y-6435131D01*
X76799500Y-6924856D01*
X76799502Y-6924882D01*
X76802413Y-6949985D01*
X76804863Y-6958987D01*
X76802865Y-6959530D01*
X76810346Y-7016705D01*
X76804691Y-7035961D01*
X76804864Y-7036008D01*
X76802415Y-7045008D01*
X76799500Y-7070131D01*
X76799500Y-7559856D01*
X76799502Y-7559882D01*
X76802413Y-7584985D01*
X76804863Y-7593987D01*
X76802865Y-7594530D01*
X76810346Y-7651705D01*
X76804691Y-7670961D01*
X76804864Y-7671008D01*
X76802415Y-7680008D01*
X76799500Y-7705131D01*
X76799500Y-8194856D01*
X76799502Y-8194882D01*
X76802413Y-8219987D01*
X76804863Y-8228989D01*
X76802864Y-8229532D01*
X76810347Y-8286698D01*
X76804691Y-8305962D01*
X76804864Y-8306009D01*
X76802415Y-8315009D01*
X76799500Y-8340131D01*
X76799500Y-8829856D01*
X76799502Y-8829882D01*
X76802413Y-8854987D01*
X76804863Y-8863989D01*
X76802864Y-8864532D01*
X76810347Y-8921698D01*
X76804691Y-8940962D01*
X76804864Y-8941009D01*
X76802415Y-8950009D01*
X76799500Y-8975131D01*
X76799500Y-9464856D01*
X76799502Y-9464882D01*
X76802413Y-9489985D01*
X76804863Y-9498987D01*
X76802865Y-9499530D01*
X76810346Y-9556705D01*
X76804691Y-9575961D01*
X76804864Y-9576008D01*
X76802415Y-9585008D01*
X76799500Y-9610131D01*
X76799500Y-10099856D01*
X76799502Y-10099882D01*
X76802413Y-10124985D01*
X76804863Y-10133987D01*
X76802865Y-10134530D01*
X76810346Y-10191705D01*
X76804691Y-10210961D01*
X76804864Y-10211008D01*
X76802415Y-10220008D01*
X76799500Y-10245131D01*
X76799500Y-10734856D01*
X76799502Y-10734882D01*
X76802413Y-10759987D01*
X76804863Y-10768989D01*
X76802864Y-10769532D01*
X76810347Y-10826698D01*
X76804691Y-10845962D01*
X76804864Y-10846009D01*
X76802415Y-10855009D01*
X76799500Y-10880131D01*
X76799500Y-11369856D01*
X76799502Y-11369882D01*
X76802413Y-11394987D01*
X76804863Y-11403989D01*
X76802864Y-11404532D01*
X76810347Y-11461698D01*
X76804691Y-11480962D01*
X76804864Y-11481009D01*
X76802415Y-11490009D01*
X76799500Y-11515131D01*
X76799500Y-12004856D01*
X76799502Y-12004882D01*
X76802413Y-12029985D01*
X76804863Y-12038987D01*
X76802865Y-12039530D01*
X76810346Y-12096705D01*
X76804691Y-12115961D01*
X76804864Y-12116008D01*
X76802415Y-12125008D01*
X76799500Y-12150131D01*
X76799500Y-12639856D01*
X76799502Y-12639882D01*
X76802413Y-12664985D01*
X76804863Y-12673987D01*
X76802865Y-12674530D01*
X76810346Y-12731705D01*
X76804691Y-12750961D01*
X76804864Y-12751008D01*
X76802415Y-12760008D01*
X76799500Y-12785131D01*
X76799500Y-13274856D01*
X76799502Y-13274882D01*
X76802413Y-13299987D01*
X76804863Y-13308989D01*
X76802864Y-13309532D01*
X76810347Y-13366698D01*
X76804691Y-13385962D01*
X76804864Y-13386009D01*
X76802415Y-13395009D01*
X76799500Y-13420131D01*
X76799500Y-13909856D01*
X76799502Y-13909882D01*
X76802413Y-13934987D01*
X76804863Y-13943989D01*
X76802864Y-13944532D01*
X76810347Y-14001698D01*
X76804691Y-14020962D01*
X76804864Y-14021009D01*
X76802415Y-14030009D01*
X76799500Y-14055131D01*
X76799500Y-14544856D01*
X76799502Y-14544882D01*
X76802413Y-14569985D01*
X76804863Y-14578987D01*
X76802865Y-14579530D01*
X76810346Y-14636705D01*
X76804691Y-14655961D01*
X76804864Y-14656008D01*
X76802415Y-14665008D01*
X76799500Y-14690131D01*
X76799500Y-15179856D01*
X76799502Y-15179882D01*
X76802413Y-15204987D01*
X76802415Y-15204991D01*
X76847793Y-15307764D01*
X76847794Y-15307765D01*
X76927235Y-15387206D01*
X77030009Y-15432585D01*
X77055135Y-15435500D01*
X78344864Y-15435499D01*
X78344879Y-15435497D01*
X78344882Y-15435497D01*
X78369987Y-15432586D01*
X78369988Y-15432585D01*
X78369991Y-15432585D01*
X78472765Y-15387206D01*
X78552206Y-15307765D01*
X78597585Y-15204991D01*
X78600500Y-15179865D01*
X78600499Y-14690136D01*
X78600497Y-14690117D01*
X78597586Y-14665014D01*
X78597584Y-14665008D01*
X78597584Y-14665006D01*
X78595136Y-14656008D01*
X78597136Y-14655463D01*
X78589651Y-14598310D01*
X78595310Y-14579035D01*
X78595137Y-14578988D01*
X78597584Y-14569993D01*
X78597583Y-14569993D01*
X78597585Y-14569991D01*
X78600500Y-14544865D01*
X78600499Y-14055136D01*
X78600497Y-14055117D01*
X78597586Y-14030012D01*
X78595137Y-14021011D01*
X78597136Y-14020466D01*
X78589651Y-13963311D01*
X78595310Y-13944038D01*
X78595136Y-13943991D01*
X78597582Y-13934996D01*
X78597585Y-13934991D01*
X78600500Y-13909865D01*
X78600499Y-13546122D01*
X78620183Y-13479084D01*
X78672987Y-13433329D01*
X78742146Y-13423385D01*
X78798132Y-13446352D01*
X78821843Y-13463852D01*
X78859969Y-13477193D01*
X78947173Y-13507708D01*
X78947177Y-13507708D01*
X78947181Y-13507710D01*
X78962057Y-13509105D01*
X78976930Y-13510500D01*
X78976934Y-13510500D01*
X79423070Y-13510500D01*
X79436289Y-13509260D01*
X79452819Y-13507710D01*
X79452823Y-13507708D01*
X79452826Y-13507708D01*
X79501836Y-13490557D01*
X79578157Y-13463852D01*
X79684999Y-13384999D01*
X79763852Y-13278157D01*
X79802646Y-13167291D01*
X79807708Y-13152826D01*
X79807708Y-13152823D01*
X79807710Y-13152819D01*
X79810500Y-13123066D01*
X79810500Y-12736934D01*
X79807710Y-12707181D01*
X79807708Y-12707177D01*
X79807708Y-12707173D01*
X79763852Y-12581842D01*
X79763851Y-12581841D01*
X79720891Y-12523632D01*
X79696920Y-12458004D01*
X79712236Y-12389833D01*
X79720883Y-12376377D01*
X79763852Y-12318157D01*
X79768712Y-12304269D01*
X87537000Y-12304269D01*
X87539853Y-12334699D01*
X87539853Y-12334701D01*
X87571451Y-12424999D01*
X87584707Y-12462882D01*
X87665350Y-12572150D01*
X87774618Y-12652793D01*
X87817345Y-12667744D01*
X87902799Y-12697646D01*
X87933230Y-12700500D01*
X87933234Y-12700500D01*
X88991770Y-12700500D01*
X89022199Y-12697646D01*
X89022201Y-12697646D01*
X89089813Y-12673987D01*
X89150382Y-12652793D01*
X89259650Y-12572150D01*
X89340293Y-12462882D01*
X89370567Y-12376364D01*
X89385146Y-12334701D01*
X89385146Y-12334699D01*
X89388000Y-12304269D01*
X89388000Y-11895730D01*
X89385146Y-11865300D01*
X89385146Y-11865298D01*
X89351506Y-11769163D01*
X89340293Y-11737118D01*
X89311889Y-11698632D01*
X89287919Y-11633005D01*
X89303234Y-11564835D01*
X89311885Y-11551373D01*
X89340293Y-11512882D01*
X89376176Y-11410335D01*
X89379792Y-11400001D01*
X89690204Y-11400001D01*
X89690399Y-11402486D01*
X89736218Y-11560198D01*
X89819814Y-11701552D01*
X89819821Y-11701561D01*
X89859049Y-11740788D01*
X89892535Y-11802111D01*
X89889148Y-11857424D01*
X89891464Y-11857930D01*
X89889853Y-11865304D01*
X89887000Y-11895730D01*
X89887000Y-12304269D01*
X89889853Y-12334699D01*
X89889853Y-12334701D01*
X89921451Y-12424999D01*
X89934707Y-12462882D01*
X90015350Y-12572150D01*
X90124618Y-12652793D01*
X90167345Y-12667744D01*
X90252799Y-12697646D01*
X90283230Y-12700500D01*
X90283234Y-12700500D01*
X91341770Y-12700500D01*
X91372199Y-12697646D01*
X91372201Y-12697646D01*
X91439813Y-12673987D01*
X91500382Y-12652793D01*
X91609650Y-12572150D01*
X91690293Y-12462882D01*
X91720567Y-12376364D01*
X91735146Y-12334701D01*
X91735146Y-12334699D01*
X91738000Y-12304269D01*
X91738000Y-11895730D01*
X91735147Y-11865304D01*
X91733536Y-11857932D01*
X91735976Y-11857398D01*
X91733024Y-11799657D01*
X91765950Y-11740788D01*
X91805180Y-11701558D01*
X91805186Y-11701550D01*
X91888781Y-11560198D01*
X91934600Y-11402486D01*
X91934795Y-11400001D01*
X91934795Y-11400000D01*
X89690205Y-11400000D01*
X89690204Y-11400001D01*
X89379792Y-11400001D01*
X89385146Y-11384701D01*
X89385146Y-11384699D01*
X89388000Y-11354269D01*
X89388000Y-10945730D01*
X89385146Y-10915300D01*
X89385146Y-10915298D01*
X89379792Y-10899998D01*
X89690204Y-10899998D01*
X89690205Y-10900000D01*
X91846717Y-10900000D01*
X91913756Y-10919685D01*
X91936162Y-10940689D01*
X91937003Y-10939849D01*
X91943574Y-10946419D01*
X91943577Y-10946423D01*
X92049206Y-11024381D01*
X92090511Y-11038834D01*
X92173119Y-11067741D01*
X92180796Y-11068460D01*
X92202543Y-11070500D01*
X92577456Y-11070499D01*
X92606879Y-11067741D01*
X92730794Y-11024381D01*
X92826367Y-10953844D01*
X92891995Y-10929874D01*
X92960165Y-10945189D01*
X92973629Y-10953842D01*
X93069206Y-11024381D01*
X93110511Y-11038834D01*
X93193119Y-11067741D01*
X93200796Y-11068460D01*
X93222543Y-11070500D01*
X93597456Y-11070499D01*
X93626879Y-11067741D01*
X93750794Y-11024381D01*
X93856423Y-10946423D01*
X93934381Y-10840794D01*
X93959507Y-10768989D01*
X93977741Y-10716881D01*
X93977741Y-10716879D01*
X93978981Y-10703654D01*
X93980500Y-10687457D01*
X93980499Y-10212544D01*
X93977741Y-10183121D01*
X93934381Y-10059206D01*
X93892461Y-10002406D01*
X93856423Y-9953576D01*
X93768744Y-9888867D01*
X93750794Y-9875619D01*
X93750792Y-9875618D01*
X93626880Y-9832258D01*
X93597461Y-9829500D01*
X93222546Y-9829500D01*
X93193125Y-9832258D01*
X93193115Y-9832260D01*
X93069205Y-9875619D01*
X93069204Y-9875619D01*
X92973633Y-9946154D01*
X92908004Y-9970125D01*
X92839834Y-9954809D01*
X92826367Y-9946154D01*
X92730794Y-9875619D01*
X92606880Y-9832258D01*
X92577461Y-9829500D01*
X92202546Y-9829500D01*
X92173125Y-9832258D01*
X92173115Y-9832260D01*
X92049207Y-9875618D01*
X91943576Y-9953577D01*
X91938720Y-9960157D01*
X91883071Y-10002406D01*
X91813415Y-10007862D01*
X91751866Y-9974793D01*
X91721911Y-9927476D01*
X91705824Y-9881504D01*
X91690293Y-9837118D01*
X91609650Y-9727850D01*
X91590074Y-9713402D01*
X95599500Y-9713402D01*
X95609520Y-9796843D01*
X95609520Y-9796844D01*
X95661886Y-9929634D01*
X95748132Y-10043367D01*
X95861865Y-10129613D01*
X95861868Y-10129615D01*
X95994654Y-10181979D01*
X96078098Y-10192000D01*
X96921902Y-10192000D01*
X97005346Y-10181979D01*
X97138132Y-10129615D01*
X97251867Y-10043367D01*
X97338115Y-9929632D01*
X97390479Y-9796846D01*
X97400500Y-9713402D01*
X97400500Y-9194598D01*
X97390479Y-9111154D01*
X97338115Y-8978368D01*
X97338113Y-8978365D01*
X97251867Y-8864632D01*
X97138134Y-8778386D01*
X97138132Y-8778385D01*
X97005346Y-8726021D01*
X97005345Y-8726020D01*
X97005343Y-8726020D01*
X96921902Y-8716000D01*
X96078098Y-8716000D01*
X95994656Y-8726020D01*
X95994655Y-8726020D01*
X95861865Y-8778386D01*
X95748132Y-8864632D01*
X95661886Y-8978365D01*
X95609520Y-9111155D01*
X95609520Y-9111156D01*
X95599500Y-9194597D01*
X95599500Y-9713402D01*
X91590074Y-9713402D01*
X91500382Y-9647207D01*
X91500380Y-9647206D01*
X91372200Y-9602353D01*
X91341770Y-9599500D01*
X91341766Y-9599500D01*
X90283234Y-9599500D01*
X90283230Y-9599500D01*
X90252800Y-9602353D01*
X90252798Y-9602353D01*
X90124619Y-9647206D01*
X90124617Y-9647207D01*
X90015350Y-9727850D01*
X89934707Y-9837117D01*
X89934706Y-9837119D01*
X89889853Y-9965298D01*
X89889853Y-9965300D01*
X89887000Y-9995730D01*
X89887000Y-10404269D01*
X89889853Y-10434699D01*
X89891464Y-10442073D01*
X89889028Y-10442604D01*
X89891965Y-10500378D01*
X89859051Y-10559208D01*
X89819821Y-10598439D01*
X89819813Y-10598449D01*
X89736218Y-10739801D01*
X89690399Y-10897513D01*
X89690204Y-10899998D01*
X89379792Y-10899998D01*
X89347720Y-10808343D01*
X89340293Y-10787118D01*
X89311889Y-10748632D01*
X89287919Y-10683005D01*
X89303234Y-10614835D01*
X89311885Y-10601373D01*
X89340293Y-10562882D01*
X89370740Y-10475869D01*
X89385146Y-10434701D01*
X89385146Y-10434699D01*
X89388000Y-10404269D01*
X89388000Y-9995730D01*
X89385146Y-9965300D01*
X89385146Y-9965298D01*
X89340293Y-9837119D01*
X89340292Y-9837117D01*
X89259650Y-9727850D01*
X89150382Y-9647207D01*
X89150380Y-9647206D01*
X89022200Y-9602353D01*
X88991770Y-9599500D01*
X88991766Y-9599500D01*
X87933234Y-9599500D01*
X87933230Y-9599500D01*
X87902800Y-9602353D01*
X87902798Y-9602353D01*
X87774619Y-9647206D01*
X87774617Y-9647207D01*
X87665350Y-9727850D01*
X87584707Y-9837117D01*
X87584706Y-9837119D01*
X87539853Y-9965298D01*
X87539853Y-9965300D01*
X87537000Y-9995730D01*
X87537000Y-10404269D01*
X87539853Y-10434699D01*
X87539853Y-10434701D01*
X87583421Y-10559208D01*
X87584707Y-10562882D01*
X87610956Y-10598449D01*
X87613109Y-10601365D01*
X87637080Y-10666994D01*
X87621765Y-10735165D01*
X87613111Y-10748631D01*
X87584707Y-10787118D01*
X87584706Y-10787119D01*
X87539853Y-10915298D01*
X87539853Y-10915300D01*
X87537000Y-10945730D01*
X87537000Y-11354269D01*
X87539853Y-11384699D01*
X87539853Y-11384701D01*
X87584706Y-11512880D01*
X87584707Y-11512882D01*
X87607770Y-11544131D01*
X87613110Y-11551367D01*
X87637080Y-11616997D01*
X87621764Y-11685167D01*
X87613110Y-11698633D01*
X87584707Y-11737118D01*
X87584706Y-11737119D01*
X87539853Y-11865298D01*
X87539853Y-11865300D01*
X87537000Y-11895730D01*
X87537000Y-12304269D01*
X79768712Y-12304269D01*
X79791603Y-12238850D01*
X79807708Y-12192826D01*
X79807708Y-12192823D01*
X79807710Y-12192819D01*
X79810500Y-12163066D01*
X79810500Y-11776934D01*
X79807710Y-11747181D01*
X79763853Y-11621848D01*
X79760291Y-11552072D01*
X79795020Y-11491444D01*
X79857013Y-11459217D01*
X79921848Y-11463853D01*
X80047181Y-11507710D01*
X80062057Y-11509105D01*
X80076930Y-11510500D01*
X80076934Y-11510500D01*
X80523070Y-11510500D01*
X80536289Y-11509260D01*
X80552819Y-11507710D01*
X80552823Y-11507708D01*
X80552826Y-11507708D01*
X80603405Y-11490009D01*
X80678157Y-11463852D01*
X80784999Y-11384999D01*
X80863852Y-11278157D01*
X80907710Y-11152819D01*
X80910500Y-11123066D01*
X80910500Y-10736934D01*
X80910477Y-10736691D01*
X80908950Y-10720404D01*
X80907710Y-10707181D01*
X80907708Y-10707177D01*
X80907708Y-10707173D01*
X80865062Y-10585301D01*
X80863852Y-10581843D01*
X80820890Y-10523631D01*
X80796920Y-10458005D01*
X80812235Y-10389835D01*
X80820885Y-10376374D01*
X80863852Y-10318157D01*
X80900808Y-10212543D01*
X80907708Y-10192826D01*
X80907708Y-10192823D01*
X80907710Y-10192819D01*
X80910500Y-10163066D01*
X80910500Y-9776934D01*
X80910331Y-9775134D01*
X80908729Y-9758044D01*
X80907710Y-9747181D01*
X80907708Y-9747177D01*
X80907708Y-9747173D01*
X80889401Y-9694856D01*
X82399500Y-9694856D01*
X82399502Y-9694882D01*
X82402413Y-9719987D01*
X82402415Y-9719991D01*
X82447793Y-9822764D01*
X82447794Y-9822765D01*
X82527235Y-9902206D01*
X82630009Y-9947585D01*
X82655135Y-9950500D01*
X84144864Y-9950499D01*
X84144879Y-9950497D01*
X84144882Y-9950497D01*
X84169987Y-9947586D01*
X84169987Y-9947585D01*
X84169991Y-9947585D01*
X84245416Y-9914281D01*
X84314691Y-9905210D01*
X84377876Y-9935033D01*
X84414908Y-9994282D01*
X84419500Y-10027716D01*
X84419500Y-10487453D01*
X84422258Y-10516874D01*
X84422260Y-10516884D01*
X84465618Y-10640792D01*
X84465619Y-10640794D01*
X84480000Y-10660279D01*
X84543576Y-10746423D01*
X84574155Y-10768991D01*
X84649206Y-10824381D01*
X84655828Y-10826698D01*
X84773119Y-10867741D01*
X84780796Y-10868460D01*
X84802543Y-10870500D01*
X85177456Y-10870499D01*
X85206879Y-10867741D01*
X85330794Y-10824381D01*
X85426367Y-10753844D01*
X85491995Y-10729874D01*
X85560165Y-10745189D01*
X85573629Y-10753842D01*
X85669206Y-10824381D01*
X85675828Y-10826698D01*
X85793119Y-10867741D01*
X85800796Y-10868460D01*
X85822543Y-10870500D01*
X86197456Y-10870499D01*
X86226879Y-10867741D01*
X86350794Y-10824381D01*
X86456423Y-10746423D01*
X86534381Y-10640794D01*
X86561644Y-10562882D01*
X86577741Y-10516881D01*
X86577741Y-10516879D01*
X86580081Y-10491923D01*
X86580500Y-10487457D01*
X86580499Y-10012544D01*
X86577741Y-9983121D01*
X86573193Y-9970125D01*
X86553653Y-9914282D01*
X86534381Y-9859206D01*
X86487031Y-9795049D01*
X86456423Y-9753576D01*
X86376859Y-9694856D01*
X86350794Y-9675619D01*
X86350792Y-9675618D01*
X86226880Y-9632258D01*
X86197461Y-9629500D01*
X85822546Y-9629500D01*
X85793125Y-9632258D01*
X85793115Y-9632260D01*
X85669205Y-9675619D01*
X85669204Y-9675619D01*
X85573633Y-9746154D01*
X85508004Y-9770125D01*
X85439834Y-9754809D01*
X85426367Y-9746154D01*
X85330794Y-9675619D01*
X85206880Y-9632258D01*
X85177461Y-9629500D01*
X84802546Y-9629500D01*
X84773125Y-9632258D01*
X84773115Y-9632260D01*
X84649207Y-9675618D01*
X84598132Y-9713313D01*
X84532503Y-9737283D01*
X84464332Y-9721967D01*
X84415265Y-9672226D01*
X84400499Y-9613545D01*
X84400499Y-8405136D01*
X84400034Y-8401123D01*
X84397586Y-8380012D01*
X84397585Y-8380010D01*
X84397585Y-8380009D01*
X84352206Y-8277235D01*
X84272765Y-8197794D01*
X84240392Y-8183500D01*
X84169992Y-8152415D01*
X84144865Y-8149500D01*
X82655143Y-8149500D01*
X82655117Y-8149502D01*
X82630012Y-8152413D01*
X82630008Y-8152415D01*
X82527235Y-8197793D01*
X82447794Y-8277234D01*
X82402415Y-8380006D01*
X82402415Y-8380008D01*
X82399500Y-8405131D01*
X82399500Y-9694856D01*
X80889401Y-9694856D01*
X80867497Y-9632260D01*
X80863852Y-9621843D01*
X80784999Y-9515001D01*
X80678157Y-9436148D01*
X80678155Y-9436147D01*
X80552826Y-9392291D01*
X80552814Y-9392289D01*
X80523070Y-9389500D01*
X80523066Y-9389500D01*
X80076934Y-9389500D01*
X80076930Y-9389500D01*
X80047185Y-9392289D01*
X80047173Y-9392291D01*
X79921842Y-9436147D01*
X79921841Y-9436148D01*
X79823633Y-9508629D01*
X79758004Y-9532600D01*
X79689834Y-9517284D01*
X79676367Y-9508629D01*
X79578158Y-9436148D01*
X79578157Y-9436147D01*
X79452826Y-9392291D01*
X79452814Y-9392289D01*
X79423070Y-9389500D01*
X79423066Y-9389500D01*
X78976934Y-9389500D01*
X78976930Y-9389500D01*
X78947185Y-9392289D01*
X78947173Y-9392291D01*
X78821844Y-9436147D01*
X78798131Y-9453648D01*
X78732501Y-9477618D01*
X78664331Y-9462300D01*
X78615264Y-9412559D01*
X78600499Y-9353879D01*
X78600499Y-8975136D01*
X78599541Y-8966872D01*
X78597586Y-8950012D01*
X78595137Y-8941011D01*
X78597136Y-8940466D01*
X78589651Y-8883311D01*
X78595310Y-8864038D01*
X78595136Y-8863991D01*
X78597582Y-8854996D01*
X78597585Y-8854991D01*
X78600500Y-8829865D01*
X78600499Y-8340136D01*
X78600182Y-8337401D01*
X78597586Y-8315012D01*
X78595137Y-8306011D01*
X78597136Y-8305466D01*
X78589651Y-8248311D01*
X78595310Y-8229038D01*
X78595136Y-8228991D01*
X78597582Y-8219996D01*
X78597585Y-8219991D01*
X78600500Y-8194865D01*
X78600499Y-7925116D01*
X84967000Y-7925116D01*
X84978300Y-8029020D01*
X84981986Y-8062910D01*
X85038128Y-8229532D01*
X85041057Y-8238223D01*
X85041058Y-8238225D01*
X85067016Y-8281368D01*
X85132281Y-8389841D01*
X85136431Y-8396737D01*
X85136432Y-8396738D01*
X85263649Y-8531040D01*
X85266077Y-8532686D01*
X85416770Y-8634858D01*
X85416773Y-8634859D01*
X85416776Y-8634861D01*
X85588622Y-8703330D01*
X85588625Y-8703331D01*
X85771183Y-8733260D01*
X85955907Y-8723245D01*
X85955911Y-8723244D01*
X86134156Y-8673755D01*
X86140407Y-8671265D01*
X86141364Y-8673667D01*
X86198324Y-8661989D01*
X86263492Y-8687186D01*
X86304691Y-8743616D01*
X86312000Y-8785557D01*
X86312000Y-8943213D01*
X86316651Y-8975135D01*
X86322209Y-9013286D01*
X86322209Y-9013287D01*
X86322210Y-9013289D01*
X86322210Y-9013291D01*
X86375048Y-9121372D01*
X86375050Y-9121375D01*
X86460124Y-9206449D01*
X86460127Y-9206451D01*
X86545529Y-9248201D01*
X86568214Y-9259291D01*
X86638285Y-9269500D01*
X87186714Y-9269499D01*
X87256786Y-9259291D01*
X87256789Y-9259289D01*
X87263393Y-9257249D01*
X87333255Y-9256264D01*
X87336618Y-9257252D01*
X87343210Y-9259289D01*
X87343214Y-9259291D01*
X87413285Y-9269500D01*
X87961714Y-9269499D01*
X88031786Y-9259291D01*
X88058038Y-9246456D01*
X88126907Y-9234696D01*
X88166962Y-9246457D01*
X88185081Y-9255315D01*
X88193214Y-9259291D01*
X88263285Y-9269500D01*
X88511714Y-9269499D01*
X88581786Y-9259291D01*
X88583030Y-9258682D01*
X88584655Y-9258404D01*
X88590993Y-9256447D01*
X88591249Y-9257278D01*
X88651900Y-9246917D01*
X88691962Y-9258679D01*
X88693214Y-9259291D01*
X88763285Y-9269500D01*
X89011714Y-9269499D01*
X89081786Y-9259291D01*
X89083030Y-9258682D01*
X89084655Y-9258404D01*
X89090993Y-9256447D01*
X89091249Y-9257278D01*
X89151900Y-9246917D01*
X89191962Y-9258679D01*
X89193214Y-9259291D01*
X89263285Y-9269500D01*
X89511714Y-9269499D01*
X89581786Y-9259291D01*
X89583030Y-9258682D01*
X89584655Y-9258404D01*
X89590993Y-9256447D01*
X89591249Y-9257278D01*
X89651900Y-9246917D01*
X89691962Y-9258679D01*
X89693214Y-9259291D01*
X89763285Y-9269500D01*
X90011714Y-9269499D01*
X90081786Y-9259291D01*
X90083030Y-9258682D01*
X90084655Y-9258404D01*
X90090993Y-9256447D01*
X90091249Y-9257278D01*
X90151900Y-9246917D01*
X90191962Y-9258679D01*
X90193214Y-9259291D01*
X90263285Y-9269500D01*
X90511714Y-9269499D01*
X90581786Y-9259291D01*
X90583030Y-9258682D01*
X90584655Y-9258404D01*
X90590993Y-9256447D01*
X90591249Y-9257278D01*
X90651900Y-9246917D01*
X90691962Y-9258679D01*
X90693214Y-9259291D01*
X90763285Y-9269500D01*
X91011714Y-9269499D01*
X91081786Y-9259291D01*
X91083030Y-9258682D01*
X91084655Y-9258404D01*
X91090993Y-9256447D01*
X91091249Y-9257278D01*
X91151900Y-9246917D01*
X91191962Y-9258679D01*
X91193214Y-9259291D01*
X91263285Y-9269500D01*
X91511714Y-9269499D01*
X91581786Y-9259291D01*
X91583030Y-9258682D01*
X91584655Y-9258404D01*
X91590993Y-9256447D01*
X91591249Y-9257278D01*
X91651900Y-9246917D01*
X91691962Y-9258679D01*
X91693214Y-9259291D01*
X91763285Y-9269500D01*
X92011714Y-9269499D01*
X92081786Y-9259291D01*
X92108038Y-9246456D01*
X92176907Y-9234696D01*
X92216962Y-9246457D01*
X92235081Y-9255315D01*
X92243214Y-9259291D01*
X92313285Y-9269500D01*
X92861714Y-9269499D01*
X92931786Y-9259291D01*
X92931789Y-9259289D01*
X92938393Y-9257249D01*
X93008255Y-9256264D01*
X93011618Y-9257252D01*
X93018210Y-9259289D01*
X93018214Y-9259291D01*
X93088285Y-9269500D01*
X93636714Y-9269499D01*
X93706786Y-9259291D01*
X93706790Y-9259289D01*
X93706791Y-9259289D01*
X93814872Y-9206451D01*
X93814875Y-9206449D01*
X93899949Y-9121375D01*
X93899951Y-9121372D01*
X93931099Y-9057657D01*
X93952791Y-9013286D01*
X93963000Y-8943215D01*
X93962999Y-8780381D01*
X93982683Y-8713343D01*
X94035487Y-8667588D01*
X94104645Y-8657644D01*
X94132892Y-8665187D01*
X94228625Y-8703331D01*
X94411183Y-8733260D01*
X94595907Y-8723245D01*
X94595911Y-8723244D01*
X94774156Y-8673755D01*
X94774156Y-8673754D01*
X94774159Y-8673754D01*
X94937604Y-8587100D01*
X95078600Y-8467337D01*
X95190554Y-8320064D01*
X95268232Y-8152167D01*
X95308000Y-7971497D01*
X95308000Y-7588402D01*
X95599500Y-7588402D01*
X95609520Y-7671843D01*
X95609520Y-7671844D01*
X95613741Y-7682547D01*
X95658875Y-7797000D01*
X95661886Y-7804634D01*
X95748132Y-7918367D01*
X95861795Y-8004560D01*
X95861868Y-8004615D01*
X95994654Y-8056979D01*
X96078098Y-8067000D01*
X96921902Y-8067000D01*
X97005346Y-8056979D01*
X97138132Y-8004615D01*
X97251867Y-7918367D01*
X97338115Y-7804632D01*
X97390479Y-7671846D01*
X97400500Y-7588402D01*
X97400500Y-7069598D01*
X97399546Y-7061658D01*
X97394148Y-7016705D01*
X97390479Y-6986154D01*
X97338115Y-6853368D01*
X97325687Y-6836979D01*
X97251867Y-6739632D01*
X97138134Y-6653386D01*
X97138132Y-6653385D01*
X97005346Y-6601021D01*
X97005345Y-6601020D01*
X97005343Y-6601020D01*
X96921902Y-6591000D01*
X96078098Y-6591000D01*
X95994656Y-6601020D01*
X95994655Y-6601020D01*
X95861865Y-6653386D01*
X95748132Y-6739632D01*
X95661886Y-6853365D01*
X95609520Y-6986155D01*
X95609520Y-6986156D01*
X95599500Y-7069597D01*
X95599500Y-7588402D01*
X95308000Y-7588402D01*
X95308000Y-6732887D01*
X95293014Y-6595090D01*
X95233944Y-6419779D01*
X95138570Y-6261264D01*
X95110088Y-6231196D01*
X95011350Y-6126959D01*
X94919966Y-6065000D01*
X94858230Y-6023142D01*
X94858227Y-6023140D01*
X94858223Y-6023138D01*
X94686377Y-5954669D01*
X94613351Y-5942697D01*
X94503817Y-5924740D01*
X94503814Y-5924740D01*
X94319093Y-5934755D01*
X94319088Y-5934755D01*
X94140843Y-5984244D01*
X94140837Y-5984247D01*
X93977397Y-6070898D01*
X93836400Y-6190662D01*
X93724446Y-6337936D01*
X93690064Y-6412250D01*
X93644049Y-6464828D01*
X93576913Y-6484181D01*
X93509972Y-6464166D01*
X93479151Y-6435671D01*
X93440804Y-6385696D01*
X93319750Y-6292808D01*
X93319749Y-6292807D01*
X93319747Y-6292806D01*
X93178780Y-6234416D01*
X93178778Y-6234415D01*
X93065481Y-6219500D01*
X93065480Y-6219500D01*
X92989520Y-6219500D01*
X92989519Y-6219500D01*
X92876221Y-6234415D01*
X92876219Y-6234416D01*
X92735252Y-6292806D01*
X92614196Y-6385696D01*
X92521306Y-6506752D01*
X92462916Y-6647719D01*
X92462915Y-6647721D01*
X92443000Y-6798998D01*
X92443000Y-6799001D01*
X92462915Y-6950278D01*
X92462917Y-6950283D01*
X92502998Y-7047048D01*
X92510467Y-7116517D01*
X92479192Y-7178996D01*
X92419102Y-7214648D01*
X92388439Y-7218500D01*
X92313286Y-7218500D01*
X92243212Y-7228709D01*
X92216960Y-7241544D01*
X92148087Y-7253303D01*
X92108040Y-7241544D01*
X92081787Y-7228709D01*
X92071775Y-7227250D01*
X92011715Y-7218500D01*
X92011709Y-7218500D01*
X91763286Y-7218500D01*
X91693212Y-7228709D01*
X91691954Y-7229325D01*
X91690315Y-7229604D01*
X91684013Y-7231552D01*
X91683757Y-7230723D01*
X91623080Y-7241080D01*
X91583042Y-7229323D01*
X91581787Y-7228709D01*
X91571775Y-7227250D01*
X91511715Y-7218500D01*
X91511709Y-7218500D01*
X91263286Y-7218500D01*
X91193212Y-7228709D01*
X91191954Y-7229325D01*
X91190315Y-7229604D01*
X91184013Y-7231552D01*
X91183757Y-7230723D01*
X91123080Y-7241080D01*
X91083042Y-7229323D01*
X91081787Y-7228709D01*
X91071775Y-7227250D01*
X91011715Y-7218500D01*
X91011709Y-7218500D01*
X90763286Y-7218500D01*
X90693212Y-7228709D01*
X90691954Y-7229325D01*
X90690315Y-7229604D01*
X90684013Y-7231552D01*
X90683757Y-7230723D01*
X90623080Y-7241080D01*
X90583042Y-7229323D01*
X90581787Y-7228709D01*
X90571775Y-7227250D01*
X90511715Y-7218500D01*
X90511709Y-7218500D01*
X90263286Y-7218500D01*
X90193212Y-7228709D01*
X90191954Y-7229325D01*
X90190315Y-7229604D01*
X90184013Y-7231552D01*
X90183757Y-7230723D01*
X90123080Y-7241080D01*
X90083042Y-7229323D01*
X90081787Y-7228709D01*
X90071775Y-7227250D01*
X90011715Y-7218500D01*
X90011709Y-7218500D01*
X89763286Y-7218500D01*
X89693212Y-7228709D01*
X89691954Y-7229325D01*
X89690315Y-7229604D01*
X89684013Y-7231552D01*
X89683757Y-7230723D01*
X89623080Y-7241080D01*
X89583042Y-7229323D01*
X89581787Y-7228709D01*
X89571775Y-7227250D01*
X89511715Y-7218500D01*
X89511709Y-7218500D01*
X89263286Y-7218500D01*
X89193212Y-7228709D01*
X89191954Y-7229325D01*
X89190315Y-7229604D01*
X89184013Y-7231552D01*
X89183757Y-7230723D01*
X89123080Y-7241080D01*
X89083042Y-7229323D01*
X89081787Y-7228709D01*
X89071775Y-7227250D01*
X89011715Y-7218500D01*
X89011709Y-7218500D01*
X88763286Y-7218500D01*
X88693212Y-7228709D01*
X88691954Y-7229325D01*
X88690315Y-7229604D01*
X88684013Y-7231552D01*
X88683757Y-7230723D01*
X88623080Y-7241080D01*
X88583042Y-7229323D01*
X88581787Y-7228709D01*
X88571775Y-7227250D01*
X88511715Y-7218500D01*
X88511709Y-7218500D01*
X88263286Y-7218500D01*
X88193212Y-7228709D01*
X88166960Y-7241544D01*
X88098087Y-7253303D01*
X88058040Y-7241544D01*
X88031787Y-7228709D01*
X88021775Y-7227250D01*
X87961715Y-7218500D01*
X87961709Y-7218500D01*
X87886563Y-7218500D01*
X87819524Y-7198815D01*
X87773769Y-7146011D01*
X87763825Y-7076853D01*
X87772002Y-7047048D01*
X87793002Y-6996346D01*
X87812084Y-6950280D01*
X87827701Y-6831654D01*
X87832000Y-6799001D01*
X87832000Y-6798998D01*
X87812084Y-6647721D01*
X87812084Y-6647720D01*
X87753692Y-6506750D01*
X87660804Y-6385696D01*
X87539750Y-6292808D01*
X87539749Y-6292807D01*
X87539747Y-6292806D01*
X87398780Y-6234416D01*
X87398778Y-6234415D01*
X87285481Y-6219500D01*
X87285480Y-6219500D01*
X87209520Y-6219500D01*
X87209519Y-6219500D01*
X87096221Y-6234415D01*
X87096219Y-6234416D01*
X86955252Y-6292806D01*
X86905215Y-6331201D01*
X86853139Y-6371161D01*
X86834195Y-6385697D01*
X86798835Y-6431779D01*
X86742406Y-6472981D01*
X86672660Y-6477135D01*
X86611740Y-6442922D01*
X86594210Y-6420220D01*
X86545711Y-6339614D01*
X86498570Y-6261264D01*
X86470088Y-6231196D01*
X86371350Y-6126959D01*
X86279966Y-6065000D01*
X86218230Y-6023142D01*
X86218227Y-6023140D01*
X86218223Y-6023138D01*
X86046377Y-5954669D01*
X85973351Y-5942697D01*
X85863817Y-5924740D01*
X85863814Y-5924740D01*
X85679093Y-5934755D01*
X85679088Y-5934755D01*
X85500843Y-5984244D01*
X85500837Y-5984247D01*
X85337397Y-6070898D01*
X85196400Y-6190662D01*
X85084446Y-6337936D01*
X85006768Y-6505832D01*
X85006766Y-6505836D01*
X84967000Y-6686502D01*
X84967000Y-7925116D01*
X78600499Y-7925116D01*
X78600499Y-7764952D01*
X78620183Y-7697914D01*
X78672987Y-7652159D01*
X78742146Y-7642215D01*
X78805702Y-7671240D01*
X78812180Y-7677272D01*
X78817455Y-7682547D01*
X78932664Y-7768793D01*
X78932671Y-7768797D01*
X78977618Y-7785560D01*
X79067517Y-7819091D01*
X79127127Y-7825500D01*
X79622872Y-7825499D01*
X79682483Y-7819091D01*
X79817331Y-7768796D01*
X79932546Y-7682546D01*
X80018796Y-7567331D01*
X80069091Y-7432483D01*
X80075500Y-7372873D01*
X80075500Y-7372870D01*
X80324500Y-7372870D01*
X80324501Y-7372876D01*
X80330908Y-7432483D01*
X80381202Y-7567328D01*
X80381206Y-7567335D01*
X80467452Y-7682544D01*
X80467455Y-7682547D01*
X80582664Y-7768793D01*
X80582671Y-7768797D01*
X80627618Y-7785560D01*
X80717517Y-7819091D01*
X80777127Y-7825500D01*
X81272872Y-7825499D01*
X81332483Y-7819091D01*
X81467331Y-7768796D01*
X81582546Y-7682546D01*
X81668796Y-7567331D01*
X81719091Y-7432483D01*
X81725500Y-7372873D01*
X81725499Y-6727128D01*
X81719091Y-6667517D01*
X81713820Y-6653386D01*
X81668797Y-6532671D01*
X81668793Y-6532664D01*
X81582547Y-6417455D01*
X81582544Y-6417452D01*
X81467335Y-6331206D01*
X81467326Y-6331201D01*
X81427056Y-6316182D01*
X81398567Y-6294856D01*
X82399500Y-6294856D01*
X82399502Y-6294882D01*
X82402413Y-6319987D01*
X82402415Y-6319991D01*
X82447793Y-6422764D01*
X82447794Y-6422765D01*
X82527235Y-6502206D01*
X82630009Y-6547585D01*
X82655135Y-6550500D01*
X84144864Y-6550499D01*
X84144879Y-6550497D01*
X84144882Y-6550497D01*
X84169987Y-6547586D01*
X84169988Y-6547585D01*
X84169991Y-6547585D01*
X84272765Y-6502206D01*
X84352206Y-6422765D01*
X84397585Y-6319991D01*
X84400500Y-6294865D01*
X84400499Y-5005136D01*
X84400497Y-5005117D01*
X84397586Y-4980012D01*
X84397585Y-4980010D01*
X84397585Y-4980009D01*
X84352206Y-4877235D01*
X84272765Y-4797794D01*
X84243622Y-4784926D01*
X84169992Y-4752415D01*
X84144865Y-4749500D01*
X82655143Y-4749500D01*
X82655117Y-4749502D01*
X82630012Y-4752413D01*
X82630008Y-4752415D01*
X82527235Y-4797793D01*
X82447794Y-4877234D01*
X82402415Y-4980006D01*
X82402415Y-4980008D01*
X82399500Y-5005131D01*
X82399500Y-6294856D01*
X81398567Y-6294856D01*
X81371122Y-6274312D01*
X81346704Y-6208847D01*
X81361555Y-6140574D01*
X81410960Y-6091168D01*
X81427056Y-6083818D01*
X81467326Y-6068798D01*
X81467326Y-6068797D01*
X81467331Y-6068796D01*
X81582546Y-5982546D01*
X81668796Y-5867331D01*
X81719091Y-5732483D01*
X81725500Y-5672873D01*
X81725499Y-5027128D01*
X81719091Y-4967517D01*
X81706851Y-4934701D01*
X81668797Y-4832671D01*
X81668793Y-4832664D01*
X81582547Y-4717455D01*
X81582544Y-4717452D01*
X81467335Y-4631206D01*
X81467328Y-4631202D01*
X81332486Y-4580910D01*
X81332485Y-4580909D01*
X81332483Y-4580909D01*
X81272873Y-4574500D01*
X81272863Y-4574500D01*
X80777129Y-4574500D01*
X80777123Y-4574501D01*
X80717516Y-4580908D01*
X80582671Y-4631202D01*
X80582664Y-4631206D01*
X80467455Y-4717452D01*
X80467452Y-4717455D01*
X80381206Y-4832664D01*
X80381202Y-4832671D01*
X80330910Y-4967513D01*
X80330909Y-4967517D01*
X80324500Y-5027127D01*
X80324500Y-5027134D01*
X80324500Y-5027135D01*
X80324500Y-5672870D01*
X80324501Y-5672876D01*
X80330908Y-5732483D01*
X80381202Y-5867328D01*
X80381206Y-5867335D01*
X80467452Y-5982544D01*
X80467455Y-5982547D01*
X80582664Y-6068793D01*
X80582671Y-6068797D01*
X80622944Y-6083818D01*
X80678878Y-6125689D01*
X80703295Y-6191153D01*
X80688443Y-6259426D01*
X80639038Y-6308832D01*
X80622944Y-6316182D01*
X80582671Y-6331202D01*
X80582664Y-6331206D01*
X80467455Y-6417452D01*
X80467452Y-6417455D01*
X80381206Y-6532664D01*
X80381202Y-6532671D01*
X80330910Y-6667513D01*
X80330909Y-6667517D01*
X80324500Y-6727127D01*
X80324500Y-6727134D01*
X80324500Y-6727135D01*
X80324500Y-7372870D01*
X80075500Y-7372870D01*
X80075499Y-6727128D01*
X80069091Y-6667517D01*
X80063820Y-6653386D01*
X80018797Y-6532671D01*
X80018793Y-6532664D01*
X79932547Y-6417455D01*
X79932544Y-6417452D01*
X79817335Y-6331206D01*
X79817324Y-6331200D01*
X79777054Y-6316180D01*
X79721120Y-6274309D01*
X79696704Y-6208844D01*
X79711556Y-6140571D01*
X79760962Y-6091166D01*
X79777047Y-6083820D01*
X79817331Y-6068796D01*
X79932546Y-5982546D01*
X80018796Y-5867331D01*
X80069091Y-5732483D01*
X80075500Y-5672873D01*
X80075499Y-5027128D01*
X80069091Y-4967517D01*
X80056851Y-4934701D01*
X80018797Y-4832671D01*
X80018795Y-4832668D01*
X80018792Y-4832664D01*
X79983054Y-4784924D01*
X79958637Y-4719462D01*
X79973488Y-4651189D01*
X80022892Y-4601783D01*
X80043319Y-4592908D01*
X80069115Y-4584360D01*
X80069124Y-4584356D01*
X80218345Y-4492315D01*
X80342315Y-4368345D01*
X80434356Y-4219124D01*
X80434358Y-4219119D01*
X80489505Y-4052697D01*
X80489506Y-4052690D01*
X80499999Y-3949986D01*
X80500000Y-3949973D01*
X80500000Y-3943102D01*
X81499500Y-3943102D01*
X81505001Y-3988912D01*
X81510122Y-4031561D01*
X81510122Y-4031563D01*
X81510123Y-4031564D01*
X81518454Y-4052690D01*
X81565639Y-4172343D01*
X81657077Y-4292922D01*
X81777656Y-4384360D01*
X81777657Y-4384360D01*
X81777658Y-4384361D01*
X81918436Y-4439877D01*
X82006898Y-4450500D01*
X82006903Y-4450500D01*
X82743097Y-4450500D01*
X82743102Y-4450500D01*
X82831564Y-4439877D01*
X82972342Y-4384361D01*
X83092922Y-4292922D01*
X83184361Y-4172342D01*
X83239877Y-4031564D01*
X83250500Y-3943102D01*
X83250500Y-3397207D01*
X84867000Y-3397207D01*
X84881654Y-3541322D01*
X84939522Y-3725759D01*
X84939529Y-3725774D01*
X85033339Y-3894788D01*
X85033342Y-3894793D01*
X85159258Y-4041466D01*
X85159259Y-4041468D01*
X85312124Y-4159794D01*
X85312127Y-4159796D01*
X85485684Y-4244930D01*
X85485688Y-4244931D01*
X85485686Y-4244931D01*
X85672817Y-4293383D01*
X85672820Y-4293383D01*
X85672826Y-4293385D01*
X85865890Y-4303176D01*
X86056974Y-4273903D01*
X86238253Y-4206764D01*
X86402307Y-4104509D01*
X86542419Y-3971323D01*
X86652853Y-3812658D01*
X86729087Y-3635012D01*
X86768000Y-3445656D01*
X86768000Y-3397207D01*
X93507000Y-3397207D01*
X93521654Y-3541322D01*
X93579522Y-3725759D01*
X93579529Y-3725774D01*
X93673339Y-3894788D01*
X93673342Y-3894793D01*
X93799258Y-4041466D01*
X93799259Y-4041468D01*
X93952124Y-4159794D01*
X93952127Y-4159796D01*
X94125684Y-4244930D01*
X94125688Y-4244931D01*
X94125686Y-4244931D01*
X94312817Y-4293383D01*
X94312820Y-4293383D01*
X94312826Y-4293385D01*
X94505890Y-4303176D01*
X94696974Y-4273903D01*
X94878253Y-4206764D01*
X95042307Y-4104509D01*
X95182419Y-3971323D01*
X95292853Y-3812658D01*
X95369087Y-3635012D01*
X95408000Y-3445656D01*
X95408000Y-2900794D01*
X95393345Y-2756679D01*
X95393345Y-2756677D01*
X95335477Y-2572240D01*
X95335475Y-2572236D01*
X95335474Y-2572232D01*
X95241659Y-2403209D01*
X95241658Y-2403208D01*
X95241657Y-2403206D01*
X95115741Y-2256533D01*
X95115740Y-2256531D01*
X94962875Y-2138205D01*
X94962871Y-2138203D01*
X94891631Y-2103258D01*
X94789316Y-2053070D01*
X94789314Y-2053069D01*
X94789311Y-2053068D01*
X94789313Y-2053068D01*
X94602182Y-2004616D01*
X94602176Y-2004615D01*
X94473464Y-1998087D01*
X94409110Y-1994824D01*
X94409109Y-1994824D01*
X94409107Y-1994824D01*
X94218033Y-2024095D01*
X94218021Y-2024098D01*
X94036751Y-2091234D01*
X94036742Y-2091238D01*
X93872696Y-2193488D01*
X93732580Y-2326677D01*
X93622146Y-2485342D01*
X93545913Y-2662987D01*
X93507000Y-2852343D01*
X93507000Y-3397207D01*
X86768000Y-3397207D01*
X86768000Y-2900794D01*
X86753345Y-2756679D01*
X86753345Y-2756677D01*
X86695477Y-2572240D01*
X86695475Y-2572236D01*
X86695474Y-2572232D01*
X86601659Y-2403209D01*
X86601658Y-2403208D01*
X86601657Y-2403206D01*
X86475741Y-2256533D01*
X86475740Y-2256531D01*
X86322875Y-2138205D01*
X86322871Y-2138203D01*
X86251631Y-2103258D01*
X86149316Y-2053070D01*
X86149314Y-2053069D01*
X86149311Y-2053068D01*
X86149313Y-2053068D01*
X85962182Y-2004616D01*
X85962176Y-2004615D01*
X85833464Y-1998087D01*
X85769110Y-1994824D01*
X85769109Y-1994824D01*
X85769107Y-1994824D01*
X85578033Y-2024095D01*
X85578021Y-2024098D01*
X85396751Y-2091234D01*
X85396742Y-2091238D01*
X85232696Y-2193488D01*
X85092580Y-2326677D01*
X84982146Y-2485342D01*
X84905913Y-2662987D01*
X84867000Y-2852343D01*
X84867000Y-3397207D01*
X83250500Y-3397207D01*
X83250500Y-2556898D01*
X83239877Y-2468436D01*
X83184361Y-2327658D01*
X83184360Y-2327657D01*
X83184360Y-2327656D01*
X83092922Y-2207077D01*
X82972343Y-2115639D01*
X82831561Y-2060122D01*
X82785926Y-2054642D01*
X82743102Y-2049500D01*
X82006898Y-2049500D01*
X81967853Y-2054188D01*
X81918438Y-2060122D01*
X81777656Y-2115639D01*
X81657077Y-2207077D01*
X81565639Y-2327656D01*
X81510122Y-2468438D01*
X81505313Y-2508487D01*
X81499500Y-2556898D01*
X81499500Y-3943102D01*
X80500000Y-3943102D01*
X80500000Y-3500000D01*
X79299000Y-3500000D01*
X79231961Y-3480315D01*
X79186206Y-3427511D01*
X79175000Y-3376000D01*
X79175000Y-1850000D01*
X79675000Y-1850000D01*
X79675000Y-3000000D01*
X80499999Y-3000000D01*
X80499999Y-2550028D01*
X80499998Y-2550013D01*
X80489505Y-2447302D01*
X80434358Y-2280880D01*
X80434356Y-2280875D01*
X80342315Y-2131654D01*
X80218345Y-2007684D01*
X80069124Y-1915643D01*
X80069119Y-1915641D01*
X79902697Y-1860494D01*
X79902690Y-1860493D01*
X79799986Y-1850000D01*
X79675000Y-1850000D01*
X79175000Y-1850000D01*
X79050027Y-1850000D01*
X79050012Y-1850001D01*
X78947302Y-1860494D01*
X78780880Y-1915641D01*
X78780875Y-1915643D01*
X78631654Y-2007684D01*
X78507683Y-2131655D01*
X78507680Y-2131659D01*
X78421326Y-2271661D01*
X78369378Y-2318386D01*
X78300416Y-2329607D01*
X78242154Y-2306334D01*
X78162645Y-2247653D01*
X78034602Y-2202850D01*
X78004207Y-2200000D01*
X76870803Y-2200000D01*
X76840393Y-2202851D01*
X76712354Y-2247653D01*
X76603207Y-2328207D01*
X76522653Y-2437354D01*
X76477850Y-2565395D01*
X76477850Y-2565399D01*
X76475000Y-2595792D01*
X76475000Y-3004195D01*
X76477851Y-3034606D01*
X76522653Y-3162644D01*
X76550920Y-3200944D01*
X76574891Y-3266572D01*
X76559576Y-3334743D01*
X76550921Y-3348210D01*
X76522209Y-3387114D01*
X76522206Y-3387119D01*
X76477353Y-3515298D01*
X76477353Y-3515300D01*
X76474500Y-3545730D01*
X76474500Y-3954269D01*
X76477353Y-3984699D01*
X76477353Y-3984701D01*
X76522206Y-4112880D01*
X76522207Y-4112882D01*
X76550525Y-4151252D01*
X76550609Y-4151365D01*
X76574580Y-4216994D01*
X76559265Y-4285165D01*
X76550611Y-4298631D01*
X76522207Y-4337118D01*
X76522206Y-4337119D01*
X76477353Y-4465298D01*
X76477353Y-4465300D01*
X76474500Y-4495730D01*
X76474500Y-4904269D01*
X76125500Y-4904269D01*
X76125500Y-4495730D01*
X76122646Y-4465300D01*
X76122646Y-4465298D01*
X76083181Y-4352516D01*
X76077793Y-4337118D01*
X76049389Y-4298632D01*
X76025419Y-4233005D01*
X76040734Y-4164835D01*
X76049385Y-4151373D01*
X76077793Y-4112882D01*
X76102782Y-4041468D01*
X76122646Y-3984701D01*
X76122646Y-3984699D01*
X76125500Y-3954269D01*
X76125500Y-3545730D01*
X76122646Y-3515300D01*
X76122646Y-3515298D01*
X76084659Y-3406741D01*
X76077793Y-3387118D01*
X76049389Y-3348632D01*
X76025419Y-3283005D01*
X76040734Y-3214835D01*
X76049385Y-3201373D01*
X76077793Y-3162882D01*
X76111030Y-3067896D01*
X76122646Y-3034701D01*
X76122646Y-3034699D01*
X76125500Y-3004269D01*
X76125500Y-2595730D01*
X76122646Y-2565300D01*
X76122646Y-2565298D01*
X76088752Y-2468436D01*
X76077793Y-2437118D01*
X75997150Y-2327850D01*
X75887882Y-2247207D01*
X75887880Y-2247206D01*
X75759700Y-2202353D01*
X75729270Y-2199500D01*
X75729266Y-2199500D01*
X74595734Y-2199500D01*
X74595730Y-2199500D01*
X74565300Y-2202353D01*
X74565298Y-2202353D01*
X74437119Y-2247206D01*
X74437117Y-2247207D01*
X74327849Y-2327850D01*
X74301709Y-2363269D01*
X74246061Y-2405519D01*
X74176405Y-2410976D01*
X74114856Y-2377908D01*
X74102176Y-2363275D01*
X74084999Y-2340001D01*
X73978157Y-2261148D01*
X73978155Y-2261147D01*
X73852826Y-2217291D01*
X73852814Y-2217289D01*
X73823070Y-2214500D01*
X73823066Y-2214500D01*
X73376934Y-2214500D01*
X73376930Y-2214500D01*
X73347185Y-2217289D01*
X73347173Y-2217291D01*
X73221844Y-2261147D01*
X73115001Y-2340001D01*
X73036147Y-2446844D01*
X72992291Y-2572173D01*
X72992289Y-2572185D01*
X72989500Y-2601929D01*
X72989500Y-2988070D01*
X72992289Y-3017814D01*
X72992291Y-3017826D01*
X73036147Y-3143157D01*
X73036148Y-3143158D01*
X73079108Y-3201367D01*
X73103079Y-3266996D01*
X73087763Y-3335166D01*
X73079108Y-3348633D01*
X73036148Y-3406841D01*
X73036147Y-3406842D01*
X72992291Y-3532173D01*
X72992289Y-3532185D01*
X72989500Y-3561929D01*
X72989500Y-3948070D01*
X70261406Y-3948070D01*
X70252206Y-3927235D01*
X70172765Y-3847794D01*
X70164283Y-3844049D01*
X70069992Y-3802415D01*
X70044865Y-3799500D01*
X68555143Y-3799500D01*
X68555117Y-3799502D01*
X68530012Y-3802413D01*
X68530008Y-3802415D01*
X68427235Y-3847793D01*
X68347795Y-3927233D01*
X68347794Y-3927234D01*
X68347794Y-3927235D01*
X68346351Y-3930504D01*
X68313433Y-4005054D01*
X68268346Y-4058429D01*
X68201560Y-4078956D01*
X68134278Y-4060117D01*
X68087862Y-4007893D01*
X68086607Y-4005146D01*
X68052206Y-3927235D01*
X67972765Y-3847794D01*
X67964283Y-3844049D01*
X67869992Y-3802415D01*
X67844865Y-3799500D01*
X66355143Y-3799500D01*
X66355117Y-3799502D01*
X66330012Y-3802413D01*
X66330008Y-3802415D01*
X66227235Y-3847793D01*
X66147794Y-3927234D01*
X66102415Y-4030006D01*
X66102415Y-4030008D01*
X66099500Y-4055131D01*
X66099500Y-5344856D01*
X66099502Y-5344882D01*
X66102413Y-5369987D01*
X66102415Y-5369991D01*
X66147794Y-5472766D01*
X66152698Y-5479925D01*
X66174344Y-5546357D01*
X66156636Y-5613946D01*
X66152702Y-5620068D01*
X66147796Y-5627230D01*
X66102415Y-5730006D01*
X66102415Y-5730008D01*
X66099500Y-5755131D01*
X66099500Y-7044856D01*
X65350500Y-7044856D01*
X65350500Y-5995730D01*
X65347646Y-5965300D01*
X65347646Y-5965298D01*
X65302793Y-5837119D01*
X65302792Y-5837117D01*
X65297352Y-5829746D01*
X65222150Y-5727850D01*
X65112882Y-5647207D01*
X65112880Y-5647206D01*
X64984700Y-5602353D01*
X64954270Y-5599500D01*
X64954266Y-5599500D01*
X64545734Y-5599500D01*
X64545730Y-5599500D01*
X64515300Y-5602353D01*
X64515298Y-5602353D01*
X64387119Y-5647206D01*
X64387118Y-5647207D01*
X64348631Y-5675611D01*
X64283001Y-5699581D01*
X64214831Y-5684263D01*
X64201369Y-5675611D01*
X64162882Y-5647207D01*
X64162880Y-5647206D01*
X64034700Y-5602353D01*
X64004270Y-5599500D01*
X64004266Y-5599500D01*
X63595734Y-5599500D01*
X63595730Y-5599500D01*
X63565300Y-5602353D01*
X63565298Y-5602353D01*
X63437119Y-5647206D01*
X63437118Y-5647207D01*
X63398631Y-5675611D01*
X63333001Y-5699581D01*
X63264831Y-5684263D01*
X63251369Y-5675611D01*
X63212882Y-5647207D01*
X63212880Y-5647206D01*
X63084700Y-5602353D01*
X63054270Y-5599500D01*
X63054266Y-5599500D01*
X62645734Y-5599500D01*
X62645730Y-5599500D01*
X62615300Y-5602353D01*
X62615298Y-5602353D01*
X62487119Y-5647206D01*
X62487117Y-5647207D01*
X62404891Y-5707893D01*
X62377850Y-5727850D01*
X62324477Y-5800169D01*
X62324270Y-5800449D01*
X62268623Y-5842699D01*
X62198966Y-5848158D01*
X62137417Y-5815090D01*
X62103516Y-5753996D01*
X62100500Y-5726815D01*
X62100500Y-5560385D01*
X62097541Y-5528838D01*
X62097541Y-5528834D01*
X62051028Y-5395909D01*
X62051027Y-5395907D01*
X62049294Y-5390955D01*
X62045731Y-5321176D01*
X62049294Y-5309043D01*
X62051025Y-5304094D01*
X62051028Y-5304091D01*
X62097541Y-5171166D01*
X62100500Y-5139610D01*
X62100500Y-4973184D01*
X62120185Y-4906145D01*
X62172989Y-4860390D01*
X62242147Y-4850446D01*
X62305703Y-4879471D01*
X62324265Y-4899544D01*
X62377850Y-4972150D01*
X62487118Y-5052793D01*
X62515945Y-5062880D01*
X62615299Y-5097646D01*
X62645730Y-5100500D01*
X62645734Y-5100500D01*
X63054270Y-5100500D01*
X63084693Y-5097647D01*
X63084696Y-5097646D01*
X63084699Y-5097646D01*
X63084701Y-5097645D01*
X63092068Y-5096036D01*
X63092601Y-5098478D01*
X63150330Y-5095521D01*
X63209211Y-5128450D01*
X63248438Y-5167678D01*
X63248447Y-5167685D01*
X63389801Y-5251281D01*
X63547514Y-5297100D01*
X63547511Y-5297100D01*
X63549998Y-5297295D01*
X63550000Y-5297294D01*
X63550000Y-3052703D01*
X64050000Y-3052703D01*
X64050000Y-5297295D01*
X64050001Y-5297295D01*
X64052486Y-5297100D01*
X64210198Y-5251281D01*
X64351550Y-5167686D01*
X64351558Y-5167680D01*
X64390788Y-5128450D01*
X64452111Y-5094964D01*
X64507425Y-5098355D01*
X64507932Y-5096036D01*
X64515306Y-5097647D01*
X64545730Y-5100500D01*
X64545734Y-5100500D01*
X64954270Y-5100500D01*
X64984699Y-5097646D01*
X64984701Y-5097646D01*
X65048790Y-5075219D01*
X65112882Y-5052793D01*
X65222150Y-4972150D01*
X65302793Y-4862882D01*
X65341448Y-4752413D01*
X65347646Y-4734701D01*
X65347646Y-4734699D01*
X65350500Y-4704269D01*
X65350500Y-3645730D01*
X65347646Y-3615300D01*
X65347646Y-3615298D01*
X65314006Y-3519163D01*
X65302793Y-3487118D01*
X65222150Y-3377850D01*
X65112882Y-3297207D01*
X65112880Y-3297206D01*
X64984700Y-3252353D01*
X64954270Y-3249500D01*
X64954266Y-3249500D01*
X64545734Y-3249500D01*
X64545730Y-3249500D01*
X64515305Y-3252353D01*
X64507930Y-3253964D01*
X64507397Y-3251526D01*
X64449632Y-3254469D01*
X64390788Y-3221549D01*
X64351561Y-3182321D01*
X64351552Y-3182314D01*
X64210196Y-3098717D01*
X64210193Y-3098716D01*
X64052494Y-3052900D01*
X64052497Y-3052900D01*
X64050000Y-3052703D01*
X63550000Y-3052703D01*
X63547503Y-3052900D01*
X63389806Y-3098716D01*
X63389803Y-3098717D01*
X63248449Y-3182313D01*
X63248439Y-3182321D01*
X63209208Y-3221551D01*
X63147884Y-3255035D01*
X63092578Y-3251650D01*
X63092073Y-3253964D01*
X63084699Y-3252353D01*
X63054270Y-3249500D01*
X63054266Y-3249500D01*
X62645734Y-3249500D01*
X62645730Y-3249500D01*
X62615300Y-3252353D01*
X62615298Y-3252353D01*
X62487114Y-3297208D01*
X62481934Y-3299946D01*
X62413465Y-3313865D01*
X62348340Y-3288556D01*
X62307236Y-3232056D01*
X62299999Y-3190313D01*
X62299999Y-3162779D01*
X62293897Y-3095618D01*
X62293895Y-3095613D01*
X62245733Y-2941055D01*
X62245730Y-2941047D01*
X62161980Y-2802506D01*
X62161976Y-2802501D01*
X62047498Y-2688023D01*
X62047493Y-2688019D01*
X61908952Y-2604269D01*
X61908947Y-2604267D01*
X61754390Y-2556105D01*
X61754382Y-2556103D01*
X61687210Y-2550000D01*
X61150000Y-2550000D01*
X61150000Y-3676000D01*
X61130315Y-3743039D01*
X61077511Y-3788794D01*
X61026000Y-3800000D01*
X59500001Y-3800000D01*
X59500001Y-3937220D01*
X51217261Y-3937220D01*
X51343919Y-3816823D01*
X51454353Y-3658158D01*
X51530587Y-3480512D01*
X51569500Y-3291156D01*
X51569500Y-3150000D01*
X55894318Y-3150000D01*
X55898968Y-3185328D01*
X55898969Y-3185330D01*
X55899500Y-3193431D01*
X55899500Y-3431517D01*
X55910292Y-3499657D01*
X55914354Y-3525304D01*
X55971950Y-3638342D01*
X55971952Y-3638344D01*
X55971954Y-3638347D01*
X56061652Y-3728045D01*
X56061654Y-3728046D01*
X56061658Y-3728050D01*
X56174694Y-3785645D01*
X56174698Y-3785647D01*
X56268475Y-3800499D01*
X56268481Y-3800500D01*
X58131518Y-3800499D01*
X58225304Y-3785646D01*
X58338342Y-3728050D01*
X58428050Y-3638342D01*
X58485646Y-3525304D01*
X58485646Y-3525302D01*
X58485647Y-3525301D01*
X58500499Y-3431524D01*
X58500500Y-3431519D01*
X58500499Y-3299999D01*
X59499999Y-3299999D01*
X59500000Y-3300000D01*
X60650000Y-3300000D01*
X60650000Y-2550000D01*
X60112779Y-2550000D01*
X60045620Y-2556102D01*
X60045613Y-2556104D01*
X59891055Y-2604266D01*
X59891047Y-2604269D01*
X59752506Y-2688019D01*
X59752501Y-2688023D01*
X59638023Y-2802501D01*
X59638019Y-2802506D01*
X59554269Y-2941047D01*
X59554267Y-2941052D01*
X59506105Y-3095609D01*
X59506103Y-3095617D01*
X59500000Y-3162789D01*
X59499999Y-3299999D01*
X58500499Y-3299999D01*
X58500499Y-3193430D01*
X58501030Y-3185328D01*
X58501427Y-3182313D01*
X58505682Y-3150000D01*
X58501029Y-3114661D01*
X58500499Y-3106567D01*
X58500499Y-2393434D01*
X58501030Y-2385333D01*
X58505682Y-2350000D01*
X58501027Y-2314648D01*
X58500499Y-2306579D01*
X58500499Y-2118482D01*
X58485646Y-2024696D01*
X58428050Y-1911658D01*
X58428046Y-1911654D01*
X58428045Y-1911652D01*
X58338347Y-1821954D01*
X58338344Y-1821952D01*
X58338342Y-1821950D01*
X58261517Y-1782805D01*
X58225301Y-1764352D01*
X58131524Y-1749500D01*
X58131519Y-1749500D01*
X57943429Y-1749500D01*
X57935330Y-1748969D01*
X57913733Y-1746126D01*
X57900001Y-1744318D01*
X57899999Y-1744318D01*
X57864671Y-1748969D01*
X57856570Y-1749500D01*
X56268482Y-1749500D01*
X56187519Y-1762323D01*
X56174696Y-1764354D01*
X56061658Y-1821950D01*
X56061657Y-1821951D01*
X56061652Y-1821954D01*
X55971954Y-1911652D01*
X55971951Y-1911657D01*
X55971950Y-1911658D01*
X55959173Y-1936734D01*
X55914352Y-2024698D01*
X55899500Y-2118475D01*
X55899500Y-3106561D01*
X55898969Y-3114661D01*
X55894384Y-3149500D01*
X55894318Y-3150000D01*
X51569500Y-3150000D01*
X51569500Y-2746294D01*
X51563575Y-2688023D01*
X51554845Y-2602177D01*
X51496977Y-2417740D01*
X51496975Y-2417736D01*
X51496974Y-2417732D01*
X51403159Y-2248709D01*
X51403158Y-2248708D01*
X51403157Y-2248706D01*
X51277241Y-2102033D01*
X51277240Y-2102031D01*
X51124375Y-1983705D01*
X51124371Y-1983703D01*
X51102358Y-1972905D01*
X50950816Y-1898570D01*
X50950814Y-1898569D01*
X50950811Y-1898568D01*
X50950813Y-1898568D01*
X50763682Y-1850116D01*
X50763676Y-1850115D01*
X50634964Y-1843587D01*
X50570610Y-1840324D01*
X50570609Y-1840324D01*
X50570607Y-1840324D01*
X50379533Y-1869595D01*
X50379521Y-1869598D01*
X50198251Y-1936734D01*
X50198242Y-1936738D01*
X50034196Y-2038988D01*
X49894080Y-2172177D01*
X49783646Y-2330842D01*
X49707413Y-2508487D01*
X49668500Y-2697843D01*
X49668500Y-3242707D01*
X42929500Y-3242707D01*
X42929500Y-2746294D01*
X42923575Y-2688023D01*
X42914845Y-2602177D01*
X42856977Y-2417740D01*
X42856975Y-2417736D01*
X42856974Y-2417732D01*
X42763159Y-2248709D01*
X42763158Y-2248708D01*
X42763157Y-2248706D01*
X42637241Y-2102033D01*
X42637240Y-2102031D01*
X42484375Y-1983705D01*
X42484371Y-1983703D01*
X42462358Y-1972905D01*
X42310816Y-1898570D01*
X42310814Y-1898569D01*
X42310811Y-1898568D01*
X42310813Y-1898568D01*
X42123682Y-1850116D01*
X42123676Y-1850115D01*
X41994964Y-1843587D01*
X41930610Y-1840324D01*
X41930609Y-1840324D01*
X41930607Y-1840324D01*
X41739533Y-1869595D01*
X41739521Y-1869598D01*
X41558251Y-1936734D01*
X41558242Y-1936738D01*
X41394196Y-2038988D01*
X41254080Y-2172177D01*
X41143646Y-2330842D01*
X41067413Y-2508487D01*
X41028500Y-2697843D01*
X41028500Y-3242707D01*
X37599500Y-3242707D01*
X37599500Y-2154258D01*
X37597868Y-2138204D01*
X37584074Y-2002560D01*
X37523162Y-1808420D01*
X37523160Y-1808416D01*
X37523159Y-1808412D01*
X37424409Y-1630498D01*
X37424408Y-1630497D01*
X37424407Y-1630495D01*
X37291867Y-1476106D01*
X37291865Y-1476104D01*
X37130962Y-1351554D01*
X37130959Y-1351553D01*
X37130958Y-1351552D01*
X36948271Y-1261940D01*
X36751285Y-1210937D01*
X36751287Y-1210937D01*
X36615804Y-1204066D01*
X36548064Y-1200631D01*
X36548063Y-1200631D01*
X36548061Y-1200631D01*
X36346936Y-1231442D01*
X36346924Y-1231445D01*
X36156118Y-1302111D01*
X36156111Y-1302115D01*
X35983432Y-1409745D01*
X35983427Y-1409749D01*
X35835949Y-1549938D01*
X35835947Y-1549940D01*
X35835947Y-1549941D01*
X35824037Y-1567053D01*
X35719705Y-1716949D01*
X35639459Y-1903943D01*
X35598500Y-2103258D01*
X35598500Y-3355743D01*
X24797500Y-3355743D01*
X24797500Y-2205258D01*
X24796966Y-2200000D01*
X24782074Y-2053560D01*
X24721162Y-1859420D01*
X24721160Y-1859416D01*
X24721159Y-1859412D01*
X24622409Y-1681498D01*
X24622408Y-1681497D01*
X24622407Y-1681495D01*
X24489867Y-1527106D01*
X24489865Y-1527104D01*
X24328962Y-1402554D01*
X24328959Y-1402553D01*
X24328958Y-1402552D01*
X24146271Y-1312940D01*
X23949285Y-1261937D01*
X23949287Y-1261937D01*
X23807251Y-1254734D01*
X23746064Y-1251631D01*
X23746063Y-1251631D01*
X23746061Y-1251631D01*
X23544936Y-1282442D01*
X23544924Y-1282445D01*
X23354118Y-1353111D01*
X23354111Y-1353115D01*
X23181432Y-1460745D01*
X23181427Y-1460749D01*
X23033949Y-1600938D01*
X23033948Y-1600940D01*
X22917705Y-1767949D01*
X22837459Y-1954943D01*
X22796500Y-2154258D01*
X22796500Y-3406743D01*
X19690500Y-3406743D01*
X19690500Y-2318758D01*
X19688129Y-2295436D01*
X19675074Y-2167060D01*
X19614162Y-1972920D01*
X19614160Y-1972916D01*
X19614159Y-1972912D01*
X19515409Y-1794998D01*
X19515408Y-1794997D01*
X19515407Y-1794995D01*
X19382867Y-1640606D01*
X19382865Y-1640604D01*
X19221962Y-1516054D01*
X19221959Y-1516053D01*
X19221958Y-1516052D01*
X19039271Y-1426440D01*
X18842285Y-1375437D01*
X18842287Y-1375437D01*
X18706804Y-1368566D01*
X18639064Y-1365131D01*
X18639063Y-1365131D01*
X18639061Y-1365131D01*
X18437936Y-1395942D01*
X18437924Y-1395945D01*
X18247118Y-1466611D01*
X18247111Y-1466615D01*
X18074432Y-1574245D01*
X18074427Y-1574249D01*
X17926949Y-1714438D01*
X17926947Y-1714440D01*
X17926947Y-1714441D01*
X17922982Y-1720138D01*
X17810705Y-1881449D01*
X17730459Y-2068443D01*
X17689500Y-2267758D01*
X17689500Y-3520243D01*
X6888500Y-3520243D01*
X6888500Y-2369758D01*
X6884239Y-2327850D01*
X6873074Y-2218060D01*
X6812162Y-2023920D01*
X6812160Y-2023916D01*
X6812159Y-2023912D01*
X6713409Y-1845998D01*
X6713408Y-1845997D01*
X6713407Y-1845995D01*
X6580867Y-1691606D01*
X6580865Y-1691604D01*
X6419962Y-1567054D01*
X6419959Y-1567053D01*
X6419958Y-1567052D01*
X6237271Y-1477440D01*
X6040285Y-1426437D01*
X6040287Y-1426437D01*
X5904804Y-1419566D01*
X5837064Y-1416131D01*
X5837063Y-1416131D01*
X5837061Y-1416131D01*
X5635936Y-1446942D01*
X5635924Y-1446945D01*
X5445118Y-1517611D01*
X5445111Y-1517615D01*
X5272432Y-1625245D01*
X5272427Y-1625249D01*
X5124949Y-1765438D01*
X5124947Y-1765440D01*
X5124947Y-1765441D01*
X5123200Y-1767951D01*
X5008705Y-1932449D01*
X4928459Y-2119443D01*
X4887500Y-2318758D01*
X4887500Y-3571243D01*
X3317834Y-3571243D01*
X3402845Y-3502081D01*
X3594312Y-3297069D01*
X3756081Y-3067896D01*
X3885136Y-2818830D01*
X3979075Y-2554511D01*
X3979076Y-2554504D01*
X3979078Y-2554499D01*
X4017467Y-2369758D01*
X4036148Y-2279862D01*
X4055291Y-2000000D01*
X4036148Y-1720138D01*
X4016429Y-1625245D01*
X3979078Y-1445500D01*
X3979073Y-1445483D01*
X3928120Y-1302115D01*
X3885136Y-1181170D01*
X3756081Y-932104D01*
X3594312Y-702931D01*
X3594309Y-702927D01*
X3594161Y-702746D01*
X3594132Y-702676D01*
X3591869Y-699471D01*
X3592577Y-698971D01*
X3567129Y-638317D01*
X3579221Y-569502D01*
X3626598Y-518148D01*
X3690357Y-500500D01*
X98053671Y-500500D01*
X98120710Y-520185D01*
G37*
%TD.AperFunction*%
%TD*%
M02*
