%TF.GenerationSoftware,KiCad,Pcbnew,7.0.6*%
%TF.CreationDate,2023-09-06T00:42:42+01:00*%
%TF.ProjectId,MoonHub,4d6f6f6e-4875-4622-9e6b-696361645f70,rev?*%
%TF.SameCoordinates,Original*%
%TF.FileFunction,Legend,Top*%
%TF.FilePolarity,Positive*%
%FSLAX46Y46*%
G04 Gerber Fmt 4.6, Leading zero omitted, Abs format (unit mm)*
G04 Created by KiCad (PCBNEW 7.0.6) date 2023-09-06 00:42:42*
%MOMM*%
%LPD*%
G01*
G04 APERTURE LIST*
G04 Aperture macros list*
%AMRoundRect*
0 Rectangle with rounded corners*
0 $1 Rounding radius*
0 $2 $3 $4 $5 $6 $7 $8 $9 X,Y pos of 4 corners*
0 Add a 4 corners polygon primitive as box body*
4,1,4,$2,$3,$4,$5,$6,$7,$8,$9,$2,$3,0*
0 Add four circle primitives for the rounded corners*
1,1,$1+$1,$2,$3*
1,1,$1+$1,$4,$5*
1,1,$1+$1,$6,$7*
1,1,$1+$1,$8,$9*
0 Add four rect primitives between the rounded corners*
20,1,$1+$1,$2,$3,$4,$5,0*
20,1,$1+$1,$4,$5,$6,$7,0*
20,1,$1+$1,$6,$7,$8,$9,0*
20,1,$1+$1,$8,$9,$2,$3,0*%
G04 Aperture macros list end*
%ADD10C,0.152000*%
%ADD11C,0.150000*%
%ADD12C,0.254000*%
%ADD13C,0.120000*%
%ADD14RoundRect,0.038000X-0.700000X-1.400000X0.700000X-1.400000X0.700000X1.400000X-0.700000X1.400000X0*%
%ADD15O,1.476000X2.576000*%
%ADD16C,0.726000*%
%ADD17RoundRect,0.098000X0.240000X0.665000X-0.240000X0.665000X-0.240000X-0.665000X0.240000X-0.665000X0*%
%ADD18RoundRect,0.098000X0.090000X0.665000X-0.090000X0.665000X-0.090000X-0.665000X0.090000X-0.665000X0*%
%ADD19O,1.176000X2.276000*%
%ADD20O,1.376000X1.776000*%
%ADD21RoundRect,0.100000X-0.400000X0.250000X-0.400000X-0.250000X0.400000X-0.250000X0.400000X0.250000X0*%
%ADD22RoundRect,0.125000X-0.475000X0.250000X-0.475000X-0.250000X0.475000X-0.250000X0.475000X0.250000X0*%
%ADD23RoundRect,0.178000X-0.170000X0.140000X-0.170000X-0.140000X0.170000X-0.140000X0.170000X0.140000X0*%
%ADD24RoundRect,0.256750X0.381250X-0.218750X0.381250X0.218750X-0.381250X0.218750X-0.381250X-0.218750X0*%
%ADD25RoundRect,0.178000X0.140000X0.170000X-0.140000X0.170000X-0.140000X-0.170000X0.140000X-0.170000X0*%
%ADD26RoundRect,0.178000X0.170000X-0.140000X0.170000X0.140000X-0.170000X0.140000X-0.170000X-0.140000X0*%
%ADD27RoundRect,0.038000X-0.700000X0.600000X-0.700000X-0.600000X0.700000X-0.600000X0.700000X0.600000X0*%
%ADD28RoundRect,0.173000X0.135000X0.185000X-0.135000X0.185000X-0.135000X-0.185000X0.135000X-0.185000X0*%
%ADD29RoundRect,0.173000X-0.135000X-0.185000X0.135000X-0.185000X0.135000X0.185000X-0.135000X0.185000X0*%
%ADD30RoundRect,0.038000X-0.600000X-0.200000X0.600000X-0.200000X0.600000X0.200000X-0.600000X0.200000X0*%
%ADD31RoundRect,0.238000X0.200000X0.275000X-0.200000X0.275000X-0.200000X-0.275000X0.200000X-0.275000X0*%
%ADD32RoundRect,0.038000X-0.700000X-0.600000X0.700000X-0.600000X0.700000X0.600000X-0.700000X0.600000X0*%
%ADD33RoundRect,0.288000X-0.325000X-0.650000X0.325000X-0.650000X0.325000X0.650000X-0.325000X0.650000X0*%
%ADD34C,3.576001*%
%ADD35RoundRect,0.188000X0.475000X0.150000X-0.475000X0.150000X-0.475000X-0.150000X0.475000X-0.150000X0*%
%ADD36RoundRect,0.188000X-0.512500X-0.150000X0.512500X-0.150000X0.512500X0.150000X-0.512500X0.150000X0*%
%ADD37RoundRect,0.188000X-0.475000X-0.150000X0.475000X-0.150000X0.475000X0.150000X-0.475000X0.150000X0*%
%ADD38RoundRect,0.188000X0.150000X-0.475000X0.150000X0.475000X-0.150000X0.475000X-0.150000X-0.475000X0*%
G04 APERTURE END LIST*
D10*
X11726142Y-11677369D02*
X11726142Y-12602655D01*
X11726142Y-12602655D02*
X11780571Y-12711512D01*
X11780571Y-12711512D02*
X11835000Y-12765941D01*
X11835000Y-12765941D02*
X11943857Y-12820369D01*
X11943857Y-12820369D02*
X12161571Y-12820369D01*
X12161571Y-12820369D02*
X12270428Y-12765941D01*
X12270428Y-12765941D02*
X12324857Y-12711512D01*
X12324857Y-12711512D02*
X12379285Y-12602655D01*
X12379285Y-12602655D02*
X12379285Y-11677369D01*
X12869143Y-12765941D02*
X13032429Y-12820369D01*
X13032429Y-12820369D02*
X13304571Y-12820369D01*
X13304571Y-12820369D02*
X13413429Y-12765941D01*
X13413429Y-12765941D02*
X13467857Y-12711512D01*
X13467857Y-12711512D02*
X13522286Y-12602655D01*
X13522286Y-12602655D02*
X13522286Y-12493798D01*
X13522286Y-12493798D02*
X13467857Y-12384941D01*
X13467857Y-12384941D02*
X13413429Y-12330512D01*
X13413429Y-12330512D02*
X13304571Y-12276083D01*
X13304571Y-12276083D02*
X13086857Y-12221655D01*
X13086857Y-12221655D02*
X12978000Y-12167226D01*
X12978000Y-12167226D02*
X12923571Y-12112798D01*
X12923571Y-12112798D02*
X12869143Y-12003941D01*
X12869143Y-12003941D02*
X12869143Y-11895083D01*
X12869143Y-11895083D02*
X12923571Y-11786226D01*
X12923571Y-11786226D02*
X12978000Y-11731798D01*
X12978000Y-11731798D02*
X13086857Y-11677369D01*
X13086857Y-11677369D02*
X13359000Y-11677369D01*
X13359000Y-11677369D02*
X13522286Y-11731798D01*
X14393142Y-12221655D02*
X14556428Y-12276083D01*
X14556428Y-12276083D02*
X14610857Y-12330512D01*
X14610857Y-12330512D02*
X14665285Y-12439369D01*
X14665285Y-12439369D02*
X14665285Y-12602655D01*
X14665285Y-12602655D02*
X14610857Y-12711512D01*
X14610857Y-12711512D02*
X14556428Y-12765941D01*
X14556428Y-12765941D02*
X14447571Y-12820369D01*
X14447571Y-12820369D02*
X14012142Y-12820369D01*
X14012142Y-12820369D02*
X14012142Y-11677369D01*
X14012142Y-11677369D02*
X14393142Y-11677369D01*
X14393142Y-11677369D02*
X14502000Y-11731798D01*
X14502000Y-11731798D02*
X14556428Y-11786226D01*
X14556428Y-11786226D02*
X14610857Y-11895083D01*
X14610857Y-11895083D02*
X14610857Y-12003941D01*
X14610857Y-12003941D02*
X14556428Y-12112798D01*
X14556428Y-12112798D02*
X14502000Y-12167226D01*
X14502000Y-12167226D02*
X14393142Y-12221655D01*
X14393142Y-12221655D02*
X14012142Y-12221655D01*
X15699428Y-11677369D02*
X15155142Y-11677369D01*
X15155142Y-11677369D02*
X15100714Y-12221655D01*
X15100714Y-12221655D02*
X15155142Y-12167226D01*
X15155142Y-12167226D02*
X15264000Y-12112798D01*
X15264000Y-12112798D02*
X15536142Y-12112798D01*
X15536142Y-12112798D02*
X15645000Y-12167226D01*
X15645000Y-12167226D02*
X15699428Y-12221655D01*
X15699428Y-12221655D02*
X15753857Y-12330512D01*
X15753857Y-12330512D02*
X15753857Y-12602655D01*
X15753857Y-12602655D02*
X15699428Y-12711512D01*
X15699428Y-12711512D02*
X15645000Y-12765941D01*
X15645000Y-12765941D02*
X15536142Y-12820369D01*
X15536142Y-12820369D02*
X15264000Y-12820369D01*
X15264000Y-12820369D02*
X15155142Y-12765941D01*
X15155142Y-12765941D02*
X15100714Y-12711512D01*
X36726142Y-11677369D02*
X36726142Y-12602655D01*
X36726142Y-12602655D02*
X36780571Y-12711512D01*
X36780571Y-12711512D02*
X36835000Y-12765941D01*
X36835000Y-12765941D02*
X36943857Y-12820369D01*
X36943857Y-12820369D02*
X37161571Y-12820369D01*
X37161571Y-12820369D02*
X37270428Y-12765941D01*
X37270428Y-12765941D02*
X37324857Y-12711512D01*
X37324857Y-12711512D02*
X37379285Y-12602655D01*
X37379285Y-12602655D02*
X37379285Y-11677369D01*
X37869143Y-12765941D02*
X38032429Y-12820369D01*
X38032429Y-12820369D02*
X38304571Y-12820369D01*
X38304571Y-12820369D02*
X38413429Y-12765941D01*
X38413429Y-12765941D02*
X38467857Y-12711512D01*
X38467857Y-12711512D02*
X38522286Y-12602655D01*
X38522286Y-12602655D02*
X38522286Y-12493798D01*
X38522286Y-12493798D02*
X38467857Y-12384941D01*
X38467857Y-12384941D02*
X38413429Y-12330512D01*
X38413429Y-12330512D02*
X38304571Y-12276083D01*
X38304571Y-12276083D02*
X38086857Y-12221655D01*
X38086857Y-12221655D02*
X37978000Y-12167226D01*
X37978000Y-12167226D02*
X37923571Y-12112798D01*
X37923571Y-12112798D02*
X37869143Y-12003941D01*
X37869143Y-12003941D02*
X37869143Y-11895083D01*
X37869143Y-11895083D02*
X37923571Y-11786226D01*
X37923571Y-11786226D02*
X37978000Y-11731798D01*
X37978000Y-11731798D02*
X38086857Y-11677369D01*
X38086857Y-11677369D02*
X38359000Y-11677369D01*
X38359000Y-11677369D02*
X38522286Y-11731798D01*
X39393142Y-12221655D02*
X39556428Y-12276083D01*
X39556428Y-12276083D02*
X39610857Y-12330512D01*
X39610857Y-12330512D02*
X39665285Y-12439369D01*
X39665285Y-12439369D02*
X39665285Y-12602655D01*
X39665285Y-12602655D02*
X39610857Y-12711512D01*
X39610857Y-12711512D02*
X39556428Y-12765941D01*
X39556428Y-12765941D02*
X39447571Y-12820369D01*
X39447571Y-12820369D02*
X39012142Y-12820369D01*
X39012142Y-12820369D02*
X39012142Y-11677369D01*
X39012142Y-11677369D02*
X39393142Y-11677369D01*
X39393142Y-11677369D02*
X39502000Y-11731798D01*
X39502000Y-11731798D02*
X39556428Y-11786226D01*
X39556428Y-11786226D02*
X39610857Y-11895083D01*
X39610857Y-11895083D02*
X39610857Y-12003941D01*
X39610857Y-12003941D02*
X39556428Y-12112798D01*
X39556428Y-12112798D02*
X39502000Y-12167226D01*
X39502000Y-12167226D02*
X39393142Y-12221655D01*
X39393142Y-12221655D02*
X39012142Y-12221655D01*
X40645000Y-12058369D02*
X40645000Y-12820369D01*
X40372857Y-11622941D02*
X40100714Y-12439369D01*
X40100714Y-12439369D02*
X40808285Y-12439369D01*
D11*
X59709524Y-8811295D02*
X59709524Y-9458914D01*
X59709524Y-9458914D02*
X59747619Y-9535104D01*
X59747619Y-9535104D02*
X59785714Y-9573200D01*
X59785714Y-9573200D02*
X59861905Y-9611295D01*
X59861905Y-9611295D02*
X60014286Y-9611295D01*
X60014286Y-9611295D02*
X60090476Y-9573200D01*
X60090476Y-9573200D02*
X60128571Y-9535104D01*
X60128571Y-9535104D02*
X60166667Y-9458914D01*
X60166667Y-9458914D02*
X60166667Y-8811295D01*
X60509523Y-9573200D02*
X60623809Y-9611295D01*
X60623809Y-9611295D02*
X60814285Y-9611295D01*
X60814285Y-9611295D02*
X60890476Y-9573200D01*
X60890476Y-9573200D02*
X60928571Y-9535104D01*
X60928571Y-9535104D02*
X60966666Y-9458914D01*
X60966666Y-9458914D02*
X60966666Y-9382723D01*
X60966666Y-9382723D02*
X60928571Y-9306533D01*
X60928571Y-9306533D02*
X60890476Y-9268438D01*
X60890476Y-9268438D02*
X60814285Y-9230342D01*
X60814285Y-9230342D02*
X60661904Y-9192247D01*
X60661904Y-9192247D02*
X60585714Y-9154152D01*
X60585714Y-9154152D02*
X60547619Y-9116057D01*
X60547619Y-9116057D02*
X60509523Y-9039866D01*
X60509523Y-9039866D02*
X60509523Y-8963676D01*
X60509523Y-8963676D02*
X60547619Y-8887485D01*
X60547619Y-8887485D02*
X60585714Y-8849390D01*
X60585714Y-8849390D02*
X60661904Y-8811295D01*
X60661904Y-8811295D02*
X60852381Y-8811295D01*
X60852381Y-8811295D02*
X60966666Y-8849390D01*
X61576190Y-9192247D02*
X61690476Y-9230342D01*
X61690476Y-9230342D02*
X61728571Y-9268438D01*
X61728571Y-9268438D02*
X61766667Y-9344628D01*
X61766667Y-9344628D02*
X61766667Y-9458914D01*
X61766667Y-9458914D02*
X61728571Y-9535104D01*
X61728571Y-9535104D02*
X61690476Y-9573200D01*
X61690476Y-9573200D02*
X61614286Y-9611295D01*
X61614286Y-9611295D02*
X61309524Y-9611295D01*
X61309524Y-9611295D02*
X61309524Y-8811295D01*
X61309524Y-8811295D02*
X61576190Y-8811295D01*
X61576190Y-8811295D02*
X61652381Y-8849390D01*
X61652381Y-8849390D02*
X61690476Y-8887485D01*
X61690476Y-8887485D02*
X61728571Y-8963676D01*
X61728571Y-8963676D02*
X61728571Y-9039866D01*
X61728571Y-9039866D02*
X61690476Y-9116057D01*
X61690476Y-9116057D02*
X61652381Y-9154152D01*
X61652381Y-9154152D02*
X61576190Y-9192247D01*
X61576190Y-9192247D02*
X61309524Y-9192247D01*
X62033333Y-8811295D02*
X62528571Y-8811295D01*
X62528571Y-8811295D02*
X62261905Y-9116057D01*
X62261905Y-9116057D02*
X62376190Y-9116057D01*
X62376190Y-9116057D02*
X62452381Y-9154152D01*
X62452381Y-9154152D02*
X62490476Y-9192247D01*
X62490476Y-9192247D02*
X62528571Y-9268438D01*
X62528571Y-9268438D02*
X62528571Y-9458914D01*
X62528571Y-9458914D02*
X62490476Y-9535104D01*
X62490476Y-9535104D02*
X62452381Y-9573200D01*
X62452381Y-9573200D02*
X62376190Y-9611295D01*
X62376190Y-9611295D02*
X62147619Y-9611295D01*
X62147619Y-9611295D02*
X62071428Y-9573200D01*
X62071428Y-9573200D02*
X62033333Y-9535104D01*
X155747024Y-8811295D02*
X155747024Y-9458914D01*
X155747024Y-9458914D02*
X155785119Y-9535104D01*
X155785119Y-9535104D02*
X155823214Y-9573200D01*
X155823214Y-9573200D02*
X155899405Y-9611295D01*
X155899405Y-9611295D02*
X156051786Y-9611295D01*
X156051786Y-9611295D02*
X156127976Y-9573200D01*
X156127976Y-9573200D02*
X156166071Y-9535104D01*
X156166071Y-9535104D02*
X156204167Y-9458914D01*
X156204167Y-9458914D02*
X156204167Y-8811295D01*
X156547023Y-9573200D02*
X156661309Y-9611295D01*
X156661309Y-9611295D02*
X156851785Y-9611295D01*
X156851785Y-9611295D02*
X156927976Y-9573200D01*
X156927976Y-9573200D02*
X156966071Y-9535104D01*
X156966071Y-9535104D02*
X157004166Y-9458914D01*
X157004166Y-9458914D02*
X157004166Y-9382723D01*
X157004166Y-9382723D02*
X156966071Y-9306533D01*
X156966071Y-9306533D02*
X156927976Y-9268438D01*
X156927976Y-9268438D02*
X156851785Y-9230342D01*
X156851785Y-9230342D02*
X156699404Y-9192247D01*
X156699404Y-9192247D02*
X156623214Y-9154152D01*
X156623214Y-9154152D02*
X156585119Y-9116057D01*
X156585119Y-9116057D02*
X156547023Y-9039866D01*
X156547023Y-9039866D02*
X156547023Y-8963676D01*
X156547023Y-8963676D02*
X156585119Y-8887485D01*
X156585119Y-8887485D02*
X156623214Y-8849390D01*
X156623214Y-8849390D02*
X156699404Y-8811295D01*
X156699404Y-8811295D02*
X156889881Y-8811295D01*
X156889881Y-8811295D02*
X157004166Y-8849390D01*
X157613690Y-9192247D02*
X157727976Y-9230342D01*
X157727976Y-9230342D02*
X157766071Y-9268438D01*
X157766071Y-9268438D02*
X157804167Y-9344628D01*
X157804167Y-9344628D02*
X157804167Y-9458914D01*
X157804167Y-9458914D02*
X157766071Y-9535104D01*
X157766071Y-9535104D02*
X157727976Y-9573200D01*
X157727976Y-9573200D02*
X157651786Y-9611295D01*
X157651786Y-9611295D02*
X157347024Y-9611295D01*
X157347024Y-9611295D02*
X157347024Y-8811295D01*
X157347024Y-8811295D02*
X157613690Y-8811295D01*
X157613690Y-8811295D02*
X157689881Y-8849390D01*
X157689881Y-8849390D02*
X157727976Y-8887485D01*
X157727976Y-8887485D02*
X157766071Y-8963676D01*
X157766071Y-8963676D02*
X157766071Y-9039866D01*
X157766071Y-9039866D02*
X157727976Y-9116057D01*
X157727976Y-9116057D02*
X157689881Y-9154152D01*
X157689881Y-9154152D02*
X157613690Y-9192247D01*
X157613690Y-9192247D02*
X157347024Y-9192247D01*
X158566071Y-9611295D02*
X158108928Y-9611295D01*
X158337500Y-9611295D02*
X158337500Y-8811295D01*
X158337500Y-8811295D02*
X158261309Y-8925580D01*
X158261309Y-8925580D02*
X158185119Y-9001771D01*
X158185119Y-9001771D02*
X158108928Y-9039866D01*
X128654819Y-6538094D02*
X129464342Y-6538094D01*
X129464342Y-6538094D02*
X129559580Y-6490475D01*
X129559580Y-6490475D02*
X129607200Y-6442856D01*
X129607200Y-6442856D02*
X129654819Y-6347618D01*
X129654819Y-6347618D02*
X129654819Y-6157142D01*
X129654819Y-6157142D02*
X129607200Y-6061904D01*
X129607200Y-6061904D02*
X129559580Y-6014285D01*
X129559580Y-6014285D02*
X129464342Y-5966666D01*
X129464342Y-5966666D02*
X128654819Y-5966666D01*
X129607200Y-5538094D02*
X129654819Y-5395237D01*
X129654819Y-5395237D02*
X129654819Y-5157142D01*
X129654819Y-5157142D02*
X129607200Y-5061904D01*
X129607200Y-5061904D02*
X129559580Y-5014285D01*
X129559580Y-5014285D02*
X129464342Y-4966666D01*
X129464342Y-4966666D02*
X129369104Y-4966666D01*
X129369104Y-4966666D02*
X129273866Y-5014285D01*
X129273866Y-5014285D02*
X129226247Y-5061904D01*
X129226247Y-5061904D02*
X129178628Y-5157142D01*
X129178628Y-5157142D02*
X129131009Y-5347618D01*
X129131009Y-5347618D02*
X129083390Y-5442856D01*
X129083390Y-5442856D02*
X129035771Y-5490475D01*
X129035771Y-5490475D02*
X128940533Y-5538094D01*
X128940533Y-5538094D02*
X128845295Y-5538094D01*
X128845295Y-5538094D02*
X128750057Y-5490475D01*
X128750057Y-5490475D02*
X128702438Y-5442856D01*
X128702438Y-5442856D02*
X128654819Y-5347618D01*
X128654819Y-5347618D02*
X128654819Y-5109523D01*
X128654819Y-5109523D02*
X128702438Y-4966666D01*
X129131009Y-4204761D02*
X129178628Y-4061904D01*
X129178628Y-4061904D02*
X129226247Y-4014285D01*
X129226247Y-4014285D02*
X129321485Y-3966666D01*
X129321485Y-3966666D02*
X129464342Y-3966666D01*
X129464342Y-3966666D02*
X129559580Y-4014285D01*
X129559580Y-4014285D02*
X129607200Y-4061904D01*
X129607200Y-4061904D02*
X129654819Y-4157142D01*
X129654819Y-4157142D02*
X129654819Y-4538094D01*
X129654819Y-4538094D02*
X128654819Y-4538094D01*
X128654819Y-4538094D02*
X128654819Y-4204761D01*
X128654819Y-4204761D02*
X128702438Y-4109523D01*
X128702438Y-4109523D02*
X128750057Y-4061904D01*
X128750057Y-4061904D02*
X128845295Y-4014285D01*
X128845295Y-4014285D02*
X128940533Y-4014285D01*
X128940533Y-4014285D02*
X129035771Y-4061904D01*
X129035771Y-4061904D02*
X129083390Y-4109523D01*
X129083390Y-4109523D02*
X129131009Y-4204761D01*
X129131009Y-4204761D02*
X129131009Y-4538094D01*
X128750057Y-3585713D02*
X128702438Y-3538094D01*
X128702438Y-3538094D02*
X128654819Y-3442856D01*
X128654819Y-3442856D02*
X128654819Y-3204761D01*
X128654819Y-3204761D02*
X128702438Y-3109523D01*
X128702438Y-3109523D02*
X128750057Y-3061904D01*
X128750057Y-3061904D02*
X128845295Y-3014285D01*
X128845295Y-3014285D02*
X128940533Y-3014285D01*
X128940533Y-3014285D02*
X129083390Y-3061904D01*
X129083390Y-3061904D02*
X129654819Y-3633332D01*
X129654819Y-3633332D02*
X129654819Y-3014285D01*
X142119580Y-2891666D02*
X142167200Y-2939285D01*
X142167200Y-2939285D02*
X142214819Y-3082142D01*
X142214819Y-3082142D02*
X142214819Y-3177380D01*
X142214819Y-3177380D02*
X142167200Y-3320237D01*
X142167200Y-3320237D02*
X142071961Y-3415475D01*
X142071961Y-3415475D02*
X141976723Y-3463094D01*
X141976723Y-3463094D02*
X141786247Y-3510713D01*
X141786247Y-3510713D02*
X141643390Y-3510713D01*
X141643390Y-3510713D02*
X141452914Y-3463094D01*
X141452914Y-3463094D02*
X141357676Y-3415475D01*
X141357676Y-3415475D02*
X141262438Y-3320237D01*
X141262438Y-3320237D02*
X141214819Y-3177380D01*
X141214819Y-3177380D02*
X141214819Y-3082142D01*
X141214819Y-3082142D02*
X141262438Y-2939285D01*
X141262438Y-2939285D02*
X141310057Y-2891666D01*
X141214819Y-2558332D02*
X141214819Y-1891666D01*
X141214819Y-1891666D02*
X142214819Y-2320237D01*
X65781009Y-8674833D02*
X65781009Y-9008166D01*
X66304819Y-9008166D02*
X65304819Y-9008166D01*
X65304819Y-9008166D02*
X65304819Y-8531976D01*
X65781009Y-7817690D02*
X65828628Y-7674833D01*
X65828628Y-7674833D02*
X65876247Y-7627214D01*
X65876247Y-7627214D02*
X65971485Y-7579595D01*
X65971485Y-7579595D02*
X66114342Y-7579595D01*
X66114342Y-7579595D02*
X66209580Y-7627214D01*
X66209580Y-7627214D02*
X66257200Y-7674833D01*
X66257200Y-7674833D02*
X66304819Y-7770071D01*
X66304819Y-7770071D02*
X66304819Y-8151023D01*
X66304819Y-8151023D02*
X65304819Y-8151023D01*
X65304819Y-8151023D02*
X65304819Y-7817690D01*
X65304819Y-7817690D02*
X65352438Y-7722452D01*
X65352438Y-7722452D02*
X65400057Y-7674833D01*
X65400057Y-7674833D02*
X65495295Y-7627214D01*
X65495295Y-7627214D02*
X65590533Y-7627214D01*
X65590533Y-7627214D02*
X65685771Y-7674833D01*
X65685771Y-7674833D02*
X65733390Y-7722452D01*
X65733390Y-7722452D02*
X65781009Y-7817690D01*
X65781009Y-7817690D02*
X65781009Y-8151023D01*
X65638152Y-6722452D02*
X66304819Y-6722452D01*
X65257200Y-6960547D02*
X65971485Y-7198642D01*
X65971485Y-7198642D02*
X65971485Y-6579595D01*
X137353333Y-8919580D02*
X137305714Y-8967200D01*
X137305714Y-8967200D02*
X137162857Y-9014819D01*
X137162857Y-9014819D02*
X137067619Y-9014819D01*
X137067619Y-9014819D02*
X136924762Y-8967200D01*
X136924762Y-8967200D02*
X136829524Y-8871961D01*
X136829524Y-8871961D02*
X136781905Y-8776723D01*
X136781905Y-8776723D02*
X136734286Y-8586247D01*
X136734286Y-8586247D02*
X136734286Y-8443390D01*
X136734286Y-8443390D02*
X136781905Y-8252914D01*
X136781905Y-8252914D02*
X136829524Y-8157676D01*
X136829524Y-8157676D02*
X136924762Y-8062438D01*
X136924762Y-8062438D02*
X137067619Y-8014819D01*
X137067619Y-8014819D02*
X137162857Y-8014819D01*
X137162857Y-8014819D02*
X137305714Y-8062438D01*
X137305714Y-8062438D02*
X137353333Y-8110057D01*
X138210476Y-8014819D02*
X138020000Y-8014819D01*
X138020000Y-8014819D02*
X137924762Y-8062438D01*
X137924762Y-8062438D02*
X137877143Y-8110057D01*
X137877143Y-8110057D02*
X137781905Y-8252914D01*
X137781905Y-8252914D02*
X137734286Y-8443390D01*
X137734286Y-8443390D02*
X137734286Y-8824342D01*
X137734286Y-8824342D02*
X137781905Y-8919580D01*
X137781905Y-8919580D02*
X137829524Y-8967200D01*
X137829524Y-8967200D02*
X137924762Y-9014819D01*
X137924762Y-9014819D02*
X138115238Y-9014819D01*
X138115238Y-9014819D02*
X138210476Y-8967200D01*
X138210476Y-8967200D02*
X138258095Y-8919580D01*
X138258095Y-8919580D02*
X138305714Y-8824342D01*
X138305714Y-8824342D02*
X138305714Y-8586247D01*
X138305714Y-8586247D02*
X138258095Y-8491009D01*
X138258095Y-8491009D02*
X138210476Y-8443390D01*
X138210476Y-8443390D02*
X138115238Y-8395771D01*
X138115238Y-8395771D02*
X137924762Y-8395771D01*
X137924762Y-8395771D02*
X137829524Y-8443390D01*
X137829524Y-8443390D02*
X137781905Y-8491009D01*
X137781905Y-8491009D02*
X137734286Y-8586247D01*
X17981009Y-10560333D02*
X17981009Y-10893666D01*
X18504819Y-10893666D02*
X17504819Y-10893666D01*
X17504819Y-10893666D02*
X17504819Y-10417476D01*
X17981009Y-9703190D02*
X18028628Y-9560333D01*
X18028628Y-9560333D02*
X18076247Y-9512714D01*
X18076247Y-9512714D02*
X18171485Y-9465095D01*
X18171485Y-9465095D02*
X18314342Y-9465095D01*
X18314342Y-9465095D02*
X18409580Y-9512714D01*
X18409580Y-9512714D02*
X18457200Y-9560333D01*
X18457200Y-9560333D02*
X18504819Y-9655571D01*
X18504819Y-9655571D02*
X18504819Y-10036523D01*
X18504819Y-10036523D02*
X17504819Y-10036523D01*
X17504819Y-10036523D02*
X17504819Y-9703190D01*
X17504819Y-9703190D02*
X17552438Y-9607952D01*
X17552438Y-9607952D02*
X17600057Y-9560333D01*
X17600057Y-9560333D02*
X17695295Y-9512714D01*
X17695295Y-9512714D02*
X17790533Y-9512714D01*
X17790533Y-9512714D02*
X17885771Y-9560333D01*
X17885771Y-9560333D02*
X17933390Y-9607952D01*
X17933390Y-9607952D02*
X17981009Y-9703190D01*
X17981009Y-9703190D02*
X17981009Y-10036523D01*
X17600057Y-9084142D02*
X17552438Y-9036523D01*
X17552438Y-9036523D02*
X17504819Y-8941285D01*
X17504819Y-8941285D02*
X17504819Y-8703190D01*
X17504819Y-8703190D02*
X17552438Y-8607952D01*
X17552438Y-8607952D02*
X17600057Y-8560333D01*
X17600057Y-8560333D02*
X17695295Y-8512714D01*
X17695295Y-8512714D02*
X17790533Y-8512714D01*
X17790533Y-8512714D02*
X17933390Y-8560333D01*
X17933390Y-8560333D02*
X18504819Y-9131761D01*
X18504819Y-9131761D02*
X18504819Y-8512714D01*
X146499580Y-10066666D02*
X146547200Y-10114285D01*
X146547200Y-10114285D02*
X146594819Y-10257142D01*
X146594819Y-10257142D02*
X146594819Y-10352380D01*
X146594819Y-10352380D02*
X146547200Y-10495237D01*
X146547200Y-10495237D02*
X146451961Y-10590475D01*
X146451961Y-10590475D02*
X146356723Y-10638094D01*
X146356723Y-10638094D02*
X146166247Y-10685713D01*
X146166247Y-10685713D02*
X146023390Y-10685713D01*
X146023390Y-10685713D02*
X145832914Y-10638094D01*
X145832914Y-10638094D02*
X145737676Y-10590475D01*
X145737676Y-10590475D02*
X145642438Y-10495237D01*
X145642438Y-10495237D02*
X145594819Y-10352380D01*
X145594819Y-10352380D02*
X145594819Y-10257142D01*
X145594819Y-10257142D02*
X145642438Y-10114285D01*
X145642438Y-10114285D02*
X145690057Y-10066666D01*
X146594819Y-9114285D02*
X146594819Y-9685713D01*
X146594819Y-9399999D02*
X145594819Y-9399999D01*
X145594819Y-9399999D02*
X145737676Y-9495237D01*
X145737676Y-9495237D02*
X145832914Y-9590475D01*
X145832914Y-9590475D02*
X145880533Y-9685713D01*
D10*
X152698869Y-8859428D02*
X151555869Y-8859428D01*
X151555869Y-8859428D02*
X151555869Y-8587285D01*
X151555869Y-8587285D02*
X151610298Y-8423999D01*
X151610298Y-8423999D02*
X151719155Y-8315142D01*
X151719155Y-8315142D02*
X151828012Y-8260713D01*
X151828012Y-8260713D02*
X152045726Y-8206285D01*
X152045726Y-8206285D02*
X152209012Y-8206285D01*
X152209012Y-8206285D02*
X152426726Y-8260713D01*
X152426726Y-8260713D02*
X152535583Y-8315142D01*
X152535583Y-8315142D02*
X152644441Y-8423999D01*
X152644441Y-8423999D02*
X152698869Y-8587285D01*
X152698869Y-8587285D02*
X152698869Y-8859428D01*
X152698869Y-7117713D02*
X152698869Y-7770856D01*
X152698869Y-7444285D02*
X151555869Y-7444285D01*
X151555869Y-7444285D02*
X151719155Y-7553142D01*
X151719155Y-7553142D02*
X151828012Y-7661999D01*
X151828012Y-7661999D02*
X151882441Y-7770856D01*
D11*
X65333333Y-11124819D02*
X65000000Y-10648628D01*
X64761905Y-11124819D02*
X64761905Y-10124819D01*
X64761905Y-10124819D02*
X65142857Y-10124819D01*
X65142857Y-10124819D02*
X65238095Y-10172438D01*
X65238095Y-10172438D02*
X65285714Y-10220057D01*
X65285714Y-10220057D02*
X65333333Y-10315295D01*
X65333333Y-10315295D02*
X65333333Y-10458152D01*
X65333333Y-10458152D02*
X65285714Y-10553390D01*
X65285714Y-10553390D02*
X65238095Y-10601009D01*
X65238095Y-10601009D02*
X65142857Y-10648628D01*
X65142857Y-10648628D02*
X64761905Y-10648628D01*
X65666667Y-10124819D02*
X66285714Y-10124819D01*
X66285714Y-10124819D02*
X65952381Y-10505771D01*
X65952381Y-10505771D02*
X66095238Y-10505771D01*
X66095238Y-10505771D02*
X66190476Y-10553390D01*
X66190476Y-10553390D02*
X66238095Y-10601009D01*
X66238095Y-10601009D02*
X66285714Y-10696247D01*
X66285714Y-10696247D02*
X66285714Y-10934342D01*
X66285714Y-10934342D02*
X66238095Y-11029580D01*
X66238095Y-11029580D02*
X66190476Y-11077200D01*
X66190476Y-11077200D02*
X66095238Y-11124819D01*
X66095238Y-11124819D02*
X65809524Y-11124819D01*
X65809524Y-11124819D02*
X65714286Y-11077200D01*
X65714286Y-11077200D02*
X65666667Y-11029580D01*
X58233333Y-8884819D02*
X57900000Y-8408628D01*
X57661905Y-8884819D02*
X57661905Y-7884819D01*
X57661905Y-7884819D02*
X58042857Y-7884819D01*
X58042857Y-7884819D02*
X58138095Y-7932438D01*
X58138095Y-7932438D02*
X58185714Y-7980057D01*
X58185714Y-7980057D02*
X58233333Y-8075295D01*
X58233333Y-8075295D02*
X58233333Y-8218152D01*
X58233333Y-8218152D02*
X58185714Y-8313390D01*
X58185714Y-8313390D02*
X58138095Y-8361009D01*
X58138095Y-8361009D02*
X58042857Y-8408628D01*
X58042857Y-8408628D02*
X57661905Y-8408628D01*
X59090476Y-8218152D02*
X59090476Y-8884819D01*
X58852381Y-7837200D02*
X58614286Y-8551485D01*
X58614286Y-8551485D02*
X59233333Y-8551485D01*
X141338095Y-3812319D02*
X141338095Y-4621842D01*
X141338095Y-4621842D02*
X141385714Y-4717080D01*
X141385714Y-4717080D02*
X141433333Y-4764700D01*
X141433333Y-4764700D02*
X141528571Y-4812319D01*
X141528571Y-4812319D02*
X141719047Y-4812319D01*
X141719047Y-4812319D02*
X141814285Y-4764700D01*
X141814285Y-4764700D02*
X141861904Y-4717080D01*
X141861904Y-4717080D02*
X141909523Y-4621842D01*
X141909523Y-4621842D02*
X141909523Y-3812319D01*
X142290476Y-3812319D02*
X142909523Y-3812319D01*
X142909523Y-3812319D02*
X142576190Y-4193271D01*
X142576190Y-4193271D02*
X142719047Y-4193271D01*
X142719047Y-4193271D02*
X142814285Y-4240890D01*
X142814285Y-4240890D02*
X142861904Y-4288509D01*
X142861904Y-4288509D02*
X142909523Y-4383747D01*
X142909523Y-4383747D02*
X142909523Y-4621842D01*
X142909523Y-4621842D02*
X142861904Y-4717080D01*
X142861904Y-4717080D02*
X142814285Y-4764700D01*
X142814285Y-4764700D02*
X142719047Y-4812319D01*
X142719047Y-4812319D02*
X142433333Y-4812319D01*
X142433333Y-4812319D02*
X142338095Y-4764700D01*
X142338095Y-4764700D02*
X142290476Y-4717080D01*
X147033333Y-8384819D02*
X146700000Y-7908628D01*
X146461905Y-8384819D02*
X146461905Y-7384819D01*
X146461905Y-7384819D02*
X146842857Y-7384819D01*
X146842857Y-7384819D02*
X146938095Y-7432438D01*
X146938095Y-7432438D02*
X146985714Y-7480057D01*
X146985714Y-7480057D02*
X147033333Y-7575295D01*
X147033333Y-7575295D02*
X147033333Y-7718152D01*
X147033333Y-7718152D02*
X146985714Y-7813390D01*
X146985714Y-7813390D02*
X146938095Y-7861009D01*
X146938095Y-7861009D02*
X146842857Y-7908628D01*
X146842857Y-7908628D02*
X146461905Y-7908628D01*
X147938095Y-7384819D02*
X147461905Y-7384819D01*
X147461905Y-7384819D02*
X147414286Y-7861009D01*
X147414286Y-7861009D02*
X147461905Y-7813390D01*
X147461905Y-7813390D02*
X147557143Y-7765771D01*
X147557143Y-7765771D02*
X147795238Y-7765771D01*
X147795238Y-7765771D02*
X147890476Y-7813390D01*
X147890476Y-7813390D02*
X147938095Y-7861009D01*
X147938095Y-7861009D02*
X147985714Y-7956247D01*
X147985714Y-7956247D02*
X147985714Y-8194342D01*
X147985714Y-8194342D02*
X147938095Y-8289580D01*
X147938095Y-8289580D02*
X147890476Y-8337200D01*
X147890476Y-8337200D02*
X147795238Y-8384819D01*
X147795238Y-8384819D02*
X147557143Y-8384819D01*
X147557143Y-8384819D02*
X147461905Y-8337200D01*
X147461905Y-8337200D02*
X147414286Y-8289580D01*
X134723809Y-2528628D02*
X134723809Y-3004819D01*
X134390476Y-2004819D02*
X134723809Y-2528628D01*
X134723809Y-2528628D02*
X135057142Y-2004819D01*
X135914285Y-3004819D02*
X135342857Y-3004819D01*
X135628571Y-3004819D02*
X135628571Y-2004819D01*
X135628571Y-2004819D02*
X135533333Y-2147676D01*
X135533333Y-2147676D02*
X135438095Y-2242914D01*
X135438095Y-2242914D02*
X135342857Y-2290533D01*
X147733333Y-1209580D02*
X147685714Y-1257200D01*
X147685714Y-1257200D02*
X147542857Y-1304819D01*
X147542857Y-1304819D02*
X147447619Y-1304819D01*
X147447619Y-1304819D02*
X147304762Y-1257200D01*
X147304762Y-1257200D02*
X147209524Y-1161961D01*
X147209524Y-1161961D02*
X147161905Y-1066723D01*
X147161905Y-1066723D02*
X147114286Y-876247D01*
X147114286Y-876247D02*
X147114286Y-733390D01*
X147114286Y-733390D02*
X147161905Y-542914D01*
X147161905Y-542914D02*
X147209524Y-447676D01*
X147209524Y-447676D02*
X147304762Y-352438D01*
X147304762Y-352438D02*
X147447619Y-304819D01*
X147447619Y-304819D02*
X147542857Y-304819D01*
X147542857Y-304819D02*
X147685714Y-352438D01*
X147685714Y-352438D02*
X147733333Y-400057D01*
X148304762Y-733390D02*
X148209524Y-685771D01*
X148209524Y-685771D02*
X148161905Y-638152D01*
X148161905Y-638152D02*
X148114286Y-542914D01*
X148114286Y-542914D02*
X148114286Y-495295D01*
X148114286Y-495295D02*
X148161905Y-400057D01*
X148161905Y-400057D02*
X148209524Y-352438D01*
X148209524Y-352438D02*
X148304762Y-304819D01*
X148304762Y-304819D02*
X148495238Y-304819D01*
X148495238Y-304819D02*
X148590476Y-352438D01*
X148590476Y-352438D02*
X148638095Y-400057D01*
X148638095Y-400057D02*
X148685714Y-495295D01*
X148685714Y-495295D02*
X148685714Y-542914D01*
X148685714Y-542914D02*
X148638095Y-638152D01*
X148638095Y-638152D02*
X148590476Y-685771D01*
X148590476Y-685771D02*
X148495238Y-733390D01*
X148495238Y-733390D02*
X148304762Y-733390D01*
X148304762Y-733390D02*
X148209524Y-781009D01*
X148209524Y-781009D02*
X148161905Y-828628D01*
X148161905Y-828628D02*
X148114286Y-923866D01*
X148114286Y-923866D02*
X148114286Y-1114342D01*
X148114286Y-1114342D02*
X148161905Y-1209580D01*
X148161905Y-1209580D02*
X148209524Y-1257200D01*
X148209524Y-1257200D02*
X148304762Y-1304819D01*
X148304762Y-1304819D02*
X148495238Y-1304819D01*
X148495238Y-1304819D02*
X148590476Y-1257200D01*
X148590476Y-1257200D02*
X148638095Y-1209580D01*
X148638095Y-1209580D02*
X148685714Y-1114342D01*
X148685714Y-1114342D02*
X148685714Y-923866D01*
X148685714Y-923866D02*
X148638095Y-828628D01*
X148638095Y-828628D02*
X148590476Y-781009D01*
X148590476Y-781009D02*
X148495238Y-733390D01*
X145399580Y-10066666D02*
X145447200Y-10114285D01*
X145447200Y-10114285D02*
X145494819Y-10257142D01*
X145494819Y-10257142D02*
X145494819Y-10352380D01*
X145494819Y-10352380D02*
X145447200Y-10495237D01*
X145447200Y-10495237D02*
X145351961Y-10590475D01*
X145351961Y-10590475D02*
X145256723Y-10638094D01*
X145256723Y-10638094D02*
X145066247Y-10685713D01*
X145066247Y-10685713D02*
X144923390Y-10685713D01*
X144923390Y-10685713D02*
X144732914Y-10638094D01*
X144732914Y-10638094D02*
X144637676Y-10590475D01*
X144637676Y-10590475D02*
X144542438Y-10495237D01*
X144542438Y-10495237D02*
X144494819Y-10352380D01*
X144494819Y-10352380D02*
X144494819Y-10257142D01*
X144494819Y-10257142D02*
X144542438Y-10114285D01*
X144542438Y-10114285D02*
X144590057Y-10066666D01*
X144494819Y-9733332D02*
X144494819Y-9114285D01*
X144494819Y-9114285D02*
X144875771Y-9447618D01*
X144875771Y-9447618D02*
X144875771Y-9304761D01*
X144875771Y-9304761D02*
X144923390Y-9209523D01*
X144923390Y-9209523D02*
X144971009Y-9161904D01*
X144971009Y-9161904D02*
X145066247Y-9114285D01*
X145066247Y-9114285D02*
X145304342Y-9114285D01*
X145304342Y-9114285D02*
X145399580Y-9161904D01*
X145399580Y-9161904D02*
X145447200Y-9209523D01*
X145447200Y-9209523D02*
X145494819Y-9304761D01*
X145494819Y-9304761D02*
X145494819Y-9590475D01*
X145494819Y-9590475D02*
X145447200Y-9685713D01*
X145447200Y-9685713D02*
X145399580Y-9733332D01*
X60838095Y-12454819D02*
X60838095Y-13264342D01*
X60838095Y-13264342D02*
X60885714Y-13359580D01*
X60885714Y-13359580D02*
X60933333Y-13407200D01*
X60933333Y-13407200D02*
X61028571Y-13454819D01*
X61028571Y-13454819D02*
X61219047Y-13454819D01*
X61219047Y-13454819D02*
X61314285Y-13407200D01*
X61314285Y-13407200D02*
X61361904Y-13359580D01*
X61361904Y-13359580D02*
X61409523Y-13264342D01*
X61409523Y-13264342D02*
X61409523Y-12454819D01*
X62314285Y-12454819D02*
X62123809Y-12454819D01*
X62123809Y-12454819D02*
X62028571Y-12502438D01*
X62028571Y-12502438D02*
X61980952Y-12550057D01*
X61980952Y-12550057D02*
X61885714Y-12692914D01*
X61885714Y-12692914D02*
X61838095Y-12883390D01*
X61838095Y-12883390D02*
X61838095Y-13264342D01*
X61838095Y-13264342D02*
X61885714Y-13359580D01*
X61885714Y-13359580D02*
X61933333Y-13407200D01*
X61933333Y-13407200D02*
X62028571Y-13454819D01*
X62028571Y-13454819D02*
X62219047Y-13454819D01*
X62219047Y-13454819D02*
X62314285Y-13407200D01*
X62314285Y-13407200D02*
X62361904Y-13359580D01*
X62361904Y-13359580D02*
X62409523Y-13264342D01*
X62409523Y-13264342D02*
X62409523Y-13026247D01*
X62409523Y-13026247D02*
X62361904Y-12931009D01*
X62361904Y-12931009D02*
X62314285Y-12883390D01*
X62314285Y-12883390D02*
X62219047Y-12835771D01*
X62219047Y-12835771D02*
X62028571Y-12835771D01*
X62028571Y-12835771D02*
X61933333Y-12883390D01*
X61933333Y-12883390D02*
X61885714Y-12931009D01*
X61885714Y-12931009D02*
X61838095Y-13026247D01*
X159733333Y-9184819D02*
X159400000Y-8708628D01*
X159161905Y-9184819D02*
X159161905Y-8184819D01*
X159161905Y-8184819D02*
X159542857Y-8184819D01*
X159542857Y-8184819D02*
X159638095Y-8232438D01*
X159638095Y-8232438D02*
X159685714Y-8280057D01*
X159685714Y-8280057D02*
X159733333Y-8375295D01*
X159733333Y-8375295D02*
X159733333Y-8518152D01*
X159733333Y-8518152D02*
X159685714Y-8613390D01*
X159685714Y-8613390D02*
X159638095Y-8661009D01*
X159638095Y-8661009D02*
X159542857Y-8708628D01*
X159542857Y-8708628D02*
X159161905Y-8708628D01*
X160685714Y-9184819D02*
X160114286Y-9184819D01*
X160400000Y-9184819D02*
X160400000Y-8184819D01*
X160400000Y-8184819D02*
X160304762Y-8327676D01*
X160304762Y-8327676D02*
X160209524Y-8422914D01*
X160209524Y-8422914D02*
X160114286Y-8470533D01*
X147719580Y-12066666D02*
X147767200Y-12114285D01*
X147767200Y-12114285D02*
X147814819Y-12257142D01*
X147814819Y-12257142D02*
X147814819Y-12352380D01*
X147814819Y-12352380D02*
X147767200Y-12495237D01*
X147767200Y-12495237D02*
X147671961Y-12590475D01*
X147671961Y-12590475D02*
X147576723Y-12638094D01*
X147576723Y-12638094D02*
X147386247Y-12685713D01*
X147386247Y-12685713D02*
X147243390Y-12685713D01*
X147243390Y-12685713D02*
X147052914Y-12638094D01*
X147052914Y-12638094D02*
X146957676Y-12590475D01*
X146957676Y-12590475D02*
X146862438Y-12495237D01*
X146862438Y-12495237D02*
X146814819Y-12352380D01*
X146814819Y-12352380D02*
X146814819Y-12257142D01*
X146814819Y-12257142D02*
X146862438Y-12114285D01*
X146862438Y-12114285D02*
X146910057Y-12066666D01*
X147148152Y-11209523D02*
X147814819Y-11209523D01*
X146767200Y-11447618D02*
X147481485Y-11685713D01*
X147481485Y-11685713D02*
X147481485Y-11066666D01*
X142538095Y-254819D02*
X142538095Y-1064342D01*
X142538095Y-1064342D02*
X142585714Y-1159580D01*
X142585714Y-1159580D02*
X142633333Y-1207200D01*
X142633333Y-1207200D02*
X142728571Y-1254819D01*
X142728571Y-1254819D02*
X142919047Y-1254819D01*
X142919047Y-1254819D02*
X143014285Y-1207200D01*
X143014285Y-1207200D02*
X143061904Y-1159580D01*
X143061904Y-1159580D02*
X143109523Y-1064342D01*
X143109523Y-1064342D02*
X143109523Y-254819D01*
X144014285Y-588152D02*
X144014285Y-1254819D01*
X143776190Y-207200D02*
X143538095Y-921485D01*
X143538095Y-921485D02*
X144157142Y-921485D01*
X161881009Y-8674833D02*
X161881009Y-9008166D01*
X162404819Y-9008166D02*
X161404819Y-9008166D01*
X161404819Y-9008166D02*
X161404819Y-8531976D01*
X161881009Y-7817690D02*
X161928628Y-7674833D01*
X161928628Y-7674833D02*
X161976247Y-7627214D01*
X161976247Y-7627214D02*
X162071485Y-7579595D01*
X162071485Y-7579595D02*
X162214342Y-7579595D01*
X162214342Y-7579595D02*
X162309580Y-7627214D01*
X162309580Y-7627214D02*
X162357200Y-7674833D01*
X162357200Y-7674833D02*
X162404819Y-7770071D01*
X162404819Y-7770071D02*
X162404819Y-8151023D01*
X162404819Y-8151023D02*
X161404819Y-8151023D01*
X161404819Y-8151023D02*
X161404819Y-7817690D01*
X161404819Y-7817690D02*
X161452438Y-7722452D01*
X161452438Y-7722452D02*
X161500057Y-7674833D01*
X161500057Y-7674833D02*
X161595295Y-7627214D01*
X161595295Y-7627214D02*
X161690533Y-7627214D01*
X161690533Y-7627214D02*
X161785771Y-7674833D01*
X161785771Y-7674833D02*
X161833390Y-7722452D01*
X161833390Y-7722452D02*
X161881009Y-7817690D01*
X161881009Y-7817690D02*
X161881009Y-8151023D01*
X162404819Y-6627214D02*
X162404819Y-7198642D01*
X162404819Y-6912928D02*
X161404819Y-6912928D01*
X161404819Y-6912928D02*
X161547676Y-7008166D01*
X161547676Y-7008166D02*
X161642914Y-7103404D01*
X161642914Y-7103404D02*
X161690533Y-7198642D01*
X147033333Y-6684819D02*
X146700000Y-6208628D01*
X146461905Y-6684819D02*
X146461905Y-5684819D01*
X146461905Y-5684819D02*
X146842857Y-5684819D01*
X146842857Y-5684819D02*
X146938095Y-5732438D01*
X146938095Y-5732438D02*
X146985714Y-5780057D01*
X146985714Y-5780057D02*
X147033333Y-5875295D01*
X147033333Y-5875295D02*
X147033333Y-6018152D01*
X147033333Y-6018152D02*
X146985714Y-6113390D01*
X146985714Y-6113390D02*
X146938095Y-6161009D01*
X146938095Y-6161009D02*
X146842857Y-6208628D01*
X146842857Y-6208628D02*
X146461905Y-6208628D01*
X147890476Y-5684819D02*
X147700000Y-5684819D01*
X147700000Y-5684819D02*
X147604762Y-5732438D01*
X147604762Y-5732438D02*
X147557143Y-5780057D01*
X147557143Y-5780057D02*
X147461905Y-5922914D01*
X147461905Y-5922914D02*
X147414286Y-6113390D01*
X147414286Y-6113390D02*
X147414286Y-6494342D01*
X147414286Y-6494342D02*
X147461905Y-6589580D01*
X147461905Y-6589580D02*
X147509524Y-6637200D01*
X147509524Y-6637200D02*
X147604762Y-6684819D01*
X147604762Y-6684819D02*
X147795238Y-6684819D01*
X147795238Y-6684819D02*
X147890476Y-6637200D01*
X147890476Y-6637200D02*
X147938095Y-6589580D01*
X147938095Y-6589580D02*
X147985714Y-6494342D01*
X147985714Y-6494342D02*
X147985714Y-6256247D01*
X147985714Y-6256247D02*
X147938095Y-6161009D01*
X147938095Y-6161009D02*
X147890476Y-6113390D01*
X147890476Y-6113390D02*
X147795238Y-6065771D01*
X147795238Y-6065771D02*
X147604762Y-6065771D01*
X147604762Y-6065771D02*
X147509524Y-6113390D01*
X147509524Y-6113390D02*
X147461905Y-6161009D01*
X147461905Y-6161009D02*
X147414286Y-6256247D01*
X10338095Y-16054819D02*
X10338095Y-16864342D01*
X10338095Y-16864342D02*
X10385714Y-16959580D01*
X10385714Y-16959580D02*
X10433333Y-17007200D01*
X10433333Y-17007200D02*
X10528571Y-17054819D01*
X10528571Y-17054819D02*
X10719047Y-17054819D01*
X10719047Y-17054819D02*
X10814285Y-17007200D01*
X10814285Y-17007200D02*
X10861904Y-16959580D01*
X10861904Y-16959580D02*
X10909523Y-16864342D01*
X10909523Y-16864342D02*
X10909523Y-16054819D01*
X11909523Y-17054819D02*
X11338095Y-17054819D01*
X11623809Y-17054819D02*
X11623809Y-16054819D01*
X11623809Y-16054819D02*
X11528571Y-16197676D01*
X11528571Y-16197676D02*
X11433333Y-16292914D01*
X11433333Y-16292914D02*
X11338095Y-16340533D01*
X42981009Y-10560333D02*
X42981009Y-10893666D01*
X43504819Y-10893666D02*
X42504819Y-10893666D01*
X42504819Y-10893666D02*
X42504819Y-10417476D01*
X42981009Y-9703190D02*
X43028628Y-9560333D01*
X43028628Y-9560333D02*
X43076247Y-9512714D01*
X43076247Y-9512714D02*
X43171485Y-9465095D01*
X43171485Y-9465095D02*
X43314342Y-9465095D01*
X43314342Y-9465095D02*
X43409580Y-9512714D01*
X43409580Y-9512714D02*
X43457200Y-9560333D01*
X43457200Y-9560333D02*
X43504819Y-9655571D01*
X43504819Y-9655571D02*
X43504819Y-10036523D01*
X43504819Y-10036523D02*
X42504819Y-10036523D01*
X42504819Y-10036523D02*
X42504819Y-9703190D01*
X42504819Y-9703190D02*
X42552438Y-9607952D01*
X42552438Y-9607952D02*
X42600057Y-9560333D01*
X42600057Y-9560333D02*
X42695295Y-9512714D01*
X42695295Y-9512714D02*
X42790533Y-9512714D01*
X42790533Y-9512714D02*
X42885771Y-9560333D01*
X42885771Y-9560333D02*
X42933390Y-9607952D01*
X42933390Y-9607952D02*
X42981009Y-9703190D01*
X42981009Y-9703190D02*
X42981009Y-10036523D01*
X42504819Y-9131761D02*
X42504819Y-8512714D01*
X42504819Y-8512714D02*
X42885771Y-8846047D01*
X42885771Y-8846047D02*
X42885771Y-8703190D01*
X42885771Y-8703190D02*
X42933390Y-8607952D01*
X42933390Y-8607952D02*
X42981009Y-8560333D01*
X42981009Y-8560333D02*
X43076247Y-8512714D01*
X43076247Y-8512714D02*
X43314342Y-8512714D01*
X43314342Y-8512714D02*
X43409580Y-8560333D01*
X43409580Y-8560333D02*
X43457200Y-8607952D01*
X43457200Y-8607952D02*
X43504819Y-8703190D01*
X43504819Y-8703190D02*
X43504819Y-8988904D01*
X43504819Y-8988904D02*
X43457200Y-9084142D01*
X43457200Y-9084142D02*
X43409580Y-9131761D01*
X155875595Y-7654819D02*
X155875595Y-8464342D01*
X155875595Y-8464342D02*
X155923214Y-8559580D01*
X155923214Y-8559580D02*
X155970833Y-8607200D01*
X155970833Y-8607200D02*
X156066071Y-8654819D01*
X156066071Y-8654819D02*
X156256547Y-8654819D01*
X156256547Y-8654819D02*
X156351785Y-8607200D01*
X156351785Y-8607200D02*
X156399404Y-8559580D01*
X156399404Y-8559580D02*
X156447023Y-8464342D01*
X156447023Y-8464342D02*
X156447023Y-7654819D01*
X156875595Y-7750057D02*
X156923214Y-7702438D01*
X156923214Y-7702438D02*
X157018452Y-7654819D01*
X157018452Y-7654819D02*
X157256547Y-7654819D01*
X157256547Y-7654819D02*
X157351785Y-7702438D01*
X157351785Y-7702438D02*
X157399404Y-7750057D01*
X157399404Y-7750057D02*
X157447023Y-7845295D01*
X157447023Y-7845295D02*
X157447023Y-7940533D01*
X157447023Y-7940533D02*
X157399404Y-8083390D01*
X157399404Y-8083390D02*
X156827976Y-8654819D01*
X156827976Y-8654819D02*
X157447023Y-8654819D01*
X152333333Y-11324819D02*
X152000000Y-10848628D01*
X151761905Y-11324819D02*
X151761905Y-10324819D01*
X151761905Y-10324819D02*
X152142857Y-10324819D01*
X152142857Y-10324819D02*
X152238095Y-10372438D01*
X152238095Y-10372438D02*
X152285714Y-10420057D01*
X152285714Y-10420057D02*
X152333333Y-10515295D01*
X152333333Y-10515295D02*
X152333333Y-10658152D01*
X152333333Y-10658152D02*
X152285714Y-10753390D01*
X152285714Y-10753390D02*
X152238095Y-10801009D01*
X152238095Y-10801009D02*
X152142857Y-10848628D01*
X152142857Y-10848628D02*
X151761905Y-10848628D01*
X152714286Y-10420057D02*
X152761905Y-10372438D01*
X152761905Y-10372438D02*
X152857143Y-10324819D01*
X152857143Y-10324819D02*
X153095238Y-10324819D01*
X153095238Y-10324819D02*
X153190476Y-10372438D01*
X153190476Y-10372438D02*
X153238095Y-10420057D01*
X153238095Y-10420057D02*
X153285714Y-10515295D01*
X153285714Y-10515295D02*
X153285714Y-10610533D01*
X153285714Y-10610533D02*
X153238095Y-10753390D01*
X153238095Y-10753390D02*
X152666667Y-11324819D01*
X152666667Y-11324819D02*
X153285714Y-11324819D01*
X127854819Y-5561904D02*
X128664342Y-5561904D01*
X128664342Y-5561904D02*
X128759580Y-5514285D01*
X128759580Y-5514285D02*
X128807200Y-5466666D01*
X128807200Y-5466666D02*
X128854819Y-5371428D01*
X128854819Y-5371428D02*
X128854819Y-5180952D01*
X128854819Y-5180952D02*
X128807200Y-5085714D01*
X128807200Y-5085714D02*
X128759580Y-5038095D01*
X128759580Y-5038095D02*
X128664342Y-4990476D01*
X128664342Y-4990476D02*
X127854819Y-4990476D01*
X127854819Y-4609523D02*
X127854819Y-3942857D01*
X127854819Y-3942857D02*
X128854819Y-4371428D01*
X137199580Y-13841666D02*
X137247200Y-13889285D01*
X137247200Y-13889285D02*
X137294819Y-14032142D01*
X137294819Y-14032142D02*
X137294819Y-14127380D01*
X137294819Y-14127380D02*
X137247200Y-14270237D01*
X137247200Y-14270237D02*
X137151961Y-14365475D01*
X137151961Y-14365475D02*
X137056723Y-14413094D01*
X137056723Y-14413094D02*
X136866247Y-14460713D01*
X136866247Y-14460713D02*
X136723390Y-14460713D01*
X136723390Y-14460713D02*
X136532914Y-14413094D01*
X136532914Y-14413094D02*
X136437676Y-14365475D01*
X136437676Y-14365475D02*
X136342438Y-14270237D01*
X136342438Y-14270237D02*
X136294819Y-14127380D01*
X136294819Y-14127380D02*
X136294819Y-14032142D01*
X136294819Y-14032142D02*
X136342438Y-13889285D01*
X136342438Y-13889285D02*
X136390057Y-13841666D01*
X136390057Y-13460713D02*
X136342438Y-13413094D01*
X136342438Y-13413094D02*
X136294819Y-13317856D01*
X136294819Y-13317856D02*
X136294819Y-13079761D01*
X136294819Y-13079761D02*
X136342438Y-12984523D01*
X136342438Y-12984523D02*
X136390057Y-12936904D01*
X136390057Y-12936904D02*
X136485295Y-12889285D01*
X136485295Y-12889285D02*
X136580533Y-12889285D01*
X136580533Y-12889285D02*
X136723390Y-12936904D01*
X136723390Y-12936904D02*
X137294819Y-13508332D01*
X137294819Y-13508332D02*
X137294819Y-12889285D01*
X35338095Y-15954819D02*
X35338095Y-16764342D01*
X35338095Y-16764342D02*
X35385714Y-16859580D01*
X35385714Y-16859580D02*
X35433333Y-16907200D01*
X35433333Y-16907200D02*
X35528571Y-16954819D01*
X35528571Y-16954819D02*
X35719047Y-16954819D01*
X35719047Y-16954819D02*
X35814285Y-16907200D01*
X35814285Y-16907200D02*
X35861904Y-16859580D01*
X35861904Y-16859580D02*
X35909523Y-16764342D01*
X35909523Y-16764342D02*
X35909523Y-15954819D01*
X36861904Y-15954819D02*
X36385714Y-15954819D01*
X36385714Y-15954819D02*
X36338095Y-16431009D01*
X36338095Y-16431009D02*
X36385714Y-16383390D01*
X36385714Y-16383390D02*
X36480952Y-16335771D01*
X36480952Y-16335771D02*
X36719047Y-16335771D01*
X36719047Y-16335771D02*
X36814285Y-16383390D01*
X36814285Y-16383390D02*
X36861904Y-16431009D01*
X36861904Y-16431009D02*
X36909523Y-16526247D01*
X36909523Y-16526247D02*
X36909523Y-16764342D01*
X36909523Y-16764342D02*
X36861904Y-16859580D01*
X36861904Y-16859580D02*
X36814285Y-16907200D01*
X36814285Y-16907200D02*
X36719047Y-16954819D01*
X36719047Y-16954819D02*
X36480952Y-16954819D01*
X36480952Y-16954819D02*
X36385714Y-16907200D01*
X36385714Y-16907200D02*
X36338095Y-16859580D01*
X137199580Y-5966666D02*
X137247200Y-6014285D01*
X137247200Y-6014285D02*
X137294819Y-6157142D01*
X137294819Y-6157142D02*
X137294819Y-6252380D01*
X137294819Y-6252380D02*
X137247200Y-6395237D01*
X137247200Y-6395237D02*
X137151961Y-6490475D01*
X137151961Y-6490475D02*
X137056723Y-6538094D01*
X137056723Y-6538094D02*
X136866247Y-6585713D01*
X136866247Y-6585713D02*
X136723390Y-6585713D01*
X136723390Y-6585713D02*
X136532914Y-6538094D01*
X136532914Y-6538094D02*
X136437676Y-6490475D01*
X136437676Y-6490475D02*
X136342438Y-6395237D01*
X136342438Y-6395237D02*
X136294819Y-6252380D01*
X136294819Y-6252380D02*
X136294819Y-6157142D01*
X136294819Y-6157142D02*
X136342438Y-6014285D01*
X136342438Y-6014285D02*
X136390057Y-5966666D01*
X136294819Y-5061904D02*
X136294819Y-5538094D01*
X136294819Y-5538094D02*
X136771009Y-5585713D01*
X136771009Y-5585713D02*
X136723390Y-5538094D01*
X136723390Y-5538094D02*
X136675771Y-5442856D01*
X136675771Y-5442856D02*
X136675771Y-5204761D01*
X136675771Y-5204761D02*
X136723390Y-5109523D01*
X136723390Y-5109523D02*
X136771009Y-5061904D01*
X136771009Y-5061904D02*
X136866247Y-5014285D01*
X136866247Y-5014285D02*
X137104342Y-5014285D01*
X137104342Y-5014285D02*
X137199580Y-5061904D01*
X137199580Y-5061904D02*
X137247200Y-5109523D01*
X137247200Y-5109523D02*
X137294819Y-5204761D01*
X137294819Y-5204761D02*
X137294819Y-5442856D01*
X137294819Y-5442856D02*
X137247200Y-5538094D01*
X137247200Y-5538094D02*
X137199580Y-5585713D01*
D12*
%TO.C,USB5*%
X17780000Y-4100500D02*
X17780000Y-7226500D01*
X17780000Y11500D02*
X17780000Y-1224500D01*
X17650000Y-10168500D02*
X15531000Y-10168500D01*
X16386000Y-6490500D02*
X15877000Y-6486500D01*
X15891000Y-755500D02*
X16386000Y-6490500D01*
X15877000Y-6486500D02*
X15367000Y-1946500D01*
X15549000Y-4123500D02*
X13288000Y-4123500D01*
X15409000Y-2913500D02*
X13379000Y-2913500D01*
X15367000Y-1946500D02*
X15292000Y-1268500D01*
X15292000Y-1268500D02*
X13542000Y-1278500D01*
X13669000Y-10168500D02*
X13032000Y-10168500D01*
X13542000Y-1278500D02*
X13068000Y-6057500D01*
X13068000Y-6057500D02*
X13038000Y-6487500D01*
X13038000Y-6487500D02*
X12658000Y-6487500D01*
X13008000Y-744500D02*
X15891000Y-755500D01*
X12658000Y-6487500D02*
X13008000Y-744500D01*
X11170000Y-10168500D02*
X11030000Y-10168500D01*
X9547000Y-6420500D02*
X9038000Y-6417500D01*
X9168000Y-10168500D02*
X8531000Y-10168500D01*
X9052000Y-685500D02*
X9547000Y-6420500D01*
X9038000Y-6417500D02*
X8528000Y-1876500D01*
X8699000Y-4194500D02*
X6439000Y-4194500D01*
X8559000Y-2984500D02*
X6529000Y-2984500D01*
X8528000Y-1876500D02*
X8453000Y-1198500D01*
X8453000Y-1198500D02*
X6703000Y-1209500D01*
X6703000Y-1209500D02*
X6229000Y-5987500D01*
X6669000Y-10168500D02*
X4550000Y-10168500D01*
X6229000Y-5987500D02*
X6199000Y-6417500D01*
X6199000Y-6417500D02*
X5819000Y-6417500D01*
X6169000Y-674500D02*
X9052000Y-685500D01*
X5819000Y-6417500D02*
X6169000Y-674500D01*
X4550000Y-10168500D02*
X4550000Y-10133500D01*
X4550000Y-7195500D02*
X4550000Y-4182500D01*
X4550000Y-1244500D02*
X4550000Y11500D01*
X4550000Y11500D02*
X17780000Y11500D01*
%TO.C,USB4*%
X42780000Y-4100500D02*
X42780000Y-7226500D01*
X42780000Y11500D02*
X42780000Y-1224500D01*
X42650000Y-10168500D02*
X40531000Y-10168500D01*
X41386000Y-6490500D02*
X40877000Y-6486500D01*
X40891000Y-755500D02*
X41386000Y-6490500D01*
X40877000Y-6486500D02*
X40367000Y-1946500D01*
X40549000Y-4123500D02*
X38288000Y-4123500D01*
X40409000Y-2913500D02*
X38379000Y-2913500D01*
X40367000Y-1946500D02*
X40292000Y-1268500D01*
X40292000Y-1268500D02*
X38542000Y-1278500D01*
X38669000Y-10168500D02*
X38032000Y-10168500D01*
X38542000Y-1278500D02*
X38068000Y-6057500D01*
X38068000Y-6057500D02*
X38038000Y-6487500D01*
X38038000Y-6487500D02*
X37658000Y-6487500D01*
X38008000Y-744500D02*
X40891000Y-755500D01*
X37658000Y-6487500D02*
X38008000Y-744500D01*
X36170000Y-10168500D02*
X36030000Y-10168500D01*
X34547000Y-6420500D02*
X34038000Y-6417500D01*
X34168000Y-10168500D02*
X33531000Y-10168500D01*
X34052000Y-685500D02*
X34547000Y-6420500D01*
X34038000Y-6417500D02*
X33528000Y-1876500D01*
X33699000Y-4194500D02*
X31439000Y-4194500D01*
X33559000Y-2984500D02*
X31529000Y-2984500D01*
X33528000Y-1876500D02*
X33453000Y-1198500D01*
X33453000Y-1198500D02*
X31703000Y-1209500D01*
X31703000Y-1209500D02*
X31229000Y-5987500D01*
X31669000Y-10168500D02*
X29550000Y-10168500D01*
X31229000Y-5987500D02*
X31199000Y-6417500D01*
X31199000Y-6417500D02*
X30819000Y-6417500D01*
X31169000Y-674500D02*
X34052000Y-685500D01*
X30819000Y-6417500D02*
X31169000Y-674500D01*
X29550000Y-10168500D02*
X29550000Y-10133500D01*
X29550000Y-7195500D02*
X29550000Y-4182500D01*
X29550000Y-1244500D02*
X29550000Y11500D01*
X29550000Y11500D02*
X42780000Y11500D01*
D13*
%TO.C,USB2*%
X127700000Y-1500000D02*
X124300000Y-1500000D01*
X127700000Y-1500000D02*
X127700000Y-2400000D01*
X127300000Y-2400000D02*
X127300000Y-1500000D01*
X123200000Y-2800000D02*
X123200000Y-2300000D01*
X123900000Y-3350000D02*
X123200000Y-2800000D01*
X123900000Y-6250000D02*
X123900000Y-3350000D01*
X123200000Y-6800000D02*
X123900000Y-6250000D01*
X123200000Y-6800000D02*
X123200000Y-7300000D01*
X127700000Y-7200000D02*
X127700000Y-8100000D01*
X127700000Y-8100000D02*
X124300000Y-8100000D01*
X127300000Y-8100000D02*
X127300000Y-7200000D01*
X126882842Y-3000000D02*
G75*
G03*
X126882842Y-3000000I-141421J0D01*
G01*
%TO.C,C7*%
X140960000Y-2617164D02*
X140960000Y-2832836D01*
X140240000Y-2617164D02*
X140240000Y-2832836D01*
%TO.C,FB4*%
X66840000Y-8241122D02*
X66840000Y-7441878D01*
X67960000Y-8241122D02*
X67960000Y-7441878D01*
%TO.C,C6*%
X137627836Y-7760000D02*
X137412164Y-7760000D01*
X137627836Y-7040000D02*
X137412164Y-7040000D01*
%TO.C,FB2*%
X19040000Y-10126622D02*
X19040000Y-9327378D01*
X20160000Y-10126622D02*
X20160000Y-9327378D01*
%TO.C,C1*%
X146940000Y-10007836D02*
X146940000Y-9792164D01*
X147660000Y-10007836D02*
X147660000Y-9792164D01*
D12*
%TO.C,D1*%
X151400000Y-5300000D02*
X151400000Y-8300000D01*
X149400000Y-5300000D02*
X149400000Y-8300000D01*
D11*
X150400000Y-6038000D02*
X150400000Y-7562000D01*
X150908000Y-6292000D02*
X149892000Y-6292000D01*
X150908000Y-6800000D02*
X149892000Y-6800000D01*
X150400000Y-6800000D02*
X150908000Y-6292000D01*
X150400000Y-6800000D02*
X149892000Y-6292000D01*
X150400000Y-6800000D02*
X150908000Y-7308000D01*
X150400000Y-6800000D02*
X149892000Y-7308000D01*
X150146000Y-6800000D02*
X150654000Y-6800000D01*
X149892000Y-7308000D02*
X150908000Y-7308000D01*
D13*
%TO.C,R3*%
X65653641Y-9880000D02*
X65346359Y-9880000D01*
X65653641Y-9120000D02*
X65346359Y-9120000D01*
%TO.C,R4*%
X58246359Y-9220000D02*
X58553641Y-9220000D01*
X58246359Y-9980000D02*
X58553641Y-9980000D01*
D11*
%TO.C,U3*%
X140025000Y-5177500D02*
X140025000Y-5657500D01*
X140025000Y-5177500D02*
X144175000Y-5177500D01*
X140025000Y-5657500D02*
X138900000Y-5657500D01*
X140025000Y-15337500D02*
X140025000Y-14857500D01*
X140025000Y-15337500D02*
X144175000Y-15337500D01*
X144175000Y-5177500D02*
X144175000Y-5657500D01*
X144175000Y-15337500D02*
X144175000Y-14857500D01*
D13*
%TO.C,R5*%
X147437258Y-7022500D02*
X146962742Y-7022500D01*
X147437258Y-5977500D02*
X146962742Y-5977500D01*
%TO.C,Y1*%
X133200000Y-3350000D02*
X133200000Y-6650000D01*
X133200000Y-6650000D02*
X137200000Y-6650000D01*
%TO.C,C8*%
X147188748Y-1790000D02*
X148611252Y-1790000D01*
X147188748Y-3610000D02*
X148611252Y-3610000D01*
%TO.C,C3*%
X145840000Y-10007836D02*
X145840000Y-9792164D01*
X146560000Y-10007836D02*
X146560000Y-9792164D01*
%TO.C,U6*%
X63700000Y-12160000D02*
X60800000Y-12160000D01*
X63700000Y-11550000D02*
X63700000Y-12160000D01*
X61600000Y-9040000D02*
X62400000Y-9040000D01*
X61600000Y-9040000D02*
X60800000Y-9040000D01*
%TO.C,R1*%
X159746359Y-9520000D02*
X160053641Y-9520000D01*
X159746359Y-10280000D02*
X160053641Y-10280000D01*
%TO.C,C4*%
X146560000Y-11792164D02*
X146560000Y-12007836D01*
X145840000Y-11792164D02*
X145840000Y-12007836D01*
%TO.C,U4*%
X143300000Y-1640000D02*
X141500000Y-1640000D01*
X143300000Y-1640000D02*
X144100000Y-1640000D01*
X143300000Y-4760000D02*
X142500000Y-4760000D01*
X143300000Y-4760000D02*
X144100000Y-4760000D01*
%TO.C,FB1*%
X162940000Y-8241122D02*
X162940000Y-7441878D01*
X164060000Y-8241122D02*
X164060000Y-7441878D01*
%TO.C,R6*%
X147437258Y-5322500D02*
X146962742Y-5322500D01*
X147437258Y-4277500D02*
X146962742Y-4277500D01*
%TO.C,U1*%
X13200000Y-15760000D02*
X10300000Y-15760000D01*
X13200000Y-15150000D02*
X13200000Y-15760000D01*
X11100000Y-12640000D02*
X11900000Y-12640000D01*
X11100000Y-12640000D02*
X10300000Y-12640000D01*
%TO.C,FB3*%
X44040000Y-10126622D02*
X44040000Y-9327378D01*
X45160000Y-10126622D02*
X45160000Y-9327378D01*
%TO.C,U2*%
X154537500Y-9040000D02*
X157437500Y-9040000D01*
X154537500Y-9650000D02*
X154537500Y-9040000D01*
X156637500Y-12160000D02*
X155837500Y-12160000D01*
X156637500Y-12160000D02*
X157437500Y-12160000D01*
%TO.C,R2*%
X152653641Y-10080000D02*
X152346359Y-10080000D01*
X152653641Y-9320000D02*
X152346359Y-9320000D01*
%TO.C,U7*%
X129240000Y-6900000D02*
X129240000Y-4000000D01*
X129850000Y-6900000D02*
X129240000Y-6900000D01*
X132360000Y-4800000D02*
X132360000Y-5600000D01*
X132360000Y-4800000D02*
X132360000Y-4000000D01*
%TO.C,C2*%
X137640000Y-13782836D02*
X137640000Y-13567164D01*
X138360000Y-13782836D02*
X138360000Y-13567164D01*
%TO.C,U5*%
X38200000Y-15660000D02*
X35300000Y-15660000D01*
X38200000Y-15050000D02*
X38200000Y-15660000D01*
X36100000Y-12540000D02*
X36900000Y-12540000D01*
X36100000Y-12540000D02*
X35300000Y-12540000D01*
%TO.C,C5*%
X137640000Y-5907836D02*
X137640000Y-5692164D01*
X138360000Y-5907836D02*
X138360000Y-5692164D01*
%TD*%
%LPC*%
D14*
%TO.C,USB5*%
X14600000Y-10138500D03*
X12101000Y-10138500D03*
X10099000Y-10138500D03*
X7600000Y-10138500D03*
D15*
X17501000Y-8664500D03*
X17501000Y-2662500D03*
X4699000Y-8664500D03*
X4699000Y-2713500D03*
%TD*%
D14*
%TO.C,USB4*%
X39600000Y-10138500D03*
X37101000Y-10138500D03*
X35099000Y-10138500D03*
X32600000Y-10138500D03*
D15*
X42501000Y-8664500D03*
X42501000Y-2662500D03*
X29699000Y-8664500D03*
X29699000Y-2713500D03*
%TD*%
D16*
%TO.C,USB3*%
X63990000Y-6249000D03*
X58210000Y-6249000D03*
D17*
X64325000Y-7694000D03*
X63550000Y-7694000D03*
D18*
X62350000Y-7694000D03*
X61350000Y-7694000D03*
X60850000Y-7694000D03*
X59850000Y-7694000D03*
D17*
X57875000Y-7694000D03*
X58650000Y-7694000D03*
D18*
X59350000Y-7694000D03*
X60350000Y-7694000D03*
X61850000Y-7694000D03*
X62850000Y-7694000D03*
D19*
X65420000Y-6779000D03*
D20*
X65420000Y-2599000D03*
D19*
X56780000Y-6779000D03*
D20*
X56780000Y-2599000D03*
%TD*%
D16*
%TO.C,USB1*%
X160027500Y-6249000D03*
X154247500Y-6249000D03*
D17*
X160362500Y-7694000D03*
X159587500Y-7694000D03*
D18*
X158387500Y-7694000D03*
X157387500Y-7694000D03*
X156887500Y-7694000D03*
X155887500Y-7694000D03*
D17*
X153912500Y-7694000D03*
X154687500Y-7694000D03*
D18*
X155387500Y-7694000D03*
X156387500Y-7694000D03*
X157887500Y-7694000D03*
X158887500Y-7694000D03*
D19*
X161457500Y-6779000D03*
D20*
X161457500Y-2599000D03*
D19*
X152817500Y-6779000D03*
D20*
X152817500Y-2599000D03*
%TD*%
D21*
%TO.C,USB2*%
X123700000Y-1850000D03*
D22*
X127700000Y-3000000D03*
X127700000Y-4200000D03*
X127700000Y-5400000D03*
X127700000Y-6600000D03*
D21*
X123700000Y-7750000D03*
%TD*%
D23*
%TO.C,C7*%
X140600000Y-2245000D03*
X140600000Y-3205000D03*
%TD*%
D24*
%TO.C,FB4*%
X67400000Y-8904000D03*
X67400000Y-6779000D03*
%TD*%
D25*
%TO.C,C6*%
X138000000Y-7400000D03*
X137040000Y-7400000D03*
%TD*%
D24*
%TO.C,FB2*%
X19600000Y-10789500D03*
X19600000Y-8664500D03*
%TD*%
D26*
%TO.C,C1*%
X147300000Y-10380000D03*
X147300000Y-9420000D03*
%TD*%
D27*
%TO.C,D1*%
X150400000Y-5100000D03*
X150400000Y-8500000D03*
%TD*%
D28*
%TO.C,R3*%
X66010000Y-9500000D03*
X64990000Y-9500000D03*
%TD*%
D29*
%TO.C,R4*%
X57890000Y-9600000D03*
X58910000Y-9600000D03*
%TD*%
D30*
%TO.C,U3*%
X139500000Y-6130000D03*
X139500000Y-6765000D03*
X139500000Y-7400000D03*
X139500000Y-8035000D03*
X139500000Y-8670000D03*
X139500000Y-9305000D03*
X139500000Y-9940000D03*
X139500000Y-10575000D03*
X139500000Y-11210000D03*
X139500000Y-11845000D03*
X139500000Y-12480000D03*
X139500000Y-13115000D03*
X139500000Y-13750000D03*
X139500000Y-14385000D03*
X144700000Y-14385000D03*
X144700000Y-13750000D03*
X144700000Y-13115000D03*
X144700000Y-12480000D03*
X144700000Y-11845000D03*
X144700000Y-11210000D03*
X144700000Y-10575000D03*
X144700000Y-9940000D03*
X144700000Y-9305000D03*
X144700000Y-8670000D03*
X144700000Y-8035000D03*
X144700000Y-7400000D03*
X144700000Y-6765000D03*
X144700000Y-6130000D03*
%TD*%
D31*
%TO.C,R5*%
X148025000Y-6500000D03*
X146375000Y-6500000D03*
%TD*%
D32*
%TO.C,Y1*%
X134100000Y-5850000D03*
X136300000Y-5850000D03*
X136300000Y-4150000D03*
X134100000Y-4150000D03*
%TD*%
D33*
%TO.C,C8*%
X146425000Y-2700000D03*
X149375000Y-2700000D03*
%TD*%
D26*
%TO.C,C3*%
X146200000Y-10380000D03*
X146200000Y-9420000D03*
%TD*%
D34*
%TO.C,H2*%
X164139500Y-2000000D03*
%TD*%
D35*
%TO.C,U6*%
X62775000Y-11550000D03*
X62775000Y-10600000D03*
X62775000Y-9650000D03*
X60425000Y-9650000D03*
X60425000Y-10600000D03*
X60425000Y-11550000D03*
%TD*%
D29*
%TO.C,R1*%
X159390000Y-9900000D03*
X160410000Y-9900000D03*
%TD*%
D34*
%TO.C,H3*%
X2000000Y-14500000D03*
%TD*%
D23*
%TO.C,C4*%
X146200000Y-11420000D03*
X146200000Y-12380000D03*
%TD*%
D34*
%TO.C,H4*%
X164200000Y-14500000D03*
%TD*%
D36*
%TO.C,U4*%
X142162500Y-2250000D03*
X142162500Y-3200000D03*
X142162500Y-4150000D03*
X144437500Y-4150000D03*
X144437500Y-3200000D03*
X144437500Y-2250000D03*
%TD*%
D24*
%TO.C,FB1*%
X163500000Y-8904000D03*
X163500000Y-6779000D03*
%TD*%
D31*
%TO.C,R6*%
X148025000Y-4800000D03*
X146375000Y-4800000D03*
%TD*%
D34*
%TO.C,H1*%
X2000000Y-2000000D03*
%TD*%
D35*
%TO.C,U1*%
X12275000Y-15150000D03*
X12275000Y-14200000D03*
X12275000Y-13250000D03*
X9925000Y-13250000D03*
X9925000Y-14200000D03*
X9925000Y-15150000D03*
%TD*%
D24*
%TO.C,FB3*%
X44600000Y-10789500D03*
X44600000Y-8664500D03*
%TD*%
D37*
%TO.C,U2*%
X155462500Y-9650000D03*
X155462500Y-10600000D03*
X155462500Y-11550000D03*
X157812500Y-11550000D03*
X157812500Y-10600000D03*
X157812500Y-9650000D03*
%TD*%
D28*
%TO.C,R2*%
X153010000Y-9700000D03*
X151990000Y-9700000D03*
%TD*%
D38*
%TO.C,U7*%
X129850000Y-5975000D03*
X130800000Y-5975000D03*
X131750000Y-5975000D03*
X131750000Y-3625000D03*
X130800000Y-3625000D03*
X129850000Y-3625000D03*
%TD*%
D26*
%TO.C,C2*%
X138000000Y-14155000D03*
X138000000Y-13195000D03*
%TD*%
D35*
%TO.C,U5*%
X37275000Y-15050000D03*
X37275000Y-14100000D03*
X37275000Y-13150000D03*
X34925000Y-13150000D03*
X34925000Y-14100000D03*
X34925000Y-15050000D03*
%TD*%
D26*
%TO.C,C5*%
X138000000Y-6280000D03*
X138000000Y-5320000D03*
%TD*%
%LPD*%
M02*
