M48
; DRILL file {KiCad 7.0.6} date Wed Sep  6 01:08:14 2023
; FORMAT={-:-/ absolute / inch / decimal}
; #@! TF.CreationDate,2023-09-06T01:08:14+01:00
; #@! TF.GenerationSoftware,Kicad,Pcbnew,7.0.6
; #@! TF.FileFunction,Plated,1,4,PTH
FMAT,2
INCH
; #@! TA.AperFunction,Plated,PTH,ComponentDrill
T1C0.0157
; #@! TA.AperFunction,Plated,PTH,ComponentDrill
T2C0.0236
; #@! TA.AperFunction,Plated,PTH,ComponentDrill
T3C0.0276
; #@! TA.AperFunction,Plated,PTH,ComponentDrill
T4C0.0866
%
G90
G05
T1
X2.2244Y-0.124
X2.2244Y-0.2972
X2.252Y-0.124
X2.252Y-0.2972
X2.2795Y-0.0925
X2.2795Y-0.124
X2.2795Y-0.2972
X2.2795Y-0.3268
T4
X0.0787Y-0.0787
T2
G00X1.6527Y-0.1297
M15
G01X1.6527Y-0.1061
M16
G05
G00X1.6527Y-0.3041
M15
G01X1.6527Y-0.2608
M16
G05
G00X1.9929Y-0.1297
M15
G01X1.9929Y-0.1061
M16
G05
G00X1.9929Y-0.3041
M15
G01X1.9929Y-0.2608
M16
G05
G00X3.3786Y-0.1358
M15
G01X3.3786Y-0.1122
M16
G05
G00X3.3786Y-0.3102
M15
G01X3.3786Y-0.2669
M16
G05
G00X3.7188Y-0.1358
M15
G01X3.7188Y-0.1122
M16
G05
G00X3.7188Y-0.3102
M15
G01X3.7188Y-0.2669
M16
G05
T3
G00X0.2318Y-0.1386
M15
G01X0.2318Y-0.0953
M16
G05
G00X0.2318Y-0.3729
M15
G01X0.2318Y-0.3296
M16
G05
G00X0.7358Y-0.0933
M15
G01X0.7358Y-0.1366
M16
G05
G00X0.7358Y-0.3296
M15
G01X0.7358Y-0.3729
M16
G05
G00X0.9369Y-0.1321
M15
G01X0.9369Y-0.0888
M16
G05
G00X0.9369Y-0.3664
M15
G01X0.9369Y-0.3231
M16
G05
G00X1.4409Y-0.0868
M15
G01X1.4409Y-0.1301
M16
G05
G00X1.4409Y-0.3231
M15
G01X1.4409Y-0.3664
M16
G05
T0
M30
