%TF.GenerationSoftware,KiCad,Pcbnew,7.0.6*%
%TF.CreationDate,2023-09-06T00:42:42+01:00*%
%TF.ProjectId,MoonHub,4d6f6f6e-4875-4622-9e6b-696361645f70,rev?*%
%TF.SameCoordinates,Original*%
%TF.FileFunction,Paste,Top*%
%TF.FilePolarity,Positive*%
%FSLAX46Y46*%
G04 Gerber Fmt 4.6, Leading zero omitted, Abs format (unit mm)*
G04 Created by KiCad (PCBNEW 7.0.6) date 2023-09-06 00:42:42*
%MOMM*%
%LPD*%
G01*
G04 APERTURE LIST*
G04 Aperture macros list*
%AMRoundRect*
0 Rectangle with rounded corners*
0 $1 Rounding radius*
0 $2 $3 $4 $5 $6 $7 $8 $9 X,Y pos of 4 corners*
0 Add a 4 corners polygon primitive as box body*
4,1,4,$2,$3,$4,$5,$6,$7,$8,$9,$2,$3,0*
0 Add four circle primitives for the rounded corners*
1,1,$1+$1,$2,$3*
1,1,$1+$1,$4,$5*
1,1,$1+$1,$6,$7*
1,1,$1+$1,$8,$9*
0 Add four rect primitives between the rounded corners*
20,1,$1+$1,$2,$3,$4,$5,0*
20,1,$1+$1,$4,$5,$6,$7,0*
20,1,$1+$1,$6,$7,$8,$9,0*
20,1,$1+$1,$8,$9,$2,$3,0*%
G04 Aperture macros list end*
%ADD10R,1.400000X2.800000*%
%ADD11O,1.400000X2.500000*%
%ADD12RoundRect,0.060000X0.240000X0.665000X-0.240000X0.665000X-0.240000X-0.665000X0.240000X-0.665000X0*%
%ADD13RoundRect,0.060000X0.090000X0.665000X-0.090000X0.665000X-0.090000X-0.665000X0.090000X-0.665000X0*%
%ADD14O,1.100000X2.200000*%
%ADD15O,1.300000X1.700000*%
%ADD16RoundRect,0.100000X-0.400000X0.250000X-0.400000X-0.250000X0.400000X-0.250000X0.400000X0.250000X0*%
%ADD17RoundRect,0.125000X-0.475000X0.250000X-0.475000X-0.250000X0.475000X-0.250000X0.475000X0.250000X0*%
%ADD18RoundRect,0.140000X-0.170000X0.140000X-0.170000X-0.140000X0.170000X-0.140000X0.170000X0.140000X0*%
%ADD19RoundRect,0.218750X0.381250X-0.218750X0.381250X0.218750X-0.381250X0.218750X-0.381250X-0.218750X0*%
%ADD20RoundRect,0.140000X0.140000X0.170000X-0.140000X0.170000X-0.140000X-0.170000X0.140000X-0.170000X0*%
%ADD21RoundRect,0.140000X0.170000X-0.140000X0.170000X0.140000X-0.170000X0.140000X-0.170000X-0.140000X0*%
%ADD22R,1.400000X1.200000*%
%ADD23RoundRect,0.135000X0.135000X0.185000X-0.135000X0.185000X-0.135000X-0.185000X0.135000X-0.185000X0*%
%ADD24RoundRect,0.135000X-0.135000X-0.185000X0.135000X-0.185000X0.135000X0.185000X-0.135000X0.185000X0*%
%ADD25R,1.200000X0.400000*%
%ADD26RoundRect,0.200000X0.200000X0.275000X-0.200000X0.275000X-0.200000X-0.275000X0.200000X-0.275000X0*%
%ADD27RoundRect,0.250000X-0.325000X-0.650000X0.325000X-0.650000X0.325000X0.650000X-0.325000X0.650000X0*%
%ADD28RoundRect,0.150000X0.475000X0.150000X-0.475000X0.150000X-0.475000X-0.150000X0.475000X-0.150000X0*%
%ADD29RoundRect,0.150000X-0.512500X-0.150000X0.512500X-0.150000X0.512500X0.150000X-0.512500X0.150000X0*%
%ADD30RoundRect,0.150000X-0.475000X-0.150000X0.475000X-0.150000X0.475000X0.150000X-0.475000X0.150000X0*%
%ADD31RoundRect,0.150000X0.150000X-0.475000X0.150000X0.475000X-0.150000X0.475000X-0.150000X-0.475000X0*%
G04 APERTURE END LIST*
%TO.C,USB5*%
G36*
X15300000Y-11538500D02*
G01*
X13900000Y-11538500D01*
X13900000Y-8738500D01*
X15300000Y-8738500D01*
X15300000Y-11538500D01*
G37*
G36*
X12801000Y-11538500D02*
G01*
X11401000Y-11538500D01*
X11401000Y-8738500D01*
X12801000Y-8738500D01*
X12801000Y-11538500D01*
G37*
G36*
X10799000Y-11538500D02*
G01*
X9399000Y-11538500D01*
X9399000Y-8738500D01*
X10799000Y-8738500D01*
X10799000Y-11538500D01*
G37*
G36*
X8300000Y-11538500D02*
G01*
X6900000Y-11538500D01*
X6900000Y-8738500D01*
X8300000Y-8738500D01*
X8300000Y-11538500D01*
G37*
G36*
X17553000Y-7416500D02*
G01*
X17588000Y-7420500D01*
X17622000Y-7425500D01*
X17657000Y-7432500D01*
X17690000Y-7440500D01*
X17724000Y-7451500D01*
X17757000Y-7463500D01*
X17789000Y-7476500D01*
X17820000Y-7491500D01*
X17851000Y-7508500D01*
X17881000Y-7526500D01*
X17909000Y-7546500D01*
X17937000Y-7567500D01*
X17964000Y-7589500D01*
X17990000Y-7613500D01*
X18014000Y-7638500D01*
X18037000Y-7664500D01*
X18059000Y-7692500D01*
X18079000Y-7720500D01*
X18098000Y-7749500D01*
X18116000Y-7779500D01*
X18131000Y-7811500D01*
X18146000Y-7842500D01*
X18159000Y-7875500D01*
X18170000Y-7908500D01*
X18179000Y-7942500D01*
X18187000Y-7976500D01*
X18193000Y-8010500D01*
X18197000Y-8045500D01*
X18200000Y-8079500D01*
X18201000Y-8114500D01*
X18201000Y-9214500D01*
X18200000Y-9249500D01*
X18197000Y-9284500D01*
X18193000Y-9319500D01*
X18187000Y-9353500D01*
X18179000Y-9387500D01*
X18170000Y-9421500D01*
X18159000Y-9454500D01*
X18146000Y-9486500D01*
X18131000Y-9518500D01*
X18116000Y-9549500D01*
X18098000Y-9579500D01*
X18079000Y-9609500D01*
X18059000Y-9637500D01*
X18037000Y-9664500D01*
X18014000Y-9690500D01*
X17990000Y-9715500D01*
X17964000Y-9739500D01*
X17937000Y-9762500D01*
X17909000Y-9783500D01*
X17881000Y-9802500D01*
X17851000Y-9821500D01*
X17820000Y-9837500D01*
X17789000Y-9852500D01*
X17757000Y-9866500D01*
X17724000Y-9878500D01*
X17690000Y-9888500D01*
X17657000Y-9897500D01*
X17622000Y-9904500D01*
X17588000Y-9909500D01*
X17553000Y-9912500D01*
X17518000Y-9914500D01*
X17483000Y-9914500D01*
X17449000Y-9912500D01*
X17414000Y-9909500D01*
X17379000Y-9904500D01*
X17345000Y-9897500D01*
X17311000Y-9888500D01*
X17278000Y-9878500D01*
X17245000Y-9866500D01*
X17213000Y-9852500D01*
X17181000Y-9837500D01*
X17151000Y-9821500D01*
X17121000Y-9802500D01*
X17092000Y-9783500D01*
X17064000Y-9762500D01*
X17038000Y-9739500D01*
X17012000Y-9715500D01*
X16988000Y-9690500D01*
X16965000Y-9664500D01*
X16943000Y-9637500D01*
X16922000Y-9609500D01*
X16904000Y-9579500D01*
X16886000Y-9549500D01*
X16870000Y-9518500D01*
X16856000Y-9486500D01*
X16843000Y-9454500D01*
X16832000Y-9421500D01*
X16822000Y-9387500D01*
X16815000Y-9353500D01*
X16809000Y-9319500D01*
X16804000Y-9284500D01*
X16802000Y-9249500D01*
X16801000Y-9214500D01*
X16801000Y-8114500D01*
X16802000Y-8079500D01*
X16804000Y-8045500D01*
X16809000Y-8010500D01*
X16815000Y-7976500D01*
X16822000Y-7942500D01*
X16832000Y-7908500D01*
X16843000Y-7875500D01*
X16856000Y-7842500D01*
X16870000Y-7811500D01*
X16886000Y-7779500D01*
X16904000Y-7749500D01*
X16922000Y-7720500D01*
X16943000Y-7692500D01*
X16965000Y-7664500D01*
X16988000Y-7638500D01*
X17012000Y-7613500D01*
X17038000Y-7589500D01*
X17064000Y-7567500D01*
X17092000Y-7546500D01*
X17121000Y-7526500D01*
X17151000Y-7508500D01*
X17181000Y-7491500D01*
X17213000Y-7476500D01*
X17245000Y-7463500D01*
X17278000Y-7451500D01*
X17311000Y-7440500D01*
X17345000Y-7432500D01*
X17379000Y-7425500D01*
X17414000Y-7420500D01*
X17449000Y-7416500D01*
X17483000Y-7414500D01*
X17518000Y-7414500D01*
X17553000Y-7416500D01*
G37*
G36*
X17553000Y-1414500D02*
G01*
X17588000Y-1418500D01*
X17622000Y-1423500D01*
X17657000Y-1430500D01*
X17690000Y-1438500D01*
X17724000Y-1449500D01*
X17757000Y-1461500D01*
X17789000Y-1474500D01*
X17820000Y-1489500D01*
X17851000Y-1506500D01*
X17881000Y-1524500D01*
X17909000Y-1544500D01*
X17937000Y-1565500D01*
X17964000Y-1587500D01*
X17990000Y-1611500D01*
X18014000Y-1636500D01*
X18037000Y-1662500D01*
X18059000Y-1690500D01*
X18079000Y-1718500D01*
X18098000Y-1747500D01*
X18116000Y-1777500D01*
X18131000Y-1809500D01*
X18146000Y-1840500D01*
X18159000Y-1873500D01*
X18170000Y-1906500D01*
X18179000Y-1939500D01*
X18187000Y-1973500D01*
X18193000Y-2008500D01*
X18197000Y-2043500D01*
X18200000Y-2077500D01*
X18201000Y-2112500D01*
X18201000Y-3212500D01*
X18200000Y-3247500D01*
X18197000Y-3282500D01*
X18193000Y-3317500D01*
X18187000Y-3351500D01*
X18179000Y-3385500D01*
X18170000Y-3419500D01*
X18159000Y-3452500D01*
X18146000Y-3484500D01*
X18131000Y-3516500D01*
X18116000Y-3547500D01*
X18098000Y-3577500D01*
X18079000Y-3607500D01*
X18059000Y-3635500D01*
X18037000Y-3662500D01*
X18014000Y-3688500D01*
X17990000Y-3713500D01*
X17964000Y-3737500D01*
X17937000Y-3759500D01*
X17909000Y-3780500D01*
X17881000Y-3800500D01*
X17851000Y-3818500D01*
X17820000Y-3835500D01*
X17789000Y-3850500D01*
X17757000Y-3864500D01*
X17724000Y-3876500D01*
X17690000Y-3886500D01*
X17657000Y-3895500D01*
X17622000Y-3902500D01*
X17588000Y-3907500D01*
X17553000Y-3910500D01*
X17518000Y-3912500D01*
X17483000Y-3912500D01*
X17449000Y-3910500D01*
X17414000Y-3907500D01*
X17379000Y-3902500D01*
X17345000Y-3895500D01*
X17311000Y-3886500D01*
X17278000Y-3876500D01*
X17245000Y-3864500D01*
X17213000Y-3850500D01*
X17181000Y-3835500D01*
X17151000Y-3818500D01*
X17121000Y-3800500D01*
X17092000Y-3780500D01*
X17064000Y-3759500D01*
X17038000Y-3737500D01*
X17012000Y-3713500D01*
X16988000Y-3688500D01*
X16965000Y-3662500D01*
X16943000Y-3635500D01*
X16922000Y-3607500D01*
X16904000Y-3577500D01*
X16886000Y-3547500D01*
X16870000Y-3516500D01*
X16856000Y-3484500D01*
X16843000Y-3452500D01*
X16832000Y-3419500D01*
X16822000Y-3385500D01*
X16815000Y-3351500D01*
X16809000Y-3317500D01*
X16804000Y-3282500D01*
X16802000Y-3247500D01*
X16801000Y-3212500D01*
X16801000Y-2112500D01*
X16802000Y-2077500D01*
X16804000Y-2043500D01*
X16809000Y-2008500D01*
X16815000Y-1973500D01*
X16822000Y-1939500D01*
X16832000Y-1906500D01*
X16843000Y-1873500D01*
X16856000Y-1840500D01*
X16870000Y-1809500D01*
X16886000Y-1777500D01*
X16904000Y-1747500D01*
X16922000Y-1718500D01*
X16943000Y-1690500D01*
X16965000Y-1662500D01*
X16988000Y-1636500D01*
X17012000Y-1611500D01*
X17038000Y-1587500D01*
X17064000Y-1565500D01*
X17092000Y-1544500D01*
X17121000Y-1524500D01*
X17151000Y-1506500D01*
X17181000Y-1489500D01*
X17213000Y-1474500D01*
X17245000Y-1461500D01*
X17278000Y-1449500D01*
X17311000Y-1438500D01*
X17345000Y-1430500D01*
X17379000Y-1423500D01*
X17414000Y-1418500D01*
X17449000Y-1414500D01*
X17483000Y-1412500D01*
X17518000Y-1412500D01*
X17553000Y-1414500D01*
G37*
G36*
X4751000Y-7416500D02*
G01*
X4786000Y-7420500D01*
X4821000Y-7425500D01*
X4855000Y-7432500D01*
X4889000Y-7440500D01*
X4922000Y-7451500D01*
X4955000Y-7463500D01*
X4987000Y-7476500D01*
X5019000Y-7491500D01*
X5049000Y-7508500D01*
X5079000Y-7526500D01*
X5108000Y-7546500D01*
X5136000Y-7567500D01*
X5162000Y-7589500D01*
X5188000Y-7613500D01*
X5212000Y-7638500D01*
X5235000Y-7664500D01*
X5257000Y-7692500D01*
X5278000Y-7720500D01*
X5296000Y-7749500D01*
X5314000Y-7779500D01*
X5330000Y-7811500D01*
X5344000Y-7842500D01*
X5357000Y-7875500D01*
X5368000Y-7908500D01*
X5378000Y-7942500D01*
X5385000Y-7976500D01*
X5391000Y-8010500D01*
X5396000Y-8045500D01*
X5398000Y-8079500D01*
X5399000Y-8114500D01*
X5399000Y-9214500D01*
X5398000Y-9249500D01*
X5396000Y-9284500D01*
X5391000Y-9319500D01*
X5385000Y-9353500D01*
X5378000Y-9387500D01*
X5368000Y-9421500D01*
X5357000Y-9454500D01*
X5344000Y-9486500D01*
X5330000Y-9518500D01*
X5314000Y-9549500D01*
X5296000Y-9579500D01*
X5278000Y-9609500D01*
X5257000Y-9637500D01*
X5235000Y-9664500D01*
X5212000Y-9690500D01*
X5188000Y-9715500D01*
X5162000Y-9739500D01*
X5136000Y-9762500D01*
X5108000Y-9783500D01*
X5079000Y-9802500D01*
X5049000Y-9821500D01*
X5019000Y-9837500D01*
X4987000Y-9852500D01*
X4955000Y-9866500D01*
X4922000Y-9878500D01*
X4889000Y-9888500D01*
X4855000Y-9897500D01*
X4821000Y-9904500D01*
X4786000Y-9909500D01*
X4751000Y-9912500D01*
X4717000Y-9914500D01*
X4682000Y-9914500D01*
X4647000Y-9912500D01*
X4612000Y-9909500D01*
X4578000Y-9904500D01*
X4543000Y-9897500D01*
X4510000Y-9888500D01*
X4476000Y-9878500D01*
X4443000Y-9866500D01*
X4411000Y-9852500D01*
X4380000Y-9837500D01*
X4349000Y-9821500D01*
X4319000Y-9802500D01*
X4291000Y-9783500D01*
X4263000Y-9762500D01*
X4236000Y-9739500D01*
X4210000Y-9715500D01*
X4186000Y-9690500D01*
X4163000Y-9664500D01*
X4141000Y-9637500D01*
X4121000Y-9609500D01*
X4102000Y-9579500D01*
X4084000Y-9549500D01*
X4068000Y-9518500D01*
X4054000Y-9486500D01*
X4041000Y-9454500D01*
X4030000Y-9421500D01*
X4021000Y-9387500D01*
X4013000Y-9353500D01*
X4007000Y-9319500D01*
X4003000Y-9284500D01*
X4000000Y-9249500D01*
X3999000Y-9214500D01*
X3999000Y-8114500D01*
X4000000Y-8079500D01*
X4003000Y-8045500D01*
X4007000Y-8010500D01*
X4013000Y-7976500D01*
X4021000Y-7942500D01*
X4030000Y-7908500D01*
X4041000Y-7875500D01*
X4054000Y-7842500D01*
X4068000Y-7811500D01*
X4084000Y-7779500D01*
X4102000Y-7749500D01*
X4121000Y-7720500D01*
X4141000Y-7692500D01*
X4163000Y-7664500D01*
X4186000Y-7638500D01*
X4210000Y-7613500D01*
X4236000Y-7589500D01*
X4263000Y-7567500D01*
X4291000Y-7546500D01*
X4319000Y-7526500D01*
X4349000Y-7508500D01*
X4380000Y-7491500D01*
X4411000Y-7476500D01*
X4443000Y-7463500D01*
X4476000Y-7451500D01*
X4510000Y-7440500D01*
X4543000Y-7432500D01*
X4578000Y-7425500D01*
X4612000Y-7420500D01*
X4647000Y-7416500D01*
X4682000Y-7414500D01*
X4717000Y-7414500D01*
X4751000Y-7416500D01*
G37*
G36*
X4751000Y-1465500D02*
G01*
X4786000Y-1468500D01*
X4821000Y-1474500D01*
X4855000Y-1481500D01*
X4889000Y-1489500D01*
X4922000Y-1499500D01*
X4955000Y-1511500D01*
X4987000Y-1525500D01*
X5019000Y-1540500D01*
X5049000Y-1557500D01*
X5079000Y-1575500D01*
X5108000Y-1595500D01*
X5136000Y-1616500D01*
X5162000Y-1638500D01*
X5188000Y-1662500D01*
X5212000Y-1687500D01*
X5235000Y-1713500D01*
X5257000Y-1740500D01*
X5278000Y-1769500D01*
X5296000Y-1798500D01*
X5314000Y-1828500D01*
X5330000Y-1859500D01*
X5344000Y-1891500D01*
X5357000Y-1924500D01*
X5368000Y-1957500D01*
X5378000Y-1990500D01*
X5385000Y-2024500D01*
X5391000Y-2059500D01*
X5396000Y-2093500D01*
X5398000Y-2128500D01*
X5399000Y-2163500D01*
X5399000Y-3263500D01*
X5398000Y-3298500D01*
X5396000Y-3333500D01*
X5391000Y-3367500D01*
X5385000Y-3402500D01*
X5378000Y-3436500D01*
X5368000Y-3469500D01*
X5357000Y-3502500D01*
X5344000Y-3535500D01*
X5330000Y-3567500D01*
X5314000Y-3598500D01*
X5296000Y-3628500D01*
X5278000Y-3657500D01*
X5257000Y-3686500D01*
X5235000Y-3713500D01*
X5212000Y-3739500D01*
X5188000Y-3764500D01*
X5162000Y-3788500D01*
X5136000Y-3810500D01*
X5108000Y-3831500D01*
X5079000Y-3851500D01*
X5049000Y-3869500D01*
X5019000Y-3886500D01*
X4987000Y-3901500D01*
X4955000Y-3915500D01*
X4922000Y-3927500D01*
X4889000Y-3937500D01*
X4855000Y-3945500D01*
X4821000Y-3952500D01*
X4786000Y-3958500D01*
X4751000Y-3961500D01*
X4717000Y-3963500D01*
X4682000Y-3963500D01*
X4647000Y-3961500D01*
X4612000Y-3958500D01*
X4578000Y-3952500D01*
X4543000Y-3945500D01*
X4510000Y-3937500D01*
X4476000Y-3927500D01*
X4443000Y-3915500D01*
X4411000Y-3901500D01*
X4380000Y-3886500D01*
X4349000Y-3869500D01*
X4319000Y-3851500D01*
X4291000Y-3831500D01*
X4263000Y-3810500D01*
X4236000Y-3788500D01*
X4210000Y-3764500D01*
X4186000Y-3739500D01*
X4163000Y-3713500D01*
X4141000Y-3686500D01*
X4121000Y-3657500D01*
X4102000Y-3628500D01*
X4084000Y-3598500D01*
X4068000Y-3567500D01*
X4054000Y-3535500D01*
X4041000Y-3502500D01*
X4030000Y-3469500D01*
X4021000Y-3436500D01*
X4013000Y-3402500D01*
X4007000Y-3367500D01*
X4003000Y-3333500D01*
X4000000Y-3298500D01*
X3999000Y-3263500D01*
X3999000Y-2163500D01*
X4000000Y-2128500D01*
X4003000Y-2093500D01*
X4007000Y-2059500D01*
X4013000Y-2024500D01*
X4021000Y-1990500D01*
X4030000Y-1957500D01*
X4041000Y-1924500D01*
X4054000Y-1891500D01*
X4068000Y-1859500D01*
X4084000Y-1828500D01*
X4102000Y-1798500D01*
X4121000Y-1769500D01*
X4141000Y-1740500D01*
X4163000Y-1713500D01*
X4186000Y-1687500D01*
X4210000Y-1662500D01*
X4236000Y-1638500D01*
X4263000Y-1616500D01*
X4291000Y-1595500D01*
X4319000Y-1575500D01*
X4349000Y-1557500D01*
X4380000Y-1540500D01*
X4411000Y-1525500D01*
X4443000Y-1511500D01*
X4476000Y-1499500D01*
X4510000Y-1489500D01*
X4543000Y-1481500D01*
X4578000Y-1474500D01*
X4612000Y-1468500D01*
X4647000Y-1465500D01*
X4682000Y-1463500D01*
X4717000Y-1463500D01*
X4751000Y-1465500D01*
G37*
%TO.C,USB4*%
G36*
X40300000Y-11538500D02*
G01*
X38900000Y-11538500D01*
X38900000Y-8738500D01*
X40300000Y-8738500D01*
X40300000Y-11538500D01*
G37*
G36*
X37801000Y-11538500D02*
G01*
X36401000Y-11538500D01*
X36401000Y-8738500D01*
X37801000Y-8738500D01*
X37801000Y-11538500D01*
G37*
G36*
X35799000Y-11538500D02*
G01*
X34399000Y-11538500D01*
X34399000Y-8738500D01*
X35799000Y-8738500D01*
X35799000Y-11538500D01*
G37*
G36*
X33300000Y-11538500D02*
G01*
X31900000Y-11538500D01*
X31900000Y-8738500D01*
X33300000Y-8738500D01*
X33300000Y-11538500D01*
G37*
G36*
X42553000Y-7416500D02*
G01*
X42588000Y-7420500D01*
X42622000Y-7425500D01*
X42657000Y-7432500D01*
X42690000Y-7440500D01*
X42724000Y-7451500D01*
X42757000Y-7463500D01*
X42789000Y-7476500D01*
X42820000Y-7491500D01*
X42851000Y-7508500D01*
X42881000Y-7526500D01*
X42909000Y-7546500D01*
X42937000Y-7567500D01*
X42964000Y-7589500D01*
X42990000Y-7613500D01*
X43014000Y-7638500D01*
X43037000Y-7664500D01*
X43059000Y-7692500D01*
X43079000Y-7720500D01*
X43098000Y-7749500D01*
X43116000Y-7779500D01*
X43131000Y-7811500D01*
X43146000Y-7842500D01*
X43159000Y-7875500D01*
X43170000Y-7908500D01*
X43179000Y-7942500D01*
X43187000Y-7976500D01*
X43193000Y-8010500D01*
X43197000Y-8045500D01*
X43200000Y-8079500D01*
X43201000Y-8114500D01*
X43201000Y-9214500D01*
X43200000Y-9249500D01*
X43197000Y-9284500D01*
X43193000Y-9319500D01*
X43187000Y-9353500D01*
X43179000Y-9387500D01*
X43170000Y-9421500D01*
X43159000Y-9454500D01*
X43146000Y-9486500D01*
X43131000Y-9518500D01*
X43116000Y-9549500D01*
X43098000Y-9579500D01*
X43079000Y-9609500D01*
X43059000Y-9637500D01*
X43037000Y-9664500D01*
X43014000Y-9690500D01*
X42990000Y-9715500D01*
X42964000Y-9739500D01*
X42937000Y-9762500D01*
X42909000Y-9783500D01*
X42881000Y-9802500D01*
X42851000Y-9821500D01*
X42820000Y-9837500D01*
X42789000Y-9852500D01*
X42757000Y-9866500D01*
X42724000Y-9878500D01*
X42690000Y-9888500D01*
X42657000Y-9897500D01*
X42622000Y-9904500D01*
X42588000Y-9909500D01*
X42553000Y-9912500D01*
X42518000Y-9914500D01*
X42483000Y-9914500D01*
X42449000Y-9912500D01*
X42414000Y-9909500D01*
X42379000Y-9904500D01*
X42345000Y-9897500D01*
X42311000Y-9888500D01*
X42278000Y-9878500D01*
X42245000Y-9866500D01*
X42213000Y-9852500D01*
X42181000Y-9837500D01*
X42151000Y-9821500D01*
X42121000Y-9802500D01*
X42092000Y-9783500D01*
X42064000Y-9762500D01*
X42038000Y-9739500D01*
X42012000Y-9715500D01*
X41988000Y-9690500D01*
X41965000Y-9664500D01*
X41943000Y-9637500D01*
X41922000Y-9609500D01*
X41904000Y-9579500D01*
X41886000Y-9549500D01*
X41870000Y-9518500D01*
X41856000Y-9486500D01*
X41843000Y-9454500D01*
X41832000Y-9421500D01*
X41822000Y-9387500D01*
X41815000Y-9353500D01*
X41809000Y-9319500D01*
X41804000Y-9284500D01*
X41802000Y-9249500D01*
X41801000Y-9214500D01*
X41801000Y-8114500D01*
X41802000Y-8079500D01*
X41804000Y-8045500D01*
X41809000Y-8010500D01*
X41815000Y-7976500D01*
X41822000Y-7942500D01*
X41832000Y-7908500D01*
X41843000Y-7875500D01*
X41856000Y-7842500D01*
X41870000Y-7811500D01*
X41886000Y-7779500D01*
X41904000Y-7749500D01*
X41922000Y-7720500D01*
X41943000Y-7692500D01*
X41965000Y-7664500D01*
X41988000Y-7638500D01*
X42012000Y-7613500D01*
X42038000Y-7589500D01*
X42064000Y-7567500D01*
X42092000Y-7546500D01*
X42121000Y-7526500D01*
X42151000Y-7508500D01*
X42181000Y-7491500D01*
X42213000Y-7476500D01*
X42245000Y-7463500D01*
X42278000Y-7451500D01*
X42311000Y-7440500D01*
X42345000Y-7432500D01*
X42379000Y-7425500D01*
X42414000Y-7420500D01*
X42449000Y-7416500D01*
X42483000Y-7414500D01*
X42518000Y-7414500D01*
X42553000Y-7416500D01*
G37*
G36*
X42553000Y-1414500D02*
G01*
X42588000Y-1418500D01*
X42622000Y-1423500D01*
X42657000Y-1430500D01*
X42690000Y-1438500D01*
X42724000Y-1449500D01*
X42757000Y-1461500D01*
X42789000Y-1474500D01*
X42820000Y-1489500D01*
X42851000Y-1506500D01*
X42881000Y-1524500D01*
X42909000Y-1544500D01*
X42937000Y-1565500D01*
X42964000Y-1587500D01*
X42990000Y-1611500D01*
X43014000Y-1636500D01*
X43037000Y-1662500D01*
X43059000Y-1690500D01*
X43079000Y-1718500D01*
X43098000Y-1747500D01*
X43116000Y-1777500D01*
X43131000Y-1809500D01*
X43146000Y-1840500D01*
X43159000Y-1873500D01*
X43170000Y-1906500D01*
X43179000Y-1939500D01*
X43187000Y-1973500D01*
X43193000Y-2008500D01*
X43197000Y-2043500D01*
X43200000Y-2077500D01*
X43201000Y-2112500D01*
X43201000Y-3212500D01*
X43200000Y-3247500D01*
X43197000Y-3282500D01*
X43193000Y-3317500D01*
X43187000Y-3351500D01*
X43179000Y-3385500D01*
X43170000Y-3419500D01*
X43159000Y-3452500D01*
X43146000Y-3484500D01*
X43131000Y-3516500D01*
X43116000Y-3547500D01*
X43098000Y-3577500D01*
X43079000Y-3607500D01*
X43059000Y-3635500D01*
X43037000Y-3662500D01*
X43014000Y-3688500D01*
X42990000Y-3713500D01*
X42964000Y-3737500D01*
X42937000Y-3759500D01*
X42909000Y-3780500D01*
X42881000Y-3800500D01*
X42851000Y-3818500D01*
X42820000Y-3835500D01*
X42789000Y-3850500D01*
X42757000Y-3864500D01*
X42724000Y-3876500D01*
X42690000Y-3886500D01*
X42657000Y-3895500D01*
X42622000Y-3902500D01*
X42588000Y-3907500D01*
X42553000Y-3910500D01*
X42518000Y-3912500D01*
X42483000Y-3912500D01*
X42449000Y-3910500D01*
X42414000Y-3907500D01*
X42379000Y-3902500D01*
X42345000Y-3895500D01*
X42311000Y-3886500D01*
X42278000Y-3876500D01*
X42245000Y-3864500D01*
X42213000Y-3850500D01*
X42181000Y-3835500D01*
X42151000Y-3818500D01*
X42121000Y-3800500D01*
X42092000Y-3780500D01*
X42064000Y-3759500D01*
X42038000Y-3737500D01*
X42012000Y-3713500D01*
X41988000Y-3688500D01*
X41965000Y-3662500D01*
X41943000Y-3635500D01*
X41922000Y-3607500D01*
X41904000Y-3577500D01*
X41886000Y-3547500D01*
X41870000Y-3516500D01*
X41856000Y-3484500D01*
X41843000Y-3452500D01*
X41832000Y-3419500D01*
X41822000Y-3385500D01*
X41815000Y-3351500D01*
X41809000Y-3317500D01*
X41804000Y-3282500D01*
X41802000Y-3247500D01*
X41801000Y-3212500D01*
X41801000Y-2112500D01*
X41802000Y-2077500D01*
X41804000Y-2043500D01*
X41809000Y-2008500D01*
X41815000Y-1973500D01*
X41822000Y-1939500D01*
X41832000Y-1906500D01*
X41843000Y-1873500D01*
X41856000Y-1840500D01*
X41870000Y-1809500D01*
X41886000Y-1777500D01*
X41904000Y-1747500D01*
X41922000Y-1718500D01*
X41943000Y-1690500D01*
X41965000Y-1662500D01*
X41988000Y-1636500D01*
X42012000Y-1611500D01*
X42038000Y-1587500D01*
X42064000Y-1565500D01*
X42092000Y-1544500D01*
X42121000Y-1524500D01*
X42151000Y-1506500D01*
X42181000Y-1489500D01*
X42213000Y-1474500D01*
X42245000Y-1461500D01*
X42278000Y-1449500D01*
X42311000Y-1438500D01*
X42345000Y-1430500D01*
X42379000Y-1423500D01*
X42414000Y-1418500D01*
X42449000Y-1414500D01*
X42483000Y-1412500D01*
X42518000Y-1412500D01*
X42553000Y-1414500D01*
G37*
G36*
X29751000Y-7416500D02*
G01*
X29786000Y-7420500D01*
X29821000Y-7425500D01*
X29855000Y-7432500D01*
X29889000Y-7440500D01*
X29922000Y-7451500D01*
X29955000Y-7463500D01*
X29987000Y-7476500D01*
X30019000Y-7491500D01*
X30049000Y-7508500D01*
X30079000Y-7526500D01*
X30108000Y-7546500D01*
X30136000Y-7567500D01*
X30162000Y-7589500D01*
X30188000Y-7613500D01*
X30212000Y-7638500D01*
X30235000Y-7664500D01*
X30257000Y-7692500D01*
X30278000Y-7720500D01*
X30296000Y-7749500D01*
X30314000Y-7779500D01*
X30330000Y-7811500D01*
X30344000Y-7842500D01*
X30357000Y-7875500D01*
X30368000Y-7908500D01*
X30378000Y-7942500D01*
X30385000Y-7976500D01*
X30391000Y-8010500D01*
X30396000Y-8045500D01*
X30398000Y-8079500D01*
X30399000Y-8114500D01*
X30399000Y-9214500D01*
X30398000Y-9249500D01*
X30396000Y-9284500D01*
X30391000Y-9319500D01*
X30385000Y-9353500D01*
X30378000Y-9387500D01*
X30368000Y-9421500D01*
X30357000Y-9454500D01*
X30344000Y-9486500D01*
X30330000Y-9518500D01*
X30314000Y-9549500D01*
X30296000Y-9579500D01*
X30278000Y-9609500D01*
X30257000Y-9637500D01*
X30235000Y-9664500D01*
X30212000Y-9690500D01*
X30188000Y-9715500D01*
X30162000Y-9739500D01*
X30136000Y-9762500D01*
X30108000Y-9783500D01*
X30079000Y-9802500D01*
X30049000Y-9821500D01*
X30019000Y-9837500D01*
X29987000Y-9852500D01*
X29955000Y-9866500D01*
X29922000Y-9878500D01*
X29889000Y-9888500D01*
X29855000Y-9897500D01*
X29821000Y-9904500D01*
X29786000Y-9909500D01*
X29751000Y-9912500D01*
X29717000Y-9914500D01*
X29682000Y-9914500D01*
X29647000Y-9912500D01*
X29612000Y-9909500D01*
X29578000Y-9904500D01*
X29543000Y-9897500D01*
X29510000Y-9888500D01*
X29476000Y-9878500D01*
X29443000Y-9866500D01*
X29411000Y-9852500D01*
X29380000Y-9837500D01*
X29349000Y-9821500D01*
X29319000Y-9802500D01*
X29291000Y-9783500D01*
X29263000Y-9762500D01*
X29236000Y-9739500D01*
X29210000Y-9715500D01*
X29186000Y-9690500D01*
X29163000Y-9664500D01*
X29141000Y-9637500D01*
X29121000Y-9609500D01*
X29102000Y-9579500D01*
X29084000Y-9549500D01*
X29068000Y-9518500D01*
X29054000Y-9486500D01*
X29041000Y-9454500D01*
X29030000Y-9421500D01*
X29021000Y-9387500D01*
X29013000Y-9353500D01*
X29007000Y-9319500D01*
X29003000Y-9284500D01*
X29000000Y-9249500D01*
X28999000Y-9214500D01*
X28999000Y-8114500D01*
X29000000Y-8079500D01*
X29003000Y-8045500D01*
X29007000Y-8010500D01*
X29013000Y-7976500D01*
X29021000Y-7942500D01*
X29030000Y-7908500D01*
X29041000Y-7875500D01*
X29054000Y-7842500D01*
X29068000Y-7811500D01*
X29084000Y-7779500D01*
X29102000Y-7749500D01*
X29121000Y-7720500D01*
X29141000Y-7692500D01*
X29163000Y-7664500D01*
X29186000Y-7638500D01*
X29210000Y-7613500D01*
X29236000Y-7589500D01*
X29263000Y-7567500D01*
X29291000Y-7546500D01*
X29319000Y-7526500D01*
X29349000Y-7508500D01*
X29380000Y-7491500D01*
X29411000Y-7476500D01*
X29443000Y-7463500D01*
X29476000Y-7451500D01*
X29510000Y-7440500D01*
X29543000Y-7432500D01*
X29578000Y-7425500D01*
X29612000Y-7420500D01*
X29647000Y-7416500D01*
X29682000Y-7414500D01*
X29717000Y-7414500D01*
X29751000Y-7416500D01*
G37*
G36*
X29751000Y-1465500D02*
G01*
X29786000Y-1468500D01*
X29821000Y-1474500D01*
X29855000Y-1481500D01*
X29889000Y-1489500D01*
X29922000Y-1499500D01*
X29955000Y-1511500D01*
X29987000Y-1525500D01*
X30019000Y-1540500D01*
X30049000Y-1557500D01*
X30079000Y-1575500D01*
X30108000Y-1595500D01*
X30136000Y-1616500D01*
X30162000Y-1638500D01*
X30188000Y-1662500D01*
X30212000Y-1687500D01*
X30235000Y-1713500D01*
X30257000Y-1740500D01*
X30278000Y-1769500D01*
X30296000Y-1798500D01*
X30314000Y-1828500D01*
X30330000Y-1859500D01*
X30344000Y-1891500D01*
X30357000Y-1924500D01*
X30368000Y-1957500D01*
X30378000Y-1990500D01*
X30385000Y-2024500D01*
X30391000Y-2059500D01*
X30396000Y-2093500D01*
X30398000Y-2128500D01*
X30399000Y-2163500D01*
X30399000Y-3263500D01*
X30398000Y-3298500D01*
X30396000Y-3333500D01*
X30391000Y-3367500D01*
X30385000Y-3402500D01*
X30378000Y-3436500D01*
X30368000Y-3469500D01*
X30357000Y-3502500D01*
X30344000Y-3535500D01*
X30330000Y-3567500D01*
X30314000Y-3598500D01*
X30296000Y-3628500D01*
X30278000Y-3657500D01*
X30257000Y-3686500D01*
X30235000Y-3713500D01*
X30212000Y-3739500D01*
X30188000Y-3764500D01*
X30162000Y-3788500D01*
X30136000Y-3810500D01*
X30108000Y-3831500D01*
X30079000Y-3851500D01*
X30049000Y-3869500D01*
X30019000Y-3886500D01*
X29987000Y-3901500D01*
X29955000Y-3915500D01*
X29922000Y-3927500D01*
X29889000Y-3937500D01*
X29855000Y-3945500D01*
X29821000Y-3952500D01*
X29786000Y-3958500D01*
X29751000Y-3961500D01*
X29717000Y-3963500D01*
X29682000Y-3963500D01*
X29647000Y-3961500D01*
X29612000Y-3958500D01*
X29578000Y-3952500D01*
X29543000Y-3945500D01*
X29510000Y-3937500D01*
X29476000Y-3927500D01*
X29443000Y-3915500D01*
X29411000Y-3901500D01*
X29380000Y-3886500D01*
X29349000Y-3869500D01*
X29319000Y-3851500D01*
X29291000Y-3831500D01*
X29263000Y-3810500D01*
X29236000Y-3788500D01*
X29210000Y-3764500D01*
X29186000Y-3739500D01*
X29163000Y-3713500D01*
X29141000Y-3686500D01*
X29121000Y-3657500D01*
X29102000Y-3628500D01*
X29084000Y-3598500D01*
X29068000Y-3567500D01*
X29054000Y-3535500D01*
X29041000Y-3502500D01*
X29030000Y-3469500D01*
X29021000Y-3436500D01*
X29013000Y-3402500D01*
X29007000Y-3367500D01*
X29003000Y-3333500D01*
X29000000Y-3298500D01*
X28999000Y-3263500D01*
X28999000Y-2163500D01*
X29000000Y-2128500D01*
X29003000Y-2093500D01*
X29007000Y-2059500D01*
X29013000Y-2024500D01*
X29021000Y-1990500D01*
X29030000Y-1957500D01*
X29041000Y-1924500D01*
X29054000Y-1891500D01*
X29068000Y-1859500D01*
X29084000Y-1828500D01*
X29102000Y-1798500D01*
X29121000Y-1769500D01*
X29141000Y-1740500D01*
X29163000Y-1713500D01*
X29186000Y-1687500D01*
X29210000Y-1662500D01*
X29236000Y-1638500D01*
X29263000Y-1616500D01*
X29291000Y-1595500D01*
X29319000Y-1575500D01*
X29349000Y-1557500D01*
X29380000Y-1540500D01*
X29411000Y-1525500D01*
X29443000Y-1511500D01*
X29476000Y-1499500D01*
X29510000Y-1489500D01*
X29543000Y-1481500D01*
X29578000Y-1474500D01*
X29612000Y-1468500D01*
X29647000Y-1465500D01*
X29682000Y-1463500D01*
X29717000Y-1463500D01*
X29751000Y-1465500D01*
G37*
%TD*%
D10*
%TO.C,USB5*%
X14600000Y-10138500D03*
X12101000Y-10138500D03*
X10099000Y-10138500D03*
X7600000Y-10138500D03*
D11*
X17501000Y-8664500D03*
X17501000Y-2662500D03*
X4699000Y-8664500D03*
X4699000Y-2713500D03*
%TD*%
D10*
%TO.C,USB4*%
X39600000Y-10138500D03*
X37101000Y-10138500D03*
X35099000Y-10138500D03*
X32600000Y-10138500D03*
D11*
X42501000Y-8664500D03*
X42501000Y-2662500D03*
X29699000Y-8664500D03*
X29699000Y-2713500D03*
%TD*%
D12*
%TO.C,USB3*%
X64325000Y-7694000D03*
X63550000Y-7694000D03*
D13*
X62350000Y-7694000D03*
X61350000Y-7694000D03*
X60850000Y-7694000D03*
X59850000Y-7694000D03*
D12*
X57875000Y-7694000D03*
X58650000Y-7694000D03*
D13*
X59350000Y-7694000D03*
X60350000Y-7694000D03*
X61850000Y-7694000D03*
X62850000Y-7694000D03*
D14*
X65420000Y-6779000D03*
D15*
X65420000Y-2599000D03*
D14*
X56780000Y-6779000D03*
D15*
X56780000Y-2599000D03*
%TD*%
D12*
%TO.C,USB1*%
X160362500Y-7694000D03*
X159587500Y-7694000D03*
D13*
X158387500Y-7694000D03*
X157387500Y-7694000D03*
X156887500Y-7694000D03*
X155887500Y-7694000D03*
D12*
X153912500Y-7694000D03*
X154687500Y-7694000D03*
D13*
X155387500Y-7694000D03*
X156387500Y-7694000D03*
X157887500Y-7694000D03*
X158887500Y-7694000D03*
D14*
X161457500Y-6779000D03*
D15*
X161457500Y-2599000D03*
D14*
X152817500Y-6779000D03*
D15*
X152817500Y-2599000D03*
%TD*%
D16*
%TO.C,USB2*%
X123700000Y-1850000D03*
D17*
X127700000Y-3000000D03*
X127700000Y-4200000D03*
X127700000Y-5400000D03*
X127700000Y-6600000D03*
D16*
X123700000Y-7750000D03*
%TD*%
D18*
%TO.C,C7*%
X140600000Y-2245000D03*
X140600000Y-3205000D03*
%TD*%
D19*
%TO.C,FB4*%
X67400000Y-8904000D03*
X67400000Y-6779000D03*
%TD*%
D20*
%TO.C,C6*%
X138000000Y-7400000D03*
X137040000Y-7400000D03*
%TD*%
D19*
%TO.C,FB2*%
X19600000Y-10789500D03*
X19600000Y-8664500D03*
%TD*%
D21*
%TO.C,C1*%
X147300000Y-10380000D03*
X147300000Y-9420000D03*
%TD*%
D22*
%TO.C,D1*%
X150400000Y-5100000D03*
X150400000Y-8500000D03*
%TD*%
D23*
%TO.C,R3*%
X66010000Y-9500000D03*
X64990000Y-9500000D03*
%TD*%
D24*
%TO.C,R4*%
X57890000Y-9600000D03*
X58910000Y-9600000D03*
%TD*%
D25*
%TO.C,U3*%
X139500000Y-6130000D03*
X139500000Y-6765000D03*
X139500000Y-7400000D03*
X139500000Y-8035000D03*
X139500000Y-8670000D03*
X139500000Y-9305000D03*
X139500000Y-9940000D03*
X139500000Y-10575000D03*
X139500000Y-11210000D03*
X139500000Y-11845000D03*
X139500000Y-12480000D03*
X139500000Y-13115000D03*
X139500000Y-13750000D03*
X139500000Y-14385000D03*
X144700000Y-14385000D03*
X144700000Y-13750000D03*
X144700000Y-13115000D03*
X144700000Y-12480000D03*
X144700000Y-11845000D03*
X144700000Y-11210000D03*
X144700000Y-10575000D03*
X144700000Y-9940000D03*
X144700000Y-9305000D03*
X144700000Y-8670000D03*
X144700000Y-8035000D03*
X144700000Y-7400000D03*
X144700000Y-6765000D03*
X144700000Y-6130000D03*
%TD*%
D26*
%TO.C,R5*%
X148025000Y-6500000D03*
X146375000Y-6500000D03*
%TD*%
D22*
%TO.C,Y1*%
X134100000Y-5850000D03*
X136300000Y-5850000D03*
X136300000Y-4150000D03*
X134100000Y-4150000D03*
%TD*%
D27*
%TO.C,C8*%
X146425000Y-2700000D03*
X149375000Y-2700000D03*
%TD*%
D21*
%TO.C,C3*%
X146200000Y-10380000D03*
X146200000Y-9420000D03*
%TD*%
D28*
%TO.C,U6*%
X62775000Y-11550000D03*
X62775000Y-10600000D03*
X62775000Y-9650000D03*
X60425000Y-9650000D03*
X60425000Y-10600000D03*
X60425000Y-11550000D03*
%TD*%
D24*
%TO.C,R1*%
X159390000Y-9900000D03*
X160410000Y-9900000D03*
%TD*%
D18*
%TO.C,C4*%
X146200000Y-11420000D03*
X146200000Y-12380000D03*
%TD*%
D29*
%TO.C,U4*%
X142162500Y-2250000D03*
X142162500Y-3200000D03*
X142162500Y-4150000D03*
X144437500Y-4150000D03*
X144437500Y-3200000D03*
X144437500Y-2250000D03*
%TD*%
D19*
%TO.C,FB1*%
X163500000Y-8904000D03*
X163500000Y-6779000D03*
%TD*%
D26*
%TO.C,R6*%
X148025000Y-4800000D03*
X146375000Y-4800000D03*
%TD*%
D28*
%TO.C,U1*%
X12275000Y-15150000D03*
X12275000Y-14200000D03*
X12275000Y-13250000D03*
X9925000Y-13250000D03*
X9925000Y-14200000D03*
X9925000Y-15150000D03*
%TD*%
D19*
%TO.C,FB3*%
X44600000Y-10789500D03*
X44600000Y-8664500D03*
%TD*%
D30*
%TO.C,U2*%
X155462500Y-9650000D03*
X155462500Y-10600000D03*
X155462500Y-11550000D03*
X157812500Y-11550000D03*
X157812500Y-10600000D03*
X157812500Y-9650000D03*
%TD*%
D23*
%TO.C,R2*%
X153010000Y-9700000D03*
X151990000Y-9700000D03*
%TD*%
D31*
%TO.C,U7*%
X129850000Y-5975000D03*
X130800000Y-5975000D03*
X131750000Y-5975000D03*
X131750000Y-3625000D03*
X130800000Y-3625000D03*
X129850000Y-3625000D03*
%TD*%
D21*
%TO.C,C2*%
X138000000Y-14155000D03*
X138000000Y-13195000D03*
%TD*%
D28*
%TO.C,U5*%
X37275000Y-15050000D03*
X37275000Y-14100000D03*
X37275000Y-13150000D03*
X34925000Y-13150000D03*
X34925000Y-14100000D03*
X34925000Y-15050000D03*
%TD*%
D21*
%TO.C,C5*%
X138000000Y-6280000D03*
X138000000Y-5320000D03*
%TD*%
M02*
