%TF.GenerationSoftware,KiCad,Pcbnew,7.0.6*%
%TF.CreationDate,2023-09-06T01:08:14+01:00*%
%TF.ProjectId,MoonHub,4d6f6f6e-4875-4622-9e6b-696361645f70,rev?*%
%TF.SameCoordinates,Original*%
%TF.FileFunction,Legend,Top*%
%TF.FilePolarity,Positive*%
%FSLAX46Y46*%
G04 Gerber Fmt 4.6, Leading zero omitted, Abs format (unit mm)*
G04 Created by KiCad (PCBNEW 7.0.6) date 2023-09-06 01:08:14*
%MOMM*%
%LPD*%
G01*
G04 APERTURE LIST*
G04 Aperture macros list*
%AMRoundRect*
0 Rectangle with rounded corners*
0 $1 Rounding radius*
0 $2 $3 $4 $5 $6 $7 $8 $9 X,Y pos of 4 corners*
0 Add a 4 corners polygon primitive as box body*
4,1,4,$2,$3,$4,$5,$6,$7,$8,$9,$2,$3,0*
0 Add four circle primitives for the rounded corners*
1,1,$1+$1,$2,$3*
1,1,$1+$1,$4,$5*
1,1,$1+$1,$6,$7*
1,1,$1+$1,$8,$9*
0 Add four rect primitives between the rounded corners*
20,1,$1+$1,$2,$3,$4,$5,0*
20,1,$1+$1,$4,$5,$6,$7,0*
20,1,$1+$1,$6,$7,$8,$9,0*
20,1,$1+$1,$8,$9,$2,$3,0*%
G04 Aperture macros list end*
%ADD10C,0.150000*%
%ADD11C,0.152000*%
%ADD12C,0.120000*%
%ADD13C,0.254000*%
%ADD14C,3.576001*%
%ADD15RoundRect,0.100000X-0.400000X0.250000X-0.400000X-0.250000X0.400000X-0.250000X0.400000X0.250000X0*%
%ADD16RoundRect,0.125000X-0.475000X0.250000X-0.475000X-0.250000X0.475000X-0.250000X0.475000X0.250000X0*%
%ADD17RoundRect,0.178000X-0.170000X0.140000X-0.170000X-0.140000X0.170000X-0.140000X0.170000X0.140000X0*%
%ADD18RoundRect,0.256750X0.381250X-0.218750X0.381250X0.218750X-0.381250X0.218750X-0.381250X-0.218750X0*%
%ADD19RoundRect,0.178000X0.140000X0.170000X-0.140000X0.170000X-0.140000X-0.170000X0.140000X-0.170000X0*%
%ADD20C,0.726000*%
%ADD21RoundRect,0.098000X0.240000X0.665000X-0.240000X0.665000X-0.240000X-0.665000X0.240000X-0.665000X0*%
%ADD22RoundRect,0.098000X0.090000X0.665000X-0.090000X0.665000X-0.090000X-0.665000X0.090000X-0.665000X0*%
%ADD23O,1.176000X2.276000*%
%ADD24O,1.376000X1.776000*%
%ADD25RoundRect,0.178000X0.170000X-0.140000X0.170000X0.140000X-0.170000X0.140000X-0.170000X-0.140000X0*%
%ADD26RoundRect,0.038000X-0.700000X0.600000X-0.700000X-0.600000X0.700000X-0.600000X0.700000X0.600000X0*%
%ADD27RoundRect,0.173000X0.135000X0.185000X-0.135000X0.185000X-0.135000X-0.185000X0.135000X-0.185000X0*%
%ADD28RoundRect,0.173000X-0.135000X-0.185000X0.135000X-0.185000X0.135000X0.185000X-0.135000X0.185000X0*%
%ADD29RoundRect,0.038000X-0.600000X-0.200000X0.600000X-0.200000X0.600000X0.200000X-0.600000X0.200000X0*%
%ADD30RoundRect,0.238000X0.200000X0.275000X-0.200000X0.275000X-0.200000X-0.275000X0.200000X-0.275000X0*%
%ADD31RoundRect,0.038000X-0.700000X-0.600000X0.700000X-0.600000X0.700000X0.600000X-0.700000X0.600000X0*%
%ADD32RoundRect,0.288000X-0.325000X-0.650000X0.325000X-0.650000X0.325000X0.650000X-0.325000X0.650000X0*%
%ADD33RoundRect,0.188000X0.475000X0.150000X-0.475000X0.150000X-0.475000X-0.150000X0.475000X-0.150000X0*%
%ADD34RoundRect,0.188000X-0.512500X-0.150000X0.512500X-0.150000X0.512500X0.150000X-0.512500X0.150000X0*%
%ADD35RoundRect,0.038000X-0.700000X-1.400000X0.700000X-1.400000X0.700000X1.400000X-0.700000X1.400000X0*%
%ADD36O,1.476000X2.576000*%
%ADD37RoundRect,0.188000X-0.475000X-0.150000X0.475000X-0.150000X0.475000X0.150000X-0.475000X0.150000X0*%
%ADD38RoundRect,0.188000X0.150000X-0.475000X0.150000X0.475000X-0.150000X0.475000X-0.150000X-0.475000X0*%
G04 APERTURE END LIST*
D10*
X61654819Y-7088094D02*
X62464342Y-7088094D01*
X62464342Y-7088094D02*
X62559580Y-7040475D01*
X62559580Y-7040475D02*
X62607200Y-6992856D01*
X62607200Y-6992856D02*
X62654819Y-6897618D01*
X62654819Y-6897618D02*
X62654819Y-6707142D01*
X62654819Y-6707142D02*
X62607200Y-6611904D01*
X62607200Y-6611904D02*
X62559580Y-6564285D01*
X62559580Y-6564285D02*
X62464342Y-6516666D01*
X62464342Y-6516666D02*
X61654819Y-6516666D01*
X62607200Y-6088094D02*
X62654819Y-5945237D01*
X62654819Y-5945237D02*
X62654819Y-5707142D01*
X62654819Y-5707142D02*
X62607200Y-5611904D01*
X62607200Y-5611904D02*
X62559580Y-5564285D01*
X62559580Y-5564285D02*
X62464342Y-5516666D01*
X62464342Y-5516666D02*
X62369104Y-5516666D01*
X62369104Y-5516666D02*
X62273866Y-5564285D01*
X62273866Y-5564285D02*
X62226247Y-5611904D01*
X62226247Y-5611904D02*
X62178628Y-5707142D01*
X62178628Y-5707142D02*
X62131009Y-5897618D01*
X62131009Y-5897618D02*
X62083390Y-5992856D01*
X62083390Y-5992856D02*
X62035771Y-6040475D01*
X62035771Y-6040475D02*
X61940533Y-6088094D01*
X61940533Y-6088094D02*
X61845295Y-6088094D01*
X61845295Y-6088094D02*
X61750057Y-6040475D01*
X61750057Y-6040475D02*
X61702438Y-5992856D01*
X61702438Y-5992856D02*
X61654819Y-5897618D01*
X61654819Y-5897618D02*
X61654819Y-5659523D01*
X61654819Y-5659523D02*
X61702438Y-5516666D01*
X62131009Y-4754761D02*
X62178628Y-4611904D01*
X62178628Y-4611904D02*
X62226247Y-4564285D01*
X62226247Y-4564285D02*
X62321485Y-4516666D01*
X62321485Y-4516666D02*
X62464342Y-4516666D01*
X62464342Y-4516666D02*
X62559580Y-4564285D01*
X62559580Y-4564285D02*
X62607200Y-4611904D01*
X62607200Y-4611904D02*
X62654819Y-4707142D01*
X62654819Y-4707142D02*
X62654819Y-5088094D01*
X62654819Y-5088094D02*
X61654819Y-5088094D01*
X61654819Y-5088094D02*
X61654819Y-4754761D01*
X61654819Y-4754761D02*
X61702438Y-4659523D01*
X61702438Y-4659523D02*
X61750057Y-4611904D01*
X61750057Y-4611904D02*
X61845295Y-4564285D01*
X61845295Y-4564285D02*
X61940533Y-4564285D01*
X61940533Y-4564285D02*
X62035771Y-4611904D01*
X62035771Y-4611904D02*
X62083390Y-4659523D01*
X62083390Y-4659523D02*
X62131009Y-4754761D01*
X62131009Y-4754761D02*
X62131009Y-5088094D01*
X61750057Y-4135713D02*
X61702438Y-4088094D01*
X61702438Y-4088094D02*
X61654819Y-3992856D01*
X61654819Y-3992856D02*
X61654819Y-3754761D01*
X61654819Y-3754761D02*
X61702438Y-3659523D01*
X61702438Y-3659523D02*
X61750057Y-3611904D01*
X61750057Y-3611904D02*
X61845295Y-3564285D01*
X61845295Y-3564285D02*
X61940533Y-3564285D01*
X61940533Y-3564285D02*
X62083390Y-3611904D01*
X62083390Y-3611904D02*
X62654819Y-4183332D01*
X62654819Y-4183332D02*
X62654819Y-3564285D01*
X75119580Y-3441666D02*
X75167200Y-3489285D01*
X75167200Y-3489285D02*
X75214819Y-3632142D01*
X75214819Y-3632142D02*
X75214819Y-3727380D01*
X75214819Y-3727380D02*
X75167200Y-3870237D01*
X75167200Y-3870237D02*
X75071961Y-3965475D01*
X75071961Y-3965475D02*
X74976723Y-4013094D01*
X74976723Y-4013094D02*
X74786247Y-4060713D01*
X74786247Y-4060713D02*
X74643390Y-4060713D01*
X74643390Y-4060713D02*
X74452914Y-4013094D01*
X74452914Y-4013094D02*
X74357676Y-3965475D01*
X74357676Y-3965475D02*
X74262438Y-3870237D01*
X74262438Y-3870237D02*
X74214819Y-3727380D01*
X74214819Y-3727380D02*
X74214819Y-3632142D01*
X74214819Y-3632142D02*
X74262438Y-3489285D01*
X74262438Y-3489285D02*
X74310057Y-3441666D01*
X74214819Y-3108332D02*
X74214819Y-2441666D01*
X74214819Y-2441666D02*
X75214819Y-2870237D01*
X50980009Y-9070333D02*
X50980009Y-9403666D01*
X51503819Y-9403666D02*
X50503819Y-9403666D01*
X50503819Y-9403666D02*
X50503819Y-8927476D01*
X50980009Y-8213190D02*
X51027628Y-8070333D01*
X51027628Y-8070333D02*
X51075247Y-8022714D01*
X51075247Y-8022714D02*
X51170485Y-7975095D01*
X51170485Y-7975095D02*
X51313342Y-7975095D01*
X51313342Y-7975095D02*
X51408580Y-8022714D01*
X51408580Y-8022714D02*
X51456200Y-8070333D01*
X51456200Y-8070333D02*
X51503819Y-8165571D01*
X51503819Y-8165571D02*
X51503819Y-8546523D01*
X51503819Y-8546523D02*
X50503819Y-8546523D01*
X50503819Y-8546523D02*
X50503819Y-8213190D01*
X50503819Y-8213190D02*
X50551438Y-8117952D01*
X50551438Y-8117952D02*
X50599057Y-8070333D01*
X50599057Y-8070333D02*
X50694295Y-8022714D01*
X50694295Y-8022714D02*
X50789533Y-8022714D01*
X50789533Y-8022714D02*
X50884771Y-8070333D01*
X50884771Y-8070333D02*
X50932390Y-8117952D01*
X50932390Y-8117952D02*
X50980009Y-8213190D01*
X50980009Y-8213190D02*
X50980009Y-8546523D01*
X50837152Y-7117952D02*
X51503819Y-7117952D01*
X50456200Y-7356047D02*
X51170485Y-7594142D01*
X51170485Y-7594142D02*
X51170485Y-6975095D01*
X70353333Y-9469580D02*
X70305714Y-9517200D01*
X70305714Y-9517200D02*
X70162857Y-9564819D01*
X70162857Y-9564819D02*
X70067619Y-9564819D01*
X70067619Y-9564819D02*
X69924762Y-9517200D01*
X69924762Y-9517200D02*
X69829524Y-9421961D01*
X69829524Y-9421961D02*
X69781905Y-9326723D01*
X69781905Y-9326723D02*
X69734286Y-9136247D01*
X69734286Y-9136247D02*
X69734286Y-8993390D01*
X69734286Y-8993390D02*
X69781905Y-8802914D01*
X69781905Y-8802914D02*
X69829524Y-8707676D01*
X69829524Y-8707676D02*
X69924762Y-8612438D01*
X69924762Y-8612438D02*
X70067619Y-8564819D01*
X70067619Y-8564819D02*
X70162857Y-8564819D01*
X70162857Y-8564819D02*
X70305714Y-8612438D01*
X70305714Y-8612438D02*
X70353333Y-8660057D01*
X71210476Y-8564819D02*
X71020000Y-8564819D01*
X71020000Y-8564819D02*
X70924762Y-8612438D01*
X70924762Y-8612438D02*
X70877143Y-8660057D01*
X70877143Y-8660057D02*
X70781905Y-8802914D01*
X70781905Y-8802914D02*
X70734286Y-8993390D01*
X70734286Y-8993390D02*
X70734286Y-9374342D01*
X70734286Y-9374342D02*
X70781905Y-9469580D01*
X70781905Y-9469580D02*
X70829524Y-9517200D01*
X70829524Y-9517200D02*
X70924762Y-9564819D01*
X70924762Y-9564819D02*
X71115238Y-9564819D01*
X71115238Y-9564819D02*
X71210476Y-9517200D01*
X71210476Y-9517200D02*
X71258095Y-9469580D01*
X71258095Y-9469580D02*
X71305714Y-9374342D01*
X71305714Y-9374342D02*
X71305714Y-9136247D01*
X71305714Y-9136247D02*
X71258095Y-9041009D01*
X71258095Y-9041009D02*
X71210476Y-8993390D01*
X71210476Y-8993390D02*
X71115238Y-8945771D01*
X71115238Y-8945771D02*
X70924762Y-8945771D01*
X70924762Y-8945771D02*
X70829524Y-8993390D01*
X70829524Y-8993390D02*
X70781905Y-9041009D01*
X70781905Y-9041009D02*
X70734286Y-9136247D01*
X44908524Y-9206795D02*
X44908524Y-9854414D01*
X44908524Y-9854414D02*
X44946619Y-9930604D01*
X44946619Y-9930604D02*
X44984714Y-9968700D01*
X44984714Y-9968700D02*
X45060905Y-10006795D01*
X45060905Y-10006795D02*
X45213286Y-10006795D01*
X45213286Y-10006795D02*
X45289476Y-9968700D01*
X45289476Y-9968700D02*
X45327571Y-9930604D01*
X45327571Y-9930604D02*
X45365667Y-9854414D01*
X45365667Y-9854414D02*
X45365667Y-9206795D01*
X45708523Y-9968700D02*
X45822809Y-10006795D01*
X45822809Y-10006795D02*
X46013285Y-10006795D01*
X46013285Y-10006795D02*
X46089476Y-9968700D01*
X46089476Y-9968700D02*
X46127571Y-9930604D01*
X46127571Y-9930604D02*
X46165666Y-9854414D01*
X46165666Y-9854414D02*
X46165666Y-9778223D01*
X46165666Y-9778223D02*
X46127571Y-9702033D01*
X46127571Y-9702033D02*
X46089476Y-9663938D01*
X46089476Y-9663938D02*
X46013285Y-9625842D01*
X46013285Y-9625842D02*
X45860904Y-9587747D01*
X45860904Y-9587747D02*
X45784714Y-9549652D01*
X45784714Y-9549652D02*
X45746619Y-9511557D01*
X45746619Y-9511557D02*
X45708523Y-9435366D01*
X45708523Y-9435366D02*
X45708523Y-9359176D01*
X45708523Y-9359176D02*
X45746619Y-9282985D01*
X45746619Y-9282985D02*
X45784714Y-9244890D01*
X45784714Y-9244890D02*
X45860904Y-9206795D01*
X45860904Y-9206795D02*
X46051381Y-9206795D01*
X46051381Y-9206795D02*
X46165666Y-9244890D01*
X46775190Y-9587747D02*
X46889476Y-9625842D01*
X46889476Y-9625842D02*
X46927571Y-9663938D01*
X46927571Y-9663938D02*
X46965667Y-9740128D01*
X46965667Y-9740128D02*
X46965667Y-9854414D01*
X46965667Y-9854414D02*
X46927571Y-9930604D01*
X46927571Y-9930604D02*
X46889476Y-9968700D01*
X46889476Y-9968700D02*
X46813286Y-10006795D01*
X46813286Y-10006795D02*
X46508524Y-10006795D01*
X46508524Y-10006795D02*
X46508524Y-9206795D01*
X46508524Y-9206795D02*
X46775190Y-9206795D01*
X46775190Y-9206795D02*
X46851381Y-9244890D01*
X46851381Y-9244890D02*
X46889476Y-9282985D01*
X46889476Y-9282985D02*
X46927571Y-9359176D01*
X46927571Y-9359176D02*
X46927571Y-9435366D01*
X46927571Y-9435366D02*
X46889476Y-9511557D01*
X46889476Y-9511557D02*
X46851381Y-9549652D01*
X46851381Y-9549652D02*
X46775190Y-9587747D01*
X46775190Y-9587747D02*
X46508524Y-9587747D01*
X47232333Y-9206795D02*
X47727571Y-9206795D01*
X47727571Y-9206795D02*
X47460905Y-9511557D01*
X47460905Y-9511557D02*
X47575190Y-9511557D01*
X47575190Y-9511557D02*
X47651381Y-9549652D01*
X47651381Y-9549652D02*
X47689476Y-9587747D01*
X47689476Y-9587747D02*
X47727571Y-9663938D01*
X47727571Y-9663938D02*
X47727571Y-9854414D01*
X47727571Y-9854414D02*
X47689476Y-9930604D01*
X47689476Y-9930604D02*
X47651381Y-9968700D01*
X47651381Y-9968700D02*
X47575190Y-10006795D01*
X47575190Y-10006795D02*
X47346619Y-10006795D01*
X47346619Y-10006795D02*
X47270428Y-9968700D01*
X47270428Y-9968700D02*
X47232333Y-9930604D01*
X19170009Y-10817333D02*
X19170009Y-11150666D01*
X19693819Y-11150666D02*
X18693819Y-11150666D01*
X18693819Y-11150666D02*
X18693819Y-10674476D01*
X19170009Y-9960190D02*
X19217628Y-9817333D01*
X19217628Y-9817333D02*
X19265247Y-9769714D01*
X19265247Y-9769714D02*
X19360485Y-9722095D01*
X19360485Y-9722095D02*
X19503342Y-9722095D01*
X19503342Y-9722095D02*
X19598580Y-9769714D01*
X19598580Y-9769714D02*
X19646200Y-9817333D01*
X19646200Y-9817333D02*
X19693819Y-9912571D01*
X19693819Y-9912571D02*
X19693819Y-10293523D01*
X19693819Y-10293523D02*
X18693819Y-10293523D01*
X18693819Y-10293523D02*
X18693819Y-9960190D01*
X18693819Y-9960190D02*
X18741438Y-9864952D01*
X18741438Y-9864952D02*
X18789057Y-9817333D01*
X18789057Y-9817333D02*
X18884295Y-9769714D01*
X18884295Y-9769714D02*
X18979533Y-9769714D01*
X18979533Y-9769714D02*
X19074771Y-9817333D01*
X19074771Y-9817333D02*
X19122390Y-9864952D01*
X19122390Y-9864952D02*
X19170009Y-9960190D01*
X19170009Y-9960190D02*
X19170009Y-10293523D01*
X18789057Y-9341142D02*
X18741438Y-9293523D01*
X18741438Y-9293523D02*
X18693819Y-9198285D01*
X18693819Y-9198285D02*
X18693819Y-8960190D01*
X18693819Y-8960190D02*
X18741438Y-8864952D01*
X18741438Y-8864952D02*
X18789057Y-8817333D01*
X18789057Y-8817333D02*
X18884295Y-8769714D01*
X18884295Y-8769714D02*
X18979533Y-8769714D01*
X18979533Y-8769714D02*
X19122390Y-8817333D01*
X19122390Y-8817333D02*
X19693819Y-9388761D01*
X19693819Y-9388761D02*
X19693819Y-8769714D01*
X79499580Y-10616666D02*
X79547200Y-10664285D01*
X79547200Y-10664285D02*
X79594819Y-10807142D01*
X79594819Y-10807142D02*
X79594819Y-10902380D01*
X79594819Y-10902380D02*
X79547200Y-11045237D01*
X79547200Y-11045237D02*
X79451961Y-11140475D01*
X79451961Y-11140475D02*
X79356723Y-11188094D01*
X79356723Y-11188094D02*
X79166247Y-11235713D01*
X79166247Y-11235713D02*
X79023390Y-11235713D01*
X79023390Y-11235713D02*
X78832914Y-11188094D01*
X78832914Y-11188094D02*
X78737676Y-11140475D01*
X78737676Y-11140475D02*
X78642438Y-11045237D01*
X78642438Y-11045237D02*
X78594819Y-10902380D01*
X78594819Y-10902380D02*
X78594819Y-10807142D01*
X78594819Y-10807142D02*
X78642438Y-10664285D01*
X78642438Y-10664285D02*
X78690057Y-10616666D01*
X79594819Y-9664285D02*
X79594819Y-10235713D01*
X79594819Y-9949999D02*
X78594819Y-9949999D01*
X78594819Y-9949999D02*
X78737676Y-10045237D01*
X78737676Y-10045237D02*
X78832914Y-10140475D01*
X78832914Y-10140475D02*
X78880533Y-10235713D01*
D11*
X85698869Y-9409428D02*
X84555869Y-9409428D01*
X84555869Y-9409428D02*
X84555869Y-9137285D01*
X84555869Y-9137285D02*
X84610298Y-8973999D01*
X84610298Y-8973999D02*
X84719155Y-8865142D01*
X84719155Y-8865142D02*
X84828012Y-8810713D01*
X84828012Y-8810713D02*
X85045726Y-8756285D01*
X85045726Y-8756285D02*
X85209012Y-8756285D01*
X85209012Y-8756285D02*
X85426726Y-8810713D01*
X85426726Y-8810713D02*
X85535583Y-8865142D01*
X85535583Y-8865142D02*
X85644441Y-8973999D01*
X85644441Y-8973999D02*
X85698869Y-9137285D01*
X85698869Y-9137285D02*
X85698869Y-9409428D01*
X85698869Y-7667713D02*
X85698869Y-8320856D01*
X85698869Y-7994285D02*
X84555869Y-7994285D01*
X84555869Y-7994285D02*
X84719155Y-8103142D01*
X84719155Y-8103142D02*
X84828012Y-8211999D01*
X84828012Y-8211999D02*
X84882441Y-8320856D01*
D10*
X50532333Y-11520319D02*
X50199000Y-11044128D01*
X49960905Y-11520319D02*
X49960905Y-10520319D01*
X49960905Y-10520319D02*
X50341857Y-10520319D01*
X50341857Y-10520319D02*
X50437095Y-10567938D01*
X50437095Y-10567938D02*
X50484714Y-10615557D01*
X50484714Y-10615557D02*
X50532333Y-10710795D01*
X50532333Y-10710795D02*
X50532333Y-10853652D01*
X50532333Y-10853652D02*
X50484714Y-10948890D01*
X50484714Y-10948890D02*
X50437095Y-10996509D01*
X50437095Y-10996509D02*
X50341857Y-11044128D01*
X50341857Y-11044128D02*
X49960905Y-11044128D01*
X50865667Y-10520319D02*
X51484714Y-10520319D01*
X51484714Y-10520319D02*
X51151381Y-10901271D01*
X51151381Y-10901271D02*
X51294238Y-10901271D01*
X51294238Y-10901271D02*
X51389476Y-10948890D01*
X51389476Y-10948890D02*
X51437095Y-10996509D01*
X51437095Y-10996509D02*
X51484714Y-11091747D01*
X51484714Y-11091747D02*
X51484714Y-11329842D01*
X51484714Y-11329842D02*
X51437095Y-11425080D01*
X51437095Y-11425080D02*
X51389476Y-11472700D01*
X51389476Y-11472700D02*
X51294238Y-11520319D01*
X51294238Y-11520319D02*
X51008524Y-11520319D01*
X51008524Y-11520319D02*
X50913286Y-11472700D01*
X50913286Y-11472700D02*
X50865667Y-11425080D01*
X43432333Y-9280319D02*
X43099000Y-8804128D01*
X42860905Y-9280319D02*
X42860905Y-8280319D01*
X42860905Y-8280319D02*
X43241857Y-8280319D01*
X43241857Y-8280319D02*
X43337095Y-8327938D01*
X43337095Y-8327938D02*
X43384714Y-8375557D01*
X43384714Y-8375557D02*
X43432333Y-8470795D01*
X43432333Y-8470795D02*
X43432333Y-8613652D01*
X43432333Y-8613652D02*
X43384714Y-8708890D01*
X43384714Y-8708890D02*
X43337095Y-8756509D01*
X43337095Y-8756509D02*
X43241857Y-8804128D01*
X43241857Y-8804128D02*
X42860905Y-8804128D01*
X44289476Y-8613652D02*
X44289476Y-9280319D01*
X44051381Y-8232700D02*
X43813286Y-8946985D01*
X43813286Y-8946985D02*
X44432333Y-8946985D01*
X74338095Y-4362319D02*
X74338095Y-5171842D01*
X74338095Y-5171842D02*
X74385714Y-5267080D01*
X74385714Y-5267080D02*
X74433333Y-5314700D01*
X74433333Y-5314700D02*
X74528571Y-5362319D01*
X74528571Y-5362319D02*
X74719047Y-5362319D01*
X74719047Y-5362319D02*
X74814285Y-5314700D01*
X74814285Y-5314700D02*
X74861904Y-5267080D01*
X74861904Y-5267080D02*
X74909523Y-5171842D01*
X74909523Y-5171842D02*
X74909523Y-4362319D01*
X75290476Y-4362319D02*
X75909523Y-4362319D01*
X75909523Y-4362319D02*
X75576190Y-4743271D01*
X75576190Y-4743271D02*
X75719047Y-4743271D01*
X75719047Y-4743271D02*
X75814285Y-4790890D01*
X75814285Y-4790890D02*
X75861904Y-4838509D01*
X75861904Y-4838509D02*
X75909523Y-4933747D01*
X75909523Y-4933747D02*
X75909523Y-5171842D01*
X75909523Y-5171842D02*
X75861904Y-5267080D01*
X75861904Y-5267080D02*
X75814285Y-5314700D01*
X75814285Y-5314700D02*
X75719047Y-5362319D01*
X75719047Y-5362319D02*
X75433333Y-5362319D01*
X75433333Y-5362319D02*
X75338095Y-5314700D01*
X75338095Y-5314700D02*
X75290476Y-5267080D01*
X80033333Y-8934819D02*
X79700000Y-8458628D01*
X79461905Y-8934819D02*
X79461905Y-7934819D01*
X79461905Y-7934819D02*
X79842857Y-7934819D01*
X79842857Y-7934819D02*
X79938095Y-7982438D01*
X79938095Y-7982438D02*
X79985714Y-8030057D01*
X79985714Y-8030057D02*
X80033333Y-8125295D01*
X80033333Y-8125295D02*
X80033333Y-8268152D01*
X80033333Y-8268152D02*
X79985714Y-8363390D01*
X79985714Y-8363390D02*
X79938095Y-8411009D01*
X79938095Y-8411009D02*
X79842857Y-8458628D01*
X79842857Y-8458628D02*
X79461905Y-8458628D01*
X80938095Y-7934819D02*
X80461905Y-7934819D01*
X80461905Y-7934819D02*
X80414286Y-8411009D01*
X80414286Y-8411009D02*
X80461905Y-8363390D01*
X80461905Y-8363390D02*
X80557143Y-8315771D01*
X80557143Y-8315771D02*
X80795238Y-8315771D01*
X80795238Y-8315771D02*
X80890476Y-8363390D01*
X80890476Y-8363390D02*
X80938095Y-8411009D01*
X80938095Y-8411009D02*
X80985714Y-8506247D01*
X80985714Y-8506247D02*
X80985714Y-8744342D01*
X80985714Y-8744342D02*
X80938095Y-8839580D01*
X80938095Y-8839580D02*
X80890476Y-8887200D01*
X80890476Y-8887200D02*
X80795238Y-8934819D01*
X80795238Y-8934819D02*
X80557143Y-8934819D01*
X80557143Y-8934819D02*
X80461905Y-8887200D01*
X80461905Y-8887200D02*
X80414286Y-8839580D01*
X67723809Y-3078628D02*
X67723809Y-3554819D01*
X67390476Y-2554819D02*
X67723809Y-3078628D01*
X67723809Y-3078628D02*
X68057142Y-2554819D01*
X68914285Y-3554819D02*
X68342857Y-3554819D01*
X68628571Y-3554819D02*
X68628571Y-2554819D01*
X68628571Y-2554819D02*
X68533333Y-2697676D01*
X68533333Y-2697676D02*
X68438095Y-2792914D01*
X68438095Y-2792914D02*
X68342857Y-2840533D01*
X80733333Y-1759580D02*
X80685714Y-1807200D01*
X80685714Y-1807200D02*
X80542857Y-1854819D01*
X80542857Y-1854819D02*
X80447619Y-1854819D01*
X80447619Y-1854819D02*
X80304762Y-1807200D01*
X80304762Y-1807200D02*
X80209524Y-1711961D01*
X80209524Y-1711961D02*
X80161905Y-1616723D01*
X80161905Y-1616723D02*
X80114286Y-1426247D01*
X80114286Y-1426247D02*
X80114286Y-1283390D01*
X80114286Y-1283390D02*
X80161905Y-1092914D01*
X80161905Y-1092914D02*
X80209524Y-997676D01*
X80209524Y-997676D02*
X80304762Y-902438D01*
X80304762Y-902438D02*
X80447619Y-854819D01*
X80447619Y-854819D02*
X80542857Y-854819D01*
X80542857Y-854819D02*
X80685714Y-902438D01*
X80685714Y-902438D02*
X80733333Y-950057D01*
X81304762Y-1283390D02*
X81209524Y-1235771D01*
X81209524Y-1235771D02*
X81161905Y-1188152D01*
X81161905Y-1188152D02*
X81114286Y-1092914D01*
X81114286Y-1092914D02*
X81114286Y-1045295D01*
X81114286Y-1045295D02*
X81161905Y-950057D01*
X81161905Y-950057D02*
X81209524Y-902438D01*
X81209524Y-902438D02*
X81304762Y-854819D01*
X81304762Y-854819D02*
X81495238Y-854819D01*
X81495238Y-854819D02*
X81590476Y-902438D01*
X81590476Y-902438D02*
X81638095Y-950057D01*
X81638095Y-950057D02*
X81685714Y-1045295D01*
X81685714Y-1045295D02*
X81685714Y-1092914D01*
X81685714Y-1092914D02*
X81638095Y-1188152D01*
X81638095Y-1188152D02*
X81590476Y-1235771D01*
X81590476Y-1235771D02*
X81495238Y-1283390D01*
X81495238Y-1283390D02*
X81304762Y-1283390D01*
X81304762Y-1283390D02*
X81209524Y-1331009D01*
X81209524Y-1331009D02*
X81161905Y-1378628D01*
X81161905Y-1378628D02*
X81114286Y-1473866D01*
X81114286Y-1473866D02*
X81114286Y-1664342D01*
X81114286Y-1664342D02*
X81161905Y-1759580D01*
X81161905Y-1759580D02*
X81209524Y-1807200D01*
X81209524Y-1807200D02*
X81304762Y-1854819D01*
X81304762Y-1854819D02*
X81495238Y-1854819D01*
X81495238Y-1854819D02*
X81590476Y-1807200D01*
X81590476Y-1807200D02*
X81638095Y-1759580D01*
X81638095Y-1759580D02*
X81685714Y-1664342D01*
X81685714Y-1664342D02*
X81685714Y-1473866D01*
X81685714Y-1473866D02*
X81638095Y-1378628D01*
X81638095Y-1378628D02*
X81590476Y-1331009D01*
X81590476Y-1331009D02*
X81495238Y-1283390D01*
X78399580Y-10616666D02*
X78447200Y-10664285D01*
X78447200Y-10664285D02*
X78494819Y-10807142D01*
X78494819Y-10807142D02*
X78494819Y-10902380D01*
X78494819Y-10902380D02*
X78447200Y-11045237D01*
X78447200Y-11045237D02*
X78351961Y-11140475D01*
X78351961Y-11140475D02*
X78256723Y-11188094D01*
X78256723Y-11188094D02*
X78066247Y-11235713D01*
X78066247Y-11235713D02*
X77923390Y-11235713D01*
X77923390Y-11235713D02*
X77732914Y-11188094D01*
X77732914Y-11188094D02*
X77637676Y-11140475D01*
X77637676Y-11140475D02*
X77542438Y-11045237D01*
X77542438Y-11045237D02*
X77494819Y-10902380D01*
X77494819Y-10902380D02*
X77494819Y-10807142D01*
X77494819Y-10807142D02*
X77542438Y-10664285D01*
X77542438Y-10664285D02*
X77590057Y-10616666D01*
X77494819Y-10283332D02*
X77494819Y-9664285D01*
X77494819Y-9664285D02*
X77875771Y-9997618D01*
X77875771Y-9997618D02*
X77875771Y-9854761D01*
X77875771Y-9854761D02*
X77923390Y-9759523D01*
X77923390Y-9759523D02*
X77971009Y-9711904D01*
X77971009Y-9711904D02*
X78066247Y-9664285D01*
X78066247Y-9664285D02*
X78304342Y-9664285D01*
X78304342Y-9664285D02*
X78399580Y-9711904D01*
X78399580Y-9711904D02*
X78447200Y-9759523D01*
X78447200Y-9759523D02*
X78494819Y-9854761D01*
X78494819Y-9854761D02*
X78494819Y-10140475D01*
X78494819Y-10140475D02*
X78447200Y-10235713D01*
X78447200Y-10235713D02*
X78399580Y-10283332D01*
X46037095Y-12850319D02*
X46037095Y-13659842D01*
X46037095Y-13659842D02*
X46084714Y-13755080D01*
X46084714Y-13755080D02*
X46132333Y-13802700D01*
X46132333Y-13802700D02*
X46227571Y-13850319D01*
X46227571Y-13850319D02*
X46418047Y-13850319D01*
X46418047Y-13850319D02*
X46513285Y-13802700D01*
X46513285Y-13802700D02*
X46560904Y-13755080D01*
X46560904Y-13755080D02*
X46608523Y-13659842D01*
X46608523Y-13659842D02*
X46608523Y-12850319D01*
X47513285Y-12850319D02*
X47322809Y-12850319D01*
X47322809Y-12850319D02*
X47227571Y-12897938D01*
X47227571Y-12897938D02*
X47179952Y-12945557D01*
X47179952Y-12945557D02*
X47084714Y-13088414D01*
X47084714Y-13088414D02*
X47037095Y-13278890D01*
X47037095Y-13278890D02*
X47037095Y-13659842D01*
X47037095Y-13659842D02*
X47084714Y-13755080D01*
X47084714Y-13755080D02*
X47132333Y-13802700D01*
X47132333Y-13802700D02*
X47227571Y-13850319D01*
X47227571Y-13850319D02*
X47418047Y-13850319D01*
X47418047Y-13850319D02*
X47513285Y-13802700D01*
X47513285Y-13802700D02*
X47560904Y-13755080D01*
X47560904Y-13755080D02*
X47608523Y-13659842D01*
X47608523Y-13659842D02*
X47608523Y-13421747D01*
X47608523Y-13421747D02*
X47560904Y-13326509D01*
X47560904Y-13326509D02*
X47513285Y-13278890D01*
X47513285Y-13278890D02*
X47418047Y-13231271D01*
X47418047Y-13231271D02*
X47227571Y-13231271D01*
X47227571Y-13231271D02*
X47132333Y-13278890D01*
X47132333Y-13278890D02*
X47084714Y-13326509D01*
X47084714Y-13326509D02*
X47037095Y-13421747D01*
X92733333Y-9734819D02*
X92400000Y-9258628D01*
X92161905Y-9734819D02*
X92161905Y-8734819D01*
X92161905Y-8734819D02*
X92542857Y-8734819D01*
X92542857Y-8734819D02*
X92638095Y-8782438D01*
X92638095Y-8782438D02*
X92685714Y-8830057D01*
X92685714Y-8830057D02*
X92733333Y-8925295D01*
X92733333Y-8925295D02*
X92733333Y-9068152D01*
X92733333Y-9068152D02*
X92685714Y-9163390D01*
X92685714Y-9163390D02*
X92638095Y-9211009D01*
X92638095Y-9211009D02*
X92542857Y-9258628D01*
X92542857Y-9258628D02*
X92161905Y-9258628D01*
X93685714Y-9734819D02*
X93114286Y-9734819D01*
X93400000Y-9734819D02*
X93400000Y-8734819D01*
X93400000Y-8734819D02*
X93304762Y-8877676D01*
X93304762Y-8877676D02*
X93209524Y-8972914D01*
X93209524Y-8972914D02*
X93114286Y-9020533D01*
X80719580Y-12616666D02*
X80767200Y-12664285D01*
X80767200Y-12664285D02*
X80814819Y-12807142D01*
X80814819Y-12807142D02*
X80814819Y-12902380D01*
X80814819Y-12902380D02*
X80767200Y-13045237D01*
X80767200Y-13045237D02*
X80671961Y-13140475D01*
X80671961Y-13140475D02*
X80576723Y-13188094D01*
X80576723Y-13188094D02*
X80386247Y-13235713D01*
X80386247Y-13235713D02*
X80243390Y-13235713D01*
X80243390Y-13235713D02*
X80052914Y-13188094D01*
X80052914Y-13188094D02*
X79957676Y-13140475D01*
X79957676Y-13140475D02*
X79862438Y-13045237D01*
X79862438Y-13045237D02*
X79814819Y-12902380D01*
X79814819Y-12902380D02*
X79814819Y-12807142D01*
X79814819Y-12807142D02*
X79862438Y-12664285D01*
X79862438Y-12664285D02*
X79910057Y-12616666D01*
X80148152Y-11759523D02*
X80814819Y-11759523D01*
X79767200Y-11997618D02*
X80481485Y-12235713D01*
X80481485Y-12235713D02*
X80481485Y-11616666D01*
X88747024Y-9361295D02*
X88747024Y-10008914D01*
X88747024Y-10008914D02*
X88785119Y-10085104D01*
X88785119Y-10085104D02*
X88823214Y-10123200D01*
X88823214Y-10123200D02*
X88899405Y-10161295D01*
X88899405Y-10161295D02*
X89051786Y-10161295D01*
X89051786Y-10161295D02*
X89127976Y-10123200D01*
X89127976Y-10123200D02*
X89166071Y-10085104D01*
X89166071Y-10085104D02*
X89204167Y-10008914D01*
X89204167Y-10008914D02*
X89204167Y-9361295D01*
X89547023Y-10123200D02*
X89661309Y-10161295D01*
X89661309Y-10161295D02*
X89851785Y-10161295D01*
X89851785Y-10161295D02*
X89927976Y-10123200D01*
X89927976Y-10123200D02*
X89966071Y-10085104D01*
X89966071Y-10085104D02*
X90004166Y-10008914D01*
X90004166Y-10008914D02*
X90004166Y-9932723D01*
X90004166Y-9932723D02*
X89966071Y-9856533D01*
X89966071Y-9856533D02*
X89927976Y-9818438D01*
X89927976Y-9818438D02*
X89851785Y-9780342D01*
X89851785Y-9780342D02*
X89699404Y-9742247D01*
X89699404Y-9742247D02*
X89623214Y-9704152D01*
X89623214Y-9704152D02*
X89585119Y-9666057D01*
X89585119Y-9666057D02*
X89547023Y-9589866D01*
X89547023Y-9589866D02*
X89547023Y-9513676D01*
X89547023Y-9513676D02*
X89585119Y-9437485D01*
X89585119Y-9437485D02*
X89623214Y-9399390D01*
X89623214Y-9399390D02*
X89699404Y-9361295D01*
X89699404Y-9361295D02*
X89889881Y-9361295D01*
X89889881Y-9361295D02*
X90004166Y-9399390D01*
X90613690Y-9742247D02*
X90727976Y-9780342D01*
X90727976Y-9780342D02*
X90766071Y-9818438D01*
X90766071Y-9818438D02*
X90804167Y-9894628D01*
X90804167Y-9894628D02*
X90804167Y-10008914D01*
X90804167Y-10008914D02*
X90766071Y-10085104D01*
X90766071Y-10085104D02*
X90727976Y-10123200D01*
X90727976Y-10123200D02*
X90651786Y-10161295D01*
X90651786Y-10161295D02*
X90347024Y-10161295D01*
X90347024Y-10161295D02*
X90347024Y-9361295D01*
X90347024Y-9361295D02*
X90613690Y-9361295D01*
X90613690Y-9361295D02*
X90689881Y-9399390D01*
X90689881Y-9399390D02*
X90727976Y-9437485D01*
X90727976Y-9437485D02*
X90766071Y-9513676D01*
X90766071Y-9513676D02*
X90766071Y-9589866D01*
X90766071Y-9589866D02*
X90727976Y-9666057D01*
X90727976Y-9666057D02*
X90689881Y-9704152D01*
X90689881Y-9704152D02*
X90613690Y-9742247D01*
X90613690Y-9742247D02*
X90347024Y-9742247D01*
X91566071Y-10161295D02*
X91108928Y-10161295D01*
X91337500Y-10161295D02*
X91337500Y-9361295D01*
X91337500Y-9361295D02*
X91261309Y-9475580D01*
X91261309Y-9475580D02*
X91185119Y-9551771D01*
X91185119Y-9551771D02*
X91108928Y-9589866D01*
X75538095Y-804819D02*
X75538095Y-1614342D01*
X75538095Y-1614342D02*
X75585714Y-1709580D01*
X75585714Y-1709580D02*
X75633333Y-1757200D01*
X75633333Y-1757200D02*
X75728571Y-1804819D01*
X75728571Y-1804819D02*
X75919047Y-1804819D01*
X75919047Y-1804819D02*
X76014285Y-1757200D01*
X76014285Y-1757200D02*
X76061904Y-1709580D01*
X76061904Y-1709580D02*
X76109523Y-1614342D01*
X76109523Y-1614342D02*
X76109523Y-804819D01*
X77014285Y-1138152D02*
X77014285Y-1804819D01*
X76776190Y-757200D02*
X76538095Y-1471485D01*
X76538095Y-1471485D02*
X77157142Y-1471485D01*
X94881009Y-9224833D02*
X94881009Y-9558166D01*
X95404819Y-9558166D02*
X94404819Y-9558166D01*
X94404819Y-9558166D02*
X94404819Y-9081976D01*
X94881009Y-8367690D02*
X94928628Y-8224833D01*
X94928628Y-8224833D02*
X94976247Y-8177214D01*
X94976247Y-8177214D02*
X95071485Y-8129595D01*
X95071485Y-8129595D02*
X95214342Y-8129595D01*
X95214342Y-8129595D02*
X95309580Y-8177214D01*
X95309580Y-8177214D02*
X95357200Y-8224833D01*
X95357200Y-8224833D02*
X95404819Y-8320071D01*
X95404819Y-8320071D02*
X95404819Y-8701023D01*
X95404819Y-8701023D02*
X94404819Y-8701023D01*
X94404819Y-8701023D02*
X94404819Y-8367690D01*
X94404819Y-8367690D02*
X94452438Y-8272452D01*
X94452438Y-8272452D02*
X94500057Y-8224833D01*
X94500057Y-8224833D02*
X94595295Y-8177214D01*
X94595295Y-8177214D02*
X94690533Y-8177214D01*
X94690533Y-8177214D02*
X94785771Y-8224833D01*
X94785771Y-8224833D02*
X94833390Y-8272452D01*
X94833390Y-8272452D02*
X94881009Y-8367690D01*
X94881009Y-8367690D02*
X94881009Y-8701023D01*
X95404819Y-7177214D02*
X95404819Y-7748642D01*
X95404819Y-7462928D02*
X94404819Y-7462928D01*
X94404819Y-7462928D02*
X94547676Y-7558166D01*
X94547676Y-7558166D02*
X94642914Y-7653404D01*
X94642914Y-7653404D02*
X94690533Y-7748642D01*
X80033333Y-7234819D02*
X79700000Y-6758628D01*
X79461905Y-7234819D02*
X79461905Y-6234819D01*
X79461905Y-6234819D02*
X79842857Y-6234819D01*
X79842857Y-6234819D02*
X79938095Y-6282438D01*
X79938095Y-6282438D02*
X79985714Y-6330057D01*
X79985714Y-6330057D02*
X80033333Y-6425295D01*
X80033333Y-6425295D02*
X80033333Y-6568152D01*
X80033333Y-6568152D02*
X79985714Y-6663390D01*
X79985714Y-6663390D02*
X79938095Y-6711009D01*
X79938095Y-6711009D02*
X79842857Y-6758628D01*
X79842857Y-6758628D02*
X79461905Y-6758628D01*
X80890476Y-6234819D02*
X80700000Y-6234819D01*
X80700000Y-6234819D02*
X80604762Y-6282438D01*
X80604762Y-6282438D02*
X80557143Y-6330057D01*
X80557143Y-6330057D02*
X80461905Y-6472914D01*
X80461905Y-6472914D02*
X80414286Y-6663390D01*
X80414286Y-6663390D02*
X80414286Y-7044342D01*
X80414286Y-7044342D02*
X80461905Y-7139580D01*
X80461905Y-7139580D02*
X80509524Y-7187200D01*
X80509524Y-7187200D02*
X80604762Y-7234819D01*
X80604762Y-7234819D02*
X80795238Y-7234819D01*
X80795238Y-7234819D02*
X80890476Y-7187200D01*
X80890476Y-7187200D02*
X80938095Y-7139580D01*
X80938095Y-7139580D02*
X80985714Y-7044342D01*
X80985714Y-7044342D02*
X80985714Y-6806247D01*
X80985714Y-6806247D02*
X80938095Y-6711009D01*
X80938095Y-6711009D02*
X80890476Y-6663390D01*
X80890476Y-6663390D02*
X80795238Y-6615771D01*
X80795238Y-6615771D02*
X80604762Y-6615771D01*
X80604762Y-6615771D02*
X80509524Y-6663390D01*
X80509524Y-6663390D02*
X80461905Y-6711009D01*
X80461905Y-6711009D02*
X80414286Y-6806247D01*
D11*
X30824142Y-11769869D02*
X30824142Y-12695155D01*
X30824142Y-12695155D02*
X30878571Y-12804012D01*
X30878571Y-12804012D02*
X30933000Y-12858441D01*
X30933000Y-12858441D02*
X31041857Y-12912869D01*
X31041857Y-12912869D02*
X31259571Y-12912869D01*
X31259571Y-12912869D02*
X31368428Y-12858441D01*
X31368428Y-12858441D02*
X31422857Y-12804012D01*
X31422857Y-12804012D02*
X31477285Y-12695155D01*
X31477285Y-12695155D02*
X31477285Y-11769869D01*
X31967143Y-12858441D02*
X32130429Y-12912869D01*
X32130429Y-12912869D02*
X32402571Y-12912869D01*
X32402571Y-12912869D02*
X32511429Y-12858441D01*
X32511429Y-12858441D02*
X32565857Y-12804012D01*
X32565857Y-12804012D02*
X32620286Y-12695155D01*
X32620286Y-12695155D02*
X32620286Y-12586298D01*
X32620286Y-12586298D02*
X32565857Y-12477441D01*
X32565857Y-12477441D02*
X32511429Y-12423012D01*
X32511429Y-12423012D02*
X32402571Y-12368583D01*
X32402571Y-12368583D02*
X32184857Y-12314155D01*
X32184857Y-12314155D02*
X32076000Y-12259726D01*
X32076000Y-12259726D02*
X32021571Y-12205298D01*
X32021571Y-12205298D02*
X31967143Y-12096441D01*
X31967143Y-12096441D02*
X31967143Y-11987583D01*
X31967143Y-11987583D02*
X32021571Y-11878726D01*
X32021571Y-11878726D02*
X32076000Y-11824298D01*
X32076000Y-11824298D02*
X32184857Y-11769869D01*
X32184857Y-11769869D02*
X32457000Y-11769869D01*
X32457000Y-11769869D02*
X32620286Y-11824298D01*
X33491142Y-12314155D02*
X33654428Y-12368583D01*
X33654428Y-12368583D02*
X33708857Y-12423012D01*
X33708857Y-12423012D02*
X33763285Y-12531869D01*
X33763285Y-12531869D02*
X33763285Y-12695155D01*
X33763285Y-12695155D02*
X33708857Y-12804012D01*
X33708857Y-12804012D02*
X33654428Y-12858441D01*
X33654428Y-12858441D02*
X33545571Y-12912869D01*
X33545571Y-12912869D02*
X33110142Y-12912869D01*
X33110142Y-12912869D02*
X33110142Y-11769869D01*
X33110142Y-11769869D02*
X33491142Y-11769869D01*
X33491142Y-11769869D02*
X33600000Y-11824298D01*
X33600000Y-11824298D02*
X33654428Y-11878726D01*
X33654428Y-11878726D02*
X33708857Y-11987583D01*
X33708857Y-11987583D02*
X33708857Y-12096441D01*
X33708857Y-12096441D02*
X33654428Y-12205298D01*
X33654428Y-12205298D02*
X33600000Y-12259726D01*
X33600000Y-12259726D02*
X33491142Y-12314155D01*
X33491142Y-12314155D02*
X33110142Y-12314155D01*
X34743000Y-12150869D02*
X34743000Y-12912869D01*
X34470857Y-11715441D02*
X34198714Y-12531869D01*
X34198714Y-12531869D02*
X34906285Y-12531869D01*
D10*
X11527095Y-16311819D02*
X11527095Y-17121342D01*
X11527095Y-17121342D02*
X11574714Y-17216580D01*
X11574714Y-17216580D02*
X11622333Y-17264200D01*
X11622333Y-17264200D02*
X11717571Y-17311819D01*
X11717571Y-17311819D02*
X11908047Y-17311819D01*
X11908047Y-17311819D02*
X12003285Y-17264200D01*
X12003285Y-17264200D02*
X12050904Y-17216580D01*
X12050904Y-17216580D02*
X12098523Y-17121342D01*
X12098523Y-17121342D02*
X12098523Y-16311819D01*
X13098523Y-17311819D02*
X12527095Y-17311819D01*
X12812809Y-17311819D02*
X12812809Y-16311819D01*
X12812809Y-16311819D02*
X12717571Y-16454676D01*
X12717571Y-16454676D02*
X12622333Y-16549914D01*
X12622333Y-16549914D02*
X12527095Y-16597533D01*
X37079009Y-10652833D02*
X37079009Y-10986166D01*
X37602819Y-10986166D02*
X36602819Y-10986166D01*
X36602819Y-10986166D02*
X36602819Y-10509976D01*
X37079009Y-9795690D02*
X37126628Y-9652833D01*
X37126628Y-9652833D02*
X37174247Y-9605214D01*
X37174247Y-9605214D02*
X37269485Y-9557595D01*
X37269485Y-9557595D02*
X37412342Y-9557595D01*
X37412342Y-9557595D02*
X37507580Y-9605214D01*
X37507580Y-9605214D02*
X37555200Y-9652833D01*
X37555200Y-9652833D02*
X37602819Y-9748071D01*
X37602819Y-9748071D02*
X37602819Y-10129023D01*
X37602819Y-10129023D02*
X36602819Y-10129023D01*
X36602819Y-10129023D02*
X36602819Y-9795690D01*
X36602819Y-9795690D02*
X36650438Y-9700452D01*
X36650438Y-9700452D02*
X36698057Y-9652833D01*
X36698057Y-9652833D02*
X36793295Y-9605214D01*
X36793295Y-9605214D02*
X36888533Y-9605214D01*
X36888533Y-9605214D02*
X36983771Y-9652833D01*
X36983771Y-9652833D02*
X37031390Y-9700452D01*
X37031390Y-9700452D02*
X37079009Y-9795690D01*
X37079009Y-9795690D02*
X37079009Y-10129023D01*
X36602819Y-9224261D02*
X36602819Y-8605214D01*
X36602819Y-8605214D02*
X36983771Y-8938547D01*
X36983771Y-8938547D02*
X36983771Y-8795690D01*
X36983771Y-8795690D02*
X37031390Y-8700452D01*
X37031390Y-8700452D02*
X37079009Y-8652833D01*
X37079009Y-8652833D02*
X37174247Y-8605214D01*
X37174247Y-8605214D02*
X37412342Y-8605214D01*
X37412342Y-8605214D02*
X37507580Y-8652833D01*
X37507580Y-8652833D02*
X37555200Y-8700452D01*
X37555200Y-8700452D02*
X37602819Y-8795690D01*
X37602819Y-8795690D02*
X37602819Y-9081404D01*
X37602819Y-9081404D02*
X37555200Y-9176642D01*
X37555200Y-9176642D02*
X37507580Y-9224261D01*
X88875595Y-8204819D02*
X88875595Y-9014342D01*
X88875595Y-9014342D02*
X88923214Y-9109580D01*
X88923214Y-9109580D02*
X88970833Y-9157200D01*
X88970833Y-9157200D02*
X89066071Y-9204819D01*
X89066071Y-9204819D02*
X89256547Y-9204819D01*
X89256547Y-9204819D02*
X89351785Y-9157200D01*
X89351785Y-9157200D02*
X89399404Y-9109580D01*
X89399404Y-9109580D02*
X89447023Y-9014342D01*
X89447023Y-9014342D02*
X89447023Y-8204819D01*
X89875595Y-8300057D02*
X89923214Y-8252438D01*
X89923214Y-8252438D02*
X90018452Y-8204819D01*
X90018452Y-8204819D02*
X90256547Y-8204819D01*
X90256547Y-8204819D02*
X90351785Y-8252438D01*
X90351785Y-8252438D02*
X90399404Y-8300057D01*
X90399404Y-8300057D02*
X90447023Y-8395295D01*
X90447023Y-8395295D02*
X90447023Y-8490533D01*
X90447023Y-8490533D02*
X90399404Y-8633390D01*
X90399404Y-8633390D02*
X89827976Y-9204819D01*
X89827976Y-9204819D02*
X90447023Y-9204819D01*
X85333333Y-11874819D02*
X85000000Y-11398628D01*
X84761905Y-11874819D02*
X84761905Y-10874819D01*
X84761905Y-10874819D02*
X85142857Y-10874819D01*
X85142857Y-10874819D02*
X85238095Y-10922438D01*
X85238095Y-10922438D02*
X85285714Y-10970057D01*
X85285714Y-10970057D02*
X85333333Y-11065295D01*
X85333333Y-11065295D02*
X85333333Y-11208152D01*
X85333333Y-11208152D02*
X85285714Y-11303390D01*
X85285714Y-11303390D02*
X85238095Y-11351009D01*
X85238095Y-11351009D02*
X85142857Y-11398628D01*
X85142857Y-11398628D02*
X84761905Y-11398628D01*
X85714286Y-10970057D02*
X85761905Y-10922438D01*
X85761905Y-10922438D02*
X85857143Y-10874819D01*
X85857143Y-10874819D02*
X86095238Y-10874819D01*
X86095238Y-10874819D02*
X86190476Y-10922438D01*
X86190476Y-10922438D02*
X86238095Y-10970057D01*
X86238095Y-10970057D02*
X86285714Y-11065295D01*
X86285714Y-11065295D02*
X86285714Y-11160533D01*
X86285714Y-11160533D02*
X86238095Y-11303390D01*
X86238095Y-11303390D02*
X85666667Y-11874819D01*
X85666667Y-11874819D02*
X86285714Y-11874819D01*
X60854819Y-6111904D02*
X61664342Y-6111904D01*
X61664342Y-6111904D02*
X61759580Y-6064285D01*
X61759580Y-6064285D02*
X61807200Y-6016666D01*
X61807200Y-6016666D02*
X61854819Y-5921428D01*
X61854819Y-5921428D02*
X61854819Y-5730952D01*
X61854819Y-5730952D02*
X61807200Y-5635714D01*
X61807200Y-5635714D02*
X61759580Y-5588095D01*
X61759580Y-5588095D02*
X61664342Y-5540476D01*
X61664342Y-5540476D02*
X60854819Y-5540476D01*
X60854819Y-5159523D02*
X60854819Y-4492857D01*
X60854819Y-4492857D02*
X61854819Y-4921428D01*
X70199580Y-14391666D02*
X70247200Y-14439285D01*
X70247200Y-14439285D02*
X70294819Y-14582142D01*
X70294819Y-14582142D02*
X70294819Y-14677380D01*
X70294819Y-14677380D02*
X70247200Y-14820237D01*
X70247200Y-14820237D02*
X70151961Y-14915475D01*
X70151961Y-14915475D02*
X70056723Y-14963094D01*
X70056723Y-14963094D02*
X69866247Y-15010713D01*
X69866247Y-15010713D02*
X69723390Y-15010713D01*
X69723390Y-15010713D02*
X69532914Y-14963094D01*
X69532914Y-14963094D02*
X69437676Y-14915475D01*
X69437676Y-14915475D02*
X69342438Y-14820237D01*
X69342438Y-14820237D02*
X69294819Y-14677380D01*
X69294819Y-14677380D02*
X69294819Y-14582142D01*
X69294819Y-14582142D02*
X69342438Y-14439285D01*
X69342438Y-14439285D02*
X69390057Y-14391666D01*
X69390057Y-14010713D02*
X69342438Y-13963094D01*
X69342438Y-13963094D02*
X69294819Y-13867856D01*
X69294819Y-13867856D02*
X69294819Y-13629761D01*
X69294819Y-13629761D02*
X69342438Y-13534523D01*
X69342438Y-13534523D02*
X69390057Y-13486904D01*
X69390057Y-13486904D02*
X69485295Y-13439285D01*
X69485295Y-13439285D02*
X69580533Y-13439285D01*
X69580533Y-13439285D02*
X69723390Y-13486904D01*
X69723390Y-13486904D02*
X70294819Y-14058332D01*
X70294819Y-14058332D02*
X70294819Y-13439285D01*
X29436095Y-16047319D02*
X29436095Y-16856842D01*
X29436095Y-16856842D02*
X29483714Y-16952080D01*
X29483714Y-16952080D02*
X29531333Y-16999700D01*
X29531333Y-16999700D02*
X29626571Y-17047319D01*
X29626571Y-17047319D02*
X29817047Y-17047319D01*
X29817047Y-17047319D02*
X29912285Y-16999700D01*
X29912285Y-16999700D02*
X29959904Y-16952080D01*
X29959904Y-16952080D02*
X30007523Y-16856842D01*
X30007523Y-16856842D02*
X30007523Y-16047319D01*
X30959904Y-16047319D02*
X30483714Y-16047319D01*
X30483714Y-16047319D02*
X30436095Y-16523509D01*
X30436095Y-16523509D02*
X30483714Y-16475890D01*
X30483714Y-16475890D02*
X30578952Y-16428271D01*
X30578952Y-16428271D02*
X30817047Y-16428271D01*
X30817047Y-16428271D02*
X30912285Y-16475890D01*
X30912285Y-16475890D02*
X30959904Y-16523509D01*
X30959904Y-16523509D02*
X31007523Y-16618747D01*
X31007523Y-16618747D02*
X31007523Y-16856842D01*
X31007523Y-16856842D02*
X30959904Y-16952080D01*
X30959904Y-16952080D02*
X30912285Y-16999700D01*
X30912285Y-16999700D02*
X30817047Y-17047319D01*
X30817047Y-17047319D02*
X30578952Y-17047319D01*
X30578952Y-17047319D02*
X30483714Y-16999700D01*
X30483714Y-16999700D02*
X30436095Y-16952080D01*
X70199580Y-6516666D02*
X70247200Y-6564285D01*
X70247200Y-6564285D02*
X70294819Y-6707142D01*
X70294819Y-6707142D02*
X70294819Y-6802380D01*
X70294819Y-6802380D02*
X70247200Y-6945237D01*
X70247200Y-6945237D02*
X70151961Y-7040475D01*
X70151961Y-7040475D02*
X70056723Y-7088094D01*
X70056723Y-7088094D02*
X69866247Y-7135713D01*
X69866247Y-7135713D02*
X69723390Y-7135713D01*
X69723390Y-7135713D02*
X69532914Y-7088094D01*
X69532914Y-7088094D02*
X69437676Y-7040475D01*
X69437676Y-7040475D02*
X69342438Y-6945237D01*
X69342438Y-6945237D02*
X69294819Y-6802380D01*
X69294819Y-6802380D02*
X69294819Y-6707142D01*
X69294819Y-6707142D02*
X69342438Y-6564285D01*
X69342438Y-6564285D02*
X69390057Y-6516666D01*
X69294819Y-5611904D02*
X69294819Y-6088094D01*
X69294819Y-6088094D02*
X69771009Y-6135713D01*
X69771009Y-6135713D02*
X69723390Y-6088094D01*
X69723390Y-6088094D02*
X69675771Y-5992856D01*
X69675771Y-5992856D02*
X69675771Y-5754761D01*
X69675771Y-5754761D02*
X69723390Y-5659523D01*
X69723390Y-5659523D02*
X69771009Y-5611904D01*
X69771009Y-5611904D02*
X69866247Y-5564285D01*
X69866247Y-5564285D02*
X70104342Y-5564285D01*
X70104342Y-5564285D02*
X70199580Y-5611904D01*
X70199580Y-5611904D02*
X70247200Y-5659523D01*
X70247200Y-5659523D02*
X70294819Y-5754761D01*
X70294819Y-5754761D02*
X70294819Y-5992856D01*
X70294819Y-5992856D02*
X70247200Y-6088094D01*
X70247200Y-6088094D02*
X70199580Y-6135713D01*
D11*
X12915142Y-11934369D02*
X12915142Y-12859655D01*
X12915142Y-12859655D02*
X12969571Y-12968512D01*
X12969571Y-12968512D02*
X13024000Y-13022941D01*
X13024000Y-13022941D02*
X13132857Y-13077369D01*
X13132857Y-13077369D02*
X13350571Y-13077369D01*
X13350571Y-13077369D02*
X13459428Y-13022941D01*
X13459428Y-13022941D02*
X13513857Y-12968512D01*
X13513857Y-12968512D02*
X13568285Y-12859655D01*
X13568285Y-12859655D02*
X13568285Y-11934369D01*
X14058143Y-13022941D02*
X14221429Y-13077369D01*
X14221429Y-13077369D02*
X14493571Y-13077369D01*
X14493571Y-13077369D02*
X14602429Y-13022941D01*
X14602429Y-13022941D02*
X14656857Y-12968512D01*
X14656857Y-12968512D02*
X14711286Y-12859655D01*
X14711286Y-12859655D02*
X14711286Y-12750798D01*
X14711286Y-12750798D02*
X14656857Y-12641941D01*
X14656857Y-12641941D02*
X14602429Y-12587512D01*
X14602429Y-12587512D02*
X14493571Y-12533083D01*
X14493571Y-12533083D02*
X14275857Y-12478655D01*
X14275857Y-12478655D02*
X14167000Y-12424226D01*
X14167000Y-12424226D02*
X14112571Y-12369798D01*
X14112571Y-12369798D02*
X14058143Y-12260941D01*
X14058143Y-12260941D02*
X14058143Y-12152083D01*
X14058143Y-12152083D02*
X14112571Y-12043226D01*
X14112571Y-12043226D02*
X14167000Y-11988798D01*
X14167000Y-11988798D02*
X14275857Y-11934369D01*
X14275857Y-11934369D02*
X14548000Y-11934369D01*
X14548000Y-11934369D02*
X14711286Y-11988798D01*
X15582142Y-12478655D02*
X15745428Y-12533083D01*
X15745428Y-12533083D02*
X15799857Y-12587512D01*
X15799857Y-12587512D02*
X15854285Y-12696369D01*
X15854285Y-12696369D02*
X15854285Y-12859655D01*
X15854285Y-12859655D02*
X15799857Y-12968512D01*
X15799857Y-12968512D02*
X15745428Y-13022941D01*
X15745428Y-13022941D02*
X15636571Y-13077369D01*
X15636571Y-13077369D02*
X15201142Y-13077369D01*
X15201142Y-13077369D02*
X15201142Y-11934369D01*
X15201142Y-11934369D02*
X15582142Y-11934369D01*
X15582142Y-11934369D02*
X15691000Y-11988798D01*
X15691000Y-11988798D02*
X15745428Y-12043226D01*
X15745428Y-12043226D02*
X15799857Y-12152083D01*
X15799857Y-12152083D02*
X15799857Y-12260941D01*
X15799857Y-12260941D02*
X15745428Y-12369798D01*
X15745428Y-12369798D02*
X15691000Y-12424226D01*
X15691000Y-12424226D02*
X15582142Y-12478655D01*
X15582142Y-12478655D02*
X15201142Y-12478655D01*
X16888428Y-11934369D02*
X16344142Y-11934369D01*
X16344142Y-11934369D02*
X16289714Y-12478655D01*
X16289714Y-12478655D02*
X16344142Y-12424226D01*
X16344142Y-12424226D02*
X16453000Y-12369798D01*
X16453000Y-12369798D02*
X16725142Y-12369798D01*
X16725142Y-12369798D02*
X16834000Y-12424226D01*
X16834000Y-12424226D02*
X16888428Y-12478655D01*
X16888428Y-12478655D02*
X16942857Y-12587512D01*
X16942857Y-12587512D02*
X16942857Y-12859655D01*
X16942857Y-12859655D02*
X16888428Y-12968512D01*
X16888428Y-12968512D02*
X16834000Y-13022941D01*
X16834000Y-13022941D02*
X16725142Y-13077369D01*
X16725142Y-13077369D02*
X16453000Y-13077369D01*
X16453000Y-13077369D02*
X16344142Y-13022941D01*
X16344142Y-13022941D02*
X16289714Y-12968512D01*
D12*
%TO.C,USB2*%
X60700000Y-2050000D02*
X57300000Y-2050000D01*
X60700000Y-2050000D02*
X60700000Y-2950000D01*
X60300000Y-2950000D02*
X60300000Y-2050000D01*
X56200000Y-3350000D02*
X56200000Y-2850000D01*
X56900000Y-3900000D02*
X56200000Y-3350000D01*
X56900000Y-6800000D02*
X56900000Y-3900000D01*
X56200000Y-7350000D02*
X56900000Y-6800000D01*
X56200000Y-7350000D02*
X56200000Y-7850000D01*
X60700000Y-7750000D02*
X60700000Y-8650000D01*
X60700000Y-8650000D02*
X57300000Y-8650000D01*
X60300000Y-8650000D02*
X60300000Y-7750000D01*
X59882842Y-3550000D02*
G75*
G03*
X59882842Y-3550000I-141421J0D01*
G01*
%TO.C,C7*%
X73960000Y-3167164D02*
X73960000Y-3382836D01*
X73240000Y-3167164D02*
X73240000Y-3382836D01*
%TO.C,FB4*%
X52039000Y-8636622D02*
X52039000Y-7837378D01*
X53159000Y-8636622D02*
X53159000Y-7837378D01*
%TO.C,C6*%
X70627836Y-8310000D02*
X70412164Y-8310000D01*
X70627836Y-7590000D02*
X70412164Y-7590000D01*
%TO.C,FB2*%
X20229000Y-10383622D02*
X20229000Y-9584378D01*
X21349000Y-10383622D02*
X21349000Y-9584378D01*
%TO.C,C1*%
X79940000Y-10557836D02*
X79940000Y-10342164D01*
X80660000Y-10557836D02*
X80660000Y-10342164D01*
D13*
%TO.C,D1*%
X84400000Y-5850000D02*
X84400000Y-8850000D01*
X82400000Y-5850000D02*
X82400000Y-8850000D01*
D10*
X83400000Y-6588000D02*
X83400000Y-8112000D01*
X83908000Y-6842000D02*
X82892000Y-6842000D01*
X83908000Y-7350000D02*
X82892000Y-7350000D01*
X83400000Y-7350000D02*
X83908000Y-6842000D01*
X83400000Y-7350000D02*
X82892000Y-6842000D01*
X83400000Y-7350000D02*
X83908000Y-7858000D01*
X83400000Y-7350000D02*
X82892000Y-7858000D01*
X83146000Y-7350000D02*
X83654000Y-7350000D01*
X82892000Y-7858000D02*
X83908000Y-7858000D01*
D12*
%TO.C,R3*%
X50852641Y-10275500D02*
X50545359Y-10275500D01*
X50852641Y-9515500D02*
X50545359Y-9515500D01*
%TO.C,R4*%
X43445359Y-9615500D02*
X43752641Y-9615500D01*
X43445359Y-10375500D02*
X43752641Y-10375500D01*
D10*
%TO.C,U3*%
X73025000Y-5727500D02*
X73025000Y-6207500D01*
X73025000Y-5727500D02*
X77175000Y-5727500D01*
X73025000Y-6207500D02*
X71900000Y-6207500D01*
X73025000Y-15887500D02*
X73025000Y-15407500D01*
X73025000Y-15887500D02*
X77175000Y-15887500D01*
X77175000Y-5727500D02*
X77175000Y-6207500D01*
X77175000Y-15887500D02*
X77175000Y-15407500D01*
D12*
%TO.C,R5*%
X80437258Y-7572500D02*
X79962742Y-7572500D01*
X80437258Y-6527500D02*
X79962742Y-6527500D01*
%TO.C,Y1*%
X66200000Y-3900000D02*
X66200000Y-7200000D01*
X66200000Y-7200000D02*
X70200000Y-7200000D01*
%TO.C,C8*%
X80188748Y-2340000D02*
X81611252Y-2340000D01*
X80188748Y-4160000D02*
X81611252Y-4160000D01*
%TO.C,C3*%
X78840000Y-10557836D02*
X78840000Y-10342164D01*
X79560000Y-10557836D02*
X79560000Y-10342164D01*
%TO.C,U6*%
X48899000Y-12555500D02*
X45999000Y-12555500D01*
X48899000Y-11945500D02*
X48899000Y-12555500D01*
X46799000Y-9435500D02*
X47599000Y-9435500D01*
X46799000Y-9435500D02*
X45999000Y-9435500D01*
%TO.C,R1*%
X92746359Y-10070000D02*
X93053641Y-10070000D01*
X92746359Y-10830000D02*
X93053641Y-10830000D01*
%TO.C,C4*%
X79560000Y-12342164D02*
X79560000Y-12557836D01*
X78840000Y-12342164D02*
X78840000Y-12557836D01*
%TO.C,U4*%
X76300000Y-2190000D02*
X74500000Y-2190000D01*
X76300000Y-2190000D02*
X77100000Y-2190000D01*
X76300000Y-5310000D02*
X75500000Y-5310000D01*
X76300000Y-5310000D02*
X77100000Y-5310000D01*
%TO.C,FB1*%
X95940000Y-8791122D02*
X95940000Y-7991878D01*
X97060000Y-8791122D02*
X97060000Y-7991878D01*
%TO.C,R6*%
X80437258Y-5872500D02*
X79962742Y-5872500D01*
X80437258Y-4827500D02*
X79962742Y-4827500D01*
D13*
%TO.C,USB4*%
X36878000Y-4193000D02*
X36878000Y-7319000D01*
X36878000Y-81000D02*
X36878000Y-1317000D01*
X36748000Y-10261000D02*
X34629000Y-10261000D01*
X35484000Y-6583000D02*
X34975000Y-6579000D01*
X34989000Y-848000D02*
X35484000Y-6583000D01*
X34975000Y-6579000D02*
X34465000Y-2039000D01*
X34647000Y-4216000D02*
X32386000Y-4216000D01*
X34507000Y-3006000D02*
X32477000Y-3006000D01*
X34465000Y-2039000D02*
X34390000Y-1361000D01*
X34390000Y-1361000D02*
X32640000Y-1371000D01*
X32767000Y-10261000D02*
X32130000Y-10261000D01*
X32640000Y-1371000D02*
X32166000Y-6150000D01*
X32166000Y-6150000D02*
X32136000Y-6580000D01*
X32136000Y-6580000D02*
X31756000Y-6580000D01*
X32106000Y-837000D02*
X34989000Y-848000D01*
X31756000Y-6580000D02*
X32106000Y-837000D01*
X30268000Y-10261000D02*
X30128000Y-10261000D01*
X28645000Y-6513000D02*
X28136000Y-6510000D01*
X28266000Y-10261000D02*
X27629000Y-10261000D01*
X28150000Y-778000D02*
X28645000Y-6513000D01*
X28136000Y-6510000D02*
X27626000Y-1969000D01*
X27797000Y-4287000D02*
X25537000Y-4287000D01*
X27657000Y-3077000D02*
X25627000Y-3077000D01*
X27626000Y-1969000D02*
X27551000Y-1291000D01*
X27551000Y-1291000D02*
X25801000Y-1302000D01*
X25801000Y-1302000D02*
X25327000Y-6080000D01*
X25767000Y-10261000D02*
X23648000Y-10261000D01*
X25327000Y-6080000D02*
X25297000Y-6510000D01*
X25297000Y-6510000D02*
X24917000Y-6510000D01*
X25267000Y-767000D02*
X28150000Y-778000D01*
X24917000Y-6510000D02*
X25267000Y-767000D01*
X23648000Y-10261000D02*
X23648000Y-10226000D01*
X23648000Y-7288000D02*
X23648000Y-4275000D01*
X23648000Y-1337000D02*
X23648000Y-81000D01*
X23648000Y-81000D02*
X36878000Y-81000D01*
D12*
%TO.C,U1*%
X14389000Y-16017000D02*
X11489000Y-16017000D01*
X14389000Y-15407000D02*
X14389000Y-16017000D01*
X12289000Y-12897000D02*
X13089000Y-12897000D01*
X12289000Y-12897000D02*
X11489000Y-12897000D01*
%TO.C,FB3*%
X38138000Y-10219122D02*
X38138000Y-9419878D01*
X39258000Y-10219122D02*
X39258000Y-9419878D01*
%TO.C,U2*%
X87537500Y-9590000D02*
X90437500Y-9590000D01*
X87537500Y-10200000D02*
X87537500Y-9590000D01*
X89637500Y-12710000D02*
X88837500Y-12710000D01*
X89637500Y-12710000D02*
X90437500Y-12710000D01*
%TO.C,R2*%
X85653641Y-10630000D02*
X85346359Y-10630000D01*
X85653641Y-9870000D02*
X85346359Y-9870000D01*
%TO.C,U7*%
X62240000Y-7450000D02*
X62240000Y-4550000D01*
X62850000Y-7450000D02*
X62240000Y-7450000D01*
X65360000Y-5350000D02*
X65360000Y-6150000D01*
X65360000Y-5350000D02*
X65360000Y-4550000D01*
%TO.C,C2*%
X70640000Y-14332836D02*
X70640000Y-14117164D01*
X71360000Y-14332836D02*
X71360000Y-14117164D01*
%TO.C,U5*%
X32298000Y-15752500D02*
X29398000Y-15752500D01*
X32298000Y-15142500D02*
X32298000Y-15752500D01*
X30198000Y-12632500D02*
X30998000Y-12632500D01*
X30198000Y-12632500D02*
X29398000Y-12632500D01*
%TO.C,C5*%
X70640000Y-6457836D02*
X70640000Y-6242164D01*
X71360000Y-6457836D02*
X71360000Y-6242164D01*
D13*
%TO.C,USB5*%
X18969000Y-4357500D02*
X18969000Y-7483500D01*
X18969000Y-245500D02*
X18969000Y-1481500D01*
X18839000Y-10425500D02*
X16720000Y-10425500D01*
X17575000Y-6747500D02*
X17066000Y-6743500D01*
X17080000Y-1012500D02*
X17575000Y-6747500D01*
X17066000Y-6743500D02*
X16556000Y-2203500D01*
X16738000Y-4380500D02*
X14477000Y-4380500D01*
X16598000Y-3170500D02*
X14568000Y-3170500D01*
X16556000Y-2203500D02*
X16481000Y-1525500D01*
X16481000Y-1525500D02*
X14731000Y-1535500D01*
X14858000Y-10425500D02*
X14221000Y-10425500D01*
X14731000Y-1535500D02*
X14257000Y-6314500D01*
X14257000Y-6314500D02*
X14227000Y-6744500D01*
X14227000Y-6744500D02*
X13847000Y-6744500D01*
X14197000Y-1001500D02*
X17080000Y-1012500D01*
X13847000Y-6744500D02*
X14197000Y-1001500D01*
X12359000Y-10425500D02*
X12219000Y-10425500D01*
X10736000Y-6677500D02*
X10227000Y-6674500D01*
X10357000Y-10425500D02*
X9720000Y-10425500D01*
X10241000Y-942500D02*
X10736000Y-6677500D01*
X10227000Y-6674500D02*
X9717000Y-2133500D01*
X9888000Y-4451500D02*
X7628000Y-4451500D01*
X9748000Y-3241500D02*
X7718000Y-3241500D01*
X9717000Y-2133500D02*
X9642000Y-1455500D01*
X9642000Y-1455500D02*
X7892000Y-1466500D01*
X7892000Y-1466500D02*
X7418000Y-6244500D01*
X7858000Y-10425500D02*
X5739000Y-10425500D01*
X7418000Y-6244500D02*
X7388000Y-6674500D01*
X7388000Y-6674500D02*
X7008000Y-6674500D01*
X7358000Y-931500D02*
X10241000Y-942500D01*
X7008000Y-6674500D02*
X7358000Y-931500D01*
X5739000Y-10425500D02*
X5739000Y-10390500D01*
X5739000Y-7452500D02*
X5739000Y-4439500D01*
X5739000Y-1501500D02*
X5739000Y-245500D01*
X5739000Y-245500D02*
X18969000Y-245500D01*
%TD*%
%LPC*%
D14*
%TO.C,H2*%
X2000000Y-2000000D03*
%TD*%
D15*
%TO.C,USB2*%
X56700000Y-2400000D03*
D16*
X60700000Y-3550000D03*
X60700000Y-4750000D03*
X60700000Y-5950000D03*
X60700000Y-7150000D03*
D15*
X56700000Y-8300000D03*
%TD*%
D17*
%TO.C,C7*%
X73600000Y-2795000D03*
X73600000Y-3755000D03*
%TD*%
D18*
%TO.C,FB4*%
X52599000Y-9299500D03*
X52599000Y-7174500D03*
%TD*%
D19*
%TO.C,C6*%
X71000000Y-7950000D03*
X70040000Y-7950000D03*
%TD*%
D20*
%TO.C,USB3*%
X49189000Y-6644500D03*
X43409000Y-6644500D03*
D21*
X49524000Y-8089500D03*
X48749000Y-8089500D03*
D22*
X47549000Y-8089500D03*
X46549000Y-8089500D03*
X46049000Y-8089500D03*
X45049000Y-8089500D03*
D21*
X43074000Y-8089500D03*
X43849000Y-8089500D03*
D22*
X44549000Y-8089500D03*
X45549000Y-8089500D03*
X47049000Y-8089500D03*
X48049000Y-8089500D03*
D23*
X50619000Y-7174500D03*
D24*
X50619000Y-2994500D03*
D23*
X41979000Y-7174500D03*
D24*
X41979000Y-2994500D03*
%TD*%
D18*
%TO.C,FB2*%
X20789000Y-11046500D03*
X20789000Y-8921500D03*
%TD*%
D25*
%TO.C,C1*%
X80300000Y-10930000D03*
X80300000Y-9970000D03*
%TD*%
D26*
%TO.C,D1*%
X83400000Y-5650000D03*
X83400000Y-9050000D03*
%TD*%
D27*
%TO.C,R3*%
X51209000Y-9895500D03*
X50189000Y-9895500D03*
%TD*%
D28*
%TO.C,R4*%
X43089000Y-9995500D03*
X44109000Y-9995500D03*
%TD*%
D29*
%TO.C,U3*%
X72500000Y-6680000D03*
X72500000Y-7315000D03*
X72500000Y-7950000D03*
X72500000Y-8585000D03*
X72500000Y-9220000D03*
X72500000Y-9855000D03*
X72500000Y-10490000D03*
X72500000Y-11125000D03*
X72500000Y-11760000D03*
X72500000Y-12395000D03*
X72500000Y-13030000D03*
X72500000Y-13665000D03*
X72500000Y-14300000D03*
X72500000Y-14935000D03*
X77700000Y-14935000D03*
X77700000Y-14300000D03*
X77700000Y-13665000D03*
X77700000Y-13030000D03*
X77700000Y-12395000D03*
X77700000Y-11760000D03*
X77700000Y-11125000D03*
X77700000Y-10490000D03*
X77700000Y-9855000D03*
X77700000Y-9220000D03*
X77700000Y-8585000D03*
X77700000Y-7950000D03*
X77700000Y-7315000D03*
X77700000Y-6680000D03*
%TD*%
D30*
%TO.C,R5*%
X81025000Y-7050000D03*
X79375000Y-7050000D03*
%TD*%
D31*
%TO.C,Y1*%
X67100000Y-6400000D03*
X69300000Y-6400000D03*
X69300000Y-4700000D03*
X67100000Y-4700000D03*
%TD*%
D32*
%TO.C,C8*%
X79425000Y-3250000D03*
X82375000Y-3250000D03*
%TD*%
D25*
%TO.C,C3*%
X79200000Y-10930000D03*
X79200000Y-9970000D03*
%TD*%
D33*
%TO.C,U6*%
X47974000Y-11945500D03*
X47974000Y-10995500D03*
X47974000Y-10045500D03*
X45624000Y-10045500D03*
X45624000Y-10995500D03*
X45624000Y-11945500D03*
%TD*%
D28*
%TO.C,R1*%
X92390000Y-10450000D03*
X93410000Y-10450000D03*
%TD*%
D14*
%TO.C,H3*%
X2000000Y-14500000D03*
%TD*%
D17*
%TO.C,C4*%
X79200000Y-11970000D03*
X79200000Y-12930000D03*
%TD*%
D14*
%TO.C,H4*%
X100000000Y-14500000D03*
%TD*%
D20*
%TO.C,USB1*%
X93027500Y-6799000D03*
X87247500Y-6799000D03*
D21*
X93362500Y-8244000D03*
X92587500Y-8244000D03*
D22*
X91387500Y-8244000D03*
X90387500Y-8244000D03*
X89887500Y-8244000D03*
X88887500Y-8244000D03*
D21*
X86912500Y-8244000D03*
X87687500Y-8244000D03*
D22*
X88387500Y-8244000D03*
X89387500Y-8244000D03*
X90887500Y-8244000D03*
X91887500Y-8244000D03*
D23*
X94457500Y-7329000D03*
D24*
X94457500Y-3149000D03*
D23*
X85817500Y-7329000D03*
D24*
X85817500Y-3149000D03*
%TD*%
D34*
%TO.C,U4*%
X75162500Y-2800000D03*
X75162500Y-3750000D03*
X75162500Y-4700000D03*
X77437500Y-4700000D03*
X77437500Y-3750000D03*
X77437500Y-2800000D03*
%TD*%
D18*
%TO.C,FB1*%
X96500000Y-9454000D03*
X96500000Y-7329000D03*
%TD*%
D30*
%TO.C,R6*%
X81025000Y-5350000D03*
X79375000Y-5350000D03*
%TD*%
D35*
%TO.C,USB4*%
X33698000Y-10231000D03*
X31199000Y-10231000D03*
X29197000Y-10231000D03*
X26698000Y-10231000D03*
D36*
X36599000Y-8757000D03*
X36599000Y-2755000D03*
X23797000Y-8757000D03*
X23797000Y-2806000D03*
%TD*%
D14*
%TO.C,H1*%
X100000000Y-2000000D03*
%TD*%
D33*
%TO.C,U1*%
X13464000Y-15407000D03*
X13464000Y-14457000D03*
X13464000Y-13507000D03*
X11114000Y-13507000D03*
X11114000Y-14457000D03*
X11114000Y-15407000D03*
%TD*%
D18*
%TO.C,FB3*%
X38698000Y-10882000D03*
X38698000Y-8757000D03*
%TD*%
D37*
%TO.C,U2*%
X88462500Y-10200000D03*
X88462500Y-11150000D03*
X88462500Y-12100000D03*
X90812500Y-12100000D03*
X90812500Y-11150000D03*
X90812500Y-10200000D03*
%TD*%
D27*
%TO.C,R2*%
X86010000Y-10250000D03*
X84990000Y-10250000D03*
%TD*%
D38*
%TO.C,U7*%
X62850000Y-6525000D03*
X63800000Y-6525000D03*
X64750000Y-6525000D03*
X64750000Y-4175000D03*
X63800000Y-4175000D03*
X62850000Y-4175000D03*
%TD*%
D25*
%TO.C,C2*%
X71000000Y-14705000D03*
X71000000Y-13745000D03*
%TD*%
D33*
%TO.C,U5*%
X31373000Y-15142500D03*
X31373000Y-14192500D03*
X31373000Y-13242500D03*
X29023000Y-13242500D03*
X29023000Y-14192500D03*
X29023000Y-15142500D03*
%TD*%
D25*
%TO.C,C5*%
X71000000Y-6830000D03*
X71000000Y-5870000D03*
%TD*%
D35*
%TO.C,USB5*%
X15789000Y-10395500D03*
X13290000Y-10395500D03*
X11288000Y-10395500D03*
X8789000Y-10395500D03*
D36*
X18690000Y-8921500D03*
X18690000Y-2919500D03*
X5888000Y-8921500D03*
X5888000Y-2970500D03*
%TD*%
%LPD*%
M02*
