M48
; DRILL file {KiCad 7.0.6} date Tue Sep 19 22:06:04 2023
; FORMAT={-:-/ absolute / inch / decimal}
; #@! TF.CreationDate,2023-09-19T22:06:04+01:00
; #@! TF.GenerationSoftware,Kicad,Pcbnew,7.0.6
; #@! TF.FileFunction,Plated,1,4,PTH
FMAT,2
INCH
; #@! TA.AperFunction,Plated,PTH,ViaDrill
T1C0.0118
; #@! TA.AperFunction,Plated,PTH,ComponentDrill
T2C0.0157
; #@! TA.AperFunction,Plated,PTH,ComponentDrill
T3C0.0236
; #@! TA.AperFunction,Plated,PTH,ComponentDrill
T4C0.0276
; #@! TA.AperFunction,Plated,PTH,ComponentDrill
T5C0.0866
%
G90
G05
T1
X0.0766Y-0.3938
X0.1457Y-0.3504
X0.1553Y-0.4331
X0.1947Y-0.5513
X0.1969Y-0.3583
X0.2441Y-0.4409
X0.2441Y-0.4764
X0.3128Y-0.3938
X0.3128Y-0.5119
X0.3521Y-0.5906
X0.4646Y-0.4409
X0.4646Y-0.4764
X0.5118Y-0.3583
X0.5315Y-0.4488
X0.5433Y-0.5748
X0.5807Y-0.2992
X0.6201Y-0.2992
X0.6671Y-0.5906
X0.6969Y-0.307
X0.6969Y-0.4882
X0.7244Y-0.1024
X0.7522Y-0.1302
X0.7852Y-0.2757
X0.8307Y-0.4331
X0.8307Y-0.6143
X0.8437Y-0.2449
X0.8437Y-0.2827
X0.876Y-0.3898
X0.9724Y-0.5709
X0.9753Y-0.4893
X1.0214Y-0.1969
X1.0214Y-0.315
X1.0608Y-0.5513
X1.0956Y-0.4893
X1.1642Y-0.5495
X1.2047Y-0.3938
X1.2261Y-0.2143
X1.2956Y-0.4361
X1.4151Y-0.3544
X1.4151Y-0.5119
X1.437Y-0.0827
X1.437Y-0.122
X1.437Y-0.1713
X1.437Y-0.2106
X1.4545Y-0.5906
X1.4939Y-0.3938
X1.5332Y-0.4725
X1.5726Y-0.315
X1.612Y-0.5119
X1.6514Y-0.3938
X1.6907Y-0.5513
X1.6969Y-0.0846
X1.6969Y-0.2087
X1.7362Y-0.0846
X1.7362Y-0.2087
X1.7795Y-0.3622
X1.8088Y-0.5513
X1.8307Y-0.3346
X1.8799Y-0.4055
X1.9236Y-0.2463
X1.9269Y-0.5513
X2.0451Y-0.5513
X2.0561Y-0.2463
X2.061Y-0.4055
X2.1146Y-0.3917
X2.1238Y-0.5119
X2.1485Y-0.3346
X2.2025Y-0.4725
X2.2419Y-0.5513
X2.2717Y-0.4331
X2.2874Y-0.1833
X2.3206Y-0.5119
X2.3994Y-0.5513
X2.4528Y-0.4331
X2.5175Y-0.5513
X2.6009Y-0.3253
X2.6356Y-0.5513
X2.7537Y-0.5513
X2.8765Y-0.3253
X2.9112Y-0.5906
X3.0293Y-0.5906
X3.1181Y-0.2579
X3.1474Y-0.5906
X3.2655Y-0.5906
X3.3836Y-0.5906
X3.4367Y-0.3231
X3.4843Y-0.5276
X3.6654Y-0.5276
X3.7123Y-0.3231
X3.9567Y-0.2579
T2
X0.2362Y-0.5669
X0.2677Y-0.5669
X0.2677Y-0.5945
X0.2677Y-0.622
X0.4409Y-0.5669
X0.4409Y-0.5945
X0.4409Y-0.622
X0.4705Y-0.5669
T5
X0.0787Y-0.0787
T3
G00X0.1842Y-0.1142
M15
G01X0.1842Y-0.0906
M16
G05
G00X0.1842Y-0.2886
M15
G01X0.1842Y-0.2453
M16
G05
G00X0.5243Y-0.1142
M15
G01X0.5243Y-0.0906
M16
G05
G00X0.5243Y-0.2886
M15
G01X0.5243Y-0.2453
M16
G05
G00X1.8198Y-0.1142
M15
G01X1.8198Y-0.0906
M16
G05
G00X1.8198Y-0.2886
M15
G01X1.8198Y-0.2453
M16
G05
G00X2.1599Y-0.1142
M15
G01X2.1599Y-0.0906
M16
G05
G00X2.1599Y-0.2886
M15
G01X2.1599Y-0.2453
M16
G05
T4
G00X2.4867Y-0.1289
M15
G01X2.4867Y-0.0856
M16
G05
G00X2.4867Y-0.3632
M15
G01X2.4867Y-0.3199
M16
G05
G00X2.9907Y-0.0836
M15
G01X2.9907Y-0.1269
M16
G05
G00X2.9907Y-0.3199
M15
G01X2.9907Y-0.3632
M16
G05
G00X3.3225Y-0.1289
M15
G01X3.3225Y-0.0856
M16
G05
G00X3.3225Y-0.3632
M15
G01X3.3225Y-0.3199
M16
G05
G00X3.8265Y-0.0836
M15
G01X3.8265Y-0.1269
M16
G05
G00X3.8265Y-0.3199
M15
G01X3.8265Y-0.3632
M16
G05
T0
M30
