%TF.GenerationSoftware,KiCad,Pcbnew,7.0.6*%
%TF.CreationDate,2023-09-19T22:06:04+01:00*%
%TF.ProjectId,MoonHub,4d6f6f6e-4875-4622-9e6b-696361645f70,rev?*%
%TF.SameCoordinates,Original*%
%TF.FileFunction,Legend,Top*%
%TF.FilePolarity,Positive*%
%FSLAX46Y46*%
G04 Gerber Fmt 4.6, Leading zero omitted, Abs format (unit mm)*
G04 Created by KiCad (PCBNEW 7.0.6) date 2023-09-19 22:06:04*
%MOMM*%
%LPD*%
G01*
G04 APERTURE LIST*
G04 Aperture macros list*
%AMRoundRect*
0 Rectangle with rounded corners*
0 $1 Rounding radius*
0 $2 $3 $4 $5 $6 $7 $8 $9 X,Y pos of 4 corners*
0 Add a 4 corners polygon primitive as box body*
4,1,4,$2,$3,$4,$5,$6,$7,$8,$9,$2,$3,0*
0 Add four circle primitives for the rounded corners*
1,1,$1+$1,$2,$3*
1,1,$1+$1,$4,$5*
1,1,$1+$1,$6,$7*
1,1,$1+$1,$8,$9*
0 Add four rect primitives between the rounded corners*
20,1,$1+$1,$2,$3,$4,$5,0*
20,1,$1+$1,$4,$5,$6,$7,0*
20,1,$1+$1,$6,$7,$8,$9,0*
20,1,$1+$1,$8,$9,$2,$3,0*%
G04 Aperture macros list end*
%ADD10C,0.203200*%
%ADD11C,0.153000*%
%ADD12RoundRect,0.256750X-0.381250X0.218750X-0.381250X-0.218750X0.381250X-0.218750X0.381250X0.218750X0*%
%ADD13RoundRect,0.288000X-0.650000X0.325000X-0.650000X-0.325000X0.650000X-0.325000X0.650000X0.325000X0*%
%ADD14RoundRect,0.178000X0.170000X-0.140000X0.170000X0.140000X-0.170000X0.140000X-0.170000X-0.140000X0*%
%ADD15C,0.726000*%
%ADD16RoundRect,0.098000X0.240000X0.665000X-0.240000X0.665000X-0.240000X-0.665000X0.240000X-0.665000X0*%
%ADD17RoundRect,0.098000X0.090000X0.665000X-0.090000X0.665000X-0.090000X-0.665000X0.090000X-0.665000X0*%
%ADD18O,1.176000X2.276000*%
%ADD19O,1.376000X1.976000*%
%ADD20RoundRect,0.178000X-0.170000X0.140000X-0.170000X-0.140000X0.170000X-0.140000X0.170000X0.140000X0*%
%ADD21C,1.376000*%
%ADD22RoundRect,0.173000X0.135000X0.185000X-0.135000X0.185000X-0.135000X-0.185000X0.135000X-0.185000X0*%
%ADD23RoundRect,0.173000X-0.135000X-0.185000X0.135000X-0.185000X0.135000X0.185000X-0.135000X0.185000X0*%
%ADD24RoundRect,0.038000X0.600000X0.200000X-0.600000X0.200000X-0.600000X-0.200000X0.600000X-0.200000X0*%
%ADD25RoundRect,0.100000X-0.250000X-0.400000X0.250000X-0.400000X0.250000X0.400000X-0.250000X0.400000X0*%
%ADD26RoundRect,0.125000X-0.250000X-0.475000X0.250000X-0.475000X0.250000X0.475000X-0.250000X0.475000X0*%
%ADD27RoundRect,0.038000X-0.700000X-0.600000X0.700000X-0.600000X0.700000X0.600000X-0.700000X0.600000X0*%
%ADD28RoundRect,0.038000X-0.070711X0.919239X-0.919239X0.070711X0.070711X-0.919239X0.919239X-0.070711X0*%
%ADD29RoundRect,0.188000X-0.475000X-0.150000X0.475000X-0.150000X0.475000X0.150000X-0.475000X0.150000X0*%
%ADD30C,3.576001*%
%ADD31RoundRect,0.256750X0.381250X-0.218750X0.381250X0.218750X-0.381250X0.218750X-0.381250X-0.218750X0*%
%ADD32RoundRect,0.038000X-0.700000X-1.400000X0.700000X-1.400000X0.700000X1.400000X-0.700000X1.400000X0*%
%ADD33O,1.476000X2.576000*%
%ADD34RoundRect,0.188000X-0.150000X0.475000X-0.150000X-0.475000X0.150000X-0.475000X0.150000X0.475000X0*%
%ADD35RoundRect,0.188000X0.150000X-0.475000X0.150000X0.475000X-0.150000X0.475000X-0.150000X-0.475000X0*%
%ADD36RoundRect,0.188000X-0.512500X-0.150000X0.512500X-0.150000X0.512500X0.150000X-0.512500X0.150000X0*%
G04 APERTURE END LIST*
D10*
X13511017Y-11916240D02*
X13511017Y-12593573D01*
X13075588Y-11916240D02*
X13075588Y-12448431D01*
X13075588Y-12448431D02*
X13123969Y-12545193D01*
X13123969Y-12545193D02*
X13220731Y-12593573D01*
X13220731Y-12593573D02*
X13365874Y-12593573D01*
X13365874Y-12593573D02*
X13462636Y-12545193D01*
X13462636Y-12545193D02*
X13511017Y-12496812D01*
X13994826Y-12593573D02*
X13994826Y-11577573D01*
X13994826Y-11577573D02*
X14236731Y-11577573D01*
X14236731Y-11577573D02*
X14381874Y-11625954D01*
X14381874Y-11625954D02*
X14478636Y-11722716D01*
X14478636Y-11722716D02*
X14527017Y-11819478D01*
X14527017Y-11819478D02*
X14575398Y-12013002D01*
X14575398Y-12013002D02*
X14575398Y-12158145D01*
X14575398Y-12158145D02*
X14527017Y-12351669D01*
X14527017Y-12351669D02*
X14478636Y-12448431D01*
X14478636Y-12448431D02*
X14381874Y-12545193D01*
X14381874Y-12545193D02*
X14236731Y-12593573D01*
X14236731Y-12593573D02*
X13994826Y-12593573D01*
X15349493Y-12061383D02*
X15494636Y-12109764D01*
X15494636Y-12109764D02*
X15543017Y-12158145D01*
X15543017Y-12158145D02*
X15591398Y-12254907D01*
X15591398Y-12254907D02*
X15591398Y-12400050D01*
X15591398Y-12400050D02*
X15543017Y-12496812D01*
X15543017Y-12496812D02*
X15494636Y-12545193D01*
X15494636Y-12545193D02*
X15397874Y-12593573D01*
X15397874Y-12593573D02*
X15010826Y-12593573D01*
X15010826Y-12593573D02*
X15010826Y-11577573D01*
X15010826Y-11577573D02*
X15349493Y-11577573D01*
X15349493Y-11577573D02*
X15446255Y-11625954D01*
X15446255Y-11625954D02*
X15494636Y-11674335D01*
X15494636Y-11674335D02*
X15543017Y-11771097D01*
X15543017Y-11771097D02*
X15543017Y-11867859D01*
X15543017Y-11867859D02*
X15494636Y-11964621D01*
X15494636Y-11964621D02*
X15446255Y-12013002D01*
X15446255Y-12013002D02*
X15349493Y-12061383D01*
X15349493Y-12061383D02*
X15010826Y-12061383D01*
X13656160Y-14132572D02*
X13607779Y-14180953D01*
X13607779Y-14180953D02*
X13462636Y-14229333D01*
X13462636Y-14229333D02*
X13365874Y-14229333D01*
X13365874Y-14229333D02*
X13220731Y-14180953D01*
X13220731Y-14180953D02*
X13123969Y-14084191D01*
X13123969Y-14084191D02*
X13075588Y-13987429D01*
X13075588Y-13987429D02*
X13027207Y-13793905D01*
X13027207Y-13793905D02*
X13027207Y-13648762D01*
X13027207Y-13648762D02*
X13075588Y-13455238D01*
X13075588Y-13455238D02*
X13123969Y-13358476D01*
X13123969Y-13358476D02*
X13220731Y-13261714D01*
X13220731Y-13261714D02*
X13365874Y-13213333D01*
X13365874Y-13213333D02*
X13462636Y-13213333D01*
X13462636Y-13213333D02*
X13607779Y-13261714D01*
X13607779Y-13261714D02*
X13656160Y-13310095D01*
X14043207Y-13939048D02*
X14527017Y-13939048D01*
X13946445Y-14229333D02*
X14285112Y-13213333D01*
X14285112Y-13213333D02*
X14623779Y-14229333D01*
X15301112Y-13697143D02*
X15446255Y-13745524D01*
X15446255Y-13745524D02*
X15494636Y-13793905D01*
X15494636Y-13793905D02*
X15543017Y-13890667D01*
X15543017Y-13890667D02*
X15543017Y-14035810D01*
X15543017Y-14035810D02*
X15494636Y-14132572D01*
X15494636Y-14132572D02*
X15446255Y-14180953D01*
X15446255Y-14180953D02*
X15349493Y-14229333D01*
X15349493Y-14229333D02*
X14962445Y-14229333D01*
X14962445Y-14229333D02*
X14962445Y-13213333D01*
X14962445Y-13213333D02*
X15301112Y-13213333D01*
X15301112Y-13213333D02*
X15397874Y-13261714D01*
X15397874Y-13261714D02*
X15446255Y-13310095D01*
X15446255Y-13310095D02*
X15494636Y-13406857D01*
X15494636Y-13406857D02*
X15494636Y-13503619D01*
X15494636Y-13503619D02*
X15446255Y-13600381D01*
X15446255Y-13600381D02*
X15397874Y-13648762D01*
X15397874Y-13648762D02*
X15301112Y-13697143D01*
X15301112Y-13697143D02*
X14962445Y-13697143D01*
X16462255Y-14229333D02*
X15978445Y-14229333D01*
X15978445Y-14229333D02*
X15978445Y-13213333D01*
X16800921Y-13697143D02*
X17139588Y-13697143D01*
X17284731Y-14229333D02*
X16800921Y-14229333D01*
X16800921Y-14229333D02*
X16800921Y-13213333D01*
X16800921Y-13213333D02*
X17284731Y-13213333D01*
X17671778Y-14180953D02*
X17816921Y-14229333D01*
X17816921Y-14229333D02*
X18058826Y-14229333D01*
X18058826Y-14229333D02*
X18155588Y-14180953D01*
X18155588Y-14180953D02*
X18203969Y-14132572D01*
X18203969Y-14132572D02*
X18252350Y-14035810D01*
X18252350Y-14035810D02*
X18252350Y-13939048D01*
X18252350Y-13939048D02*
X18203969Y-13842286D01*
X18203969Y-13842286D02*
X18155588Y-13793905D01*
X18155588Y-13793905D02*
X18058826Y-13745524D01*
X18058826Y-13745524D02*
X17865302Y-13697143D01*
X17865302Y-13697143D02*
X17768540Y-13648762D01*
X17768540Y-13648762D02*
X17720159Y-13600381D01*
X17720159Y-13600381D02*
X17671778Y-13503619D01*
X17671778Y-13503619D02*
X17671778Y-13406857D01*
X17671778Y-13406857D02*
X17720159Y-13310095D01*
X17720159Y-13310095D02*
X17768540Y-13261714D01*
X17768540Y-13261714D02*
X17865302Y-13213333D01*
X17865302Y-13213333D02*
X18107207Y-13213333D01*
X18107207Y-13213333D02*
X18252350Y-13261714D01*
X13269112Y-14849093D02*
X13462636Y-14849093D01*
X13462636Y-14849093D02*
X13559398Y-14897474D01*
X13559398Y-14897474D02*
X13656160Y-14994236D01*
X13656160Y-14994236D02*
X13704541Y-15187760D01*
X13704541Y-15187760D02*
X13704541Y-15526427D01*
X13704541Y-15526427D02*
X13656160Y-15719951D01*
X13656160Y-15719951D02*
X13559398Y-15816713D01*
X13559398Y-15816713D02*
X13462636Y-15865093D01*
X13462636Y-15865093D02*
X13269112Y-15865093D01*
X13269112Y-15865093D02*
X13172350Y-15816713D01*
X13172350Y-15816713D02*
X13075588Y-15719951D01*
X13075588Y-15719951D02*
X13027207Y-15526427D01*
X13027207Y-15526427D02*
X13027207Y-15187760D01*
X13027207Y-15187760D02*
X13075588Y-14994236D01*
X13075588Y-14994236D02*
X13172350Y-14897474D01*
X13172350Y-14897474D02*
X13269112Y-14849093D01*
X14139969Y-15865093D02*
X14139969Y-14849093D01*
X14139969Y-14849093D02*
X14720541Y-15865093D01*
X14720541Y-15865093D02*
X14720541Y-14849093D01*
X15688160Y-15865093D02*
X15204350Y-15865093D01*
X15204350Y-15865093D02*
X15204350Y-14849093D01*
X16220350Y-15381284D02*
X16220350Y-15865093D01*
X15881683Y-14849093D02*
X16220350Y-15381284D01*
X16220350Y-15381284D02*
X16559017Y-14849093D01*
D11*
X37632847Y-14851704D02*
X37632847Y-15577419D01*
X37632847Y-15577419D02*
X37584466Y-15722562D01*
X37584466Y-15722562D02*
X37487704Y-15819324D01*
X37487704Y-15819324D02*
X37342561Y-15867704D01*
X37342561Y-15867704D02*
X37245799Y-15867704D01*
X38600466Y-15867704D02*
X38116656Y-15867704D01*
X38116656Y-15867704D02*
X38116656Y-14851704D01*
X39519704Y-15770943D02*
X39471323Y-15819324D01*
X39471323Y-15819324D02*
X39326180Y-15867704D01*
X39326180Y-15867704D02*
X39229418Y-15867704D01*
X39229418Y-15867704D02*
X39084275Y-15819324D01*
X39084275Y-15819324D02*
X38987513Y-15722562D01*
X38987513Y-15722562D02*
X38939132Y-15625800D01*
X38939132Y-15625800D02*
X38890751Y-15432276D01*
X38890751Y-15432276D02*
X38890751Y-15287133D01*
X38890751Y-15287133D02*
X38939132Y-15093609D01*
X38939132Y-15093609D02*
X38987513Y-14996847D01*
X38987513Y-14996847D02*
X39084275Y-14900085D01*
X39084275Y-14900085D02*
X39229418Y-14851704D01*
X39229418Y-14851704D02*
X39326180Y-14851704D01*
X39326180Y-14851704D02*
X39471323Y-14900085D01*
X39471323Y-14900085D02*
X39519704Y-14948466D01*
X40245418Y-14851704D02*
X40245418Y-15577419D01*
X40245418Y-15577419D02*
X40197037Y-15722562D01*
X40197037Y-15722562D02*
X40100275Y-15819324D01*
X40100275Y-15819324D02*
X39955132Y-15867704D01*
X39955132Y-15867704D02*
X39858370Y-15867704D01*
X41213037Y-15867704D02*
X40729227Y-15867704D01*
X40729227Y-15867704D02*
X40729227Y-14851704D01*
X42132275Y-15770943D02*
X42083894Y-15819324D01*
X42083894Y-15819324D02*
X41938751Y-15867704D01*
X41938751Y-15867704D02*
X41841989Y-15867704D01*
X41841989Y-15867704D02*
X41696846Y-15819324D01*
X41696846Y-15819324D02*
X41600084Y-15722562D01*
X41600084Y-15722562D02*
X41551703Y-15625800D01*
X41551703Y-15625800D02*
X41503322Y-15432276D01*
X41503322Y-15432276D02*
X41503322Y-15287133D01*
X41503322Y-15287133D02*
X41551703Y-15093609D01*
X41551703Y-15093609D02*
X41600084Y-14996847D01*
X41600084Y-14996847D02*
X41696846Y-14900085D01*
X41696846Y-14900085D02*
X41841989Y-14851704D01*
X41841989Y-14851704D02*
X41938751Y-14851704D01*
X41938751Y-14851704D02*
X42083894Y-14900085D01*
X42083894Y-14900085D02*
X42132275Y-14948466D01*
X42857989Y-14851704D02*
X42857989Y-15577419D01*
X42857989Y-15577419D02*
X42809608Y-15722562D01*
X42809608Y-15722562D02*
X42712846Y-15819324D01*
X42712846Y-15819324D02*
X42567703Y-15867704D01*
X42567703Y-15867704D02*
X42470941Y-15867704D01*
X43825608Y-15867704D02*
X43341798Y-15867704D01*
X43341798Y-15867704D02*
X43341798Y-14851704D01*
X44744846Y-15770943D02*
X44696465Y-15819324D01*
X44696465Y-15819324D02*
X44551322Y-15867704D01*
X44551322Y-15867704D02*
X44454560Y-15867704D01*
X44454560Y-15867704D02*
X44309417Y-15819324D01*
X44309417Y-15819324D02*
X44212655Y-15722562D01*
X44212655Y-15722562D02*
X44164274Y-15625800D01*
X44164274Y-15625800D02*
X44115893Y-15432276D01*
X44115893Y-15432276D02*
X44115893Y-15287133D01*
X44115893Y-15287133D02*
X44164274Y-15093609D01*
X44164274Y-15093609D02*
X44212655Y-14996847D01*
X44212655Y-14996847D02*
X44309417Y-14900085D01*
X44309417Y-14900085D02*
X44454560Y-14851704D01*
X44454560Y-14851704D02*
X44551322Y-14851704D01*
X44551322Y-14851704D02*
X44696465Y-14900085D01*
X44696465Y-14900085D02*
X44744846Y-14948466D01*
X45470560Y-14851704D02*
X45470560Y-15577419D01*
X45470560Y-15577419D02*
X45422179Y-15722562D01*
X45422179Y-15722562D02*
X45325417Y-15819324D01*
X45325417Y-15819324D02*
X45180274Y-15867704D01*
X45180274Y-15867704D02*
X45083512Y-15867704D01*
X46438179Y-15867704D02*
X45954369Y-15867704D01*
X45954369Y-15867704D02*
X45954369Y-14851704D01*
X47357417Y-15770943D02*
X47309036Y-15819324D01*
X47309036Y-15819324D02*
X47163893Y-15867704D01*
X47163893Y-15867704D02*
X47067131Y-15867704D01*
X47067131Y-15867704D02*
X46921988Y-15819324D01*
X46921988Y-15819324D02*
X46825226Y-15722562D01*
X46825226Y-15722562D02*
X46776845Y-15625800D01*
X46776845Y-15625800D02*
X46728464Y-15432276D01*
X46728464Y-15432276D02*
X46728464Y-15287133D01*
X46728464Y-15287133D02*
X46776845Y-15093609D01*
X46776845Y-15093609D02*
X46825226Y-14996847D01*
X46825226Y-14996847D02*
X46921988Y-14900085D01*
X46921988Y-14900085D02*
X47067131Y-14851704D01*
X47067131Y-14851704D02*
X47163893Y-14851704D01*
X47163893Y-14851704D02*
X47309036Y-14900085D01*
X47309036Y-14900085D02*
X47357417Y-14948466D01*
D10*
X78369541Y-13965093D02*
X78496541Y-12949093D01*
X78496541Y-12949093D02*
X78744493Y-13674808D01*
X78744493Y-13674808D02*
X79173874Y-12949093D01*
X79173874Y-12949093D02*
X79046874Y-13965093D01*
X79675827Y-13965093D02*
X79585112Y-13916713D01*
X79585112Y-13916713D02*
X79542779Y-13868332D01*
X79542779Y-13868332D02*
X79506493Y-13771570D01*
X79506493Y-13771570D02*
X79542779Y-13481284D01*
X79542779Y-13481284D02*
X79603255Y-13384522D01*
X79603255Y-13384522D02*
X79657684Y-13336141D01*
X79657684Y-13336141D02*
X79760493Y-13287760D01*
X79760493Y-13287760D02*
X79905636Y-13287760D01*
X79905636Y-13287760D02*
X79996350Y-13336141D01*
X79996350Y-13336141D02*
X80038684Y-13384522D01*
X80038684Y-13384522D02*
X80074969Y-13481284D01*
X80074969Y-13481284D02*
X80038684Y-13771570D01*
X80038684Y-13771570D02*
X79978207Y-13868332D01*
X79978207Y-13868332D02*
X79923779Y-13916713D01*
X79923779Y-13916713D02*
X79820969Y-13965093D01*
X79820969Y-13965093D02*
X79675827Y-13965093D01*
X80595065Y-13965093D02*
X80504350Y-13916713D01*
X80504350Y-13916713D02*
X80462017Y-13868332D01*
X80462017Y-13868332D02*
X80425731Y-13771570D01*
X80425731Y-13771570D02*
X80462017Y-13481284D01*
X80462017Y-13481284D02*
X80522493Y-13384522D01*
X80522493Y-13384522D02*
X80576922Y-13336141D01*
X80576922Y-13336141D02*
X80679731Y-13287760D01*
X80679731Y-13287760D02*
X80824874Y-13287760D01*
X80824874Y-13287760D02*
X80915588Y-13336141D01*
X80915588Y-13336141D02*
X80957922Y-13384522D01*
X80957922Y-13384522D02*
X80994207Y-13481284D01*
X80994207Y-13481284D02*
X80957922Y-13771570D01*
X80957922Y-13771570D02*
X80897445Y-13868332D01*
X80897445Y-13868332D02*
X80843017Y-13916713D01*
X80843017Y-13916713D02*
X80740207Y-13965093D01*
X80740207Y-13965093D02*
X80595065Y-13965093D01*
X81453826Y-13287760D02*
X81369160Y-13965093D01*
X81441731Y-13384522D02*
X81496160Y-13336141D01*
X81496160Y-13336141D02*
X81598969Y-13287760D01*
X81598969Y-13287760D02*
X81744112Y-13287760D01*
X81744112Y-13287760D02*
X81834826Y-13336141D01*
X81834826Y-13336141D02*
X81871112Y-13432903D01*
X81871112Y-13432903D02*
X81804588Y-13965093D01*
X82288398Y-13965093D02*
X82415398Y-12949093D01*
X82354921Y-13432903D02*
X82935493Y-13432903D01*
X82868969Y-13965093D02*
X82995969Y-12949093D01*
X83872874Y-13287760D02*
X83788207Y-13965093D01*
X83437445Y-13287760D02*
X83370922Y-13819951D01*
X83370922Y-13819951D02*
X83407207Y-13916713D01*
X83407207Y-13916713D02*
X83497922Y-13965093D01*
X83497922Y-13965093D02*
X83643064Y-13965093D01*
X83643064Y-13965093D02*
X83745874Y-13916713D01*
X83745874Y-13916713D02*
X83800302Y-13868332D01*
X84272017Y-13965093D02*
X84399017Y-12949093D01*
X84350636Y-13336141D02*
X84453445Y-13287760D01*
X84453445Y-13287760D02*
X84646969Y-13287760D01*
X84646969Y-13287760D02*
X84737683Y-13336141D01*
X84737683Y-13336141D02*
X84780017Y-13384522D01*
X84780017Y-13384522D02*
X84816302Y-13481284D01*
X84816302Y-13481284D02*
X84780017Y-13771570D01*
X84780017Y-13771570D02*
X84719540Y-13868332D01*
X84719540Y-13868332D02*
X84665112Y-13916713D01*
X84665112Y-13916713D02*
X84562302Y-13965093D01*
X84562302Y-13965093D02*
X84368779Y-13965093D01*
X84368779Y-13965093D02*
X84278064Y-13916713D01*
D11*
X78917085Y-15567704D02*
X78638895Y-15083895D01*
X78336514Y-15567704D02*
X78463514Y-14551704D01*
X78463514Y-14551704D02*
X78850561Y-14551704D01*
X78850561Y-14551704D02*
X78941276Y-14600085D01*
X78941276Y-14600085D02*
X78983609Y-14648466D01*
X78983609Y-14648466D02*
X79019895Y-14745228D01*
X79019895Y-14745228D02*
X79001752Y-14890371D01*
X79001752Y-14890371D02*
X78941276Y-14987133D01*
X78941276Y-14987133D02*
X78886847Y-15035514D01*
X78886847Y-15035514D02*
X78784037Y-15083895D01*
X78784037Y-15083895D02*
X78396990Y-15083895D01*
X79419037Y-15035514D02*
X79757704Y-15035514D01*
X79836323Y-15567704D02*
X79352514Y-15567704D01*
X79352514Y-15567704D02*
X79479514Y-14551704D01*
X79479514Y-14551704D02*
X79963323Y-14551704D01*
X80253609Y-14551704D02*
X80465275Y-15567704D01*
X80465275Y-15567704D02*
X80930942Y-14551704D01*
X82448894Y-15567704D02*
X81868323Y-15567704D01*
X82158608Y-15567704D02*
X82285608Y-14551704D01*
X82285608Y-14551704D02*
X82170704Y-14696847D01*
X82170704Y-14696847D02*
X82061847Y-14793609D01*
X82061847Y-14793609D02*
X81959037Y-14841990D01*
X82896418Y-15470943D02*
X82938751Y-15519324D01*
X82938751Y-15519324D02*
X82884323Y-15567704D01*
X82884323Y-15567704D02*
X82841989Y-15519324D01*
X82841989Y-15519324D02*
X82896418Y-15470943D01*
X82896418Y-15470943D02*
X82884323Y-15567704D01*
X83688656Y-14551704D02*
X83785418Y-14551704D01*
X83785418Y-14551704D02*
X83876133Y-14600085D01*
X83876133Y-14600085D02*
X83918466Y-14648466D01*
X83918466Y-14648466D02*
X83954752Y-14745228D01*
X83954752Y-14745228D02*
X83978942Y-14938752D01*
X83978942Y-14938752D02*
X83948704Y-15180657D01*
X83948704Y-15180657D02*
X83876133Y-15374181D01*
X83876133Y-15374181D02*
X83815656Y-15470943D01*
X83815656Y-15470943D02*
X83761228Y-15519324D01*
X83761228Y-15519324D02*
X83658418Y-15567704D01*
X83658418Y-15567704D02*
X83561656Y-15567704D01*
X83561656Y-15567704D02*
X83470942Y-15519324D01*
X83470942Y-15519324D02*
X83428609Y-15470943D01*
X83428609Y-15470943D02*
X83392323Y-15374181D01*
X83392323Y-15374181D02*
X83368133Y-15180657D01*
X83368133Y-15180657D02*
X83398371Y-14938752D01*
X83398371Y-14938752D02*
X83470942Y-14745228D01*
X83470942Y-14745228D02*
X83531418Y-14648466D01*
X83531418Y-14648466D02*
X83585847Y-14600085D01*
X83585847Y-14600085D02*
X83688656Y-14551704D01*
X79579874Y-9146666D02*
X79579874Y-9485333D01*
X80112064Y-9485333D02*
X79096064Y-9485333D01*
X79096064Y-9485333D02*
X79096064Y-9001523D01*
X79579874Y-8275809D02*
X79628255Y-8130666D01*
X79628255Y-8130666D02*
X79676636Y-8082285D01*
X79676636Y-8082285D02*
X79773398Y-8033904D01*
X79773398Y-8033904D02*
X79918541Y-8033904D01*
X79918541Y-8033904D02*
X80015303Y-8082285D01*
X80015303Y-8082285D02*
X80063684Y-8130666D01*
X80063684Y-8130666D02*
X80112064Y-8227428D01*
X80112064Y-8227428D02*
X80112064Y-8614476D01*
X80112064Y-8614476D02*
X79096064Y-8614476D01*
X79096064Y-8614476D02*
X79096064Y-8275809D01*
X79096064Y-8275809D02*
X79144445Y-8179047D01*
X79144445Y-8179047D02*
X79192826Y-8130666D01*
X79192826Y-8130666D02*
X79289588Y-8082285D01*
X79289588Y-8082285D02*
X79386350Y-8082285D01*
X79386350Y-8082285D02*
X79483112Y-8130666D01*
X79483112Y-8130666D02*
X79531493Y-8179047D01*
X79531493Y-8179047D02*
X79579874Y-8275809D01*
X79579874Y-8275809D02*
X79579874Y-8614476D01*
X79434731Y-7163047D02*
X80112064Y-7163047D01*
X79047684Y-7404952D02*
X79773398Y-7646857D01*
X79773398Y-7646857D02*
X79773398Y-7017904D01*
X43430667Y-8265303D02*
X43382286Y-8313684D01*
X43382286Y-8313684D02*
X43237143Y-8362064D01*
X43237143Y-8362064D02*
X43140381Y-8362064D01*
X43140381Y-8362064D02*
X42995238Y-8313684D01*
X42995238Y-8313684D02*
X42898476Y-8216922D01*
X42898476Y-8216922D02*
X42850095Y-8120160D01*
X42850095Y-8120160D02*
X42801714Y-7926636D01*
X42801714Y-7926636D02*
X42801714Y-7781493D01*
X42801714Y-7781493D02*
X42850095Y-7587969D01*
X42850095Y-7587969D02*
X42898476Y-7491207D01*
X42898476Y-7491207D02*
X42995238Y-7394445D01*
X42995238Y-7394445D02*
X43140381Y-7346064D01*
X43140381Y-7346064D02*
X43237143Y-7346064D01*
X43237143Y-7346064D02*
X43382286Y-7394445D01*
X43382286Y-7394445D02*
X43430667Y-7442826D01*
X43769333Y-7346064D02*
X44398286Y-7346064D01*
X44398286Y-7346064D02*
X44059619Y-7733112D01*
X44059619Y-7733112D02*
X44204762Y-7733112D01*
X44204762Y-7733112D02*
X44301524Y-7781493D01*
X44301524Y-7781493D02*
X44349905Y-7829874D01*
X44349905Y-7829874D02*
X44398286Y-7926636D01*
X44398286Y-7926636D02*
X44398286Y-8168541D01*
X44398286Y-8168541D02*
X44349905Y-8265303D01*
X44349905Y-8265303D02*
X44301524Y-8313684D01*
X44301524Y-8313684D02*
X44204762Y-8362064D01*
X44204762Y-8362064D02*
X43914476Y-8362064D01*
X43914476Y-8362064D02*
X43817714Y-8313684D01*
X43817714Y-8313684D02*
X43769333Y-8265303D01*
X30530667Y-10365303D02*
X30482286Y-10413684D01*
X30482286Y-10413684D02*
X30337143Y-10462064D01*
X30337143Y-10462064D02*
X30240381Y-10462064D01*
X30240381Y-10462064D02*
X30095238Y-10413684D01*
X30095238Y-10413684D02*
X29998476Y-10316922D01*
X29998476Y-10316922D02*
X29950095Y-10220160D01*
X29950095Y-10220160D02*
X29901714Y-10026636D01*
X29901714Y-10026636D02*
X29901714Y-9881493D01*
X29901714Y-9881493D02*
X29950095Y-9687969D01*
X29950095Y-9687969D02*
X29998476Y-9591207D01*
X29998476Y-9591207D02*
X30095238Y-9494445D01*
X30095238Y-9494445D02*
X30240381Y-9446064D01*
X30240381Y-9446064D02*
X30337143Y-9446064D01*
X30337143Y-9446064D02*
X30482286Y-9494445D01*
X30482286Y-9494445D02*
X30530667Y-9542826D01*
X31014476Y-10462064D02*
X31208000Y-10462064D01*
X31208000Y-10462064D02*
X31304762Y-10413684D01*
X31304762Y-10413684D02*
X31353143Y-10365303D01*
X31353143Y-10365303D02*
X31449905Y-10220160D01*
X31449905Y-10220160D02*
X31498286Y-10026636D01*
X31498286Y-10026636D02*
X31498286Y-9639588D01*
X31498286Y-9639588D02*
X31449905Y-9542826D01*
X31449905Y-9542826D02*
X31401524Y-9494445D01*
X31401524Y-9494445D02*
X31304762Y-9446064D01*
X31304762Y-9446064D02*
X31111238Y-9446064D01*
X31111238Y-9446064D02*
X31014476Y-9494445D01*
X31014476Y-9494445D02*
X30966095Y-9542826D01*
X30966095Y-9542826D02*
X30917714Y-9639588D01*
X30917714Y-9639588D02*
X30917714Y-9881493D01*
X30917714Y-9881493D02*
X30966095Y-9978255D01*
X30966095Y-9978255D02*
X31014476Y-10026636D01*
X31014476Y-10026636D02*
X31111238Y-10075017D01*
X31111238Y-10075017D02*
X31304762Y-10075017D01*
X31304762Y-10075017D02*
X31401524Y-10026636D01*
X31401524Y-10026636D02*
X31449905Y-9978255D01*
X31449905Y-9978255D02*
X31498286Y-9881493D01*
X55534095Y-546064D02*
X55534095Y-1368541D01*
X55534095Y-1368541D02*
X55582476Y-1465303D01*
X55582476Y-1465303D02*
X55630857Y-1513684D01*
X55630857Y-1513684D02*
X55727619Y-1562064D01*
X55727619Y-1562064D02*
X55921143Y-1562064D01*
X55921143Y-1562064D02*
X56017905Y-1513684D01*
X56017905Y-1513684D02*
X56066286Y-1465303D01*
X56066286Y-1465303D02*
X56114667Y-1368541D01*
X56114667Y-1368541D02*
X56114667Y-546064D01*
X56550095Y-1513684D02*
X56695238Y-1562064D01*
X56695238Y-1562064D02*
X56937143Y-1562064D01*
X56937143Y-1562064D02*
X57033905Y-1513684D01*
X57033905Y-1513684D02*
X57082286Y-1465303D01*
X57082286Y-1465303D02*
X57130667Y-1368541D01*
X57130667Y-1368541D02*
X57130667Y-1271779D01*
X57130667Y-1271779D02*
X57082286Y-1175017D01*
X57082286Y-1175017D02*
X57033905Y-1126636D01*
X57033905Y-1126636D02*
X56937143Y-1078255D01*
X56937143Y-1078255D02*
X56743619Y-1029874D01*
X56743619Y-1029874D02*
X56646857Y-981493D01*
X56646857Y-981493D02*
X56598476Y-933112D01*
X56598476Y-933112D02*
X56550095Y-836350D01*
X56550095Y-836350D02*
X56550095Y-739588D01*
X56550095Y-739588D02*
X56598476Y-642826D01*
X56598476Y-642826D02*
X56646857Y-594445D01*
X56646857Y-594445D02*
X56743619Y-546064D01*
X56743619Y-546064D02*
X56985524Y-546064D01*
X56985524Y-546064D02*
X57130667Y-594445D01*
X57904762Y-1029874D02*
X58049905Y-1078255D01*
X58049905Y-1078255D02*
X58098286Y-1126636D01*
X58098286Y-1126636D02*
X58146667Y-1223398D01*
X58146667Y-1223398D02*
X58146667Y-1368541D01*
X58146667Y-1368541D02*
X58098286Y-1465303D01*
X58098286Y-1465303D02*
X58049905Y-1513684D01*
X58049905Y-1513684D02*
X57953143Y-1562064D01*
X57953143Y-1562064D02*
X57566095Y-1562064D01*
X57566095Y-1562064D02*
X57566095Y-546064D01*
X57566095Y-546064D02*
X57904762Y-546064D01*
X57904762Y-546064D02*
X58001524Y-594445D01*
X58001524Y-594445D02*
X58049905Y-642826D01*
X58049905Y-642826D02*
X58098286Y-739588D01*
X58098286Y-739588D02*
X58098286Y-836350D01*
X58098286Y-836350D02*
X58049905Y-933112D01*
X58049905Y-933112D02*
X58001524Y-981493D01*
X58001524Y-981493D02*
X57904762Y-1029874D01*
X57904762Y-1029874D02*
X57566095Y-1029874D01*
X58485333Y-546064D02*
X59114286Y-546064D01*
X59114286Y-546064D02*
X58775619Y-933112D01*
X58775619Y-933112D02*
X58920762Y-933112D01*
X58920762Y-933112D02*
X59017524Y-981493D01*
X59017524Y-981493D02*
X59065905Y-1029874D01*
X59065905Y-1029874D02*
X59114286Y-1126636D01*
X59114286Y-1126636D02*
X59114286Y-1368541D01*
X59114286Y-1368541D02*
X59065905Y-1465303D01*
X59065905Y-1465303D02*
X59017524Y-1513684D01*
X59017524Y-1513684D02*
X58920762Y-1562064D01*
X58920762Y-1562064D02*
X58630476Y-1562064D01*
X58630476Y-1562064D02*
X58533714Y-1513684D01*
X58533714Y-1513684D02*
X58485333Y-1465303D01*
X37430667Y-1565303D02*
X37382286Y-1613684D01*
X37382286Y-1613684D02*
X37237143Y-1662064D01*
X37237143Y-1662064D02*
X37140381Y-1662064D01*
X37140381Y-1662064D02*
X36995238Y-1613684D01*
X36995238Y-1613684D02*
X36898476Y-1516922D01*
X36898476Y-1516922D02*
X36850095Y-1420160D01*
X36850095Y-1420160D02*
X36801714Y-1226636D01*
X36801714Y-1226636D02*
X36801714Y-1081493D01*
X36801714Y-1081493D02*
X36850095Y-887969D01*
X36850095Y-887969D02*
X36898476Y-791207D01*
X36898476Y-791207D02*
X36995238Y-694445D01*
X36995238Y-694445D02*
X37140381Y-646064D01*
X37140381Y-646064D02*
X37237143Y-646064D01*
X37237143Y-646064D02*
X37382286Y-694445D01*
X37382286Y-694445D02*
X37430667Y-742826D01*
X37817714Y-742826D02*
X37866095Y-694445D01*
X37866095Y-694445D02*
X37962857Y-646064D01*
X37962857Y-646064D02*
X38204762Y-646064D01*
X38204762Y-646064D02*
X38301524Y-694445D01*
X38301524Y-694445D02*
X38349905Y-742826D01*
X38349905Y-742826D02*
X38398286Y-839588D01*
X38398286Y-839588D02*
X38398286Y-936350D01*
X38398286Y-936350D02*
X38349905Y-1081493D01*
X38349905Y-1081493D02*
X37769333Y-1662064D01*
X37769333Y-1662064D02*
X38398286Y-1662064D01*
X100879874Y-9246666D02*
X100879874Y-9585333D01*
X101412064Y-9585333D02*
X100396064Y-9585333D01*
X100396064Y-9585333D02*
X100396064Y-9101523D01*
X100879874Y-8375809D02*
X100928255Y-8230666D01*
X100928255Y-8230666D02*
X100976636Y-8182285D01*
X100976636Y-8182285D02*
X101073398Y-8133904D01*
X101073398Y-8133904D02*
X101218541Y-8133904D01*
X101218541Y-8133904D02*
X101315303Y-8182285D01*
X101315303Y-8182285D02*
X101363684Y-8230666D01*
X101363684Y-8230666D02*
X101412064Y-8327428D01*
X101412064Y-8327428D02*
X101412064Y-8714476D01*
X101412064Y-8714476D02*
X100396064Y-8714476D01*
X100396064Y-8714476D02*
X100396064Y-8375809D01*
X100396064Y-8375809D02*
X100444445Y-8279047D01*
X100444445Y-8279047D02*
X100492826Y-8230666D01*
X100492826Y-8230666D02*
X100589588Y-8182285D01*
X100589588Y-8182285D02*
X100686350Y-8182285D01*
X100686350Y-8182285D02*
X100783112Y-8230666D01*
X100783112Y-8230666D02*
X100831493Y-8279047D01*
X100831493Y-8279047D02*
X100879874Y-8375809D01*
X100879874Y-8375809D02*
X100879874Y-8714476D01*
X100492826Y-7746857D02*
X100444445Y-7698476D01*
X100444445Y-7698476D02*
X100396064Y-7601714D01*
X100396064Y-7601714D02*
X100396064Y-7359809D01*
X100396064Y-7359809D02*
X100444445Y-7263047D01*
X100444445Y-7263047D02*
X100492826Y-7214666D01*
X100492826Y-7214666D02*
X100589588Y-7166285D01*
X100589588Y-7166285D02*
X100686350Y-7166285D01*
X100686350Y-7166285D02*
X100831493Y-7214666D01*
X100831493Y-7214666D02*
X101412064Y-7795238D01*
X101412064Y-7795238D02*
X101412064Y-7166285D01*
X20565303Y-8869332D02*
X20613684Y-8917713D01*
X20613684Y-8917713D02*
X20662064Y-9062856D01*
X20662064Y-9062856D02*
X20662064Y-9159618D01*
X20662064Y-9159618D02*
X20613684Y-9304761D01*
X20613684Y-9304761D02*
X20516922Y-9401523D01*
X20516922Y-9401523D02*
X20420160Y-9449904D01*
X20420160Y-9449904D02*
X20226636Y-9498285D01*
X20226636Y-9498285D02*
X20081493Y-9498285D01*
X20081493Y-9498285D02*
X19887969Y-9449904D01*
X19887969Y-9449904D02*
X19791207Y-9401523D01*
X19791207Y-9401523D02*
X19694445Y-9304761D01*
X19694445Y-9304761D02*
X19646064Y-9159618D01*
X19646064Y-9159618D02*
X19646064Y-9062856D01*
X19646064Y-9062856D02*
X19694445Y-8917713D01*
X19694445Y-8917713D02*
X19742826Y-8869332D01*
X19984731Y-7998475D02*
X20662064Y-7998475D01*
X19597684Y-8240380D02*
X20323398Y-8482285D01*
X20323398Y-8482285D02*
X20323398Y-7853332D01*
X54930667Y-10062064D02*
X54592000Y-9578255D01*
X54350095Y-10062064D02*
X54350095Y-9046064D01*
X54350095Y-9046064D02*
X54737143Y-9046064D01*
X54737143Y-9046064D02*
X54833905Y-9094445D01*
X54833905Y-9094445D02*
X54882286Y-9142826D01*
X54882286Y-9142826D02*
X54930667Y-9239588D01*
X54930667Y-9239588D02*
X54930667Y-9384731D01*
X54930667Y-9384731D02*
X54882286Y-9481493D01*
X54882286Y-9481493D02*
X54833905Y-9529874D01*
X54833905Y-9529874D02*
X54737143Y-9578255D01*
X54737143Y-9578255D02*
X54350095Y-9578255D01*
X55269333Y-9046064D02*
X55898286Y-9046064D01*
X55898286Y-9046064D02*
X55559619Y-9433112D01*
X55559619Y-9433112D02*
X55704762Y-9433112D01*
X55704762Y-9433112D02*
X55801524Y-9481493D01*
X55801524Y-9481493D02*
X55849905Y-9529874D01*
X55849905Y-9529874D02*
X55898286Y-9626636D01*
X55898286Y-9626636D02*
X55898286Y-9868541D01*
X55898286Y-9868541D02*
X55849905Y-9965303D01*
X55849905Y-9965303D02*
X55801524Y-10013684D01*
X55801524Y-10013684D02*
X55704762Y-10062064D01*
X55704762Y-10062064D02*
X55414476Y-10062064D01*
X55414476Y-10062064D02*
X55317714Y-10013684D01*
X55317714Y-10013684D02*
X55269333Y-9965303D01*
X46330667Y-10862064D02*
X45992000Y-10378255D01*
X45750095Y-10862064D02*
X45750095Y-9846064D01*
X45750095Y-9846064D02*
X46137143Y-9846064D01*
X46137143Y-9846064D02*
X46233905Y-9894445D01*
X46233905Y-9894445D02*
X46282286Y-9942826D01*
X46282286Y-9942826D02*
X46330667Y-10039588D01*
X46330667Y-10039588D02*
X46330667Y-10184731D01*
X46330667Y-10184731D02*
X46282286Y-10281493D01*
X46282286Y-10281493D02*
X46233905Y-10329874D01*
X46233905Y-10329874D02*
X46137143Y-10378255D01*
X46137143Y-10378255D02*
X45750095Y-10378255D01*
X47201524Y-10184731D02*
X47201524Y-10862064D01*
X46959619Y-9797684D02*
X46717714Y-10523398D01*
X46717714Y-10523398D02*
X47346667Y-10523398D01*
X25525904Y-1746064D02*
X25525904Y-2568541D01*
X25525904Y-2568541D02*
X25574285Y-2665303D01*
X25574285Y-2665303D02*
X25622666Y-2713684D01*
X25622666Y-2713684D02*
X25719428Y-2762064D01*
X25719428Y-2762064D02*
X25912952Y-2762064D01*
X25912952Y-2762064D02*
X26009714Y-2713684D01*
X26009714Y-2713684D02*
X26058095Y-2665303D01*
X26058095Y-2665303D02*
X26106476Y-2568541D01*
X26106476Y-2568541D02*
X26106476Y-1746064D01*
X27025714Y-2084731D02*
X27025714Y-2762064D01*
X26783809Y-1697684D02*
X26541904Y-2423398D01*
X26541904Y-2423398D02*
X27170857Y-2423398D01*
X32531190Y-10555755D02*
X32531190Y-11039564D01*
X32192523Y-10023564D02*
X32531190Y-10555755D01*
X32531190Y-10555755D02*
X32869857Y-10023564D01*
X33740714Y-11039564D02*
X33160142Y-11039564D01*
X33450428Y-11039564D02*
X33450428Y-10023564D01*
X33450428Y-10023564D02*
X33353666Y-10168707D01*
X33353666Y-10168707D02*
X33256904Y-10265469D01*
X33256904Y-10265469D02*
X33160142Y-10313850D01*
X21930667Y-11065303D02*
X21882286Y-11113684D01*
X21882286Y-11113684D02*
X21737143Y-11162064D01*
X21737143Y-11162064D02*
X21640381Y-11162064D01*
X21640381Y-11162064D02*
X21495238Y-11113684D01*
X21495238Y-11113684D02*
X21398476Y-11016922D01*
X21398476Y-11016922D02*
X21350095Y-10920160D01*
X21350095Y-10920160D02*
X21301714Y-10726636D01*
X21301714Y-10726636D02*
X21301714Y-10581493D01*
X21301714Y-10581493D02*
X21350095Y-10387969D01*
X21350095Y-10387969D02*
X21398476Y-10291207D01*
X21398476Y-10291207D02*
X21495238Y-10194445D01*
X21495238Y-10194445D02*
X21640381Y-10146064D01*
X21640381Y-10146064D02*
X21737143Y-10146064D01*
X21737143Y-10146064D02*
X21882286Y-10194445D01*
X21882286Y-10194445D02*
X21930667Y-10242826D01*
X22849905Y-10146064D02*
X22366095Y-10146064D01*
X22366095Y-10146064D02*
X22317714Y-10629874D01*
X22317714Y-10629874D02*
X22366095Y-10581493D01*
X22366095Y-10581493D02*
X22462857Y-10533112D01*
X22462857Y-10533112D02*
X22704762Y-10533112D01*
X22704762Y-10533112D02*
X22801524Y-10581493D01*
X22801524Y-10581493D02*
X22849905Y-10629874D01*
X22849905Y-10629874D02*
X22898286Y-10726636D01*
X22898286Y-10726636D02*
X22898286Y-10968541D01*
X22898286Y-10968541D02*
X22849905Y-11065303D01*
X22849905Y-11065303D02*
X22801524Y-11113684D01*
X22801524Y-11113684D02*
X22704762Y-11162064D01*
X22704762Y-11162064D02*
X22462857Y-11162064D01*
X22462857Y-11162064D02*
X22366095Y-11113684D01*
X22366095Y-11113684D02*
X22317714Y-11065303D01*
X15196466Y-4456991D02*
X14478046Y-3738571D01*
X14478046Y-3738571D02*
X14649098Y-3567518D01*
X14649098Y-3567518D02*
X14785940Y-3499097D01*
X14785940Y-3499097D02*
X14922782Y-3499097D01*
X14922782Y-3499097D02*
X15025414Y-3533308D01*
X15025414Y-3533308D02*
X15196466Y-3635939D01*
X15196466Y-3635939D02*
X15299098Y-3738571D01*
X15299098Y-3738571D02*
X15401729Y-3909623D01*
X15401729Y-3909623D02*
X15435940Y-4012255D01*
X15435940Y-4012255D02*
X15435940Y-4149097D01*
X15435940Y-4149097D02*
X15367519Y-4285939D01*
X15367519Y-4285939D02*
X15196466Y-4456991D01*
X16291202Y-3362255D02*
X15880676Y-3772781D01*
X16085939Y-3567518D02*
X15367519Y-2849098D01*
X15367519Y-2849098D02*
X15401729Y-3020150D01*
X15401729Y-3020150D02*
X15401729Y-3156992D01*
X15401729Y-3156992D02*
X15367519Y-3259624D01*
X49267904Y-12146064D02*
X49267904Y-12968541D01*
X49267904Y-12968541D02*
X49316285Y-13065303D01*
X49316285Y-13065303D02*
X49364666Y-13113684D01*
X49364666Y-13113684D02*
X49461428Y-13162064D01*
X49461428Y-13162064D02*
X49654952Y-13162064D01*
X49654952Y-13162064D02*
X49751714Y-13113684D01*
X49751714Y-13113684D02*
X49800095Y-13065303D01*
X49800095Y-13065303D02*
X49848476Y-12968541D01*
X49848476Y-12968541D02*
X49848476Y-12146064D01*
X50235523Y-12146064D02*
X50864476Y-12146064D01*
X50864476Y-12146064D02*
X50525809Y-12533112D01*
X50525809Y-12533112D02*
X50670952Y-12533112D01*
X50670952Y-12533112D02*
X50767714Y-12581493D01*
X50767714Y-12581493D02*
X50816095Y-12629874D01*
X50816095Y-12629874D02*
X50864476Y-12726636D01*
X50864476Y-12726636D02*
X50864476Y-12968541D01*
X50864476Y-12968541D02*
X50816095Y-13065303D01*
X50816095Y-13065303D02*
X50767714Y-13113684D01*
X50767714Y-13113684D02*
X50670952Y-13162064D01*
X50670952Y-13162064D02*
X50380666Y-13162064D01*
X50380666Y-13162064D02*
X50283904Y-13113684D01*
X50283904Y-13113684D02*
X50235523Y-13065303D01*
X11530667Y-10762064D02*
X11192000Y-10278255D01*
X10950095Y-10762064D02*
X10950095Y-9746064D01*
X10950095Y-9746064D02*
X11337143Y-9746064D01*
X11337143Y-9746064D02*
X11433905Y-9794445D01*
X11433905Y-9794445D02*
X11482286Y-9842826D01*
X11482286Y-9842826D02*
X11530667Y-9939588D01*
X11530667Y-9939588D02*
X11530667Y-10084731D01*
X11530667Y-10084731D02*
X11482286Y-10181493D01*
X11482286Y-10181493D02*
X11433905Y-10229874D01*
X11433905Y-10229874D02*
X11337143Y-10278255D01*
X11337143Y-10278255D02*
X10950095Y-10278255D01*
X12498286Y-10762064D02*
X11917714Y-10762064D01*
X12208000Y-10762064D02*
X12208000Y-9746064D01*
X12208000Y-9746064D02*
X12111238Y-9891207D01*
X12111238Y-9891207D02*
X12014476Y-9987969D01*
X12014476Y-9987969D02*
X11917714Y-10036350D01*
X22565303Y-4969332D02*
X22613684Y-5017713D01*
X22613684Y-5017713D02*
X22662064Y-5162856D01*
X22662064Y-5162856D02*
X22662064Y-5259618D01*
X22662064Y-5259618D02*
X22613684Y-5404761D01*
X22613684Y-5404761D02*
X22516922Y-5501523D01*
X22516922Y-5501523D02*
X22420160Y-5549904D01*
X22420160Y-5549904D02*
X22226636Y-5598285D01*
X22226636Y-5598285D02*
X22081493Y-5598285D01*
X22081493Y-5598285D02*
X21887969Y-5549904D01*
X21887969Y-5549904D02*
X21791207Y-5501523D01*
X21791207Y-5501523D02*
X21694445Y-5404761D01*
X21694445Y-5404761D02*
X21646064Y-5259618D01*
X21646064Y-5259618D02*
X21646064Y-5162856D01*
X21646064Y-5162856D02*
X21694445Y-5017713D01*
X21694445Y-5017713D02*
X21742826Y-4969332D01*
X21646064Y-4630666D02*
X21646064Y-3953332D01*
X21646064Y-3953332D02*
X22662064Y-4388761D01*
X14034095Y-446064D02*
X14034095Y-1268541D01*
X14034095Y-1268541D02*
X14082476Y-1365303D01*
X14082476Y-1365303D02*
X14130857Y-1413684D01*
X14130857Y-1413684D02*
X14227619Y-1462064D01*
X14227619Y-1462064D02*
X14421143Y-1462064D01*
X14421143Y-1462064D02*
X14517905Y-1413684D01*
X14517905Y-1413684D02*
X14566286Y-1365303D01*
X14566286Y-1365303D02*
X14614667Y-1268541D01*
X14614667Y-1268541D02*
X14614667Y-446064D01*
X15050095Y-1413684D02*
X15195238Y-1462064D01*
X15195238Y-1462064D02*
X15437143Y-1462064D01*
X15437143Y-1462064D02*
X15533905Y-1413684D01*
X15533905Y-1413684D02*
X15582286Y-1365303D01*
X15582286Y-1365303D02*
X15630667Y-1268541D01*
X15630667Y-1268541D02*
X15630667Y-1171779D01*
X15630667Y-1171779D02*
X15582286Y-1075017D01*
X15582286Y-1075017D02*
X15533905Y-1026636D01*
X15533905Y-1026636D02*
X15437143Y-978255D01*
X15437143Y-978255D02*
X15243619Y-929874D01*
X15243619Y-929874D02*
X15146857Y-881493D01*
X15146857Y-881493D02*
X15098476Y-833112D01*
X15098476Y-833112D02*
X15050095Y-736350D01*
X15050095Y-736350D02*
X15050095Y-639588D01*
X15050095Y-639588D02*
X15098476Y-542826D01*
X15098476Y-542826D02*
X15146857Y-494445D01*
X15146857Y-494445D02*
X15243619Y-446064D01*
X15243619Y-446064D02*
X15485524Y-446064D01*
X15485524Y-446064D02*
X15630667Y-494445D01*
X16404762Y-929874D02*
X16549905Y-978255D01*
X16549905Y-978255D02*
X16598286Y-1026636D01*
X16598286Y-1026636D02*
X16646667Y-1123398D01*
X16646667Y-1123398D02*
X16646667Y-1268541D01*
X16646667Y-1268541D02*
X16598286Y-1365303D01*
X16598286Y-1365303D02*
X16549905Y-1413684D01*
X16549905Y-1413684D02*
X16453143Y-1462064D01*
X16453143Y-1462064D02*
X16066095Y-1462064D01*
X16066095Y-1462064D02*
X16066095Y-446064D01*
X16066095Y-446064D02*
X16404762Y-446064D01*
X16404762Y-446064D02*
X16501524Y-494445D01*
X16501524Y-494445D02*
X16549905Y-542826D01*
X16549905Y-542826D02*
X16598286Y-639588D01*
X16598286Y-639588D02*
X16598286Y-736350D01*
X16598286Y-736350D02*
X16549905Y-833112D01*
X16549905Y-833112D02*
X16501524Y-881493D01*
X16501524Y-881493D02*
X16404762Y-929874D01*
X16404762Y-929874D02*
X16066095Y-929874D01*
X17033714Y-542826D02*
X17082095Y-494445D01*
X17082095Y-494445D02*
X17178857Y-446064D01*
X17178857Y-446064D02*
X17420762Y-446064D01*
X17420762Y-446064D02*
X17517524Y-494445D01*
X17517524Y-494445D02*
X17565905Y-542826D01*
X17565905Y-542826D02*
X17614286Y-639588D01*
X17614286Y-639588D02*
X17614286Y-736350D01*
X17614286Y-736350D02*
X17565905Y-881493D01*
X17565905Y-881493D02*
X16985333Y-1462064D01*
X16985333Y-1462064D02*
X17614286Y-1462064D01*
X979874Y-8689166D02*
X979874Y-9027833D01*
X1512064Y-9027833D02*
X496064Y-9027833D01*
X496064Y-9027833D02*
X496064Y-8544023D01*
X979874Y-7818309D02*
X1028255Y-7673166D01*
X1028255Y-7673166D02*
X1076636Y-7624785D01*
X1076636Y-7624785D02*
X1173398Y-7576404D01*
X1173398Y-7576404D02*
X1318541Y-7576404D01*
X1318541Y-7576404D02*
X1415303Y-7624785D01*
X1415303Y-7624785D02*
X1463684Y-7673166D01*
X1463684Y-7673166D02*
X1512064Y-7769928D01*
X1512064Y-7769928D02*
X1512064Y-8156976D01*
X1512064Y-8156976D02*
X496064Y-8156976D01*
X496064Y-8156976D02*
X496064Y-7818309D01*
X496064Y-7818309D02*
X544445Y-7721547D01*
X544445Y-7721547D02*
X592826Y-7673166D01*
X592826Y-7673166D02*
X689588Y-7624785D01*
X689588Y-7624785D02*
X786350Y-7624785D01*
X786350Y-7624785D02*
X883112Y-7673166D01*
X883112Y-7673166D02*
X931493Y-7721547D01*
X931493Y-7721547D02*
X979874Y-7818309D01*
X979874Y-7818309D02*
X979874Y-8156976D01*
X1512064Y-6608785D02*
X1512064Y-7189357D01*
X1512064Y-6899071D02*
X496064Y-6899071D01*
X496064Y-6899071D02*
X641207Y-6995833D01*
X641207Y-6995833D02*
X737969Y-7092595D01*
X737969Y-7092595D02*
X786350Y-7189357D01*
X37430667Y-6665303D02*
X37382286Y-6713684D01*
X37382286Y-6713684D02*
X37237143Y-6762064D01*
X37237143Y-6762064D02*
X37140381Y-6762064D01*
X37140381Y-6762064D02*
X36995238Y-6713684D01*
X36995238Y-6713684D02*
X36898476Y-6616922D01*
X36898476Y-6616922D02*
X36850095Y-6520160D01*
X36850095Y-6520160D02*
X36801714Y-6326636D01*
X36801714Y-6326636D02*
X36801714Y-6181493D01*
X36801714Y-6181493D02*
X36850095Y-5987969D01*
X36850095Y-5987969D02*
X36898476Y-5891207D01*
X36898476Y-5891207D02*
X36995238Y-5794445D01*
X36995238Y-5794445D02*
X37140381Y-5746064D01*
X37140381Y-5746064D02*
X37237143Y-5746064D01*
X37237143Y-5746064D02*
X37382286Y-5794445D01*
X37382286Y-5794445D02*
X37430667Y-5842826D01*
X38398286Y-6762064D02*
X37817714Y-6762064D01*
X38108000Y-6762064D02*
X38108000Y-5746064D01*
X38108000Y-5746064D02*
X38011238Y-5891207D01*
X38011238Y-5891207D02*
X37914476Y-5987969D01*
X37914476Y-5987969D02*
X37817714Y-6036350D01*
X77134095Y-3746064D02*
X77134095Y-4568541D01*
X77134095Y-4568541D02*
X77182476Y-4665303D01*
X77182476Y-4665303D02*
X77230857Y-4713684D01*
X77230857Y-4713684D02*
X77327619Y-4762064D01*
X77327619Y-4762064D02*
X77521143Y-4762064D01*
X77521143Y-4762064D02*
X77617905Y-4713684D01*
X77617905Y-4713684D02*
X77666286Y-4665303D01*
X77666286Y-4665303D02*
X77714667Y-4568541D01*
X77714667Y-4568541D02*
X77714667Y-3746064D01*
X78150095Y-4713684D02*
X78295238Y-4762064D01*
X78295238Y-4762064D02*
X78537143Y-4762064D01*
X78537143Y-4762064D02*
X78633905Y-4713684D01*
X78633905Y-4713684D02*
X78682286Y-4665303D01*
X78682286Y-4665303D02*
X78730667Y-4568541D01*
X78730667Y-4568541D02*
X78730667Y-4471779D01*
X78730667Y-4471779D02*
X78682286Y-4375017D01*
X78682286Y-4375017D02*
X78633905Y-4326636D01*
X78633905Y-4326636D02*
X78537143Y-4278255D01*
X78537143Y-4278255D02*
X78343619Y-4229874D01*
X78343619Y-4229874D02*
X78246857Y-4181493D01*
X78246857Y-4181493D02*
X78198476Y-4133112D01*
X78198476Y-4133112D02*
X78150095Y-4036350D01*
X78150095Y-4036350D02*
X78150095Y-3939588D01*
X78150095Y-3939588D02*
X78198476Y-3842826D01*
X78198476Y-3842826D02*
X78246857Y-3794445D01*
X78246857Y-3794445D02*
X78343619Y-3746064D01*
X78343619Y-3746064D02*
X78585524Y-3746064D01*
X78585524Y-3746064D02*
X78730667Y-3794445D01*
X79504762Y-4229874D02*
X79649905Y-4278255D01*
X79649905Y-4278255D02*
X79698286Y-4326636D01*
X79698286Y-4326636D02*
X79746667Y-4423398D01*
X79746667Y-4423398D02*
X79746667Y-4568541D01*
X79746667Y-4568541D02*
X79698286Y-4665303D01*
X79698286Y-4665303D02*
X79649905Y-4713684D01*
X79649905Y-4713684D02*
X79553143Y-4762064D01*
X79553143Y-4762064D02*
X79166095Y-4762064D01*
X79166095Y-4762064D02*
X79166095Y-3746064D01*
X79166095Y-3746064D02*
X79504762Y-3746064D01*
X79504762Y-3746064D02*
X79601524Y-3794445D01*
X79601524Y-3794445D02*
X79649905Y-3842826D01*
X79649905Y-3842826D02*
X79698286Y-3939588D01*
X79698286Y-3939588D02*
X79698286Y-4036350D01*
X79698286Y-4036350D02*
X79649905Y-4133112D01*
X79649905Y-4133112D02*
X79601524Y-4181493D01*
X79601524Y-4181493D02*
X79504762Y-4229874D01*
X79504762Y-4229874D02*
X79166095Y-4229874D01*
X80617524Y-4084731D02*
X80617524Y-4762064D01*
X80375619Y-3697684D02*
X80133714Y-4423398D01*
X80133714Y-4423398D02*
X80762667Y-4423398D01*
X93025904Y-13946064D02*
X93025904Y-14768541D01*
X93025904Y-14768541D02*
X93074285Y-14865303D01*
X93074285Y-14865303D02*
X93122666Y-14913684D01*
X93122666Y-14913684D02*
X93219428Y-14962064D01*
X93219428Y-14962064D02*
X93412952Y-14962064D01*
X93412952Y-14962064D02*
X93509714Y-14913684D01*
X93509714Y-14913684D02*
X93558095Y-14865303D01*
X93558095Y-14865303D02*
X93606476Y-14768541D01*
X93606476Y-14768541D02*
X93606476Y-13946064D01*
X94041904Y-14042826D02*
X94090285Y-13994445D01*
X94090285Y-13994445D02*
X94187047Y-13946064D01*
X94187047Y-13946064D02*
X94428952Y-13946064D01*
X94428952Y-13946064D02*
X94525714Y-13994445D01*
X94525714Y-13994445D02*
X94574095Y-14042826D01*
X94574095Y-14042826D02*
X94622476Y-14139588D01*
X94622476Y-14139588D02*
X94622476Y-14236350D01*
X94622476Y-14236350D02*
X94574095Y-14381493D01*
X94574095Y-14381493D02*
X93993523Y-14962064D01*
X93993523Y-14962064D02*
X94622476Y-14962064D01*
X58479874Y-7246666D02*
X58479874Y-7585333D01*
X59012064Y-7585333D02*
X57996064Y-7585333D01*
X57996064Y-7585333D02*
X57996064Y-7101523D01*
X58479874Y-6375809D02*
X58528255Y-6230666D01*
X58528255Y-6230666D02*
X58576636Y-6182285D01*
X58576636Y-6182285D02*
X58673398Y-6133904D01*
X58673398Y-6133904D02*
X58818541Y-6133904D01*
X58818541Y-6133904D02*
X58915303Y-6182285D01*
X58915303Y-6182285D02*
X58963684Y-6230666D01*
X58963684Y-6230666D02*
X59012064Y-6327428D01*
X59012064Y-6327428D02*
X59012064Y-6714476D01*
X59012064Y-6714476D02*
X57996064Y-6714476D01*
X57996064Y-6714476D02*
X57996064Y-6375809D01*
X57996064Y-6375809D02*
X58044445Y-6279047D01*
X58044445Y-6279047D02*
X58092826Y-6230666D01*
X58092826Y-6230666D02*
X58189588Y-6182285D01*
X58189588Y-6182285D02*
X58286350Y-6182285D01*
X58286350Y-6182285D02*
X58383112Y-6230666D01*
X58383112Y-6230666D02*
X58431493Y-6279047D01*
X58431493Y-6279047D02*
X58479874Y-6375809D01*
X58479874Y-6375809D02*
X58479874Y-6714476D01*
X57996064Y-5795238D02*
X57996064Y-5166285D01*
X57996064Y-5166285D02*
X58383112Y-5504952D01*
X58383112Y-5504952D02*
X58383112Y-5359809D01*
X58383112Y-5359809D02*
X58431493Y-5263047D01*
X58431493Y-5263047D02*
X58479874Y-5214666D01*
X58479874Y-5214666D02*
X58576636Y-5166285D01*
X58576636Y-5166285D02*
X58818541Y-5166285D01*
X58818541Y-5166285D02*
X58915303Y-5214666D01*
X58915303Y-5214666D02*
X58963684Y-5263047D01*
X58963684Y-5263047D02*
X59012064Y-5359809D01*
X59012064Y-5359809D02*
X59012064Y-5650095D01*
X59012064Y-5650095D02*
X58963684Y-5746857D01*
X58963684Y-5746857D02*
X58915303Y-5795238D01*
X14746064Y-10874095D02*
X15568541Y-10874095D01*
X15568541Y-10874095D02*
X15665303Y-10825714D01*
X15665303Y-10825714D02*
X15713684Y-10777333D01*
X15713684Y-10777333D02*
X15762064Y-10680571D01*
X15762064Y-10680571D02*
X15762064Y-10487047D01*
X15762064Y-10487047D02*
X15713684Y-10390285D01*
X15713684Y-10390285D02*
X15665303Y-10341904D01*
X15665303Y-10341904D02*
X15568541Y-10293523D01*
X15568541Y-10293523D02*
X14746064Y-10293523D01*
X14746064Y-9325904D02*
X14746064Y-9809714D01*
X14746064Y-9809714D02*
X15229874Y-9858095D01*
X15229874Y-9858095D02*
X15181493Y-9809714D01*
X15181493Y-9809714D02*
X15133112Y-9712952D01*
X15133112Y-9712952D02*
X15133112Y-9471047D01*
X15133112Y-9471047D02*
X15181493Y-9374285D01*
X15181493Y-9374285D02*
X15229874Y-9325904D01*
X15229874Y-9325904D02*
X15326636Y-9277523D01*
X15326636Y-9277523D02*
X15568541Y-9277523D01*
X15568541Y-9277523D02*
X15665303Y-9325904D01*
X15665303Y-9325904D02*
X15713684Y-9374285D01*
X15713684Y-9374285D02*
X15762064Y-9471047D01*
X15762064Y-9471047D02*
X15762064Y-9712952D01*
X15762064Y-9712952D02*
X15713684Y-9809714D01*
X15713684Y-9809714D02*
X15665303Y-9858095D01*
X6113667Y-10732064D02*
X5775000Y-10248255D01*
X5533095Y-10732064D02*
X5533095Y-9716064D01*
X5533095Y-9716064D02*
X5920143Y-9716064D01*
X5920143Y-9716064D02*
X6016905Y-9764445D01*
X6016905Y-9764445D02*
X6065286Y-9812826D01*
X6065286Y-9812826D02*
X6113667Y-9909588D01*
X6113667Y-9909588D02*
X6113667Y-10054731D01*
X6113667Y-10054731D02*
X6065286Y-10151493D01*
X6065286Y-10151493D02*
X6016905Y-10199874D01*
X6016905Y-10199874D02*
X5920143Y-10248255D01*
X5920143Y-10248255D02*
X5533095Y-10248255D01*
X6500714Y-9812826D02*
X6549095Y-9764445D01*
X6549095Y-9764445D02*
X6645857Y-9716064D01*
X6645857Y-9716064D02*
X6887762Y-9716064D01*
X6887762Y-9716064D02*
X6984524Y-9764445D01*
X6984524Y-9764445D02*
X7032905Y-9812826D01*
X7032905Y-9812826D02*
X7081286Y-9909588D01*
X7081286Y-9909588D02*
X7081286Y-10006350D01*
X7081286Y-10006350D02*
X7032905Y-10151493D01*
X7032905Y-10151493D02*
X6452333Y-10732064D01*
X6452333Y-10732064D02*
X7081286Y-10732064D01*
X22625904Y-14846064D02*
X22625904Y-15668541D01*
X22625904Y-15668541D02*
X22674285Y-15765303D01*
X22674285Y-15765303D02*
X22722666Y-15813684D01*
X22722666Y-15813684D02*
X22819428Y-15862064D01*
X22819428Y-15862064D02*
X23012952Y-15862064D01*
X23012952Y-15862064D02*
X23109714Y-15813684D01*
X23109714Y-15813684D02*
X23158095Y-15765303D01*
X23158095Y-15765303D02*
X23206476Y-15668541D01*
X23206476Y-15668541D02*
X23206476Y-14846064D01*
X23593523Y-14846064D02*
X24270857Y-14846064D01*
X24270857Y-14846064D02*
X23835428Y-15862064D01*
X39475904Y-796064D02*
X39475904Y-1618541D01*
X39475904Y-1618541D02*
X39524285Y-1715303D01*
X39524285Y-1715303D02*
X39572666Y-1763684D01*
X39572666Y-1763684D02*
X39669428Y-1812064D01*
X39669428Y-1812064D02*
X39862952Y-1812064D01*
X39862952Y-1812064D02*
X39959714Y-1763684D01*
X39959714Y-1763684D02*
X40008095Y-1715303D01*
X40008095Y-1715303D02*
X40056476Y-1618541D01*
X40056476Y-1618541D02*
X40056476Y-796064D01*
X41072476Y-1812064D02*
X40491904Y-1812064D01*
X40782190Y-1812064D02*
X40782190Y-796064D01*
X40782190Y-796064D02*
X40685428Y-941207D01*
X40685428Y-941207D02*
X40588666Y-1037969D01*
X40588666Y-1037969D02*
X40491904Y-1086350D01*
X30530667Y-3765303D02*
X30482286Y-3813684D01*
X30482286Y-3813684D02*
X30337143Y-3862064D01*
X30337143Y-3862064D02*
X30240381Y-3862064D01*
X30240381Y-3862064D02*
X30095238Y-3813684D01*
X30095238Y-3813684D02*
X29998476Y-3716922D01*
X29998476Y-3716922D02*
X29950095Y-3620160D01*
X29950095Y-3620160D02*
X29901714Y-3426636D01*
X29901714Y-3426636D02*
X29901714Y-3281493D01*
X29901714Y-3281493D02*
X29950095Y-3087969D01*
X29950095Y-3087969D02*
X29998476Y-2991207D01*
X29998476Y-2991207D02*
X30095238Y-2894445D01*
X30095238Y-2894445D02*
X30240381Y-2846064D01*
X30240381Y-2846064D02*
X30337143Y-2846064D01*
X30337143Y-2846064D02*
X30482286Y-2894445D01*
X30482286Y-2894445D02*
X30530667Y-2942826D01*
X31401524Y-2846064D02*
X31208000Y-2846064D01*
X31208000Y-2846064D02*
X31111238Y-2894445D01*
X31111238Y-2894445D02*
X31062857Y-2942826D01*
X31062857Y-2942826D02*
X30966095Y-3087969D01*
X30966095Y-3087969D02*
X30917714Y-3281493D01*
X30917714Y-3281493D02*
X30917714Y-3668541D01*
X30917714Y-3668541D02*
X30966095Y-3765303D01*
X30966095Y-3765303D02*
X31014476Y-3813684D01*
X31014476Y-3813684D02*
X31111238Y-3862064D01*
X31111238Y-3862064D02*
X31304762Y-3862064D01*
X31304762Y-3862064D02*
X31401524Y-3813684D01*
X31401524Y-3813684D02*
X31449905Y-3765303D01*
X31449905Y-3765303D02*
X31498286Y-3668541D01*
X31498286Y-3668541D02*
X31498286Y-3426636D01*
X31498286Y-3426636D02*
X31449905Y-3329874D01*
X31449905Y-3329874D02*
X31401524Y-3281493D01*
X31401524Y-3281493D02*
X31304762Y-3233112D01*
X31304762Y-3233112D02*
X31111238Y-3233112D01*
X31111238Y-3233112D02*
X31014476Y-3281493D01*
X31014476Y-3281493D02*
X30966095Y-3329874D01*
X30966095Y-3329874D02*
X30917714Y-3426636D01*
X59225904Y-8046064D02*
X59225904Y-8868541D01*
X59225904Y-8868541D02*
X59274285Y-8965303D01*
X59274285Y-8965303D02*
X59322666Y-9013684D01*
X59322666Y-9013684D02*
X59419428Y-9062064D01*
X59419428Y-9062064D02*
X59612952Y-9062064D01*
X59612952Y-9062064D02*
X59709714Y-9013684D01*
X59709714Y-9013684D02*
X59758095Y-8965303D01*
X59758095Y-8965303D02*
X59806476Y-8868541D01*
X59806476Y-8868541D02*
X59806476Y-8046064D01*
X60725714Y-8046064D02*
X60532190Y-8046064D01*
X60532190Y-8046064D02*
X60435428Y-8094445D01*
X60435428Y-8094445D02*
X60387047Y-8142826D01*
X60387047Y-8142826D02*
X60290285Y-8287969D01*
X60290285Y-8287969D02*
X60241904Y-8481493D01*
X60241904Y-8481493D02*
X60241904Y-8868541D01*
X60241904Y-8868541D02*
X60290285Y-8965303D01*
X60290285Y-8965303D02*
X60338666Y-9013684D01*
X60338666Y-9013684D02*
X60435428Y-9062064D01*
X60435428Y-9062064D02*
X60628952Y-9062064D01*
X60628952Y-9062064D02*
X60725714Y-9013684D01*
X60725714Y-9013684D02*
X60774095Y-8965303D01*
X60774095Y-8965303D02*
X60822476Y-8868541D01*
X60822476Y-8868541D02*
X60822476Y-8626636D01*
X60822476Y-8626636D02*
X60774095Y-8529874D01*
X60774095Y-8529874D02*
X60725714Y-8481493D01*
X60725714Y-8481493D02*
X60628952Y-8433112D01*
X60628952Y-8433112D02*
X60435428Y-8433112D01*
X60435428Y-8433112D02*
X60338666Y-8481493D01*
X60338666Y-8481493D02*
X60290285Y-8529874D01*
X60290285Y-8529874D02*
X60241904Y-8626636D01*
X29730667Y-15465303D02*
X29682286Y-15513684D01*
X29682286Y-15513684D02*
X29537143Y-15562064D01*
X29537143Y-15562064D02*
X29440381Y-15562064D01*
X29440381Y-15562064D02*
X29295238Y-15513684D01*
X29295238Y-15513684D02*
X29198476Y-15416922D01*
X29198476Y-15416922D02*
X29150095Y-15320160D01*
X29150095Y-15320160D02*
X29101714Y-15126636D01*
X29101714Y-15126636D02*
X29101714Y-14981493D01*
X29101714Y-14981493D02*
X29150095Y-14787969D01*
X29150095Y-14787969D02*
X29198476Y-14691207D01*
X29198476Y-14691207D02*
X29295238Y-14594445D01*
X29295238Y-14594445D02*
X29440381Y-14546064D01*
X29440381Y-14546064D02*
X29537143Y-14546064D01*
X29537143Y-14546064D02*
X29682286Y-14594445D01*
X29682286Y-14594445D02*
X29730667Y-14642826D01*
X30311238Y-14981493D02*
X30214476Y-14933112D01*
X30214476Y-14933112D02*
X30166095Y-14884731D01*
X30166095Y-14884731D02*
X30117714Y-14787969D01*
X30117714Y-14787969D02*
X30117714Y-14739588D01*
X30117714Y-14739588D02*
X30166095Y-14642826D01*
X30166095Y-14642826D02*
X30214476Y-14594445D01*
X30214476Y-14594445D02*
X30311238Y-14546064D01*
X30311238Y-14546064D02*
X30504762Y-14546064D01*
X30504762Y-14546064D02*
X30601524Y-14594445D01*
X30601524Y-14594445D02*
X30649905Y-14642826D01*
X30649905Y-14642826D02*
X30698286Y-14739588D01*
X30698286Y-14739588D02*
X30698286Y-14787969D01*
X30698286Y-14787969D02*
X30649905Y-14884731D01*
X30649905Y-14884731D02*
X30601524Y-14933112D01*
X30601524Y-14933112D02*
X30504762Y-14981493D01*
X30504762Y-14981493D02*
X30311238Y-14981493D01*
X30311238Y-14981493D02*
X30214476Y-15029874D01*
X30214476Y-15029874D02*
X30166095Y-15078255D01*
X30166095Y-15078255D02*
X30117714Y-15175017D01*
X30117714Y-15175017D02*
X30117714Y-15368541D01*
X30117714Y-15368541D02*
X30166095Y-15465303D01*
X30166095Y-15465303D02*
X30214476Y-15513684D01*
X30214476Y-15513684D02*
X30311238Y-15562064D01*
X30311238Y-15562064D02*
X30504762Y-15562064D01*
X30504762Y-15562064D02*
X30601524Y-15513684D01*
X30601524Y-15513684D02*
X30649905Y-15465303D01*
X30649905Y-15465303D02*
X30698286Y-15368541D01*
X30698286Y-15368541D02*
X30698286Y-15175017D01*
X30698286Y-15175017D02*
X30649905Y-15078255D01*
X30649905Y-15078255D02*
X30601524Y-15029874D01*
X30601524Y-15029874D02*
X30504762Y-14981493D01*
X79725628Y-701564D02*
X79725628Y-1524041D01*
X79725628Y-1524041D02*
X79774009Y-1620803D01*
X79774009Y-1620803D02*
X79822390Y-1669184D01*
X79822390Y-1669184D02*
X79919152Y-1717564D01*
X79919152Y-1717564D02*
X80112676Y-1717564D01*
X80112676Y-1717564D02*
X80209438Y-1669184D01*
X80209438Y-1669184D02*
X80257819Y-1620803D01*
X80257819Y-1620803D02*
X80306200Y-1524041D01*
X80306200Y-1524041D02*
X80306200Y-701564D01*
X80741628Y-1669184D02*
X80886771Y-1717564D01*
X80886771Y-1717564D02*
X81128676Y-1717564D01*
X81128676Y-1717564D02*
X81225438Y-1669184D01*
X81225438Y-1669184D02*
X81273819Y-1620803D01*
X81273819Y-1620803D02*
X81322200Y-1524041D01*
X81322200Y-1524041D02*
X81322200Y-1427279D01*
X81322200Y-1427279D02*
X81273819Y-1330517D01*
X81273819Y-1330517D02*
X81225438Y-1282136D01*
X81225438Y-1282136D02*
X81128676Y-1233755D01*
X81128676Y-1233755D02*
X80935152Y-1185374D01*
X80935152Y-1185374D02*
X80838390Y-1136993D01*
X80838390Y-1136993D02*
X80790009Y-1088612D01*
X80790009Y-1088612D02*
X80741628Y-991850D01*
X80741628Y-991850D02*
X80741628Y-895088D01*
X80741628Y-895088D02*
X80790009Y-798326D01*
X80790009Y-798326D02*
X80838390Y-749945D01*
X80838390Y-749945D02*
X80935152Y-701564D01*
X80935152Y-701564D02*
X81177057Y-701564D01*
X81177057Y-701564D02*
X81322200Y-749945D01*
X82096295Y-1185374D02*
X82241438Y-1233755D01*
X82241438Y-1233755D02*
X82289819Y-1282136D01*
X82289819Y-1282136D02*
X82338200Y-1378898D01*
X82338200Y-1378898D02*
X82338200Y-1524041D01*
X82338200Y-1524041D02*
X82289819Y-1620803D01*
X82289819Y-1620803D02*
X82241438Y-1669184D01*
X82241438Y-1669184D02*
X82144676Y-1717564D01*
X82144676Y-1717564D02*
X81757628Y-1717564D01*
X81757628Y-1717564D02*
X81757628Y-701564D01*
X81757628Y-701564D02*
X82096295Y-701564D01*
X82096295Y-701564D02*
X82193057Y-749945D01*
X82193057Y-749945D02*
X82241438Y-798326D01*
X82241438Y-798326D02*
X82289819Y-895088D01*
X82289819Y-895088D02*
X82289819Y-991850D01*
X82289819Y-991850D02*
X82241438Y-1088612D01*
X82241438Y-1088612D02*
X82193057Y-1136993D01*
X82193057Y-1136993D02*
X82096295Y-1185374D01*
X82096295Y-1185374D02*
X81757628Y-1185374D01*
X83305819Y-1717564D02*
X82725247Y-1717564D01*
X83015533Y-1717564D02*
X83015533Y-701564D01*
X83015533Y-701564D02*
X82918771Y-846707D01*
X82918771Y-846707D02*
X82822009Y-943469D01*
X82822009Y-943469D02*
X82725247Y-991850D01*
%TO.C,FB4*%
X78660000Y-7213378D02*
X78660000Y-8012622D01*
X77540000Y-7213378D02*
X77540000Y-8012622D01*
%TO.C,C3*%
X44510000Y-4213748D02*
X44510000Y-5636252D01*
X42690000Y-4213748D02*
X42690000Y-5636252D01*
%TO.C,C9*%
X30005000Y-11665336D02*
X30005000Y-11449664D01*
X30725000Y-11665336D02*
X30725000Y-11449664D01*
%TO.C,C2*%
X37960000Y-2592164D02*
X37960000Y-2807836D01*
X37240000Y-2592164D02*
X37240000Y-2807836D01*
%TO.C,FB2*%
X99960000Y-7213378D02*
X99960000Y-8012622D01*
X98840000Y-7213378D02*
X98840000Y-8012622D01*
%TO.C,C4*%
X21560000Y-8542164D02*
X21560000Y-8757836D01*
X20840000Y-8542164D02*
X20840000Y-8757836D01*
%TO.C,R3*%
X53353641Y-9480000D02*
X53046359Y-9480000D01*
X53353641Y-8720000D02*
X53046359Y-8720000D01*
%TO.C,R4*%
X46346359Y-8820000D02*
X46653641Y-8820000D01*
X46346359Y-9580000D02*
X46653641Y-9580000D01*
%TO.C,U4*%
X28375000Y-13380000D02*
X28375000Y-12900000D01*
X28375000Y-13380000D02*
X24225000Y-13380000D01*
X28375000Y-12900000D02*
X29500000Y-12900000D01*
X28375000Y-3220000D02*
X28375000Y-3700000D01*
X28375000Y-3220000D02*
X24225000Y-3220000D01*
X24225000Y-13380000D02*
X24225000Y-12900000D01*
X24225000Y-3220000D02*
X24225000Y-3700000D01*
%TO.C,J1*%
X5700000Y-11600000D02*
X5700000Y-15000000D01*
X5700000Y-11600000D02*
X6600000Y-11600000D01*
X6600000Y-12000000D02*
X5700000Y-12000000D01*
X7000000Y-16100000D02*
X6500000Y-16100000D01*
X7550000Y-15400000D02*
X7000000Y-16100000D01*
X10450000Y-15400000D02*
X7550000Y-15400000D01*
X11000000Y-16100000D02*
X10450000Y-15400000D01*
X11000000Y-16100000D02*
X11500000Y-16100000D01*
X11400000Y-11600000D02*
X12300000Y-11600000D01*
X12300000Y-11600000D02*
X12300000Y-15000000D01*
X12300000Y-12000000D02*
X11400000Y-12000000D01*
X7341421Y-12558579D02*
G75*
G03*
X7341421Y-12558579I-141421J0D01*
G01*
%TO.C,Y1*%
X31015000Y-11377500D02*
X31015000Y-14677500D01*
X31015000Y-14677500D02*
X35015000Y-14677500D01*
%TO.C,C5*%
X22610000Y-8542164D02*
X22610000Y-8757836D01*
X21890000Y-8542164D02*
X21890000Y-8757836D01*
%TO.C,D1*%
X18517767Y-4596447D02*
X16396447Y-6717767D01*
X17103553Y-3182233D02*
X14982233Y-5303553D01*
X17288815Y-4411185D02*
X16211185Y-5488815D01*
X17468420Y-4950000D02*
X16750000Y-4231580D01*
X17109210Y-5309210D02*
X16390790Y-4590790D01*
X16750000Y-4950000D02*
X17468420Y-4950000D01*
X16750000Y-4950000D02*
X16750000Y-4231580D01*
X16750000Y-4950000D02*
X16750000Y-5668420D01*
X16750000Y-4950000D02*
X16031580Y-4950000D01*
X16570395Y-4770395D02*
X16929605Y-5129605D01*
X16031580Y-4950000D02*
X16750000Y-5668420D01*
%TO.C,U3*%
X47942000Y-8740000D02*
X50842000Y-8740000D01*
X47942000Y-9350000D02*
X47942000Y-8740000D01*
X50042000Y-11860000D02*
X49242000Y-11860000D01*
X50042000Y-11860000D02*
X50842000Y-11860000D01*
%TO.C,R1*%
X11559359Y-8720000D02*
X11866641Y-8720000D01*
X11559359Y-9480000D02*
X11866641Y-9480000D01*
%TO.C,C7*%
X21890000Y-6807836D02*
X21890000Y-6592164D01*
X22610000Y-6807836D02*
X22610000Y-6592164D01*
%TO.C,FB1*%
X2040000Y-8242122D02*
X2040000Y-7442878D01*
X3160000Y-8242122D02*
X3160000Y-7442878D01*
%TO.C,C1*%
X37240000Y-4757836D02*
X37240000Y-4542164D01*
X37960000Y-4757836D02*
X37960000Y-4542164D01*
%TO.C,USB4*%
X76242000Y-4111500D02*
X76242000Y-7237500D01*
X76242000Y500D02*
X76242000Y-1235500D01*
X76112000Y-10179500D02*
X73993000Y-10179500D01*
X74848000Y-6501500D02*
X74339000Y-6497500D01*
X74353000Y-766500D02*
X74848000Y-6501500D01*
X74339000Y-6497500D02*
X73829000Y-1957500D01*
X74011000Y-4134500D02*
X71750000Y-4134500D01*
X73871000Y-2924500D02*
X71841000Y-2924500D01*
X73829000Y-1957500D02*
X73754000Y-1279500D01*
X73754000Y-1279500D02*
X72004000Y-1289500D01*
X72131000Y-10179500D02*
X71494000Y-10179500D01*
X72004000Y-1289500D02*
X71530000Y-6068500D01*
X71530000Y-6068500D02*
X71500000Y-6498500D01*
X71500000Y-6498500D02*
X71120000Y-6498500D01*
X71470000Y-755500D02*
X74353000Y-766500D01*
X71120000Y-6498500D02*
X71470000Y-755500D01*
X69632000Y-10179500D02*
X69492000Y-10179500D01*
X68009000Y-6431500D02*
X67500000Y-6428500D01*
X67630000Y-10179500D02*
X66993000Y-10179500D01*
X67514000Y-696500D02*
X68009000Y-6431500D01*
X67500000Y-6428500D02*
X66990000Y-1887500D01*
X67161000Y-4205500D02*
X64901000Y-4205500D01*
X67021000Y-2995500D02*
X64991000Y-2995500D01*
X66990000Y-1887500D02*
X66915000Y-1209500D01*
X66915000Y-1209500D02*
X65165000Y-1220500D01*
X65165000Y-1220500D02*
X64691000Y-5998500D01*
X65131000Y-10179500D02*
X63012000Y-10179500D01*
X64691000Y-5998500D02*
X64661000Y-6428500D01*
X64661000Y-6428500D02*
X64281000Y-6428500D01*
X64631000Y-685500D02*
X67514000Y-696500D01*
X64281000Y-6428500D02*
X64631000Y-685500D01*
X63012000Y-10179500D02*
X63012000Y-10144500D01*
X63012000Y-7206500D02*
X63012000Y-4193500D01*
X63012000Y-1255500D02*
X63012000Y500D01*
X63012000Y500D02*
X76242000Y500D01*
%TO.C,U2*%
X88692000Y-11840000D02*
X91592000Y-11840000D01*
X88692000Y-12450000D02*
X88692000Y-11840000D01*
X90792000Y-14960000D02*
X89992000Y-14960000D01*
X90792000Y-14960000D02*
X91592000Y-14960000D01*
%TO.C,FB3*%
X57560000Y-5317878D02*
X57560000Y-6117122D01*
X56440000Y-5317878D02*
X56440000Y-6117122D01*
%TO.C,U5*%
X19260000Y-8000000D02*
X19260000Y-10900000D01*
X18650000Y-8000000D02*
X19260000Y-8000000D01*
X16140000Y-10100000D02*
X16140000Y-9300000D01*
X16140000Y-10100000D02*
X16140000Y-10900000D01*
%TO.C,R2*%
X6436641Y-9480000D02*
X6129359Y-9480000D01*
X6436641Y-8720000D02*
X6129359Y-8720000D01*
%TO.C,U7*%
X19540000Y-15400000D02*
X19540000Y-12500000D01*
X20150000Y-15400000D02*
X19540000Y-15400000D01*
X22660000Y-13300000D02*
X22660000Y-14100000D01*
X22660000Y-13300000D02*
X22660000Y-12500000D01*
%TO.C,U1*%
X40250000Y-2190000D02*
X38450000Y-2190000D01*
X40250000Y-2190000D02*
X41050000Y-2190000D01*
X40250000Y-5310000D02*
X39450000Y-5310000D01*
X40250000Y-5310000D02*
X41050000Y-5310000D01*
%TO.C,C6*%
X30710000Y-4854664D02*
X30710000Y-5070336D01*
X29990000Y-4854664D02*
X29990000Y-5070336D01*
%TO.C,U6*%
X57900000Y-9440000D02*
X60800000Y-9440000D01*
X57900000Y-10050000D02*
X57900000Y-9440000D01*
X60000000Y-12560000D02*
X59200000Y-12560000D01*
X60000000Y-12560000D02*
X60800000Y-12560000D01*
%TO.C,C8*%
X30725000Y-13369664D02*
X30725000Y-13585336D01*
X30005000Y-13369664D02*
X30005000Y-13585336D01*
%TO.C,USB1*%
X97472000Y-4111500D02*
X97472000Y-7237500D01*
X97472000Y500D02*
X97472000Y-1235500D01*
X97342000Y-10179500D02*
X95223000Y-10179500D01*
X96078000Y-6501500D02*
X95569000Y-6497500D01*
X95583000Y-766500D02*
X96078000Y-6501500D01*
X95569000Y-6497500D02*
X95059000Y-1957500D01*
X95241000Y-4134500D02*
X92980000Y-4134500D01*
X95101000Y-2924500D02*
X93071000Y-2924500D01*
X95059000Y-1957500D02*
X94984000Y-1279500D01*
X94984000Y-1279500D02*
X93234000Y-1289500D01*
X93361000Y-10179500D02*
X92724000Y-10179500D01*
X93234000Y-1289500D02*
X92760000Y-6068500D01*
X92760000Y-6068500D02*
X92730000Y-6498500D01*
X92730000Y-6498500D02*
X92350000Y-6498500D01*
X92700000Y-755500D02*
X95583000Y-766500D01*
X92350000Y-6498500D02*
X92700000Y-755500D01*
X90862000Y-10179500D02*
X90722000Y-10179500D01*
X89239000Y-6431500D02*
X88730000Y-6428500D01*
X88860000Y-10179500D02*
X88223000Y-10179500D01*
X88744000Y-696500D02*
X89239000Y-6431500D01*
X88730000Y-6428500D02*
X88220000Y-1887500D01*
X88391000Y-4205500D02*
X86131000Y-4205500D01*
X88251000Y-2995500D02*
X86221000Y-2995500D01*
X88220000Y-1887500D02*
X88145000Y-1209500D01*
X88145000Y-1209500D02*
X86395000Y-1220500D01*
X86395000Y-1220500D02*
X85921000Y-5998500D01*
X86361000Y-10179500D02*
X84242000Y-10179500D01*
X85921000Y-5998500D02*
X85891000Y-6428500D01*
X85891000Y-6428500D02*
X85511000Y-6428500D01*
X85861000Y-685500D02*
X88744000Y-696500D01*
X85511000Y-6428500D02*
X85861000Y-685500D01*
X84242000Y-10179500D02*
X84242000Y-10144500D01*
X84242000Y-7206500D02*
X84242000Y-4193500D01*
X84242000Y-1255500D02*
X84242000Y500D01*
X84242000Y500D02*
X97472000Y500D01*
%TD*%
%LPC*%
D12*
%TO.C,FB4*%
X78100000Y-6550500D03*
X78100000Y-8675500D03*
%TD*%
D13*
%TO.C,C3*%
X43600000Y-3450000D03*
X43600000Y-6400000D03*
%TD*%
D14*
%TO.C,C9*%
X30365000Y-12037500D03*
X30365000Y-11077500D03*
%TD*%
D15*
%TO.C,USB3*%
X53432000Y-6250000D03*
X47652000Y-6250000D03*
D16*
X53767000Y-7695000D03*
X52992000Y-7695000D03*
D17*
X51792000Y-7695000D03*
X50792000Y-7695000D03*
X50292000Y-7695000D03*
X49292000Y-7695000D03*
D16*
X47317000Y-7695000D03*
X48092000Y-7695000D03*
D17*
X48792000Y-7695000D03*
X49792000Y-7695000D03*
X51292000Y-7695000D03*
X52292000Y-7695000D03*
D18*
X54862000Y-6780000D03*
D19*
X54862000Y-2600000D03*
D18*
X46222000Y-6780000D03*
D19*
X46222000Y-2600000D03*
%TD*%
D20*
%TO.C,C2*%
X37600000Y-2220000D03*
X37600000Y-3180000D03*
%TD*%
D12*
%TO.C,FB2*%
X99400000Y-6550500D03*
X99400000Y-8675500D03*
%TD*%
D20*
%TO.C,C4*%
X21200000Y-8170000D03*
X21200000Y-9130000D03*
%TD*%
D21*
%TO.C,H7*%
X96900000Y-15400000D03*
%TD*%
%TO.C,H6*%
X4700000Y-15600000D03*
%TD*%
D22*
%TO.C,R3*%
X53710000Y-9100000D03*
X52690000Y-9100000D03*
%TD*%
D23*
%TO.C,R4*%
X45990000Y-9200000D03*
X47010000Y-9200000D03*
%TD*%
D24*
%TO.C,U4*%
X28900000Y-12427500D03*
X28900000Y-11792500D03*
X28900000Y-11157500D03*
X28900000Y-10522500D03*
X28900000Y-9887500D03*
X28900000Y-9252500D03*
X28900000Y-8617500D03*
X28900000Y-7982500D03*
X28900000Y-7347500D03*
X28900000Y-6712500D03*
X28900000Y-6077500D03*
X28900000Y-5442500D03*
X28900000Y-4807500D03*
X28900000Y-4172500D03*
X23700000Y-4172500D03*
X23700000Y-4807500D03*
X23700000Y-5442500D03*
X23700000Y-6077500D03*
X23700000Y-6712500D03*
X23700000Y-7347500D03*
X23700000Y-7982500D03*
X23700000Y-8617500D03*
X23700000Y-9252500D03*
X23700000Y-9887500D03*
X23700000Y-10522500D03*
X23700000Y-11157500D03*
X23700000Y-11792500D03*
X23700000Y-12427500D03*
%TD*%
D25*
%TO.C,J1*%
X6050000Y-15600000D03*
D26*
X7200000Y-11600000D03*
X8400000Y-11600000D03*
X9600000Y-11600000D03*
X10800000Y-11600000D03*
D25*
X11950000Y-15600000D03*
%TD*%
D27*
%TO.C,Y1*%
X31915000Y-13877500D03*
X34115000Y-13877500D03*
X34115000Y-12177500D03*
X31915000Y-12177500D03*
%TD*%
D20*
%TO.C,C5*%
X22250000Y-8170000D03*
X22250000Y-9130000D03*
%TD*%
D28*
%TO.C,D1*%
X17952082Y-3747918D03*
X15547918Y-6152082D03*
%TD*%
D29*
%TO.C,U3*%
X48867000Y-9350000D03*
X48867000Y-10300000D03*
X48867000Y-11250000D03*
X51217000Y-11250000D03*
X51217000Y-10300000D03*
X51217000Y-9350000D03*
%TD*%
D23*
%TO.C,R1*%
X11203000Y-9100000D03*
X12223000Y-9100000D03*
%TD*%
D30*
%TO.C,H3*%
X2000000Y-14500000D03*
%TD*%
D14*
%TO.C,C7*%
X22250000Y-7180000D03*
X22250000Y-6220000D03*
%TD*%
D30*
%TO.C,H4*%
X100000000Y-14500000D03*
%TD*%
D15*
%TO.C,USB2*%
X11888000Y-6250000D03*
X6108000Y-6250000D03*
D16*
X12223000Y-7695000D03*
X11448000Y-7695000D03*
D17*
X10248000Y-7695000D03*
X9248000Y-7695000D03*
X8748000Y-7695000D03*
X7748000Y-7695000D03*
D16*
X5773000Y-7695000D03*
X6548000Y-7695000D03*
D17*
X7248000Y-7695000D03*
X8248000Y-7695000D03*
X9748000Y-7695000D03*
X10748000Y-7695000D03*
D18*
X13318000Y-6780000D03*
D19*
X13318000Y-2600000D03*
D18*
X4678000Y-6780000D03*
D19*
X4678000Y-2600000D03*
%TD*%
D31*
%TO.C,FB1*%
X2600000Y-8905000D03*
X2600000Y-6780000D03*
%TD*%
D14*
%TO.C,C1*%
X37600000Y-5130000D03*
X37600000Y-4170000D03*
%TD*%
D32*
%TO.C,USB4*%
X73062000Y-10149500D03*
X70563000Y-10149500D03*
X68561000Y-10149500D03*
X66062000Y-10149500D03*
D33*
X75963000Y-8675500D03*
X75963000Y-2673500D03*
X63161000Y-8675500D03*
X63161000Y-2724500D03*
%TD*%
D30*
%TO.C,H1*%
X100000000Y-2000000D03*
%TD*%
D29*
%TO.C,U2*%
X89617000Y-12450000D03*
X89617000Y-13400000D03*
X89617000Y-14350000D03*
X91967000Y-14350000D03*
X91967000Y-13400000D03*
X91967000Y-12450000D03*
%TD*%
D12*
%TO.C,FB3*%
X57000000Y-4655000D03*
X57000000Y-6780000D03*
%TD*%
D34*
%TO.C,U5*%
X18650000Y-8925000D03*
X17700000Y-8925000D03*
X16750000Y-8925000D03*
X16750000Y-11275000D03*
X17700000Y-11275000D03*
X18650000Y-11275000D03*
%TD*%
D30*
%TO.C,H2*%
X2000000Y-2000000D03*
%TD*%
D22*
%TO.C,R2*%
X6793000Y-9100000D03*
X5773000Y-9100000D03*
%TD*%
D35*
%TO.C,U7*%
X20150000Y-14475000D03*
X21100000Y-14475000D03*
X22050000Y-14475000D03*
X22050000Y-12125000D03*
X21100000Y-12125000D03*
X20150000Y-12125000D03*
%TD*%
D21*
%TO.C,H5*%
X1100000Y-4800000D03*
%TD*%
D36*
%TO.C,U1*%
X39112500Y-2800000D03*
X39112500Y-3750000D03*
X39112500Y-4700000D03*
X41387500Y-4700000D03*
X41387500Y-2800000D03*
%TD*%
D20*
%TO.C,C6*%
X30350000Y-4482500D03*
X30350000Y-5442500D03*
%TD*%
D29*
%TO.C,U6*%
X58825000Y-10050000D03*
X58825000Y-11000000D03*
X58825000Y-11950000D03*
X61175000Y-11950000D03*
X61175000Y-11000000D03*
X61175000Y-10050000D03*
%TD*%
D20*
%TO.C,C8*%
X30365000Y-12997500D03*
X30365000Y-13957500D03*
%TD*%
D32*
%TO.C,USB1*%
X94292000Y-10149500D03*
X91793000Y-10149500D03*
X89791000Y-10149500D03*
X87292000Y-10149500D03*
D33*
X97193000Y-8675500D03*
X97193000Y-2673500D03*
X84391000Y-8675500D03*
X84391000Y-2724500D03*
%TD*%
%LPD*%
M02*
